<svg xmlns="http://www.w3.org/2000/svg" viewBox="0 0 86.16 208.55"><defs><style>path{fill:#007fff}.cls-1{fill:#fff;}</style></defs><g id="Camada_2" data-name="Camada 2"><g id="Camada_5" data-name="Camada 5"><path d="M80,206.63c3.21-17.91,8.7-31.88-.68-49.61C67.11,134,40,123.23,23.06,103.47c-3.54-4.13-6.74-10-4-14.72,1.85-3.24,5.83-4.57,9.52-5.09,8.81-1.23,18,.6,26.57-1.65,8.41-2.2,15.43-8.13,20.75-15C82.23,58.76,86.66,48,84,37.93c-2-7.55-7.55-13.56-13-19.15C65,12.59,58.48,6.26,50.15,4,40.55,1.32,30,4.49,20.51,1.4A32,32,0,0,1,19.69,38c-3.05,4-7,7.23-10.07,11.26a30.48,30.48,0,0,0-5.77,22C4.92,78.69,10.45,83.79,9,91.69c-.91,5-3.36,9.51-5,14.28-8.69,24.84,5.68,53.49,27.9,67.59,16.51,10.46,38.23,16,46.8,33.6"/><path d="M80.68,206.83c2.24-10.26,5.28-20.73,4.8-31.34s-4.91-20.1-11.35-28.26c-11.91-15.1-29.29-24.43-43.2-37.42C25.78,105,12.2,91.75,23.74,86.32a21.46,21.46,0,0,1,7.58-1.63c3-.23,6.11-.18,9.16-.16,5.86.06,11.84,0,17.42-2C67.69,79.05,75.65,71,80.79,62.1A38.52,38.52,0,0,0,86,46.9,26.74,26.74,0,0,0,83,31.58c-2.5-4.73-6.14-8.76-9.83-12.59A95.11,95.11,0,0,0,61.32,8.1,32,32,0,0,0,46.6,1.85c-5.76-.8-11.58-.17-17.37-.42A32.4,32.4,0,0,1,20.88.06a1.4,1.4,0,0,0-1.57,2A30.53,30.53,0,0,1,23.8,25.53a29.43,29.43,0,0,1-4.87,11.14c-2.77,3.85-6.51,6.89-9.5,10.56C3.81,54.12,1,63.56,2.62,72.38c.73,3.93,2.77,7.4,4.11,11.12a16.38,16.38,0,0,1,1.1,5.82,22.35,22.35,0,0,1-1.55,6.92c-1.54,4.35-3.6,8.48-4.76,13A48.6,48.6,0,0,0,0,120.79a57.3,57.3,0,0,0,4.69,22.72A69.28,69.28,0,0,0,17.76,163.6,74.47,74.47,0,0,0,36.63,178c6.88,3.8,14.09,7,20.92,10.9,6.47,3.69,12.8,8.1,17.15,14.25a34.27,34.27,0,0,1,2.8,4.7c.78,1.59,3.16.2,2.37-1.39-7-14.1-22.16-20.87-35.51-27.53-7-3.52-14-7.49-19.89-12.73A67.58,67.58,0,0,1,9.7,147.48,57.12,57.12,0,0,1,3,125a46.88,46.88,0,0,1,.53-11.59,58.44,58.44,0,0,1,3.8-12.08C9,97.11,11,92.51,10.59,87.83c-.35-4-2.23-7.54-3.72-11.22C3.48,68.27,5,58.7,9.9,51.26c2.63-4,6.34-7,9.42-10.62a32.32,32.32,0,0,0,6.2-10.79,34,34,0,0,0-.95-24A30.59,30.59,0,0,0,21.71.69L20.14,2.74c10.92,3.45,22.92-.92,33.51,4,4.84,2.22,8.94,5.7,12.73,9.38A107.65,107.65,0,0,1,77.25,27.82c3.2,4.21,5.69,9,6.09,14.38A30.61,30.61,0,0,1,80,57.74C75.63,66.84,68,75.53,58.47,79.47c-5.35,2.22-11.1,2.45-16.81,2.42S30,81.45,24.6,83.18C20.15,84.61,16.51,88,16.72,93s3.55,9.3,6.78,12.85c12.71,14,29.72,23,43.09,36.26,7.08,7,13.14,15.48,15.64,25.26,2.64,10.32.44,20.68-1.59,30.88-.54,2.72-1,5.44-1.38,8.18-.13.9,1.21,1.33,1.42.39Z"/><path class="cls-1" d="M71.75,190.07c-4.67-9.81-14.49-15.7-24-20-10.63-4.86-22.33-8.72-30.37-17.64A27.78,27.78,0,0,1,10,136.12a.58.58,0,0,0-1.16,0C8.63,147,17.05,155.9,25.76,161.25c10.31,6.33,22.3,9.34,32.39,16.08a35.53,35.53,0,0,1,12.44,13.41c.39.78,1.53.1,1.16-.67Z"/><path class="cls-1" d="M72.09,178.93C70,173.51,64,170.74,59.31,168.07c-6.58-3.73-13.17-7.44-19.86-10.95a.2.2,0,0,0-.21.35c6.07,3.61,12.24,7.06,18.43,10.48,2.68,1.49,5.45,2.87,8,4.49s5,3.64,6.13,6.56c.06.14.3.08.24-.07Z"/><path class="cls-1" d="M15.87,120.07a35.74,35.74,0,0,0,2.56,16.48c2,4.83,5.1,9.83,9.32,13,.15.12.32-.12.2-.26a55.23,55.23,0,0,1-5.28-6.25,37,37,0,0,1-6.27-23c0-.34-.51-.34-.53,0Z"/><path class="cls-1" d="M10.59,105.58a73.18,73.18,0,0,0-2.88,22.56.1.1,0,0,0,.19,0,99.62,99.62,0,0,1,2.78-22.54c0-.06-.07-.08-.09,0Z"/><path class="cls-1" d="M25.59,119.86c-.93,9.32,5.34,17.42,12.71,22.36,8.46,5.67,18.53,8.61,26.6,14.91a30,30,0,0,1,9.42,12.09c.35.82,1.62.22,1.41-.6C73.52,160,65.08,154,57.48,150.22c-9-4.47-19.14-7.79-26-15.59-3.56-4-6-9.28-5.65-14.77,0-.15-.22-.15-.24,0Z"/><path class="cls-1" d="M50.85,138.43a99.06,99.06,0,0,1-13.13-11.06c-.22-.22-.55.11-.34.34a62.06,62.06,0,0,0,6.33,6,73.11,73.11,0,0,0,7,5c.18.11.33-.17.16-.29Z"/><path class="cls-1" d="M14.79,64.83c-1.76-4.71,1.46-9.32,4.69-12.44s6.37-6,9.3-9.27c5.56-6.21,9.17-14.37,8.15-22.83-.5-4.08-2-9-5.42-11.57-.62-.46-1.32.41-1,1a50.19,50.19,0,0,1,2.87,5.18,20.43,20.43,0,0,1,1.38,5.77A26.25,26.25,0,0,1,33,32.78a44.94,44.94,0,0,1-6.54,11.33c-2.72,3.42-6.29,6-9.17,9.29S12.49,60.83,14.5,65a.16.16,0,0,0,.29-.12Z"/><path class="cls-1" d="M30,55A33.37,33.37,0,0,0,43.48,39.08a38.56,38.56,0,0,0,2.76-10.23c.4-3.13.79-7-.47-10-.11-.25-.45-.1-.47.12-.09,1.69.22,3.37.29,5.06a33,33,0,0,1-.18,5.07,35.07,35.07,0,0,1-2.7,9.94A38.27,38.27,0,0,1,29.84,54.77c-.11.08,0,.26.11.19Z"/><path class="cls-1" d="M46.64,57.73a31.09,31.09,0,0,0,12-13.28,34.13,34.13,0,0,0,2.76-8.58c.5-2.87.89-6.11,0-8.93a.35.35,0,0,0-.69.1c-.24,2.9,0,5.79-.5,8.7a32.6,32.6,0,0,1-2.58,8.35,34,34,0,0,1-11.06,13.5c-.08.06,0,.19.08.14Z"/><path class="cls-1" d="M25.94,76.93c3.57-3,8-5.69,12.68-6.45,2.57-.42,5.2-.17,7.78-.39a26.68,26.68,0,0,0,6.26-1.28A27,27,0,0,0,69.79,51.56c1.45-4.54,2.08-10.28.24-14.8-.26-.64-1.41-.65-1.33.18a54.91,54.91,0,0,1,.45,6.4,27.1,27.1,0,0,1-1,6.52,24.72,24.72,0,0,1-6.49,11.07A25.83,25.83,0,0,1,51,67.18a26.12,26.12,0,0,1-6.39,1,35.72,35.72,0,0,0-7.16.54c-4.87,1.16-8.27,4.67-11.79,8-.18.16.08.42.26.26Z"/><path class="cls-1" d="M27.45,68.61c.82-.69,1.68-1.33,2.52-2s1.55-1.39,2.37-2a9.44,9.44,0,0,1,2.52-1.45A5.47,5.47,0,0,1,37.64,63c.3,0,.52-.34.22-.52-1.75-1-4,.24-5.43,1.28a47.45,47.45,0,0,0-5,4.8,0,0,0,0,0,0,0Z"/><path class="cls-1" d="M18.45,74a37,37,0,0,1,6.49-12.86c.13-.16-.09-.39-.23-.23a27,27,0,0,0-4.21,6,30.77,30.77,0,0,0-2.44,7,.2.2,0,0,0,.39.11Z"/></g></g></svg>