<svg xmlns="http://www.w3.org/2000/svg" viewBox="0 0 67.84 91.04"><defs><style>.cls-1{fill:#fff;stroke:#000;stroke-miterlimit:10;}</style></defs><g id="Camada_2" data-name="Camada 2"><g id="Camada_3" data-name="Camada 3"><path class="cls-1" d="M1,27.32s-4.88-16,16.56-19a12.54,12.54,0,0,0,7.34-6.79S28,12.1,41,8.71c0,0,22.68,29.57,26.34,39.09,0,0-6,37.27-11.2,41.39L40,90.5S28,45.93,10,26.12Z"/><path d="M17.43,34.3a50.42,50.42,0,0,0,24-21.77c.94-1.69-1.65-3.2-2.59-1.51a47.88,47.88,0,0,1-23,20.69,1.5,1.5,0,0,0-.54,2,1.53,1.53,0,0,0,2,.54Z"/><path d="M5.23,25.31A4.52,4.52,0,0,1,6.6,21.56a4.63,4.63,0,0,1,1.48-1,2.18,2.18,0,0,1,1.12-.21c.18,0,.24.17.35.32A20.42,20.42,0,0,1,11,23.16c.46.88.91,1.78,1.32,2.69a47.26,47.26,0,0,1,2.12,5.64c.56,1.84,3.46,1.06,2.89-.79a51.13,51.13,0,0,0-4.6-10.6A6.66,6.66,0,0,0,11,18,3.81,3.81,0,0,0,8,17.49,7.2,7.2,0,0,0,4,20a7.48,7.48,0,0,0-1.74,5.3,1.54,1.54,0,0,0,1.5,1.5,1.5,1.5,0,0,0,1.5-1.5Z"/><path d="M12.46,19.66a4,4,0,0,1,2.48-2.91c1.39-.39,2.28.47,2.94,1.63a56.22,56.22,0,0,1,4.37,10.26,1.54,1.54,0,0,0,1.85,1.05,1.51,1.51,0,0,0,1-1.85c-.75-2.24-1.61-4.46-2.57-6.63a22.84,22.84,0,0,0-3.1-5.78,5.18,5.18,0,0,0-5.89-1.38,7.16,7.16,0,0,0-4,4.82c-.55,1.85,2.35,2.64,2.89.79Z"/><path d="M18.12,16.11c2-1.7,3.9-4.41,6.92-3.79,1.44.3,2,1.41,2.58,2.64.74,1.55,1.48,3.1,2.2,4.66.31.68.54,1.66,1.29,1.95a.88.88,0,0,0,1.25-.71c.16-.75-.52-1.59-.86-2.22-.43-.79-.86-1.59-1.27-2.39a19.67,19.67,0,0,0-2.3-4,4.48,4.48,0,0,0-3.27-1.4c-3.05-.07-5.62,2.4-7,4.92a.29.29,0,0,0,.45.35Z"/><path d="M27.39,11.37A4.89,4.89,0,0,1,32.7,10c2.06.86,2.92,3.32,3.62,5.25a1,1,0,0,0,1.27.72,1,1,0,0,0,.72-1.27C37.32,12,36.06,9,33.17,8a5.43,5.43,0,0,0-6.64,2.7c-.24.52.42,1.17.86.66Z"/><path d="M25,14.11c-.05-.25-.25-.33-.43-.42a1.53,1.53,0,0,0-.82-.13,5,5,0,0,0-1.47.33l-.23.1s-.19.07-.08,0l-.38.13a3.72,3.72,0,0,0-.64.38,4.85,4.85,0,0,0-1.18,1.21.84.84,0,0,0,.3,1.15,4.14,4.14,0,0,0,2.94.21,4.45,4.45,0,0,0,2.4-1.73.89.89,0,0,0,0-.92,1.76,1.76,0,0,0-2.19-.71.89.89,0,0,0-.42.89.86.86,0,0,0,.63.74,2,2,0,0,0,.41,0c.1,0,.08,0-.07,0l.11,0q.14,0-.06,0l.1.06-.05,0,0,0v-.92l-.08.12c-.07.1.11-.13,0,0l-.18.2-.19.18s-.08.09-.12.1.15-.11,0,0a4.34,4.34,0,0,1-.46.28l-.13.06c-.1.06.21-.07,0,0a1.25,1.25,0,0,1-.25.09l-.26.07-.12,0s-.21,0-.06,0,0,0,0,0h-.42l-.26,0c-.12,0,0,0,.05,0l-.14,0a3.41,3.41,0,0,1-.55-.14l.5,1.24a2.4,2.4,0,0,1,.16-.27c0-.06.07-.11.1-.16l0-.07c-.1.14.21-.25.06-.07l.1-.12a2.83,2.83,0,0,1,.24-.25,1.51,1.51,0,0,1,.23-.21s.14-.12.07-.07.13-.1.17-.13a1.27,1.27,0,0,1,.12-.1h0l.05,0L22.9,15c.11-.05-.13,0,.06,0l.15-.06c.1,0,.2-.07.3-.09l.34-.08.15,0H24a2.94,2.94,0,0,0,.68-.16c.18,0,.41-.19.38-.41Z"/><path d="M31.75,10.78a1.17,1.17,0,0,0-.3-.14l.12.08a.58.58,0,0,0-.4-.22h-.79l-.53,0-.27,0h-.13c-.1,0-.09,0,0,0a.8.8,0,0,0-1,.77v.11c0,.13,0,0,0,0s-.05.22-.07.25,0,.08,0,.11.08-.14,0,0l-.13.23a.87.87,0,0,0,.52,1.27A4.31,4.31,0,0,0,31.16,13a3.68,3.68,0,0,0,2-1.63.88.88,0,0,0-.22-1.11.84.84,0,0,0-1.13.07,8.22,8.22,0,0,1-.66.66l-.1.08.07-.05-.19.12a3.55,3.55,0,0,1-.43.23l.08,0-.12.05-.22.07-.44.1c-.18,0,.16,0,.06,0h-.58c-.08,0-.36,0-.08,0l.52,1.27a2.31,2.31,0,0,0,.3-1.7l-.21.77c-.19.1-.23.13-.1.09l.13-.05.25-.08.51-.19.51-.19a1.55,1.55,0,0,0,.29-.14.63.63,0,0,0,.25-.36l-.13.17a.84.84,0,0,0,.26-.27s0-.09,0-.11Z"/><path d="M15.57,19.5a.67.67,0,0,0,.31-.84c-.21-.5-.84-.48-1.24-.26a4.1,4.1,0,0,0-.71.53l-.3.28-.13.12s-.22.2-.06.09l.55-.07c-.46-.14-.77.16-1,.47A.81.81,0,0,0,13,21a2.14,2.14,0,0,0,1.34.55,2.36,2.36,0,0,0,1.08-.17,2.73,2.73,0,0,0,1.07-.7A2.31,2.31,0,0,0,17,19.49a1,1,0,0,0-.16-.79.9.9,0,0,0-.71-.35l-.69,0a1.8,1.8,0,0,0-1,.15.87.87,0,0,0-.44.75.91.91,0,0,0,.44.76,2,2,0,0,0,1,.17h.69l-.91-.9v.06l0-.24a1.4,1.4,0,0,1-.1.35l.09-.21a1.38,1.38,0,0,1-.2.33l.14-.18a1.47,1.47,0,0,1-.31.3l.18-.13a2.22,2.22,0,0,1-.42.25l.21-.09a2.27,2.27,0,0,1-.51.14l.23,0a1.69,1.69,0,0,1-.45,0l.22,0a1.58,1.58,0,0,1-.37-.11l.2.09-.32-.13.2.08-.14-.07.3,1.11.15-.28a.83.83,0,0,0,0-.85v.71a.35.35,0,0,1,.05-.08l-.06.07.09-.11.18-.21c.12-.13.25-.27.38-.39l.2-.19,0,0,0,0s.19-.07,0,0c.1,0-.1,0-.13,0a.35.35,0,0,0,.14,0c.15,0,.1,0-.16-.05a.35.35,0,0,1-.11-.1.24.24,0,0,1-.06-.17.42.42,0,0,0,.63.36Z"/><path d="M8.56,22.22a2.7,2.7,0,0,0-1.3.77,2.79,2.79,0,0,0-.45.63,3,3,0,0,0-.26,1l0,.23a.71.71,0,0,0,.15.3,1,1,0,0,0,.45.31A3,3,0,0,0,9.57,25a3,3,0,0,0,1.38-2,1,1,0,0,0,0-.49l-.1-.22a.84.84,0,0,0-.66-.43.83.83,0,0,0-.68.18.61.61,0,0,0-.23.25.88.88,0,0,0-.13.47v0l0-.24a2.52,2.52,0,0,1-.13.47l.09-.22a2.07,2.07,0,0,1-.27.45L9,23.12a2.78,2.78,0,0,1-.42.42l.18-.14a3.2,3.2,0,0,1-.54.32l.21-.09a2.19,2.19,0,0,1-.57.16l.24,0a2,2,0,0,1-.49,0l.23,0-.21,0,.64.83a.41.41,0,0,1,0-.11l0,.23a2.94,2.94,0,0,1,.16-.58l-.08.2c.05-.11.11-.22.17-.33l.05-.07c-.08.11,0,0,0,0a.46.46,0,0,1,.07-.07.94.94,0,0,1,.25-.24s-.14.1,0,0l.08-.05.16-.09a.69.69,0,0,0,.28-.87.7.7,0,0,0-.81-.4Z"/><path d="M20.14,33.4a99.7,99.7,0,0,0,5.85,12c2.16,4,4.42,8,6.7,12A241.4,241.4,0,0,0,47.38,80a35.89,35.89,0,0,0,4.19,4.94c1.34,1.27,3.37,3.2,5.34,3.1a.88.88,0,0,0,.61-1.48,7.88,7.88,0,0,0-2.1-1.5,15.6,15.6,0,0,1-2.22-1.76A32.42,32.42,0,0,1,49.48,79c-2.58-3.47-5-7-7.49-10.61-4.94-7.24-9.73-14.59-14.11-22.18-2.47-4.28-4.69-8.76-7.38-12.91-.11-.18-.44-.07-.36.15Z"/><path d="M37.85,62.34c3.64-4.64,7.09-9.4,10.5-14.21q2.53-3.59,5-7.21Q54.7,39,56,37.1a31.51,31.51,0,0,0,2.55-3.87c.28-.59-.47-1.31-1-.75a27.55,27.55,0,0,0-2.28,3.36Q54,37.78,52.73,39.7q-2.5,3.75-5,7.47c-3.4,5-6.87,9.87-10.25,14.84-.18.25.23.57.42.33Z"/><path d="M39.8,32.54A33,33,0,0,0,37,35.32a27.07,27.07,0,0,0-2.23,2.56c-1.07,1.5-1.65,3.53-.48,5.16s3.35,1.25,4.82.09a38.08,38.08,0,0,0,5.27-5.2,16.16,16.16,0,0,0,3.66-5.86c.51-1.8.26-4.86-2-5.41a3.89,3.89,0,0,0-3.07,1,31.56,31.56,0,0,0-2.66,2.11,28,28,0,0,0-4.55,5.05,33.86,33.86,0,0,0-2,3.26,6.41,6.41,0,0,0-1,3.7c.24,2,2.49,3.57,4.21,2.15.57-.48-.15-1.3-.75-1a1.4,1.4,0,0,1-1.6-.49,2.51,2.51,0,0,1,0-2.53,18.44,18.44,0,0,1,2.85-4.47,36.88,36.88,0,0,1,3.36-3.71,16.79,16.79,0,0,1,4-3.11c2-1,1.79,2.43,1.43,3.5a15.42,15.42,0,0,1-2.9,4.57,45.42,45.42,0,0,1-3.69,4c-.95.92-2.79,3.07-4.2,1.82-1.62-1.44-.49-3.66.58-5,1.3-1.63,2.76-3.11,3.93-4.84.07-.11-.08-.21-.17-.13Z"/><path d="M48.07,62.17A14.05,14.05,0,0,0,51.5,59.3c1-1.06,2-2.18,3-3.33a50.28,50.28,0,0,0,5.09-7.45,1.13,1.13,0,0,0-2-1.14A52,52,0,0,1,52.8,54.6c-.88,1.1-1.82,2.17-2.8,3.2a27.5,27.5,0,0,0-3,3.28c-.47.71.43,1.41,1.09,1.09Z"/><path d="M53.14,63.65a2.71,2.71,0,0,0,.94-1c.35-.49.7-1,1-1.49.66-1,1.28-2,1.87-3s1.18-1.94,1.75-2.93a15.21,15.21,0,0,0,1.58-3.18.61.61,0,0,0-1.11-.47,22.85,22.85,0,0,0-1.44,3.09c-.49,1.07-1,2.13-1.56,3.15s-1.14,2-1.73,2.94l-.9,1.44a3,3,0,0,0-.63,1.3.12.12,0,0,0,.19.11Z"/><path d="M23.12,31.06a42,42,0,0,1,3.59,7c1.09,2.35,2.2,4.69,3.45,7s2.45,4.28,3.8,6.34c.7,1.06,1.42,2.11,2.16,3.14a14.88,14.88,0,0,0,2.29,2.88.33.33,0,0,0,.52-.41,21,21,0,0,0-2.2-2.89c-.76-1-1.51-2-2.23-3C33,49,31.67,46.86,30.42,44.64S28.08,40.2,27,37.94c-.54-1.11-1.08-2.23-1.66-3.33S23.85,32.24,23.2,31c0-.06-.12,0-.08,0Z"/><path d="M26.6,27.14c-.31,2.75,1.17,5.21,2.36,7.57,1.42,2.8,2.88,5.58,4.34,8.36s2.77,5.32,4.32,7.88a10.5,10.5,0,0,0,4.78,4.63c.59.24,1-.79.44-1-2.23-1-3.61-2.88-4.84-4.9-1.43-2.36-2.81-4.75-4.18-7.15s-2.67-4.77-3.95-7.18-3.18-5.22-3-8.16c0-.16-.23-.16-.25,0Z"/><path d="M37.8,55.88a4.68,4.68,0,0,0,.41.91c.19.31.41.59.62.88.41.58.81,1.17,1.25,1.72.24.29.73-.09.52-.4-.39-.57-.83-1.11-1.25-1.67l-.63-.83a4.27,4.27,0,0,0-.77-.7c-.06,0-.19,0-.15.09Z"/><path d="M29.52,25.73A58.46,58.46,0,0,0,33,31.39c1.19,1.86,2.37,3.73,3.6,5.57.15.21.49,0,.35-.21-1.18-1.91-2.42-3.78-3.65-5.67a60.34,60.34,0,0,0-3.69-5.39,0,0,0,0,0-.05,0Z"/><path d="M39.44,42a7.8,7.8,0,0,0,1.12,2.37c.46.8.93,1.58,1.44,2.35q1.5,2.25,3.2,4.37c.22.27.61-.12.39-.39a43.35,43.35,0,0,1-3.23-4.38Q41.64,45.2,41,44.09a10.1,10.1,0,0,0-1.42-2.2.07.07,0,0,0-.12.07Z"/><path d="M33,22.53c.45.85.85,1.72,1.31,2.56s.9,1.61,1.36,2.42c.92,1.63,1.75,3.34,2.75,4.92a.42.42,0,0,0,.73-.42c-.91-1.64-2-3.19-3-4.79-.49-.79-1-1.58-1.47-2.36s-1.09-1.57-1.62-2.37a0,0,0,0,0-.07,0Z"/><path d="M42.83,38.29A6,6,0,0,0,44,40.35c.45.64.89,1.29,1.33,1.94.91,1.34,1.71,2.76,2.64,4.08.21.29.69,0,.49-.28-.89-1.39-1.92-2.69-2.83-4.07l-1.34-2a5.44,5.44,0,0,0-1.4-1.75,0,0,0,0,0-.05,0Z"/><path d="M48.19,46.27l.37.34a.09.09,0,0,0,.12,0,.07.07,0,0,0,0-.12l-.34-.38a.11.11,0,0,0-.15,0,.11.11,0,0,0,0,.16Z"/><path d="M36.49,18.07c1.21,1.79,2.35,3.63,3.57,5.41l1.82,2.68.93,1.33c.26.36.47.84.88,1,.15.07.38,0,.36-.21a2.56,2.56,0,0,0-.66-1.16c-.32-.44-.63-.88-1-1.31-.64-.88-1.3-1.74-1.95-2.61-1.3-1.75-2.67-3.43-4-5.17,0,0,0,0,0,0Z"/><path d="M46.92,33.7a18.81,18.81,0,0,0,2.23,4c.45.62,1,1.2,1.42,1.81.22.29.44.59.68.86a2.44,2.44,0,0,0,.85.68c.13,0,.3-.11.25-.25a2.31,2.31,0,0,0-.61-.74l-.85-.79a12.76,12.76,0,0,1-1.48-1.8,27.92,27.92,0,0,1-2.29-3.87c-.06-.11-.25,0-.2.08Z"/><path d="M39.21,15.7c2.91,3.08,5.64,6.38,8.28,9.69a70.64,70.64,0,0,1,7.4,10.71c.28.52,1.13,0,.78-.46-2.54-3.44-4.89-7-7.55-10.36a97.39,97.39,0,0,0-8.89-9.61s0,0,0,0Z"/><path d="M20,32.08a31.47,31.47,0,0,0,1.81,4.23,13.45,13.45,0,0,0,1.13,1.85,6.48,6.48,0,0,0,1.62,1.72.54.54,0,0,0,.78-.6,8.49,8.49,0,0,0-.87-2c-.31-.63-.65-1.25-1-1.87a31.68,31.68,0,0,1-1.69-3.82,1,1,0,0,0-1.16-.65A.94.94,0,0,0,20,32.08Z"/><path d="M22.37,33.58a31.41,31.41,0,0,0,2.37,9.06q.84,2.13,1.84,4.2c.36.74.73,1.49,1.12,2.22a5.69,5.69,0,0,0,1.53,1.75.37.37,0,0,0,.61-.36,7,7,0,0,0-.65-2.25q-.51-1-1-2c-.69-1.4-1.34-2.82-2-4.24C25,39.18,24,36.28,22.54,33.53a.09.09,0,0,0-.17,0Z"/></g></g></svg>