<svg xmlns="http://www.w3.org/2000/svg" viewBox="0 0 173.18 123.38"><defs><style>.cls-1{fill:#fff;stroke:#000;stroke-miterlimit:10;stroke-width:3px;}</style></defs><g id="Camada_2" data-name="Camada 2"><g id="Camada_5" data-name="Camada 5"><path class="cls-1" d="M1.74,73.69S.29,67.49,4.56,64l1-3.21S1.14,43.91,20,45.7c0,0,12-3.55,13.41-13.88,0,0,7.73-21.9,22.09-28.11,0,0,21.57-8,29,6.4,0,0,24.17-11.82,39.28-2.22,0,0,30.11,3.6,10.11,40.6,0,0,33.91-4.81,37.45,9.59a18.92,18.92,0,0,1-5.45,17.41S161,85.92,103.89,90.2c0,0,4.27,7.43-11.89,13.86l5,11.06-12.22,3.93-1.44-11.72s-13-2-22.76-15.94a40,40,0,0,1-14.27,11.45A38.21,38.21,0,0,1,44.18,120S24.19,86.13,16,80.81A13.3,13.3,0,0,1,1.74,73.69Z"/><path d="M15.89,80c.76.93,2.82.22,3.81,0a15.3,15.3,0,0,0,4.47-2,23,23,0,0,0,6.48-6.83,26.55,26.55,0,0,0,3.57-8.81,27.17,27.17,0,0,0,.56-4.48c.06-1.36.32-3.48-.48-4.64a.81.81,0,0,0-1.46.19c-.44,1.14,0,2.81,0,4a25.33,25.33,0,0,1-.51,4.35,26.68,26.68,0,0,1-3.05,8.06,20.3,20.3,0,0,1-5.73,6.6,14.6,14.6,0,0,1-4.21,2c-1,.3-2.86.14-3.47,1.09a.35.35,0,0,0,.06.42Z"/><path d="M33.43,60.65c-.53,1.51.19,3.35,1,4.68a10.74,10.74,0,0,0,3.73,3.76,9.82,9.82,0,0,0,10.09,0,10.2,10.2,0,0,0,5.16-8.86c-.15-3.87-3.36-7.12-6.6-8.86A15.72,15.72,0,0,0,35,50l1.28.73a9,9,0,0,0-6.63-7.05,11.28,11.28,0,0,0-11,3.15.62.62,0,0,0,.75,1c2.86-1.44,6.23-2.95,9.49-2.15a6.91,6.91,0,0,1,5.34,5.63A1.06,1.06,0,0,0,35.5,52a13.27,13.27,0,0,1,10.64,1.48c3.41,2.12,6.09,6,4.07,10a8.14,8.14,0,0,1-8.74,4.42A8.53,8.53,0,0,1,37,65.13,9.84,9.84,0,0,1,35.57,63c-.4-.84-.56-1.71-1-2.52a.62.62,0,0,0-1.12.15Z"/><path d="M21.22,45.48a12.67,12.67,0,0,0-3.9,1.32A19.46,19.46,0,0,0,13.57,49a15.14,15.14,0,0,0-3,2.84A10.65,10.65,0,0,0,9.45,53.5a4.45,4.45,0,0,0-.44,2c0,.23.34.41.5.21a12.86,12.86,0,0,0,1.11-1.52,15.56,15.56,0,0,1,1-1.56A14.41,14.41,0,0,1,14.44,50a27,27,0,0,1,3.31-2.07,38.28,38.28,0,0,0,3.63-1.8c.24-.16.18-.63-.16-.6Z"/><path d="M11.49,53c.88-.62,1.83-1.12,2.72-1.73s1.81-1.17,2.73-1.73,1.82-1.06,2.75-1.54a17.32,17.32,0,0,0,2.86-1.51c.31-.25-.05-.63-.34-.59a9.84,9.84,0,0,0-2.92,1.22c-1,.52-1.95,1.08-2.89,1.67S14.63,50,13.79,50.62a25.3,25.3,0,0,0-2.36,2.27s0,.11.06.08Z"/><path d="M35.91,57.59c.6.08,1.14.31,1.73.44a12,12,0,0,1,1.66.45,6.46,6.46,0,0,1,2.83,1.77,3.74,3.74,0,0,1,1,2.77,1.8,1.8,0,0,1-2,1.71c-1.25-.06-2.06-1.15-2.81-2-.3-.34-.73.09-.58.44a3.83,3.83,0,0,0,1.19,1.57,4,4,0,0,0,1.64.85,2.88,2.88,0,0,0,3.14-1.22,3.84,3.84,0,0,0-.22-3.71,6.08,6.08,0,0,0-2.84-2.46,9.27,9.27,0,0,0-2.26-.64,5.35,5.35,0,0,0-1.2-.08,10.59,10.59,0,0,1-1.26,0c-.06,0-.08.1,0,.11Z"/><path d="M11.92,50.32a.42.42,0,0,0-.25-.16l-.12,0-.12-.05a1.43,1.43,0,0,0-.71.07,3.93,3.93,0,0,0-1.14.57,4.19,4.19,0,0,0-.93,1,1.28,1.28,0,0,0-.15.25,1.07,1.07,0,0,0-.09.43,3.75,3.75,0,0,0,0,.58.2.2,0,0,0,.38.1,1.8,1.8,0,0,1,.3-.37,2,2,0,0,0,.38-.48l.08-.11s.08-.12,0,0l.16-.19a3.51,3.51,0,0,1,.4-.37s0,0,0,0l.11-.07c.08-.06.16-.1.24-.15l.24-.12c.13-.06-.08,0,.06,0L11,51a3.4,3.4,0,0,0,.56-.21.37.37,0,0,0,.1-.07l.1-.05a.45.45,0,0,0,.2-.16.14.14,0,0,0,0-.21Z"/><path d="M13.62,55.08a7.71,7.71,0,0,0-1.39,7.46c1.14.75,2.47-.63,3-1.86a12,12,0,0,0,1.26-4.13A2.58,2.58,0,0,0,16,54.49c-.84-.86-2.43-.38-3.1.63a6.12,6.12,0,0,0-.69,3.5"/><path d="M13.6,55.05A8.15,8.15,0,0,0,12,57.4a7.21,7.21,0,0,0-.59,2.71,8.8,8.8,0,0,0,.1,1.36c.06.42.12,1.17.47,1.46a2,2,0,0,0,2.38-.2A5.79,5.79,0,0,0,16,60.43a12.63,12.63,0,0,0,1-3.22,3.8,3.8,0,0,0-.42-2.92,2.25,2.25,0,0,0-2.27-.79,3.08,3.08,0,0,0-2.19,1.76,5.65,5.65,0,0,0-.43,1.66,2.9,2.9,0,0,0,0,.93,6.36,6.36,0,0,0,.28.84.24.24,0,0,0,.46,0c.09-.24.19-.48.27-.72a4.85,4.85,0,0,0,.13-.85,3.63,3.63,0,0,1,.44-1.48,1.82,1.82,0,0,1,1.91-1c1,.28.82,1.74.69,2.51a12.17,12.17,0,0,1-1.15,3.38c-.37.72-1.31,2.09-2.27,1.55l.23.29a8,8,0,0,1-.39-3.66,7.13,7.13,0,0,1,1.33-3.64s0-.09-.05-.06Z"/><path d="M23.21,56.41a8.76,8.76,0,0,0-2.43,7.25,2.11,2.11,0,0,0,.28.9,1.56,1.56,0,0,0,1.87.46,3,3,0,0,0,1.42-1.47,11.13,11.13,0,0,0,.88-4.69,3.16,3.16,0,0,0-.51-2.31c-.54-.6-1.81-.46-1.88.35"/><path d="M23.16,56.33a6.3,6.3,0,0,0-2.82,4.38,9,9,0,0,0-.16,2.69,2.31,2.31,0,0,0,1.2,2.14c2,.87,3.43-1.18,3.95-2.8a11.89,11.89,0,0,0,.48-3A7.22,7.22,0,0,0,25.7,57a2,2,0,0,0-2-1.47c-.85,0-1.63.63-1.24,1.53a.39.39,0,0,0,.61.08,1,1,0,0,1,.82-.35c.51.08.63.7.67,1.13a16.21,16.21,0,0,1-.06,2.2,9.72,9.72,0,0,1-.36,2.2,4.07,4.07,0,0,1-1,1.79,1.23,1.23,0,0,1-1.49.28c-.48-.33-.44-1.24-.45-1.76a7.85,7.85,0,0,1,.21-2,17.42,17.42,0,0,1,1.81-4.15.09.09,0,0,0-.13-.13Z"/><path d="M10.09,72.32l.14.64a5.63,5.63,0,0,1,.14.69,3.2,3.2,0,0,0,.15.61,3.41,3.41,0,0,0,.19.62.08.08,0,0,0,.15,0,2.55,2.55,0,0,0-.13-.61,3.48,3.48,0,0,0-.18-.63,4.92,4.92,0,0,1-.21-.65l-.19-.65a0,0,0,1,0-.06,0Z"/><path d="M14.08,74.8a.63.63,0,0,0,.33-.06l.29-.14a6.05,6.05,0,0,0,.55-.32,6.49,6.49,0,0,0,.55-.36l.24-.2a1.2,1.2,0,0,0,.23-.22.15.15,0,0,0-.13-.21.75.75,0,0,0-.29.09l-.3.12c-.2.09-.38.21-.57.31s-.37.21-.54.33l-.27.19a.75.75,0,0,0-.21.26.14.14,0,0,0,.12.21Z"/><path d="M33.27,100.88A13.87,13.87,0,0,0,41.92,104a12.59,12.59,0,0,0,4.59-.74,14,14,0,0,0,2.24-1,5.9,5.9,0,0,0,1-.64,2.79,2.79,0,0,0,.66-1,.61.61,0,0,0-.68-.88,5.36,5.36,0,0,0-1,.23c-.32.16-.6.37-.9.55a10.63,10.63,0,0,1-1.86.9,14.9,14.9,0,0,1-4.07.84A12.42,12.42,0,0,1,34,100c-.54-.36-1.2.48-.7.91Z"/><path d="M61.57,80.35a14.46,14.46,0,0,0-1.94,6.51,12,12,0,0,0,0,3.38A12.86,12.86,0,0,0,60,91.87a8.93,8.93,0,0,0,.35.85c.15.33.37.45.58.74a.46.46,0,0,0,.84-.36c-.06-.28,0-.54-.08-.83s-.15-.54-.23-.8c-.14-.47-.28-.94-.38-1.41a17.53,17.53,0,0,1-.47-3.13,13.73,13.73,0,0,1,1.62-6.17.4.4,0,0,0-.69-.41Z"/><path d="M92.69,78.59a8,8,0,0,1,2,1.64,16.71,16.71,0,0,1,1.65,1.61,33.56,33.56,0,0,1,2.76,3.91,24.73,24.73,0,0,1,2.44,4.35,9.66,9.66,0,0,1,.64,2.37c.1.78,0,1.6.57,2.21a.59.59,0,0,0,.68.09c1.52-.94.6-3.78.08-5.08a21.36,21.36,0,0,0-2.94-5,34,34,0,0,0-3.44-4,9.39,9.39,0,0,0-2-1.58,12.34,12.34,0,0,0-2.39-.69c-.11,0-.15.12,0,.16Z"/><path d="M82.71,106.8c1.55,1.72,4.57.38,6.27-.41,1.14-.53,2.28-1.08,3.4-1.64l1.66-.83c.55-.28,1.11-.6,1.23-1.25a.44.44,0,0,0-.2-.48c-1-.49-2.06.34-2.92.78-1.07.53-2.13,1.1-3.2,1.65A16.61,16.61,0,0,1,86,105.91a14.3,14.3,0,0,1-3.06.29.36.36,0,0,0-.25.6Z"/><path d="M84.06,107.66a6.67,6.67,0,0,0,1.33-.55l1.36-.61c.85-.39,1.7-.74,2.56-1.09s1.74-.66,2.59-1a7.16,7.16,0,0,0,1.32-.68c.31-.21.7-.38.81-.75a.28.28,0,0,0-.11-.28c-.32-.22-.82-.1-1.18-.07a6.43,6.43,0,0,0-1.43.32c-.91.31-1.8.73-2.67,1.12s-1.73.83-2.57,1.28c-.44.23-.87.48-1.29.74a4.76,4.76,0,0,0-1.17.8.47.47,0,0,0,.45.79Z"/><path d="M87.42,110.41c0,.16-.17.28-.23.43a1.43,1.43,0,0,0-.06.35,3.39,3.39,0,0,0,0,.9c.06.55.11,1.1.18,1.65s.15,1.11.22,1.66a6.64,6.64,0,0,0,.15.91,2,2,0,0,0,.13.37c.08.15.23.23.3.37a.25.25,0,0,0,.45-.06c0-.16.16-.27.2-.43a1.79,1.79,0,0,0,0-.4,5.35,5.35,0,0,0-.08-.89c-.07-.55-.14-1.1-.22-1.65s-.16-1.13-.24-1.68a3.72,3.72,0,0,0-.23-.87,2.39,2.39,0,0,0-.16-.32c-.09-.13-.24-.21-.33-.35a.06.06,0,0,0-.1,0Z"/><path d="M90.21,110.45a9.46,9.46,0,0,0,.74,3.79,3.65,3.65,0,0,0,.34.61,2.62,2.62,0,0,0,.45.49.22.22,0,0,0,.37-.22c0-.21-.08-.39-.15-.6s-.13-.41-.21-.61a10.9,10.9,0,0,1-.39-1.09,10.54,10.54,0,0,1-.44-2.37.36.36,0,0,0-.71,0Z"/><path d="M41.73,108.21a5.27,5.27,0,0,0-.14,1.37c0,.49,0,1,0,1.46l0,1.4a3.14,3.14,0,0,0,.23,1.39.29.29,0,0,0,.51,0,2.87,2.87,0,0,0,.22-1.33V111c0-.47,0-.93,0-1.4a5.26,5.26,0,0,0-.13-1.43.31.31,0,0,0-.59,0Z"/><path d="M43.69,110.45a11.26,11.26,0,0,0,0,2.9,9.52,9.52,0,0,0,.34,1.4,3,3,0,0,0,.7,1.22.16.16,0,0,0,.28-.11,4.9,4.9,0,0,0-.25-1.31c-.12-.45-.27-.88-.37-1.34a15.15,15.15,0,0,1-.46-2.76.13.13,0,0,0-.25,0Z"/><path d="M33.27,45.8c.37-1.78.21-3.89,2.08-4.88a1.85,1.85,0,0,1,2.18.15,1.44,1.44,0,0,1,.3,1.85l1.07.45c.38-2.09,1.47-4.56,3.35-5.71a1.91,1.91,0,0,1,2.74.58c.72,1,.47,2.35.57,3.53,0,.35.55.58.73.2,1.14-2.44-.37-6.57-3.6-5.8a6,6,0,0,0-3.21,2.65,10.49,10.49,0,0,0-1.71,4.24.59.59,0,0,0,1.07.45,2.5,2.5,0,0,0-.2-2.89,2.78,2.78,0,0,0-2.83-1c-2.64.53-3.83,3.85-3.05,6.21a.27.27,0,0,0,.51,0Z"/><path d="M67.42,16.38a7.88,7.88,0,0,1,4.14-3.74,3.48,3.48,0,0,1,2.81.06,1.73,1.73,0,0,1,.72,2.17c-.08.16.1.39.27.27a1.92,1.92,0,0,0,.24-2.76A3.47,3.47,0,0,0,72,11.45a6.2,6.2,0,0,0-5,4.78.19.19,0,0,0,.35.15Z"/><path d="M68.93,13.37a2.64,2.64,0,0,0,.25-1.54,2.48,2.48,0,0,0-.57-1.16,3.24,3.24,0,0,0-2.41-1c-2.09.06-3.67,2-4.33,3.78a3.93,3.93,0,0,0-.27,1.82,3.07,3.07,0,0,0,.75,1.57c.22.25.63,0,.55-.32a2.74,2.74,0,0,1-.07-1.14l-.08.3a2.85,2.85,0,0,0,.21-.81,5.53,5.53,0,0,1,.18-.7A6.29,6.29,0,0,1,63.7,13a4,4,0,0,1,1.78-1.74,2.19,2.19,0,0,1,2,.07,2,2,0,0,1,.72.63,2.77,2.77,0,0,1,.27,1.36.26.26,0,0,0,.51.07Z"/><path d="M71.87,85.34a2.94,2.94,0,0,0-2.09,1.49,3.56,3.56,0,0,0-.23,2.75,2.87,2.87,0,0,0,2,1.91,3.61,3.61,0,0,0,2.86-.61,3.22,3.22,0,0,0,1.11-1.26c.21-.49.43-1.26,0-1.71A.36.36,0,0,0,75,88a1.62,1.62,0,0,0-.2.56,1.71,1.71,0,0,1-.22.48c0,.07-.1.15-.15.22l-.07.09c-.1.15,0,0,0,0a4.16,4.16,0,0,1-.42.42c-.14.12.09-.06-.06,0l-.09.06-.24.15a2.13,2.13,0,0,1-.49.21l-.25.07s-.26,0-.14,0a4.14,4.14,0,0,1-.61,0c-.17,0,.07,0,0,0l-.14,0-.26-.07-.1,0-.06,0a2.46,2.46,0,0,1-.27-.17c-.09-.06.1.09,0,0l-.08-.07-.18-.2c-.11-.12.06.1,0,0l-.06-.09c0-.09-.1-.18-.14-.27,0,.09,0,0,0,0a1.21,1.21,0,0,0-.05-.14c0-.09,0-.17-.07-.25a.43.43,0,0,0,0-.11s0-.18,0,0c0-.09,0-.18,0-.27a2.26,2.26,0,0,1,0-.26c0-.06,0-.11,0-.16s0-.11,0,0c0-.19.08-.39.13-.58a3.31,3.31,0,0,1,.49-1,1.56,1.56,0,0,1,.86-.63.27.27,0,0,0-.14-.52Z"/><path d="M73.76,90.52a2.06,2.06,0,0,0,.37,2.24A3.41,3.41,0,0,0,76.34,94a5.66,5.66,0,0,0,5-1.68A3.66,3.66,0,0,0,82.17,90a1.76,1.76,0,0,0-.31-1.18.46.46,0,0,0-.77.21,1.33,1.33,0,0,0,.06.56,2.27,2.27,0,0,1,0,.52,2.77,2.77,0,0,1-.41,1.21,3.56,3.56,0,0,1-2,1.46,4.48,4.48,0,0,1-3,.07,2.44,2.44,0,0,1-1.49-2.19c0-.24-.38-.39-.5-.13Z"/><path d="M33.05,76.84,31.91,77a4,4,0,0,0-1.12.34,3,3,0,0,0-1.52,1.62A2.28,2.28,0,0,0,29.44,81a2.38,2.38,0,0,0,1.93,1,3.24,3.24,0,0,0,1.16-.13,3.83,3.83,0,0,0,.59-.24c.07,0,.12-.09.18-.13l.05,0h0l.24-.15a.4.4,0,0,0-.31-.74l-.14,0h-.08a1.34,1.34,0,0,0-.4,0h-.08s-.2,0-.06,0l-.49,0-.21,0c.16,0-.08,0-.12,0h-.38c-.05,0-.24,0-.08,0l-.19,0-.18,0s-.1-.06,0,0l-.07,0-.16-.1-.06,0c.13.09,0,0,0,0l-.11-.12c-.07-.07.05.08,0,0l0-.06a1.62,1.62,0,0,1-.1-.18s0,.11,0,0l0-.12s0-.18,0-.06c0-.07,0-.14,0-.21a1.5,1.5,0,0,1,0-.2c0,.12,0-.06,0-.1l.06-.2a.3.3,0,0,1,0-.1s0,.07,0,0a4,4,0,0,1,.23-.39c-.05.07.05,0,.06-.07l.14-.14a1.77,1.77,0,0,1,.35-.26,5.67,5.67,0,0,1,1.95-.76c.34-.07.27-.67-.09-.63Z"/><path d="M42,89.92A3,3,0,0,0,41.24,93a3.52,3.52,0,0,0,2.24,2.43,4,4,0,0,0,3.28-.35,3.6,3.6,0,0,0,1.75-2.91,4,4,0,0,0-.36-1.9,2.88,2.88,0,0,0-1.22-1.46.57.57,0,0,0-.68.89,4.36,4.36,0,0,1,.79,1,3.06,3.06,0,0,1,.3,1.15,2.5,2.5,0,0,1-.88,2,2.83,2.83,0,0,1-2.35.53,2.48,2.48,0,0,1-1.75-1.52,3.86,3.86,0,0,1,0-2.8c.07-.19-.18-.29-.31-.18Z"/><path d="M139.82,66.39a7.24,7.24,0,0,0,1.65-.92,11,11,0,0,1,1.82-.82,5.14,5.14,0,0,1,3.43-.26,2.2,2.2,0,0,1,1.11,2.77,3.71,3.71,0,0,1-3.3,2.49,4.3,4.3,0,0,0-1.6.09c-.11,0-.23.17-.18.3.52,1.23,2.39.87,3.37.47A4.86,4.86,0,0,0,148.79,68a3.58,3.58,0,0,0-.7-4,4.51,4.51,0,0,0-4.1-.61,10.4,10.4,0,0,0-2.5,1,4.42,4.42,0,0,0-2,1.73c-.08.19.15.36.32.32Z"/><path d="M137.78,60.77a1.48,1.48,0,0,0,.58-.34c.17-.16.34-.32.52-.47a3.24,3.24,0,0,1,1-.6,2.52,2.52,0,0,1,2.19.2,1.88,1.88,0,0,1,.71.77,1.42,1.42,0,0,1,.13.84,1.5,1.5,0,0,1-1.2,1.3c-.64.11-.5,1.24.16,1.15a2.67,2.67,0,0,0,2-3.78,3.45,3.45,0,0,0-4.49-1.47,4.45,4.45,0,0,0-1.27.84,3.28,3.28,0,0,0-.49.56,1.15,1.15,0,0,0-.21.74.28.28,0,0,0,.35.26Z"/><path d="M108.65,35.36c.25,1.33,1.74,1.8,2.92,1.85a9.2,9.2,0,0,0,4.45-.87,4.4,4.4,0,0,0,2.42-3.7,5.72,5.72,0,0,0-1.84-4.41c-1.28-1.2-3.21-2.13-4.94-1.37-.22.1-.13.42.06.48a12.65,12.65,0,0,1,3.5,1.38,4.87,4.87,0,0,1,2,3.18,3.33,3.33,0,0,1-1.36,3.32,7.11,7.11,0,0,1-3.51,1.07c-1,.09-2.85.18-3.2-1.08-.09-.36-.62-.21-.55.15Z"/><path d="M117.51,29.79a2.36,2.36,0,0,0,2-.78,3.47,3.47,0,0,0,1-2.11,3.73,3.73,0,0,0-.55-2.28,2.37,2.37,0,0,0-2-1.34.46.46,0,0,0-.32.77,14.24,14.24,0,0,1,1.21,1.25,2.49,2.49,0,0,1,.44,1.56,3,3,0,0,1-.58,1.49c-.17.23-.39.41-.58.62s-.44.36-.65.55a.17.17,0,0,0,.08.27Z"/><path d="M78,51.52c-1.3.19-1.77,1.65-1.73,2.8A4,4,0,0,0,78,57.52c2.58,1.77,6-.7,6.34-3.46.07-.61-1-.76-1.07-.15-.41,2.69,2.3,5.46,5,4.13a3.76,3.76,0,0,0,2-3.06,3.23,3.23,0,0,0-.55-1.91,8.3,8.3,0,0,0-1.48-1.85.39.39,0,0,0-.65.27c0,1.15,1,1.77,1.4,2.79a2.35,2.35,0,0,1-.9,2.49c-1.74,1.36-4.09-.58-3.79-2.57l-1.07-.14c-.23,2-2.9,3.72-4.73,2.44a3,3,0,0,1-1.15-2.31,5,5,0,0,1,.78-2.55.08.08,0,0,0-.09-.12Z"/><path d="M105.69,77.14A2.11,2.11,0,0,0,104,79a2.74,2.74,0,0,0,1.3,2.55,4.69,4.69,0,0,0,3.32.53,4.78,4.78,0,0,0,3-1.73,3.66,3.66,0,0,0,.72-1.79c.06-.57,0-1.46-.6-1.72a.32.32,0,0,0-.46.19,4.61,4.61,0,0,0,0,1.23,2.48,2.48,0,0,1-.34,1.15,3.37,3.37,0,0,1-2.08,1.45c-1.26.34-3.54.22-3.83-1.41-.12-.66,0-1.56.7-1.82a.23.23,0,0,0-.12-.44Z"/><path d="M5.44,64.12c.06-.08.19-.11.27-.15A.78.78,0,0,0,6,63.69c.17-.25.34-.5.5-.76.35-.54.67-1.11,1-1.67.67-1.11,1.28-2.25,1.89-3.4.37-.71-.71-1.35-1.08-.63-.61,1.15-1.2,2.31-1.74,3.49-.27.59-.56,1.18-.81,1.78-.12.27-.22.54-.33.81a1,1,0,0,0-.09.44c0,.09.06.25,0,.34s0,.06.07,0Z"/></g></g></svg>