<svg xmlns="http://www.w3.org/2000/svg" viewBox="0 0 256.7 131.84"><defs><style>path{fill:#007fff}.cls-1,.cls-2{fill:#fff;}.cls-1{stroke:#007fff;stroke-miterlimit:10;stroke-width:3px;}</style></defs><g id="Camada_2" data-name="Camada 2"><g id="Camada_7" data-name="Camada 7"><path class="cls-1" d="M17.48,32.57C14.42,28,11.55,20.4,20.74,14.49l5-6s12.05,7,19.53,6L55.67,4.41s6,21.26,44.56,14.67c0,0,19.36-7.72,33.43-1.15l14.45-4.65s20.79,1.77,22.71-1.51l-4.44-7.36S194.22,9.56,202,3c0,0,.81,10.35,17.28,9.91,0,0,.9,18.81,27.69,22.18,0,0,11.72,2.77,5.75,18.07,0,0-20.92-4.08-14.94-16.39,0,0-7.62,11.08-3.32,21.88,0,0-18.84-7-8.77-27.09,0,0-14.77,8.25-13.35,29.08l5.79,20s11.62,9,20.12,10.36c0,0,18.29,5.38,16.9,12.9,0,0-32.85,6.3-35.62,4.91,0,0-5.74,16.79-13.76,21.2,0,0-30.67-20.81-50.84-21.2,0,0-23-2-34.1,4.28,0,0-5.38-1.06-13.23,2.63,0,0-46.25,5.69-53,6.69,0,0-12.8-4-23.8-2L6.7,97.58s2.57-14.29,9.8-13.69c0,0-10.26-10.63-2-26.51,0,0-19.58-.18-10.66-13s12.25-10.2,12.25-10.2h0A1.08,1.08,0,0,0,17.48,32.57Z"/><path d="M58.72,23.91a69.36,69.36,0,0,1,8.35-3.25c2.77-.8,6.11-1.74,9-.89a10.64,10.64,0,0,1,5.55,4.56,23,23,0,0,1,2,3.9,21.74,21.74,0,0,0,1.53,3.88c.58.88,2.23.63,2.14-.58a16.36,16.36,0,0,0-1.55-4.77,22.71,22.71,0,0,0-2.14-4.05,13,13,0,0,0-6.68-5.23c-3.26-1-6.81-.05-9.93,1a28.62,28.62,0,0,0-8.85,4.6c-.51.41.14,1.05.64.83Z"/><path d="M68.82,18.79a9.53,9.53,0,0,0,1.77.23c.56.07,1.12.12,1.68.23a13.51,13.51,0,0,1,3.33,1.08,12.51,12.51,0,0,1,2.84,1.88c.88.77,1.56,1.87,2.69,2.26a.49.49,0,0,0,.61-.46c.07-1.32-1.12-2.38-2.06-3.18a14.29,14.29,0,0,0-3.34-2.14,13.78,13.78,0,0,0-3.71-1.1,6.26,6.26,0,0,0-3.92.34.48.48,0,0,0,.11.86Z"/><path d="M78.34,21.72a12.23,12.23,0,0,0,.8,1.3c.33.41.63.84,1,1.25.65.85,1.29,1.7,1.89,2.58s1.14,1.75,1.67,2.65c.27.46.56.88.86,1.31a14,14,0,0,0,.89,1.37c.42.5,1.14,0,1-.59a10,10,0,0,0-.61-1.52,9.89,9.89,0,0,0-.69-1.43c-.56-.95-1.16-1.88-1.81-2.78s-1.29-1.74-2-2.56c-.33-.4-.7-.77-1.07-1.14a8.33,8.33,0,0,0-1.35-1c-.35-.25-.79.23-.57.57Z"/><path d="M84.94,29.54c-1.36-2.8-2.54-5.64-4.8-7.87a13.54,13.54,0,0,0-7.83-3.75,7,7,0,0,0-4.4.44.92.92,0,0,0-.51,1.13c.23.55,1,.55,1.5.59a39,39,0,0,1,4.45.24,14.54,14.54,0,0,1,4.19,1.58,15.43,15.43,0,0,1,3.86,3.3,42,42,0,0,1,3.46,4.39,0,0,0,1,0,.08-.05Z"/><path d="M58.63,23.92a6.61,6.61,0,0,0,.09-4.24,12.59,12.59,0,0,0-1.61-3.84,11.87,11.87,0,0,0-6.65-5.13,1.11,1.11,0,0,0-.59,2.14,10.08,10.08,0,0,1,5.55,4.08,10.55,10.55,0,0,1,1.47,3.26,9.88,9.88,0,0,1,.3,1.64,11.37,11.37,0,0,0,.19,1.93.69.69,0,0,0,1.25.16Z"/><path d="M52.28,10a.54.54,0,0,0-.93.06.74.74,0,0,0,.56,1.1,1.36,1.36,0,0,0,.94-.08,2.94,2.94,0,0,0,.85-.87c.5-.64,1-1.3,1.43-2L53,7.7a17.58,17.58,0,0,0,1.1,6.89,1.26,1.26,0,0,0,1.36.89,1.24,1.24,0,0,0,1.07-1.22c0-2.41,0-4.83,0-7.25L55.6,8.25l-.15,0L54.8,8.1c-.26-.15-.28-.47-.21-.08,0,.23.07.47.11.71l.2,1.21.43,2.64c.14.88.28,1.76.43,2.63a5.26,5.26,0,0,0,.82,2.69,1.16,1.16,0,0,0,1.92-.5,3.71,3.71,0,0,0-.06-1.87c-.08-.54-.16-1.08-.25-1.62l-.54-3.14-.53-3.14c-.18-1.06-.92-2.29-2.21-1.85A1.33,1.33,0,0,0,54,7q0,3.63.09,7.25l2.43-.33A16.81,16.81,0,0,1,55.28,7.7a1.15,1.15,0,0,0-2.13-.57Q52.61,8,52,8.84c-.39.59-1,1.24-.53,2l-.11-.43.4-.45.39.17a.29.29,0,0,1,0,.38l-.28.12H52a.39.39,0,0,0,.33-.57Z"/><path d="M57.13,10.88a2,2,0,0,0,0-.69v.24c-.05.1,0,.09,0,0a.88.88,0,0,0,0-.16.78.78,0,0,0,0-.21.86.86,0,0,0-.07-.21v.28a.86.86,0,0,0,0-.39A1.47,1.47,0,0,0,57,9.41V9.8c.17-.47-.17-.89-.48-1.21l.24.4a1.32,1.32,0,0,0-.3-.51l-.14-.11A2.78,2.78,0,0,0,55.84,8a1.28,1.28,0,0,0-.4-.14A3.11,3.11,0,0,0,55,7.84a1.61,1.61,0,0,0-.62.08,1.1,1.1,0,0,0-.62.48,1.09,1.09,0,0,0,.16,1.25l.21.16a1.07,1.07,0,0,0,.52.14l.4,0-.28,0,.58.09-.28,0c.11,0,.21,0,.32.06l.15,0,.07,0a1.51,1.51,0,0,0,.52,0l-.24,0h0l-.24,0h0L55.49,10l.27.14.2.1a.92.92,0,0,0,.57,0L56,10.23s.1,0,.09.06L56,10.22l.16.13a.57.57,0,0,0,.25.08c.13,0,.11,0-.05,0l.09,0-.31-.24c0,.06.07.12.1.19a.59.59,0,0,0,0,.08l.09.12,0,0-.11-.19a.73.73,0,0,1,0,.2c0-.05,0-.07,0,0v.17a.42.42,0,0,0,.36.41.41.41,0,0,0,.45-.3Z"/><path d="M53.1,9.21a2.06,2.06,0,0,0-.65.07l.48.06A1.21,1.21,0,0,0,52,9.13c-.51,0-1.07.42-1,1,.17,1.78,1.76,3,3.06,4a14.86,14.86,0,0,1,1.7,1.46l.19.21c.07.08.28.24,0,0a3,3,0,0,1,.29.38c-.2-.26,0-.06,0,0,.28.41.51.95,1,1.18L56.9,17l.18.26a.85.85,0,0,0,1.53-.2s.06-.33,0-.16a1.88,1.88,0,0,0,.15-.62,2.5,2.5,0,0,0-.15-.76,4.07,4.07,0,0,0-.8-1.36A11.46,11.46,0,0,0,56,12.52l-.5-.37L55.24,12s-.3-.24-.16-.12-.13-.11-.15-.13l-.21-.16-.46-.4c-.29-.27-.57-.56-.83-.85l-.17-.19c-.08-.1-.07-.09,0,0L53.19,10c-.15-.21-.3-.41-.47-.61v1.44a1.33,1.33,0,0,0,.51-1l-.3.53a2,2,0,0,0,.48-.44.45.45,0,0,0-.31-.75Z"/><path d="M57.24,11.93c-.53.22-.67.34-.43.36.06,0,.06,0,0,0L56.37,12s.05,0,.05.1a3.48,3.48,0,0,0,.19.65c.12.41.22.82.32,1.23.21.86.37,1.73.5,2.6a30.57,30.57,0,0,1,.29,5.15,1.29,1.29,0,0,0,2.52.34,30.38,30.38,0,0,0-.45-11.48l-2.43,1a14.31,14.31,0,0,1,1.76,8.78,1.33,1.33,0,0,0,1.17,1.34,1.36,1.36,0,0,0,1.49-1L63,15.87l-2,.82a3.25,3.25,0,0,1,1.85,2.44l1.7-1.71a3.77,3.77,0,0,0-4.69,2.26,1.41,1.41,0,0,0,.65,1.58A1.47,1.47,0,0,0,62.22,21a7.57,7.57,0,0,1,3.42-1.46c.58-.09,1.31,0,2-.14a1.3,1.3,0,0,0,1.07-1.82c-.71-1.47-3.2-.93-4.47-.6a10.64,10.64,0,0,0-3.95,2l2.34,1.36c-.08.19.12-.12,0,0l.12-.13c.07-.06.07-.07,0,0l.12-.08s.33-.17.22-.12a.89.89,0,0,1,.31-.06c.06,0,.21,0,.05,0a1.66,1.66,0,0,1,.42.12c1.07.39,1.89-.77,1.7-1.71a5.84,5.84,0,0,0-3.14-4.07,1.4,1.4,0,0,0-2,.82l-1.22,4.91,2.67.36a16.59,16.59,0,0,0-2.18-10.12,1.33,1.33,0,0,0-2.42,1,27.47,27.47,0,0,1,.54,10.1l2.51.34a29.24,29.24,0,0,0-1.05-8.38c-.31-1.11-.65-3.07-2.15-3.07a1.14,1.14,0,0,0-1.15,1.35.81.81,0,0,0,1,.62.5.5,0,0,0,.34-.34Z"/><path d="M86.8,32.36a4.72,4.72,0,0,0,1.39-1.7c.42-.67.86-1.31,1.32-2a24,24,0,0,1,3.12-3.56,21.92,21.92,0,0,1,5.78-3.89c.79-.37,1.68-.56,2-1.45a.89.89,0,0,0-.41-1c-.87-.48-1.85.1-2.65.48a22,22,0,0,0-2.25,1.21,23.46,23.46,0,0,0-4,3.12,23.79,23.79,0,0,0-3.24,3.91,16.17,16.17,0,0,0-1.21,2.25,3.79,3.79,0,0,0-.49,2.34.44.44,0,0,0,.65.26Z"/><path d="M86.87,25.39a1.93,1.93,0,0,1-.38.95l-.62.85,1.63.21a53,53,0,0,1-2-7.2l-2.39.66c.47,2.47,1,4.92,1.57,7.37a1.3,1.3,0,0,0,2.35.31c.44-.73.88-1.44,1.37-2.14a13.81,13.81,0,0,1,1.49-1.88,10.29,10.29,0,0,1,.9-.85L91,23.5c.32-.26-.1.07.09-.07l.53-.35a4.76,4.76,0,0,1,.49-.28,2.44,2.44,0,0,1,.28-.14l.09,0a6.63,6.63,0,0,1,1.23-.35L92.4,20.05a22.09,22.09,0,0,1-7.32,5.4l1.65,2.13,6-5.32A1.37,1.37,0,0,0,93,20.75a1.43,1.43,0,0,0-1.26-.85,21,21,0,0,0-6.18.29l.74,2.69A10.34,10.34,0,0,1,91,22.76V20a14.78,14.78,0,0,0-6,3.61l2.25,1.74,1.39-2.09-2.52-1.48c-.22.52-.44,1.05-.62,1.59a4.28,4.28,0,0,0-.35,1.82,1.84,1.84,0,0,0,1.06,1.49,1.22,1.22,0,0,0,1.54-.51.9.9,0,0,0-.09-1.07.64.64,0,0,0-.52-.19c-.71.1.74.46.72.75,0-.13,0,0,0,.06-.11.33.1-.17.09-.16a2.69,2.69,0,0,0,.16-.45c.06-.24.12-.48.19-.72A14.37,14.37,0,0,1,88.74,23a1.44,1.44,0,0,0-.85-1.72,1.46,1.46,0,0,0-1.82.59l-1.35,2.12A1.44,1.44,0,0,0,87,25.68a12.92,12.92,0,0,1,1.09-1c.1-.08.2-.16.42-.31s.45-.31.68-.45a12.56,12.56,0,0,1,1.31-.69s.31-.14.14-.07L91,23l.77-.26a1.41,1.41,0,0,0,0-2.72,13.31,13.31,0,0,0-6.18.15,1.41,1.41,0,0,0-1,1.72,1.44,1.44,0,0,0,1.72,1,18.6,18.6,0,0,1,5.44-.22l-1-2.35-5.94,5.35a1.35,1.35,0,0,0-.11,1.78,1.37,1.37,0,0,0,1.75.35,24.36,24.36,0,0,0,7.83-5.86A1.35,1.35,0,0,0,93,19.7c-3.9.76-6.29,4.36-8.17,7.54l2.35.31c-.55-2.45-1-4.91-1.66-7.35A1.24,1.24,0,0,0,84,19.34a1.27,1.27,0,0,0-.87,1.52,22.2,22.2,0,0,0,2.76,7.23.91.91,0,0,0,1.63-.22,7.76,7.76,0,0,0,.33-2.35c0-.54-.86-.67-1-.13Z"/><path d="M134.86,17.23c-.17.07-.34.1-.52.17a5.6,5.6,0,0,0-.55.27,10.53,10.53,0,0,0-1,.58,13.31,13.31,0,0,0-2,1.61,12.29,12.29,0,0,0-1.64,1.9,5.74,5.74,0,0,0-.57,1.1,9.5,9.5,0,0,1-.58,1.09c-.19.38.32.83.62.48a5.14,5.14,0,0,1,.75-.86c.3-.26.61-.51.91-.79.57-.54,1.06-1.17,1.6-1.74s1.06-1.12,1.59-1.68c.28-.29.54-.59.82-.88l.39-.43a6,6,0,0,1,.38-.5c.17-.18,0-.41-.25-.32Z"/><path d="M130.15,22a19.16,19.16,0,0,1,6.95-3.54,18.17,18.17,0,0,1,7.49-.94,19.83,19.83,0,0,1,7.61,2.55,30.72,30.72,0,0,1,3.22,2.11c1.15.87,2.15,2,3.37,2.75a1,1,0,0,0,1,0,.81.81,0,0,0,.35-.36,1,1,0,0,0,0-1,14.09,14.09,0,0,0-3.27-3A29.45,29.45,0,0,0,152.93,18a20.43,20.43,0,0,0-8.34-2.52,17.75,17.75,0,0,0-8,1.32,15.08,15.08,0,0,0-3.52,2.09A29.13,29.13,0,0,0,130.14,22s0,0,0,0Z"/><path d="M158.58,21.39c1.08,0,1.92-1.1,2.7-1.76A32.43,32.43,0,0,1,164.7,17a27.52,27.52,0,0,1,7.9-3.06c2.7-.71,5.65-1.37,8.4-.54a7.26,7.26,0,0,1,3,1.73c.9.89,1.08,1.94,1.69,3,.38.63,1.58.61,1.7-.22.38-2.47-2.09-4.8-4.09-5.82-2.88-1.47-6.16-1.28-9.23-.62a32,32,0,0,0-9.42,3.32,24.26,24.26,0,0,0-3.85,2.85c-.94.83-2.62,2-2.68,3.32a.46.46,0,0,0,.47.47Z"/><path d="M186.19,22.76A25.71,25.71,0,0,1,192,11.94a21.86,21.86,0,0,1,4.71-3.85,19.67,19.67,0,0,1,2.71-1.37c.47-.2,1-.37,1.43-.52l.73-.23a1.31,1.31,0,0,0,.28-.09c.32-.11.32-.13,0-.08l-.4-.4a.6.6,0,0,0,.26.34.57.57,0,0,0,.58,0c1-.53-.06-1.86-.88-1.86a6.14,6.14,0,0,0-2,.6c-.56.21-1.11.45-1.65.7a23.06,23.06,0,0,0-6.14,4.26,20.15,20.15,0,0,0-6.44,13.18.5.5,0,0,0,1,.14Z"/><path d="M158,21.56l.15-.08h-.48l.1.07a.83.83,0,0,0,.81,0A14.56,14.56,0,0,0,160.8,20c.34-.27.68-.53,1-.82a4.27,4.27,0,0,0,.44-.41,2.79,2.79,0,0,0,.3-.38,1,1,0,0,0,.06-.79v.35a.64.64,0,0,0-.12-.66.73.73,0,0,0-.68-.14l.5.06a1.08,1.08,0,0,0-.77-.13,2.48,2.48,0,0,0-.44.2,5.5,5.5,0,0,0-.5.34c-.39.29-.76.6-1.14.91a12.63,12.63,0,0,0-1.88,1.77.81.81,0,0,0-.21.78l0,.13.12-.46-.11.12a.45.45,0,0,0,.54.7Z"/><path d="M148.12,16.29a9.27,9.27,0,0,1,4.87.41,7,7,0,0,1,3.57,3.3l1.84-1.84-5.91-3.23c-1.79-1-3.69-2.31-5.82-1.76a1.38,1.38,0,0,0,0,2.64,34.42,34.42,0,0,1,10.71,5.36A1.39,1.39,0,0,0,159.46,20c-.06-2.72,3.32-3.47,5.37-4,1.73-.41,1-3.06-.74-2.67a31.66,31.66,0,0,1-5,.74c-.83.05-1.65.06-2.48.05a7.49,7.49,0,0,0-2.63.12L155.31,16a3.69,3.69,0,0,1,.46-.74c.45-.5,0-1.47-.7-1.21a3,3,0,0,1-.79.15c-1.1.11-1.73,1.62-.6,2.23a5.73,5.73,0,0,0,2.75.48c.93,0,1.87,0,2.8-.07a35.19,35.19,0,0,0,5.6-.83l-.74-2.67c-3.36.81-7.49,2.49-7.39,6.63l2.08-1.19a36.6,36.6,0,0,0-11.39-5.62v2.64a3,3,0,0,1,2.05.58l2.58,1.4,5,2.7a1.36,1.36,0,0,0,1.84-1.84c-1.95-3.8-7.25-6.33-11.25-4.19-.82.43-.5,2,.49,1.83Z"/><path d="M175.35,7.2a6.36,6.36,0,0,0-3.69-2.35A1.22,1.22,0,0,0,170.13,6a7.23,7.23,0,0,0,2.43,5c1.22,1.12,3-.65,1.82-1.82a13.83,13.83,0,0,1-2.44-3.21c-.73-1.32-3-.44-2.48,1A33.06,33.06,0,0,0,171,11.33a1.88,1.88,0,0,0,1.8,1,3.62,3.62,0,0,0,1.77-.93,10.31,10.31,0,0,1,3.51-1.5,9.38,9.38,0,0,1,1.9-.22,4.55,4.55,0,0,0,.73,0c.29-.06.25.22.14-.12l1.38-1.81L175,7.12a4.59,4.59,0,0,0-2.78.41,2.19,2.19,0,0,0-1.07,2.52,1.48,1.48,0,0,0,1.4,1.06l6.09,0c.94,0,1.89,0,2.83,0a2.37,2.37,0,0,1,.74.11s.23.07.22.1-.25-.56-.16-.07l1.82-1.82-6.89-1,.9,2.2c.94-1.59,3.26-1.23,4.56-.35a4.94,4.94,0,0,1,1.69,2A13.47,13.47,0,0,1,185,15a1.27,1.27,0,0,0,2.29.29c1.37-2.82-.93-6.26-3.37-7.7-2.7-1.6-6.67-1.31-8.38,1.59a1.51,1.51,0,0,0,1.29,2.25l6.88.92c1,.14,1.58-1,1.43-1.87-.42-2.3-3.16-2.3-5-2.29h-7.61L174,9.27a6.26,6.26,0,0,1-.27.77s.12-.06.16-.06c.21,0,.48,0,.71,0l2.56.23,5.12.48a1.44,1.44,0,0,0,1.38-1.81C182.83,6.51,180,6.75,178,7.08a12.36,12.36,0,0,0-3.14,1,10.89,10.89,0,0,0-1.35.72c-.47.3-.89.7-1.38,1l.71-.19h0l.62.36c.1.22.08.18,0-.14l-.2-.54c-.11-.32-.23-.64-.35-.95l-.78-2-2.48,1a16.61,16.61,0,0,0,3,3.66l1.82-1.82a6.06,6.06,0,0,1-1.88-3.46l-1.17,1.53a5.65,5.65,0,0,1,3.31.9c.57.41,1.11-.45.71-.92Z"/><path d="M187.14,14.8c.62-1.13,1.11-2.31,1.83-3.39a16.28,16.28,0,0,1,2.42-2.88l-2-1.54c-1.34,2.14-2.67,4.3-4,6.46a1.3,1.3,0,0,0,2,1.56l7.75-7.47c.9-.87,0-2.66-1.28-2.19l-6.66,2.44a12.84,12.84,0,0,1-3.13,1c-.53.05-1.28-.14-1.26-.69l-1,1.3A12.79,12.79,0,0,1,187,8.63l-1-2.41a12,12,0,0,0-2.68,5.42,1.49,1.49,0,0,0,1,1.8,2.3,2.3,0,0,0,2.77-1.57c.53-1.5-1.93-2.56-2.6-1.09-.12.2-.08.2.11,0a.45.45,0,0,1,.5-.16l1,1.8A9.26,9.26,0,0,1,188,8.22a1.43,1.43,0,0,0-1-2.41,15.32,15.32,0,0,0-5.88,1,1.4,1.4,0,0,0-1,1.3,3.27,3.27,0,0,0,1.94,3,5.55,5.55,0,0,0,4.25-.13c2.76-1,5.5-2.05,8.26-3.08l-1.28-2.19-7.72,7.49,2,1.57c1.33-2.16,2.65-4.31,4-6.48a1.27,1.27,0,0,0-2-1.54,20.24,20.24,0,0,0-2.7,3.34,13,13,0,0,0-1.84,3.85,1.15,1.15,0,0,0,2.09.88Z"/><path d="M211.6,99.53c0,.22-.23.28-.38.47a1.56,1.56,0,0,0-.29.81,4.36,4.36,0,0,0,.17,1.86,8.41,8.41,0,0,0,2.15,3.66,9.59,9.59,0,0,0,8.36,2.55c6.74-1,11.47-7.41,11.77-14,.07-1.55-2.35-1.55-2.41,0a12.68,12.68,0,0,1-9.16,11.69,7.63,7.63,0,0,1-6.95-1.44,7.21,7.21,0,0,1-2-3c-.18-.49-.27-1-.42-1.52-.09-.31-.51-.82-.5-1.1a.15.15,0,0,0-.3,0Z"/><path d="M228.18,104.49a1,1,0,0,0-.19-.16.54.54,0,0,0-.56,0,.82.82,0,0,0-.27.22l.27-.16a.84.84,0,0,0-.6.71l.35-.45a1.09,1.09,0,0,0-.43.54,1.3,1.3,0,0,0,0,.59c0,.08,0,.24,0-.08a1.27,1.27,0,0,0,.13.47,1.4,1.4,0,0,0,.28.36,2.6,2.6,0,0,0,1.7.58l.36,0h0l.13,0,.29.08.06,0-.08,0a.8.8,0,0,0,.16.08,2.26,2.26,0,0,1,.26.16.86.86,0,0,0,.1.07l-.11-.09.09.08a5.21,5.21,0,0,1,.47.47l.18.22.12.15c-.15-.13-.1-.13,0-.06.3.39.6.86,1.16.85a1,1,0,0,0,1-1,2,2,0,0,0-.57-1.12,4.87,4.87,0,0,0-2.31-1.75,3.45,3.45,0,0,0-.95-.13h-.7c-.09,0-.1,0,0,0l-.07,0c-.11,0-.17,0,0,0-.16-.06.06-.06.06.06s-.07-.09-.08-.1-.38-.33-.1,0,.11.1.06,0a1.13,1.13,0,0,0-.58-.45l.52.53a.24.24,0,0,0,0-.08c0-.15,0,.28,0,0a.85.85,0,0,0-.23-.45l.18.44s0,.13,0,.05-.05.19,0,0a.62.62,0,0,0,0-.5l.06.4c0-.15.06-.31-.06-.43Z"/><path d="M230.05,101.54c-.14.22-.49.41-.59.82a2.92,2.92,0,0,0,.16,1.7,4.29,4.29,0,0,0,2.48,2.32c2.53,1,5.79.35,8.35-.25,4.31-1,11.36-3.51,11.3-9a1.2,1.2,0,0,0-2.39,0,1.68,1.68,0,0,0,.51,1.32,1,1,0,0,0,1.32,0,1.69,1.69,0,0,0,.56-1.32h-2.39c0,3.81-5.58,5.63-8.48,6.45a23,23,0,0,1-6.2,1,3.9,3.9,0,0,1-2.8-.86,3.21,3.21,0,0,1-.72-1.13,5,5,0,0,1-.33-.86.42.42,0,0,0-.78-.22Z"/><path d="M250.56,99a3.2,3.2,0,0,0-.07.33c-.06.45,0-.19,0,.14,0,.13,0,.26-.05.39,0-.23,0,0,0,0a4.52,4.52,0,0,1-.25.89c-.11.29.06-.11,0,0l-.11.22a4.49,4.49,0,0,1-.24.42c-.08.13-.17.25-.25.37s.11-.13,0,0l-.17.18a8.2,8.2,0,0,1-.67.65c.08-.07.11-.07,0,0l-.2.14-.42.25-.4.19c.24-.1,0,0,0,0l-.23.07a4.05,4.05,0,0,1-.47.12l-.2,0c.3-.05,0,0-.07,0a1.21,1.21,0,1,0,0,2.41,9.33,9.33,0,0,0,7.57-4.15l-1.71.44c-.24-.16,0,0,0,.06-.18-.17,0,0,0,.06-.13-.22,0,0,0,.07l0-.15c0,.06,0,.13,0,.19a1.26,1.26,0,0,0,1.24,1.25,1.3,1.3,0,0,0,1.25-1.25,2.67,2.67,0,0,0-1.27-2.39,1.28,1.28,0,0,0-1.71.45l-.24.35c-.2.28.09-.1,0,.05l-.13.16q-.3.34-.63.66l-.33.28-.16.13-.05,0a7.62,7.62,0,0,1-.77.48,6.88,6.88,0,0,1-.77.38l-.05,0-.2.07-.41.13a6.74,6.74,0,0,1-.89.2c-.12,0-.11,0,0,0l-.27,0a3.87,3.87,0,0,1-.48,0v2.41a6.39,6.39,0,0,0,4.35-2.2,7.05,7.05,0,0,0,1.28-2.2,4,4,0,0,0,.24-2.53,1,1,0,0,0-2,0Z"/><path d="M251,101.27c-3.74.57-6.82,3-10.44,4a18.39,18.39,0,0,1-5.81.62c-1.44-.07-4.36-.14-5.22-1.55a1.2,1.2,0,0,0-1.86-.24l-1.85,2.22c-.55.67-1,1.07-.95,2a.88.88,0,0,0,1.1.83c1.41-.22,2.52-2.29,3.38-3.33l-1.87-.24c1.07,1.74,3.1,2.17,5,2.46a21.22,21.22,0,0,0,6.56,0,20.86,20.86,0,0,0,6.23-2.11,30.06,30.06,0,0,1,6.25-2.77c1.19-.29.66-2-.5-1.79Z"/><path d="M144.81,89.5c-3.43,10,9.16,17.43,16.88,20.29,10.25,3.78,21.54,3.54,32,.81a83.93,83.93,0,0,0,9.51-3.13c1.51-.6,3-1.23,4.5-1.91a23.73,23.73,0,0,0,4.45-2.3c.9-.67.42-2.31-.82-1.94-2.58.76-5,2.25-7.5,3.3s-5,1.95-7.5,2.75a65.79,65.79,0,0,1-15.65,3C171,111,161,108.93,153,103.33c-4.26-3-9.16-8.08-8.06-13.8a.07.07,0,0,0-.13,0Z"/><path d="M201.5,106.28c-1.39.83-1.6,3.56-1.79,5a25.63,25.63,0,0,0,0,6.49c.48,4,1.73,8.57,4.3,11.75.77,1,2.15-.26,1.63-1.26a48.57,48.57,0,0,1-2.7-5.28,26.07,26.07,0,0,1-1.43-5.64,26.82,26.82,0,0,1-.13-5.94c.08-1,.26-2,.39-3a3.7,3.7,0,0,0-.09-2,.12.12,0,0,0-.18,0Z"/><path d="M205.86,115.63a15.53,15.53,0,0,0-.06,6.26,17,17,0,0,0,.82,3c.35.92.68,2.13,1.72,2.42a.39.39,0,0,0,.48-.27c.25-.93-.37-1.72-.72-2.56a16.77,16.77,0,0,1-.88-2.85,20,20,0,0,1-.33-5.83.53.53,0,0,0-1-.14Z"/><path d="M209.73,116.38c-.07.11-.17.18-.24.29a3.36,3.36,0,0,0-.2.43,4.77,4.77,0,0,0-.28.93,6.35,6.35,0,0,0,0,2,7.33,7.33,0,0,0,.56,2,4.4,4.4,0,0,0,.51.83,2,2,0,0,0,.75.73c.24.11.64,0,.6-.34a3.06,3.06,0,0,0-.3-.88c-.12-.24-.2-.5-.3-.76a9.9,9.9,0,0,1-.53-1.76,10,10,0,0,1-.17-1.73c0-.28,0-.57,0-.86s0-.31,0-.47-.05-.23,0-.37-.25-.23-.34-.09Z"/><path d="M185.94,110.49a2.78,2.78,0,0,0-.23,1.76,14.52,14.52,0,0,0,.22,1.86,12.24,12.24,0,0,0,1.31,3.5,13.62,13.62,0,0,0,2.22,3,5.86,5.86,0,0,0,3.12,2,.53.53,0,0,0,.51-.89,32.9,32.9,0,0,0-2.47-2.23,12,12,0,0,1-2-2.65,13.65,13.65,0,0,1-1.22-3,11.23,11.23,0,0,1-.34-1.63,3.76,3.76,0,0,0-.3-1.67.48.48,0,0,0-.81,0Z"/><path d="M192.5,114.57c-.37.16-.41.67-.46,1a6.11,6.11,0,0,0,0,1.54,15.06,15.06,0,0,0,.65,3.19,14.15,14.15,0,0,0,1.26,2.91,5.85,5.85,0,0,0,.93,1.27c.4.37.81.76,1.23,1.12s.75-.07.54-.42c-.56-.89-1-1.85-1.49-2.78a19,19,0,0,1-1.25-2.89,16.34,16.34,0,0,1-.66-3c0-.27-.2-2.19-.73-2Z"/><path d="M195.61,115.32a11.92,11.92,0,0,0,3.91,10.8c.26.2.74-.07.51-.39a21.84,21.84,0,0,1-2.77-4.83,15.92,15.92,0,0,1-1.08-5.5c0-.31-.51-.41-.57-.08Z"/><path d="M178.79,113.09a8.25,8.25,0,0,1-.42-1l-1.13,1.13c-.17-.08-.11-.06.17.06a1.06,1.06,0,0,0,.56,0l.43-.11c.13,0,.14,0,0,0l.22,0H179a3.17,3.17,0,0,1,.44,0l.22,0c-.12,0-.11,0,0,0s.53.13.8.22l.15.06c-.1,0-.09,0,0,0l.39.21c.13.07.25.15.37.23s.12.09,0,0l.13.1a6.33,6.33,0,0,1,.57.59c-.15-.18.1.17.12.21a2.82,2.82,0,0,1,.21.38l.72-1.76c.17,0-.06,0-.12,0h-.25l-.57,0h-.11l-.31-.07a5.44,5.44,0,0,1-.54-.15l-.24-.09c-.21-.08.23.13-.11,0l-.49-.28-.21-.14c-.07,0-.07,0,0,0l-.1-.08a4.67,4.67,0,0,1-.45-.44l-1.24,2.13a9.29,9.29,0,0,1,5.05,3.76,1.32,1.32,0,0,0,1.65.54,1.35,1.35,0,0,0,.77-1.56c-.21-1.54-.43-3.07-.65-4.61l-2.58.72a16.59,16.59,0,0,0,2,5.62,1.34,1.34,0,0,0,2.5-.68,24.59,24.59,0,0,0-1-5.51,1.37,1.37,0,0,0-1.66-.93,1.35,1.35,0,0,0-.93,1.65,21.27,21.27,0,0,1,.95,4.79l2.5-.67c-.22-.39-.43-.79-.61-1.19s-.1-.21-.22-.5-.15-.42-.22-.63a15.29,15.29,0,0,1-.65-2.67,1.35,1.35,0,0,0-1.65-.93,1.38,1.38,0,0,0-.93,1.65c.22,1.53.44,3.06.67,4.59l2.43-1a11.93,11.93,0,0,0-6.66-4.87,1.28,1.28,0,0,0-1.24,2.12,6.75,6.75,0,0,0,2.73,1.69,6.47,6.47,0,0,0,3.21.15,1.22,1.22,0,0,0,.72-1.77,6,6,0,0,0-3.41-2.79,5.67,5.67,0,0,0-2.08-.29,5.5,5.5,0,0,0-1.15.17,3.68,3.68,0,0,0-.47.15,1.25,1.25,0,0,0-.47.28.77.77,0,0,0-.22.34c-.06.16-.07.17,0,0a.92.92,0,0,0,.32,1.25,8.64,8.64,0,0,1,.94.64c.41.23,1-.17.83-.64Z"/><path d="M144.38,94.47c-.79,1.74-1.1,3.61-2.07,5.28a14.16,14.16,0,0,1-4.21,4.37c-1.68,1.18-3.45,2.27-5.23,3.29a19.56,19.56,0,0,1-2.76,1.35c-.5.19-1,.32-1.5.54a12,12,0,0,1-1.56.69.49.49,0,0,0,.13,1,11.49,11.49,0,0,0,1.76.13,5.69,5.69,0,0,0,1.68-.43,23.73,23.73,0,0,0,3.09-1.49,51.61,51.61,0,0,0,5.94-3.86,15.22,15.22,0,0,0,4.31-4.9c.94-1.79,1.68-4,.65-5.92a.14.14,0,0,0-.23,0Z"/><path d="M90.9,107.19c4.54,7.17,15.12,7.7,22.68,6.81a64.32,64.32,0,0,0,25.5-9.3,19.28,19.28,0,0,0,4.85-4,6.26,6.26,0,0,0,1.77-5.32c-.12-.75-1.08-.54-1.31,0a14.09,14.09,0,0,1-2.51,4.26,17.69,17.69,0,0,1-3.94,3,78,78,0,0,1-11.11,5.39c-7.63,3-15.9,4.81-24.12,3.68-4.07-.56-8.27-2-11-5.26-.39-.45-1.14.14-.82.64Z"/><path d="M139.43,107.47c2.29-1.81,4.13-4.29,6.07-6.48A1.05,1.05,0,0,0,144,99.5q-4,3.41-8,6.82a1.17,1.17,0,0,0,.82,2c5-.5,7.71-4.89,9.78-9l-2.33-.63c-.22,2.49.11,4.72,2.33,6.19a24.31,24.31,0,0,0,3.19,1.59l3.88,1.79a1.38,1.38,0,0,0,1.66-2.15c-2.34-2.9-4.82-5.84-8.22-7.51a1.43,1.43,0,0,0-1.73,2.23l5.21,6.6L152,105a49.24,49.24,0,0,0-9-1.21v3a19.1,19.1,0,0,1,5.68.73c1.87.54,2.64-2.32.8-2.9a16.54,16.54,0,0,0-8.38-.36l1.47,2.52c.64-.8,1.31-1.58,2-2.32.35-.37,1.74-1.4-.07-1.08-.18,0,0-.55,0,0,0,.13,0,.29,0,.43-.08,1.67.33,3.69,2.41,3.7v-3a3,3,0,0,1-1.11-.12,10.16,10.16,0,0,0-1.22-.15c-.69-.11-1.51.44-1.23,1.23a3.12,3.12,0,0,0,3.56,2.07,1.52,1.52,0,0,0,0-3c1.41,0,.44.71.56.18a2.26,2.26,0,0,0,0-.45,5.71,5.71,0,0,0,0-1.24,2.69,2.69,0,0,0-1.75-2.3c-1.16-.35-2.07.43-2.83,1.19a34,34,0,0,0-2.46,2.77,1.52,1.52,0,0,0,1.47,2.52,13.33,13.33,0,0,1,6.78.35l.8-2.9a21.8,21.8,0,0,0-6.48-.83,1.5,1.5,0,0,0,0,3,47,47,0,0,1,8.27,1,1.48,1.48,0,0,0,1.42-2.45l-5.27-6.54L145.65,101c3.21,1.55,5.49,4.3,7.72,7l1.66-2.16c-2.06-.93-4.15-1.84-6.2-2.81a3.57,3.57,0,0,1-1.87-1.48,6,6,0,0,1-.21-2.91,1.26,1.26,0,0,0-2.33-.63c-1.56,3.2-3.6,7.48-7.62,7.94l.82,2,7.88-7L144,99.5c-1.94,2.28-4.2,4.51-5.71,7.1-.44.75.52,1.35,1.13.87Z"/><path d="M162.57,84.48a5.27,5.27,0,0,0,.49,2.25,6.14,6.14,0,0,0,1.37,1.78,6.8,6.8,0,0,0,4.27,1.74c3.27.08,5.56-2.74,5.85-5.8a6.38,6.38,0,0,0-.24-2.38,3.83,3.83,0,0,0-1.42-2.22c-.73-.44-1.35.4-1.07,1.06s.6.94.78,1.46a4.77,4.77,0,0,1,.27,1.63,5.27,5.27,0,0,1-1,3.08,4.41,4.41,0,0,1-6.13.64,5.14,5.14,0,0,1-2.18-3.37c-.08-.55-1-.41-1,.13Z"/><path d="M170.88,83.4c0-.3.06-.6.06-.9s0-.6-.07-.9a.17.17,0,0,0-.34,0c0,.3-.07.6-.07.9s0,.6.06.9a.18.18,0,0,0,.36,0Z"/><path d="M182.11,56.33c1.54,2.72,5.26,3,7.82,1.65a10.7,10.7,0,0,0,3.83-3.76,26.72,26.72,0,0,0,1.43-2.49c.41-.79,1.06-1.74.84-2.67s-1.45-1.39-2.34-1.67-2.52-.89-3.43-.29a.42.42,0,0,0-.08.65,2.16,2.16,0,0,0,1.29.51,12.82,12.82,0,0,1,1.63.37,4.44,4.44,0,0,1,1.42.54c.44.35,0,.94-.19,1.35a19.58,19.58,0,0,1-3.11,4.92,6.38,6.38,0,0,1-4.34,2.16,4.22,4.22,0,0,1-3.95-1.75.48.48,0,0,0-.82.48Z"/><path d="M195.14,22.26a10.56,10.56,0,0,1,4-2.46c1.24-.43,3.14-1,4.29-.07a3.41,3.41,0,0,1,1,3.26,7.08,7.08,0,0,1-.9,2.25,8.61,8.61,0,0,0-.56,1.09c-.13.32-.33.63-.21,1a.33.33,0,0,0,.3.23c.61,0,1.17-.82,1.48-1.29a10,10,0,0,0,1.06-2,5.33,5.33,0,0,0,.09-3.89,3.81,3.81,0,0,0-2.78-2.45,7.84,7.84,0,0,0-4.44.91,11.25,11.25,0,0,0-3.78,3c-.28.33.17.8.48.48Z"/><path d="M100.48,59.66a4.68,4.68,0,0,0,2.86,4.08,7.6,7.6,0,0,0,5.79.28,16.07,16.07,0,0,0,5.79-3.87c1.6-1.57,2.86-3.6,1.89-5.87a6.53,6.53,0,0,0-6.52-3.53c-.48.07-.9.83-.29,1.09,2,.85,5.24,1.11,5.52,3.9a4.13,4.13,0,0,1-1.46,3,19.16,19.16,0,0,1-2.61,2.32c-1.77,1.29-4,2.3-6.22,1.88a6,6,0,0,1-4.42-3.4c-.07-.17-.33-.08-.33.09Z"/><path d="M99.21,30c1.23-2.05,3.1-4.65,5.75-4.69a2.9,2.9,0,0,1,2.42,1,2.43,2.43,0,0,1,.31,1.79c-.11.78-.61,1.64-.42,2.43a.57.57,0,0,0,.82.34,3.42,3.42,0,0,0,1.15-2,4.73,4.73,0,0,0,.15-2.36A3.59,3.59,0,0,0,107.27,24a5.5,5.5,0,0,0-3.35-.31,5.7,5.7,0,0,0-3,2.05,19.69,19.69,0,0,0-2.24,3.91.33.33,0,0,0,.57.33Z"/><path d="M78.18,84.12a12.45,12.45,0,0,0,.16,5.5,5,5,0,0,0,3.89,3.51,7.47,7.47,0,0,0,5.91-2,27.76,27.76,0,0,0,2.5-2.47,12.52,12.52,0,0,0,2-2.62c1-1.92,1.11-4.44-.74-5.91a.41.41,0,0,0-.58.59c1.4,1.71.13,4.2-1,5.65-1.42,1.76-3.16,3.76-5.24,4.72-1.88.87-4.13.56-5.13-1.4a11.06,11.06,0,0,1-.67-5.59c0-.72-1-.67-1.09,0Z"/><path d="M51.16,98.16a15.61,15.61,0,0,0-.73,13.36,16.38,16.38,0,0,0,8.77,8.68c4.63,1.92,9.77,1.38,14.42-.15a54.88,54.88,0,0,0,13.81-6.67,19.28,19.28,0,0,0,5.49-5.53c1.32-2.1,2.47-5,1.88-7.47a1.21,1.21,0,0,0-2.32,0c-.38,2-.54,3.78-1.57,5.59a15.45,15.45,0,0,1-4.14,4.57,49.49,49.49,0,0,1-11.47,6.15c-4,1.64-8.53,2.87-12.89,1.94a14.34,14.34,0,0,1-8.9-6.11,15.13,15.13,0,0,1-1.22-13.7c.32-.75-.74-1.43-1.13-.66Z"/><path d="M82.16,116.62c1.13,1.63,2.89.54,4.11-.37L92,112l-1.57-1.57c-1.14,1.64-3,2.48-4.79,3.29a20.18,20.18,0,0,0-5.16,3.05c-1,.86.08,2.25,1.18,2A18,18,0,0,0,93,111.13c.91-1.35-1.23-2.53-2.16-1.26-1.19,1.63-2.4,3.26-3.61,4.89-.9,1.21,1,2.57,2,1.57a16.74,16.74,0,0,0,3.62-5.15l-2.48-1a8.24,8.24,0,0,1-2.82,3.93,1.41,1.41,0,0,0,.7,2.6,22.23,22.23,0,0,0,8.13-1.19c1.44-.49,1.32-2.9-.38-2.79a26,26,0,0,0-10.13,2.71c-1.56.79-.4,2.95,1.12,2.66l12.51-2.3c1.53-.29,1.25-2.4,0-2.83a50,50,0,0,0-8.77-2.18l-.4,2.9a42.16,42.16,0,0,1,9,2c1.58.54,2.67-2,1.15-2.71-2.64-1.28-5.35-2.43-8.08-3.48-1.5-.58-2.33,1.72-1.06,2.52a30,30,0,0,0,12.53,4.35c1.75.21,1.74-2.54,0-2.75a26.76,26.76,0,0,1-11.14-4l-1.06,2.52a68.09,68.09,0,0,1,7.31,3.38l1.14-2.71a45.13,45.13,0,0,0-9.75-2.12c-1.63-.18-2,2.65-.39,2.9a49.17,49.17,0,0,1,8.78,2.16v-2.83l-12.5,2.33,1.12,2.66A22.81,22.81,0,0,1,96,115.53l-.37-2.79a20.15,20.15,0,0,1-7.38,1.14l.7,2.6a11.3,11.3,0,0,0,4-5.62c.46-1.44-1.87-2.48-2.48-1a14.65,14.65,0,0,1-3.12,4.68l2,1.58q1.75-2.47,3.52-4.94l-2.16-1.26A15.55,15.55,0,0,1,81,116.45l1.18,2c3.13-2.82,7.74-3.2,10.22-6.89.61-.91-.66-2.28-1.58-1.57l-4,3L85,114.5a11,11,0,0,1-1.36,1c-.73-.73-2.09.24-1.47,1.14Z"/><path d="M27.78,115.74c.67,1,2.19,1.15,3.32,1.13a13.19,13.19,0,0,0,4.58-1,34.94,34.94,0,0,0,7.49-4,27.27,27.27,0,0,0,5.94-5.66c1.52-2,3.29-4.68,3.27-7.28A.75.75,0,0,0,51,98.5c-.62,1-1,2.21-1.47,3.3a20.81,20.81,0,0,1-1.88,3.1,25,25,0,0,1-5.3,5.17,37.26,37.26,0,0,1-6.28,3.68,19.7,19.7,0,0,1-4,1.4,9.44,9.44,0,0,1-2.37.23,5.65,5.65,0,0,0-1.79,0,.23.23,0,0,0-.14.33Z"/><path d="M43.22,111.59l-.12,0a.67.67,0,0,0-.63.17,5.13,5.13,0,0,0-.84,5,6.53,6.53,0,0,0,1.25,2.3,5.47,5.47,0,0,0,1,.92,2.3,2.3,0,0,0,.61.35,1.16,1.16,0,0,0,.41.09l.3,0,.13-.06a.67.67,0,0,0,.46-.82,1.29,1.29,0,0,0-.35-.62,4.49,4.49,0,0,0-.57-.4,1.87,1.87,0,0,1-.33-.27,3.78,3.78,0,0,1-.39-.41,4.59,4.59,0,0,1-.91-1.82,3.53,3.53,0,0,1-.14-1,5.23,5.23,0,0,1,0-.56,2.83,2.83,0,0,1,0-.29,1.42,1.42,0,0,1,0-.15,8.2,8.2,0,0,1,.29-1.08c.05-.19.13-.38.16-.57a.66.66,0,0,0-.35-.68Z"/><path d="M45.67,113.93a4.36,4.36,0,0,0,.2,2.2,8.41,8.41,0,0,0,.89,2.07,7.5,7.5,0,0,0,1.44,1.74,7.25,7.25,0,0,0,.87.68,3.52,3.52,0,0,0,1.09.42c.18,0,.26-.19.12-.29s-.52-.45-.8-.64a8.08,8.08,0,0,1-2.23-2.26,7.76,7.76,0,0,1-.91-1.85,6.25,6.25,0,0,1-.27-1,7.32,7.32,0,0,0-.19-1,.11.11,0,0,0-.21,0Z"/><path d="M48.1,114a7.4,7.4,0,0,0,.2,2.39,9.62,9.62,0,0,0,.93,2.25,10.48,10.48,0,0,0,1.4,1.92,5,5,0,0,0,2,1.37c.32.13.5-.31.31-.53A23,23,0,0,1,50.17,118a12.38,12.38,0,0,1-.89-2,15.77,15.77,0,0,1-.63-2.13c-.07-.32-.54-.23-.55.07Z"/><path d="M36.6,117.13a2.63,2.63,0,0,0,.14.89,3.66,3.66,0,0,0,.4.82,4.14,4.14,0,0,0,.55.7c.27.28.63.6,1.05.5l-.4-.05a2.67,2.67,0,0,0,.36.14l.36.05a.38.38,0,0,0,.26-.64l-.35-.36.13.23c0-.29-.38-.49-.57-.68l-.26-.27-.05-.07c0-.06,0,0,0,0s-.1-.12-.12-.16-.12-.19-.18-.3l-.08-.15a1,1,0,0,0,0-.1s0,.07,0,0l-.1-.25s-.08-.17,0-.07c-.05-.12-.09-.25-.13-.37a.48.48,0,0,0-.94.12Z"/><path d="M38.66,116.24a6.09,6.09,0,0,0,1.29,2.4,3.32,3.32,0,0,0,1,.9,5.32,5.32,0,0,0,.66.26,1.73,1.73,0,0,0,.31.07l.31.11c.31.09.47-.35.21-.52a4,4,0,0,1-.83-.78c-.27-.29-.6-.53-.87-.82-.14-.14-.27-.3-.4-.45l0,0a1,1,0,0,0-.08-.11l-.18-.27a7.69,7.69,0,0,1-.55-1,.46.46,0,1,0-.88.25Z"/><path d="M22.58,94.42a2.18,2.18,0,0,0-1.73.68,3.92,3.92,0,0,0-.9,1.78,3.54,3.54,0,0,0,1.51,3.64,3.5,3.5,0,0,0,3.93.08c1.08-.72,2.07-2.28,1.51-3.6-.18-.42-.71-.13-.76.21-.07.58-.28,1.13-.34,1.72a10.58,10.58,0,0,0,0,1.78,6.7,6.7,0,0,0,.84,2.8,4.22,4.22,0,0,0,4.27,2,4.09,4.09,0,0,0,3.48-3.06A4.14,4.14,0,0,0,33,98.06c-.37-.27-.72.29-.46.6,1.74,2,1,5.62-2,5.85a3.54,3.54,0,0,1-3.41-1.76,6.14,6.14,0,0,1-.73-2.49,4.92,4.92,0,0,1,.51-2.85l-.74-.31c-.27,1-.38,1.85-1.27,2.47a2.42,2.42,0,0,1-2.77,0,2.38,2.38,0,0,1-1.07-2.46,2.67,2.67,0,0,1,.58-1.21,6.27,6.27,0,0,1,1-1.14c.13-.09.1-.33-.09-.32Z"/><path d="M54.73,84.69a2.85,2.85,0,0,0,.07,2.53A2.92,2.92,0,0,0,57,88.68a3.51,3.51,0,0,0,2.65-.91,3.55,3.55,0,0,0,1.16-2.63,4.15,4.15,0,0,0-.33-1.67,3.34,3.34,0,0,0-.39-.75.92.92,0,0,0-.81-.45.32.32,0,0,0-.32.31,1.13,1.13,0,0,0,.09.6c.1.18.23.35.32.53a3.07,3.07,0,0,1,.3,1,2.59,2.59,0,0,1-.51,2,2.22,2.22,0,0,1-3.4.26,2.07,2.07,0,0,1-.56-2c.1-.29-.38-.5-.51-.21Z"/><path d="M62.58,102.78a4.5,4.5,0,0,0,2.71,4.68A3.77,3.77,0,0,0,70,105.24c.36-.84.65-2.4-.37-2.91a.3.3,0,0,0-.43.18,17.65,17.65,0,0,1-.08,2,3.16,3.16,0,0,1-1.23,1.69,3.07,3.07,0,0,1-4-.81,3.57,3.57,0,0,1-.93-2.66c0-.2-.28-.19-.3,0Z"/><path d="M26.58,28a14.94,14.94,0,0,1-1.79-2.32C24.35,25,23.73,24,24,23.14a1.75,1.75,0,0,1,3.12-.05,2.46,2.46,0,0,1,.29,1.3,4.9,4.9,0,0,1-.11.65c0,.23-.07.45-.11.69s.19.36.34.19A1.78,1.78,0,0,0,28,24.6a4.1,4.1,0,0,0-.25-1.43,2.77,2.77,0,0,0-1.93-1.7,2.66,2.66,0,0,0-2.43.74,2.16,2.16,0,0,0-.59,1.4,3.74,3.74,0,0,0,.56,1.86,8.87,8.87,0,0,0,2.79,3.05c.33.24.7-.27.42-.55Z"/><path d="M35.28,24a3.68,3.68,0,0,1-.16-1.15,4.83,4.83,0,0,1,.08-1.07,1.73,1.73,0,0,1,1.16-1.27c1.19-.33,1.79,1.13,1.64,2.09a4.66,4.66,0,0,1-.38,1.2c-.1.21-.2.42-.29.63a4.84,4.84,0,0,0-.19.65.29.29,0,0,0,.48.28,4,4,0,0,0,.87-1.16A4.81,4.81,0,0,0,39,22.86a3.17,3.17,0,0,0-.47-2.38,2.17,2.17,0,0,0-2.16-1,2.64,2.64,0,0,0-1.88,1.63,2.93,2.93,0,0,0-.13,1.58,4.19,4.19,0,0,0,.7,1.42c.08.13.31.05.25-.11Z"/><path d="M67.83,31.86a3.46,3.46,0,0,0,0-.79,3,3,0,0,1,.18-.84,3.09,3.09,0,0,1,1.1-1.4A6.14,6.14,0,0,1,72.86,28c.76,0,2.23.26,2.14,1.32a2.13,2.13,0,0,1-.89,1.33,8.94,8.94,0,0,1-1.72,1.06c-.45.23-1.52.52-1.46,1.18s1.19.32,1.57.15a7.66,7.66,0,0,0,3.28-2.41,2.24,2.24,0,0,0-.45-3.09,4.72,4.72,0,0,0-3.28-.7,5.94,5.94,0,0,0-3.93,1.61,3.93,3.93,0,0,0-1,1.71c-.14.54-.22,1.41.24,1.82a.26.26,0,0,0,.43-.12Z"/><path d="M114.88,96a10.19,10.19,0,0,0-.26,2.06,4.19,4.19,0,0,0,.43,1.86,2.74,2.74,0,0,0,2.78,1.54c1.21-.22,1.88-1.4,2.42-2.37s1.26-2.5.74-3.77A2.21,2.21,0,0,0,118,93.94c-.54.29-.07,1.08.47.81s1.41.33,1.64.92c.38,1-.18,2.07-.63,2.9s-.84,1.71-1.68,2a1.94,1.94,0,0,1-2.12-1,3.58,3.58,0,0,1-.47-1.63,17.16,17.16,0,0,1,0-1.9c0-.19-.3-.24-.33,0Z"/><path d="M140.05,27.9a24.71,24.71,0,0,1,2.12-2.22,3.53,3.53,0,0,1,2.48-1,1.48,1.48,0,0,1,1.41,1.51,2.44,2.44,0,0,1-1.12,2,4.43,4.43,0,0,1-1.44.59,10.74,10.74,0,0,0-1.69.33c-.37.15-.47.74,0,.85a4.05,4.05,0,0,0,1.83-.14,5.81,5.81,0,0,0,1.65-.68A3.48,3.48,0,0,0,147,26.48,2.37,2.37,0,0,0,145.5,24a3.26,3.26,0,0,0-3,.52c-1.11.83-1.64,2.22-2.5,3.28,0,0,0,.11.07.06Z"/><path d="M214.06,91.81A6.94,6.94,0,0,0,215.5,95a3.28,3.28,0,0,0,2.92,1.07c2.6-.38,2.5-3.68,1.43-5.44a3.06,3.06,0,0,0-2.92-1.7.51.51,0,0,0-.37.57.53.53,0,0,0,.5.45,2.07,2.07,0,0,1,1.8,1,4.07,4.07,0,0,1,.7,2.34,1.62,1.62,0,0,1-1.24,1.78,2.41,2.41,0,0,1-2.06-.64,5.92,5.92,0,0,1-1.44-2.84.39.39,0,0,0-.76.21Z"/><path d="M171,25.15A3.8,3.8,0,0,1,173,22a2.33,2.33,0,0,1,.81-.24,1,1,0,0,1,.39,0,.41.41,0,0,1,.2.13.71.71,0,0,1,.05.26,1.66,1.66,0,0,1-.16.49,9.34,9.34,0,0,1-.65,1.1,9.58,9.58,0,0,1-.8,1l-.46.54A2.05,2.05,0,0,0,172,26c-.08.26.19.46.43.42a1.49,1.49,0,0,0,.74-.32,4.34,4.34,0,0,0,.54-.51,10,10,0,0,0,1-1.27c.54-.81,1.25-1.94.74-2.93a1.94,1.94,0,0,0-2.49-.62,4,4,0,0,0-2,1.66,4,4,0,0,0-.47,2.78c.06.29.49.21.49-.06Z"/><path d="M17.64,35.17A25.73,25.73,0,0,0,24,39.26a35.68,35.68,0,0,0,3.44,1.44,9.81,9.81,0,0,0,1.89.58c.63.08,1.28,0,1.92.08a.58.58,0,0,0,.29-1.07c-.54-.25-1-.59-1.57-.85a15.55,15.55,0,0,0-1.78-.61c-1.12-.38-2.23-.81-3.32-1.28-2.23-1-4.3-2.24-6.44-3.4-.62-.34-1.34.5-.78,1Z"/><path d="M15.11,60.36c-.18-1.46.78-2.65,1.66-3.71s1.63-1.89,2.46-2.81a75.87,75.87,0,0,1,5.59-5.61,44.4,44.4,0,0,1,5.9-4.7,17.25,17.25,0,0,1,6.79-2.45.86.86,0,0,0,.6-.6,1,1,0,0,0,0-.45.88.88,0,0,0-.83-.63C34.67,39.3,32,40.64,29.84,42a47.9,47.9,0,0,0-6.5,5.3,67.65,67.65,0,0,0-6.17,6.5C15.7,55.6,13.32,58,14.34,60.46c.15.37.83.38.77-.1Z"/><path d="M45.18,40.92c2.89-3.4,6.29-6.06,11-5.71s7.82,3.91,10.1,7.71a29.62,29.62,0,0,1,4.39,13,3.51,3.51,0,0,1-.42,2.34c-.59.72-2,.78-2.9.84a13.92,13.92,0,0,1-5.47-.74,15.32,15.32,0,0,1-5.31-3.12,21.56,21.56,0,0,1-3.78-5.21,1,1,0,0,0-1.88.8c1.09,4.29,5.48,7.74,9.4,9.32A16,16,0,0,0,67,61.38c2.11-.1,4.6-.42,5.49-2.62s.17-4.78-.33-6.91a34.41,34.41,0,0,0-2.84-7.72c-2.31-4.55-5.8-9.35-11.08-10.51a12.44,12.44,0,0,0-7.57.71c-2.87,1.23-4.54,3.51-6.27,6-.32.45.4,1,.76.58Z"/><path d="M17.12,83.79c3.1,2.55,7.53,3.37,11.44,3.63A38.16,38.16,0,0,0,41.26,86,20.87,20.87,0,0,0,51,80.38a20.67,20.67,0,0,0,4.88-9.62,27.22,27.22,0,0,0,.55-7.31c-.09-1.72,0-5-1.75-5.93a.41.41,0,0,0-.49.06,3.63,3.63,0,0,0-.55,2.6c.09,1.25.28,2.48.32,3.74a25.08,25.08,0,0,1-.79,7.32,16.68,16.68,0,0,1-7.29,10.12c-4,2.4-9,3.4-13.56,3.72a28.75,28.75,0,0,1-7.64-.42c-2.38-.47-4.63-1.38-7-1.92-.56-.13-1.12.62-.61,1.05Z"/><path d="M12.72,76.47a3.16,3.16,0,0,0,.08,1.72,10.37,10.37,0,0,0,.59,1.7,10.88,10.88,0,0,0,2,3,11.71,11.71,0,0,0,2.78,2.22,9.88,9.88,0,0,0,1.68.78,3.28,3.28,0,0,0,.93.19,6.44,6.44,0,0,0,.75-.17c.33,0,.53-.51.18-.68-.18-.09-.34-.33-.58-.46a3.94,3.94,0,0,0-.76-.32A14.28,14.28,0,0,1,19,83.79a10.11,10.11,0,0,1-2.56-1.89,11.49,11.49,0,0,1-1.86-2.52,9.05,9.05,0,0,1-.67-1.49,5.41,5.41,0,0,0-.6-1.49.3.3,0,0,0-.54.07Z"/><path d="M12.58,77.36a10,10,0,0,0,1.72,3.22,16.61,16.61,0,0,0,2.56,2.74,20.83,20.83,0,0,0,3,2.23,16,16,0,0,0,1.6.81,3.57,3.57,0,0,0,1.9.37.43.43,0,0,0,.3-.72,4.66,4.66,0,0,0-1.42-1c-.54-.25-1.07-.53-1.59-.82a18.59,18.59,0,0,1-2.87-2,24.2,24.2,0,0,1-2.5-2.46c-.8-.86-1.43-1.87-2.24-2.73a.3.3,0,0,0-.5.3Z"/><path d="M14.87,83.66c2.5,2.71,6.72,3.83,10.26,4.19a22.18,22.18,0,0,0,5.58-.13,21.11,21.11,0,0,0,2.84-.61,8.93,8.93,0,0,0,1.32-.45,3.65,3.65,0,0,0,1.09-1,.57.57,0,0,0-.4-1,7.53,7.53,0,0,0-1.16,0,8.83,8.83,0,0,0-1.23.4,21.32,21.32,0,0,1-2.51.6,21,21,0,0,1-5.37.21,22.91,22.91,0,0,1-5.11-1.08c-1.66-.55-3.21-1.37-4.84-2-.48-.18-.77.48-.47.81Z"/><path d="M30.13,87.58c1.12-.15,2.24-.34,3.36-.52s2.24-.32,3.34-.58a.57.57,0,0,0,.41-.42.45.45,0,0,1,0-.11.34.34,0,0,0-.09-.34h0a.58.58,0,0,0-.51-.3c-1.13.13-2.25.38-3.36.59s-2.22.41-3.32.65c-.57.13-.46,1.11.14,1Z"/><path d="M24.75,54.63a37.34,37.34,0,0,0-2.43,13.75c0,2,.62,4.46,2.56,4.88a3.15,3.15,0,0,0,3-1.32,8.5,8.5,0,0,0,1.32-3.21c1.12-4.6,1.59-9.61-.32-13.94a2.38,2.38,0,0,0-.84-1.14A1.74,1.74,0,0,0,26,54,4.57,4.57,0,0,0,25,56a33.11,33.11,0,0,0-1.72,10.9"/><path d="M24.43,54.54a36.25,36.25,0,0,0-2.84,13.84A7,7,0,0,0,22.94,73a3.45,3.45,0,0,0,4.54.45c1.68-1.11,2.24-3.14,2.68-5A32.13,32.13,0,0,0,31.07,62c.06-2.43-.46-11.06-4.77-9.2-2.13.91-2.64,4.12-3.09,6.11a19.52,19.52,0,0,0-.4,8.08.49.49,0,0,0,.94,0c.67-3.62.93-7.27,2.13-10.79.2-.61.57-1.79,1.38-1.84s1.2,1.62,1.39,2.23a16.74,16.74,0,0,1,.7,5.07,26.67,26.67,0,0,1-.55,5.19c-.31,1.55-.56,3.51-1.65,4.74a2,2,0,0,1-3.48-.35,9.38,9.38,0,0,1-.62-4.3,38.45,38.45,0,0,1,2-12.22c.14-.41-.47-.56-.63-.18Z"/><path d="M38.74,52.83a39.72,39.72,0,0,0-2.22,12,10,10,0,0,0,.85,5.06,4.1,4.1,0,0,0,4.24,2.3,4.11,4.11,0,0,0,2.74-2.5,11.68,11.68,0,0,0,.73-3.76c.3-3.86.43-7.83-.82-11.49a3.36,3.36,0,0,0-1-1.7,2.62,2.62,0,0,0-3.35.63,7.69,7.69,0,0,0-1.42,3.43"/><path d="M38.51,52.7a10.42,10.42,0,0,0-1.24,2.71,20.81,20.81,0,0,0-.8,3.13A39.48,39.48,0,0,0,35.71,65c-.1,3.32.89,7.75,4.92,8.14a4.55,4.55,0,0,0,4.13-2.24c1.07-1.66,1.17-3.76,1.3-5.67a39.47,39.47,0,0,0,0-6.34,15.66,15.66,0,0,0-1.35-5.73,3.2,3.2,0,0,0-4.51-1.27,4.65,4.65,0,0,0-2.2,5,.44.44,0,0,0,.72.19c.83-1,1.08-2.54,2.09-3.34a1.66,1.66,0,0,1,1.67-.35c.64.33.85,1.32,1,1.94a27.42,27.42,0,0,1,.67,9.51c-.14,2.14-.47,7.31-3.92,6.42-3.22-.84-3.07-5.13-3-7.72A39,39,0,0,1,38,58c.18-.89.4-1.76.55-2.65A18.49,18.49,0,0,0,39,52.83c0-.28-.35-.33-.5-.13Z"/><path class="cls-2" d="M42.5,57.65h.07l-.2,0,.05,0,.16.06a.43.43,0,0,0,.25,0,.57.57,0,0,0,.38-.18,1.59,1.59,0,0,0,.15-.21l-.41.32h0a.79.79,0,0,0,.5-.39.91.91,0,0,0,.09-.65,2.06,2.06,0,0,0-.25-.57.89.89,0,0,0-1.19-.32,1.61,1.61,0,0,0-.54.53,1.38,1.38,0,0,0-.21.74,1.27,1.27,0,0,0,0,.28c0,.1,0,.19.06.29a1.74,1.74,0,0,0,.39.67,1.57,1.57,0,0,0,.66.41,1,1,0,0,0,1-.26,1.7,1.7,0,0,0,.26-.34,2,2,0,0,0,.18-.39,1.42,1.42,0,0,0,.07-.22,2.09,2.09,0,0,0,.06-.66,2.45,2.45,0,0,0-.24-.89,2.39,2.39,0,0,0-.42-.58l-.2-.15a.66.66,0,0,0-.36-.11,1,1,0,0,0-.62.11,1.82,1.82,0,0,0-.88,1.24,3.26,3.26,0,0,0-.05.45,3.41,3.41,0,0,0,.05.46,1.72,1.72,0,0,0,.16.43l.06.08a1.39,1.39,0,0,0,.21.27l.2.15a.77.77,0,0,0,.35.12,1,1,0,0,0,.62-.12,1.26,1.26,0,0,0,.35-.34,1,1,0,0,0,.09-.75,1.6,1.6,0,0,0-.05-.21l0,.27c0-.16,0-.31-.07-.46l0,.27a1.82,1.82,0,0,1,0-.33l0,.27a1.28,1.28,0,0,1,.07-.28l-.1.25a1.74,1.74,0,0,1,.18-.33l-.15.2.1-.11-1.18.15,0,0-.2-.16a1,1,0,0,1,.14.15L42,56.63a.92.92,0,0,1,.16.27l-.09-.23a2,2,0,0,1,.09.33l0-.25a1,1,0,0,1,0,.35l0-.26a1.59,1.59,0,0,1-.09.33l.09-.22a1.41,1.41,0,0,1-.13.24L42.2,57l-.06.07.91-.24-.12,0,.22.09L43,56.81l.19.15-.12-.12.15.19a1,1,0,0,1-.1-.17l.09.22a.86.86,0,0,1-.06-.23l0,.24a.67.67,0,0,1,0-.2l0,.24a1.05,1.05,0,0,1,.06-.24l-.09.22a.35.35,0,0,1,.07-.12l-.14.17.08-.07-.18.13h0l-1.06-.13,0,0-.14-.18a1.89,1.89,0,0,1,.19.3L41.92,57a1,1,0,0,0,.23.41,1.19,1.19,0,0,0,.43.23l-.47-.47s0,0,0,0l0-.17a.61.61,0,0,0,.13.39l.06-.48,0,0a.38.38,0,0,0-.17.42.4.4,0,0,0,.36.28Z"/><path class="cls-2" d="M28.83,58.9a2.17,2.17,0,0,0,.23-.3l-.55.43h.08a1.29,1.29,0,0,0,.48-.28,1.17,1.17,0,0,0,.28-.48,2.19,2.19,0,0,0,0-.51,2.09,2.09,0,0,0-.08-.49,2.23,2.23,0,0,0-.21-.44,2.05,2.05,0,0,0-.54-.52,1.1,1.1,0,0,0-1.12,0,1.13,1.13,0,0,0-.55,1l-.12,2.06a1.26,1.26,0,0,0,.34.82,1.24,1.24,0,0,0,.83.34,1.15,1.15,0,0,0,.82-.34,1.21,1.21,0,0,0,.34-.82V57.25l-1.67,1,.06,0-.22-.17a.43.43,0,0,1,.11.12L27.22,58l.09.15-.12-.26a.66.66,0,0,1,.06.2l0-.29a.67.67,0,0,1,0,.2,1.1,1.1,0,0,0,.54.94h0l-.22-.17.06,0-.24-.91a.74.74,0,0,1,0,.14l0,.24a.72.72,0,0,0,.08.35.86.86,0,0,0,.37.43.94.94,0,0,0,1.09-.14Z"/><path class="cls-2" d="M43.05,59.07a1,1,0,0,0,.47-.11,1,1,0,0,0,.38-.24,1.32,1.32,0,0,0,.35-.85l0-.32A1.24,1.24,0,0,0,43.9,57l-.24-.18a1.3,1.3,0,0,0-.61-.17,1,1,0,0,0-.46.11,1,1,0,0,0-.38.24,1.32,1.32,0,0,0-.35.85l0,.32a1.24,1.24,0,0,0,.31.53l.24.18a1.29,1.29,0,0,0,.6.17Z"/><path d="M53.9,48.64A20.9,20.9,0,0,1,57,50c1,.48,2,1,2.95,1.54A44.83,44.83,0,0,1,65.4,55.1c.36.28.76-.3.47-.61a19.07,19.07,0,0,0-5.45-4,17.28,17.28,0,0,0-3-1.19c-1.14-.33-2.3-.46-3.47-.69a0,0,0,0,0,0,0Z"/><path d="M7.42,51.66c1.13-1.38,2.1-2.93,3.34-4.22s3-1.43,4.81-1.33a13.28,13.28,0,0,0,4.57-.36c1.26-.37,3.23-1,3.82-2.31A.33.33,0,0,0,23.6,43a7.61,7.61,0,0,0-2,1,10.61,10.61,0,0,1-2.53.91,37.73,37.73,0,0,1-5.1.28A5.11,5.11,0,0,0,10.29,47,40.06,40.06,0,0,0,7.2,51.49c-.08.13.12.29.22.17Z"/><path d="M55.37,51c.9.78,1.9,1.46,2.87,2.17l1.45,1.07a7.57,7.57,0,0,0,.74.52,2.6,2.6,0,0,0,.8.35.33.33,0,0,0,.37-.48,4,4,0,0,0-1.31-1.19l-1.47-1c-1-.69-1.93-1.43-3-2-.39-.23-.85.33-.49.64Z"/><path d="M15.85,49a25,25,0,0,0,3.94-1.32,15.16,15.16,0,0,0,1.84-.94,16.8,16.8,0,0,0,1.73-1.28c.18-.13,0-.43-.18-.31-.57.35-1.19.6-1.78.92s-1.23.64-1.85.94a24.77,24.77,0,0,1-3.84,1.48.26.26,0,0,0,.14.51Z"/><path d="M19.46,48.5a12.66,12.66,0,0,0-1.3.91,9.93,9.93,0,0,0-1.15,1,6.22,6.22,0,0,0-1.69,2.66.4.4,0,0,0,.67.39c.33-.34.6-.73.91-1.1s.58-.75.93-1.13A12.42,12.42,0,0,1,20,49.32a.5.5,0,0,0,.17-.65.48.48,0,0,0-.66-.17Z"/><path d="M53.39,54.19a.52.52,0,0,1,.16-.63l-1.36-1c-.44.53-.33.95-.14,1.56.12.4.22.81.33,1.22.21.85.42,1.7.55,2.56a18.87,18.87,0,0,1,.21,2.49c0,.42,0,.84,0,1.26a2.4,2.4,0,0,0,.19.92,4.2,4.2,0,0,1,.26.52.67.67,0,0,0,1.21.16,2.6,2.6,0,0,1,.28-.45,1.8,1.8,0,0,0,.36-1,8.66,8.66,0,0,0,0-1.44,21.89,21.89,0,0,0-.3-2.92,18,18,0,0,0-.65-2.72c-.16-.49-.36-1-.56-1.44s-.49-.92-1.17-1A.86.86,0,0,0,52,53a.89.89,0,0,0,.62,1,.5.5,0,0,1,.45.39c.1.21.43.06.37-.16Z"/><path d="M52.08,52.8a12.52,12.52,0,0,1,1.13,2.76c.3,1,.61,1.92.83,2.89a17.41,17.41,0,0,1,.41,2.87,14.52,14.52,0,0,0,.1,1.47,10.12,10.12,0,0,1,.19,1.54c0,.5.78.63.89.12s.31-1,.41-1.56a5.9,5.9,0,0,0,0-1.57,16.5,16.5,0,0,0-.59-3.27,11.45,11.45,0,0,0-1.23-2.93,24.7,24.7,0,0,0-1.94-2.51c-.11-.14-.33,0-.24.19Z"/><path d="M54.16,55.2a43.41,43.41,0,0,1,.67,4.51c.08.74.12,1.48.21,2.22a6.45,6.45,0,0,0,.58,2.29.47.47,0,0,0,.82,0,5.1,5.1,0,0,0,.42-2.29,16.92,16.92,0,0,0-.23-2.46,35.67,35.67,0,0,0-1.06-4.66.73.73,0,0,0-1.41.39Z"/></g></g></svg>