<svg xmlns="http://www.w3.org/2000/svg" viewBox="0 0 166.42 237.83"><defs><style>.cls-1{fill:#fff;stroke:#000;stroke-miterlimit:10;stroke-width:3px;}</style></defs><g id="Camada_2" data-name="Camada 2"><g id="Camada_6" data-name="Camada 6"><path class="cls-1" d="M2.08,220.77a24.44,24.44,0,0,0,1.49,15.14s61.7-24,61.6-23.56,60.92-31.89,73.91-32.73c0,0,5.56-6.21.78-15,0,0-11-13.67-2.4-23.24s20.47-18.12,20.47-18.12,13-10,3.57-17.74c0,0-19.34-12.81-15.88-18.77S155.8,67,155.8,67,164.94,58.3,141,53.53c0,0-7.3-1.05-.62-12.91s-18.93-6.06-21.62-19.46S109.88.47,100.48,1.62L75.62,15.87l43.18,46.9s10.33,12.61.3,26.31-20.38-4.66-20.38-4.66S62.21,25.92,52.14,20.34c0,0-19.63-14.3-15.35.06,0,0,8.42,11.07,15.35,16.22,0,0,5.94,9.15-4.06,11.15,0,0,13.44,15.32,4.72,33.66,0,0,13.54,35.5,31.41,45.42s21.36,4.39,21.36,4.39,7.05-11.37,15.78-3.92,5.91,10.6,3.82,14-9.09,10.42-4.09,17.42Z"/><path d="M48.5,197.16c-1.54,1.55-1.79,4.28-1.62,6.36A11.68,11.68,0,0,0,49.43,210a12.27,12.27,0,0,0,12.28,4c1.65-.4.95-2.95-.7-2.55a9.94,9.94,0,0,1-9.74-3.16,10.11,10.11,0,0,1-2.19-5.07,10.55,10.55,0,0,1,0-2.75c.13-1,.43-1.93.52-2.93a.65.65,0,0,0-1.1-.45Z"/><path d="M120.7,158c.08.62.57,1,1,1.42a19.17,19.17,0,0,1,1.32,1.52,23.28,23.28,0,0,1,2.26,3.45,19.81,19.81,0,0,1,1.43,3.73c.17.64.32,1.3.43,2a3.54,3.54,0,0,0,.76,1.63.38.38,0,0,0,.65,0,3.13,3.13,0,0,0,.42-1.91,18,18,0,0,0-2.07-6.23,18.74,18.74,0,0,0-2.39-3.51,13.77,13.77,0,0,0-1.61-1.54c-.46-.4-1.06-1-1.72-1-.22,0-.5.19-.46.46Z"/><path d="M128.77,171.68c1-.84,1.17-2.55,1.59-3.71.51-1.36,1-2.71,1.51-4.09a40.61,40.61,0,0,0,1.56-9.61,27.76,27.76,0,0,1,1.74-8.56,12.32,12.32,0,0,1,2-3.31c.39-.44.88-.79,1.26-1.23a11,11,0,0,1,1.06-1.38c.3-.26,0-.73-.38-.64a8.93,8.93,0,0,0-1.91.42,6,6,0,0,0-1.41,1.2,13.14,13.14,0,0,0-2.28,3.3,23.76,23.76,0,0,0-2.08,8.33c-.35,3.53-.4,7.1-1.4,10.52-.46,1.53-1.07,3-1.5,4.55-.33,1.2-1,3.05-.14,4.16a.24.24,0,0,0,.37.05Z"/><path d="M124,160.33a9.6,9.6,0,0,0-4.3,8.15,10.5,10.5,0,0,0,4.11,8.23,7.9,7.9,0,0,0,9.07.8,9,9,0,0,0,4.25-7.7,11.91,11.91,0,0,0-5.24-9.35c-1.08-.75-2.46,1-1.42,1.84a10.86,10.86,0,0,1,4.16,6.21,6.77,6.77,0,0,1-2.05,6.36c-4.25,3.95-10.06-.66-10.76-5.43-.44-3.05,1-5.82,3.08-7.95a.74.74,0,0,0-.9-1.16Z"/><path d="M2.53,230c0,.13,0,.11,0,.23a1.63,1.63,0,0,0,.13.37,3.09,3.09,0,0,0,.34.65,8.46,8.46,0,0,0,.91,1.06,6.36,6.36,0,0,0,2.65,1.41,7.33,7.33,0,0,0,3,.19c.91-.13,2.15-.42,2.6-1.33a.54.54,0,0,0-.46-.8,19.24,19.24,0,0,0-2.44.59A6.42,6.42,0,0,1,7,232.22a8.3,8.3,0,0,1-2.21-1,4.25,4.25,0,0,1-.89-.69l-.46-.43c-.13-.13-.31-.23-.42-.36s-.55,0-.47.27Z"/><path d="M4.56,233.23a.64.64,0,0,0,.83-.42l-.25.32c.69-.3.38-1.31-.19-1.56l.28.28,0,0A.92.92,0,0,0,4,231.48a1.38,1.38,0,0,0-.42,1.83,2.2,2.2,0,0,0,1.24,1,3,3,0,0,0,1.31.17,2.44,2.44,0,0,0,.76-.15,3,3,0,0,0,.41-.18,1,1,0,0,0,.51-.86l-.23.54A1.33,1.33,0,0,0,8,233a.51.51,0,0,0-.38-.5,1.06,1.06,0,0,0-.47,0l-.13,0s.17,0,0,0l.38.1a.92.92,0,0,0-.84-.11l-.28,0,.24,0-.53.08.25,0a2.17,2.17,0,0,1-.72,0l.25,0a2.57,2.57,0,0,1-.38-.08l-.18-.06.1,0-.08,0-.08,0,.08.06a1.59,1.59,0,0,0-.13-.13c.09.13.11.15.06.08l0-.08,0,.11s0-.05,0-.08l0,.24a.38.38,0,0,1,0-.15l0,.24s.06-.16,0,0a.32.32,0,0,1-.08.14c-.06.06-.07.08,0,0l-.14.11.18-.14a1,1,0,0,0,.25-.44l-1,.54H4.4L4.28,233l0,0-.09-.07s0,0,0,0,0,0-.08-.11l.11.15a.76.76,0,0,0,.57.22l-.54-.54a.45.45,0,0,1,.27-.39s.21,0,.09,0a.49.49,0,0,0-.49.43.51.51,0,0,0,.36.55Z"/><path d="M124.54,167.52a4.94,4.94,0,0,0,.55-2.39,1,1,0,0,0-1.19-.91,4.27,4.27,0,0,0-3.1,4,4.37,4.37,0,0,0,3,4.19,3.65,3.65,0,0,0,2.79,0c.79-.46.9-2,.86-2.78a6,6,0,0,0-2.67-4.64,1.24,1.24,0,0,0-1.8.74,17.11,17.11,0,0,0,.1,6.91,1.29,1.29,0,0,0,1.43.92,1.31,1.31,0,0,0,1.12-1.27,24.53,24.53,0,0,0-1.07-9.09,1.34,1.34,0,0,0-2.62.35c0,3.13.3,6.5,2.32,9,1.72,2.17,4.78,3.53,7.49,2.54a1.37,1.37,0,0,0,.94-1.66,6.27,6.27,0,0,0-3.65-3.64,6,6,0,0,0-2.48-.4c-1,0-2.37.26-2.7,1.31-.65,2,1,3.76,2.58,4.74s4,1.92,5.52.13a3.59,3.59,0,0,0-.29-4.93,4.8,4.8,0,0,0-5.38-.49,7.19,7.19,0,0,0-2.21,1.85,2.38,2.38,0,0,0-.81,1.73,3.45,3.45,0,0,0,.51,1.38,4.93,4.93,0,0,0,4.53,2.22,5.94,5.94,0,0,0,4.8-4c.91-2.28.42-4.89-.45-7.1a1.47,1.47,0,0,0-1.36-1,1.42,1.42,0,0,0-1.36,1l-1.27,6.09a1.41,1.41,0,0,0,.82,1.66,1.43,1.43,0,0,0,1.75-.57,10.84,10.84,0,0,0,1.89-8.63L130.55,166a6.81,6.81,0,0,1,.81,6.61l2.7.74a8.48,8.48,0,0,0,.28-5.49,1.22,1.22,0,0,0-2.39.32,12.79,12.79,0,0,1-.59,4.43,1.41,1.41,0,0,0,1,1.72,1.43,1.43,0,0,0,1.72-1,9.38,9.38,0,0,0-1.09-8.76,1.41,1.41,0,0,0-2.56,1.08,8.17,8.17,0,0,1-1.62,6.46l2.57,1.08,1.28-6.09h-2.72c.84,2.11,1.47,4.89-.3,6.69a2.93,2.93,0,0,1-1,.68,3,3,0,0,1-.4.11c-.1,0-.11,0,0,0h-.47c-.46,0,.09,0-.17,0l-.39-.1-.17-.07a2.27,2.27,0,0,1-.34-.19s-.2-.13-.09-.05a1.39,1.39,0,0,1-.59-.92l-.14,1.08a4.12,4.12,0,0,1,2.72-1.92,1.72,1.72,0,0,1,1.13.28c.08.06.29.34.25.24a.77.77,0,0,1,.09.45c0-.13,0,.2-.06.24-.09.31.09-.07-.09.19s0,.13-.2.16c.26-.05-.18,0-.13,0l-.38-.1a6.24,6.24,0,0,1-.91-.42,5.68,5.68,0,0,1-1.47-1.06,1.9,1.9,0,0,1-.36-.53c.06.12,0-.24,0-.06,0-.22,0,0,0-.28l-.95.95a3.56,3.56,0,0,1,4.56,1.77l.94-1.66a4.32,4.32,0,0,1-4.87-1.84c-1.44-2.05-1.55-4.72-1.55-7.13l-2.62.36a23.32,23.32,0,0,1,1,8.38l2.54-.34a18.55,18.55,0,0,1-.2-5.9l-1.84,1.06a3.27,3.27,0,0,1,1.37,4l.8-.79a2.3,2.3,0,0,1-2.67-1.54,2.62,2.62,0,0,1,1.6-2.88l-1.38-.56a2.33,2.33,0,0,1-.13,1.54c-.32.83,1,1.38,1.43.6Z"/><path d="M118.25,165c-1.88,2.65-1.38,6.25.31,8.86,1.86,2.88,5.08,5,8.07,6.5a.31.31,0,0,0,.31-.54c-2.75-1.72-5.69-3.15-7.63-5.87-1.77-2.49-2.48-6.07-.68-8.73.16-.23-.22-.45-.38-.22Z"/><path d="M129.37,165.78A18.73,18.73,0,0,1,125,158a13.64,13.64,0,0,1,.62-7c1.37-4.28,4.18-7.95,6.42-11.79,2.08-3.56,3.9-7.55,3.4-11.77a13.39,13.39,0,0,0-7-9.93,25.77,25.77,0,0,0-13.13-3.16c-6.47.1-12.87,1.69-19.36,1.18-9.38-.73-15.87-7.24-21.38-14.26-5.92-7.53-11.41-16.59-20.24-21-1.4-.7-2.62,1.33-1.24,2.12C60.73,86.74,65.76,93.92,71,100.79c5.07,6.65,10.73,13.49,19,16.11,11.14,3.53,22.76-2.67,33.85,1,4.07,1.35,8,4.08,9.15,8.44s-.81,8.35-2.88,11.94c-2.42,4.2-5.53,8.28-6.65,13.08-1.31,5.57,1.16,11.28,5.16,15.15.49.48,1.17-.23.74-.74Z"/><path d="M60.06,93.21c-.71-1.86-1.46-3.64-2.05-5.54a22.26,22.26,0,0,1-1-5.84c-.16-4.31,1.27-8.3,2.15-12.46s.85-7.92-1-11.72C56.46,54,54.11,51,54.75,46.79c.33-2.17,1-4.31.84-6.53-.12-1.79-.66-4.06-2.42-4.9a1,1,0,0,0-1.41,1.41A15.06,15.06,0,0,1,52.82,39a7.84,7.84,0,0,1,.23,2.55c-.11,2-.76,4-.93,6-.34,3.94,1.74,7.11,3.51,10.44a13.47,13.47,0,0,1,1.73,5.59,22.54,22.54,0,0,1-.74,6.22c-.92,4-2.13,8-1.79,12.21s1.73,8.6,4.83,11.39c.16.15.49,0,.4-.22Z"/><path d="M52,48a2.84,2.84,0,0,1,.3-1.29c.31-.75-.86-1.17-1.25-.53-.89,1.43.15,4.08.65,5.55.72,2.1,1.69,4.1,2.47,6.18a26.25,26.25,0,0,1,1.56,6.76,49.89,49.89,0,0,1,.19,7c0,.57.82.66,1,.13a18.24,18.24,0,0,0,.86-6.92,27.68,27.68,0,0,0-1.3-6.49c-.68-2-1.65-4-2.46-6a24.35,24.35,0,0,1-1.08-3.22c-.24-1-.11-2.19-.68-3L51,46.86a3.72,3.72,0,0,1,.48,1.19A.24.24,0,0,0,52,48Z"/><path d="M45.82,27.43c1.08,8.38,10.82,11.15,15.75,16.84,7.05,8.12,2.5,20.11,3.5,29.71A37.66,37.66,0,0,0,77.53,97.92a35.91,35.91,0,0,0,11.73,7c5.6,2,11.57,2.39,17.4,3.38,6.23,1,12.63,2.7,17.84,6.43a23.06,23.06,0,0,1,5.9,6.12,18.55,18.55,0,0,1,1.82,3.58,25.73,25.73,0,0,1,1.34,4.09c.16.83,1.46.63,1.46-.2a15.61,15.61,0,0,0-.26-3.62,17.7,17.7,0,0,0-1.37-3.42,22.3,22.3,0,0,0-4.22-5.72A31.87,31.87,0,0,0,115.41,108c-5.7-1.65-11.6-2.08-17.44-3a37.19,37.19,0,0,1-14.74-5.09A36.2,36.2,0,0,1,67.35,77.28c-1.08-5-.63-10.07-.25-15.14S67.71,52,65.7,47.31s-6-7.4-9.92-10.14c-3.74-2.58-7.92-5.34-9.57-9.79-.07-.19-.42-.18-.39.05Z"/><path d="M64.26,35.42c6,5.38,8.36,13.66,9.34,21.42,1,8.11,2,16.22,6.15,23.43a49,49,0,0,0,14.5,15.34c5.86,4.13,12.3,6.94,19,9.44,6.4,2.38,14.46,5.44,16.37,12.78a1.09,1.09,0,0,0,2.11-.58c-1.6-6.49-7.56-10.07-13.31-12.51-3.14-1.33-6.38-2.39-9.54-3.66a73.89,73.89,0,0,1-10.09-5,50.17,50.17,0,0,1-16.2-14.71A37.24,37.24,0,0,1,77.71,71a126.55,126.55,0,0,1-2.59-13.25c-1.49-8.3-3.37-17.44-10.6-22.72-.2-.14-.45.18-.26.35Z"/><path d="M160.07,103.44c-3.8-3.13-8.3-8-13.78-6.91a5.79,5.79,0,0,0-4.45,3.71c-.77,2.34.27,4.77,1.55,6.72,1.48,2.26,3.58,4.15,4.4,6.81a3.79,3.79,0,0,1-.48,3.61,8.39,8.39,0,0,1-3.34,2c-3.9,1.68-6.2,4.65-8.07,8.37-1,2-1.93,4.18-3.06,6.19s-2.42,4.43-4.27,5.79a.3.3,0,0,0,.3.51,12.29,12.29,0,0,0,4.31-3.35,26.82,26.82,0,0,0,2.83-5.08c1.62-3.41,3.17-7.43,6.46-9.6,1.78-1.17,4-1.57,5.63-3a5.52,5.52,0,0,0,1.57-5.8,17.1,17.1,0,0,0-3.58-6c-1.52-1.89-3.68-4.89-2.21-7.38s5-2.19,7.29-1.19a28.17,28.17,0,0,1,4,2.44c1.44,1,2.94,1.76,4.41,2.67.35.22.79-.31.45-.59Z"/><path d="M87.56,27.28a28,28,0,0,0-1.07-3.75,24,24,0,0,1-.8-4.1,13.46,13.46,0,0,1,0-3.53c.14-.76.41-1.76,1.23-2a1.15,1.15,0,0,0-.61-2.21c-4.61.75-7.17,6.18-5.37,10.31l1.9-1.46a6.72,6.72,0,0,1-1.5-3,6.19,6.19,0,0,1-.15-1.66,5,5,0,0,0,0-1.81,1.05,1.05,0,0,0-1.74-.45c-1.05,1.07-.76,3.22-.45,4.56a8.88,8.88,0,0,0,2.14,4c1,1.09,2.42-.29,1.9-1.46-1.28-2.85,1-6.37,3.89-6.88l-.61-2.21c-2.83,1-3.1,4.32-2.89,6.89a19.14,19.14,0,0,0,1,4.78,12.63,12.63,0,0,0,1.06,2.3,6.7,6.7,0,0,0,1.42,1.95c.24.19.75.11.71-.29Z"/><path d="M80.91,16.71c0,1.74,0,3.49,0,5.23H83a10.36,10.36,0,0,1,1.55-6.75l-2-.86A14.78,14.78,0,0,0,82,20a15.39,15.39,0,0,0,.56,2.86,8.52,8.52,0,0,0,.56,1.4,2.21,2.21,0,0,0,.47.63c.15.15.35.26.5.42a.72.72,0,0,0,1.2-.69c0-.18,0-.42,0-.6a3.4,3.4,0,0,0-.17-.7c-.14-.41-.28-.82-.41-1.24a12.33,12.33,0,0,1-.47-2.25,13,13,0,0,1,.39-4.89,1.12,1.12,0,0,0-2-.85,12.1,12.1,0,0,0-1.73,7.87,1.09,1.09,0,0,0,1,1,1.05,1.05,0,0,0,1-1c0-1.74,0-3.49-.07-5.23a1,1,0,0,0-2,0Z"/><path d="M91.76,9.19A14.66,14.66,0,0,1,98.67,11a16.24,16.24,0,0,1,5.49,4.7c3,4.11,4.42,9.13,5.7,14s2.53,9.71,5.22,13.93a22,22,0,0,0,10.22,8.48,21.48,21.48,0,0,0,7.42,1.58c2.68.09,5.62-.32,7.95,1.29,1.19.82,2.28-1.11,1.12-1.93-2-1.4-4.34-1.59-6.68-1.59a25.52,25.52,0,0,1-7.23-.75A19.71,19.71,0,0,1,116.54,42c-5.34-8.76-4.61-20.28-11.52-28.23a16.92,16.92,0,0,0-6-4.51,13.76,13.76,0,0,0-3.46-.95,9.25,9.25,0,0,0-3.79.55.17.17,0,0,0,0,.33Z"/><path d="M134.19,129.18A28.38,28.38,0,0,0,138.6,119a17.54,17.54,0,0,0-.24-9.29,12.73,12.73,0,0,0-4.89-6.52c-2.13-1.51-4.57-2.55-6.67-4.13-2.27-1.71-3.55-4.21-2.47-7,1.18-3,4-5.24,5.91-7.8a23.47,23.47,0,0,0,.2-28.14A25.3,25.3,0,0,0,127,52.27c-1.23-1.08-2.56-2.2-4.24-2.3a.47.47,0,0,0-.4.7,13.88,13.88,0,0,0,3.06,2.91,23.32,23.32,0,0,1,3.19,3.4,21.92,21.92,0,0,1-.36,27c-3.09,3.85-8.38,8.74-4.71,14,2.94,4.2,8.8,4.94,11.83,9a14.1,14.1,0,0,1,2.16,10.3,28.14,28.14,0,0,1-1.56,5.7c-.74,2-1.78,3.88-2.4,5.9-.13.42.43.59.65.28Z"/><path d="M136,51.12a32.74,32.74,0,0,1,5.53,4.78,19.86,19.86,0,0,1,3.53,6.15,18.13,18.13,0,0,1-1.5,15c-2.78,5.13-6.79,9.74-7.76,15.66a13,13,0,0,0,1.05,7.82c1.22,2.57,3.12,4.8,3.91,7.57,1.94,6.73-2.68,13.45-6.39,18.66-.7,1,.92,1.91,1.6.94,3.45-4.87,7.23-10.57,7-16.79a16.56,16.56,0,0,0-2.81-8.1c-1.65-2.72-3.07-5.31-2.89-8.6.37-6.59,5.31-11.68,8.07-17.34A19.21,19.21,0,0,0,146.52,62c-1.58-4.66-5.34-10-10.47-11a.08.08,0,0,0-.06.15Z"/><path d="M137,50.45c-2.53-.57-4.9-1.27-6.22-3.73A6.65,6.65,0,0,1,130,43a13.2,13.2,0,0,1,1.37-3.83,4.39,4.39,0,0,0-1.56-5.28c-2-1.58-4.56-1.52-7-1.78a10.66,10.66,0,0,1-9.54-9.06c-.39-2.63-.26-5.32-1.42-7.78a14,14,0,0,0-4.41-5,28.52,28.52,0,0,0-6.79-4c-2.07-.77-5.28-.76-6.34,1.57a.72.72,0,0,0,1.13.87c2.27-1.94,4.64-1,7,.41a30,30,0,0,1,5.69,4,10.32,10.32,0,0,1,3.08,6.7c.25,2.35.31,4.7,1.29,6.89a12.25,12.25,0,0,0,9.46,7.1c2.46.33,5.66-.09,7.45,2,1,1.23.61,2.44,0,3.76a9.05,9.05,0,0,0-.95,3,8,8,0,0,0,2.32,6.47c1.55,1.48,4.13,2.55,6.25,1.82.21-.07.24-.41,0-.46Z"/></g></g></svg>