<svg xmlns="http://www.w3.org/2000/svg" viewBox="0 0 163.73 115.54"><defs><style>path{fill:#007fff}.cls-1{fill:#fff;stroke:#007fff;stroke-miterlimit:10;stroke-width:3px;}</style></defs><g id="Camada_2" data-name="Camada 2"><g id="Camada_4" data-name="Camada 4"><path class="cls-1" d="M102.11,113.3s7.45-10.61,15.61-12.06c0,0-3.09-29-18-46.71,0,0-3.58-12.13-.73-12.94l59.85-7.8,3-15-55.38,5-1-17.59a5,5,0,0,0-6.78-4.35C90.54,5,76.81,11.19,70.36,18.73a6.54,6.54,0,0,1-7.74,1.59l-13.08-6.1a13.25,13.25,0,0,0-13.72,1.53c-8.52,6.58-24,16-22.64,22.07,1.27,5.84-2.71,18.59-5.51,18.28,0,0,23.28-6.75,54.24,21.47Z"/><path d="M11.49,54.87C17.66,54.75,23.84,54,30,53.42s12.3-1.34,18.44-2.15q18.28-2.39,36.42-5.75,5-.93,10.07-1.94c1.76-.35,3.51-.7,5.26-1.09s3.42-1,5.14-1.53c.42-.13.37-.87-.1-.8-1.35.17-2.71.21-4,.43-1.6.25-3.2.63-4.79.95q-4.55.93-9.11,1.79Q78.14,45.07,69,46.55c-12.31,2-24.67,3.64-37.06,5-6.85.76-13.75,1.23-20.58,2.16-.65.08-.49,1.14.15,1.13Z"/><path d="M19,45a10.57,10.57,0,0,0,3.4-.36c1.49-.28,3-.58,4.46-.89,3-.61,5.93-1.25,8.9-1.9,6-1.3,12-2.56,17.86-4.15a.45.45,0,0,0-.24-.87c-5.93,1.09-11.8,2.5-17.68,3.88C32.85,41.33,30,42,27.1,42.71c-1.39.34-2.78.67-4.18,1A14.53,14.53,0,0,0,19,44.79c-.06,0-.06.15,0,.16Z"/><path d="M62.65,35.15a10.29,10.29,0,0,0,3.09-1c1-.38,2-.74,3-1.1,2.13-.75,4.3-1.43,6.49-2a114.08,114.08,0,0,1,12.94-2.63q6.65-1.08,13.32-1.87c2.28-.27,4.55-.51,6.83-.75,1.07-.11,2.13-.22,3.19-.35a21.31,21.31,0,0,0,3.32-.86.54.54,0,0,0-.14-1.06,22.15,22.15,0,0,0-3.64-.18c-1.06.08-2.12.2-3.18.31q-3.42.36-6.83.76c-4.49.54-9,1.18-13.4,2.07s-8.86,2.12-13.2,3.42c-2.17.65-4.33,1.36-6.46,2.16-.89.34-1.78.7-2.67,1.07a8.38,8.38,0,0,0-2.85,1.54.29.29,0,0,0,.2.48Z"/><path d="M76.37,21.21A46.7,46.7,0,0,0,98.1,9.15a.55.55,0,0,0-.39-.93,17.24,17.24,0,0,0-7.61,2.44c-.22.13-.08.53.18.43a28.47,28.47,0,0,1,7.43-1.78l-.38-.93A48.17,48.17,0,0,1,76.16,20.46a.39.39,0,0,0,.21.75Z"/><path d="M51.48,25.56a23.89,23.89,0,0,1-11.28-5.3l-.3,1.14a17,17,0,0,1,4.45,0c.71.09,1.39.25,2.09.38s1.47.18,2.2.26c.33,0,.37-.41.15-.56a6.74,6.74,0,0,0-2.07-1.09A14.71,14.71,0,0,0,44.35,20a18.89,18.89,0,0,0-4.81.13.68.68,0,0,0-.3,1.14,23.35,23.35,0,0,0,12.15,5c.39.05.48-.62.09-.69Z"/><path d="M94.53,37.34a5,5,0,0,0,2.52-.06l3.2-.4,5.92-.73,12.09-1.51c3.84-.48,7.67-1,11.5-1.48,2-.27,3.94-.53,5.91-.82,2.13-.32,4.21-.8,6.32-1.16.24,0,.18-.44-.05-.42-2.06.19-4.11.24-6.17.48l-5.92.72c-3.92.5-7.83,1-11.74,1.56l-11.82,1.61-5.91.82-3.2.44a5.79,5.79,0,0,0-2.69.62.18.18,0,0,0,0,.33Z"/><path d="M122.58,30c8-.67,15.87-1.13,23.78-2.22.27,0,.2-.5-.07-.48-7.95.46-15.8,1.56-23.71,2.45-.16,0-.16.26,0,.25Z"/><path d="M52.81,49.45c-2.05,2.11-1.42,5.52-1,8.44s-.16,6.68-3,7.49c-2.1.6-4.17-.86-6-2.12A48.83,48.83,0,0,0,19,54.56a124.79,124.79,0,0,1,29.69-3.65"/><path d="M52.68,49.22C49.31,51.11,51,56.09,51,59.13c0,1.58-.15,3.63-1.43,4.74-1.82,1.55-4.15,0-5.73-1.14A50.93,50.93,0,0,0,19,53.43l.3,2.22A125.67,125.67,0,0,1,34.2,52.92c2.4-.29,4.81-.5,7.23-.65,1.29-.08,2.57-.14,3.86-.17a9.94,9.94,0,0,0,3.61-.39.84.84,0,0,0,0-1.6,8.6,8.6,0,0,0-3.61-.28c-1.29,0-2.57.1-3.86.17q-3.87.24-7.71.71a127.72,127.72,0,0,0-15,2.76c-1.32.32-.92,2.11.3,2.22a48.66,48.66,0,0,1,21.17,7.05c2.59,1.61,5.69,4.67,9,3.55,2.51-.85,3.42-3.62,3.54-6a31.22,31.22,0,0,0-.47-5A10.9,10.9,0,0,1,53,49.58c.1-.23-.11-.5-.36-.36Z"/><path d="M78.31,46.14c4.25,1.64,8.93,3.7,10.63,7.93.33.81.53,1.67.91,2.46a8.72,8.72,0,0,0,2.4,2.8,18,18,0,0,0,13.37,3.91,23.39,23.39,0,0,1-8.41-21.18,61.88,61.88,0,0,0-17.15,4.61"/><path d="M78.07,46.38a12.59,12.59,0,0,0,3.36,2,21.38,21.38,0,0,1,3.64,2.28,10.34,10.34,0,0,1,2.55,3c.76,1.39,1,3,1.88,4.31,3.41,4.89,10.43,7,16.12,6.4.82-.08,1.57-1.19.77-1.84a22.38,22.38,0,0,1-8.07-20.11c.09-.65-.28-1.56-1.11-1.46a65,65,0,0,0-9,1.72,40.53,40.53,0,0,0-8.65,3.09,1.1,1.1,0,0,0,.84,2c2.76-.88,5.4-2,8.21-2.8a63.61,63.61,0,0,1,8.65-1.71l-1.14-1.15a24.53,24.53,0,0,0,8.79,22l.76-1.85a17.42,17.42,0,0,1-9-1.37,16.16,16.16,0,0,1-3.92-2.46,8.87,8.87,0,0,1-2.59-4.12,11.48,11.48,0,0,0-4.72-5.68c-1.92-1.26-4.69-2.83-7-2.74a.35.35,0,0,0-.24.59Z"/><path d="M61,74.31c-1.19-1.75-2.57-3.3-2.85-5.48a6,6,0,0,1,1.76-5.23c3.26-3.05,7.7-.46,10.4,2.06s4.73,5.93,4.41,9.55c-.15,1.7-1,3.07-2.8,3.17a10.76,10.76,0,0,1-5.2-1.09,13,13,0,0,1-4.49-3.52,11.9,11.9,0,0,1-1.51-2.39c-.45-.93-.61-2-1.63-2.43a.7.7,0,0,0-.93.24c-.73,1-.21,2.1.24,3.09a13.78,13.78,0,0,0,1.74,2.84,15,15,0,0,0,5.21,4.25c3.8,1.86,10,2.76,11.51-2.36,1.34-4.43-1.35-9.44-4.45-12.46s-8.58-6.19-12.86-3.2a7.76,7.76,0,0,0-3.31,6.75,9.23,9.23,0,0,0,4,7c.45.34,1.07-.32.77-.77Z"/><path d="M76.85,70.45c-.19.15-.06,0,0,0l.21-.15.19-.16s.17-.13,0,0,0,0,.07,0l.13-.09.25-.15c.08,0,.39-.16.1,0l.28-.1a3.38,3.38,0,0,1,.63-.14l-.25,0a4.92,4.92,0,0,1,.94,0,1,1,0,0,0,.25-1.87,3.83,3.83,0,0,0-.67-.08,5.05,5.05,0,0,0-.68.08,4.52,4.52,0,0,0-1.08.34,3.41,3.41,0,0,0-1.69,1.42.82.82,0,0,0,.21,1.06.77.77,0,0,0,.5.18,1,1,0,0,0,.59-.24Z"/><path d="M89.38,57.62a3.63,3.63,0,0,0-5.08-.54c-2.12,1.48-2.7,4.25-3.18,6.61-1,5-1.43,10.94,2.52,14.89,3,3,9.55,5,12.45.77,1.51-2.2,2.2-5.36,2.59-7.95A17.1,17.1,0,0,0,98,62.94c-1.72-4.55-7.21-9.23-12.37-7.35C84.44,56,84.5,58.19,86,58a8.3,8.3,0,0,1,4.94.59,9.58,9.58,0,0,1,3.86,3.5c2.31,3.67,1.86,8.38.69,12.35-.53,1.81-1.07,4.24-3.16,4.74a7.51,7.51,0,0,1-5.31-1c-3.72-2.13-4.58-6.33-4.32-10.31a28.5,28.5,0,0,1,1.15-6.68c.63-2,2.72-4.36,5.06-3.12.29.16.72-.18.49-.49Z"/><path d="M97.06,67.9a1.33,1.33,0,0,0,.85.34l-.38-.1a3.4,3.4,0,0,0,2.07.12c.74-.09,1.48-.2,2.22-.31,1.37-.21,2.76-.38,4.13-.63a1.11,1.11,0,0,0-.29-2.17c-1.42.19-2.83.46-4.25.69-.67.11-1.34.22-2,.36a3.59,3.59,0,0,0-2,.75l.33-.19a1.47,1.47,0,0,0-.78.65.36.36,0,0,0,.13.49Z"/><path d="M58.92,63.24a5.51,5.51,0,0,0-1.27,2.32,8.68,8.68,0,0,0-.17,2.69,9.12,9.12,0,0,0,.67,2.66c.38.87.85,1.87,1.92,1.92a.55.55,0,0,0,.54-.55c.1-.84-.52-1.44-.86-2.16a6.64,6.64,0,0,1-.57-2,10.19,10.19,0,0,1,.55-4.41.49.49,0,0,0-.81-.47Z"/><path d="M65.59,70.06l-.08.13.1-.06h-.15a.73.73,0,0,0-.68.52,4.36,4.36,0,0,0,1.22,4,4.62,4.62,0,0,0,4,1.45,3.26,3.26,0,0,0,2.84-3.72,5.81,5.81,0,0,0-3.06-3.55c-1.26-.7-3.38-1.42-4.49-.06a3,3,0,0,0-.3,2.89,7,7,0,0,0,1,2.11A4.59,4.59,0,0,0,68,75.37a3.09,3.09,0,0,0,2.51,0,3.27,3.27,0,0,0,1.65-3.42A2.81,2.81,0,0,0,69,69.4a3.46,3.46,0,0,0-2.9,3.3A2.93,2.93,0,0,0,66.36,74a1.11,1.11,0,0,0,1.24.5,2.76,2.76,0,0,0,2.05-2.66,1,1,0,0,0-2-.27s-.1.29,0,.07a1.14,1.14,0,0,1-.1.19c0,.06-.08.12-.11.18s-.19.24,0,0a1.07,1.07,0,0,1-.14.16c-.09.09-.13.1,0,0l-.22.13c-.19.11.18-.06,0,0l1.24.5c.13.29,0,0,0-.14s0,.25,0,0v-.14c0-.23-.07.25,0,0l0-.13a.55.55,0,0,0,0-.17l0,.1.06-.13s.15-.3.19-.3-.18.21,0,0l.15-.15.11-.1c.16-.16-.16.08,0,0s.22-.13.34-.2-.24.06,0,0l.14,0a1.18,1.18,0,0,0,.2,0s-.27,0-.09,0a1.08,1.08,0,0,0,.18,0c.12,0-.26-.07,0,0a.48.48,0,0,0,.17,0c.07,0,0,0-.09,0l.11.06.1.06c.19.11-.16-.18,0,0s.22.26.11.11.07.12.1.16,0,.18,0-.07a1.27,1.27,0,0,0,.06.18,1.53,1.53,0,0,0,.07.29c-.09-.19,0-.21,0-.07v.15c0,.1,0,.22,0,.31,0-.16,0-.21,0-.1a2,2,0,0,1,0,.24c0,.06-.12.33,0,.17s-.07.12-.1.17l-.08.12s.17-.18.06-.07a.74.74,0,0,0-.13.12c-.15.17,0,0,0,0l-.26.15c.11-.12.2-.06.06,0l-.17,0c-.21.06,0,0,0,0a.89.89,0,0,1-.23,0H69c-.12,0-.1,0,.06,0l-.14,0-.14,0s-.22-.11-.08,0-.06,0-.08,0l-.16-.1a.91.91,0,0,1-.16-.11c.18.12.07.06,0,0L68,72.84s-.3-.38-.15-.18a2.71,2.71,0,0,1-.24-.35,6,6,0,0,1-.42-.79c-.07-.16.08.23,0,0,0-.07,0-.13-.07-.2s-.08-.24-.12-.36-.07-.29-.11-.44,0,.18,0-.11c0,0,0-.33,0-.1,0,0,0-.28,0-.15l0,0c.07-.1,0-.09,0,0a.43.43,0,0,1,.09-.1l-.1.07.12-.07s-.21.06,0,0,.18-.07.2-.05-.27,0,0,0a2.43,2.43,0,0,1,.27,0h.2c-.22,0-.09,0,0,0l.39.09.37.12.07,0,.24.11a7.37,7.37,0,0,1,.78.43l.37.25s.15.12,0,0l.21.17a6,6,0,0,1,.62.62s.18.24,0,.07l.1.13a2.82,2.82,0,0,1,.23.42c.09.15,0,0,0,0l.07.21a.83.83,0,0,0,0,.15c.06.22,0-.2,0,0s0,.44,0,.19a2.22,2.22,0,0,1-.09.37c.06-.21,0,0,0,.06l-.09.15c-.13.2.09-.06-.09.1a1.59,1.59,0,0,1-.13.13c-.18.17.12,0-.1.08l-.16.1-.21.1h0l-.17.06c-.14,0-.29.06-.43.11s.22,0,0,0h-.45c-.06,0-.27,0,0,0l-.44-.1-.14-.05-.14,0c.09,0,.1,0,0,0L68,74a3.57,3.57,0,0,1-.38-.25c.13.1,0,0,0,0l-.23-.21a2.29,2.29,0,0,1-.27-.27L67,73.08l0-.06a5.63,5.63,0,0,1-.42-.76l-.09-.17c.08.16,0,0,0-.08a3.38,3.38,0,0,1-.13-.42,1.16,1.16,0,0,1,0-.18.43.43,0,0,1,0-.11c0,.08,0,.08,0,0a3.24,3.24,0,0,1,0-.44.7.7,0,0,0-.34-.61l-.15-.08.06.14,0-.16a.09.09,0,0,0-.17-.07Z"/><path d="M91.3,68.53a3.77,3.77,0,0,0-.48-.28,2.77,2.77,0,0,1-.45-.31,2.35,2.35,0,0,0-1.22-.33A3.13,3.13,0,0,0,86.81,73c1.49,1.36,3.84.76,5.07-.66a4.84,4.84,0,0,0,1-4.52,3.54,3.54,0,0,0-3.74-2.54,3.84,3.84,0,0,0-3.48,3.12,3.94,3.94,0,0,0,2.89,4.17,3.54,3.54,0,0,0,4.15-2c.67-1.54.51-3.8-1.19-4.62a3,3,0,0,0-2.94.11,3,3,0,0,0-1.3,2.61,3,3,0,0,0,.47,1.45,1.17,1.17,0,1,0,2-1.18l-.12-.19c-.14-.21,0,.23,0,0,0,0,0-.1,0-.15-.07-.24,0,.26,0,0,0,0,0-.23,0-.23s-.06.25,0,.08l.06-.23c0-.12,0-.09,0,.07,0,0,.05-.09.07-.14s.07-.12.09-.13l-.09.12.11-.11c.16-.18-.21.1,0,0l.14-.08-.14.06L90,68c.14,0,.25,0,0,0h.23l.22,0c.19,0-.09,0-.06,0a1.36,1.36,0,0,1,.2.11c.23.12-.17-.17,0,0s0,0,0-.07a1.63,1.63,0,0,0,.11.17s.06.15.1.18-.1-.25,0,0,0,.24.09.35,0-.31,0-.08a1.48,1.48,0,0,1,0,.21c0,.1,0,.23,0,.33,0-.24,0-.19,0,0l-.06.23a1.09,1.09,0,0,1,0,.17c0,.13-.13.17,0,0a2.8,2.8,0,0,0-.15.3,1.74,1.74,0,0,0-.11.18c-.12.19.14-.16,0-.05l-.3.31c-.13.13,0,0,.08,0a1,1,0,0,0-.17.11,2.69,2.69,0,0,0-.29.16c.2-.16.15-.07,0,0a1.8,1.8,0,0,1-.22.06c-.24.06.18,0,0,0a2.43,2.43,0,0,0-.27,0c-.28,0,0,0,0,0l-.15,0L89,70.34c-.25-.07.22.12,0,0l-.34-.19c-.1-.07-.16-.19,0,0a1.37,1.37,0,0,0-.18-.16l-.17-.16-.05-.06c-.08-.1-.07-.08,0,0a1.15,1.15,0,0,1-.21-.33s-.11-.16-.1-.21.09.27,0,.06,0-.15-.07-.22l0-.15c0,.17,0,.19,0,.07s-.05-.36,0-.39l0,.15,0-.14a.65.65,0,0,1,0-.13c0-.15.12-.14,0,0,0,0,.06-.13.09-.18a.75.75,0,0,1,.07-.12l.07-.11,0,.06s.2-.21.23-.24.15-.11.16-.14-.19.13,0,0l.32-.19s.23-.07.06,0,.09,0,.12,0l.37-.1c.16,0,.09.06,0,0a1.5,1.5,0,0,0,.2,0h.34c.24,0-.26-.06,0,0l.2,0s.16.08.19.07-.2-.1,0,0l.12.07.06,0c.09.07.08.05,0,0,.06,0,.22.19.26.24s0,0,0,0,.15.22.16.23l.06.13c.12.22,0,0,0,0a3.17,3.17,0,0,1,.11.33,1.6,1.6,0,0,1,.05.21c0,.25,0,0,0,0s0,.41,0,.43,0,.24,0,.36,0-.24,0,0c0,.07,0,.15,0,.22s-.06.23-.1.35,0,.18-.08.21l0-.12-.06.13a3.9,3.9,0,0,1-.19.35c0,.06-.07.11-.1.16-.13.2.15-.17,0,0l-.26.28-.19.16c.18-.15-.07,0-.11.07a3.23,3.23,0,0,1-.41.22c.19-.09,0,0,0,0l-.21.06a2.1,2.1,0,0,1-.24.06c.23-.05,0,0,0,0h-.2l-.16,0q.2,0,0,0l-.16,0c-.11,0-.1,0,0,0l-.13-.08-.06,0c-.09-.06-.08,0,0,0,0,0-.13-.12-.15-.14l-.05,0,0,0s-.09-.13-.11-.17a.61.61,0,0,1-.09-.18c.06.14.07.15,0,0a.65.65,0,0,1,0-.13.74.74,0,0,1,0-.14s0-.09,0-.13c0,.15,0,.17,0,0s0-.38,0-.42l0,.13s0-.09,0-.14,0-.14.05-.21L88,70c-.07.24,0,0,.05-.09s.15-.24.23-.35c-.11.15,0,0,0,0s.24-.19.09-.09l.4-.24a1.34,1.34,0,0,1,.39-.16,6.38,6.38,0,0,1,.91-.17,1.76,1.76,0,0,1,.39-.06,1.92,1.92,0,0,1,.51.22.3.3,0,0,0,.3-.52Z"/><path d="M89.48,69.19c-.07.13-.12.27-.18.4a.83.83,0,0,0-.06.21,2.53,2.53,0,0,0,0,.67,3.5,3.5,0,0,0,.07.45,2.3,2.3,0,0,0,.18.43l.11.19a3.26,3.26,0,0,0,.29.36,1.06,1.06,0,0,0,.73.3l.27,0a.94.94,0,0,0,.45-.26,2,2,0,0,0,.22-.29,1.75,1.75,0,0,0,.15-.34.9.9,0,0,0,.06-.22,1.69,1.69,0,0,0,0-.5,2,2,0,0,0-.09-.49,2.25,2.25,0,0,0-.19-.45l-.15-.2-.15-.19c-.06-.06-.13-.1-.19-.15a1.59,1.59,0,0,0-.21-.15,1.92,1.92,0,0,0-.33-.14l-.14,0a1.75,1.75,0,0,0-.4,0,1.84,1.84,0,0,0-.41,0l-.15,0c-.07,0-.38.18-.27.11l-.21.17-.16.21,0,0,.15-.2v0L89,69a2,2,0,0,0-.41.36,1.83,1.83,0,0,0-.37.65,1.73,1.73,0,0,0,0,.51.89.89,0,0,0,.25.64.92.92,0,0,0,.22.17.7.7,0,0,0,.8-.1l0,0-.15.11a.92.92,0,0,0,.34-.34l.08-.13-.13.17a1.28,1.28,0,0,1,.26-.26l-.19.15a1.09,1.09,0,0,1,.23-.14l-.23.1.09,0-.26,0h0l-.27,0h.06a1.11,1.11,0,0,0,.6,0,1,1,0,0,1,.17,0l-.28,0H90l-.28,0,.18,0-.25-.1a.64.64,0,0,1,.18.1l-.21-.16a1.06,1.06,0,0,1,.15.15l-.16-.21a1.71,1.71,0,0,1,.13.23l-.11-.25a.78.78,0,0,1,.07.25l0-.27a.76.76,0,0,1,0,.26l0-.28a.79.79,0,0,1-.06.22l.11-.25a.86.86,0,0,1-.1.16l1.61-.21-.14-.15.16.2a1.11,1.11,0,0,1-.17-.3l.1.25c0-.11-.09-.22-.14-.33l.1.24a1.64,1.64,0,0,1-.1-.38l0,.26a1.89,1.89,0,0,1,0-.41l0,.24a1.16,1.16,0,0,1,0-.18,1,1,0,0,0-.09-.7,1,1,0,0,0-.44-.37.92.92,0,0,0-.59,0,1,1,0,0,0-.54.41Z"/><path d="M77,71.05a10.82,10.82,0,0,0-.55,4c-.08,1.51-.07,3-.05,4.55s0,3,.06,4.48A9.21,9.21,0,0,0,77,87.62c.83,1.89,3.2,3.27,5.14,2,1.73-1.09,1.4-3.34,2.68-4.69l-1.67-.44c1.28,3.6,5.09,6.37,9,5.45a5.36,5.36,0,0,0,3.72-3.16c.61-1.46.68-3.46-.53-4.64-.62-.59-1.89,0-1.54.9a3.62,3.62,0,0,1,.17,3,3.4,3.4,0,0,1-2.62,2c-2.73.43-5.39-1.61-6.28-4.1a1,1,0,0,0-1.68-.44,5.72,5.72,0,0,0-1.19,2.09,7.68,7.68,0,0,1-.8,2,1.25,1.25,0,0,1-1.83.15,3.46,3.46,0,0,1-1.17-2.59c-.24-2.32-.13-4.7-.2-7,0-1.29-.12-2.57-.25-3.85a8.88,8.88,0,0,0-.62-3.27.23.23,0,0,0-.39,0Z"/><path d="M83.53,86.29a38.09,38.09,0,0,0,2.65,9.82c.75,1.79,2.37,3.85,4.19,3.17.8-.3,1.33-1.06,2-1.52,2.17-1.39,5.48.23,7.4-1.48,1.26-1.12,1.17-3.21.27-4.63a11,11,0,0,0-3.85-3.19,3.5,3.5,0,0,0-1.79-.66,4.3,4.3,0,0,0-1.63.54,8.8,8.8,0,0,1-8.9-1.23"/><path d="M83.14,86.29a19.29,19.29,0,0,0,.13,2.94A33.81,33.81,0,0,0,84,92.54a20,20,0,0,0,2.06,5.31c.83,1.31,2.16,2.61,3.84,2.45s2.4-1.81,4-2.11,3.16.12,4.72-.24a3.93,3.93,0,0,0,3.06-3.06c.74-3.7-2.63-6.4-5.61-7.83A3.58,3.58,0,0,0,93,87a10.16,10.16,0,0,1-2.85.84,7.89,7.89,0,0,1-2.65-.2,16.11,16.11,0,0,1-2.66-1.16c-1.1-.51-2.3.8-1.35,1.75,2,2,5.77,2.41,8.44,1.68.73-.2,1.39-.58,2.1-.82s1.61.39,2.28.79a7.05,7.05,0,0,1,3.1,2.94c.46,1.11.38,2.56-.87,3.1s-2.56.22-3.78.29A5.67,5.67,0,0,0,91,97.68a2.11,2.11,0,0,1-1.51.82,2.68,2.68,0,0,1-1.59-1.12,16.3,16.3,0,0,1-2.32-5.27c-.32-1-.59-2-.83-3s-.63-2-.87-3a.39.39,0,0,0-.76.1Z"/><path d="M58.18,61a18,18,0,0,1,2.73-6.42,2.78,2.78,0,0,1,1-1c1.13-.53,2.49.65,2.52,1.89a4,4,0,0,1-1.83,3.09c-1,.74-2.15,1.26-3.09,2.08"/><path d="M58.75,61.11a35.23,35.23,0,0,1,1.35-3.59A17.6,17.6,0,0,1,61,55.81a6.81,6.81,0,0,1,1-1.38,1,1,0,0,1,.24-.17s.23-.07.14-.06a.72.72,0,0,1,.42.07,1.34,1.34,0,0,1,.71.81,1.59,1.59,0,0,1-.12,1.14,3.8,3.8,0,0,1-1,1.24c-1,.95-2.44,1.51-3.54,2.44a.91.91,0,0,0,0,1.29.92.92,0,0,0,1.29,0c1.14-1,2.57-1.52,3.66-2.56a4.1,4.1,0,0,0,1.38-4A2.85,2.85,0,0,0,62,52.59a2.94,2.94,0,0,0-1.7,1.34,17.28,17.28,0,0,0-1.17,2,14,14,0,0,0-1.58,5c-.07.7,1,.76,1.16.16Z"/><path d="M81.82,52.53a7.88,7.88,0,0,0-4-.88,2.4,2.4,0,0,0-1.79.71,1.89,1.89,0,0,0,.55,2.53,5.52,5.52,0,0,0,2.72.85c1.1.14,2.38.23,3.17-.56s.07-2.61-1-2.18"/><path d="M82.16,52.18c-.19-.16-.29-.38-.5-.52a3.4,3.4,0,0,0-.48-.29,7.72,7.72,0,0,0-1.39-.51A6.73,6.73,0,0,0,77,50.77a2.69,2.69,0,0,0-2.1,1.62,2.82,2.82,0,0,0,.27,2.38c.91,1.58,2.85,1.86,4.51,2s3.58-.11,4.09-1.85a2.64,2.64,0,0,0-.39-2.23c-.59-.81-2-1.31-2.54-.14a.8.8,0,0,0,.28,1.08l.08,0c.16.06-.17-.11-.07-.06s.21.18.35.23a1,1,0,0,0,.21.07c.2,0-.19-.13,0,0-.06,0-.13-.16-.08,0s.17.15,0,0,.1.17.08.17-.07-.25,0-.07l0,.13c.06.19,0-.06,0-.07a.56.56,0,0,0,0,.13.66.66,0,0,1,0,.14c0,.21.07-.21,0,0s.08-.08,0,.06.05,0,.05,0-.12.12-.15.15.13-.06,0,0a.83.83,0,0,0-.16.09s-.2.09-.07,0-.15,0-.18,0l-.17,0s-.23,0-.09,0h-.33a6.12,6.12,0,0,1-.86,0l-.38,0s-.41,0-.23,0c-.31-.05-.62-.1-.92-.17l-.45-.13-.11,0-.11,0a2.55,2.55,0,0,1-.39-.24s.11.11,0,0L77,53.87c.13.14-.07-.11-.1-.16l-.08-.16s.06.17,0,0-.08-.37-.06-.15c0-.06,0-.11,0-.17s0-.22,0-.07c0,0,0-.1,0-.16,0,.17,0,.07,0,0s-.07.06,0,0l.08-.08.18-.1.15-.05.23-.06.11,0,.21,0,.5,0c.38,0,.76,0,1.14.08a8.79,8.79,0,0,1,1,.15,2.31,2.31,0,0,0,1.22.09h-.3l.33.06c.44.1.85-.46.47-.81Z"/><path d="M96.94,102.36a3.49,3.49,0,0,0-.3,3.23,4.9,4.9,0,0,0,2.14,2.6,3.93,3.93,0,0,0,3.38.22,4.78,4.78,0,0,0,2.48-2.35,4.88,4.88,0,0,0,.5-1.91,3.05,3.05,0,0,0-.57-2.08.83.83,0,0,0-1-.13.86.86,0,0,0-.38.93c0,.21.13.41.18.62s.06.33,0,.17a1.83,1.83,0,0,1,0,.33c0,.1,0,.21,0,.32s0,0,0,0l0,.16a4.54,4.54,0,0,1-.18.63c0,.16,0,.07,0,0a1,1,0,0,0-.07.15,2.69,2.69,0,0,1-.16.29,1.67,1.67,0,0,1-.18.28l-.09.13c0-.07,0,0,0,0a4,4,0,0,1-.46.46s-.12.1,0,0l-.13.1-.31.19a1.28,1.28,0,0,1-.44.18,1.57,1.57,0,0,1-.31.08s-.16,0,0,0l-.21,0h-.29l-.16,0c.13,0,0,0,0,0-.19,0-.49-.13-.59-.17a3.28,3.28,0,0,1-.9-.62,3.09,3.09,0,0,1-.7-1,1,1,0,0,1-.1-.23c-.05-.11-.08-.23-.12-.34s-.06-.24-.08-.36,0-.22,0-.24a3.92,3.92,0,0,1,.11-1.37.53.53,0,0,0-1-.41Z"/></g></g></svg>