<svg xmlns="http://www.w3.org/2000/svg" viewBox="0 0 139.42 124.11"><defs><style>.cls-1{fill:#fff;stroke:#000;stroke-miterlimit:10;stroke-width:3px;}</style></defs><g id="Camada_2" data-name="Camada 2"><g id="Camada_2-2" data-name="Camada 2"><path class="cls-1" d="M1.76,99.38,6.41,88S75.55,11.28,96,1.67l41.53,21.64s-30.08,74.75-30.08,86.75c0,0,1.45,6.32-2.28,11.66S9.09,106.7,1.76,99.38Z"/><path d="M6.25,88.54c2.27,2.12,5.41,3.4,8.24,4.59a73.71,73.71,0,0,0,9,3.13C29.88,98,36.43,99.21,43,100.38c13.56,2.44,27.19,4.58,40.6,7.8A199.13,199.13,0,0,1,106,114.89c1.57.58,2.25-1.93.69-2.51-12.92-4.78-26.39-7.73-39.91-10.23C53.54,99.71,40.13,98,27.07,94.82A96.84,96.84,0,0,1,16.8,91.76c-1.68-.61-3.34-1.3-5-2.07s-3.2-1.7-4.9-2.33c-.67-.25-1.19.72-.69,1.18Z"/><path d="M88.3,97.23c1.17-2.13,2.51-4.17,3.66-6.33,1.08-2,2.1-4,3.15-6.07l3.14-6.07a70.1,70.1,0,0,0,3.25-6.26c.35-.89-1-1.34-1.48-.62A58.17,58.17,0,0,0,96.9,78q-1.61,3.16-3.17,6.34c-1,2-2,4.1-3,6.18S89,94.92,88.09,97.11c-.06.14.13.27.21.12Z"/><path d="M101.41,72.54a15.75,15.75,0,0,0,2.42.94c.76.26,1.54.49,2.32.69s1.58.37,2.37.52a8.12,8.12,0,0,0,2.68.22,1,1,0,0,0,.73-1,1,1,0,0,0-.73-1,5.46,5.46,0,0,0-1.23-.22l-1.06-.16c-.77-.13-1.54-.28-2.29-.46s-1.51-.39-2.25-.63-1.46-.55-2.21-.77a1,1,0,0,0-.75,1.78Z"/><path d="M110.67,73.76c-1.74,1.35-3,3.77-4.08,5.63A54.24,54.24,0,0,0,103.23,86a61.53,61.53,0,0,0-2.39,6.58c-.34,1.16-.65,2.32-.92,3.49-.22,1-.74,2.09-.19,3a.51.51,0,0,0,.69.18c.81-.6.77-1.57,1-2.52s.53-2.2.85-3.29a58.42,58.42,0,0,1,2.52-7,65.51,65.51,0,0,1,3.16-6.26c.56-1,1.14-2,1.76-2.9a18.18,18.18,0,0,0,1.83-3c.21-.54-.51-.77-.86-.5Z"/><path d="M88.15,97A5.93,5.93,0,0,0,89.37,98a12.8,12.8,0,0,0,1.3.61,23.27,23.27,0,0,0,9.37,1.94,1.12,1.12,0,0,0,0-2.23,22.75,22.75,0,0,1-5.75-.64,24.31,24.31,0,0,1-2.75-.86c-.45-.17-.88-.37-1.33-.54a7.54,7.54,0,0,0-1.47-.37.61.61,0,0,0-.59,1Z"/><path d="M92.68,94.44c-.59-.51.84-.84,1.07-.92a1.29,1.29,0,0,0,.64-.41,2.12,2.12,0,0,0,.26-1.6A1.63,1.63,0,0,1,95,90.1a5.29,5.29,0,0,0,.7-.72c.47-.73.15-1.66.56-2.41a12.6,12.6,0,0,1,1.41-1.61,3.83,3.83,0,0,0,.6-2.09,7.52,7.52,0,0,1,1.61-2.94,11,11,0,0,0,1.56-2.7c0-.16-.15-.24-.26-.15A11.4,11.4,0,0,0,99,80.22a7.44,7.44,0,0,0-1.45,2.64,6.34,6.34,0,0,1-.29,1.8,5.21,5.21,0,0,1-.92,1.07,3.24,3.24,0,0,0-1,1.71c-.09.62,0,1.25-.38,1.77-.25.31-.61.51-.8.87-.37.68,0,1.38-.11,2.09-.11,1.13-1.24.7-1.77,1.43a.64.64,0,0,0,.2,1c.11,0,.25-.09.14-.18Z"/><path d="M96.26,95.42c-.41-.12.41-1.18.51-1.34.27-.44.49-.94.73-1.41s.48-1,.71-1.43c.11-.24.24-.48.33-.73a5,5,0,0,0,.16-.77.24.24,0,0,0-.44-.19,6.35,6.35,0,0,0-.54.74c-.13.28-.25.56-.37.84-.23.52-.43,1.05-.64,1.57a13.31,13.31,0,0,0-.58,1.6A1.62,1.62,0,0,0,96,95c0,.17.16.35.18.52s.17,0,.06,0Z"/><path d="M8.2,89.05a95.23,95.23,0,0,0,10.43-5.5q5.22-2.86,10.47-5.67,10.18-5.44,20.62-10.42a335.07,335.07,0,0,1,42-16.84,251.5,251.5,0,0,1,24.46-6.47c1.65-.35,1-2.86-.69-2.52-29.83,6.24-58,18.44-84.76,32.85-4,2.16-7.95,4.36-11.86,6.65s-7.82,4.29-11.18,7.11c-.36.31,0,1,.47.81Z"/><path d="M95.06,3.23a21.19,21.19,0,0,0,2.38,5.08q1.38,2.49,2.9,4.9c2,3.28,4.24,6.49,6.22,9.83,3.85,6.5,7.07,13.29,8.2,20.81.17,1.11,2.09.86,2-.26-.86-7.48-4.3-14.37-8.24-20.67-2.09-3.34-4.28-6.62-6.4-10C101,11.31,100,9.64,99,7.94a48.86,48.86,0,0,0-3-5.1.51.51,0,0,0-.93.39Z"/><path d="M88.18,47.17c.74-.09,1.48-.14,2.21-.25a18.3,18.3,0,0,0,2.18-.55,21.14,21.14,0,0,0,4.11-1.79c.21-.12.07-.5-.17-.4-1.36.53-2.76,1-4.14,1.46-.69.23-1.39.42-2.07.65s-1.42.5-2.14.68c-.11,0-.09.21,0,.2Z"/><path d="M37.6,69.06a187.57,187.57,0,0,1,18.07-9.27q4.8-2.15,9.74-4c3-1.15,6.21-2,9.17-3.32.27-.12.07-.5-.18-.44a61.83,61.83,0,0,0-9.61,3.27q-4.65,1.81-9.22,3.88a172.4,172.4,0,0,0-18.12,9.61.15.15,0,0,0,.15.27Z"/><path d="M27.75,100.71l1.35.54c.06,0,.09-.07,0-.09l-1.35-.54c-.06,0-.08.07,0,.09Z"/><path d="M33.39,102.37a42.34,42.34,0,0,0,4.48,1.94q1.18.45,2.4.81l1.13.31a4.18,4.18,0,0,0,1.21.23c.17,0,.29-.28.1-.36a4.66,4.66,0,0,0-1.12-.24l-1.24-.25c-.77-.17-1.53-.37-2.28-.59a29.05,29.05,0,0,1-4.68-1.86s0,0,0,0Z"/><path d="M21,99.2c3.34,1.28,6.72,2.51,10.15,3.54q2.52.75,5.07,1.43a24.25,24.25,0,0,0,5,1c.25,0,.38-.39.13-.5a34.85,34.85,0,0,0-4.94-1.41q-2.55-.66-5.09-1.39c-3.43-1-6.86-2-10.24-3.17-.29-.1-.4.34-.13.45Z"/><path d="M68.76,111.16l1.89.26s0,0,0,0l-1.88-.28s0,0,0,0Z"/><path d="M74.35,112.26q2.28.63,4.62,1c.72.12,1.45.2,2.18.27a14.34,14.34,0,0,0,2.45.07c.15,0,.21-.25,0-.29-.73-.18-1.5-.27-2.23-.38s-1.56-.24-2.34-.36c-1.54-.22-3.07-.51-4.59-.85a.25.25,0,0,0-.13.49Z"/><path d="M114.42,44.13a.65.65,0,0,0,.4.29,4.64,4.64,0,0,0,.53.16,11.22,11.22,0,0,0,1.16.19,5.88,5.88,0,0,0,1.11.1,5.23,5.23,0,0,1,.56,0,1.37,1.37,0,0,0,.57,0,.36.36,0,0,0,.08-.64,1.29,1.29,0,0,0-.54-.15,3.29,3.29,0,0,1-.54-.14,6.48,6.48,0,0,0-1.16-.16,10.54,10.54,0,0,0-1.12-.08l-.58,0a.7.7,0,0,0-.43.19.2.2,0,0,0,0,.24Z"/><path d="M118.78,44.44c-.62-.77-1.33-1.47-1.92-2.26-.3-.39-.6-.79-.88-1.18a4.51,4.51,0,0,0-.44-.61c-.17-.19-.35-.36-.53-.54a.19.19,0,0,0-.32.19c.08.23.16.47.25.7a3.09,3.09,0,0,0,.41.67,12.75,12.75,0,0,0,.94,1.25,13.29,13.29,0,0,0,2.18,2.19c.25.18.48-.2.31-.41Z"/><path d="M118.36,43.89c-.65-1.18-1.27-2.38-1.86-3.59a37.84,37.84,0,0,0-1.77-3.62.13.13,0,0,0-.24.1,20,20,0,0,0,1.6,3.68c.62,1.22,1.27,2.43,1.94,3.62.12.21.44,0,.33-.19Z"/><path d="M117.5,42.55a9.32,9.32,0,0,0-.33-.88l-.09-.19a.84.84,0,0,0-.18-.2s0,0,0,0l-.06-.11-.09-.2a.25.25,0,0,0-.46.19l0,.22,0,.09,0,.06s0,0,0,0a1.05,1.05,0,0,0,0,.47,3,3,0,0,0,.13.39l.14.42a.43.43,0,0,0,.82-.23Z"/><path d="M116.21,44.16a17.85,17.85,0,0,0-6.63-.59c-1.11.07-2.21.17-3.31.31a14.52,14.52,0,0,0-3.33.7.21.21,0,0,0,0,.41,29.8,29.8,0,0,0,3.28-.26c1.15-.11,2.29-.18,3.44-.21a56.36,56.36,0,0,0,6.5-.32s0,0,0,0Z"/><path d="M116.75,44.09a25.82,25.82,0,0,0-3.29.07,18.86,18.86,0,0,0-3.26.4c-.35.09-.25.6.09.62a19.08,19.08,0,0,0,3.29-.21,25.13,25.13,0,0,0,3.22-.53.18.18,0,0,0,0-.35Z"/></g></g></svg>