<svg xmlns="http://www.w3.org/2000/svg" viewBox="0 0 126.92 91.76"><defs><style>.cls-1{fill:#fff;stroke:#000;stroke-miterlimit:10;stroke-width:3px;}</style></defs><g id="Camada_2" data-name="Camada 2"><g id="Camada_4" data-name="Camada 4"><path class="cls-1" d="M2.83,90.25s89.11-.34,119.69-33.17c0,0-9,2-20.23-5.4-2.78-1.85.26-4.77-5.16-9.82-6-5.61,1.85-34.09-.24-38.18-2.78-5.43-11.42,1-15.1.8s-48.68,7.77-53,6.9c0,0,8.44,7.9,3.39,10.38,0,0-6.18,2.14-2.12,10.81s.55,37-21.19,44.32A41.43,41.43,0,0,1,2.83,90.25Z"/><path d="M27.55,67.31a149.38,149.38,0,0,0,53-15.37q3.54-1.8,7-3.78C89.69,47,92,45.81,93.51,43.81c.28-.4-.19-.82-.58-.75-2.16.42-4,1.77-5.9,2.85s-4,2.25-6,3.31Q75,52.39,68.69,55.08a174.3,174.3,0,0,1-26.08,8.81Q35.13,65.77,27.5,67c-.2,0-.15.37.05.35Z"/><path d="M24.6,74.63a44,44,0,0,0,8.1-.47c2.61-.31,5.23-.64,7.84-1q8-1.07,15.91-2.63a139,139,0,0,0,30.18-9.2,89.64,89.64,0,0,0,15.53-8.92c1.14-.83,0-2.74-1.11-1.91C83.84,63,62.91,67.9,42.24,71q-4.45.67-8.92,1.27a52.71,52.71,0,0,0-8.83,1.58.41.41,0,0,0,.11.8Z"/><path d="M93.09,44.19c.91-.19,1.75-.62,2.64-.86l.58-.13c.12,0,.12,0,0,0l.17,0h.27c.06,0,.26,0,.08,0a1.94,1.94,0,0,1,.33.07s.26.12.09,0l.46.2a1,1,0,0,0,1.07-.43,1,1,0,0,0-.15-1.15,3.38,3.38,0,0,0-3.19-.42,12.12,12.12,0,0,0-1.31.49,11,11,0,0,0-1.67.76.79.79,0,0,0-.33,1,.81.81,0,0,0,.94.47Z"/><path d="M93.91,42.44c-.4.2-.83.31-1.24.49a10.7,10.7,0,0,0-1.16.61C90.75,44,90,44.45,89.3,45l1.06,1.38A13.39,13.39,0,0,1,94.1,43.7a12,12,0,0,1,2-.74,11.86,11.86,0,0,1,1.18-.27,2.3,2.3,0,0,0,1.25-.48.83.83,0,0,0-.17-1.29c-.76-.42-1.9,0-2.7.2a14.44,14.44,0,0,0-2.47.94,14,14,0,0,0-4.1,3,.88.88,0,0,0-.07,1.15.87.87,0,0,0,1.13.22c.75-.54,1.49-1.08,2.18-1.68.33-.29.66-.57,1-.88s.58-.72.92-1-.07-.57-.33-.43Z"/><path d="M39.65,16.7a67.09,67.09,0,0,0,11,0,98.39,98.39,0,0,0,10.8-1.63A166.08,166.08,0,0,0,83,9.1a.43.43,0,0,0-.23-.83C75.69,10,68.72,12.21,61.56,13.71a97.83,97.83,0,0,1-21.91,2.35c-.41,0-.4.61,0,.64Z"/><path d="M84.3,7.73,85,7.36s0,0,0,0l-.72.35s0,.06,0,0Z"/><path d="M85.74,6.72a.05.05,0,1,0,0-.1.05.05,0,0,0,0,.1Z"/><path d="M13.48,85c.82,0,1.58.34,2.4.42s1.61.07,2.41.09c1.52,0,3,0,4.56,0,3.13-.07,6.25-.3,9.36-.61a101.39,101.39,0,0,0,18.06-3.28.27.27,0,0,0-.14-.52,184.64,184.64,0,0,1-18.4,2.87c-2.95.26-5.91.41-8.88.49-1.52,0-3,.08-4.56.08-.8,0-1.61,0-2.41,0s-1.6.26-2.4.24c-.13,0-.13.2,0,.21Z"/><path d="M72.79,77.82A93.1,93.1,0,0,0,82.74,75C85.89,73.88,89,72.6,92,71.21s6.22-3,9.25-4.66,6-3.13,8.49-5.34c.42-.38-.12-1-.58-.74-3,1.39-5.66,3.44-8.5,5.07s-5.94,3.21-9,4.64a180.47,180.47,0,0,1-18.91,7.57s0,.09,0,.07Z"/><path d="M75.66,61.85c3.18-.08,6-1.57,8.78-3.05q2.18-1.19,4.25-2.51a17,17,0,0,0,3.86-3,.23.23,0,0,0-.29-.36,29,29,0,0,0-3.89,2.48q-1.92,1.29-3.93,2.44c-2.7,1.55-5.61,3.24-8.78,3.45-.33,0-.34.54,0,.53Z"/><path d="M87.81,51.18a13.23,13.23,0,0,1,1.8-1.12,20,20,0,0,1,1.77-.94A11.76,11.76,0,0,1,95.3,48l-.37-.21a6.86,6.86,0,0,0,1.31,2.31.38.38,0,0,0,.64-.37,6.71,6.71,0,0,0-1.21-2.38.43.43,0,0,0-.48-.19,17.87,17.87,0,0,0-4.1,1.33,11.36,11.36,0,0,0-1.77,1.09,15.32,15.32,0,0,0-1.57,1.55s0,.09.06.06Z"/><path d="M16.34,74.36l0,.1a.77.77,0,0,0,.72.55A50.59,50.59,0,0,0,27,75a31.15,31.15,0,0,0,9.58-1.76.43.43,0,0,0-.11-.84,82.26,82.26,0,0,0-9.66.7c-3.24.29-6.5.18-9.73.46a.78.78,0,0,0-.72.55.47.47,0,0,0,0,.29Z"/><path d="M25.12,66.67c.45.49.81.46,1.44.47h1.71c1.13,0,2.27-.08,3.4-.18,2.16-.19,4.45-.31,6.39-1.35.21-.11.08-.38-.11-.41-2.17-.28-4.36.2-6.52.35-1.05.08-2.11.14-3.16.18-.57,0-1.14,0-1.71,0a1.65,1.65,0,0,0-1.44.45.32.32,0,0,0,0,.45Z"/><path d="M26.61,68.6c-.15.15-.38.21-.54.36s-.33.33-.49.5c-.31.33-.62.66-.9,1a.47.47,0,0,0,.21.78,17.63,17.63,0,0,0,3.77.33q.94,0,1.89-.15a5,5,0,0,0,.94-.17,8.78,8.78,0,0,0,.79-.44.26.26,0,0,0-.13-.47c-.31,0-.62-.08-.93-.06a7.58,7.58,0,0,0-.81.13,14.59,14.59,0,0,1-1.75.16,16.09,16.09,0,0,1-3.53-.23l.21.78c.28-.36.55-.74.82-1.12l.35-.53c.15-.23.16-.49.3-.72s-.09-.25-.2-.15Z"/><path d="M40,67v0a.29.29,0,0,0,.2.2,8.54,8.54,0,0,0,2.85-.1c1-.12,2-.27,3-.49A27,27,0,0,0,49,65.9a10.52,10.52,0,0,0,2.73-1.17c.16-.11.14-.45-.11-.42a20.7,20.7,0,0,0-2.75.74c-.93.25-1.86.51-2.8.71s-1.9.38-2.85.52a17.06,17.06,0,0,0-3,.43A.3.3,0,0,0,40,67v0Z"/></g></g></svg>