<svg xmlns="http://www.w3.org/2000/svg" viewBox="0 0 224.89 192.36"><defs><style>path{fill:#007fff}.cls-1{fill:#fff;stroke:#007fff;stroke-miterlimit:10;stroke-width:3px;}</style></defs><g id="Camada_2" data-name="Camada 2"><g id="Camada_6" data-name="Camada 6"><path class="cls-1" d="M21,72.84S32,89.51,35.53,105.39c0,0,1.85-16.12,11.21-23.12,0,0-1.42,14.74,5,24.87l3.07-18.91s65.38,46.06,83.85,52.05c0,0,11-1.41,8.23,10.79l-2.12,27.4s8.22-6.19,10.79-10.69c0,0-.6,19.17-6.52,22.83,0,0,5,2.54,14.54-8.4,0,0-.53-6.09,4-9s15.93-24.61,4.73-38.76c0,0-5.34-8.57,2.73-19.87,0,0,9-31.36,30.56-26.83l11.49-.11s-31.2-12.11-25.59-31.73a36.49,36.49,0,0,1,10.05-19.32s-8.9-24.13-26.17-31.72c0,0-9.22-7.28-19.24,6.07,0,0-7.92.72-6-8,0,0-53.86,30.22-108.46,21.27,0,0-10.66,25.36-37.63,28.71,0,0,7.39,5.15,9.71,11.24L24.69,49.89S35,49,33.56,57.14Z"/><path d="M37.73,102.57A100.67,100.67,0,0,1,34.52,90a66.7,66.7,0,0,1-.84-13,65.56,65.56,0,0,1,5.89-25.21,61.48,61.48,0,0,1,7.67-12.57c1.07-1.34-.83-3.25-1.9-1.9A66.6,66.6,0,0,0,32,88.53a48.35,48.35,0,0,0,4.43,14.59.71.71,0,0,0,1.3-.55Z"/><path d="M46.58,37.8a4.61,4.61,0,0,0,1.64,1.46l1.9,1.28,3.58,2.39,7.41,4.91c1.35.89,2.62-1.29,1.27-2.16l-7.49-4.79-3.62-2.31c-1.22-.77-2.48-1.89-3.94-2.08-.67-.09-1,.79-.75,1.3Z"/><path d="M61.55,45.81c-1.39.89-1.78,3-2.29,4.49-.67,1.91-1.27,3.85-1.85,5.79-1.15,3.88-2.16,7.81-3,11.78a149.27,149.27,0,0,0-2.86,23.74q-.14,3.39-.12,6.78c0,1.09,0,2.18.07,3.27a14.06,14.06,0,0,0,.12,1.72,8.34,8.34,0,0,0,.7,1.7.55.55,0,0,0,1.06,0A8.46,8.46,0,0,0,54,102.6c0-1,0-2,0-3,0-2,0-4,.05-6.08q.16-5.83.78-11.66A165,165,0,0,1,59,58.48q.84-3.28,1.82-6.53c.32-1,.64-2.09,1-3.13a4.52,4.52,0,0,0,.3-2.78.4.4,0,0,0-.57-.23Z"/><path d="M147.25,129.9c-.65,1-.29,2.33-.22,3.45.08,1.36.13,2.71.16,4.06,0,2.71,0,5.43-.18,8.13s-.44,5.34-.83,8c-.19,1.29-.44,2.58-.57,3.87-.15,1.51-.09,3-.34,4.54a.49.49,0,0,0,.95.26c.44-1.37,1.07-2.67,1.5-4a28,28,0,0,0,.84-4c.43-2.79.72-5.6.89-8.41a83.46,83.46,0,0,0,.08-8.37c-.06-1.35-.15-2.7-.27-4.06-.1-1.16,0-2.73-.89-3.59a.72.72,0,0,0-1.12.14Z"/><path d="M149.52,130a2.75,2.75,0,0,0,2.45.73c1.21-.07,2.42-.19,3.64-.21a22.26,22.26,0,0,1,6.71.66,12,12,0,0,1,5.06,2.85,11.45,11.45,0,0,1,2.73,5.31,51.15,51.15,0,0,1,2.09,13.73A31.7,31.7,0,0,1,169,165.91a69.84,69.84,0,0,1-3.43,6.38c-1.14,1.91-2.89,4.22-2.94,6.53a.62.62,0,0,0,.92.52c2-.94,3.44-3.47,4.56-5.3a69.36,69.36,0,0,0,3.62-6.53,35.12,35.12,0,0,0,3.73-14,51.14,51.14,0,0,0-2.21-15.28,13.66,13.66,0,0,0-8.61-9.65,20,20,0,0,0-7.8-1.07,37.66,37.66,0,0,0-4.49.53c-1.14.19-2.43.38-2.91,1.57a.36.36,0,0,0,.09.36Z"/><path d="M149.94,131.07a1.92,1.92,0,0,1,.25-.12h-1.06a1.13,1.13,0,0,0,1,.07l.26-.11-.26.11a1.78,1.78,0,0,1,.5-.14l-.29,0a1.75,1.75,0,0,1,.56,0l-.3,0a2.17,2.17,0,0,1,.5.13l-.27-.11.18.09a1.15,1.15,0,0,0,1.16,0l0,0-.53.14a1.29,1.29,0,0,0,.39,0,1,1,0,0,0,.7-.91,1.44,1.44,0,0,0-.19-.63l.15.53V130a1.13,1.13,0,0,0-.56-1,3.12,3.12,0,0,0-1.61-.36,3.2,3.2,0,0,0-.81.14,4.25,4.25,0,0,0-.49.21,1.16,1.16,0,0,0-.65,1l.3-.74-.2.19a1,1,0,0,0-.07,1.32,1,1,0,0,0,1.29.25Z"/><path d="M58.18,56.63c1.77,1.48,4,2.17,6.15,3l6.92,2.87,13.87,5.64Q99,73.82,112.87,79.39c9,3.65,18.06,7.45,27.21,10.87a85.77,85.77,0,0,0,13.18,4.06c4,.78,8.26,1,12.09-.54A11.65,11.65,0,0,0,172.28,86c.91-3.27.3-7-2.43-9.21-1.33-1.08-3.25.81-1.9,1.9,2.21,1.79,2.44,4.61,1.57,7.18a9.15,9.15,0,0,1-6.61,5.89c-3.74,1-7.73.35-11.41-.6A115.32,115.32,0,0,1,139,87c-17.22-6.59-34.23-13.71-51.36-20.49L73,60.76c-2.39-.95-4.79-1.88-7.19-2.81s-4.72-2.16-7.24-2.33a.6.6,0,0,0-.42,1Z"/><path d="M42.87,33.63C51.09,37.29,59.75,40,68.24,43S85.5,49,94.14,51.91Q120,60.79,145.88,69.84c4.58,1.6,9.18,3.15,13.72,4.83A31.6,31.6,0,0,1,170.45,81a1.16,1.16,0,0,0,1.64-1.64c-2.27-2.89-5.67-4.65-9-6-3.79-1.59-7.73-2.84-11.6-4.2q-13-4.56-26.09-9.08c-17.49-6-35-12.1-52.52-18-4.88-1.63-9.78-3.21-14.67-4.79s-9.94-3.22-15-4.41c-.45-.11-.8.58-.33.78Z"/><path d="M154.55,93.1a0,0,0,1,0,0,0,0,0,0,1,0,0,0Z"/><path d="M154.55,93.67a.05.05,0,1,0,0-.1.05.05,0,0,0,0,.1Z"/><path d="M152.55,92.74c1.27,2.81,5.94,2.49,8.42,2.66l6.46.46a15.51,15.51,0,0,0,5.92-.26c3-1,4.87-3.62,6-6.39a15.43,15.43,0,0,0,.89-10.51c-.92-2.88-3.58-6.74-7-6.6-.72,0-1.34,1.06-.66,1.6a22,22,0,0,1,3.5,2.72,8.87,8.87,0,0,1,2,4.34,14,14,0,0,1-2.8,10.53c-2.67,3.26-7.12,2.25-10.85,2.12-2.16-.08-4.31-.17-6.47-.22a9,9,0,0,1-4.8-1.08c-.42-.25-.8.24-.63.63Z"/><path d="M174.48,94.88a35.73,35.73,0,0,0,5.63-4.57c1.93-1.72,3.84-3.46,5.76-5.19,3.77-3.42,7.5-6.89,11.25-10.33,1.18-1.07-.58-2.83-1.74-1.74-3.71,3.49-7.43,7-11.12,10.46-1.81,1.73-3.63,3.46-5.43,5.2a37.31,37.31,0,0,0-5.09,5.43c-.32.46.29,1,.74.74Z"/><path d="M179,70.34c.57,0,.95-.45,1.35-.81s.89-.75,1.32-1.14c.88-.81,1.77-1.61,2.66-2.4,1.78-1.56,3.56-3.09,5.39-4.58a.94.94,0,0,0-1.32-1.33c-1.81,1.51-3.59,3.06-5.31,4.66-.85.8-1.69,1.6-2.52,2.41-.42.41-.81.84-1.2,1.26s-.87.82-.89,1.41a.52.52,0,0,0,.52.52Z"/><path d="M43.36,29.86c1.94.51,3.82,1.17,5.79,1.63s4.05,1,6.07,1.52c3.88,1,7.76,2.08,11.61,3.22,7.87,2.33,15.62,5,23.38,7.69,15.75,5.39,31.56,10.61,47.3,16,9,3.09,18,6.2,27,9.26,1.18.4,1.69-1.46.51-1.87-16-5.46-32-10.82-48-16.33C101.46,45.62,85.85,40.26,70,35.6c-4.39-1.29-8.8-2.54-13.25-3.6-2.27-.55-4.54-1.05-6.82-1.53-1.1-.23-2.21-.46-3.32-.64s-2.14-.15-3.21-.29c-.18,0-.22.28,0,.32Z"/><path d="M43.42,32.05a9.43,9.43,0,0,0-2.84-.46,14.93,14.93,0,0,0-2.91.18,1.05,1.05,0,0,0-.65.5,1.14,1.14,0,0,0-.11.83A6,6,0,0,0,39.8,37a1.84,1.84,0,0,0,1.81.3,1.08,1.08,0,0,0,.17-1.77,2.68,2.68,0,0,0-.57-.32l.08,0-.15-.07c-.16-.08-.33-.17-.49-.27l-.19-.14c-.23-.16.08.08-.07,0s-.28-.25-.41-.39l-.21-.23-.08-.1c-.1-.11.11.16,0,0s-.22-.33-.32-.51l-.15-.28a1.17,1.17,0,0,0-.05-.11c-.06-.12.07.2,0,0a6.13,6.13,0,0,1-.18-.61l-.76,1.34.31,0,.13,0,.63-.06c.43,0,.87-.06,1.31-.06.86,0,1.7.13,2.55.14a.9.9,0,0,0,.89-.78.92.92,0,0,0-.65-1Z"/><path d="M43.55,32l-.09.22a.85.85,0,0,0,.23.85,9,9,0,0,0,2.18,1.64,7.22,7.22,0,0,0,1.31.57l.6.17a4,4,0,0,0,.5.06,1,1,0,0,0,.65-.27l-.34.2h.07a1.37,1.37,0,0,0,.28-.05.64.64,0,0,0,.15-1.15c-.1-.08-.22-.12-.31-.19l.27.27a.84.84,0,0,0-.52-.42c.09,0,.08,0,0,0l-.28-.11c-.19-.07-.39-.13-.58-.21l-.29-.11-.07,0-.57-.26a8.5,8.5,0,0,1-1-.61s-.28-.21-.13-.09l-.24-.2a6,6,0,0,1-.46-.42.85.85,0,0,0-.84-.22c-.24.08-.42.13-.52.38Z"/><path d="M38.14,33c2.8-1,6-.06,8.55,1.23,1.4.72,2.75,1.55,4.19,2.18a12.69,12.69,0,0,0,2.16.79,4.78,4.78,0,0,0,2.06-.08.44.44,0,0,0,.1-.79c-1.39-.85-2.88-1.46-4.32-2.24s-2.9-1.62-4.42-2.27A13.4,13.4,0,0,0,42,30.69a7.28,7.28,0,0,0-2.28.17,5.64,5.64,0,0,0-2,1.13c-.46.36-.23,1.29.44,1.05Z"/><path d="M40.19,37.75a3.71,3.71,0,0,0-1.4-.67l.26.2a.83.83,0,0,0-.62-.4,6,6,0,0,0-.61-.14l-.59-.05a4.79,4.79,0,0,0-.54,0,7,7,0,0,0-2.44.68.94.94,0,0,0,0,1.61l2.63,1.79,1.32.9c.51.34,1.09.88,1.75.63a.82.82,0,0,0,.56-.75c0-.77-.69-1.1-1.25-1.48l-1.37-.91-2.7-1.79V39c.16-.09.33-.17.49-.24l.14-.07.14-.06a7.12,7.12,0,0,1,1-.29c.3-.06.6-.15.86-.18s.32-.07.5-.08a1,1,0,0,0,.67-.25l-.31.13a4.19,4.19,0,0,1,.71,0,4,4,0,0,0,.69.06.15.15,0,0,0,.11-.26Z"/><path d="M39.46,42A5.06,5.06,0,0,0,34,40.75a.89.89,0,0,0-.64.85,4.14,4.14,0,0,0,1.13,2.61,3,3,0,0,0,2.61,1.11l-.4-1.47a2,2,0,0,0-.58.21l.38-.05a2.79,2.79,0,0,1-.33-.19,3.17,3.17,0,0,0-.51-.2c-.37-.12-.76-.2-1.14-.29-.73-.19-1.46-.36-2.2-.52-1.17-.26-3-.82-3.52.75-.36,1.1.49,2.26,1.32,2.89a11.07,11.07,0,0,0,1.77,1l2,1.07,2.25,1.19a5.1,5.1,0,0,0,2.49.86.63.63,0,0,0,.54-.94,4.9,4.9,0,0,0-2-1.52L35.05,47l-2.18-1.14a10.42,10.42,0,0,1-1.76-1,2.58,2.58,0,0,1-.49-.55s-.13-.23-.11-.17a1.33,1.33,0,0,1-.05-.19v0s-.09.21-.11.17.31,0,.2,0a6.72,6.72,0,0,1,1.09.19c.78.14,1.56.28,2.34.39l1.26.2a4.89,4.89,0,0,0,.54,0c.18,0,.39-.06.54,0L36,44.82a2.23,2.23,0,0,0,.5.42c.8.56,1.55-.75.76-1.31a8,8,0,0,1-1.53-1A2.9,2.9,0,0,1,35,41.36l-.4,1a5.79,5.79,0,0,1,4.51.06.26.26,0,0,0,.32-.41Z"/><path d="M59.47,52.39A14.69,14.69,0,0,0,63.53,54c1.42.47,2.85.92,4.27,1.4,2.92,1,5.82,2,8.71,3.06,5.86,2.15,11.77,4.37,17.52,6.81.32.14.61-.32.28-.49a183.64,183.64,0,0,0-17-7.5c-2.88-1.08-5.79-2.08-8.71-3-1.5-.49-3-1-4.52-1.4a14,14,0,0,0-4.47-1,.3.3,0,0,0-.15.56Z"/><path d="M59.34,48.41c4.7,2.19,9.69,3.8,14.51,5.7,2.4,1,4.79,1.92,7.18,2.89s5,2.41,7.65,3a.44.44,0,0,0,.34-.81c-2-1.37-4.7-2.16-7-3.09-2.46-1-4.94-2-7.42-2.93a141.85,141.85,0,0,0-15-5.33c-.36-.09-.62.45-.26.61Z"/><path d="M61.56,46.57a80.52,80.52,0,0,0,7.74,2.55c2.71.85,5.41,1.75,8.12,2.62,5.4,1.73,10.84,3.37,16.22,5.16.28.1.39-.33.12-.43-5.24-2-10.46-4-15.79-5.82-2.62-.88-5.25-1.69-7.89-2.51a65.34,65.34,0,0,0-8.2-2.32c-.42-.08-.78.55-.32.75Z"/><path d="M104.31,67c6.38,2.67,12.8,5.25,19.29,7.66,3.2,1.19,6.4,2.38,9.63,3.48s6.67,2,10,3.07c.3.09.42-.36.13-.47-3.21-1.18-6.37-2.52-9.58-3.7s-6.58-2.37-9.86-3.58q-9.72-3.6-19.37-7.35c-.56-.22-.78.66-.25.89Z"/><path d="M113.48,63.52c9.53,4.19,19.07,8.33,28.71,12.29.21.09.38-.29.16-.39-9.47-4.28-19-8.37-28.57-12.41-.35-.15-.65.36-.3.51Z"/><path d="M116.69,67.06c7.24,3,14.36,6.36,21.51,9.59.42.19.8-.41.37-.63-7-3.69-14.3-6.82-21.65-9.79-.52-.2-.73.62-.23.83Z"/><path d="M131.82,81c4,1.31,7.87,2.77,11.71,4.37s7.51,3.52,11.36,5.08c.43.17.65-.49.3-.73a59.3,59.3,0,0,0-11.12-5.5,98.13,98.13,0,0,0-12-4,.4.4,0,0,0-.21.77Z"/><path d="M147.93,78a49.35,49.35,0,0,1,6.23,1.68c1,.34,2,.71,3,1.11s2.13.76,3.17,1.23c.38.17.71-.36.33-.57a32.85,32.85,0,0,0-3-1.61c-1-.43-2-.8-3-1.14a42.51,42.51,0,0,0-6.5-1.59c-.57-.09-.83.78-.24.89Z"/><path d="M25.57,73.25l.33-1.35-1.64-.45c-.42,2.75,1,5.79,2.58,7.94.71,1,2.45.46,2.06-.87a22.8,22.8,0,0,0-3.51-7.15v1.24C27,70.4,28.66,68.19,30.27,66c.86-1.2-1.11-2.73-2.05-1.59A21.13,21.13,0,0,0,24,72.66c-.37,1.42,1.75,2.43,2.44,1L30.21,66l-2.54-.68c-.77,5.85-1.4,11.82.14,17.6.39,1.45,2.79,1.21,2.69-.36l-.78-11.34a1.37,1.37,0,0,0-2.73,0A37.62,37.62,0,0,0,30,88.75c.67,1.56,2.69.32,2.5-1-1.1-8-2.24-16.61,1.06-24.22l-2.5-1a127.2,127.2,0,0,0-1.48,22.32l2.69-.37A39.6,39.6,0,0,1,35,60.21c.71-1.58-1.43-2.92-2.36-1.38L27.6,67c-1.25,2-2.54,4.68-5,5.37A1.37,1.37,0,0,0,23.31,75c2.77-.78,4.47-3.08,5.91-5.42,1.93-3.12,3.83-6.25,5.74-9.37L32.6,58.83a42.78,42.78,0,0,0-2.93,26.28,1.37,1.37,0,0,0,2.68-.36,123.93,123.93,0,0,1,1.39-21.6c.21-1.37-1.83-2.6-2.5-1-3.64,8.39-2.55,17.53-1.34,26.33l2.5-1.06a34.73,34.73,0,0,1-2.68-16.14H27l.77,11.34,2.69-.37C29,76.66,29.7,70.93,30.4,65.33c.16-1.35-2-1.86-2.55-.69l-3.75,7.7,2.44,1a18.31,18.31,0,0,1,3.53-7.15L28,64.64c-1.59,2.23-3.17,4.48-4.74,6.73a1.26,1.26,0,0,0,.19,1.49,19.5,19.5,0,0,1,3.26,6.26L28.61,78a12.26,12.26,0,0,1-1.82-3.23c-.42-1.1-.55-2.24-.89-3.34a.85.85,0,0,0-1.64.45l.39,1.35a.48.48,0,0,0,.92,0Z"/><path d="M36,53.26c1.23-2.56-.7-5.49-3.34-6.08a1.18,1.18,0,0,0-1.31,1.71,9.31,9.31,0,0,0,3.61,3.83c1.27.76,2.26-.89,1.47-1.91a11.06,11.06,0,0,0-8.46-4.18A1.28,1.28,0,0,0,27.28,49l3.17,1.73c.87.48,2.32-.35,1.87-1.44a6.77,6.77,0,0,0-3.79-3.9,2.49,2.49,0,0,0-2.73.27c-.87.57-1.71,1.18-2.53,1.81a42,42,0,0,0-9,9.49l2.31,1.35a18.67,18.67,0,0,1,4.51-5l-1.84-1.84a36,36,0,0,1-7.09,7.38l2.25.59a9.83,9.83,0,0,0-4.24-6,1.36,1.36,0,0,0-2,1.17,3.93,3.93,0,0,0,4,3.73,1.36,1.36,0,0,0,1.34-1.35,11.31,11.31,0,0,0-1-3.43l-1.17,2a9.65,9.65,0,0,0,9-4.1c.84-1.17-.74-2.42-1.84-1.85a23.92,23.92,0,0,0-7.6,6.25c-.87,1.09.27,3.08,1.64,2.12L16.94,55A23.54,23.54,0,0,0,21,51.79c.69-.74,0-2.35-1.09-1.88a23.86,23.86,0,0,0-4.37,2.73l-4.39,3.09,1.64,2.12a22.07,22.07,0,0,1,7-5.83L18,50.18A7,7,0,0,1,11.36,53c-1.12-.14-1.53,1.22-1.16,2a7,7,0,0,1,.6,2.07l1.35-1.35a1.18,1.18,0,0,1-1.32-1l-2,1.16a7,7,0,0,1,3,4.38,1.36,1.36,0,0,0,2.25.59,38.13,38.13,0,0,0,7.51-7.92c.76-1.06-.78-2.64-1.84-1.84A22,22,0,0,0,14.27,57c-.92,1.48,1.35,2.76,2.31,1.35A38.9,38.9,0,0,1,27.81,47.44l-1,.13a4.14,4.14,0,0,1,3,2.4l1.88-1.45-3.18-1.71-.64,2.36a8.69,8.69,0,0,1,6.74,3.36l1.47-1.91a7.4,7.4,0,0,1-2.83-2.91L32,49.42c1.73.3,2.54,1.81,2.59,3.47,0,.68,1,1.06,1.37.37Z"/><path d="M26.74,47.4v-.07l-.29.39A1,1,0,0,0,27,47l.12-.48c.05-.16.1-.32.16-.48s0-.09,0-.13l0,.05.1-.22a6.78,6.78,0,0,1,.52-.86s.15-.24,0,0a1.92,1.92,0,0,1,.18-.22,4,4,0,0,1,.35-.36l-1.72-1a4.78,4.78,0,0,0,.54,3.43,4.32,4.32,0,0,0,1.23,1.39,2.85,2.85,0,0,0,.78.39,1.25,1.25,0,0,0,.51,0,1.1,1.1,0,0,0,.36-.07l.12,0,0,0H30l.49,0a.48.48,0,0,0,.24-.89l-.3-.18.2.2c.06.08,0,.05,0,0a.9.9,0,0,0-.12-.24,1.67,1.67,0,0,0-.25-.4c-.13-.15-.28-.28-.41-.43L29.38,46s-.14-.17,0,0,0,0,0,0l-.18-.28a2.15,2.15,0,0,1-.14-.26.61.61,0,0,0-.07-.14c.14.19.06.14,0,0a6.13,6.13,0,0,1-.18-.61c0-.05,0-.1,0-.15,0-.22,0,.27,0,.05s0-.2,0-.3a1.5,1.5,0,0,1,0-.3,1.09,1.09,0,0,1,0-.18c0-.2,0,.24,0,0a1.06,1.06,0,0,0-.47-1.16,1,1,0,0,0-1.25.16A6.74,6.74,0,0,0,25.69,45a6.32,6.32,0,0,0-.29,1,4.65,4.65,0,0,0-.08.73,1.6,1.6,0,0,0,0,.44,1,1,0,0,0,.46.55l-.32-.56v.07a.64.64,0,0,0,1.25.17Z"/><path d="M37.8,52a1,1,0,0,0,.3-1.39l.09.36,0-.16a1,1,0,0,0-.71-.92c-1-.25-1.69.47-2.21,1.2A11.17,11.17,0,0,0,34.19,53a12.86,12.86,0,0,0-.75,2.19,9,9,0,0,0-.22,1.26,1.62,1.62,0,0,0,.08.79,1.65,1.65,0,0,0,.41.54.73.73,0,0,0,.85.11,1.44,1.44,0,0,0,.71-1,2.07,2.07,0,0,0,0-.22l0-.22c0-.17,0-.33.08-.49A12.4,12.4,0,0,1,36,54.06a1.8,1.8,0,0,0,.08-.21c.07-.17,0,.1,0-.06l.21-.46q.22-.45.48-.87A4.32,4.32,0,0,1,37,52l.12-.18c.09-.13-.08.08,0,0s.15-.17.06-.08c.07-.07.1,0,0,0H37a.74.74,0,0,0,.39,0,1.3,1.3,0,0,0,.46-.18L37,51.46c.06.06.07.07,0,0a.45.45,0,0,1,0-.28.58.58,0,0,0,.79.79Z"/><path d="M30.76,40.92c-.65.31-.44,1.09-.07,1.54a1.93,1.93,0,0,0,1.15.64,2.27,2.27,0,0,0,.9,0,1.65,1.65,0,0,0,.78-.39,2.82,2.82,0,0,0,.89-1.51,7.18,7.18,0,0,0,.14-1.91.88.88,0,0,0-.43-.74.85.85,0,0,0-.87,0,3.5,3.5,0,0,0-.69.64,4,4,0,0,0-.57,1,3.4,3.4,0,0,0-.13,1.92.87.87,0,0,0,.41.53,1,1,0,0,0,.68.09,2.35,2.35,0,0,0,1.76-2.25,2,2,0,0,0-.1-.72,2.53,2.53,0,0,0-.18-.42,1,1,0,0,0-.67-.48,1.49,1.49,0,0,0-1.57.68A1.41,1.41,0,0,0,32,40.59c.06.29,0,.16.1.24s.32.38.34.33h0c.05.05,0,0-.12-.12s-.16-.17-.12-.11l0,0a.93.93,0,0,0,.35.36l-.24-.24a1,1,0,0,0,.87.43.52.52,0,0,0,.45-.31.51.51,0,0,0-.1-.55c-.06-.06.07.13,0,0s0,.15,0,.06,0,0,0,.09v-.08l-.1.34a.6.6,0,0,0,.1-.24s-.09.18-.05.12l0-.05-.29.29h0l-.2.08a1,1,0,0,0,.65-.56c0-.09.06-.19.1-.28l-.1.22a2,2,0,0,1,.11-.2l-.14.19a.68.68,0,0,1,.12-.12l-.19.15a.5.5,0,0,1,.12-.08l-.23.1.11,0-.24,0h.11l-.24,0,.12,0-.55-.42c0,.06.06.11.09.18l-.09-.22a1.09,1.09,0,0,1,.08.31l0-.24a1.09,1.09,0,0,1,0,.36l0-.24a1.63,1.63,0,0,1-.11.42l.09-.22a1.75,1.75,0,0,1-.2.35l.14-.19a1.6,1.6,0,0,1-.26.26l.18-.14a1.28,1.28,0,0,1-.25.15l.21-.09-.22.07,1.1.62a1.57,1.57,0,0,1,0-.23l0,.23a2.29,2.29,0,0,1,0-.64l0,.23a2.48,2.48,0,0,1,.18-.66l-.09.21a2.66,2.66,0,0,1,.34-.59l-.13.17a2.44,2.44,0,0,1,.42-.43l-.17.14,0,0-1.29-.74a7.94,7.94,0,0,1,0,1.38l0-.22a2.76,2.76,0,0,1-.19.75l.09-.2a3.11,3.11,0,0,1-.22.4c-.05.07.14-.18,0,0l-.07.08a.6.6,0,0,1-.08.08c-.06.05-.12.06.08-.06l-.14.09-.06,0c-.12.07,0,0,.09,0-.12,0-.23.07-.34.09l.2,0h-.37c-.08,0,.19,0,.11,0h-.06a1,1,0,0,1-.23-.06l-.05,0s.17.09.09,0l-.11-.06,0,0c-.06,0,.11.1.07.06l-.08-.07,0,0s.08.12,0,.07a.47.47,0,0,0-.06-.09c0-.08.05.08,0,.08a.17.17,0,0,1,0,0,.6.6,0,0,0-.09-.22l-.09-.12c-.14-.1-.16-.12-.07-.06s0,0,0,0-.08-.1,0,0a.41.41,0,0,0-.55-.14Z"/><path d="M36.35,35.74a1.49,1.49,0,0,0-.07.47,1.7,1.7,0,0,0,.08.45,1.62,1.62,0,0,0,.2.42,2.09,2.09,0,0,0,.45.44l-.14-.11.11.11a1,1,0,0,0,.2.15.78.78,0,0,0,.68,0c.15-.06.26-.17.4-.24l-.2.08a1.55,1.55,0,0,0,.8-.67,1.57,1.57,0,0,0,.27-.62,1.68,1.68,0,0,0,0-.5,1.54,1.54,0,0,0-.16-.5,1.48,1.48,0,0,0-.37-.49,1.53,1.53,0,0,0-.54-.31,1.3,1.3,0,0,0-.65,0,1.26,1.26,0,0,0-.8.59,1.33,1.33,0,0,0,.29,1.57,1.3,1.3,0,0,0,.91.38,1.21,1.21,0,0,0,.58-.16,1.28,1.28,0,0,0,.38-.39,1.6,1.6,0,0,0,.13-.3.74.74,0,0,0,0-.39.77.77,0,0,0-.12-.37A1,1,0,0,0,37.46,35a1.06,1.06,0,0,0-.45.59v0l.1-.24,0,.06.15-.2,0,0,.2-.15,0,0,.23-.1h0l.27,0h0l.27,0L38,35l.24.1a.26.26,0,0,1-.09,0l.2.15a.52.52,0,0,1-.11-.1l.15.2,0-.1.1.24,0-.09,0,.26a.09.09,0,0,1,0-.07l0,.26a.09.09,0,0,0,0,0L38.3,36l0,0-.15.19,0,0-.2.15.08,0-.23.09.09,0-.25,0,.29,0-.26,0a.2.2,0,0,1,.11,0l-.25,0a.28.28,0,0,1,.13,0l-.22-.09a.35.35,0,0,1,.13.08l-.18-.14a.48.48,0,0,1,.11.09l-.14-.18a1.09,1.09,0,0,1,.08.15L37.42,36a.88.88,0,0,1,0,.15l0-.23v.15l0-.23a.86.86,0,0,1-.06.23l.08-.2a1.17,1.17,0,0,1-.17.28l.13-.16-.1.12a1.12,1.12,0,0,0-.27.44l.08-.19v0l.12-.16-.24.25.74-.2-.32,0,.19,0h-.08l.17.07-.09-.06.14.11a.91.91,0,0,1-.17-.17l.11.14a1.16,1.16,0,0,1-.13-.22l.07.17a1,1,0,0,1-.06-.23l0,.18a.89.89,0,0,1,0-.23l0,.17a.36.36,0,0,1,0-.1.7.7,0,0,0-.07-.51.69.69,0,0,0-.39-.3.67.67,0,0,0-.81.46Z"/><path d="M34.17,41.74a2.61,2.61,0,0,1,.31-.27l-.15.11.2-.13-.56.07a1.14,1.14,0,0,0,.52,0,1.43,1.43,0,0,0,.28-.13,1.34,1.34,0,0,1,.24-.12l-.2.08.48-.16a2.15,2.15,0,0,1,.5-.12l-.23,0a1.88,1.88,0,0,0,.33-.05,2.21,2.21,0,0,0,.27-.12.79.79,0,0,0,.4-.69.77.77,0,0,0-.4-.68,1.25,1.25,0,0,0-.57-.16l-.42.05a2.36,2.36,0,0,0-.64.19,2.78,2.78,0,0,0-.42.22c-.28.19-.6.4-.65.77l.19-.32a4,4,0,0,0-.51.64.65.65,0,0,0,.17.84.64.64,0,0,0,.86,0Z"/><path d="M53.57,83.41c3.08,1.67,6.28,3.14,9.38,4.76s6.29,3.46,9.35,5.33c6.11,3.74,12,7.77,17.9,11.86,11.62,8.11,23.12,16.51,35.7,23.1a100.38,100.38,0,0,0,22,8.79,1.14,1.14,0,0,0,.6-2.19A115,115,0,0,1,129,127.43a184.94,184.94,0,0,1-18.28-10.75c-11.91-7.83-23.27-16.5-35.47-23.88-3.35-2-6.75-4-10.24-5.76A61.55,61.55,0,0,0,54,82.34a.59.59,0,0,0-.45,1.07Z"/><path d="M57.86,57.86c3.91,1.72,8,3,11.76,5s7.43,4.22,11,6.54C87.84,74.1,95,78.72,102.48,83c14.82,8.45,30.13,16,44.57,25.15,4,2.51,7.88,5.13,11.68,7.9,2,1.45,3.94,2.94,5.85,4.48.89.71,1.76,1.45,2.64,2.18a12.72,12.72,0,0,0,1.43,1.11,4.55,4.55,0,0,0,1.58.49c.38.08.82-.25.68-.67a4.85,4.85,0,0,0-1.43-2.28c-.79-.73-1.63-1.4-2.46-2.07-1.63-1.33-3.28-2.62-5-3.89q-5.2-3.91-10.69-7.45c-7.2-4.65-14.67-8.89-22.21-13s-15.32-8.2-22.93-12.4S91.31,73.9,84,69.25A131.37,131.37,0,0,0,71.25,61.8c-4.09-2-8.68-4.1-13.29-4.3-.19,0-.28.28-.1.36Z"/><path d="M166.26,120a2.08,2.08,0,0,0,2.41,2c1.36-.13,2.19-1.24,3-2.24l2.65-3.47,1.35-1.77c.5-.66,1.11-1.27.95-2.15a.88.88,0,0,0-.85-.65c-.82.08-1.2.68-1.66,1.3l-1,1.37-2.19,3a13.78,13.78,0,0,1-1.89,2.4,1.74,1.74,0,0,1-.36.24.41.41,0,0,1-.36,0c.13,0-.07,0-.11,0s0,0-.1-.06c.11.08-.1-.11-.1-.11s-.05-.08,0,0a.85.85,0,0,0-1.66.23Z"/><path d="M190.72,90.56a32.75,32.75,0,0,0,5.86-4.44c1.92-1.64,3.83-3.29,5.77-4.9l-1.69-1.3c-1.14,1.83-2.23,3.7-3.34,5.55a1.18,1.18,0,0,0,1.6,1.6,11.2,11.2,0,0,1,4-1.39,1.22,1.22,0,0,0,.32-2.38l-2.34-.75L200.25,85a26.8,26.8,0,0,1,7.62,3.22c1.15.73,2.37-.68,1.78-1.79a10.85,10.85,0,0,0-5.7-5l-.71,2.56a7.5,7.5,0,0,1,3.13,2.29l1.87-1.87-4.82-4c-1.29-1.07-3.17.78-1.86,1.87l4.81,4a1.32,1.32,0,0,0,1.87-1.87,10,10,0,0,0-4.29-3c-1.61-.61-2.27,1.93-.71,2.56a8.18,8.18,0,0,1,4.16,3.77l1.79-1.78a26.25,26.25,0,0,0-8.28-3.38,1.25,1.25,0,0,0-.66,2.41l2.36.68V83.3a13.44,13.44,0,0,0-4.87,1.75l1.6,1.6c1.07-1.87,2.15-3.75,3.18-5.65a1.08,1.08,0,0,0-1.69-1.3c-1.84,1.71-3.72,3.39-5.59,5.08A33,33,0,0,0,190.15,90c-.25.37.23.75.57.57Z"/><path d="M55.79,76.7l.05-.12a.32.32,0,0,0,0-.37.61.61,0,0,0-1.08.27c-.25,1.1,2,1.81,2.6,2.15l10.34,5.48c6.48,3.43,12.91,7.09,19.86,9.46.38.13.64-.47.28-.64-5.43-2.47-10.72-5.25-16-8l-8.17-4.27-4.19-2.18-2.21-1.16c-.19-.09-2-1-2-.73s.4.41.51.14Z"/><path d="M57.42,70.53A270.46,270.46,0,0,0,80.21,85.68q11.7,7.13,24,13.18c.35.17.65-.34.31-.53q-12-6.58-23.73-13.58C72.93,80.07,65.34,75,57.63,70.18c-.23-.15-.41.19-.21.35Z"/><path d="M69.78,69.53c15.67,9.58,31.28,19.3,47.25,28.39a.3.3,0,0,0,.3-.52c-15.5-9.86-31.4-19.1-47.21-28.47a.35.35,0,0,0-.34.6Z"/><path d="M110.73,103c11,5.27,21.9,10.9,33,16,.16.07.29-.15.14-.23-10.63-6-21.74-11.18-32.77-16.41-.44-.21-.82.44-.38.65Z"/><path d="M134.3,109.23l11.52,6.34c1.89,1,3.76,2.1,5.66,3.1s4.07,1.86,6.08,2.85a.27.27,0,0,0,.27-.46c-1.84-1.12-3.59-2.37-5.46-3.45s-3.91-2.14-5.87-3.21l-11.56-6.28c-.72-.39-1.37.71-.64,1.11Z"/><path d="M110.86,108.82a182.44,182.44,0,0,0,19.45,11.88,76.9,76.9,0,0,0,10.1,4.22c3.41,1.13,6.72,2.06,9.85,3.87a.35.35,0,0,0,.43-.55c-2.19-2.46-5.66-3.3-8.7-4.23a74.24,74.24,0,0,1-10.83-4.31A191.5,191.5,0,0,1,111.33,108c-.5-.33-1,.47-.47.8Z"/><path d="M139.31,127.31a40.86,40.86,0,0,0,4.48,1.89l2.29.83c.79.29,1.6.48,2.4.74.48.16.66-.57.21-.75-.79-.31-1.54-.68-2.35-1l-2.2-.79a39.34,39.34,0,0,0-4.64-1.4c-.26-.06-.44.31-.19.44Z"/></g></g></svg>