<svg xmlns="http://www.w3.org/2000/svg" viewBox="0 0 78.52 82.59"><defs><style>.cls-1,.cls-2{fill:#fff;}.cls-1{stroke:#000;stroke-miterlimit:10;stroke-width:3px;}</style></defs><g id="Camada_2" data-name="Camada 2"><g id="Camada_4" data-name="Camada 4"><path class="cls-1" d="M1.62,35.75c.89-.69,13.06-9.7,13.06-9.7S35.37,29.34,41.94,5.2c0,0,20.57-15.14,34.57,15.86,0,0,6.15,8.34-24.42,28.17L8.36,80Z"/><path class="cls-2" d="M3.05,35.31a77.91,77.91,0,0,1,19.26,35"/><path d="M2.59,35.78A82.34,82.34,0,0,1,21.35,70.59a1,1,0,0,0,1.91-.52A75.13,75.13,0,0,0,3.52,34.84c-.61-.6-1.49.3-.93.94Z"/><path class="cls-2" d="M8.77,71.18l12.34-7.13"/><path d="M9,71.64a1.78,1.78,0,0,1,.54-.21l-.49-.06c.58.36,1.11,0,1.64-.25l1.5-.85,3.09-1.76c2.09-1.2,4.23-2.34,6.27-3.63a1,1,0,0,0-1-1.66c-2.13,1.13-4.19,2.42-6.27,3.63-1,.6-2,1.19-3.07,1.8l-1.48.88c-.52.31-1.05.61-1,1.29L9,70.36a1.59,1.59,0,0,1-.45.37.53.53,0,0,0,.53.91Z"/><path class="cls-2" d="M7.14,64.14,17.7,57.83"/><path d="M7.34,64.85a11.55,11.55,0,0,0,2.78-1.41l2.69-1.58c1.8-1.06,3.61-2.1,5.38-3.2a1,1,0,0,0-1-1.67c-1.8,1-3.57,2.15-5.36,3.22L9.18,61.84a11.49,11.49,0,0,0-2.56,1.78.74.74,0,0,0,.72,1.23Z"/><path class="cls-2" d="M5.39,56a35.83,35.83,0,0,0,11.3-5.1"/><path d="M5.39,56.78A10.87,10.87,0,0,0,8.61,56c1.06-.36,2.1-.76,3.13-1.22s1.93-.92,2.87-1.44,2.21-1.07,2.74-2c.36-.64-.23-1.21-.87-1.13a4,4,0,0,0-1.45.69c-.46.28-.91.56-1.38.82-.9.52-1.83,1-2.77,1.42S9,53.92,8,54.27a20.3,20.3,0,0,0-3,1.07.78.78,0,0,0,.39,1.44Z"/><path class="cls-2" d="M5.3,48.44a10.53,10.53,0,0,0,7.08-2.39"/><path d="M5.3,49.12a9.47,9.47,0,0,0,2,.06,9.55,9.55,0,0,0,2.12-.46,11.84,11.84,0,0,0,1.93-.86,9.13,9.13,0,0,0,.84-.53,5.66,5.66,0,0,0,.47-.34,4.26,4.26,0,0,0,.41-.54.79.79,0,0,0-.13-1,.8.8,0,0,0-.95-.12,2.62,2.62,0,0,0-.43.18l-.38.28c-.26.17-.52.34-.8.49a9.42,9.42,0,0,1-1.55.7,13.29,13.29,0,0,1-1.75.47,10.63,10.63,0,0,1-1.77.25.69.69,0,0,0,0,1.37Z"/><path class="cls-2" d="M3.7,42.25a21.14,21.14,0,0,0,6.46-1.13"/><path d="M3.7,43.11a20.82,20.82,0,0,0,3.52-.3,8.89,8.89,0,0,0,3.29-1.1c.54-.34.38-1.35-.35-1.28-1.12.1-2.2.41-3.3.61a24.07,24.07,0,0,1-3.16.36.86.86,0,1,0,0,1.71Z"/><path class="cls-2" d="M51.28,48.71C47.59,38.4,39.71,30.22,32.05,22.39"/><path d="M52,48.51a45.44,45.44,0,0,0-8-14.4c-1.73-2.23-3.59-4.36-5.5-6.44Q37,26.11,35.55,24.58c-.93-1-1.89-2.26-3.15-2.79-.48-.2-1.27.15-1,.79a9.71,9.71,0,0,0,2.34,2.93c1,1,2,2,2.92,3.07,1.88,2,3.72,4.08,5.44,6.23a60.28,60.28,0,0,1,8.54,14.28c.34.8,1.64.23,1.39-.58Z"/><path class="cls-2" d="M49.91,15.94a6.09,6.09,0,0,0-2.66,5.76,12.57,12.57,0,0,0,2.56,6.09,27.37,27.37,0,0,0,4,4.52,3.92,3.92,0,0,0,1.93,1.12A2.82,2.82,0,0,0,58.62,31a7.12,7.12,0,0,0-.7-4A37.59,37.59,0,0,0,53,18.35a4.56,4.56,0,0,0-2.36-1.9c-1-.23-2.27.51-2.15,1.54"/><path d="M49.73,15.3c-3.2,1.15-3.88,5.31-3.13,8.22.92,3.56,3.54,6.73,6.18,9.19,1.25,1.17,2.75,2.23,4.51,1.47a4.32,4.32,0,0,0,2.43-4.09,14.26,14.26,0,0,0-1.79-5.6,38.08,38.08,0,0,0-3-5.15c-1-1.49-2.19-3.45-4.08-3.91-1.64-.4-3.93.91-3.32,2.8a.93.93,0,0,0,1.78,0c.33-1.2,1.49-.67,2.12,0A19.45,19.45,0,0,1,54,21.57a24.5,24.5,0,0,1,3.63,7.7c.23,1.08.09,2.68-1.17,3.1s-2.47-1.3-3.19-2a19.66,19.66,0,0,1-4.56-6.64,7.07,7.07,0,0,1-.34-4,6.43,6.43,0,0,1,2.06-3.29c.47-.44,0-1.36-.65-1.12Z"/><path class="cls-2" d="M51.2,21.16l4.17,7.63"/><path d="M50.52,21.16a5.38,5.38,0,0,0,.84,2.2l1,2,2.12,4c.6,1.11,2.31.11,1.7-1-.73-1.32-1.46-2.62-2.2-3.93l-1.08-1.93a5.17,5.17,0,0,0-1.4-1.86.68.68,0,0,0-1,.58Z"/><path d="M3.76,35.83c1.68,2.72,3.9,5.16,5.79,7.74s3.77,5.25,5.46,8a72,72,0,0,1,4.47,8.24,46.11,46.11,0,0,1,1.75,4.39c.28.81.54,1.62.77,2.44s.29,1.53,1,2.07c.5.39,1.42.5,1.74-.22.65-1.46-.22-3.18-.7-4.62s-1.09-3-1.73-4.48a63.8,63.8,0,0,0-4.68-8.84c-1.77-2.79-3.69-5.48-5.69-8.11a73.32,73.32,0,0,0-6.45-7.92,1.09,1.09,0,0,0-1.71,1.32Z"/><path d="M10,69.82a3.37,3.37,0,0,0-1.13.65,3.12,3.12,0,0,0-.69,1.07,6.37,6.37,0,0,0-.53,2.58A4.92,4.92,0,0,0,8.46,77,3.4,3.4,0,0,0,9.6,78,1.45,1.45,0,0,0,11.37,78a.82.82,0,0,0,.12-1,1.29,1.29,0,0,0-.5-.51,1.71,1.71,0,0,0-.34-.13c.14.05-.06,0-.09,0a1.48,1.48,0,0,1-.21-.13l0,0a1.73,1.73,0,0,1-.25-.28,3.3,3.3,0,0,1-.45-1.88,6.63,6.63,0,0,1,0-.89c0,.14,0-.07,0-.09a2.21,2.21,0,0,0,0-.25l.12-.42a3.45,3.45,0,0,1,.35-.69,3.45,3.45,0,0,1,.46-.69c.44-.43,0-1.33-.63-1.09Z"/><path d="M8.12,63.27a5.7,5.7,0,0,0-1.89,5A3.76,3.76,0,0,0,9.5,71.45a1,1,0,0,0,1-1,1,1,0,0,0-1-1c-.19,0,.05,0-.06,0l-.18,0-.06,0L9,69.33l-.19-.12c-.12-.08.1.09,0,0l-.3-.29c-.19-.21,0,.06,0-.07l-.1-.15a3.48,3.48,0,0,1-.2-.38c.06.13,0-.06,0-.08A2,2,0,0,1,8.09,68c0-.06,0-.12-.05-.18s0-.26,0-.16,0-.09,0-.11a1.31,1.31,0,0,1,0-.28,4.89,4.89,0,0,1,0-.54,4.18,4.18,0,0,1,.19-.92c.21-.7.47-1.39.66-2.1a.46.46,0,0,0-.77-.44Z"/><path d="M6.38,55.58a2.29,2.29,0,0,0-.8,1.22A7.38,7.38,0,0,0,5.27,58a6.8,6.8,0,0,0,0,2.62,3.33,3.33,0,0,0,1.37,2.07,2.16,2.16,0,0,0,2.59,0,.94.94,0,0,0,.2-1,1,1,0,0,0-.87-.6,1.37,1.37,0,0,0-.29,0s-.34,0-.16,0-.08,0-.11,0,.16,0,0,0a1.52,1.52,0,0,0-.2-.06c-.12,0,.12.08,0,0L7.7,61c-.08,0-.06-.06,0,0l-.16-.15,0-.06c.07.1-.07-.11-.08-.13l-.09-.17c.07.14,0,0,0-.08s0-.15-.07-.23,0-.12,0-.19-.05-.27,0-.15,0-.1,0-.12a1.94,1.94,0,0,1,0-.24c0-.16,0-.31,0-.47q0-.49.06-1c0-.34.07-.55.12-.91a2.55,2.55,0,0,0,0-1.13.66.66,0,0,0-1-.39Z"/><path d="M5.64,48.17c.08,0,.06,0,0,0a.57.57,0,0,0-.25.08,1,1,0,0,0-.24.22,1.8,1.8,0,0,0-.32.55,4.53,4.53,0,0,0-.34,1.36,13.87,13.87,0,0,0-.07,2.41,2.87,2.87,0,0,0,1,2.19,4.11,4.11,0,0,0,2.17,1A.92.92,0,0,0,8,54.26,3,3,0,0,0,7.44,54L7.27,54l-.07,0a2.49,2.49,0,0,1-.33-.16l-.19-.11L6.6,53.6l-.1-.09-.12-.13c.12.14-.08-.17-.07-.15a3.32,3.32,0,0,1-.09-.84,16.68,16.68,0,0,1,0-2c0-.32.07-.61.11-1a3.91,3.91,0,0,0,0-.48.78.78,0,0,0-.06-.37s-.15-.28-.11-.19a.51.51,0,0,0-.56-.23Z"/><path d="M4.59,42.35a4.27,4.27,0,0,0-1.06,2,4.8,4.8,0,0,0-.11,2.29,3.63,3.63,0,0,0,.92,1.74c.46.48,1.36,1.11,2,.7a.65.65,0,0,0,.23-.88,1.53,1.53,0,0,0-.72-.51,1.28,1.28,0,0,1-.5-.39,2.68,2.68,0,0,1-.6-1.16,3.62,3.62,0,0,1,0-1.6,14,14,0,0,0,.51-1.93c0-.39-.48-.53-.73-.3Z"/><path d="M3.58,35.93c-.31,0-.58.42-.71.66a2.83,2.83,0,0,0-.31.9,4.77,4.77,0,0,0,.11,2.06,5.27,5.27,0,0,0,.87,1.78,3.09,3.09,0,0,0,1.84,1.34A.71.71,0,0,0,6,42.23a.73.73,0,0,0-.15-.77,1.87,1.87,0,0,0-.45-.33l-.09-.07L5.2,41a5,5,0,0,1-.61-.61c.06.07,0-.05,0-.07a1.27,1.27,0,0,1-.13-.19q-.11-.16-.21-.36A2.83,2.83,0,0,1,3.94,39a4.31,4.31,0,0,1-.15-1.57c0-.25,0-.53.07-.8S4,36,3.58,35.93Z"/><path d="M8.34,50.55l0,0a.65.65,0,0,0-.56-.33.7.7,0,0,0-.57.33A1.89,1.89,0,0,0,7,52.2a2.93,2.93,0,0,0,.35.71,3.15,3.15,0,0,0,.7.71.82.82,0,0,0,.79.05.87.87,0,0,0,.51-.58,3.66,3.66,0,0,0,.05-1.71,3.31,3.31,0,0,0-.28-.8,1.34,1.34,0,0,0-.85-.84.86.86,0,0,0-.76.15.9.9,0,0,0-.34.68c0,.39.26.71.4,1l-.09-.22a3.35,3.35,0,0,1,.21.75l0-.24a2.74,2.74,0,0,1,0,.7l0-.23a2.21,2.21,0,0,1,0,.25l1.31-.53L8.85,52l.18.14a1.72,1.72,0,0,1-.33-.33l.14.18a2,2,0,0,1-.26-.44l.09.21a2.72,2.72,0,0,1-.21-.74l0,.21c0-.13,0-.26-.06-.38a1.29,1.29,0,0,1,0-.19l-1,.74h0a.66.66,0,0,0,.78-.1.7.7,0,0,0,.11-.79Z"/><path d="M9.13,57.77c-.74.23-.75,1.08-.65,1.71a1.72,1.72,0,0,0,.23.58,1.48,1.48,0,0,0,.25.31,1.62,1.62,0,0,0,.54.31.86.86,0,0,0,.68-.09,1,1,0,0,0,.41-.53,3.38,3.38,0,0,0,.11-1.7A3.07,3.07,0,0,0,10.12,57a1,1,0,0,0-.55-.42,1,1,0,0,0-.71.09,1.2,1.2,0,0,0-.62.82,1,1,0,0,0,.23.94,1,1,0,0,0,.43.25.75.75,0,0,0,.7-.18l0,0-.15.12a.93.93,0,0,0,.3-.26c.06-.07.1-.14.15-.21l-.14.18c.07-.08.13-.17.2-.26l-.14.19.06-.06-.19.14.08,0L8.68,58.1l0,0-.14-.19a2.73,2.73,0,0,1,.32.55l-.09-.22A2.7,2.7,0,0,1,9,59l0-.24a2.81,2.81,0,0,1,0,.71l0-.24a2.59,2.59,0,0,1-.09.4L10,59l-.06,0,.22.08A.34.34,0,0,1,10,59l.17.13L10.09,59l.13.17a.86.86,0,0,1-.1-.16l.09.2a1.39,1.39,0,0,1-.09-.35l0,.23a2.11,2.11,0,0,1,0-.25,3.29,3.29,0,0,0-.05-.44l0,.22a1,1,0,0,0-.11-.45A1.2,1.2,0,0,0,9.83,58a.69.69,0,0,0-.7-.21Z"/><path d="M10,67.12a.66.66,0,0,0,.4-.17.71.71,0,0,0,.16-.28l.06-.21a3.11,3.11,0,0,0,.09-.6.69.69,0,0,0-.21-.5.72.72,0,0,0-.41-.2.71.71,0,0,0-.79.51v0l.07-.18a3.54,3.54,0,0,0-.16.34,2.33,2.33,0,0,0,0,.38v.43l0,.85a.92.92,0,0,0,1.81.24c0-.13.07-.26.1-.39l.08-.38.07-.38a2.62,2.62,0,0,1,.09-.38l-.1.24c0-.07.08-.14.11-.21a1.37,1.37,0,0,0,.15-.55.62.62,0,0,0,0-.19,1.22,1.22,0,0,0,0-.17,1.09,1.09,0,0,0-.46-.6,1.08,1.08,0,0,0-.77-.1,1,1,0,0,0-.6.46,1,1,0,0,0-.1.77.08.08,0,0,1,0,0l0-.26v0l0-.27a.14.14,0,0,1,0,.07l.1-.23a2.16,2.16,0,0,0-.21.55l-.07.5-.07.48c0,.15-.05.3-.06.45s0,.17,0,.26H11l-.09-.85-.05-.41a1.75,1.75,0,0,0-.05-.4,1.59,1.59,0,0,0-.18-.34l.08.18v0l-1.39.38a2.4,2.4,0,0,1,.15.57l0-.15a1.46,1.46,0,0,0,0,.22.72.72,0,0,0,.12.21.44.44,0,0,0,.42.22Z"/><path d="M10.7,72.8a2.11,2.11,0,0,0-.21.77,2.29,2.29,0,0,0,.08.69.88.88,0,0,0,.82.63,1.06,1.06,0,0,0,.43-.12.81.81,0,0,0,.39-.51,7.9,7.9,0,0,0,.12-1.09c0-.14,0-.29,0-.44l0-.21a1.74,1.74,0,0,0-.06-.45.91.91,0,0,0-.87-.66,1.21,1.21,0,0,0-.46.12.92.92,0,0,0-.41.54,3.13,3.13,0,0,0-.06,1.1,7.88,7.88,0,0,0,.06,1.09l1.56-.65a1.23,1.23,0,0,1-.21-.37l.07.19-.15-.37.07.17a1.29,1.29,0,0,1-.08-.28.61.61,0,0,0-.51-.44.5.5,0,0,0-.32,0,.53.53,0,0,0-.3.25Z"/><path d="M6.32,43.87,6,44.14l.39-.23h0l.24,0h0l-.25,0a.62.62,0,0,0-.32.17.44.44,0,0,0-.17.16.71.71,0,0,0-.17.32,2.14,2.14,0,0,0-.16,1,2.6,2.6,0,0,0,.3,1.17,1,1,0,0,0,.61.46l.26,0a.66.66,0,0,0,.39-.09,1,1,0,0,0,.58-1.19,3.55,3.55,0,0,1-.17-.64l0,.27a3.24,3.24,0,0,1,0-.44,1.27,1.27,0,0,1,0-.2.93.93,0,0,0-.29-.77l.23.39a.36.36,0,0,1,0-.11l0,.22a.41.41,0,0,1,0-.11.84.84,0,0,0-.38-.66.81.81,0,0,0-.78,0Z"/><path d="M33,22.32a48.38,48.38,0,0,0,5.79-4.54Q42,15.16,45.3,12.63c2.05-1.57,4.1-3.15,6.17-4.69s4.36-2.82,6.13-4.58c.4-.39-.1-.95-.56-.74-2.34,1.1-4.48,3-6.55,4.55s-4.09,3.07-6.08,4.68-4,3.27-5.95,5a38,38,0,0,0-5.64,5.34c-.09.11.07.24.18.18Z"/><path d="M38.92,13.87c2.24-1.65,4.42-3.38,6.73-4.93a77.41,77.41,0,0,0,6.84-4.56.3.3,0,0,0-.3-.5,30,30,0,0,0-7.07,4.39,60.56,60.56,0,0,0-6.4,5.34c-.13.13,0,.37.2.26Z"/><path d="M41.68,8.33c.42,0,.77-.32,1.1-.54L44,7c.84-.55,1.68-1.11,2.54-1.64s1.66-1,2.5-1.52a9.66,9.66,0,0,0,2.35-1.7.2.2,0,0,0-.19-.33A8.41,8.41,0,0,0,48.56,3C47.69,3.49,46.84,4,46,4.58s-1.64,1.07-2.44,1.63l-1.25.92c-.33.25-.76.45-.88.86a.27.27,0,0,0,.26.34Z"/><path d="M35.22,24.41c4.39-3,8.49-6.58,12.65-9.93,2.12-1.7,4.22-3.4,6.34-5.09,1-.82,2.08-1.61,3.12-2.42s2.4-1.54,2.92-2.72a.28.28,0,0,0-.32-.41,7.14,7.14,0,0,0-2.81,1.89l-3,2.53c-2.14,1.79-4.34,3.51-6.51,5.27C43.36,17,38.92,20.29,34.92,24c-.19.19.07.54.3.38Z"/><path d="M37.16,26.65a58.91,58.91,0,0,0,5.42-3.57c.85-.6,1.7-1.21,2.53-1.83a14.2,14.2,0,0,0,1.14-.91c.4-.36.72-.78,1.09-1.17.2-.22-.06-.61-.34-.43s-.87.47-1.29.74-.82.58-1.23.88l-2.59,1.93a57,57,0,0,0-5,4c-.17.16.05.43.25.32Z"/><path d="M51,15.93a14.23,14.23,0,0,0,3.6-2.49c1.26-1,2.52-2,3.77-3L62,7.54c.62-.5,1.24-1,1.87-1.5.48-.37,1-.67,1.25-1.26a.38.38,0,0,0-.36-.46,2.43,2.43,0,0,0-1.55.73C62.61,5.5,62,6,61.47,6.44l-3.7,3c-1.2,1-2.37,2-3.56,3a15.49,15.49,0,0,0-3.39,3.22.17.17,0,0,0,.19.24Z"/><path d="M40.48,29.3v0a.24.24,0,0,0-.16-.21.35.35,0,0,0-.17.67c.29.08.69-.21.92-.35s.66-.45,1-.68c.68-.5,1.38-1,2.08-1.46s1.37-.91,2.06-1.37l1-.66a2.45,2.45,0,0,0,.53-.38,1.78,1.78,0,0,0,.3-.58.3.3,0,0,0-.25-.45,1.72,1.72,0,0,0-1.08.27l-1.07.7c-.68.45-1.36.92-2,1.4s-1.3.95-1.93,1.44A5.78,5.78,0,0,0,40,29.25l.28-.16h0l.22.09v.2l-.18.1h0a.18.18,0,0,0,.19-.18Z"/><path d="M54,19.6a4.77,4.77,0,0,0,1.51-1c.57-.44,1.14-.87,1.7-1.32,1.12-.88,2.22-1.8,3.34-2.69q3.34-2.69,6.72-5.33c.56-.44-.23-1.22-.78-.79-2.23,1.74-4.43,3.48-6.62,5.26-1.07.88-2.15,1.75-3.21,2.64-.52.43-1,.88-1.52,1.32a5.78,5.78,0,0,0-1.48,1.48.3.3,0,0,0,.34.44Z"/><path d="M42.79,33.84a1.66,1.66,0,0,0,.92-.37c.33-.21.66-.41,1-.63.63-.43,1.24-.86,1.86-1.3l1.81-1.25a5.06,5.06,0,0,0,1.74-1.5.42.42,0,0,0-.47-.61A5,5,0,0,0,47.7,29.3l-1.83,1.34c-.6.43-1.2.85-1.79,1.29l-.91.73a1.68,1.68,0,0,0-.69.78.32.32,0,0,0,.31.4Z"/><path d="M57.43,23.34a64.12,64.12,0,0,0,6.91-5.14c2.28-1.8,4.53-3.65,6.78-5.48.64-.51-.27-1.43-.9-.9-2.2,1.84-4.44,3.62-6.7,5.37s-4.65,3.38-6.74,5.3a.54.54,0,0,0,.65.85Z"/><path d="M45.3,37.78a47.77,47.77,0,0,0,4.2-2.72c.68-.46,1.35-.94,2-1.42l1-.71a1.56,1.56,0,0,0,.74-.93c0-.18-.05-.43-.26-.46-.82-.12-1.5.58-2.12,1s-1.39,1-2.07,1.49a48.17,48.17,0,0,0-4,3.09c-.34.32.1.85.5.64Z"/><path d="M58.78,27.56A8.74,8.74,0,0,0,62,25.76c1-.89,1.94-1.91,3-2.81,1.19-1,2.47-2,3.73-2.91.61-.45,1.22-.9,1.82-1.36s1.53-1,1.85-1.64c.12-.27,0-.73-.39-.68a4.41,4.41,0,0,0-1.81,1c-.68.47-1.36,1-2,1.45-1.24.89-2.47,1.79-3.62,2.79-1,.87-1.9,1.84-2.85,2.77A16.75,16.75,0,0,1,58.54,27a.31.31,0,0,0,.24.56Z"/><path d="M48.94,41.16a51.84,51.84,0,0,0,6.86-4.35c2.32-1.54,4.61-3.13,6.88-4.75s4.37-3.21,6.52-4.86,4.6-3.1,6.19-5.16a.51.51,0,0,0-.61-.8c-2.28,1.1-4.27,3.13-6.26,4.68-2.28,1.78-4.59,3.53-6.89,5.28s-4.35,3.27-6.53,4.88a71.32,71.32,0,0,0-6.42,4.74c-.2.18,0,.44.26.34Z"/><path d="M51.13,45.7c3.49-2.13,7.06-4.15,10.58-6.27,1.72-1,3.46-2.06,5.19-3.1A27.5,27.5,0,0,0,71.84,33a.33.33,0,0,0-.32-.55,24.2,24.2,0,0,0-5.09,2.66c-1.79,1.07-3.55,2.18-5.32,3.29-3.48,2.17-6.86,4.5-10.28,6.77-.32.21,0,.71.3.51Z"/><path d="M16.91,35.48C17.52,37.15,19,38.58,20,40c1.14,1.65,2.21,3.35,3.18,5.1a50.73,50.73,0,0,1,2.6,5.41c.37.9.72,1.81,1,2.72s.43,1.9,1.12,2.44a.5.5,0,0,0,.83-.22c.27-.86-.25-1.8-.54-2.61s-.7-1.82-1.08-2.72a60.7,60.7,0,0,0-2.75-5.54,53.4,53.4,0,0,0-3.22-5.06c-1.07-1.48-2.27-3.48-3.91-4.36-.19-.1-.46.06-.38.29Z"/><path d="M28.32,55.91c1.07-.41,2.13-.83,3.17-1.3a4.51,4.51,0,0,0,1.13-.69,1.39,1.39,0,0,0,.59-1.45.59.59,0,0,0-.87-.35,1.25,1.25,0,0,0-.3.26,1.77,1.77,0,0,0-.12.17c0,.06,0,0,0,0l-.15.19c-.11.15.06-.05,0,0l-.19.2-.09.08c-.1.08,0,0,0,0l-.24.16c-.16.1-.33.19-.5.28-.93.48-1.88.93-2.8,1.42-.52.29-.16,1.21.42,1Z"/><path d="M32.87,52.78a26.74,26.74,0,0,0-2-5C30,46,29.06,44.3,28.07,42.65A47.51,47.51,0,0,0,24.91,38a25,25,0,0,0-3.68-4.32c-.62-.5-1.74.15-1.2.93,1,1.45,2.34,2.71,3.43,4.1s2.3,3.08,3.36,4.67,1.94,3.09,2.81,4.69,1.58,3.41,2.53,5a.39.39,0,0,0,.71-.3Z"/><path d="M17.54,35.67l.21-.1.2-.13a4,4,0,0,0,.43-.29c.25-.2.49-.42.74-.63l.73-.6.2-.15,0,0,.05,0,.41-.3a.62.62,0,0,0,.17-.9.61.61,0,0,0-.91-.06c-.49.42-1,.85-1.44,1.29l-.68.65c-.12.14-.22.29-.33.44l-.13.2c0,.07-.07.15-.12.23a.31.31,0,0,0,.43.42Z"/><path d="M20,33a5.15,5.15,0,0,0,.66,1.19c.24.37.45.75.68,1.12s.45.76.69,1.12.51.85.93,1a.4.4,0,0,0,.47-.26,1.13,1.13,0,0,0-.08-.68c-.08-.22-.17-.45-.27-.67a11.42,11.42,0,0,0-.66-1.18c-.23-.37-.48-.73-.73-1.09a4,4,0,0,0-.92-1.13c-.39-.27-.87.17-.77.59Z"/><path d="M32.53,52l-.48-.59a1,1,0,0,0-.22-.2l-.13-.1a.71.71,0,0,0-.47-.2l.24.1-.24-.22a.29.29,0,0,0-.45.34l.16.28,0-.26a.67.67,0,0,0,.08.5c0,.06.05.11.07.17a.74.74,0,0,0,.16.27l.06.07.47.61a.53.53,0,0,0,.39.16.55.55,0,0,0,.55-.54.68.68,0,0,0-.16-.39Z"/><path d="M28.93,52.78c-.44-1.2-.77-2.43-1.23-3.62s-.95-2.39-1.36-3.6l-2,.85c1.18,2.71,2.35,5.42,3.55,8.11a1.22,1.22,0,0,0,2.09,0,1.61,1.61,0,0,1,1.34-.72A1.23,1.23,0,0,0,32.36,52a101,101,0,0,1-6.8-11c-.87-1.59-3.14-.19-2.4,1.41q1.47,3.15,2.95,6.3a13.34,13.34,0,0,0,3.29,4.87,1.47,1.47,0,0,0,1.71.22,1.42,1.42,0,0,0,.65-1.59,60.28,60.28,0,0,0-5.22-10.33c-1-1.59-2.11-3.11-3.26-4.6-.61-.78-1.24-1.55-1.89-2.29a3.06,3.06,0,0,0-2.28-1.38,1.4,1.4,0,0,0-1.34,1.76c.54,1.89,1.88,3.65,2.85,5.34s2,3.88,3.53,5.29a1,1,0,0,0,1.67-1c-.41-2-1.64-3.68-2.62-5.39l-1.47-2.57a11.83,11.83,0,0,1-1.28-2.44L19.11,36.4h.25l-.71-.19c.64.29,1.18,1.21,1.63,1.75s.95,1.19,1.41,1.8q1.53,2.05,2.87,4.23A54.81,54.81,0,0,1,29,53L31.4,51.6c-1.48-1.21-2.2-3-3-4.65Q27,44,25.56,41l-2.4,1.41A106.51,106.51,0,0,0,30.25,53.2l1.05-1.84a4.14,4.14,0,0,0-3.43,1.94H30c-1.22-2.68-2.48-5.34-3.73-8-.6-1.28-2.52-.17-1.91,1.11s1,2.34,1.55,3.52,1.13,2.28,1.66,3.44c.36.79,1.69.23,1.4-.59Z"/><path d="M25.65,34.06a20.36,20.36,0,0,0,2.05,3.48c.8,1.22,1.59,2.44,2.3,3.7s1.38,2.47,2.09,3.69c.35.61.71,1.22,1.07,1.82s.66,1.38,1.4,1.49a.79.79,0,0,0,.93-.53c.27-.69-.21-1.27-.55-1.84s-.74-1.21-1.12-1.8c-.81-1.22-1.66-2.4-2.53-3.58s-1.64-2.3-2.46-3.46a17.55,17.55,0,0,0-2.65-3.28c-.21-.19-.67,0-.53.31Z"/></g></g></svg>