<svg xmlns="http://www.w3.org/2000/svg" viewBox="0 0 132.36 142.2"><defs><style>path{fill:#007fff}.cls-1{fill:#fff;stroke:#007fff;stroke-miterlimit:10;stroke-width:3px;}</style></defs><g id="Camada_2" data-name="Camada 2"><g id="Camada_4" data-name="Camada 4"><path class="cls-1" d="M69.82,52.41C77.12,38.77,69,19,54.47,12.87S11.25-2.66,6.1,3.53,1.52,9.19,1.52,9.19s12.14,30,8.78,43.28c0,0,19.29,11.64,24.47,19.44,0,0,6.76,8.2,27,0,0,0,7.58,5.23,5.4,13.51,0,0-14.1,4.17-15.64,17.73,0,0-3.07,5.13,2.69,9.85l-1.61,1.6a9.36,9.36,0,0,0-2.29,9.55c1.95,5.94,6.12,14.59,14.15,16.54,0,0,39.93-3.16,64.72-33.57,0,0,7.32-16-8.29-22a11.57,11.57,0,0,0-10.55,1.2l-6,4a53.7,53.7,0,0,0-8.63-6.78c-5.77-3.8-10.53-5.21-22.65,0,0,0,.36-7.79-6.88-16.79A28.94,28.94,0,0,1,69.82,52.41Z"/><path d="M63.44,87a21.15,21.15,0,0,0-5.16,2.7,23,23,0,0,0-4.2,4.28c-.84,1.11-1.72,2.77-.93,4.14.93,1.6,3.68,1.41,5.25,1.51a46.55,46.55,0,0,0,25.53-5.94c3.61-2,8.26-5,9.31-9.34.12-.49-.57-1-.93-.54a42.18,42.18,0,0,1-3.18,3.87,23.94,23.94,0,0,1-4,3.16,44.4,44.4,0,0,1-10.18,4.77A45.79,45.79,0,0,1,64,97.7a52.28,52.28,0,0,1-5.6.12c-.86,0-1.72-.09-2.57-.18-.55,0-1.3,0-1.53-.68a2.38,2.38,0,0,1,.25-1.45,13.84,13.84,0,0,1,3.85-4.6,24.67,24.67,0,0,1,5.14-3.72c.13-.06,0-.3-.1-.24Z"/><path d="M55.69,102.89c4.09,1.57,9.19,1.26,13.45.7S78,102,81.72,99.71a.24.24,0,0,0-.18-.43c-4.25,1.45-8.34,2.94-12.83,3.46a44.15,44.15,0,0,1-6.4.25c-2.2-.07-4.38-.43-6.58-.45-.21,0-.22.28,0,.35Z"/><path d="M54.87,113.32c.43,1.41,3.39,1,4.48.94a50.14,50.14,0,0,0,6.24-.5,55.67,55.67,0,0,0,12.74-3.42A82.89,82.89,0,0,0,100,97c1.82-1.5,3.59-3.06,5.33-4.65.93-.84,1.84-1.7,2.71-2.6a4.27,4.27,0,0,0,1.51-2.37.45.45,0,0,0-.45-.45c-1.63.16-3.09,2-4.23,3.09q-2.34,2.19-4.78,4.27A101.13,101.13,0,0,1,89.94,102a64.45,64.45,0,0,1-23.3,9.71,47.08,47.08,0,0,1-7.29.77c-.55,0-4.85-.42-4.48.84Z"/><path d="M59,107.84a18.77,18.77,0,0,0,8.36.72,18.68,18.68,0,0,0,7.86-2.4.18.18,0,0,0-.14-.33,37.58,37.58,0,0,1-8,2,39.32,39.32,0,0,1-8-.32c-.21,0-.22.29,0,.36Z"/><path d="M84.55,101.22a8.62,8.62,0,0,0,2.1-.84,20.31,20.31,0,0,0,2.09-1.17,27.87,27.87,0,0,0,3.73-2.85,27.07,27.07,0,0,0,3.26-3.51A17,17,0,0,0,98.21,89c.18-.45-.5-.67-.75-.31-.87,1.25-1.56,2.61-2.52,3.83a27.09,27.09,0,0,1-3,3.3,26.2,26.2,0,0,1-3.54,2.75c-.64.42-1.29.83-2,1.2a20.42,20.42,0,0,0-2,1.11.2.2,0,0,0,.15.36Z"/><path d="M94.72,86.21c-1.2,1.5-2.3,3.06-3.62,4.47-.65.69-1.32,1.34-2,2l-1.08,1c-.38.33-.68.73-1.07,1.06-.14.12,0,.36.2.26.4-.26.85-.45,1.23-.74s.75-.61,1.12-.94c.73-.66,1.43-1.36,2.1-2.09a21.89,21.89,0,0,0,3.47-4.7c.11-.2-.17-.45-.33-.25Z"/><path d="M67.5,85.6a6.26,6.26,0,0,0-.36,1.78c-.09.63-.19,1.25-.31,1.87-.22,1.17-.5,2.33-.83,3.47s-.76,2.42-1.23,3.6c-.26.68-1.41,2.57-.07,2.83,1.13.21,1.56-1.83,1.84-2.59q.63-1.73,1.11-3.51c.31-1.19.57-2.39.77-3.6.1-.62.19-1.24.26-1.86a5.13,5.13,0,0,0,0-1.83.68.68,0,0,0-1.23-.16Z"/><path d="M72.72,82.93c0,.32-.52.56-.62.88a3,3,0,0,0,0,.79c0,.64,0,1.29,0,1.94a29.59,29.59,0,0,1-.34,3.88,37.35,37.35,0,0,1-2.09,7.47c-.39,1,1.36,1.79,1.82.77a29.37,29.37,0,0,0,2.18-7.85,33.52,33.52,0,0,0,.32-4q0-1-.06-1.95a4.71,4.71,0,0,0-.11-1.06c-.12-.35-.75-.62-.81-.91,0-.13-.23-.1-.23,0Z"/><path d="M60.94,72.66c.74-.36,1.56-.61,2.32-.93a18.9,18.9,0,0,1,2.44-.82,1,1,0,0,0,.73-1c.08-1.78.08-3.56.12-5.33a1,1,0,0,0-2,0c0,1.77-.08,3.55-.07,5.33l.73-1a18.21,18.21,0,0,0-2.66,1.11,11.52,11.52,0,0,0-2.25,1.67c-.51.44.14,1.15.68.88Z"/><path d="M4.08,9.57A6.2,6.2,0,0,0,5.26,13a13.65,13.65,0,0,0,2.91,2.77,25.6,25.6,0,0,0,7.47,3.43c5.82,1.78,11.85,2.55,17.55,4.76s11.48,5.7,15.36,10.7,5.49,11,7.19,16.9c1.84,6.45,3.87,13.09,8.69,18,1.18,1.2,3-.62,1.84-1.83-8.49-9-7.58-22.81-14.3-32.85A34,34,0,0,0,38,23.43c-5.57-2.61-11.42-3.93-17.38-5.27a38.38,38.38,0,0,1-9.13-3,15.54,15.54,0,0,1-3.69-2.54A17.12,17.12,0,0,1,6.34,11C5.83,10.4,5.19,10,4.7,9.32a.34.34,0,0,0-.62.25Z"/><path d="M64.29,67.63a24.29,24.29,0,0,1-2.58-11.2,20.13,20.13,0,0,1,.86-5.67,58.67,58.67,0,0,1,2.26-5.46,22.42,22.42,0,0,0,2-10.88A30.05,30.05,0,0,0,63.64,23.8a46.36,46.36,0,0,0-7.19-11c-.53-.57-1.38.16-1,.81C57.2,17,59.73,20,61.55,23.45a28.8,28.8,0,0,1,3.58,11.41c.29,4.07-.92,7.56-2.3,11.31A28.66,28.66,0,0,0,60.9,56.64a22.64,22.64,0,0,0,3.19,11.11c.07.13.27,0,.2-.12Z"/><path d="M56.38,51.7c.93-.2,1.14-1.22,1.06-2.07A13.68,13.68,0,0,0,57,47.87,8.21,8.21,0,0,1,56.9,45c.41-3.51,2.19-6.7,2.5-10.24.61-7-4.94-12.59-9.81-16.78C48.06,16.7,46.5,15.42,45,14a30.29,30.29,0,0,1-2.17-2.22A4.14,4.14,0,0,0,41,10.3a.31.31,0,0,0-.39.3c-.11,1.63,2,3.25,3,4.3,1.48,1.46,3.07,2.81,4.64,4.17,3.16,2.72,6.31,5.6,8.17,9.4a12.47,12.47,0,0,1,1.34,6.11,27.17,27.17,0,0,1-1.43,6.21,15.6,15.6,0,0,0-.84,5.7A10.36,10.36,0,0,0,56,48.88c.3.86.85,1.87.3,2.74a.05.05,0,0,0,.06.08Z"/><path d="M23.55,3c.83,7,7.75,10.87,13.29,14a39.94,39.94,0,0,1,9.3,6.52A28.06,28.06,0,0,1,52,32.25a33.46,33.46,0,0,1,2.49,11.81.39.39,0,0,0,.78,0,20.49,20.49,0,0,0,.05-5A29.32,29.32,0,0,0,54.08,34a29.16,29.16,0,0,0-12.4-15.69c-3.31-2.09-6.89-3.72-10.1-6A20,20,0,0,1,24,2.93c-.08-.2-.45-.19-.42.06Z"/><path d="M31.83,20.87c-.21-.46-.55-.48-1-.67-.67-.28-1.35-.57-2-.89A17,17,0,0,1,25.32,17a17,17,0,0,1-4.89-6.94c-.92-2.49-1.71-5-4.22-6.36a11.66,11.66,0,0,0-7.44-1,.52.52,0,0,0,0,1c2.64.51,5.57,0,7.78,1.89s2.44,5.11,3.77,7.47a17.73,17.73,0,0,0,5,5.59,18,18,0,0,0,3.5,2c.74.32,2.2,1.06,2.94.53a.22.22,0,0,0,.07-.28Z"/><path d="M4.38,18.81c1.54,2.36,5,2.36,7.45,2.06,1.59-.19,3.14-.61,4.72-.8a11.44,11.44,0,0,1,5.13.52c.72.23,1-.75.48-1.14-2.57-1.87-6.31-.8-9.13-.18a17,17,0,0,1-4.26.54,8.17,8.17,0,0,1-4-1.34.25.25,0,0,0-.34.34Z"/><path d="M3.94,8.48a.37.37,0,0,0,.36-.23.41.41,0,0,0,0-.19c0-.05,0-.13,0,0a1,1,0,0,0,0-.17.65.65,0,0,0-.39-.45.67.67,0,0,0-.64.07l.22-.06-.14,0a.76.76,0,0,0-.71.54,3.73,3.73,0,0,0,.72,2.37,7.92,7.92,0,0,0,1.55,1.87A.77.77,0,0,0,6,11.08q-.39-.39-.75-.81L5.07,10,5,9.94H5l-.34-.48c-.21-.3-.38-.63-.58-.94A5.43,5.43,0,0,0,3.65,8a1,1,0,0,0-.54-.41.5.5,0,0,0-.56.23,1.8,1.8,0,0,0,.16,1.46,7,7,0,0,0,.61,1,11.58,11.58,0,0,0,1.61,1.89L6,11.08a7.18,7.18,0,0,1-.78-.78l-.18-.22c0-.05,0-.05,0,0L5,10c-.11-.15-.22-.31-.32-.47a5.69,5.69,0,0,1-.49-.95c.06.16,0,0,0-.1l0-.1c0-.16,0,0,0,0s0-.18,0-.2a.86.86,0,0,0-.29-.65l.07.53s-.11,0-.16,0,0,0,.09,0a.33.33,0,0,0,.13.07c.19,0-.07-.05-.06-.06s.07-.07,0-.05a.19.19,0,0,0,0,.38Z"/><path d="M53.58,46.64c1.17.15,1.22-1.31,1.07-2.11a6.8,6.8,0,0,0-2.38-3.72A21.66,21.66,0,0,0,42,36.17C34.39,35,29.81,42.2,23,43.82a10.7,10.7,0,0,1-7.22-.74,6.55,6.55,0,0,1-2.25-1.86c-.53-.73-.79-1.77-1.49-2.33a.53.53,0,0,0-.74,0c-1.06,1-.33,2.8.4,3.8a8.91,8.91,0,0,0,3.68,2.79A13.29,13.29,0,0,0,26.27,45c3-1.41,5.49-3.62,8.32-5.3a14,14,0,0,1,4.56-1.86,11.82,11.82,0,0,1,6.08.69,22.44,22.44,0,0,1,5.61,2.68A7.81,7.81,0,0,1,53,43.43c.29.45,1.42,2.64.52,3a.12.12,0,0,0,0,.23Z"/><path d="M11.74,47.27c-1.24,3.55,2.84,6.83,5.67,8,4.49,1.83,9.41.52,13.82-.94,4.73-1.57,10-3.76,15-1.8,3.34,1.31,5.74,4.27,8.06,6.87,2.63,2.95,5.45,6,9.45,6.9a.87.87,0,0,0,.47-1.67C57.54,62.37,54.68,55,48.85,51.48c-3.77-2.27-8.17-2.14-12.32-1.11-4.77,1.19-9.35,3.66-14.35,3.7a10.47,10.47,0,0,1-6.27-1.9c-1.84-1.32-2.54-3.05-3.52-5a.36.36,0,0,0-.65.08Z"/><path d="M54.71,119.71a57.37,57.37,0,0,0,13.85-.53A66.36,66.36,0,0,0,82,115.54a72,72,0,0,0,23.22-14.33,67.11,67.11,0,0,0,5.43-5.63,42.32,42.32,0,0,0,4.69-6.23c.31-.54-.48-1.21-.9-.69-1.43,1.79-2.71,3.69-4.18,5.44s-3,3.34-4.55,4.89a70.14,70.14,0,0,1-10.6,8.46,71.64,71.64,0,0,1-25,10.22,82.13,82.13,0,0,1-15.4,1.6.22.22,0,0,0,0,.44Z"/><path d="M59.56,124.51c.73.15,1.43.38,2.16.49a13.39,13.39,0,0,0,2.28.1,24.3,24.3,0,0,0,4.65-.55c2.92-.63,6.07-1.71,8.24-3.82.21-.2,0-.47-.28-.37-2.72,1.22-5.26,2.63-8.21,3.3a23.25,23.25,0,0,1-4.4.57,30.77,30.77,0,0,1-4.4,0c-.16,0-.2.25,0,.28Z"/><path d="M59.58,130.62a32.36,32.36,0,0,0,11.26-.81,36.49,36.49,0,0,0,5.26-1.76c1.58-.67,3.64-1.38,4.72-2.78a.23.23,0,0,0-.22-.38c-1.65.32-3.15,1.47-4.68,2.14a33.73,33.73,0,0,1-5.34,1.85,39.58,39.58,0,0,1-11,1.23c-.34,0-.32.48,0,.51Z"/><path d="M70.57,134.36a128,128,0,0,0,41.2-20.92c3.26-2.48,7-5,9.3-8.41.14-.22-.14-.46-.34-.35-3.18,1.79-5.81,4.47-8.67,6.7-3.08,2.4-6.27,4.67-9.54,6.79a144.24,144.24,0,0,1-19.8,10.7c-4,1.79-8.13,3.49-12.31,4.92-.35.12-.21.68.16.57Z"/><path d="M7.4,23.08a8.05,8.05,0,0,0,4.51,6.38c3.18,1.52,6.1.21,9.14-1,7.41-2.86,16.08-1.09,22.6,3.09,3.61,2.31,6.23,5.5,9.4,8.31a.33.33,0,0,0,.52-.4,23.24,23.24,0,0,0-6.8-7.27,31,31,0,0,0-9.11-4.87A26,26,0,0,0,26.8,26.17a22.07,22.07,0,0,0-5.35,1.39,29.9,29.9,0,0,1-5.15,1.86,7.69,7.69,0,0,1-8.7-6.37c0-.11-.21-.09-.2,0Z"/><path d="M25,60.2c.55,3,2.78,4.92,5.59,5.9,3.38,1.18,6.91.75,10.27-.27,6.92-2.08,15.62-7.27,21.81-.79.62.66,1.81-.21,1.27-1-1.83-2.6-5.16-3.69-8.22-3.8-3.82-.14-7.37,1.18-10.85,2.59-3.67,1.48-7.51,3.23-11.56,2.81-3.37-.35-6.92-2.17-8.19-5.49a.06.06,0,1,0-.12,0Z"/><path d="M39.29,7.47c.26.64.51,1.29.77,1.94a5.42,5.42,0,0,0,.43.95c.06.09.14.15.2.23l.12.18a.49.49,0,0,0,.5.22c.39-.12.24-.59.22-.88a3.38,3.38,0,0,0-.33-1l-.81-1.92a.59.59,0,0,0-.71-.4.56.56,0,0,0-.39.7Z"/></g></g></svg>