<svg xmlns="http://www.w3.org/2000/svg" viewBox="0 0 211.87 118.07"><defs><style>path{fill:#007fff}.cls-1,.cls-2{fill:#fff;}.cls-1{stroke:#007fff;stroke-miterlimit:10;stroke-width:3px;}</style></defs><g id="Camada_2" data-name="Camada 2"><g id="Camada_4" data-name="Camada 4"><path class="cls-1" d="M56.25,37.41s-21.53-48-43.53-33c-21.21,14.47-7,21-.58,12.64C20.85,5.68,42.32,18.59,53,46c0,0-25.23,25.22,3.23,44.81S119,94.39,132.34,71.4c0,0,11.27-8.93,10.82.54,0,0-14.44,42.46,14.56,44.46s42-15,46-20,20-48-19-47c0,0-16.85-.7-31.93,14.15,0,0-3.07-4.15-13.07-5.15,0,0-6.14-32.18-49.07-28.09C90.65,30.31,68.79,30.41,56.25,37.41Z"/><path class="cls-2" d="M98.31,36.27a50.19,50.19,0,0,0-43,22.37c-2,3.11-3.72,6.67-3.39,10.36a15.24,15.24,0,0,0,1.81,5.5c6.21,12,20.35,19,33.88,18.18S113.74,84.05,122,73.27c4.14-5.43,7.39-12.19,6.16-18.91s-7.06-12.2-13.54-14.78S101,36.73,94,36.63"/><path d="M98.31,36C84.35,35.31,71,40.79,61,50.43a47.36,47.36,0,0,0-6.65,7.89c-2.08,3.12-3.87,6.83-3.57,10.68.28,3.62,2.13,7.09,4.22,10a34.38,34.38,0,0,0,6.83,7.06c10.93,8.45,25.67,10.12,38.46,5.21A50.76,50.76,0,0,0,118,79.58c5.18-5.21,10.06-11.85,11.16-19.29,1.05-7-2.11-13.48-7.63-17.79-6.1-4.77-13.86-6.18-21.42-6.57-2.06-.1-4.11-.14-6.17-.16a.86.86,0,0,0,0,1.72c7.45.14,15.35.39,22.14,3.82,5.61,2.83,10.6,8,11.15,14.52.61,7.23-3.68,14-8.26,19.17a50.92,50.92,0,0,1-15.63,12.06c-11.46,5.65-25,5.88-36.2-.57A32.09,32.09,0,0,1,54.72,73.67a12.64,12.64,0,0,1-1.67-5.73,13.12,13.12,0,0,1,1.28-5.39,38.05,38.05,0,0,1,5.5-8.46C68.16,44,80.67,38,93.56,36.74a41.84,41.84,0,0,1,4.75-.21c.35,0,.34-.51,0-.53Z"/><path class="cls-2" d="M190,56a39.16,39.16,0,0,0-42.17,31.58c-.75,3.89-.89,8,.61,11.7,2.52,6.17,9.36,9.83,16,10s13.12-2.45,18.82-5.92c6.1-3.72,11.7-8.53,15.29-14.72s4.94-13.88,2.58-20.63-8.83-12.17-16-12.25"/><path d="M190.13,55.65c-5.83-1.39-12.47,0-18,2a40.4,40.4,0,0,0-14.9,9.75A41.26,41.26,0,0,0,148.18,82c-2.06,5.72-3.24,12.49-.69,18.25,2.17,4.92,6.94,8.29,12,9.69,5.85,1.6,12.06.46,17.56-1.83A53.41,53.41,0,0,0,192.7,98.08c4.45-4.14,8.17-9.3,9.74-15.24,1.68-6.38,1.36-13.52-2.33-19.16-3.27-5-8.82-8.65-14.9-8.66a.82.82,0,0,0,0,1.64,16.69,16.69,0,0,1,12.62,7.08,20.11,20.11,0,0,1,3,15.82c-2.4,11.08-11.41,19.23-21.06,24.34-5,2.68-10.76,4.58-16.54,4-4.71-.46-9.61-2.79-12.32-6.77-3.24-4.76-2.64-11-1.23-16.26a38.24,38.24,0,0,1,7.09-14,37.3,37.3,0,0,1,14.42-11,38.93,38.93,0,0,1,9-2.65,84.52,84.52,0,0,1,9.8-.73.39.39,0,0,0,.1-.77Z"/><path d="M95.08,36.72a4.37,4.37,0,0,0-1.8,0c-.64.06-1.27.1-1.9.19-1.35.17-2.69.45-4,.7a56.73,56.73,0,0,0-8,2.13.29.29,0,0,0,.15.55c2.67-.53,5.31-1.15,8-1.72,1.27-.28,2.56-.52,3.84-.77.69-.14,1.37-.31,2-.47a4.59,4.59,0,0,0,1.73-.52s0-.07,0-.09Z"/><path class="cls-2" d="M198.71,86.93a129.77,129.77,0,0,0-11-14.71c-2.81-3.26-6.11-6.57-10.37-7.22A10,10,0,0,0,168,68.85c-1.45,2-1.73,5.42.55,6.31,3.05,1.2,5.6-3.79,8.85-3.34a5.67,5.67,0,0,1,3.08,2.05A112.13,112.13,0,0,1,194.9,93"/><path d="M199.22,86.63a57.23,57.23,0,0,0-6-9.21,97.5,97.5,0,0,0-6.32-7.72c-3.94-4.23-9.38-7.52-15.23-5.09a9.77,9.77,0,0,0-5.52,5.26c-.75,2-.68,4.76,1.3,6s4.16.2,5.9-1a12.13,12.13,0,0,1,2.76-1.77c1.5-.56,2.61.52,3.6,1.53A104.08,104.08,0,0,1,194,93.45a1,1,0,0,0,1.72-1,115.57,115.57,0,0,0-10.95-15.25q-1.47-1.72-3-3.41a10.21,10.21,0,0,0-3.17-2.72c-2-.9-4,0-5.64,1.19-1.05.75-3.55,3.09-4.7,1.3-1.27-2,.83-4.64,2.34-5.74a9,9,0,0,1,7.55-1.48,15.66,15.66,0,0,1,6.92,4.58c4.93,5,8.7,11,13.16,16.44.45.55,1.21-.15.93-.72Z"/><path d="M9.28,14.46A11.07,11.07,0,0,1,13.39,10a10.66,10.66,0,0,1,2.76-1.17,10.14,10.14,0,0,1,1.46-.26A6.78,6.78,0,0,0,19.1,8.4a.21.21,0,0,0,0-.4A5.23,5.23,0,0,0,16,8.16a10.86,10.86,0,0,0-3,1.31,9.66,9.66,0,0,0-4,4.87c-.06.16.2.27.28.12Z"/><path d="M171.79,71a10.15,10.15,0,0,0,1.72-1.09,6.19,6.19,0,0,1,2-.7,6.5,6.5,0,0,1,2.11,0,10.16,10.16,0,0,1,1.06.25,4.51,4.51,0,0,1,1.09.3c.13.07.3-.11.17-.22a7.37,7.37,0,0,0-.93-.74,4.31,4.31,0,0,0-1.16-.4,6.46,6.46,0,0,0-2.44,0,6.39,6.39,0,0,0-2.27.86c-.59.37-1.38.91-1.44,1.65a.07.07,0,0,0,.09.07Z"/><path d="M184.23,109c.37-.14.74-.23,1.11-.39a12.46,12.46,0,0,0,1.21-.61c.76-.44,1.5-.9,2.23-1.39a24,24,0,0,0,2-1.48,24.6,24.6,0,0,0,1.95-1.87c.12-.12-.06-.29-.19-.18-.68.52-1.39,1-2.08,1.51s-1.38,1-2.08,1.48-1.38.91-2.09,1.33c-.35.21-.69.41-1,.63s-.74.52-1.12.77c-.09.06,0,.24.09.2Z"/><path d="M52,53.51c-2.49,4.91-4.74,10.24-4.87,15.83-.11,4.34,1.51,9.57,5.38,12a.36.36,0,0,0,.44-.57,16.75,16.75,0,0,1-3.88-5.47,18.72,18.72,0,0,1-1.35-6.49c-.18-5.38,2.16-10.42,4.53-15.11.09-.17-.17-.32-.25-.15Z"/></g></g></svg>