<svg xmlns="http://www.w3.org/2000/svg" viewBox="0 0 142.35 95.34"><defs><style>path{fill:#007fff}.cls-1{fill:#fff;stroke:#007fff;stroke-miterlimit:10;stroke-width:3px;}</style></defs><g id="Camada_2" data-name="Camada 2"><g id="Camada_3" data-name="Camada 3"><path class="cls-1" d="M2.18,81.94S23.27,104.56,68,79.58c0,0,13.19-9.7,24.49,6.16s29.16,3.6,30.23,3.23,8.39,5.37,16.73,0c0,0,4-33.51-1.81-53.94,0,0-4-33.52-15.43-33,0,0-6.57-2.6-13.5,3.47,0,0,4.3,28,.69,39.54l-9.62,3.53-1.88,4.94S12.53,73.29,2.18,81.94Z"/><path d="M110.35,21.48c0,2.38-.33,4.75-.33,7.13s0,4.59,0,6.89q0,7-.28,14c-.18,4.75-.5,9.51-.85,14.25-.17,2.27-.38,4.54-.57,6.81a17.5,17.5,0,0,0,.38,6.49,10.87,10.87,0,0,0,3.08,4.8c1.29,1.17,3.29,2.77,5.12,2.58a.92.92,0,0,0,.64-1.55c-1.12-1.16-2.85-1.6-4.08-2.71a8.57,8.57,0,0,1-2.67-4.41,20.93,20.93,0,0,1,0-6.37q.28-3.3.51-6.62c.59-8.75.77-17.54.67-26.31,0-2.46-.07-4.92-.19-7.38,0-1.13-.06-2.27-.22-3.4-.19-1.41-.52-2.8-.63-4.22,0-.34-.55-.35-.55,0Z"/><path d="M114.77,79.48c1.89.27,3.82,0,5.73.15a41.81,41.81,0,0,1,6.1.74A29.29,29.29,0,0,1,132,81.9c.7.3,3.87,1.89,2.72,2.86s-3.32.56-4.59.36A19.47,19.47,0,0,1,125,83.53a54.32,54.32,0,0,1-9.27-6l-.65,2.37a32.33,32.33,0,0,1,12.71,1.21,1.29,1.29,0,0,0,.68-2.49,35.61,35.61,0,0,0-13.39-1.26,1.29,1.29,0,0,0-.64,2.37c5.27,4,11.7,8.42,18.64,7.89A5,5,0,0,0,136.66,86a2.84,2.84,0,0,0-.2-3.66c-2.07-2.59-5.84-3.37-8.92-3.92a37.3,37.3,0,0,0-6.24-.64,17.52,17.52,0,0,0-6.53.75c-.37.15-.52.84,0,.91Z"/><path d="M121.93,79.32c-.52-.55-.74-1.17-1.41-1.58-1-.65-2,.42-1.88,1.45.35,2.37,3.58,2.9,5.43,3.51l7.84,2.57.37-2.74A31.11,31.11,0,0,1,124.64,81c-1.47-.49-2.54,1.92-1.07,2.55A21.56,21.56,0,0,0,128.34,85a23,23,0,0,0,2.48.28,6.35,6.35,0,0,0,2.26-.12,2.07,2.07,0,0,0,.48-3.75,8.64,8.64,0,0,0-2.2-1l-2.49-.93a1.4,1.4,0,0,0-1.65.81,1.42,1.42,0,0,0,.57,1.75l4.83,3.27c.8.54,1.82,1,2.63.16a1.54,1.54,0,0,0-.76-2.53,1.39,1.39,0,0,0-1.54.63l0,.07a1.39,1.39,0,0,0,.35,1.76,1.36,1.36,0,0,0,1.79-.11l0-.06-1.65.21.08,0L133,85l.06.09L133,84.06l0,.1,1-1-.15,0h.75a6.11,6.11,0,0,1-1.14-.76L132,81.53l-2.76-1.86-1.08,2.56,2.35.88,1.05.39a2,2,0,0,0,.37.17c.24,0,0,0-.06-.08v-.74c.12-.76.56-.15.18-.33a4.68,4.68,0,0,0-1.06,0,16.52,16.52,0,0,1-2-.21,18.33,18.33,0,0,1-4-1.15l-1.08,2.55a34.17,34.17,0,0,0,8.38,1.63c1.62.11,1.8-2.27.37-2.74-2.26-.73-4.52-1.44-6.78-2.16l-3.25-1c-.47-.15-1.39-.32-1.51-.88l-1.23,1.62c.49,0,1-.25,1.38.06s1.09-.43.67-.87Z"/><path d="M111.53,40.15a20,20,0,0,1,6-3.14,33.28,33.28,0,0,1,7-1.06c2.43-.17,5.26-.58,7.58.36s3.13,3.53,5.18,4.83c.64.41,1.26-.27,1.17-.9-.37-2.39-2.93-4.88-5.05-5.88-2.68-1.27-5.84-.86-8.69-.62-4.64.39-11.12,1.34-13.79,5.73-.25.41.27,1,.69.68Z"/><path d="M113.5,6.58a122.63,122.63,0,0,0,1.71,16.56.1.1,0,0,0,.2,0c-.42-5.52-1.26-11-1.83-16.53a0,0,0,0,0-.08,0Z"/><path d="M116.21,15.58a17.1,17.1,0,0,0,.28,2.93l.33,2.93c.21,1.9.5,3.78.8,5.67,0,.15.27.12.26,0-.19-1.91-.39-3.8-.66-5.69l-.43-2.92a16.66,16.66,0,0,0-.47-2.91c0-.06-.1,0-.11,0Z"/><path d="M115.46,42.9a94.21,94.21,0,0,0-.54,10.23,85.57,85.57,0,0,0-.14,10.62c0,.17.3.24.32,0a81.66,81.66,0,0,0,.42-10.26,99.21,99.21,0,0,0,.06-10.63c0-.06-.11-.09-.12,0Z"/><path d="M117.69,47.94c0,6.47-.3,12.94-.18,19.41a.09.09,0,0,0,.17,0,184.89,184.89,0,0,0,.57-19.41.28.28,0,0,0-.56,0Z"/><path d="M124.37,84.15l-.36.54-.17.26c-.06.1-.11.2-.16.3s.06.16.13.09a1.94,1.94,0,0,0,.23-.26l.18-.26.39-.53a.14.14,0,0,0,0-.19.13.13,0,0,0-.19.05Z"/><path d="M124.2,88.48a4.32,4.32,0,0,0-2.29-4.41,8.3,8.3,0,0,0-6.15-.65c-2.51.55-5,1.72-7.59,1.35a9.84,9.84,0,0,1-5.7-3.08c-3.76-4-1.81-9.17-1.77-14,0-4.26-2.2-8-6.53-9C84.16,56.43,78,66.8,69.1,69c-9.45,2.36-20-1.45-28.87,3.4-2.69,1.47-4.88,3.64-7.43,5.32a22.24,22.24,0,0,1-8.24,3.18,45.87,45.87,0,0,1-9,.6c-1.4,0-2.8-.07-4.2-.14S8.43,81.3,7.79,80c-.43-.91-1.84-.11-1.36.8.91,1.74,3,1.93,4.73,2,2.59.12,5.19.21,7.78.12,4.86-.17,9.83-1,14-3.58,2.29-1.41,4.26-3.26,6.5-4.75A18.6,18.6,0,0,1,46.3,71.8c5-1,10.07-.42,15.07-.47,4.82,0,9.51-.65,13.75-3.1s7.81-6.31,12.57-7.57c3.79-1,9.08-.48,10.54,3.83,1.57,4.64-1.23,9.64.18,14.37A11.76,11.76,0,0,0,108.74,87c2.89.18,5.46-1.17,8.22-1.7,2.2-.42,5.61.27,5.92,3,.08.68,1.2,1,1.32.18Z"/><path d="M17.74,88.47c6.4,2.24,14.63,3.09,19.58-2.47a48.39,48.39,0,0,1,3.84-4.37A13.27,13.27,0,0,1,46.08,79a16.4,16.4,0,0,1,5.3-.63c2.1.09,4.11.72,6.2.88,3.7.28,6.59-1.21,9.53-3.3s5.75-4.2,9.51-4.33c8.5-.3,13.92,8.15,18.85,13.76,2.81,3.19,6,6,10,7.6,3.38,1.3,7.84,1.76,10.82-.68.43-.35,0-1.09-.53-.92a15.31,15.31,0,0,1-5.13,1.06A14.59,14.59,0,0,1,105,91.17c-3.63-1.57-6.43-4.34-9-7.27-5-5.68-9.66-12.06-17.53-13.61A12.74,12.74,0,0,0,69,72.47c-2.71,1.71-5.33,4.13-8.61,4.67-2.23.38-4.43-.6-6.62-1a17.78,17.78,0,0,0-5.15,0A15.71,15.71,0,0,0,39.5,80.5C38,82.06,37,84,35.52,85.63a10.37,10.37,0,0,1-5.36,3.2c-4.06,1-8.34-.06-12.39-.59-.14,0-.15.19,0,.23Z"/><path d="M115.75,83.16c-4.4,1.75-7.65-2.27-9.31-5.79a13.53,13.53,0,0,1-1.59-6.78c.18-2.08,1.15-4,1.67-6a7.6,7.6,0,0,0-3.34-8.42c-3.3-2.29-7.43-2.26-11.26-1.83-5,.56-10,1.37-15,2.25-.43.07-.33.77.1.75,4.59-.18,9.14-.42,13.73-.84,4-.37,8.73-.82,12,2a6.44,6.44,0,0,1,2.35,4.68c.07,2.09-.78,4-1.16,6-.74,3.87.63,7.88,2.69,11.14,1.89,3,5.91,5.87,9.29,3.26.18-.14.09-.52-.18-.42Z"/><path d="M115.89,82.67c-1.15,1.88-4.54-2.79-5.26-3.74a18.76,18.76,0,0,1-3.06-5.51,10.14,10.14,0,0,1,0-6.35c.63-2,1.68-3.81,2.32-5.8a13.39,13.39,0,0,0-7.39-16.09c-.69-.28-1.19.89-.51,1.22a12.26,12.26,0,0,1,6.23,15.3c-1.25,3.34-3,6.3-2.48,10a17.45,17.45,0,0,0,4.1,8.4c1,1.28,2.38,3.22,4,3.81a1.77,1.77,0,0,0,2.39-1.1c.06-.18-.2-.28-.3-.13Z"/><path d="M108.24,45.62a1.3,1.3,0,0,0-.5.89,2.6,2.6,0,0,0,.16.71c.1.38.2.75.31,1.13.21.76.44,1.51.68,2.26a1,1,0,0,0,1,.69,1,1,0,0,0,.83-.95,6.24,6.24,0,0,0-3.17-5,1,1,0,0,0-1.51,1.16,15.24,15.24,0,0,0,2,4,1.08,1.08,0,1,0,1.86-1.1c-.43-1-.87-2-1.31-3a1.11,1.11,0,0,0-2,.85c.34,1,.63,2.07.88,3.11.12.53.24,1.06.34,1.59a3.14,3.14,0,0,0,.62,1.7,1,1,0,0,0,1.49-.19,1.86,1.86,0,0,0,.2-1c0-.32-.1-.64-.16-1-.11-.55-.22-1.1-.35-1.65-.25-1.07-.55-2.13-.89-3.17l-2,.85c.45,1,.9,2,1.36,3l1.86-1.1A13.84,13.84,0,0,1,108.07,46l-1.51,1.16a4.37,4.37,0,0,1,.84.54l.44.44a2.6,2.6,0,0,1,.27.34,4.94,4.94,0,0,1,.3.49l.14.28c.06.13,0,0,0,.11s.12.36.17.55,0,.2.07.3,0,0,0,.16l1.89-.25c-.26-.74-.51-1.49-.74-2.24-.11-.35-.22-.71-.32-1.06a4.79,4.79,0,0,0-.21-.64c-.18-.41-.52-.51-.92-.62a.32.32,0,0,0-.31.08Z"/><path d="M108,64.11a15,15,0,0,0-1.23,5.45,16.6,16.6,0,0,0,0,2.73,6.86,6.86,0,0,0,.21,1.42,1.27,1.27,0,0,0,.48.66,2.23,2.23,0,0,0,.43.15.33.33,0,0,0,.34-.09c-.19.08-.18.07,0,0l.21-.18a1,1,0,0,0,.25-.53,5,5,0,0,0-.07-1.33,23.22,23.22,0,0,1-.12-2.64,28.1,28.1,0,0,1,.71-5.09c.15-.72-.92-1.3-1.26-.54Z"/><path d="M99.25,53.69a9.46,9.46,0,0,1,.69-1.39,6.62,6.62,0,0,1,.83-1.25A10.74,10.74,0,0,1,103.36,49a12.29,12.29,0,0,1,2.81-1.4c.68-.21,1.74-.47,2.11.33l.86-1.12a3.57,3.57,0,0,0-1.65-.21.6.6,0,0,0-.26,1,3.47,3.47,0,0,0,1.5.68.78.78,0,0,0,.87-1.12A2.69,2.69,0,0,0,106.45,46a14,14,0,0,0-6.54,4.27,4.94,4.94,0,0,0-.85,1.64,3,3,0,0,0,.14,1.76s0,0,0,0Z"/></g></g></svg>