<svg xmlns="http://www.w3.org/2000/svg" viewBox="0 0 183.82 186.02"><defs><style>path{fill:#007fff}.cls-1,.cls-2{fill:#fff;}.cls-1{stroke:#007fff;stroke-miterlimit:10;stroke-width:3px;}</style></defs><g id="Camada_2" data-name="Camada 2"><g id="Camada_5" data-name="Camada 5"><path class="cls-1" d="M4.55,53S14,47.89,21,47.89c0,0-3.12-25.31,2.94-35.66,0,0,4,8,19,6.84a11,11,0,0,0,8-8.9l4.6,30.71,17.81.27S73.2,59.52,63.12,65.7c0,0,3.77,6.07-3.15,13.13,0,0,64.07-12.94,73.07-10.94l-2,53s39.46,2.28,47.73,11.14c0,0,10.87,4.69-5.43,7.77,0,0-2.15,15.08,3.78,19.59,0,0-32.6,14.16-73.84,10.33,0,0-32.4-.42-52.32-13.13,0,0-5.78,12.4-32.85,26.85,0,0,3.56-61.48-2.25-74.52,0,0,15.62-10.07,12.4-25.55,0,0-8-8-9.6-18.21C18.66,65.16,17.05,55.14,4.55,53Z"/><path d="M6.21,52.68A93.62,93.62,0,0,0,22,48.93a292.68,292.68,0,0,1,.51-35.54,24.29,24.29,0,0,0,19.68,6.74c3.36-.41,7.14-2.1,7.78-5.44l3.18,26.84a2.61,2.61,0,0,0,.9,2,2.59,2.59,0,0,0,1.49.24L71,43.1c1.68,4.63-.81,9.69-3.64,13.71s-6.22,8.07-6.6,13c-.15,1.89.17,3.82-.22,5.67-.59,2.82-2.75,5-5.13,6.66-10.64,7.21-27.18,2.8-32.86-8.77-2.13-4.33-2.84-9.25-4.92-13.6S11.3,51.44,6.54,52.05A21.63,21.63,0,0,1,20,48.94"/><path d="M6.21,53.39a87,87,0,0,0,16-3.43,1.09,1.09,0,0,0,.79-1,339.85,339.85,0,0,1,.82-35.54l-2.35,1A25.81,25.81,0,0,0,37.87,21.6C42.74,21.91,50,20.75,51.2,15l-2.58-.35q1.55,12.68,3,25.37c.18,1.51.14,3.41,1.45,4.44s3.69.56,5.33.49L71,44.43l-1.28-1c2.71,8.08-6.16,14.68-9,21.38a15.45,15.45,0,0,0-1.31,5.68c-.06,2.16.28,4.36-.77,6.35-1.49,2.88-4.6,4.89-7.56,6a22.48,22.48,0,0,1-17.19-.74A21.74,21.74,0,0,1,26.73,77,23.87,23.87,0,0,1,22,67.85c-1.34-4.24-2.43-8.64-5.23-12.19-2.45-3.12-6.15-5.53-10.25-5.1l.75,2.78a21.94,21.94,0,0,1,12.75-3c1.83.1,1.71-2.55,0-2.78A22.11,22.11,0,0,0,5.78,50.77c-1.17.71-.79,2.93.76,2.77,3.83-.4,7,2.23,8.9,5.32,2.29,3.67,3,8.06,4.5,12.06a23.87,23.87,0,0,0,13.2,14,25.26,25.26,0,0,0,18.34.78,18.72,18.72,0,0,0,8.36-5.72A10.09,10.09,0,0,0,62,74.77c.25-2.28-.17-4.55.42-6.8,1.17-4.54,4.58-8,7-11.9s4.36-8.7,2.8-13.33a1.36,1.36,0,0,0-1.28-1l-11.13.52L57,42.43c-.57,0-2,.31-2.33-.12s-.32-1.7-.39-2.25l-.35-2.93q-1.34-11.22-2.64-22.44c-.15-1.36-2.22-1.92-2.58-.35C47.61,19,40.83,19.2,37.09,18.82a23.08,23.08,0,0,1-13.63-6.41,1.4,1.4,0,0,0-2.36,1,265.11,265.11,0,0,0-.2,35.54l.78-1A108.26,108.26,0,0,1,6,52c-.78.14-.61,1.49.19,1.4Z"/><path d="M31.81,83.44a178.52,178.52,0,0,0-2.07,32.33c.17,6.23.69,12.57,3,18.36s6.65,11,12.51,13.15a17.37,17.37,0,0,0,14.89-1.61c-3.22-3.25-8.71-2.47-12.74-4.63-3.84-2-5.77-6.42-7.08-10.57a81.72,81.72,0,0,1-3.81-26.85,63.37,63.37,0,0,0,9,28.93,14.92,14.92,0,0,0,4.25,4.94,14.47,14.47,0,0,0,5.8,1.92c7.2,1.15,14.67.78,21.62,3s13.58,8,13.39,15.34c-.08,3-1,6.57,1.28,8.41a6.94,6.94,0,0,0,3.22,1.12l12.36,2c2.2-8.87-1.12-18.47-7-25.44s-14.09-11.64-22.53-15.13c8.11,3.18,17.5,6.31,25.2,2.21-18.42-9.49-38.28-20.52-45.89-39.79-.82-2.09-1.65-4.43-3.63-5.48s-4.25-.44-6.42-.53c-3.63-.15-7-2.22-10.64-2.12s-7.3,4.58-4.71,7.13"/><path d="M30.78,83.16a158.58,158.58,0,0,0-2,38.55C29.66,132,33.37,143.49,43.56,148A18.73,18.73,0,0,0,60.8,146.8a1.32,1.32,0,0,0,.27-2.06c-2.17-2.09-5-2.74-7.88-3.32-3.06-.62-5.85-1.38-7.95-3.86s-3.19-5.88-4.12-9a79.89,79.89,0,0,1-2.5-11.46,81.83,81.83,0,0,1-.77-13.46H35.16a66.07,66.07,0,0,0,5.6,22.75,44,44,0,0,0,5.66,9.88c2.49,3.05,5.95,4.11,9.72,4.66,4,.58,8.14.84,12.21,1.28A33.76,33.76,0,0,1,79.63,145a18.51,18.51,0,0,1,7.26,6,12.61,12.61,0,0,1,1.94,8.65c-.31,3.68,0,7.55,4.14,8.8a51.74,51.74,0,0,0,6.69,1.19l7.37,1.22a1.68,1.68,0,0,0,2-1.14,29.68,29.68,0,0,0-3.4-21.2c-3.65-6.57-9.4-11.7-15.75-15.6a83.45,83.45,0,0,0-11.55-5.76l-.86,3.12c8.3,3.24,17.94,6.43,26.44,2a1.62,1.62,0,0,0,0-2.77c-11.83-6.1-23.94-12.5-33.53-21.9A51.13,51.13,0,0,1,59.23,91.88C58,89,57.13,85.53,54,84.12a11.7,11.7,0,0,0-5.42-.58,16.37,16.37,0,0,1-5.33-.79c-3.65-1.07-7.59-2.3-10.94.22-2.61,2-4.12,5.58-1.62,8.27,1.37,1.46,3.56-.74,2.2-2.2-1.67-1.8,1.75-4.21,3.3-4.44a11.84,11.84,0,0,1,4.81.78,33,33,0,0,0,5.1,1.24c1.59.19,3.16,0,4.75,0A4,4,0,0,1,54.56,89c.7,1.27,1.14,2.67,1.71,4s1.32,2.89,2.09,4.29c5.9,10.65,15.6,18.55,25.76,24.93,5.88,3.7,12,6.95,18.18,10.13v-2.77c-7.6,3.91-16.62.48-24-2.39a1.64,1.64,0,0,0-2,1.13,1.66,1.66,0,0,0,1.13,2c8.13,3.38,16.06,7.91,21.81,14.72,5.47,6.48,8.61,15.43,6.6,23.85l2-1.14c-4.12-.68-8.25-1.35-12.37-2.05-1.38-.24-2.88-.45-3.36-2a11.68,11.68,0,0,1,0-4.41c.53-6.51-2.94-11.88-8.24-15.42-6.22-4.15-13.89-4.63-21.13-5.14-3.64-.25-7.85-.25-11.21-1.84s-5.17-5.41-6.8-8.51a62,62,0,0,1-6.91-24.76,1.35,1.35,0,0,0-2.69,0,84,84,0,0,0,3,24.28c1.76,6.34,4.25,13.26,11.18,15.33,3.26,1,7.28.88,9.87,3.37l.26-2.07a16.16,16.16,0,0,1-14.41,1.29,20.28,20.28,0,0,1-9.67-9.12c-2.64-4.7-3.69-10.13-4.13-15.45A146.35,146.35,0,0,1,31,104a187.82,187.82,0,0,1,1.83-20.25c.19-1.33-1.83-1.93-2-.57Z"/><path d="M109,151.73a3.53,3.53,0,0,0,2.4.28c1.21-.12,2.42-.29,3.63-.44q3.16-.39,6.32-.83,6.68-.92,13.3-2,13.28-2.19,26.4-5.1,3.58-.8,7.15-1.63a65.18,65.18,0,0,0,7.56-2,1.07,1.07,0,0,0-.57-2.06c-4.4.63-8.76,2-13.11,3s-8.59,1.88-12.9,2.77c-8.69,1.8-17.43,3.36-26.19,4.76-2.41.38-4.83.75-7.24,1.1l-3.87.55c-1,.15-2.19.17-3,1a.43.43,0,0,0,.08.66Z"/><path d="M107.33,153l2.64-.1a6.07,6.07,0,0,0,2.67-.52.49.49,0,0,0,0-.85,6.18,6.18,0,0,0-2.67-.31l-2.64.14a.82.82,0,0,0,0,1.64Z"/><path d="M105.94,152.32c.44.05.82.19,1.27.21s.85,0,1.27,0c1,0,1.9-.13,2.85-.23s1.83-.16,2.73-.31c.45-.07.91-.13,1.35-.24s.93-.32,1.4-.44a.37.37,0,0,0-.09-.73c-.5,0-1-.1-1.48-.12s-.85,0-1.27.05c-1,.05-1.91.2-2.85.31a27.36,27.36,0,0,0-2.72.37c-.44.09-.9.18-1.33.29s-.77.34-1.18.48a.19.19,0,0,0,0,.37Z"/><path d="M106.47,152.8c.46,0,.89.18,1.35.22s.89,0,1.34,0a18.48,18.48,0,0,0,2.57-.25,16.89,16.89,0,0,0,2.53-.59c.86-.28,1.68-.7,2.51-1,.35-.15.23-.7-.16-.59-1.64.45-3.36.66-5,1l-2.46.39-1.23.18c-.48.08-.93.24-1.41.29a.21.21,0,0,0,0,.42Z"/><path d="M105.62,151.71a2.25,2.25,0,0,0,1.16.32l1.24.09c.8,0,1.6,0,2.39,0a17.85,17.85,0,0,0,2.42-.23,15.12,15.12,0,0,0,2.36-.68.46.46,0,0,0-.12-.9c-.82,0-1.63,0-2.45,0s-1.53.11-2.3.16-1.53.07-2.3.07a5.24,5.24,0,0,0-2.4.2.56.56,0,0,0,0,.94Z"/><path d="M161,144.13a71.83,71.83,0,0,0,2.38,19.57,1.11,1.11,0,0,0,2.13-.59,73.23,73.23,0,0,1-2.46-19,1,1,0,0,0-2,0Z"/><path d="M165.24,145.52a68.52,68.52,0,0,0-.06,7,.07.07,0,0,0,.14,0,65.78,65.78,0,0,0,0-7,0,0,0,1,0,0,0Z"/><path d="M164.82,141.07a20.61,20.61,0,0,0-.52,6.69,23.86,23.86,0,0,0,.35,3.27,19.92,19.92,0,0,0,1.06,3.28c.09.28.59.26.55-.07-.13-1.06-.09-2.1-.18-3.16s-.19-2.21-.25-3.32c-.11-2.19.18-4.35.17-6.53a.6.6,0,0,0-1.18-.16Z"/><path d="M167.49,143.9a4.17,4.17,0,0,0-.46,2.55c0,.88,0,1.75.09,2.63a24,24,0,0,0,.33,2.53,20.18,20.18,0,0,0,.81,2.61.19.19,0,0,0,.37-.11c-.14-.84-.17-1.7-.29-2.54s-.24-1.79-.33-2.69-.13-1.68-.15-2.53a4.94,4.94,0,0,0-.3-2.45,0,0,0,0,0-.07,0Z"/><path d="M172.21,160.61a8.16,8.16,0,0,0,0-1.4c0-.4-.1-.8-.15-1.2l-.31-2.6a23.83,23.83,0,0,0-1-5.1.34.34,0,0,0-.66.09,24.33,24.33,0,0,0,.37,5.18l.38,2.59c.06.4.11.8.18,1.2a7.93,7.93,0,0,0,.4,1.34.37.37,0,0,0,.73-.1Z"/><path d="M132.29,148.34c-.76.6-.6,2-.58,2.87a23,23,0,0,0,.28,2.88,21.18,21.18,0,0,0,.63,2.73c.27.91.52,2.23,1.46,2.66a.78.78,0,0,0,1.13-.45c.31-.91-.3-1.9-.57-2.77a21.45,21.45,0,0,1-.64-2.63,20.7,20.7,0,0,1-.3-2.6c0-.86.13-2-.52-2.69a.65.65,0,0,0-.89,0Z"/><path d="M134.93,160.19a6.86,6.86,0,0,0,3.88,1,8.24,8.24,0,0,0,3.94-1,1,1,0,0,0-1-1.71,6.78,6.78,0,0,1-3,.81,9.31,9.31,0,0,1-3.19-.61.83.83,0,0,0-.64,1.51Z"/><path d="M142.68,159a2.87,2.87,0,0,1,.06-.78,3,3,0,0,0,.26-.61,6.43,6.43,0,0,0,0-1.64l-.18-3.15c-.06-1-.13-2.09-.2-3.14s.1-2.36-.85-3.06a.85.85,0,0,0-1,.13c-.79.78-.39,2.17-.31,3.16s.16,2,.25,3l.27,3a8.2,8.2,0,0,0,.23,1.64,2.14,2.14,0,0,0,.29.61,2.38,2.38,0,0,1,.29.9c.1.52.87.37.89-.12Z"/><path d="M135.18,147.53A5.42,5.42,0,0,0,135,150l.1,2.48a23.06,23.06,0,0,0,.52,5c.08.29.58.33.64,0a23,23,0,0,0,.05-5l-.13-2.48a5.74,5.74,0,0,0-.42-2.44.32.32,0,0,0-.55,0Z"/><path d="M138.15,147.64a17.2,17.2,0,0,0-.44,4.11,15.12,15.12,0,0,0,.14,2c.06.36.15.72.23,1.07a7.49,7.49,0,0,0,.41,1c.11.26.54.26.54-.07s0-.72,0-1.08-.06-.62-.08-.93c-.05-.68-.17-1.35-.22-2-.11-1.34-.21-2.71-.23-4.06,0-.2-.31-.26-.36-.05Z"/><path d="M101.63,128.22c.53.72,1.65.31,2.41.19,1.46-.22,2.92-.45,4.37-.71,3.06-.54,6.12-1.11,9.16-1.72s5.93-1.21,8.89-1.84l4.32-.93c1.12-.25,2.69-.19,3.13-1.42a.53.53,0,0,0-.13-.51c-.88-.87-2.21-.18-3.26.06l-4.55,1c-3.11.69-6.22,1.37-9.34,2s-6.08,1.27-9.11,1.92c-1.51.33-3,.61-4.54,1-.07,0-1.75.38-1.35.91Z"/><path d="M113,134c4.35-.87,8.7-1.73,13-2.7a123.64,123.64,0,0,0,12.86-3.29.24.24,0,0,0-.12-.46,125.28,125.28,0,0,0-13,2.84c-4.29,1.07-8.55,2.25-12.82,3.42a.1.1,0,0,0,0,.19Z"/><path d="M117.91,138.46c4.52-1,9.06-1.87,13.57-3a94.71,94.71,0,0,0,13.35-3.73.23.23,0,0,0-.12-.45,136.38,136.38,0,0,0-13.46,3.35c-4.47,1.18-8.92,2.44-13.42,3.5-.19,0-.11.32.08.28Z"/><path d="M134.61,142.14c2.66-.58,5.37-.92,8-1.5s5.47-1.21,8.21-1.82l8-1.8c1.28-.3,2.57-.58,3.85-.89,1.46-.36,2.81-.94,4.23-1.38a.26.26,0,0,0-.13-.5c-1.4.23-2.8.3-4.19.6s-2.57.61-3.85.92c-2.72.65-5.44,1.32-8.15,2s-5.28,1.29-7.91,2-5.37,1.62-8.08,2.3c-.08,0,0,.14,0,.12Z"/><path d="M149.08,136.33c1,.41,2.4.06,3.41-.1s2.3-.45,3.43-.72,2.27-.57,3.39-.91a28.72,28.72,0,0,0,3.3-1.49c.3-.13.08-.61-.23-.52-1.12.31-2.29.44-3.41.77s-2.32.69-3.5,1-2.27.51-3.41.77a7.7,7.7,0,0,0-3,1c-.1.07,0,.21.06.24Z"/><path d="M125.71,73.79c-.23,4.3,0,8.62,0,12.93,0,2.15.07,4.31.12,6.46a26.19,26.19,0,0,0,.46,6.07.4.4,0,0,0,.77,0,25.65,25.65,0,0,0,.25-6.07c0-2.15-.06-4.31-.1-6.46-.1-4.31-.08-8.64-.46-12.93a.53.53,0,0,0-1.05,0Z"/><path d="M121.34,79.73a41.6,41.6,0,0,0,.18,8.71c.13,1.34.3,2.67.48,4a14.65,14.65,0,0,0,1,4.14c.11.23.43.09.45-.13a18.28,18.28,0,0,0-.39-4c-.22-1.5-.41-3-.56-4.52-.28-2.76-.4-5.53-.78-8.28,0-.23-.35-.14-.37,0Z"/><path d="M21.33,108.85c.12,3.25.39,6.46.81,9.69.2,1.5.42,3,.66,4.51A41.57,41.57,0,0,0,24,127.84c.08.27.56.23.53-.07-.19-1.5-.25-3-.5-4.5s-.53-3.13-.75-4.71c-.45-3.22-.8-6.47-1.09-9.71-.05-.57-.92-.59-.9,0Z"/><path d="M25,111.57c.22,3.2.44,6.4.76,9.6.16,1.6.3,3.21.51,4.8a22,22,0,0,0,.83,4.51c.08.21.47.29.52,0A21.27,21.27,0,0,0,27.5,126c-.12-1.66-.32-3.32-.5-5-.35-3.19-.78-6.36-1.23-9.53-.06-.45-.83-.35-.8.11Z"/><path d="M20.65,148.05a2.61,2.61,0,0,0,1.62.47A12.09,12.09,0,0,0,24.4,148c1.47-.42,2.93-.85,4.39-1.29L33,145.43c1.37-.41,3.13-.66,4.26-1.59.86-.72.07-1.93-.84-2a5.41,5.41,0,0,0-2.16.46l-2.11.67L28,144.31c-1.4.44-2.81.9-4.2,1.36a13.4,13.4,0,0,0-2.07.74,2.58,2.58,0,0,0-1.14,1.32.24.24,0,0,0,.09.32Z"/><path d="M45.41,139.44l.13.05-.21-.12a.43.43,0,0,0,.11.12l-.17-.41v0a1,1,0,0,0,.2.59.91.91,0,0,0,.51.35,5.89,5.89,0,0,0,3.89-.54,1.09,1.09,0,0,0,.39-1.49,1.12,1.12,0,0,0-1.48-.39l-.18.09c-.22.1.24-.09,0,0l-.34.12a6.61,6.61,0,0,1-.73.2l-.36.06c-.13,0,.24,0,.05,0l-.2,0-.79,0a1,1,0,0,0-.84.48l-.06.14.35-.27-.28.13.24-.07h-.13a.44.44,0,0,0-.44.38.47.47,0,0,0,.32.49Z"/><path d="M20.73,150.36a6.2,6.2,0,0,0,2.85.75c1.14.18,2.29.34,3.44.5q3.39.48,6.78.92l13.35,1.72c8.94,1.16,17.88,2.38,26.84,3.41a54.45,54.45,0,0,0,14.76.08c2-.32,1.15-3.35-.83-3a48.44,48.44,0,0,1-12.73,0c-4.41-.47-8.81-1.08-13.21-1.6L35.78,150c-2.47-.29-4.94-.58-7.42-.85-1.23-.14-2.47-.27-3.7-.39s-2.57-.49-3.71,0a.94.94,0,0,0-.22,1.69Z"/><path d="M31.05,152.16c-1.08,2-.61,4.64-.54,6.79.08,2.55.18,5.1.28,7.65a23,23,0,0,1-.14,5.81,5,5,0,0,1-.88,2.12c-.45.57-1.15.77-1.63,1.31a.85.85,0,0,0,.37,1.4c1.72.58,3.18-1.28,3.79-2.68a12.7,12.7,0,0,0,.79-5.57q-.21-4.31-.47-8.6c-.09-1.52-.15-3-.29-4.55a7.59,7.59,0,0,0-1-3.68.19.19,0,0,0-.32,0Z"/><path d="M30.37,152.37l0,.18.45-.45-.06,0a.89.89,0,0,0-.65.84l0,1.58a.92.92,0,0,0,.91.92.93.93,0,0,0,.91-.92c0-.56.05-1.13,0-1.69V152a2.51,2.51,0,0,0,0-.61.92.92,0,0,0-1.8,0,2.51,2.51,0,0,0,0,.61v.85c0,.56,0,1.13,0,1.69h1.82l0-1.58a.89.89,0,0,0-.65-.84l-.06,0,.45.45,0-.18a.61.61,0,0,0-.59-.44.62.62,0,0,0-.59.44Z"/><path d="M22.28,151.44c-.05,2.53.22,5.05.42,7.57.1,1.24.19,2.48.31,3.72a9.59,9.59,0,0,0,.68,3.45.32.32,0,0,0,.57-.08,10.09,10.09,0,0,0,0-3.51c-.13-1.29-.28-2.58-.42-3.86-.28-2.47-.5-4.94-1-7.37-.07-.31-.53-.23-.54.08Z"/><path d="M24.46,149.3l.49,8.53a81.87,81.87,0,0,0,.74,8.28c.06.39.64.28.66-.08.08-2.8-.14-5.58-.33-8.37l-.58-8.36c0-.62-1-.63-1,0Z"/><path d="M27.74,177A25.94,25.94,0,0,0,29,170.12a28.54,28.54,0,0,0,0-3.46,11.86,11.86,0,0,0-.54-3.41c-.09-.23-.51-.31-.56,0a23.63,23.63,0,0,0-.08,3.15c0,1.16,0,2.31-.09,3.47-.13,2.3-.58,4.55-.91,6.84a.47.47,0,0,0,.91.24Z"/><path d="M62.78,84.88a.3.3,0,0,0,0-.6.3.3,0,0,0,0,.6Z"/><path d="M64.94,84.81c5-.09,9.93-.37,14.86-.93A116.61,116.61,0,0,0,94,81.24.12.12,0,0,0,94,81c-4.71.94-9.51,1.61-14.26,2.26q-7.36,1-14.78,1.3a.12.12,0,0,0,0,.24Z"/><path d="M77.37,80.61c5.2-.53,10.41-.94,15.61-1.57s10.2-1.08,15.19-2.17a.3.3,0,0,0-.07-.58c-5.22.19-10.45,1-15.62,1.71s-10.1,1.54-15.16,2.3c-.17,0-.13.32.05.31Z"/><path d="M83,156.39l-.11,0a1,1,0,0,0-.68.89,54,54,0,0,0,.08,5.83l.09,2.8a13.67,13.67,0,0,0,.2,3.07c.25.95,1.83,1.05,2,0a13.71,13.71,0,0,0,0-3.07L84.39,163a51.41,51.41,0,0,0-.41-5.95.88.88,0,0,0-.64-.65.87.87,0,0,0-.39,0Z"/><path d="M86,156.82c0,1.84,0,3.69-.06,5.53,0,.89-.12,1.79-.11,2.68,0,.41-.07,1.84.63,1.8s.73-1.54.75-2a21.77,21.77,0,0,0,0-2.68,25.7,25.7,0,0,0-.87-5.38.16.16,0,0,0-.31,0Z"/><path class="cls-2" d="M24.93,17.17c-.39.55.16,1.57.42,2.1a10.94,10.94,0,0,0,1.54,2.31,11.43,11.43,0,0,0,4.59,3.27,11,11,0,0,0,5.86.52,10.66,10.66,0,0,0,5.3-3c.11-.1,0-.24-.15-.16a11.65,11.65,0,0,1-5.42,2.16,10.33,10.33,0,0,1-9.68-3.52,11.54,11.54,0,0,1-1.47-2.24c-.24-.46-.45-1.28-1-1.49Z"/><path class="cls-2" d="M20.23,47.16a7,7,0,0,0,2.94-.32c1.26-.25,2.53-.47,3.8-.69,2.55-.42,5.12-.74,7.7-1,5-.51,10.11-.31,15.15-.78.36,0,.51-.61.09-.69-5-1-10.42-.48-15.48.11-2.44.29-4.88.7-7.29,1.2-1.33.27-2.66.59-4,.93a6.86,6.86,0,0,0-3,1.14.06.06,0,0,0,0,.1Z"/><path class="cls-2" d="M14.76,55.94a36.4,36.4,0,0,0,10.43,2.72,80.08,80.08,0,0,0,10.94.82,82.51,82.51,0,0,0,11.22-.65A62.85,62.85,0,0,0,58,56.3a.31.31,0,0,0-.17-.6c-3.6.75-7.3,1.15-11,1.6a85.78,85.78,0,0,1-10.75.62,92.09,92.09,0,0,1-10.75-.7c-3.53-.43-7-1.23-10.56-1.5a.12.12,0,0,0-.06.22Z"/><path class="cls-2" d="M36.49,98.07a102.7,102.7,0,0,0,.41,10.81,61,61,0,0,0,1.61,10.33c0,.13.27.11.25,0-.42-3.51-1-7-1.37-10.51A101.29,101.29,0,0,1,37,98.07a.27.27,0,0,0-.53,0Z"/><path class="cls-2" d="M54.62,96.45c4.63,11.86,14.59,22.1,25.77,28a34.3,34.3,0,0,0,10.32,3.71.31.31,0,0,0,.16-.6C85,125.14,79.25,122.71,74,119.08a54.65,54.65,0,0,1-13.74-13.56A68,68,0,0,1,55,96.31c-.09-.18-.41,0-.33.14Z"/><path class="cls-2" d="M34.82,91.67l.5-.57a.07.07,0,0,0-.1-.1l-.57.51a.12.12,0,0,0,0,.16.12.12,0,0,0,.17,0Z"/><path class="cls-2" d="M37.53,87.82a2.55,2.55,0,0,0-.71,1.08L36,90.61c-.52,1.1-1.1,2.18-1.66,3.25a.5.5,0,0,0,.18.69c2.13.92,4.26,1.85,6.4,2.75s4.32,2,6.56,2.68c.52.17.78-.48.49-.84-1.62-2-3-4.24-4.46-6.4a64.81,64.81,0,0,0-4.17-6.26c-.2-.24-.66,0-.54.31a40.26,40.26,0,0,0,4,6.52c1.44,2.17,3,4.26,4.4,6.44l.7-.69c-2-1.08-4.28-1.86-6.41-2.75s-4.37-1.79-6.56-2.68l.35.62c.41-1.1.82-2.2,1.27-3.29.22-.54.46-1.08.68-1.63a3.05,3.05,0,0,0,.43-1.45s-.05-.09-.1-.06Z"/><path class="cls-2" d="M48,100.25c.12-.79.48-1.55.62-2.34s.22-1.42.34-2.13c.27-1.46.61-2.92,1-4.34a42.2,42.2,0,0,1,1.48-4.22c.3-.71.62-1.42.94-2.13a7.63,7.63,0,0,0,.84-2.1.31.31,0,0,0-.52-.3c-1.07,1-1.62,2.66-2.15,4A39.4,39.4,0,0,0,49.1,91a43.25,43.25,0,0,0-1,4.51c-.12.74-.25,1.5-.3,2.26s.18,1.61.2,2.45c0,0,.06.05.06,0Z"/><path class="cls-2" d="M53,83.49a9.86,9.86,0,0,0-.24,2,12.45,12.45,0,0,0,.33,2.09,17.39,17.39,0,0,0,1.53,4.13l.07-.57A26,26,0,0,0,50.59,95a18.7,18.7,0,0,0-1.52,2.16c-.39.65-1.08,1.6-1,2.39,0,.21.26.43.48.27a5.71,5.71,0,0,0,1.2-1.95,16.38,16.38,0,0,1,1.54-2.32,13.79,13.79,0,0,1,4-3.65.48.48,0,0,0,.17-.65A16.82,16.82,0,0,1,54,87.37c-.16-.65-.27-1.31-.38-2s-.35-1.26-.44-1.92c0,0-.09,0-.1,0Z"/><path class="cls-2" d="M45.77,94.44a.86.86,0,0,1,.17-.24l-.17.1a.73.73,0,0,0,.33-.19l0,0h0l.11-.07.11-.06,0,0c.06,0,0,0,0,0a.78.78,0,0,1,.23-.07l.22-.07s.12,0,.12,0-.1,0,0,0h.24c.06,0,0,0,0,0l.23.06c.12,0-.11-.06,0,0l.1.06.1.06c.11.07-.08-.08,0,0l.18.18s-.07-.11,0,0l.07.12a.47.47,0,0,1,0,.1l0,0c0,.06,0,0,0,0s.07.19.08.22a1.39,1.39,0,0,0,.12.32s0,0,0,0a.36.36,0,0,0,0,.09.61.61,0,0,0,.26.29l-.2-.26c0-.09,0,.07,0,.1s0,.11,0,.17a.33.33,0,0,0,.61.16A1.32,1.32,0,0,0,49,95l-.2.26a.72.72,0,0,0,.32-.49,1.25,1.25,0,0,0,0-.51,2.13,2.13,0,0,0-.27-.64,2.21,2.21,0,0,0-1.18-.92,2.08,2.08,0,0,0-1.49.12L46,93c.16-.14-.14.11-.12.09a1.51,1.51,0,0,0-.23.21.87.87,0,0,0-.3.78v-.21a2.29,2.29,0,0,0-.12.37.33.33,0,0,0,.19.38.32.32,0,0,0,.4-.13Z"/><path class="cls-2" d="M47.83,101.79a12.92,12.92,0,0,0,.81,4.33,31.21,31.21,0,0,0,1.53,4.18A42.07,42.07,0,0,0,55,118.15a30.13,30.13,0,0,0,6.39,6.06,20.56,20.56,0,0,0,8.23,4c.32.06.55-.38.23-.56-2.5-1.44-5.15-2.63-7.53-4.3a42.07,42.07,0,0,1-6.6-6,30.09,30.09,0,0,1-4.87-7.48,38.37,38.37,0,0,1-1.66-4.11,39,39,0,0,0-1.17-4c0-.11-.21,0-.22.06Z"/><path class="cls-2" d="M55.9,111.78l.09.13c1,1.57,2-1.62.42-1l-.27.09a.62.62,0,0,0,0,1.19l.27.1c1.57.56.6-2.62-.42-1.06l-.09.13a.49.49,0,0,0,0,.47Z"/><path class="cls-2" d="M58.79,115.79a.49.49,0,0,0,.05.39l0-.27v0a.46.46,0,0,0,0,.2.66.66,0,0,0,.06.2l.09.1a.42.42,0,0,0,.22.13h0l-.23-.14a.65.65,0,0,0,.18.15l.2.08a.82.82,0,0,0,.44,0l.2-.08a1.07,1.07,0,0,0,.3-.3l.08-.2a.82.82,0,0,0,0-.44.69.69,0,0,0-.15-.28.66.66,0,0,0-.23-.21.6.6,0,0,0-.31-.1.62.62,0,0,0-.33,0,.69.69,0,0,0-.28.15.66.66,0,0,0-.21.23.52.52,0,0,0-.1.31.62.62,0,0,0,0,.33.58.58,0,0,0,.12.25l.31-.76a.35.35,0,0,0-.13.05l-.1.08a.41.41,0,0,0-.1.13l.47-.12h0l.07.05,0,0,0,.06a0,0,0,0,1,0,0l0,.08s0,0,0,0v.06a.28.28,0,0,0,0-.13.27.27,0,0,0-.06-.1l-.07-.05-.12,0h-.08l-.12,0-.07.05a.39.39,0,0,0-.08.14Z"/><path class="cls-2" d="M62.36,119.52l.06.07-.09-.73,0,.07-.09.21a.69.69,0,0,0,0,.35.43.43,0,0,0,.06.22.59.59,0,0,0,.18.29l.06.06,0,0v0l.18.14h0l.15.1.2.09a.65.65,0,0,0,.34,0,.43.43,0,0,0,.22-.06.65.65,0,0,0,.27-.17L64,120l.09-.2a.56.56,0,0,0,0-.34.55.55,0,0,0-.1-.32l-.09-.14-.08-.1-.08-.1,0,0-.07-.06-.18-.14a.65.65,0,0,0-.33-.11.45.45,0,0,0-.23,0,.65.65,0,0,0-.33.11l-.07,0,.73.09-.07-.06a.5.5,0,0,0-.19-.13.55.55,0,0,0-.46,0,.5.5,0,0,0-.19.13l-.09.12a.52.52,0,0,0-.08.3l0,.16a.68.68,0,0,0,.15.26Z"/><path class="cls-2" d="M60.71,54.73a18.78,18.78,0,0,0,4.13-.89,30.53,30.53,0,0,0,3.79-1.68A32.17,32.17,0,0,0,72.11,50a9.08,9.08,0,0,0,3-2.81c.16-.31-.11-.83-.51-.67a15.75,15.75,0,0,0-3.13,2.22,32,32,0,0,1-3.45,2.2,56.05,56.05,0,0,1-7.44,3.41.21.21,0,0,0,.1.4Z"/><path class="cls-2" d="M48.61,146.09c.47.13,1,.26,1.43.35a3.81,3.81,0,0,0,.82.05l.37,0a.51.51,0,0,0,.39-.12.25.25,0,0,0,.06-.25c-.08-.24-.38-.32-.59-.43a3.24,3.24,0,0,0-.75-.29,12.42,12.42,0,0,0-1.46-.26.58.58,0,0,0-.39,0,.56.56,0,0,0-.24.31.51.51,0,0,0,.36.62Z"/><path class="cls-2" d="M51.81,144.09a2.6,2.6,0,0,0,.36.3l-.14-.23a.45.45,0,0,0,.25.46,1,1,0,0,0,.17.1,2.34,2.34,0,0,0,.46.19,1.55,1.55,0,0,0,.48,0,.78.78,0,0,0,.56-.24l-.12.08.42-.17a.21.21,0,0,0-.11-.38,1.7,1.7,0,0,1-.39,0l.2.09a.87.87,0,0,0-.43-.21c-.12,0-.24-.07-.36-.1l-.36-.07-.19-.06a.46.46,0,0,0-.44.06h.27a1.67,1.67,0,0,1-.28-.18.25.25,0,0,0-.35,0,.24.24,0,0,0,0,.35Z"/><path class="cls-2" d="M56.85,135.41a35.15,35.15,0,0,0,6.88,0,41.33,41.33,0,0,0,6.7-1.4,20.93,20.93,0,0,0,6.07-2.69c1.62-1.16,4.35-1.7,5.39-3.52a.33.33,0,0,0-.37-.48,7.77,7.77,0,0,0-2.62,1.48,13.22,13.22,0,0,1-3.18,1.72c-2,.68-3.87,1.54-5.86,2.2a40.89,40.89,0,0,1-6.08,1.5,47.46,47.46,0,0,1-6.93.81.18.18,0,0,0,0,.36Z"/><path class="cls-2" d="M80.77,137a49.89,49.89,0,0,1,9.81,7.73,48.58,48.58,0,0,1,4,4.67c1.24,1.63,2.38,3.34,3.71,4.89a.23.23,0,0,0,.39-.22c-1.43-3.88-4.46-7.27-7.32-10.17A50.18,50.18,0,0,0,81.35,136a.57.57,0,0,0-.58,1Z"/></g></g></svg>