<svg xmlns="http://www.w3.org/2000/svg" viewBox="0 0 139.38 113.38"><defs><style>path{fill:#007fff}.cls-1{fill:#fff;stroke:#007fff;stroke-miterlimit:10;stroke-width:3px;}</style></defs><g id="Camada_2" data-name="Camada 2"><g id="Camada_2-2" data-name="Camada 2"><path class="cls-1" d="M18.86,111.79S9,103.82,2.21,61.08c0,0,8.2,8.25,56.2,3.25,0,0-18.47-30-22.74-42,0,0,46.13-1.7,55.43-5.85S109,2.85,109,2.85s11.38,31.48,27.38,43.48L89.24,66.65s-1.83,6.68,6.17,19.68L49.54,99s-19.13,3.29-22.13,11.29Z"/><path d="M57.48,61.79a3.65,3.65,0,0,0,.61,1.79c.29.56.6,1.12.9,1.67l1.85,3.47c1.25,2.35,2.45,4.74,3.77,7a.75.75,0,0,0,1.3-.75c-1.2-2.38-2.55-4.69-3.82-7l-1.88-3.45c-.3-.56-.59-1.12-.9-1.67a3.35,3.35,0,0,0-1.16-1.46.45.45,0,0,0-.67.38Z"/><path d="M65.47,75.06c1.24.51,3.17-.37,4.41-.73,1.62-.47,3.25-1,4.86-1.5q4.73-1.55,9.35-3.37t9-3.84q2.31-1.07,4.58-2.2c1.37-.68,3.11-1.32,4.16-2.46a.83.83,0,0,0-.8-1.37c-1.53.22-3.06,1.29-4.44,2S93.65,63,92.18,63.65c-3.06,1.41-6.17,2.75-9.3,4S76.82,70,73.75,71c-1.61.54-3.22,1.07-4.84,1.57-1.23.38-3,.63-3.77,1.69-.23.32,0,.69.33.81Z"/><path d="M36.39,23.48c2.31.29,4.69.28,7,.43s4.67.38,7,.66c4.68.56,9.31,1.38,13.92,2.31s9.07,1.94,13.6,2.95a69.68,69.68,0,0,1,10.43,3,24.73,24.73,0,0,1,9.91,7c.94,1.08,2.82-.35,2-1.55C95.93,31.9,87.62,29.6,80.55,28.1c-9.24-2-18.59-3.65-28-4.76-2.72-.32-5.46-.57-8.19-.73a42.15,42.15,0,0,0-8.1.06c-.51.07-.31.76.11.81Z"/><path d="M100.38,39.85c2.74-5.31,4-11.3,5.43-17.09a93.2,93.2,0,0,0,2.82-17.63c.07-1.51-2.29-1.51-2.34,0a96.28,96.28,0,0,1-2.7,17.52c-1.27,5.68-3.1,11.26-3.82,17,0,.32.47.44.61.16Z"/><path d="M66.84,61.75a2.16,2.16,0,0,0,.1.72c.08.23.18.46.28.69l.56,1.36c.19.47.38.93.58,1.4a7,7,0,0,0,.67,1.3.42.42,0,0,0,.76-.32,7.55,7.55,0,0,0-.46-1.39c-.19-.47-.4-.93-.59-1.39l-.58-1.36c-.1-.23-.19-.46-.29-.68a2.06,2.06,0,0,0-.45-.56.34.34,0,0,0-.58.23Z"/><path d="M67.66,61.49c.39.39.9.24,1.41.17.88-.14,1.76-.31,2.62-.5,1.63-.35,3.24-.74,4.85-1.13s3.23-.78,4.84-1.19a16.53,16.53,0,0,0,4.84-1.56.43.43,0,0,0-.21-.79,18,18,0,0,0-5,1c-1.61.42-3.21.84-4.82,1.24S73,59.57,71.37,60c-.81.2-1.61.42-2.4.65-.53.16-1.13.24-1.33.8a.07.07,0,0,0,0,.07Z"/><path d="M85.69,57c.28.78.59,1.54.94,2.28s.68,1.49,1.07,2.21a.49.49,0,0,0,.67.18.5.5,0,0,0,.18-.67c-.33-.73-.72-1.44-1.09-2.15a22.55,22.55,0,0,0-1.21-2.08c-.18-.28-.68-.11-.56.23Z"/><path d="M71.45,67.27c.75-.07,1.5,0,2.25-.09a15.71,15.71,0,0,0,1.78-.39c1.45-.34,2.9-.72,4.35-1.09,2.84-.72,5.68-1.43,8.5-2.25A.6.6,0,0,0,88,62.29c-2.86.64-5.7,1.4-8.54,2.14-1.39.37-2.78.72-4.17,1.11-.63.18-1.28.32-1.89.56s-1.32.71-2,1c-.08,0,0,.17,0,.16Z"/><path d="M88.45,62.59a1.06,1.06,0,0,0,.17-.2.9.9,0,0,0,.09-.43l.05-.41a1.84,1.84,0,0,0,0-.41c0-.07,0-.15,0-.22a.72.72,0,0,0-.18-.44,1,1,0,0,0-.32-.17l.26.2v0a.43.43,0,0,0-.73,0v0l.26-.2a.76.76,0,0,0-.32.17.78.78,0,0,0-.18.44c0,.07,0,.15,0,.22a2.73,2.73,0,0,0,0,.41l.05.41a.9.9,0,0,0,.09.43,1.06,1.06,0,0,0,.17.2.4.4,0,0,0,.57,0Z"/><path d="M69.56,67.11a1.08,1.08,0,0,0,.44.38,5.11,5.11,0,0,0,.48.22l.39.1a1.86,1.86,0,0,0,.33,0,.75.75,0,0,0,.42-.1l-.29.08a4.45,4.45,0,0,0,.73-.12,1,1,0,0,0,.33-.16l.28-.16a.31.31,0,0,0-.16-.58.81.81,0,0,1-.27,0,2.47,2.47,0,0,0-.38,0h-.17c-.12,0,.09,0,0,0s-.23,0-.07,0l-.18-.08-.19,0h-.06c-.07,0-.06,0,0,0l-.18,0-.3-.07-.29-.08a1.28,1.28,0,0,0-.43-.1.51.51,0,0,0-.43.75Z"/><path d="M71.42,63.81a23,23,0,0,0,2.86.26A15.94,15.94,0,0,0,77,63.79a15.55,15.55,0,0,0,5.23-2,.23.23,0,0,0-.22-.4,27.21,27.21,0,0,1-5.22,1.62,25.07,25.07,0,0,1-2.74.38,17,17,0,0,1-2.67.13c-.16,0-.16.23,0,.25Z"/><path d="M72.39,62.55c.28.31.6.25,1,.23l1.18-.09c.82-.1,1.65-.23,2.47-.39a21.33,21.33,0,0,0,4.73-1.56c.28-.12.08-.56-.2-.48-1.58.43-3.19.77-4.79,1.1-.79.17-1.58.3-2.38.4l-1.18.16c-.37,0-.63.06-.85.38a.2.2,0,0,0,0,.25Z"/><path d="M4.84,64c3.08,2.51,6.92,4.28,10.37,6.22s7.1,4,10.67,5.88c7.05,3.82,14.23,7.5,21.62,10.6a63.84,63.84,0,0,0,6,2.23c1.9.57,4.44,1.53,6.43,1.12a1.1,1.1,0,0,0,.8-.79c0-.11,0-.21,0-.31a1.11,1.11,0,0,0-.57-1,14.69,14.69,0,0,0-3.37-.82c-1.19-.27-2.36-.6-3.52-1a73.94,73.94,0,0,1-6.94-2.72q-7-3.09-13.79-6.55c-4.55-2.31-9-4.69-13.54-7.1-2.26-1.21-4.5-2.45-6.76-3.64a47.85,47.85,0,0,0-6.79-3.31c-.63-.21-1.2.72-.67,1.15Z"/><path d="M59.76,88.63v0l.13-.47a.46.46,0,0,1,.54-.07l.36.47c.08.45.77-.4,1-.6s.65-.64,1-1l2.16-2.16,4.22-4.21q2-2,4.07-4.11A26.53,26.53,0,0,0,77.13,72,.83.83,0,0,0,76,70.89a25.8,25.8,0,0,0-4.48,4q-2.22,2.23-4.41,4.49l-4.27,4.39L60.71,86a7,7,0,0,0-1.78,2.29,1,1,0,0,0,.26,1l.14.14a.89.89,0,0,0,.85.22c.54-.19,1.06-1.15.31-1.48a.5.5,0,0,0-.59.08l0,0a.4.4,0,0,0-.11.4Z"/><path d="M19.74,97.22c-.24.07-.42.12-.54.36a2.07,2.07,0,0,0-.13.4,4.38,4.38,0,0,0-.15.88,8,8,0,0,0,0,1.76,6.9,6.9,0,0,0,.42,1.68c.17.43.54,1.3,1.1,1.26l-.23-.1.14.14a.28.28,0,0,0,.47-.27l-.07-.18,0,.25a.84.84,0,0,0,0-.74c-.08-.25-.17-.5-.25-.75a7.5,7.5,0,0,1-.39-1.48A7.21,7.21,0,0,1,20.08,99c0-.26.06-.52.09-.79a2.47,2.47,0,0,0,0-.38.76.76,0,0,0-.29-.52.19.19,0,0,0-.19,0Z"/><path d="M20.12,97.71a11,11,0,0,0,3,.05c1.11,0,2.23-.13,3.34-.22,2.06-.16,4.13-.36,6.18-.57s3.94-.47,5.9-.74,4.47-.3,6.14-1.32a.4.4,0,0,0-.09-.72c-1.7-.38-3.79.22-5.5.46-2.23.32-4.45.6-6.68.87-2.06.24-4.12.46-6.19.64l-3.1.28a12.32,12.32,0,0,0-3,.42.45.45,0,0,0,0,.85Z"/><path d="M43.55,94.78a4.09,4.09,0,0,0,.1,1.39c.05.41.1.81.16,1.22s.15.8.22,1.2c0,.19.07.38.12.57s.05.19.08.28a1.49,1.49,0,0,0,.29.46.67.67,0,0,0,1.1-.29,2.86,2.86,0,0,0-.08-1.39c-.08-.4-.14-.8-.24-1.19s-.19-.76-.28-1.13l-.15-.57a2.38,2.38,0,0,0-.25-.69.59.59,0,0,0-1.07.14Z"/><path d="M20.56,103.81a10.6,10.6,0,0,0,4.22.71,35.73,35.73,0,0,0,4.39,0c2.81-.18,6-.45,8.49-1.91a.35.35,0,0,0-.17-.64,29,29,0,0,0-4.13.71,35.65,35.65,0,0,1-4.34.6,35.32,35.32,0,0,1-4.24.11,19.88,19.88,0,0,0-4.15-.09.3.3,0,0,0-.07.54Z"/><path d="M22.85,100.28a14.28,14.28,0,0,0,4.8.21c1.58,0,3.16-.14,4.73-.27s3-.31,4.49-.52a21.63,21.63,0,0,0,5-1c.32-.12.3-.63-.08-.62a33.24,33.24,0,0,0-4.45.58c-1.7.25-3.41.46-5.12.61s-3.15.25-4.73.31a19.22,19.22,0,0,0-4.62.29.23.23,0,0,0,0,.45Z"/></g></g></svg>