<svg xmlns="http://www.w3.org/2000/svg" viewBox="0 0 141.47 196.38"><defs><style>path{fill:#007fff}.cls-1{fill:#fff;stroke:#007fff;stroke-miterlimit:10;stroke-width:3px;}</style></defs><g id="Camada_2" data-name="Camada 2"><g id="Camada_6" data-name="Camada 6"><path d="M15,169.75h.53a.22.22,0,0,0,.11-.05.18.18,0,0,0,0-.12.17.17,0,0,0-.16-.16H15a.17.17,0,0,0-.17.17.17.17,0,0,0,.17.18Z"/><path class="cls-1" d="M14.39,2.13S19.1,14.68,28.15,15.9c0,0,26.94,8,59,64.62,0,0,23.9,1.86,16,23.23,0,0-3.92,7.26-6.92,10.82,0,0-1.24,7.48,9.88,14,0,0,19,14.33,33.54,54.93l-18.48,10.76s-18.85-39.55-33.9-41.35c0,0-13.09-13-15.07-20.39a51,51,0,0,1-6.36-7.43s13.75-35-5.93-59.51c0,0-33.38-32.68-43-35.58l-5.59-4.93S-5.47,12.31,4.87,7.21Z"/><path d="M7,10.94A1,1,0,0,0,6.4,12a4.68,4.68,0,0,0,.26,1.53,8.27,8.27,0,0,0,1.49,2.61,8.46,8.46,0,0,0,5.32,2.93c1.77.22,5.41-.37,4.88-2.92a6.54,6.54,0,0,0-1-1.89l-1.21-2c-.77-1.28-1.56-2.56-2.34-3.84a4.84,4.84,0,0,0-1.4-1.79,1.9,1.9,0,0,0-2.13.23A18.37,18.37,0,0,0,7,10.42a1,1,0,0,0,.35,1.31,1,1,0,0,0,1.31-.34,24.64,24.64,0,0,1,2.15-2.52,5.19,5.19,0,0,1,.53-.52l.19-.13s-.09-.1,0,0c.28.45.59.89.87,1.33,1.3,2.1,2.62,4.18,3.95,6.27.17.26.51.61.33.92a1.67,1.67,0,0,1-1,.57,5.46,5.46,0,0,1-2.31.17,7,7,0,0,1-4.07-2.19A6.22,6.22,0,0,1,8,13.15a9.07,9.07,0,0,1-.37-1.33,1.32,1.32,0,0,0-.6-.88Z"/><path d="M11.18,12.63l-.21.13a.68.68,0,0,0-.3.74,5.92,5.92,0,0,0,3.78,4.63.74.74,0,0,0,.73-.19.72.72,0,0,0,.21-.52.77.77,0,0,0-.54-.72l-.17-.06c-.11,0,.16.08,0,0l-.29-.14a5.84,5.84,0,0,1-.53-.33l-.14-.1c.08.06,0,0,0,0l-.23-.21a5.33,5.33,0,0,1-.46-.49c-.07-.09-.18-.24-.3-.42a6.65,6.65,0,0,1-.33-.58l-.06-.12c-.09-.2,0,.05,0-.07s-.07-.19-.11-.29a5.2,5.2,0,0,1-.17-.68.65.65,0,0,0-.46-.46l-.21,0,.05.06v-.07a.07.07,0,0,0-.13,0Z"/><path d="M12.45,20.75a16.83,16.83,0,0,0,3.9-1.47,17,17,0,0,0,1.74-1c.29-.2.57-.41.85-.63s.62-.48.6-.86a.4.4,0,0,0-.29-.38,1.07,1.07,0,0,0-.88.34c-.25.21-.5.41-.76.6a16.94,16.94,0,0,1-1.71,1.08,15.88,15.88,0,0,1-3.69,1.47.46.46,0,0,0,.24.89Z"/><path d="M16.23,22.77l.24-.07.21,0a1.67,1.67,0,0,0,.44-.11,8.63,8.63,0,0,0,.86-.28c.59-.23,1.17-.48,1.75-.74a20.84,20.84,0,0,0,3.42-1.84c.16-.1.07-.4-.13-.32-1.2.46-2.35,1-3.52,1.51-.6.27-1.21.52-1.82.78-.27.11-.52.24-.78.37a2.42,2.42,0,0,0-.39.21,1.9,1.9,0,0,1-.37.26c-.13.05,0,.25.09.21Z"/><path d="M18.88,24.35a15.52,15.52,0,0,0,3.17-1.12,13.53,13.53,0,0,0,2.75-1.88c.15-.12-.05-.38-.2-.27a18.2,18.2,0,0,1-2.82,1.59,14.48,14.48,0,0,1-3.07,1.06c-.41.09-.24.71.17.62Z"/><path d="M44.52,36.58c2.4,1.82,4.73,3.76,7,5.75,1.08.94,2.16,1.89,3.22,2.86s2.33,2,3.43,3a.11.11,0,0,0,.15-.15c-1.06-1.1-2-2.25-3.15-3.29s-2.25-2-3.42-3c-2.3-1.91-4.68-3.66-7.12-5.36-.12-.08-.22.1-.11.19Z"/><path d="M50.72,45.94c2,2.14,4,4.4,6,6.59s4,4.42,5.85,6.72c3.85,4.68,7.35,9.61,11,14.41.3.4,1,0,.7-.41A109.41,109.41,0,0,0,63.55,58.92c-1.93-2.26-3.9-4.48-5.94-6.64s-4.43-4.36-6.76-6.48a.1.1,0,0,0-.13.14Z"/><path d="M80.65,85.24a19.65,19.65,0,0,0-3.94,3.34,17.2,17.2,0,0,0-2.62,4.35A15.66,15.66,0,0,0,73.32,103C75.05,109.62,81,114.58,88,114s11.6-6.25,12.32-13.08c.76-7.19-2.34-14.65-9.46-17.25a13.86,13.86,0,0,0-11.36,1c-3.9,2.18-5.74,5.85-7.12,9.92-.24.71.78,1.06,1.16.49,1.72-2.62,3.52-5.64,6.09-7.5a11.26,11.26,0,0,1,15.59,2.13,14.72,14.72,0,0,1,2.76,9c.07,5.64-2.61,11.35-8.5,12.71A12,12,0,0,1,75.9,104a14.54,14.54,0,0,1-.47-9.5A20.25,20.25,0,0,1,81,85.7c.25-.21-.08-.65-.35-.46Z"/><path d="M84.8,89.66a8.47,8.47,0,0,0-.42,2.47,20,20,0,0,0,0,2.57c0,.83.08,1.65.16,2.47,0,.41.08.82.14,1.23a8.6,8.6,0,0,1,.17,1.42c-.06.93,1.29,1,1.55.21a9.73,9.73,0,0,0,.19-2.7c0-.9,0-1.8,0-2.71,0-1.78.18-3.62,0-5.41a1,1,0,0,0-2,0c-.17,1.79,0,3.63,0,5.41l0,2.71a9.75,9.75,0,0,0,.16,2.7l1.45-.6a5.67,5.67,0,0,1-.21-1.22c-.06-.42-.11-.83-.16-1.24-.09-.82-.15-1.65-.19-2.47s0-1.65,0-2.48a14.25,14.25,0,0,0-.11-2.36c-.09-.43-.63-.33-.77,0Z"/><path d="M86.25,100.75a9,9,0,0,0,5-.37A1,1,0,0,0,92,99.23a.94.94,0,0,0-1.15-.66,9.48,9.48,0,0,1-2.21.58h-.11l-.27,0-.61,0c-.39,0-.76.05-1.15.05a.76.76,0,0,0-.2,1.49Z"/><path d="M86.81,80.44c-3.83-1.63-8.63.26-11.66,2.73-4,3.24-5,8.08-5.47,12.93-.44,4.52-.3,9.42,1.9,13.5,2.43,4.52,7.24,6.74,12.08,7.69s12.58.49,14.47-5.29c.26-.79-.89-1.51-1.44-.84a11.21,11.21,0,0,1-4.76,3.72,13.89,13.89,0,0,1-7,.41c-4.29-.69-8.91-2.17-11.32-6.05-2.08-3.33-2.46-7.46-2.32-11.29.15-4.26.67-9,3.61-12.3a13.82,13.82,0,0,1,5.42-3.76,22.83,22.83,0,0,1,6.4-1.08c.18,0,.31-.29.1-.37Z"/><path d="M85.81,79.53c-.35-.58-1-.6-1.57-.66a9.57,9.57,0,0,0-2.14,0,12.11,12.11,0,0,0-4,1.38,13,13,0,0,0-3.34,2.61,8.67,8.67,0,0,0-1.25,1.64,5,5,0,0,0-.68,2.06.58.58,0,0,0,1,.41c.8-.93,1.46-2,2.3-2.88A11.56,11.56,0,0,1,79,81.85a12.76,12.76,0,0,1,3.38-1.26,16.34,16.34,0,0,1,1.85-.36c.59-.06,1.1,0,1.54-.45a.23.23,0,0,0,0-.25Z"/><path d="M72.31,83.37a12.08,12.08,0,0,1,1.51-1.91A10.78,10.78,0,0,1,75.66,80a9.67,9.67,0,0,1,2.09-1,10.34,10.34,0,0,1,1.09-.3,2,2,0,0,0,1.06-.38.22.22,0,0,0-.05-.34,1.6,1.6,0,0,0-1.16,0,11,11,0,0,0-1.24.37,10.34,10.34,0,0,0-2.24,1.16,8.86,8.86,0,0,0-3.14,3.8c-.06.15.16.22.24.11Z"/><path d="M75.7,116.42a4,4,0,0,0,.71,1.14,9,9,0,0,0,1.34,1A12.67,12.67,0,0,0,81,120.11a12.81,12.81,0,0,0,3.42.62,10.59,10.59,0,0,0,1.86-.14,3.3,3.3,0,0,0,1.55-.39.16.16,0,0,0,0-.29,5.53,5.53,0,0,0-1.52,0,11.87,11.87,0,0,1-1.58-.11,17.36,17.36,0,0,1-3.35-.63,15.4,15.4,0,0,1-3-1.33c-.46-.26-.89-.55-1.33-.84a10.89,10.89,0,0,0-1.25-.59,0,0,0,0,0,0,0Z"/><path d="M68,113.45a12.23,12.23,0,0,0-.4,5.11,34.6,34.6,0,0,0,.73,5.17c.7,3.22,1.76,7,4,9.49a.41.41,0,0,0,.69-.4c-.5-1.6-1.3-3.06-1.92-4.62a32.45,32.45,0,0,1-1.51-4.82,31.86,31.86,0,0,1-.78-5.15,33.1,33.1,0,0,0-.33-4.78c-.06-.26-.4-.21-.49,0Z"/><path d="M74.22,135.14c-.58-2.45-1.65-4.77-2.42-7.18a51.36,51.36,0,0,1-1.74-7.43,46.05,46.05,0,0,1-.56-7.6c0-1.31.06-2.62.16-3.93.09-1.09.42-2.24-.1-3.26a.46.46,0,0,0-.72-.1c-.8.84-.77,2.06-.87,3.15-.12,1.3-.19,2.61-.19,3.92a48.21,48.21,0,0,0,.68,8,45.91,45.91,0,0,0,2,7.8,19.68,19.68,0,0,0,3.55,6.69c.07.08.19,0,.17-.1Z"/><path d="M69,124.62a3.89,3.89,0,0,0-.46-1.24,5.84,5.84,0,0,1-.31-1.23,5.93,5.93,0,0,1,.1-2.3.9.9,0,0,0-1.73-.47,8.16,8.16,0,0,0-.08,4.49,8,8,0,0,0,.87,2c.44.72,1,1.58,2,1.4a.55.55,0,0,0,.41-.41c.17-.8-.34-1.22-.75-1.89a6.63,6.63,0,0,1-.7-5.16l-1.73-.47a7.09,7.09,0,0,0,0,3.11,7,7,0,0,0,.47,1.4c.19.45.45,1.12.91,1.33a.71.71,0,0,0,1.06-.6Z"/><path d="M81.48,133.14a24.44,24.44,0,0,0,4.34,6.16,53.36,53.36,0,0,0,11.43,9.93,26,26,0,0,0,6.83,3.52.27.27,0,0,0,.21-.49c-2-1.4-4.32-2.44-6.39-3.79a56,56,0,0,1-6.11-4.63,52.75,52.75,0,0,1-5.14-5.11c-1.67-1.9-3.05-4.06-4.79-5.88-.2-.22-.48.05-.38.29Z"/><path d="M81.08,145.58c.46.48.85,1,1.34,1.48l1.45,1.38c1,.95,2,1.86,3,2.78l3,2.69,1.49,1.34A11.31,11.31,0,0,0,93,156.37c.27.16.48-.19.32-.41A10.6,10.6,0,0,0,92,154.44l-1.5-1.34-3.08-2.74c-1-.89-2-1.78-3-2.64l-1.53-1.3c-.5-.42-1.08-.74-1.6-1.14-.17-.13-.36.15-.22.3Z"/><path d="M99.06,143.27a65.38,65.38,0,0,1,11,8.26,60,60,0,0,1,4.55,4.75c1.5,1.75,2.81,3.64,4.32,5.38.15.17.4,0,.3-.24a28.58,28.58,0,0,0-3.89-5.4,60.49,60.49,0,0,0-4.91-5.09A54.36,54.36,0,0,0,99.22,143a.16.16,0,0,0-.16.27Z"/><path d="M119.64,166.6a.49.49,0,0,0-.23-.08,1.17,1.17,0,0,0-.27,0l.17,0a.51.51,0,0,0-.57,0c-.1.06-.18.15-.28.2s.1-.07,0,0a.58.58,0,0,0-.12.1,1,1,0,0,0-.15.19,1.09,1.09,0,0,0-.14.23l.2-.2.11,0a.63.63,0,0,0-.27.16.74.74,0,0,0-.18.29l0,.14a1.48,1.48,0,0,0-.05.47,1.59,1.59,0,0,0,.27.87,2.11,2.11,0,0,0,1.58.86,1.74,1.74,0,0,0,1.6-.75,1.62,1.62,0,0,0-.1-1.67,1.73,1.73,0,0,0-.7-.64,1.35,1.35,0,0,0-.63-.14,1.47,1.47,0,0,0-.62.17.68.68,0,0,0-.34.44.82.82,0,0,0,0,.49.75.75,0,0,0,.88.43l.12,0-.2,0h.16l-.21,0a.67.67,0,0,1,.24.07l-.18-.08a1.18,1.18,0,0,1,.19.11l-.15-.12a1.07,1.07,0,0,1,.18.19l-.12-.16a1.28,1.28,0,0,1,.15.25l-.07-.18a1.82,1.82,0,0,1,.07.25l0-.2a.88.88,0,0,1,0,.23l0-.2a.83.83,0,0,1,0,.15l.07-.18a1,1,0,0,1-.08.14l.12-.15a.52.52,0,0,1-.11.1l.15-.11-.22.13.18-.08a1,1,0,0,1-.33.09l.19,0h-.34l.19,0a1.26,1.26,0,0,1-.38-.1l.17.07a1.22,1.22,0,0,1-.29-.17l.14.11a1.89,1.89,0,0,1-.2-.2l.11.14a1.75,1.75,0,0,1-.18-.29l.07.16a1,1,0,0,1-.08-.29l0,.18a1.85,1.85,0,0,1,0-.23.54.54,0,0,0,0-.18.37.37,0,0,0-.05-.18.37.37,0,0,0-.07-.14c-.08-.09-.07-.08,0,0l.06.44a1.89,1.89,0,0,1,0-.23s0,0,0-.06,0,0,0,.05a.94.94,0,0,0,.06-.15l0-.14a.27.27,0,0,1,0,.12c0,.07,0,0,0,0l0,0a.61.61,0,0,1,.07-.1.41.41,0,0,0,0-.09.45.45,0,0,0,0-.36l-.06.22.16-.11s.09-.09.15-.13a.06.06,0,0,0,0-.1Z"/><path d="M121.28,172.75a1.43,1.43,0,0,0-.15.39l.28-.37a.8.8,0,0,0-.4.78,1.85,1.85,0,0,0,.08.46,1.75,1.75,0,0,0,.46.73,1.09,1.09,0,0,0,.71.34,1.26,1.26,0,0,0,.56-.17,1.59,1.59,0,0,0,.53-.5,1.81,1.81,0,0,0,.29-1.13,2.08,2.08,0,0,0-.37-1.13,1.78,1.78,0,0,0-.6-.56,1.63,1.63,0,0,0-.83-.19.88.88,0,0,0-.63.26,1,1,0,0,0-.25.62l0,.5a2.28,2.28,0,0,0,0,.26,3.18,3.18,0,0,0,.06.43l0-.22a3.56,3.56,0,0,0,0,.47,1.93,1.93,0,0,0,.19.38l-.07-.16,0,.15a.88.88,0,0,0,.19.34l0,0c-.08-.14-.1-.17-.07-.09a.47.47,0,0,0,0,.16.41.41,0,0,0,.4.3.44.44,0,0,0,.4-.3s0-.11,0-.16-.14.17,0,.06a1.26,1.26,0,0,0,.25-.47l-.07.17c0-.06.07-.11.1-.16a.83.83,0,0,0,.14-.32,3.91,3.91,0,0,0,.1-.58c0-.27,0-.54,0-.8l-.87.87a.74.74,0,0,1,.21,0l-.23,0,.18,0-.21-.09a.86.86,0,0,1,.19.11l-.17-.13a.73.73,0,0,1,.17.18l-.13-.18a1.91,1.91,0,0,1,.16.27l-.09-.2a1.27,1.27,0,0,1,.1.37l0-.22a1.45,1.45,0,0,1,0,.36l0-.22a.84.84,0,0,1-.07.26l.09-.19a1,1,0,0,1-.11.17l.13-.16a.8.8,0,0,1-.13.13l.16-.12a1,1,0,0,1-.17.1l.19-.08-.06,0,.6.08-.16-.1.16.12a1.45,1.45,0,0,1-.18-.17l.12.16a1.77,1.77,0,0,1-.19-.33l.08.18-.06-.19a.77.77,0,0,0-.39-.53l.31.54c0-.05,0-.09,0-.13s0-.19,0,0a.61.61,0,0,0,0-.44.58.58,0,0,0-.28-.23.56.56,0,0,0-.71.23Z"/><path d="M123.83,177a2.07,2.07,0,0,0-.15.34,1.59,1.59,0,0,0-.06.37l.23-.55h0l.35-.21-.2.08a1.07,1.07,0,0,0-.3.3.87.87,0,0,0-.11.41,1.34,1.34,0,0,0,.17.58,1.74,1.74,0,0,0,.18.22.89.89,0,0,0,.41.24,1,1,0,0,0,.86-.12,1.26,1.26,0,0,0,.53-.69,1,1,0,0,0-.1-.75s-.11-.15-.15-.19l-.19-.15a1.19,1.19,0,0,0-.26-.11l.21.09a1.44,1.44,0,0,0-.33-.16,1.18,1.18,0,0,0-.37-.05,1.47,1.47,0,0,0-.71.18l-.12.08a1.63,1.63,0,0,0-.29.23,1.4,1.4,0,0,0-.35.64,1.2,1.2,0,0,0,0,.38,1.43,1.43,0,0,0,.17.6,1.35,1.35,0,0,0,.48.5,1.48,1.48,0,0,0,.32.14l.13,0a1.69,1.69,0,0,0,.73,0,1.35,1.35,0,0,0,.35-.14.67.67,0,0,0,.12-.06c.06-.05.17-.12.24-.19a1.37,1.37,0,0,0,.18-.24,1.11,1.11,0,0,0,.16-.35.7.7,0,0,0,0-.38.67.67,0,0,0-.12-.36.78.78,0,0,0-.24-.27.8.8,0,0,0-.33-.17l-.25,0a.92.92,0,0,0-.49.13,1,1,0,0,0-.44.57s0,0,0,0l.1-.23a.41.41,0,0,1,0,.09l.15-.19-.08.08.19-.15a.41.41,0,0,1-.11.07l.23-.1-.16,0,.26,0h-.19l.26,0-.15,0,.23.1a.41.41,0,0,1-.11-.07l.19.15-.07-.07.14.19a.41.41,0,0,1,0-.09l.1.23a.23.23,0,0,1,0-.11l0,.25V178l0,.25a.42.42,0,0,1,0-.15l-.1.22.08-.12-.15.19.12-.12-.19.15.15-.09-.22.09.13,0-.24,0h.12l-.24,0,.1,0-.21-.09.3.13-.21-.09s0,0,0,0l-.18-.14,0,0-.14-.18h0l-.09-.21a0,0,0,0,1,0,0l0-.24v0l0-.24s0,0,0,0l.08-.21,0,.07.13-.18s0,.05-.06.06l.17-.13-.06,0,.2-.09-.06,0,.22,0h0l.23,0h0l.2.08,0,0,.17.14-.06-.06.13.17a.41.41,0,0,1-.05-.09l.08.2v0l-.08-.2a.58.58,0,0,0-.21-.23.42.42,0,0,0-.18-.11.68.68,0,0,0-.32-.07h0l.4.11h0l.36.46a.07.07,0,0,1,0-.05l0,.2a.61.61,0,0,1,0-.19l0,.2s0-.06,0-.1a.78.78,0,0,0-.07-.56l-.12-.15a.55.55,0,0,0-.24-.15.29.29,0,0,0-.18,0,.57.57,0,0,0-.29,0,.72.72,0,0,0-.44.34Z"/><path d="M126.24,184.06a2.71,2.71,0,0,0,.3.13,1.4,1.4,0,0,0,.34.05.89.89,0,0,0,.23,0,1.36,1.36,0,0,0,.43-.14l0,0a1.73,1.73,0,0,0,.21-.17,1.19,1.19,0,0,0,.25-.38,1.4,1.4,0,0,0,.11-.5,1.49,1.49,0,0,0,0-.21,1.7,1.7,0,0,0,0-.22,1.81,1.81,0,0,0-.29-.57,4.19,4.19,0,0,0-.26-.33.85.85,0,0,0-.35-.24l-.11,0a.67.67,0,0,0-.37,0,.76.76,0,0,0-.16,0,1.56,1.56,0,0,0-.83.52,1.89,1.89,0,0,0-.45.89,2,2,0,0,0,.06,1,1.92,1.92,0,0,0,.14.33c.07.11.15.2.22.29l.1.1a1.86,1.86,0,0,0,.32.23,1.91,1.91,0,0,0,.74.21,1.71,1.71,0,0,0,.55-.05,1.65,1.65,0,0,0,.53-.22,1.63,1.63,0,0,0,.52-.46,1.25,1.25,0,0,0,.16-.24,1.31,1.31,0,0,0,.18-.6,2.33,2.33,0,0,0,0-.38l0-.08v0l-.08-.21-.15-.18a.55.55,0,0,0-.27-.17.61.61,0,0,0-.32-.08.84.84,0,0,0-.6.25,2.73,2.73,0,0,0-.21.3l.14-.19c-.08.1-.15.17-.23.28l-.08.12.15-.2a1.29,1.29,0,0,1-.16.17l.2-.16-.29.22.2-.15a1.38,1.38,0,0,1-.24.14l.24-.1a1,1,0,0,1-.25.06l.27,0a.81.81,0,0,1-.22,0l.27,0a.6.6,0,0,1-.19-.06l.23.1A.46.46,0,0,1,127,183l.2.16a.8.8,0,0,1-.13-.13l.15.2-.1-.17.1.23a.79.79,0,0,1-.06-.22l0,.26a1.41,1.41,0,0,1,0-.29l0,.26a2,2,0,0,1,.07-.26l-.09.23a.94.94,0,0,1,.12-.22l-.15.2a1.06,1.06,0,0,1,.15-.15l-.19.14.15-.09-.22.1.11,0-.91-.24.21.24-.15-.19a1,1,0,0,1,.15.24l-.09-.22a.75.75,0,0,1,0,.16l0-.24v.12l0-.25a.23.23,0,0,1,0,.11l.1-.22,0,.05.14-.19,0,0,.18-.14,0,0,.21-.09-.09,0,.24,0a.48.48,0,0,1-.12,0l.24,0a.19.19,0,0,1-.1,0l.21.09,0,0a1,1,0,0,0-.7-.09.91.91,0,0,0-.54.42.9.9,0,0,0-.09.7,1,1,0,0,0,.41.54Z"/><path d="M100.29,131.75c7.55,5.62,13.24,13.43,17.37,21.83.14.28.63.08.52-.22-3.52-9-9.93-16.33-17.66-22-.24-.17-.46.22-.23.39Z"/></g></g></svg>