<svg xmlns="http://www.w3.org/2000/svg" viewBox="0 0 277.36 236.28"><defs><style>path{fill:#007fff}.cls-1{stroke:#007fff;stroke-miterlimit:10;stroke-width:3px;}.cls-2{fill:#fff;}</style></defs><g id="Camada_2" data-name="Camada 2"><g id="Camada_1-2" data-name="Camada 1"><path class="cls-1" d="M84.5,188.28l18.15,21.5,20-15.48,10.54.54,11.65,16.65L165,201.19l-6.47-16.85,25.85,13.8,8.25,10.68.49,20.94s8.25,7.16,14.44,4.37l33-23.92,20,8.83,15.25-12.93-1-7.76s-27.29-3.82-19.14-15.41c0,0,3.14-8.59,8.14-11.59,0,0-4-3,0-8,0,0-7.91-7.36-12.46-7.68,0,0-31.35,2.37-27.95-13,0,0,2.41-16.34,9.41-24.34,0,0-14.18-7.61-3.09-15.31s20.09-14.69,20.09-14.69l-20.09-25L210,75.49s-2.58-4.64-9.93-6.39L189.24,53l-.68-22.19H169.82l-6.2-8.42L166,9.06,148,2,137.46,16.32s-6.69-4-9.72,0L115.09,2,98.68,12.47l6,12.88s-3.49,4.22-4.25,8.11H80.89s1.15-3.11-2.51-8.11V9.06L55.26,5.19,48.64,22.36a10.62,10.62,0,0,0-10.54,6l-33.38-2-3,15,20,8s-4,5.48,2.48,12.74L18.53,72.34,31.75,85.13l11.33-5.45S46,87.91,53.87,85.13l4.31,12.49-.46,14.73,19.88,5.21-5,44.16,22.26,10.4Z"/><path class="cls-2" d="M90.58,49.65c.16.17,0,.64,0,.85a1.06,1.06,0,0,0,.19.53c.18.27.42.52.62.78.45.6.94,1.16,1.41,1.75.91,1.12,1.76,2.29,2.56,3.49s1.52,2.38,2.19,3.62,1.25,2.73,2,4a1.09,1.09,0,0,0,2-.84,22.73,22.73,0,0,0-1.94-4.08q-1.11-2-2.42-3.92t-2.73-3.57a19.8,19.8,0,0,0-1.52-1.65c-.27-.24-.54-.53-.83-.75a1.16,1.16,0,0,0-.39-.22c-.3-.09-.82.14-1.06-.09-.06,0-.13,0-.08.08Z"/><path class="cls-2" d="M89,48.5c-1.76.51-3.49,1.14-5.28,1.54a30.17,30.17,0,0,1-5.35.71,1.24,1.24,0,1,0,0,2.47,34,34,0,0,0,5.85-1,20.43,20.43,0,0,0,5.47-2.12A.9.9,0,0,0,89,48.5Z"/><path class="cls-2" d="M79.09,53.65c-.37.7-1,1-1,1.84s0,2,0,2.94q0,2.73.21,5.46c.13,1.82.32,3.64.56,5.45.12.88.24,1.76.39,2.64a4.25,4.25,0,0,0,1,2.62.9.9,0,0,0,1.4-.18c.64-1.52-.09-3.44-.32-5-.28-1.9-.48-3.8-.63-5.71s-.24-3.65-.28-5.47c0-.91,0-1.83,0-2.74s-.61-1.14-.92-1.84a.16.16,0,0,0-.28,0Z"/><path class="cls-2" d="M101.07,65.22a19.68,19.68,0,0,1,6.28.93,14,14,0,0,1,2.75,1.27,14.54,14.54,0,0,1,1.39.92c.5.38.89.86,1.57.83a1,1,0,0,0,1-1c-.09-.82-.58-1.15-1.2-1.62a15,15,0,0,0-1.46-1A18.09,18.09,0,0,0,108,64a13.68,13.68,0,0,0-7.2-.5.88.88,0,0,0,.23,1.72Z"/><path class="cls-2" d="M114.17,68.07c.35-.13.69,0,1.06-.14s.66-.34,1-.51c.58-.3,1.13-.65,1.68-1,1.19-.72,2.38-1.43,3.56-2.17l7.07-4.39c1.35-.84.1-3-1.25-2.15l-7.17,4.52c-1.17.74-2.33,1.5-3.5,2.26-.58.38-1.17.75-1.72,1.17a4.82,4.82,0,0,0-.88.66c-.21.23-.21.55-.41.74-.41.38,0,1.21.58,1Z"/><path class="cls-2" d="M128.67,59.27c.84.81,1.77,1.51,2.64,2.27s1.74,1.54,2.59,2.34c1.7,1.6,3.28,3.3,4.83,5a1.24,1.24,0,0,0,1.22.32,1.27,1.27,0,0,0,.87-.87,1.25,1.25,0,0,0-.32-1.22,59.12,59.12,0,0,0-4.93-5.08c-.86-.79-1.74-1.54-2.65-2.28a23.25,23.25,0,0,0-3-2.18,1.06,1.06,0,0,0-1.29,1.66Z"/><path class="cls-2" d="M138.12,66.9a4.79,4.79,0,0,0-1.68,1.33c-.61.61-1.17,1.28-1.72,1.93-1.09,1.28-2.15,2.59-3.21,3.89-2.12,2.62-4.32,5.19-6.35,7.88-.88,1.16,1.09,2.69,2,1.56,2.17-2.57,4.17-5.3,6.24-7.95q1.51-1.92,3-3.87c.52-.69,1-1.38,1.5-2.11a4.85,4.85,0,0,0,1-2.06.62.62,0,0,0-.78-.6Z"/><path class="cls-2" d="M125.07,83.19a19,19,0,0,0-.3,3.62,37.71,37.71,0,0,1-.32,4.11,32.07,32.07,0,0,1-.79,3.9c-.32,1.23-1.09,2.69-.52,3.92a.9.9,0,0,0,1.21.32c1.2-.59,1.46-2.53,1.75-3.71a38.63,38.63,0,0,0,.73-4.12c.33-2.65.63-5.71-.45-8.21a.72.72,0,0,0-1.31.17Z"/><path class="cls-2" d="M124.35,96.84A4.08,4.08,0,0,0,125.83,99l2.27,2.16c1.49,1.4,3,2.78,4.46,4.19s2.86,2.76,4.27,4.14l2.24,2.21a4.23,4.23,0,0,0,1.14.93c.41.19.86.22,1.25.4a.6.6,0,0,0,.81-.81c-.18-.39-.21-.84-.4-1.25a4.05,4.05,0,0,0-.93-1.14l-2.13-2.08c-1.5-1.46-3-2.89-4.57-4.31s-3-2.77-4.54-4.11c-.75-.65-1.52-1.29-2.28-1.93a4.24,4.24,0,0,0-2.53-1.29.57.57,0,0,0-.54.71Z"/><path class="cls-2" d="M140.42,111.69a6.06,6.06,0,0,0-.77,1.27,3.73,3.73,0,0,0-.4.63,7.62,7.62,0,0,0-.33.91c-.34,1.13-.68,2.25-1,3.36s-.77,2.22-1.18,3.31-1,2.24-1.33,3.39a1.27,1.27,0,0,0,2.3,1,22.48,22.48,0,0,0,1.38-3.46c.4-1.1.76-2.21,1.11-3.33s.65-2.25.92-3.39a5,5,0,0,0,.22-1.76,7.6,7.6,0,0,0-.16-1.72.43.43,0,0,0-.71-.18Z"/><path class="cls-2" d="M135.91,122.31a18.22,18.22,0,0,0-5.4-1.92c-1.83-.49-3.68-1-5.54-1.35s-3.73-.77-5.6-1.09c-1-.17-2-.32-2.92-.47-.39-.06-.8-.14-1.2-.17a5.64,5.64,0,0,0-1.52.22,1,1,0,0,0-.24,1.83,6,6,0,0,0,1.41.6c.41.09.84.11,1.25.17,1,.14,2,.28,2.93.44,1.81.29,3.62.62,5.41,1s3.59.75,5.37,1.18a24.35,24.35,0,0,0,5.63,1.13.84.84,0,0,0,.42-1.56Z"/><path class="cls-2" d="M113.06,118.19c-1.78,7.24-3.35,14.53-5,21.79-.36,1.58,2.08,2.24,2.41.67,1.51-7.31,3.1-14.61,4.49-21.94.23-1.22-1.58-1.75-1.89-.52Z"/><path class="cls-2" d="M78.08,137.45c.33.34.43.84.8,1.16a2.94,2.94,0,0,0,.81.45c.62.28,1.26.49,1.9.71,1.27.45,2.56.83,3.87,1.17a58.58,58.58,0,0,0,8.31,1.49,57.36,57.36,0,0,0,8.29.32c1.35-.05,2.69-.15,4-.29s2.71-.15,3.79-1.17a1,1,0,0,0-.2-1.5c-1.27-.59-2.24-.32-3.59-.16s-2.53.24-3.81.3a57.22,57.22,0,0,1-8.07-.21,54.51,54.51,0,0,1-7.81-1.35c-1.24-.3-2.46-.65-3.68-1-.64-.2-1.28-.43-1.92-.62a4.06,4.06,0,0,0-1-.24c-.53,0-.84.27-1.41.29a.4.4,0,0,0-.28.67Z"/><path class="cls-2" d="M75.25,135.94c0,.7.82,1.13,1.33,1.48a14.34,14.34,0,0,0,1.36.81A17.69,17.69,0,0,0,81,139.45l.26-1.92-.29,0-.14,0-.58-.1c-.38-.08-.74-.17-1.11-.28s-.72-.23-1.08-.37l-.28-.11-.12-.05a2,2,0,0,0-.87-.18.87.87,0,0,0-.8.53.94.94,0,0,0,.18,1,2.89,2.89,0,0,0,1.31.76c.39.15.78.28,1.18.39a15.22,15.22,0,0,0,2.6.46,1,1,0,0,0,.26-1.92c-.49-.14-1-.3-1.45-.48l-.36-.14c-.1,0-.12-.05,0,0l-.18-.08-.65-.31c-.44-.22-.88-.45-1.3-.7s-1.11-.9-1.71-.68a.83.83,0,0,0-.6.78Z"/><path class="cls-2" d="M59.69,94.54c.38.34.71.72,1.26.72a3.33,3.33,0,0,0,.87-.2l1.92-.54,3.57-1c2.46-.71,4.92-1.45,7.38-2.17a1.32,1.32,0,0,0-.7-2.55c-2.46.74-4.92,1.47-7.37,2.22l-3.54,1.11-1.91.59a4.09,4.09,0,0,0-.83.29c-.5.29-.58.8-.71,1.31a.24.24,0,0,0,.06.23Z"/><path class="cls-2" d="M76.51,88.29c.41-1.24.57-2.59.88-3.86s.63-2.39,1-3.56.83-2.3,1.33-3.41,1.54-2.42,1.1-3.68a.81.81,0,0,0-1-.55c-1.34.35-1.72,1.85-2.22,3s-1,2.56-1.45,3.88a38.7,38.7,0,0,0-1,3.84A16.13,16.13,0,0,0,74.67,88a.94.94,0,0,0,1.84.25Z"/><path class="cls-2" d="M94.74,91.64c-4.55.28-7.17,5.43-6.6,9.54.68,4.84,5.43,8.19,10.12,8.28a11.26,11.26,0,0,0,10.75-8,10.56,10.56,0,0,0-5.47-12.14c-4.84-2.22-11.5.14-13.12,5.43C90,96,92,96.89,92.63,95.64c1.52-3.19,5-5.39,8.61-4.53a8.22,8.22,0,0,1,5.92,8.32c-.27,3.86-3.64,7.11-7.35,7.77a8.61,8.61,0,0,1-9.29-5c-1.5-3.89,1-8,4.46-9.68a.47.47,0,0,0-.24-.87Z"/><path class="cls-2" d="M84.46,103.11c-.9,2.51.24,5.27,1.79,7.28a10.74,10.74,0,0,0,3,2.67c1,.62,2.59,1.45,3.81,1a.37.37,0,0,0,.08-.66,5.33,5.33,0,0,0-1.6-.65,8.56,8.56,0,0,1-1.61-.71,10.35,10.35,0,0,1-2.76-2.34,13.26,13.26,0,0,1-2.53-6.59c0-.09-.14-.07-.17,0Z"/><path class="cls-2" d="M111.43,109.73c.49-1.45,1-2.91,1.46-4.37s1-2.9,1.42-4.38a.8.8,0,0,0-1.55-.43c-.55,1.43-.94,2.93-1.4,4.39s-.91,2.93-1.36,4.4c-.29.92,1.13,1.29,1.43.39Z"/><path class="cls-2" d="M86.43,70A11.19,11.19,0,0,0,89,69.54c.81-.21,1.61-.44,2.42-.66,1.68-.46,3.36-.89,5-1.38.92-.28.53-1.73-.4-1.45-1.66.5-3.31,1.06-5,1.6-.8.26-1.59.5-2.39.77a12.07,12.07,0,0,0-2.4,1,.31.31,0,0,0,.15.57Z"/><path class="cls-2" d="M116.15,71.81a7.57,7.57,0,0,0,.88.82c.3.28.59.55.9.82a16.71,16.71,0,0,1,1.7,1.77A14.19,14.19,0,0,1,121,77.14a7.06,7.06,0,0,0,1.39,2.06.39.39,0,0,0,.65-.27,4.06,4.06,0,0,0-.8-2.45,16.92,16.92,0,0,0-1.56-2.18,16.37,16.37,0,0,0-1.81-1.82,6,6,0,0,0-2.29-1.33.4.4,0,0,0-.38.66Z"/><path class="cls-2" d="M116.63,113c1.42-.62,2.41-2.21,3.25-3.45a29.31,29.31,0,0,0,2.53-4.55,36.2,36.2,0,0,0,1.89-4.56,23.43,23.43,0,0,0,.59-2.61,3.63,3.63,0,0,0,0-2.35.61.61,0,0,0-1-.12,3.75,3.75,0,0,0-.61,2c-.13.83-.28,1.67-.47,2.49a25.85,25.85,0,0,1-1.38,4.88,29.45,29.45,0,0,1-2.27,4.21c-.83,1.29-2.1,2.52-2.59,4,0,0,0,0,.06,0Z"/><path class="cls-2" d="M74.93,88.31c-1.42,1.23-1.52,3.94-1.66,5.71a28.34,28.34,0,0,0,.29,6.57,25.6,25.6,0,0,0,1.82,6.13c.75,1.72,1.72,4.36,3.58,5.08a.57.57,0,0,0,.72-.55,5.33,5.33,0,0,0-1-2.45,25,25,0,0,1-1.37-2.55,27.16,27.16,0,0,1-1.88-6A24.67,24.67,0,0,1,75,94.2c0-1,.16-2,.31-3a6.06,6.06,0,0,0,.11-2.74.27.27,0,0,0-.44-.12Z"/><path class="cls-2" d="M136.08,123.14c-1,1-.26,2.77,0,4l1,4.22c.66,2.86,1.38,5.72,2.08,8.57.38,1.56,2.8.9,2.41-.66-.78-3.06-1.54-6.12-2.35-9.17-.4-1.49-.78-3-1.19-4.49a6,6,0,0,0-.75-2c-.22-.29-.84-.75-1.2-.41Z"/><path class="cls-2" d="M140.18,139a4.42,4.42,0,0,0,2.16,1.19c.78.31,1.57.58,2.35.91a29.61,29.61,0,0,1,4.6,2.41,26.93,26.93,0,0,1,7.41,7.1c1,1.34,3.17.05,2.22-1.29a29.63,29.63,0,0,0-13-10.39,17.75,17.75,0,0,0-2.67-.88c-.81-.19-2-.51-2.75-.07a.76.76,0,0,0-.27,1Z"/><path class="cls-2" d="M158.59,149.89c1.63.61,3.79.22,5.44-.14a37.31,37.31,0,0,0,5.44-1.81,47.07,47.07,0,0,1,5.31-1.87,15.12,15.12,0,0,1,2.75-.5c1-.07,1.77,0,2.52-.74a.69.69,0,0,0,.1-.83c-1.07-1.51-3.37-.88-5-.53a34.94,34.94,0,0,0-5.46,1.81c-1.74.7-3.47,1.42-5.27,2a18,18,0,0,1-2.71.62c-1,.12-1.94,0-2.91.08a1,1,0,0,0-.26,1.95Z"/><path class="cls-2" d="M178.13,144.73a45.87,45.87,0,0,0,2.54,7c.51,1.11,1.06,2.2,1.66,3.26.3.53.61,1.06.93,1.58a3.9,3.9,0,0,0,1.28,1.53,1.22,1.22,0,0,0,1.82-1c-.12-1.23-1.14-2.35-1.74-3.41s-1.1-2-1.59-3a46,46,0,0,1-2.52-6.52,1.24,1.24,0,0,0-2.38.66Z"/><path class="cls-2" d="M160.37,172.81a3.2,3.2,0,0,1,.09.62l.36-.47h-.06A1.08,1.08,0,0,0,160,174a9,9,0,0,1-.74,4.67,9.71,9.71,0,0,1-1.21,2,16.92,16.92,0,0,1-1.91,1.78c-1.07.93.29,2.51,1.46,1.89a9.37,9.37,0,0,0,3.84-4.72,11,11,0,0,0,.69-5.88,1.08,1.08,0,0,0-1-.8H161l.47.36c-.09-.23-.16-.48-.25-.71a.42.42,0,0,0-.8.22Z"/><path class="cls-2" d="M99.09,171c-1,1.59-.59,4-.32,5.83a23.37,23.37,0,0,0,1.91,6.26,23.13,23.13,0,0,0,3.44,5.4c1.24,1.44,3,3.46,4.92,3.86.21,0,.45-.19.31-.4a10.53,10.53,0,0,0-1.95-1.88,20.81,20.81,0,0,1-2.11-2.09,23,23,0,0,1-3.46-5.2A22.25,22.25,0,0,1,100,177a21.57,21.57,0,0,1-.32-3.11,8.21,8.21,0,0,0-.34-2.84.11.11,0,0,0-.2,0Z"/><path class="cls-2" d="M98.54,163.75a62,62,0,0,1,1.76-7.11,31.79,31.79,0,0,1,3.32-6.84,30.84,30.84,0,0,1,4.67-5.7,23.14,23.14,0,0,1,3-2.45c.84-.58,2-1.15,2.36-2.15a.53.53,0,0,0-.51-.66c-1.11-.13-2.21.94-3,1.61-1,.83-1.94,1.69-2.84,2.62a32.76,32.76,0,0,0-4.68,6.12c-2.51,4.26-4.44,9.56-4.07,14.56a0,0,0,1,0,0,0Z"/><path class="cls-2" d="M123.56,138.49c1.49.85,3.79.74,5.47.9l5.79.54c1.92.17,3.85.3,5.79.44a28.46,28.46,0,0,0,6,.12c.74-.1.63-1.22,0-1.4a26.41,26.41,0,0,0-5.54-.61c-2-.13-4-.26-6-.35s-3.86-.15-5.79-.23c-1.72-.06-4-.5-5.63.16a.24.24,0,0,0-.06.43Z"/><path class="cls-2" d="M157,149.12c.09.17,0,.46.08.65a5.66,5.66,0,0,0,.2.58c.19.52.48,1,.69,1.52A23.23,23.23,0,0,1,159,155a16.49,16.49,0,0,1,.48,3.2c0,.54,0,1.07,0,1.61a6.67,6.67,0,0,0,.25,1.59.33.33,0,0,0,.61.08,4.36,4.36,0,0,0,.52-1.48,9.65,9.65,0,0,0,0-1.7,19.27,19.27,0,0,0-.53-3.47,14.22,14.22,0,0,0-1.18-3.17,13.54,13.54,0,0,0-.89-1.46,5,5,0,0,0-.41-.5c-.1-.09-.25-.27-.37-.36s-.4-.1-.53-.24,0,0,0,0Z"/><path class="cls-2" d="M130.08,161.5a4.63,4.63,0,0,0-4,2.06,6.82,6.82,0,0,0-1.33,4.74,7.08,7.08,0,0,0,7.06,6.11,7.39,7.39,0,0,0,7.52-6.16,8.13,8.13,0,0,0-5-9.22,6.77,6.77,0,0,0-6.39.7,6.26,6.26,0,0,0-2.17,2.66,5.55,5.55,0,0,0-.36,1.51,4,4,0,0,0,.26,1.64.69.69,0,0,0,1.35-.18,4.12,4.12,0,0,1,.25-.87,4.72,4.72,0,0,1,.35-1,6,6,0,0,1,1.27-1.72,4.45,4.45,0,0,1,4-1,5.9,5.9,0,0,1,4.48,6.24,5.5,5.5,0,0,1-4.64,5.3c-2.45.32-5.28-.94-6-3.45a5.75,5.75,0,0,1,.44-4,7.91,7.91,0,0,1,3-3.25.09.09,0,0,0,0-.16Z"/><path class="cls-2" d="M125.33,156.46a8.38,8.38,0,0,0-3,1.14,13.36,13.36,0,0,0-2.48,2.33,12.78,12.78,0,0,0-1.75,2.84,9.1,9.1,0,0,0-.56,1.59,7.58,7.58,0,0,0,0,1.78.25.25,0,0,0,.49.07c.14-.52.45-1,.62-1.49s.33-1,.53-1.42a11.8,11.8,0,0,1,1.6-2.69,11.68,11.68,0,0,1,2.18-2.15,19.79,19.79,0,0,1,2.47-1.84c.09-.05,0-.18-.07-.16Z"/><path class="cls-2" d="M121.73,174.55a5.6,5.6,0,0,1,.35.74,2.57,2.57,0,0,0,.42.63,11.57,11.57,0,0,0,1.55,1.33,15.56,15.56,0,0,0,3.79,2A14.77,14.77,0,0,0,132,180,9.06,9.06,0,0,0,134,180a6.72,6.72,0,0,0,1-.28c.31-.12.55-.33.85-.46s.28-.58-.08-.56c-.6,0-1.25-.14-1.86-.16s-1.26,0-1.89,0a15.16,15.16,0,0,1-3.71-.68,13.86,13.86,0,0,1-3.34-1.54,14.55,14.55,0,0,1-1.58-1.12,5.6,5.6,0,0,0-.81-.52,3,3,0,0,1-.59-.3c-.14-.14-.43.05-.29.23Z"/><path class="cls-2" d="M141.41,192.12c1.33,1.86,3.47,1.48,5.31.66a26.33,26.33,0,0,0,6-3.93,32.82,32.82,0,0,0,5-5.26A14.54,14.54,0,0,0,161,177a.32.32,0,0,0-.58-.25c-1.29,1.69-2.26,3.54-3.46,5.29a29.87,29.87,0,0,1-4.28,5,29.34,29.34,0,0,1-5.18,3.82,10.83,10.83,0,0,1-2.9,1.25,4.58,4.58,0,0,1-3.1,0s-.06,0,0,0Z"/><path class="cls-2" d="M179.66,143.57a4.14,4.14,0,0,0,2.63-.57c1.1-.45,2.16-1,3.25-1.55q3.22-1.48,6.57-2.69a79.67,79.67,0,0,1,13.67-3.57c1.61-.28.93-2.75-.68-2.46A80.61,80.61,0,0,0,191,136.58c-2.19.83-4.36,1.75-6.47,2.77a32.09,32.09,0,0,0-3.18,1.67c-.77.49-1.81,1.08-2,2a.45.45,0,0,0,.31.54Z"/><path class="cls-2" d="M205.06,134.81a104.19,104.19,0,0,0,6.34,10.27q1.64,2.55,3.28,5.07c.55.85,1.09,1.7,1.65,2.54a2.32,2.32,0,0,0,2,1.36.77.77,0,0,0,.74-.56c.35-1-.09-1.63-.64-2.45l-1.67-2.52q-1.66-2.52-3.34-5a103.1,103.1,0,0,0-6.86-9.81c-.72-.85-1.9.23-1.46,1.13Z"/><path class="cls-2" d="M217.45,152.13c.26.43.7.39,1.15.4a16.93,16.93,0,0,0,1.88-.11,37.2,37.2,0,0,1,4-.09,18,18,0,0,1,3.71.54c1.16.29,2.6,1.06,3.76.42a.71.71,0,0,0,.32-.79c-.37-1.43-2.3-1.81-3.53-2.1a21.56,21.56,0,0,0-4.38-.58,15.13,15.13,0,0,0-4.24.47c-.52.14-3.2.86-2.62,1.84Z"/><path class="cls-2" d="M218,152.65l.13.26a1,1,0,0,0,.82.48c1.19.05,2.38.08,3.57.08h1.71c.76,0,1.56.07,2-.62a.81.81,0,0,0,0-.87c-.46-.66-1.22-.61-2-.61H222.5c-1.19,0-2.38,0-3.57.08a1,1,0,0,0-.82.48c-.12.24-.25.44-.13.7Z"/><path class="cls-2" d="M161.26,171.61c.36.2.73.33,1.11.51l-.24-.41v.06a1.14,1.14,0,0,0,1.1,1.1c6.8.85,13.22-4.8,20-2.66,1.63.52,2.34-2.06.7-2.56-7.09-2.16-13.65,3-20.68,3a1.13,1.13,0,0,0-1.06.81l0,.1.46-.35a10.61,10.61,0,0,1-1.26,0,.19.19,0,0,0-.09.34Z"/><path class="cls-2" d="M183.76,168c1.17.62,2.19-.49,3.08-1.19,1.07-.84,2.13-1.7,3.17-2.59a1.23,1.23,0,0,0,0-1.72,50.3,50.3,0,0,1-4.37-5.4c-.65-.91-1.26-1.85-1.85-2.8a11.71,11.71,0,0,0-.9-1.42c-.43-.52-.95-.91-1.35-1.47s-1.66-.28-1.36.57c.22.62.28,1.22.46,1.85a6.69,6.69,0,0,0,.78,1.53c.66,1.08,1.35,2.13,2.08,3.15a52.18,52.18,0,0,0,4.78,5.71v-1.72q-1.62,1.47-3.31,2.87a4.63,4.63,0,0,0-1.43,1.46c-.13.29-.15,1,.22,1.17Z"/><path class="cls-2" d="M161.45,173.84c2.09.16,4.41-.63,6.42-1.15q3.25-.84,6.44-1.95c2.08-.71,4.12-1.52,6.14-2.39a28.73,28.73,0,0,0,6.05-2.95c.94-.73.46-2.58-.89-2.12-2.05.7-4,2-5.93,2.88s-4.08,1.75-6.18,2.5-4.11,1.39-6.2,2-4.35.83-6.24,1.76c-.76.37-.32,1.41.39,1.46Z"/><path class="cls-2" d="M181.58,180.53c-.72,1.29-.34,3.42-.15,4.84a30.54,30.54,0,0,0,1.13,5.08,32.25,32.25,0,0,0,4.77,9.41,31.74,31.74,0,0,0,17,11.88,1,1,0,0,0,.53-1.93,30.21,30.21,0,0,1-16-11.25,32.22,32.22,0,0,1-4.58-8.58,30.78,30.78,0,0,1-1.22-4.83c-.14-.87-.26-1.75-.37-2.62a5.43,5.43,0,0,0-.38-2,.43.43,0,0,0-.72,0Z"/><path class="cls-2" d="M223.84,214.08c2.63,1.08,6.06.64,8.75,0a27.9,27.9,0,0,0,8.21-3.3,26.66,26.66,0,0,0,11.31-13.4c.46-1.26-1.54-1.8-2-.56a24.94,24.94,0,0,1-10.58,12.45,26.18,26.18,0,0,1-7.59,3.06c-2.69.61-5.4.47-8.09.87-.48.07-.34.69,0,.83Z"/><path class="cls-2" d="M235.83,155.45c.46.29.61.65,1,1a10.58,10.58,0,0,0,1.15.84c.8.58,1.59,1.18,2.34,1.83a28.14,28.14,0,0,1,4.1,4.35,29.22,29.22,0,0,1,3,5c.45.93.82,1.88,1.18,2.84a12.75,12.75,0,0,0,.54,1.19,11.86,11.86,0,0,0,.72,1.12.3.3,0,0,0,.56-.15,5.94,5.94,0,0,0,.06-1.34,6.68,6.68,0,0,0-.28-1.4,25,25,0,0,0-1.15-2.9,28.72,28.72,0,0,0-3.29-5.34,30.06,30.06,0,0,0-4.38-4.57,22.85,22.85,0,0,0-2.38-1.76,7.94,7.94,0,0,0-1.35-.79c-.5-.19-1-.12-1.49-.36a.28.28,0,0,0-.28.48Z"/><path class="cls-2" d="M252.94,180.74c0,.32-.28.45-.4.72a2,2,0,0,0-.09.54,8.94,8.94,0,0,0-.1,1.27l0,2.43,0,2.42c0,.39,0,.78,0,1.17a3.91,3.91,0,0,0,.1.58c.06.26.26.44.32.69a.41.41,0,0,0,.78,0c.05-.22.23-.38.29-.6a2.74,2.74,0,0,0,.11-.57,10.71,10.71,0,0,0,0-1.27l0-2.42v-2.43a9.22,9.22,0,0,0-.09-1.17,2.7,2.7,0,0,0-.08-.56c-.1-.31-.4-.45-.42-.8a.21.21,0,0,0-.42,0Z"/><path class="cls-2" d="M214.35,174.17c-.51.16-1,.14-1.53.32a4.31,4.31,0,0,0-1.26.85,8.12,8.12,0,0,0-1.92,2.65,8.92,8.92,0,0,0-.55,6.38,10.15,10.15,0,0,0,10.48,6.95,10.73,10.73,0,0,0,9.37-8.63,10.9,10.9,0,0,0-5.67-11.17c-4.49-2.24-10.76-.8-13.25,3.7-.48.87.73,1.91,1.42,1.1,2.28-2.67,5.88-4.33,9.4-3.46a8.41,8.41,0,0,1,.22,16.2,8.33,8.33,0,0,1-9.54-3.65,7.55,7.55,0,0,1-.74-5.86,8.72,8.72,0,0,1,1.33-2.7,14.79,14.79,0,0,1,1.07-1.28c.41-.46.65-1,1.18-1.36,0,0,0-.05,0,0Z"/><path class="cls-2" d="M224.07,195.17h.11l-.14-.08c.28.6,1.13.49,1.68.37a7.3,7.3,0,0,0,1.59-.55,9.9,9.9,0,0,0,2.78-1.93,10.15,10.15,0,0,0,2-2.73,9.21,9.21,0,0,0,.61-1.58c.16-.57.46-1.46-.05-1.91a.72.72,0,0,0-.81-.11c-.54.26-.54,1-.69,1.53a8.08,8.08,0,0,1-.52,1.34,8.6,8.6,0,0,1-1.68,2.33,9.21,9.21,0,0,1-2.34,1.66,9.66,9.66,0,0,1-1.29.52c-.26.09-.49.21-.74.3a.73.73,0,0,0-.57.62l.12-.12-.11,0c-.19,0-.14.33,0,.32Z"/><path class="cls-2" d="M198.22,160.12c3.8-1.34,7.43-3,11.34-4,1.92-.5,3.86-.94,5.81-1.27s4.06-.22,5.76-1.14a.7.7,0,0,0-.17-1.27c-1.78-.6-3.93,0-5.74.33a54.38,54.38,0,0,0-6.18,1.46,40.25,40.25,0,0,0-11.25,4.88c-.49.33-.21,1.25.43,1Z"/><path class="cls-2" d="M198,215.44a9.54,9.54,0,0,0,.21,1.49c.08.48.13,1,.18,1.45a11.72,11.72,0,0,1,.06,1.45,3.55,3.55,0,0,0,.1,1.59l-.07-.26c0,.28,0,.55,0,.83a.38.38,0,0,0,.75.1,7.87,7.87,0,0,1,.3-.81,2.29,2.29,0,0,0,.17-1,11.94,11.94,0,0,0,0-1.69,10,10,0,0,0-.29-1.71q-.1-.41-.24-.81a2.91,2.91,0,0,0-.46-.85.38.38,0,0,0-.7.19Z"/><path class="cls-2" d="M252.92,208.93a1.87,1.87,0,0,0-.07.22l.24-.31h0a.59.59,0,0,0-.26.63,3.66,3.66,0,0,0,1.68,2.17,3.45,3.45,0,0,0,1.39.45,1.94,1.94,0,0,0,.67-.09c.27-.06.54-.13.65-.4l-.24.23.35-.16c.23-.12.14-.56-.14-.52l-.29,0,.23.1c-.15-.16-.43-.13-.56-.15l-.14,0c-.09,0,0,0,0,0A2,2,0,0,0,256,211a4.64,4.64,0,0,1-.53-.16c-.1,0,0,0,0,0l-.14-.06-.25-.13-.21-.13-.13-.09c-.13-.09.08.08,0,0a3.59,3.59,0,0,1-.39-.39l-.05-.06,0-.06a1.5,1.5,0,0,1-.15-.23,1.42,1.42,0,0,1-.12-.25c.05.11,0,0,0,0a.83.83,0,0,1,0-.15.56.56,0,0,0-.4-.39h0l.23.13-.06-.06s0,0,0,0a.41.41,0,0,0-.73.09Z"/><path class="cls-2" d="M255.21,170.49l.61-.83c.19-.27.36-.55.53-.84.34-.58.68-1.15,1-1.71.15-.22-.2-.5-.38-.29-.44.52-.9,1-1.36,1.51-.25.27-.49.53-.71.82l-.63.82a.51.51,0,0,0,.19.7.53.53,0,0,0,.7-.18Z"/><path class="cls-2" d="M170.62,182.44l.52.18-.18-.14a.83.83,0,0,0,.53.47c.19.09.39.19.59.27l.65.28a3.68,3.68,0,0,1,.35.15,3.22,3.22,0,0,0,.37.2,13.11,13.11,0,0,0,1.39.42,3.6,3.6,0,0,0,.74.15c.25,0,.48,0,.74,0a.52.52,0,0,0,.26-1l-.38-.22.22.22a2.65,2.65,0,0,0-1.43-.8,3.33,3.33,0,0,0-1.63-.34h.4l-1.37-.26-.66-.11a.77.77,0,0,0-.66.11l.24,0-.54-.14a.29.29,0,0,0-.15.56Z"/><path class="cls-2" d="M140.3,198c.51,1.17,1,2.35,1.54,3.51.27.57.58,1.13.88,1.69s.57,1.14,1.14,1.36a.33.33,0,0,0,.4-.23,2.65,2.65,0,0,0-.49-1.75c-.29-.57-.57-1.14-.88-1.69-.62-1.11-1.31-2.17-2-3.25-.24-.39-.78,0-.61.36Z"/><path class="cls-2" d="M143.62,198.86A10.93,10.93,0,0,1,145.2,201c.22.38.4.77.59,1.16a9.53,9.53,0,0,1,.52,1.28c.07.22.38.12.35-.1a10.67,10.67,0,0,0-.27-1.39,7.62,7.62,0,0,0-.54-1.32,9.3,9.3,0,0,0-1.69-2.29.38.38,0,0,0-.54.54Z"/><path class="cls-2" d="M172.7,163.71a4.63,4.63,0,0,0,5.47-1.28.49.49,0,0,0,0-.52.62.62,0,0,0-.18-.18.52.52,0,0,0-.51,0,7.91,7.91,0,0,1-2.16,1,5.05,5.05,0,0,1-1.12.13,8.62,8.62,0,0,1-1.24-.09c-.51-.06-.7.75-.26,1Z"/><path class="cls-2" d="M173.6,160.15a3.1,3.1,0,0,0,1.69.39,3.27,3.27,0,0,0,.87-.17,2.18,2.18,0,0,0,.82-.51,2,2,0,0,0,.54-.66.47.47,0,0,0-.17-.59.58.58,0,0,0-.58,0,3.41,3.41,0,0,1-.33.17l-.07,0-.17,0c-.24.07-.49.14-.73.19l-.09,0h-.19a3,3,0,0,1-.42,0l-.19,0c-.12,0,0,0,0,0l-.18,0c.1,0,0,0,0,0l-.12,0-.22-.07a.61.61,0,0,0-.72.36.6.6,0,0,0,.25.76Z"/><path class="cls-2" d="M115.86,124.77a21.32,21.32,0,0,0-.26,3.39c0,.56,0,1.12,0,1.68a8.17,8.17,0,0,0,.09.85,6.09,6.09,0,0,0,.25.83.48.48,0,0,0,.92,0,7.27,7.27,0,0,0,.25-.83c0-.28.06-.57.09-.85,0-.56,0-1.12,0-1.68a20.22,20.22,0,0,0-.27-3.39.59.59,0,0,0-1.13,0Z"/><path class="cls-2" d="M118.29,126.06a7.15,7.15,0,0,1,.68,2.22,6.17,6.17,0,0,1,.06,1.08c0,.2,0,.39,0,.59s0,.42,0,.63a.61.61,0,0,0,1.2.17,2.94,2.94,0,0,0,.2-.76,3.75,3.75,0,0,0,0-.67,7.85,7.85,0,0,0-.13-1.37,8.64,8.64,0,0,0-.88-2.56.69.69,0,0,0-.91-.24.68.68,0,0,0-.24.91Z"/><path class="cls-2" d="M83.22,125a3.42,3.42,0,0,1,.77,3.17c0,.05.07.08.09,0a3.54,3.54,0,0,0-.75-3.3c-.07-.08-.18,0-.11.11Z"/><path class="cls-2" d="M85.14,119.27c-.25,1.87-.37,3.77-.55,5.65a38.19,38.19,0,0,0-.15,5.66c0,.36.57.47.66.09a38.35,38.35,0,0,0,.83-5.64c.16-1.92.38-3.84.46-5.76,0-.83-1.15-.77-1.25,0Z"/><path class="cls-2" d="M88.11,120.9a49.41,49.41,0,0,1,.35,5.7c0,.92,0,1.83,0,2.75s.09,1.89.06,2.85c0,.39.63.5.71.09a24.34,24.34,0,0,0,.48-2.94,21,21,0,0,0,0-2.86,32.77,32.77,0,0,0-1-5.74c-.1-.39-.62-.21-.57.15Z"/><path class="cls-2" d="M123.16,111.54a8.69,8.69,0,0,0,1.55-1.54,12.77,12.77,0,0,0,1.22-1.87,8.62,8.62,0,0,0,1.14-4.28c0-.36-.48-.38-.6-.08-.26.63-.51,1.26-.8,1.87s-.53,1.29-.85,1.91-.63,1.21-1,1.79c-.18.27-.32.57-.51.84s-.43.59-.62.9.18.67.46.46Z"/><path class="cls-2" d="M128.2,83.23c3.64-.16,7.28-.53,10.91-.83l5.35-.44a23.86,23.86,0,0,0,5.41-.59c.89-.3,1.12-1.89,0-2.05a24,24,0,0,0-5.41.32l-5.35.52c-3.63.35-7.29.62-10.91,1.1-1.21.17-1.3,2,0,2Z"/><path class="cls-2" d="M149.6,79.89a1.33,1.33,0,0,0,.63-.11c.05,0,.36-.34.21-.23s.31-.18.36-.22a4.21,4.21,0,0,0,.38-.48c.39-.52.79-1,1.21-1.51a21.48,21.48,0,0,1,2.82-2.74,17.82,17.82,0,0,1,6.87-3.41,1.21,1.21,0,0,0-.64-2.34,20.86,20.86,0,0,0-7.72,4,18.24,18.24,0,0,0-3,3.06,13.57,13.57,0,0,0-1.19,1.79,4.44,4.44,0,0,0-.24.49,2,2,0,0,0-.1.72c0-.27-.08,0-.1.13a1.13,1.13,0,0,0,.23.72.26.26,0,0,0,.24.13Z"/><path class="cls-2" d="M162.75,68.1c.51-2,1-4.07,1.69-6a30.58,30.58,0,0,1,1.14-2.84c.22-.48.46-.95.7-1.41a5.43,5.43,0,0,0,.67-1.5,1.11,1.11,0,0,0-1.84-1.07,4.48,4.48,0,0,0-1,1.57c-.23.47-.45.95-.65,1.43-.44,1-.85,2.06-1.19,3.11a24.2,24.2,0,0,0-1.3,6.51.9.9,0,0,0,1.76.24Z"/><path class="cls-2" d="M166.27,55.85a23.41,23.41,0,0,0,5.62-.82c1.92-.37,3.83-.75,5.75-1.14l5.74-1.16c1.12-.22,2.55-.66,3.63,0,.68.39,1.52,1.19,2.16.19.74-1.16-.36-2.25-1.37-2.66a6.44,6.44,0,0,0-3.64-.23c-1.89.33-3.76.79-5.64,1.19l-6.39,1.36a27.14,27.14,0,0,0-6.3,1.69c-.81.42-.36,1.57.44,1.62Z"/><path class="cls-2" d="M161.09,70.79a11.35,11.35,0,0,0,1.55,0c.63-.11,1.26-.24,1.89-.36,1.1-.21,2.2-.4,3.31-.59,2.52-.43,5.06-.81,7.62-1a112.77,112.77,0,0,1,14.59-.39c1.22,0,1.23-1.87,0-1.91a94.85,94.85,0,0,0-15.07.68c-2.37.3-4.73.67-7.07,1.13-1.25.24-2.49.54-3.73.86-.62.16-1.24.31-1.85.51a10.35,10.35,0,0,0-1.35.71.23.23,0,0,0,.11.42Z"/><path class="cls-2" d="M150.71,78.22a29,29,0,0,0-7,13.8,35.22,35.22,0,0,0-.79,7.79c0,2.47.08,5.38,1.4,7.55a.41.41,0,0,0,.76-.21c.2-2.43-.48-4.9-.53-7.34a33.78,33.78,0,0,1,.7-7.57,42.29,42.29,0,0,1,5.68-13.87c.07-.12-.1-.25-.19-.15Z"/><path class="cls-2" d="M148.62,114.94a8.06,8.06,0,0,0,1.51,3.15,32.75,32.75,0,0,0,2.46,3.17,40.38,40.38,0,0,0,5.5,5.36,39.89,39.89,0,0,0,13.7,7.06,54.48,54.48,0,0,0,18.38,1.73c5.89-.36,12.12-1.08,17.41-3.89a23.7,23.7,0,0,0,6.77-5.38,23.07,23.07,0,0,0,2.43-3.31,15.78,15.78,0,0,0,1-2,8.92,8.92,0,0,0,.41-2.13.6.6,0,0,0-1.1-.46c-.65,1-1.3,1.85-1.91,2.84a25.48,25.48,0,0,1-2.24,3.2,21.83,21.83,0,0,1-5.55,4.76c-4.75,2.84-10.43,3.6-15.86,4a56.73,56.73,0,0,1-17.87-1,40.11,40.11,0,0,1-13.43-6,42,42,0,0,1-6.31-5.29c-.94-1-1.82-2-2.66-3a13.36,13.36,0,0,0-2.54-2.85c-.08,0-.15,0-.14.11Z"/><path class="cls-2" d="M221.86,108.07c1.41-2,1.52-5.15,1.58-7.51a33.61,33.61,0,0,0-3.32-15.28c-1.06-2.2-2.42-5-4.4-6.45-.6-.45-1.2.38-.93.93a31.44,31.44,0,0,0,2.1,3.07,28.45,28.45,0,0,1,1.76,3.08,30.86,30.86,0,0,1,2.55,7.22,31.47,31.47,0,0,1,.76,7.43c0,1.18-.09,2.36-.22,3.53a17.93,17.93,0,0,0-.33,3.86.24.24,0,0,0,.45.12Z"/><path class="cls-2" d="M144.23,117.66c-.18.82-.48,1.63-.73,2.44s-.53,1.57-.8,2.35-.6,1.54-.93,2.3a12.32,12.32,0,0,0-.88,2.35.35.35,0,0,0,.57.33c1.24-1.15,1.84-3,2.37-4.58a18,18,0,0,0,.63-2.48c.08-.43.18-.87.22-1.3s0-.89.07-1.34c0-.3-.46-.36-.52-.07Z"/><path class="cls-2" d="M146,122.5v.81a5.54,5.54,0,0,0,.07.81.33.33,0,0,0,.33.33.35.35,0,0,0,.34-.33c0-.27.07-.54.07-.81v-.81a.4.4,0,0,0-.4-.4.41.41,0,0,0-.4.4Z"/><path class="cls-2" d="M173.84,84.67c-3.16-.66-6.17,2.57-7.66,5a14.5,14.5,0,0,0-1.91,9.82c1.3,7.84,8.79,13.45,16.13,15.17,4.12,1,8.68.84,12.38-1.4,3.53-2.13,5.71-5.82,7.15-9.57,2.61-6.8,3-16.27-4.9-19.61A41.48,41.48,0,0,0,187.34,82a27.21,27.21,0,0,0-8.48-.72c-4,.41-9.2,2.41-9.88,6.93a.44.44,0,0,0,.72.42c2.43-2.38,5.14-4.33,8.58-4.89,4.24-.69,8.64.51,12.73,1.54,3.44.87,6.58,2.31,7.76,5.91a16.46,16.46,0,0,1-.15,9.33,20.7,20.7,0,0,1-4.92,9.3c-2.77,2.74-6.61,3.6-10.4,3.27-6.72-.6-13.75-4.78-16.42-11.16A13,13,0,0,1,167,91.69a12,12,0,0,1,2.85-4c1.23-1.12,2.75-1.75,4-2.78a.14.14,0,0,0-.06-.23Z"/><path class="cls-2" d="M177.36,88.06c-2.23-.12-4.13,2-5.1,3.76a10.87,10.87,0,0,0-1.1,7c1,5.28,5.91,9,10.85,10.3,2.86.73,6.11.78,8.7-.8a10.45,10.45,0,0,0,4.47-6.61A13.57,13.57,0,0,0,190,87.93a12.87,12.87,0,0,0-8.41-2.22,13.86,13.86,0,0,0-4.31,1,7.32,7.32,0,0,0-3.14,2.9c-.26.4.24.8.61.61.94-.47,1.94-.66,2.9-1.07a13.6,13.6,0,0,1,3.19-1,10.64,10.64,0,0,1,12.46,11,9.37,9.37,0,0,1-2.29,6.07,7.6,7.6,0,0,1-6.76,2.07c-4.33-.55-8.85-3.2-10.62-7.32a8.94,8.94,0,0,1-.16-6.48c.78-2.28,2.43-3.49,4.09-5.07a.23.23,0,0,0-.16-.39Z"/><path class="cls-2" d="M195.31,116.73a11.77,11.77,0,0,0,4.57-4.12,14.43,14.43,0,0,0,1.44-2.72,8,8,0,0,0,.47-1.43,2.19,2.19,0,0,0-.17-1.55.39.39,0,0,0-.62-.08,2.62,2.62,0,0,0-.71,1.14c-.15.46-.28.92-.45,1.37a12,12,0,0,1-1.27,2.43,15,15,0,0,1-3.93,3.82.66.66,0,0,0,.67,1.14Z"/><path class="cls-2" d="M171.48,79.78a18.13,18.13,0,0,0-8.26,4.45,19.42,19.42,0,0,0-3,3.68A17.16,17.16,0,0,0,159.08,90a8.8,8.8,0,0,0-.49,2.33c-.06.34.44.63.61.26.3-.67.77-1.23,1.07-1.9a18.56,18.56,0,0,1,11.41-10.19.39.39,0,0,0-.2-.75Z"/><path class="cls-2" d="M167,66.08c.46-1,.93-2,1.35-3,.21-.5.42-1,.62-1.5.09-.24.17-.49.25-.74a.84.84,0,0,0,.05-.74A.24.24,0,0,0,169,60c-.26.06-.38.32-.5.54s-.24.46-.35.7c-.23.49-.43,1-.65,1.48-.44,1-.84,2-1.24,3.07-.16.43.55.73.75.31Z"/><path class="cls-2" d="M170.89,64.5l.09-.1-.27.11h.08a.51.51,0,0,0,.44-.25L172.59,62a.4.4,0,0,0-.14-.53.4.4,0,0,0-.54.14l-1.56,2.13a.52.52,0,0,0,0,.51l0,0v-.38l-.06.13a.36.36,0,0,0,.09.46.37.37,0,0,0,.48,0Z"/><path class="cls-2" d="M228.87,95.8a18.59,18.59,0,0,0,3.88-1.48A30.5,30.5,0,0,0,236.33,92c.25-.18.1-.7-.24-.56a34.74,34.74,0,0,0-3.87,1.79,17.48,17.48,0,0,0-3.37,2.49s0,0,0,0Z"/><path class="cls-2" d="M228.23,90.77a8.94,8.94,0,0,0,4.7-2.36,7.41,7.41,0,0,0,.61-.64,1.83,1.83,0,0,0,.51-.8.36.36,0,0,0-.52-.39,2.23,2.23,0,0,0-.63.56c-.18.19-.37.37-.57.55a10.49,10.49,0,0,1-1.32,1A10.29,10.29,0,0,1,228,90c-.51.13-.29.86.21.77Z"/><path class="cls-2" d="M212.7,88.52a38.14,38.14,0,0,1,2.53,8.77,37.42,37.42,0,0,1,.38,4.49c0,1.48-.21,3,0,4.51,0,.19.29.31.4.1a11.44,11.44,0,0,0,.88-4.31,20.67,20.67,0,0,0-.29-4.84,20.28,20.28,0,0,0-1.26-4.59,20,20,0,0,0-2.49-4.2.07.07,0,0,0-.11.07Z"/><path class="cls-2" d="M150.54,94.21a15.31,15.31,0,0,0,4.93,18.39c.32.22.69-.27.41-.53a18.18,18.18,0,0,1-5.14-17.77c0-.12-.15-.2-.2-.09Z"/><path class="cls-2" d="M164.34,143.42a19.58,19.58,0,0,0,4.88-1.51,16.28,16.28,0,0,0,2.15-1.22,13.59,13.59,0,0,0,2-1.71c.38-.38-.13-1.1-.6-.77-.65.46-1.34.86-2,1.28s-1.41.85-2.15,1.23a21.5,21.5,0,0,1-4.55,1.71c-.65.16-.36,1.1.28,1Z"/><path class="cls-2" d="M213,135l2.52,3.32c.42.55.86,1.08,1.3,1.61a8.37,8.37,0,0,0,1.39,1.52.34.34,0,0,0,.48-.38,8.52,8.52,0,0,0-1-1.7c-.38-.57-.77-1.13-1.18-1.68L214,134.38a.58.58,0,1,0-1,.59Z"/><path class="cls-2" d="M217.25,131.58l1.23,2c.41.67.87,1.31,1.31,2a.26.26,0,0,0,.44-.26c-.35-.7-.69-1.42-1.07-2.1L218,131.13a.45.45,0,0,0-.77.45Z"/><path class="cls-2" d="M201.68,138.15c.26.56.46,1.19.69,1.76a14.61,14.61,0,0,0,.61,1.33l1.46,2.88c.49.95,1,1.92,1.49,2.85a7.42,7.42,0,0,0,1.81,2.52.4.4,0,0,0,.61-.35,7.5,7.5,0,0,0-1.16-2.9c-.49-1-1.05-1.87-1.59-2.8L204,140.66c-.26-.45-.54-.88-.84-1.3s-.73-1-1-1.45a.24.24,0,0,0-.42.24Z"/><path class="cls-2" d="M199.54,142a1.5,1.5,0,0,0-.09.42.58.58,0,0,0,.06.26c0,.14.1.27.14.4.11.32.24.63.37.94.26.61.5,1.24.79,1.84s.59,1.19.91,1.77.72,1.11,1.07,1.67,1.07.16.87-.37-.4-1.24-.66-1.84-.57-1.29-.87-1.92-.64-1.16-1-1.74c-.16-.29-.33-.57-.51-.85s-.16-.29-.26-.42a.47.47,0,0,0-.19-.18,2.16,2.16,0,0,1-.34-.17c-.12-.21-.42,0-.33.19Z"/><path class="cls-2" d="M187.56,180.78a47.13,47.13,0,0,1,2.18-6.21,23.61,23.61,0,0,1,3.63-5.48,28.71,28.71,0,0,1,10.69-7.26c.49-.2.12-.9-.34-.81-4.52.85-8.59,3.81-11.52,7.29-2.81,3.33-5.38,7.89-5.32,12.38a.35.35,0,0,0,.68.09Z"/><path class="cls-2" d="M235.45,205.7a10.6,10.6,0,0,0,6.64-3.55,19.59,19.59,0,0,0,3.83-7.08,29.73,29.73,0,0,0,1.27-9.65c-.11-3.16-.41-7.18-2.38-9.79-.18-.24-.65-.2-.62.17a24.34,24.34,0,0,0,.83,4,30,30,0,0,1,.76,4.91,29.18,29.18,0,0,1-.81,9.31c-1.22,4.67-4.51,10.24-9.59,11.38-.17,0-.09.29.07.26Z"/><path class="cls-2" d="M227.14,164.78A19.31,19.31,0,0,1,233.6,171a19,19,0,0,1,2,3.87,30.88,30.88,0,0,1,1.37,4.28.18.18,0,0,0,.35-.05,15.07,15.07,0,0,0-.16-2.22,11.92,11.92,0,0,0-.62-2.27,19.48,19.48,0,0,0-2.2-4.19,18.4,18.4,0,0,0-7.11-5.85c-.13-.06-.25.13-.12.21Z"/><path class="cls-2" d="M197.75,184.69a16.24,16.24,0,0,0,2.82,12.05,17.79,17.79,0,0,0,4.51,4.4,15.84,15.84,0,0,0,2.81,1.51,8.2,8.2,0,0,0,3.15.63.48.48,0,0,0,.13-.94c-.93-.33-1.88-.71-2.8-1.08a13.74,13.74,0,0,1-2.46-1.29,16,16,0,0,1-4.33-4.11,15.82,15.82,0,0,1-3.17-11.08c0-.37-.61-.46-.66-.09Z"/><path class="cls-2" d="M217.39,175.82c-.19.26-.42.45-.61.71a9.5,9.5,0,0,0-.62.8,9.22,9.22,0,0,0-.82,1.81,4.83,4.83,0,0,0,.19,3.8,4.18,4.18,0,0,0,5.34,1.52,4.22,4.22,0,0,0,2.57-5.27,5.62,5.62,0,0,0-1.94-2.84,6,6,0,0,0-1.67-.94,3.21,3.21,0,0,0-.75-.21,4.17,4.17,0,0,0-.51-.08,1.5,1.5,0,0,0-.91.43,7.86,7.86,0,0,0-2.42,3.4,7.42,7.42,0,0,0-.47,2,2.4,2.4,0,0,0,.71,2.26l-.37-.48a4.89,4.89,0,0,0,.3.75c.29.63,1.25.28,1.25-.34l0-.62-.24.57a1.62,1.62,0,0,0,.34-.58,2.08,2.08,0,0,0,.05-.36c0-.17,0,.14,0,0,.06-.35.07-.71.12-1.06,0,.16,0,0,0-.07l0-.21c0-.14.05-.28.08-.41a7.3,7.3,0,0,1,.27-.91s.08-.2,0-.11l.05-.11a2.74,2.74,0,0,1,.21-.42,6.45,6.45,0,0,1,.47-.76s.13-.17.07-.1l.08-.1c.1-.12.21-.23.32-.35a8.17,8.17,0,0,1,.69-.63l-.73.3h.11l.24,0a3.5,3.5,0,0,1,.46.14s.24.09.08,0l.26.13.46.28s.19.15.07.05l.22.19c.12.11.23.23.34.35l.13.15c.2.23-.09-.15.08.1s.21.33.3.5l.09.17c.14.26,0-.16.05.11s.1.3.14.46a1.55,1.55,0,0,1,.05.23s0,.24,0,.06a2.72,2.72,0,0,1,0,.57s0,.29,0,.15,0,.17,0,.15c0,.15-.08.28-.13.42.08-.21-.07.13-.11.19l-.13.2c-.12.2.13-.13,0,0a3.5,3.5,0,0,1-.27.28l-.17.15c.14-.12,0,0,0,0l-.36.23c-.06,0-.44.2-.24.12a5.26,5.26,0,0,1-.8.23s-.23,0,0,0l-.23,0a3.69,3.69,0,0,1-.47,0h-.15c.24,0,0,0,0,0a2.22,2.22,0,0,1-.37-.09l-.14-.06c.22.09,0,0,0,0l-.13-.07s-.29-.21-.12-.07a3.45,3.45,0,0,1-.28-.26s-.16-.2-.08-.09-.1-.17-.09-.15a2.4,2.4,0,0,1-.39-.95,4.27,4.27,0,0,1,0-1.14,7,7,0,0,1,.28-1.22c.14-.45.34-.87.46-1.32a5.66,5.66,0,0,1,.2-.58c.11-.24.15-.48.27-.71a.35.35,0,0,0-.61-.36Z"/><path class="cls-2" d="M131.84,164.07a2,2,0,0,0-1.66.18,2.76,2.76,0,0,0-1,1.18,2.67,2.67,0,0,0,.51,3.19,3.21,3.21,0,0,0,3.44.39,3.4,3.4,0,0,0,2-2.94,4.35,4.35,0,0,0-.44-2.16c-.32-.69-1.05-1.69-1.93-1.43a.72.72,0,0,0-.52.51,1.37,1.37,0,0,0,.23,1l.37.62s.17.25.15.3-.07-.18,0,0l.07.18.09.32a.59.59,0,0,0,0,.13.51.51,0,0,1,0,.13c0-.15,0-.18,0-.1s0,.21,0,.32a.92.92,0,0,0,0,.16v.07c0,.08,0,.08,0,0V166s0,.08,0,.12a.75.75,0,0,1,0,.16c0,.05,0,.1,0,.16l0,.09,0-.09c0,.06-.11.22-.14.28a.45.45,0,0,0-.1.14l.06-.07-.2.2-.1.09.09-.07-.09.06c-.08.06-.16.1-.24.15l-.1.05c-.18.09.22-.08,0,0l-.27.09-.1,0s-.28,0-.09,0-.09,0-.14,0h-.28c-.2,0,.25.05.05,0l-.1,0-.16,0c-.09,0-.15-.12,0,0-.07-.05-.17-.08-.24-.12l0,0c.13.09,0,0,0,0l-.09-.1c-.09-.09,0-.1,0,.05,0,0,0-.06,0-.08l-.05-.09,0,.09c0-.07,0-.15-.07-.23s0-.07,0-.1c.07.24,0,.17,0,.08v-.25c0-.09.06-.14,0,.08l0-.15c0-.09.07-.2.09-.29,0,.18-.08.15,0,.06s0-.11.08-.16l.06-.08c.13-.21-.1.1,0,0l.17-.17c.08-.08.14-.06,0,0l.12-.08s.23-.09.24-.13-.2.06-.05,0a.66.66,0,0,0,.15,0s-.21,0-.07,0h.19a.79.79,0,0,0,.79-.69.8.8,0,0,0-.57-.87Z"/><path class="cls-2" d="M141.37,155.89a11.73,11.73,0,0,1,5,5.45c1.11,2.33,1.06,4.72,1,7.23a.43.43,0,0,0,.79.21c1.39-2.47.68-5.72-.49-8.12a10.81,10.81,0,0,0-2.55-3.34,10.65,10.65,0,0,0-3.55-2,.29.29,0,0,0-.23.53Z"/><path class="cls-2" d="M95.86,96a6.92,6.92,0,0,0,.83-.36c.33-.1.66-.23,1-.3a4.81,4.81,0,0,1,1.73.05l.43.13s.28.1.11,0l.24.12a2.88,2.88,0,0,1,.38.22s.24.17.1.06l.26.23a2.49,2.49,0,0,1,.78,1.5c0,.16,0-.22,0,.06a2.45,2.45,0,0,1,0,.27c0,.16,0,.31,0,.46s0-.17,0,.11l-.06.27a4.48,4.48,0,0,1-.16.52c-.09.28.08-.14,0,.12l-.12.24a3.26,3.26,0,0,1-.24.4c0,.07-.1.15-.16.22.12-.14-.07.09-.08.09a3.59,3.59,0,0,1-.39.39s-.24.19-.09.08l-.15.1c-.15.1-.31.18-.47.27s.17,0-.1,0l-.17,0-.27.07-.18,0c.11,0,.1,0,0,0a3,3,0,0,1-1.77-.54l-.2-.14c.16.12-.14-.13-.17-.15s-.28-.29-.42-.44.11.17-.07-.09a4,4,0,0,1-.22-.34,3.35,3.35,0,0,1-.28-.53c.09.22,0-.08,0-.1l-.09-.29-.06-.29c0-.13,0-.13,0,0,0-.07,0-.13,0-.2l0-.29c0,.14,0,.13,0,0s0-.28-.08-.42,0,.18,0-.12a3.26,3.26,0,0,0-.05-.33c-.09-.23-.12-.28-.07-.17-.17-.39-.67-.76-1.1-.44a2.69,2.69,0,0,0-.64,3.08,5.56,5.56,0,0,0,1.7,2.56,5.13,5.13,0,0,0,2.88,1.24,4.7,4.7,0,0,0,2.78-.67,5.55,5.55,0,0,0,2.57-4.67,4.6,4.6,0,0,0-3.07-4.26,5.25,5.25,0,0,0-3-.22,3.85,3.85,0,0,0-1.38.55,2.53,2.53,0,0,0-1,1.16.55.55,0,0,0,.67.67Z"/><path class="cls-2" d="M86.6,91a22.43,22.43,0,0,1,2.61-2.35,25.6,25.6,0,0,1,2.9-2.29,17.65,17.65,0,0,1,6.51-2.64c3.54-.63,8.43.31,9.58,4.24a.84.84,0,0,0,1.61-.45c-1.23-4.53-6.53-6-10.7-5.44a19.61,19.61,0,0,0-10.49,5.24,15.87,15.87,0,0,0-2.32,3.46c-.1.18.15.4.3.23Z"/><path class="cls-2" d="M179.64,92.81A3.19,3.19,0,0,0,178,93.87a4.68,4.68,0,0,0-.79,1.83,5.91,5.91,0,0,0,.57,4.06c1.47,2.62,4.8,3.13,7.33,1.81A5.15,5.15,0,0,0,187,94a6,6,0,0,0-3.58-2.63,5.6,5.6,0,0,0-6.63,6.05,4.25,4.25,0,0,0,1.15,2.62,6.6,6.6,0,0,0,1,.81,4.49,4.49,0,0,0,.59.19c.21.07.42.19.63.27.64.23.9-.67.43-1-.09-.07-.2-.22-.3-.25s.05.14,0,0,0-.1-.05-.14a8.6,8.6,0,0,0-.45-.78c-.14-.3-.22-.63-.36-.94,0,0-.08-.18,0-.08l-.05-.14a4.12,4.12,0,0,1-.13-.47c0-.14-.06-.28-.08-.42,0,.2,0-.17,0-.22s0-.28,0-.43,0-.1,0,0,0-.16,0-.24.09-.31.14-.47c0,0,.07-.18,0-.08l.06-.13a2.71,2.71,0,0,1,.21-.37c0-.06.26-.36.17-.26a4.86,4.86,0,0,1,.6-.6l0,0,.15-.1a2.91,2.91,0,0,1,.42-.25l.13-.07.09,0a3.53,3.53,0,0,1,.46-.15,1.75,1.75,0,0,1,.69-.07c.06,0,.41,0,.21,0a1.8,1.8,0,0,1,.39.08l.38.11s.2.08,0,0l.2.09a5.22,5.22,0,0,1,.68.43c-.11-.09.18.16.21.2a3.34,3.34,0,0,1,.32.33,3.23,3.23,0,0,1,.37.52,3.9,3.9,0,0,1,.19.35.77.77,0,0,1,.07.16l0,.1c.07.19.17.6.19.68a6.06,6.06,0,0,1,0,.76c0,.23,0,.1,0,0a1.7,1.7,0,0,1,0,.22,3.07,3.07,0,0,1-.11.36s0,.1-.05.15.08-.16,0,0-.13.24-.2.36l-.15.22L185,99a3.07,3.07,0,0,1-.26.25l-.16.14c-.13.11.12-.08,0,0a4.94,4.94,0,0,1-.67.4l-.28.14c.15-.06-.23.07-.28.09a5.62,5.62,0,0,1-.71.16c-.13,0,0,0,0,0l-.2,0c-.14,0-.28,0-.42,0l-.36,0c-.17,0,.15,0,0,0l-.16,0-.39-.11-.15,0c-.17-.06.21.1-.08,0a2.72,2.72,0,0,1-1.07-.82s-.08-.1-.15-.21a3.38,3.38,0,0,1-.24-.41,2.88,2.88,0,0,1-.24-.63,3.94,3.94,0,0,1-.17-1.57,5.08,5.08,0,0,1,.35-1.42,8.69,8.69,0,0,1,.72-1.58.34.34,0,0,0-.38-.5Z"/><path class="cls-2" d="M102.89,26.18c-.54.09-.69.62-.85,1.08a15,15,0,0,0-.5,2,34.77,34.77,0,0,0-.6,4.42,30.5,30.5,0,0,0,0,4.38c.08,1.32,0,3.12.88,4.17a.77.77,0,0,0,1.28-.34,4.43,4.43,0,0,0,0-2.23c-.08-.67-.14-1.35-.19-2-.1-1.5-.14-3-.1-4.52s.19-2.91.37-4.35c0-.3.56-2.66-.23-2.54Z"/><path class="cls-2" d="M100.41,32.61a5.33,5.33,0,0,0,.14,2.44l.44,2.71c.3,1.84.88,3.64,1.05,5.51,0,.5.8.39.68-.09-.46-1.79-.53-3.64-.86-5.44-.16-.9-.32-1.8-.49-2.7a5.75,5.75,0,0,0-.71-2.46.14.14,0,0,0-.25,0Z"/><path class="cls-2" d="M102.21,41.79a1.73,1.73,0,0,0-1.15.08,6.52,6.52,0,0,0-1.6.71c-1,.58-2,1.24-3,1.88-2,1.26-4,2.5-5.9,3.85a1.23,1.23,0,0,0-.43,1.63,1.21,1.21,0,0,0,1.63.42c2-1.26,4-2.66,5.93-4,1-.66,1.91-1.32,2.84-2a6.29,6.29,0,0,0,1.36-1.26,1.74,1.74,0,0,0,.53-1,.24.24,0,0,0-.17-.23Z"/><path class="cls-2" d="M56.76,44.67c-2.09-3.26-6.55-2-8.77.49a10.34,10.34,0,0,0-.69,12.35c2.49,3.39,7.34,4.84,11.12,2.77a11.74,11.74,0,0,0,5.65-11.89c-.85-4.29-6.21-7.62-10.17-4.88-1.2.83,0,2.82,1.15,2,2.38-1.66,5.72.06,6.61,2.6,1.18,3.34-.62,7.32-3.21,9.51A6.41,6.41,0,0,1,50,57.28c-2.62-2.37-2.94-6.42-1.4-9.48a7.15,7.15,0,0,1,3.45-3.41c1.45-.66,3.37-.89,4.51.43.09.11.27,0,.2-.15Z"/><path class="cls-2" d="M54.61,47.8s0,.08,0,.06l.06,0c0,.06.1-.07,0,0s-.09,0-.12,0l-.24,0c-.09,0,0,0,0,0a1.11,1.11,0,0,1-.16-.07,1.77,1.77,0,0,0-1.15.18,3.18,3.18,0,0,0-1.47,1.45,3.9,3.9,0,0,0,.58,4.31,4.12,4.12,0,0,0,4.74.52,4.25,4.25,0,0,0,2.38-4.22,5.52,5.52,0,0,0-1.25-2.91,5.7,5.7,0,0,0-1.13-1,1.55,1.55,0,0,0-.94-.34,1.35,1.35,0,0,0-.28,0s-.16,0-.06,0c-.11,0-.23,0-.35,0a.61.61,0,0,0-.31,1.13,1.34,1.34,0,0,1,.23.16c-.13-.13-.09,0,0,.06a1.83,1.83,0,0,0,.71.61l.23.16c-.12-.09.05.06.09.09a4.26,4.26,0,0,1,.42.43l.09.11s-.07-.1,0,0l.18.27c0,.08.1.16.14.24l.06.13s.09.18.05.09,0,.14.07.18,0,.18.08.27l.06.26a.68.68,0,0,1,0,.14c0-.14,0,0,0,.06a4.87,4.87,0,0,1,0,.54c0,.12,0,0,0,0a.78.78,0,0,0,0,.14c0,.11,0,.21-.08.31s-.05.16-.08.24c.06-.16,0,0,0,.06l-.15.25c0,.05-.18.23-.07.1a3.61,3.61,0,0,1-.33.35s-.19.16-.06.06l-.24.16a4.31,4.31,0,0,1-.47.26c-.16.08.1,0-.07,0l-.27.09-.24,0L55,53h-.48s-.26,0-.15,0l-.15,0L54,52.86l-.12,0c.08,0,.1,0,0,0l-.25-.13s-.21-.16-.13-.09-.08-.08-.1-.1l-.17-.18c.11.11,0,0,0,0l-.11-.19L53,51.9c.08.19,0,0,0-.11a1.6,1.6,0,0,1,0-.21c0-.09,0-.21,0,0a2.43,2.43,0,0,1,0-.47,1.62,1.62,0,0,1,0-.22c0-.07,0-.27,0-.09a3.43,3.43,0,0,1,.11-.46,1.72,1.72,0,0,1,.07-.21c0-.09,0,0,0,0s0-.11.07-.17a1.11,1.11,0,0,1,.07-.16s-.06.11,0,0,.08-.17.13-.25a1.51,1.51,0,0,1,.51-.53l.37-.22s.23-.18.12-.12a2.33,2.33,0,0,1,.28-.11c.27-.12.61-.46.51-.8s-1.09-.36-.8.13c.09.16.36.06.3-.12Z"/><path class="cls-2" d="M45.65,42A11.25,11.25,0,0,0,42,47.34a11.6,11.6,0,0,0-.65,3.2,10,10,0,0,0,.51,3.25c.08.31.62.27.58-.08a15.06,15.06,0,0,1,.1-3,12.9,12.9,0,0,1,3.7-8.16c.36-.38-.16-.86-.55-.56Z"/><path class="cls-2" d="M45,60.27a7.78,7.78,0,0,0,3.95,4.66,8.07,8.07,0,0,0,3,.95A7.09,7.09,0,0,0,55,65.37a.39.39,0,0,0-.21-.75,8.34,8.34,0,0,1-2.68-.16,9.76,9.76,0,0,1-2.58-.79A8.92,8.92,0,0,1,45.71,60a.41.41,0,0,0-.75.32Z"/><path class="cls-2" d="M62.23,60.33c.76.11,1.49-.54,2-1a11,11,0,0,0,1.79-2,14,14,0,0,0,2.27-5.24,15.13,15.13,0,0,0,.17-5.69,11.7,11.7,0,0,0-.78-2.67C67.39,43,67,41.78,66,41.65a.47.47,0,0,0-.56.32c-.2.78.36,1.48.69,2.14A11.71,11.71,0,0,1,67,46.54a12.37,12.37,0,0,1,.15,5.21,13.38,13.38,0,0,1-1.93,4.82,12.56,12.56,0,0,1-1.6,2c-.49.5-1.28,1-1.47,1.69a.09.09,0,0,0,.06.11Z"/><path class="cls-2" d="M31.63,33.57a19.66,19.66,0,0,0-4.17,3.87,28.35,28.35,0,0,0-3.15,4.87,29.19,29.19,0,0,0-2.06,5.28,25.1,25.1,0,0,0-.66,2.95,3.44,3.44,0,0,0,.19,2.62.54.54,0,0,0,.83.11A3.83,3.83,0,0,0,23.38,51c.13-.9.31-1.8.52-2.68a28.36,28.36,0,0,1,1.86-5.21,36.9,36.9,0,0,1,6.29-9c.26-.28-.08-.8-.42-.56Z"/><path class="cls-2" d="M24.91,61.08c0,.07.11.52.16.67s.08.13.1.24a2.31,2.31,0,0,0,.08.43,5,5,0,0,0,.32.48,13.48,13.48,0,0,0,1.2,1.51,29.9,29.9,0,0,0,3,2.88c1,.88,2.13,1.72,3.25,2.5.55.39,1.1.77,1.69,1.11a1.8,1.8,0,0,0,1.89.3.49.49,0,0,0,.25-.44c0-.71-.45-1-1-1.41s-1.13-.74-1.68-1.12A37.24,37.24,0,0,1,31,65.87c-1-.83-1.92-1.7-2.85-2.58-.49-.47-1-.93-1.49-1.38a2.52,2.52,0,0,0-.75-.5A5,5,0,0,1,25,61c-.06-.06-.17,0-.12.09Z"/><path class="cls-2" d="M54.87,82.87c3.74.75,7.67-.22,11.09-1.77a25.66,25.66,0,0,0,4.92-3c1.37-1.06,3.3-2.46,3.87-4.16a.6.6,0,0,0-.87-.67A10.19,10.19,0,0,0,72,75a23.31,23.31,0,0,1-6.69,4.67,39.1,39.1,0,0,1-10.43,2.76c-.22,0-.21.39,0,.43Z"/><path class="cls-2" d="M51.1,22.06A30.65,30.65,0,0,1,62.79,22a23.39,23.39,0,0,1,5.45,1.86c1.75.85,3.27,2.07,5,2.87.46.21,1.14-.26.78-.78a12.17,12.17,0,0,0-4.93-3.61,25.45,25.45,0,0,0-6.06-2,20.84,20.84,0,0,0-12.33.95c-.51.22-.12.92.36.84Z"/><path class="cls-2" d="M43.59,34.38A31.26,31.26,0,0,1,52,32.24a58,58,0,0,1,8.54.15c.35,0,.37-.47.08-.58a9.16,9.16,0,0,0-2.16-.61c-.7-.1-1.4-.17-2.1-.2a25.94,25.94,0,0,0-4.66.21,24.85,24.85,0,0,0-8.35,2.65c-.28.15-.08.64.21.52Z"/><path class="cls-2" d="M57.74,11.49a.52.52,0,0,0-.26.44c0,.11,0,.22,0,.34l.25-.43c-.41.2-.31.67-.29,1l.06,1c0,.3,0,.61,0,.92s0,.34.06.46a2.63,2.63,0,0,0,.1.56.5.5,0,0,0,.9.11,1.71,1.71,0,0,0,.22-.54,2.64,2.64,0,0,0,.12-.55,6.68,6.68,0,0,0,0-1,5.19,5.19,0,0,0-.2-1.1c-.11-.38-.25-.94-.77-.91l.43.24a1.68,1.68,0,0,0-.27-.45c-.08-.06-.32-.16-.41-.08Z"/><path class="cls-2" d="M60.23,10.28a10.72,10.72,0,0,1,.88,5.42c0,.32.45.36.53.08a8.34,8.34,0,0,0-.51-6,.52.52,0,1,0-.9.53Z"/><path class="cls-2" d="M82.45,46.76a8.14,8.14,0,0,0,1.89-.39c.63-.19,1.26-.39,1.88-.62s1.28-.43,1.87-.72c.3-.15.57-.33.85-.49s.59-.29.89-.42.1-.71-.26-.61-.63.19-1,.25-.66.09-1,.17c-.61.16-1.21.42-1.81.63s-1.19.47-1.78.71a8.55,8.55,0,0,0-1.75.91c-.22.17-.18.6.16.58Z"/><path class="cls-2" d="M84.88,41l.37,0h.28c.06,0-.08,0,0,0l.09,0a.25.25,0,0,0,.17,0,.41.41,0,0,0,.12-.11h0a.22.22,0,0,0,0-.22v0a.38.38,0,0,0-.12-.1.25.25,0,0,0-.17,0s-.06,0-.08,0,0,0,0,0,0,0,0,0h-.65a.22.22,0,0,0-.2.2.2.2,0,0,0,.2.19Z"/><path class="cls-2" d="M106.3,13.39l.1.26v-.28a1.52,1.52,0,0,0-.05.6,4.81,4.81,0,0,0,.2.53l.36.95c.25.67.53,1.35.83,2s.55,1.29.89,1.9a7.61,7.61,0,0,0,.51.87c.19.29.42.69.79.74a.47.47,0,0,0,.51-.21,1.31,1.31,0,0,0,0-1.08c-.08-.32-.19-.64-.3-1-.25-.71-.58-1.39-.88-2.07s-.61-1.31-.94-1.95l-.47-.9a2.11,2.11,0,0,0-.31-.52c-.19-.19-.19-.1-.3-.29-.26-.51-1.15-.16-.94.4Z"/><path class="cls-2" d="M109.41,12.8l2,3.68a11.91,11.91,0,0,0,1.08,1.73A20.78,20.78,0,0,1,113.66,20a.38.38,0,0,0,.65-.38c-.28-.63-.51-1.26-.73-1.91a13.85,13.85,0,0,0-.89-2l-2-3.67c-.46-.86-1.76-.09-1.31.77Z"/><path class="cls-2" d="M117.58,27.48a11.89,11.89,0,0,0-5.48,8.32,14.32,14.32,0,0,0,0,5.18c.28,1.47.79,3.52,2.18,4.33a.29.29,0,0,0,.43-.24c-.15-1.45-1-2.78-1.34-4.21a12.76,12.76,0,0,1-.1-4.85,14.59,14.59,0,0,1,4.48-8.27c.14-.13,0-.35-.2-.26Z"/><path class="cls-2" d="M132.59,29.73a9,9,0,0,0-4.33,1.13,10.82,10.82,0,0,0-3.32,3.38,12,12,0,0,0-1.65,8C124,47.7,128.06,53,133.69,54c6,1.08,12.25-2.61,14.75-8.06,2.63-5.72.35-12-4.6-15.61a13.72,13.72,0,0,0-9.44-2.65c-3.64.41-7.48,2.56-8.91,6.07-.36.88,1,1.64,1.61.93,1.9-2.23,4-4.08,7-4.62a10.94,10.94,0,0,1,7,1.25c4.41,2.36,7.36,7.32,5.87,12.33a12.15,12.15,0,0,1-11.13,8.43c-4.82,0-8.7-3.71-10.08-8.14a11.71,11.71,0,0,1,0-7.4c1-2.81,3.82-5.84,6.84-6.44.21,0,.16-.39-.06-.38Z"/><path class="cls-2" d="M132.67,34.34a6.68,6.68,0,0,0-3.84,7.41c.56,3.16,3.68,5.26,6.76,5.37a7.07,7.07,0,0,0,2.65-13.62,6.54,6.54,0,0,0-5.69.32,5.35,5.35,0,0,0-2.08,1.92,7.71,7.71,0,0,0-.81,2.64c-.07.65.88.68,1.08.15A3.72,3.72,0,0,1,131.8,37a9.59,9.59,0,0,1,1.57-1.27,4.65,4.65,0,0,1,3.53-.54,5,5,0,0,1,3.78,5.53,5.23,5.23,0,0,1-4.25,4.59,5.56,5.56,0,0,1-5.77-3.08,6.23,6.23,0,0,1,2.23-7.33c.24-.17.1-.65-.22-.53Z"/><path class="cls-2" d="M134.87,37.77a1.57,1.57,0,0,0-.77.41l.28-.17.13,0a.88.88,0,0,0-.35.1.65.65,0,0,0-.2.17,2.16,2.16,0,0,0-.21.29,4.23,4.23,0,0,0-.23.53l.08-.18a1.63,1.63,0,0,0-.09,1.32,2,2,0,0,0,.58,1,1.9,1.9,0,0,0,.66.38.92.92,0,0,0,.28,0,.94.94,0,0,0,.61-.26,1.45,1.45,0,0,0,.22-.21,3.17,3.17,0,0,0,.74-1.31,3,3,0,0,0,0-1.67.82.82,0,1,0-1.58.43,2.21,2.21,0,0,1,.05.25l0-.22a2.58,2.58,0,0,1,0,.68l0-.22a2.46,2.46,0,0,1-.16.59l.08-.2a2.78,2.78,0,0,1-.3.53l.13-.17a2.28,2.28,0,0,1-.38.38l.8-.21-.12,0,.2.08a.76.76,0,0,1-.23-.13l.17.13a.77.77,0,0,1-.18-.18l.12.16a1.56,1.56,0,0,1-.16-.28l.08.19a1.7,1.7,0,0,1-.1-.37l0,.21a3.17,3.17,0,0,0-.07-.69l0,.2a.38.38,0,0,1,0-.1l0,.2a2.81,2.81,0,0,1,.08-.31c0-.06-.1.2,0,.07l0-.06a.75.75,0,0,0,.09-.6v.35a.35.35,0,0,1-.08.16s-.05.06,0,0l0,0,.09-.09s-.14.1-.06,0l.05,0s.2-.1,0,0a.71.71,0,0,0,.35-.27.64.64,0,0,0,.06-.45.61.61,0,0,0-.73-.41Z"/><path class="cls-2" d="M143.53,18.47c.06-.14.53-.23.68-.35a4.63,4.63,0,0,1,.46-.31,4.21,4.21,0,0,0,.79-.84c.53-.61,1-1.23,1.51-1.88s.85-1.29,1.23-2a9.13,9.13,0,0,0,.91-2.19.39.39,0,0,0-.64-.37,13.8,13.8,0,0,0-1.38,1.84c-.42.65-.84,1.29-1.27,1.93s-.82,1.26-1.24,1.87a6.75,6.75,0,0,0-.65,1c-.09.19-.14.36-.24.55s-.08.61-.23.7,0,.15.07.06Z"/><path class="cls-2" d="M149.44,19.52c.22.5.76.43,1.24.54s1.21.28,1.81.43a29.1,29.1,0,0,1,3.95,1.33,25.67,25.67,0,0,1,11.85,10.59,44.66,44.66,0,0,1,3,7.65A.41.41,0,0,0,172,40c.14-3-1.18-6-2.62-8.56a25.21,25.21,0,0,0-13.29-11.24,18.45,18.45,0,0,0-4.39-1c-.25,0-2.61-.34-2.3.4Z"/><path class="cls-2" d="M168.6,49.62A6.33,6.33,0,0,0,167,51.93c-.48.89-1,1.76-1.56,2.61a43.15,43.15,0,0,1-3.81,5,42.37,42.37,0,0,1-4.32,4.26c-.83.71-1.7,1.38-2.57,2a13.37,13.37,0,0,0-2.34,2,.47.47,0,0,0,.46.78c1.93-.47,3.73-2.14,5.22-3.39a42.58,42.58,0,0,0,8.41-9.56c.57-.89,1.11-1.81,1.61-2.74A5.79,5.79,0,0,0,169.2,50c0-.27-.34-.53-.6-.34Z"/><path class="cls-2" d="M173.89,47.72h.28c.14,0,.25,0,.38,0l.67-.06c.51,0,1,0,1.52-.11s1-.12,1.47-.21a9.16,9.16,0,0,0,1.43-.46.36.36,0,0,0-.09-.71,10,10,0,0,0-1.45,0c-.51.06-1,.14-1.54.24s-.94.22-1.41.32l-.71.16c-.23,0-.41.16-.63.22a.31.31,0,0,0,.08.61Z"/><path class="cls-2" d="M175.49,43.82l2.83-.08c1,0,1.88-.15,2.83-.24a.27.27,0,0,0,0-.53c-1,0-1.88-.09-2.83-.06l-2.83.08c-.53,0-.53.85,0,.83Z"/><path class="cls-2" d="M142.4,72.39l-1.71,2.43c-.28.4-.57.8-.83,1.21l-.38.62a2.88,2.88,0,0,0-.36.61c0,.09.09.15.16.09a3.35,3.35,0,0,0,.42-.57l.38-.57c.28-.41.54-.84.8-1.27l1.54-2.53s0,0,0,0Z"/><path class="cls-2" d="M146,68.21l-1.44,3.57a28.51,28.51,0,0,0-1,3.67.25.25,0,0,0,.46.19,32,32,0,0,0,1.68-3.49c.43-1.22.87-2.45,1.31-3.67a.5.5,0,1,0-1-.27Z"/><path class="cls-2" d="M114.19,61.5l.48-.17-.25-.07c.24.24.54.12.81,0l.93-.44c.66-.32,1.29-.69,1.91-1.07a22.6,22.6,0,0,0,3.37-2.63c.24-.22-.07-.64-.35-.46-1.16.77-2.35,1.48-3.53,2.21l-1.77,1.05-.89.52c-.26.14-.59.3-.56.64l.13-.22-.43.27c-.19.11-.07.45.15.37Z"/><path class="cls-2" d="M107.75,59.23l5-2.1c.81-.34,1.6-.69,2.4-1.05a8.49,8.49,0,0,0,2.28-1.32.27.27,0,0,0-.19-.46,8.63,8.63,0,0,0-2.36.74c-.86.35-1.7.74-2.53,1.13l-4.92,2.32c-.42.19-.12.92.31.74Z"/><path class="cls-2" d="M148.05,55.58a9.39,9.39,0,0,0,3.64-1.75,10.19,10.19,0,0,0,2.64-3.37,11,11,0,0,0,1.08-4,9.43,9.43,0,0,0-.63-4.14.13.13,0,0,0-.24.07,11.73,11.73,0,0,1-1.28,7.55A12.77,12.77,0,0,1,148,55.34c-.14.06,0,.28.1.24Z"/><path class="cls-2" d="M155.9,34.34a9.47,9.47,0,0,0-3-7.19A9.91,9.91,0,0,0,149.59,25a8.25,8.25,0,0,0-4-.45c-.14,0-.14.23,0,.22,5.2-.34,10.23,4.33,10.08,9.56,0,.17.26.17.26,0Z"/></g></g></svg>