<svg xmlns="http://www.w3.org/2000/svg" viewBox="0 0 131.04 124.73"><defs><style>.cls-1{fill:#fff;stroke:#000;stroke-miterlimit:10;stroke-width:3px;}</style></defs><g id="Camada_2" data-name="Camada 2"><g id="Camada_2-2" data-name="Camada 2"><path class="cls-1" d="M10.15,48.3A7.83,7.83,0,0,0,15,39.5c-.34-2.17.77-5.36,6.56-9.47C33.11,21.8,48.24-2.61,54.67,2.1S113,41.77,127.54,47.79c0,0-25.71,13.8-18.57,31.41,0,0-5.09-5.44-15-3.42,0,0-10.7,19.41-71.29,46.71,0,0-4.6-54.57-14.38-59.88a9.22,9.22,0,0,1-2-1.33c-2.8-2.6-9.18-9.54-.27-11.75A38.5,38.5,0,0,0,10.15,48.3Z"/><path d="M11.55,52.28c7,1.42,14.17-1.34,20.3-4.65A97.46,97.46,0,0,0,49.47,35.27C54.4,31,58.93,25.48,60,18.81a5.74,5.74,0,0,0-.73-4.42,5.73,5.73,0,0,0-3.73-2.19c-3.64-.61-7.16,1.87-10.1,3.68-7.23,4.46-14.2,10-19.54,16.62-.66.82.39,2,1.18,1.18A127.16,127.16,0,0,1,42.71,20.3a51.27,51.27,0,0,1,8.89-5.37,5.68,5.68,0,0,1,4.73-.25c1.7.82,1.81,2.45,1.51,4.14-1.09,6-5.12,10.81-9.46,14.81a115.41,115.41,0,0,1-15.3,11.83c-6.55,4.25-13.59,6.88-21.49,6.48a.17.17,0,0,0,0,.34Z"/><path d="M41.34,36.75A20.37,20.37,0,0,0,46,33.54c.72-.61,1.44-1.23,2.11-1.89a9.68,9.68,0,0,0,1.81-2.18c.12-.23-.13-.54-.37-.37a15.49,15.49,0,0,0-2,1.85c-.68.65-1.36,1.3-2.08,1.92-1.42,1.22-3,2.23-4.43,3.47-.23.21.07.51.32.41Z"/><path d="M18.07,48.85a39.85,39.85,0,0,0,9.47-3.12,29.37,29.37,0,0,0,8.33-5.44.25.25,0,0,0-.31-.39A83.4,83.4,0,0,1,27.27,45a45.64,45.64,0,0,1-9.36,3.29c-.4.09-.23.67.16.6Z"/><path d="M26.19,104.8c6.44-1.29,12.63-4.3,18.45-7.25A162.18,162.18,0,0,0,61.92,87.31a164.65,164.65,0,0,0,30-25.93q3.78-4.17,7.27-8.59a64.86,64.86,0,0,0,6.35-9.11c.39-.73-.59-1.57-1.18-.91C100,47.65,96.16,53,91.76,57.86a186.41,186.41,0,0,1-14,13.87A175.93,175.93,0,0,1,45.67,94.52c-3.17,1.75-6.4,3.37-9.61,5s-6.73,3.23-9.92,5.13a.07.07,0,0,0,.05.12Z"/><path d="M43.36,93.71a78,78,0,0,0,8.4-4c1.32-.77,2.64-1.55,3.91-2.4s2.54-1.89,3.8-2.85c.11-.09,0-.29-.12-.21-2.54,1.75-5.23,3.38-7.89,4.94s-5.37,3.15-8.16,4.47c-.06,0,0,.12.06.09Z"/><path d="M72.93,74.18a1.32,1.32,0,0,0,.79-.37l1-.69c.63-.45,1.24-.92,1.86-1.38,1.21-.92,2.36-1.9,3.54-2.86.14-.11,0-.35-.19-.25-1.26.89-2.53,1.75-3.76,2.69-.58.44-1.16.87-1.72,1.33l-.93.75c-.27.22-.51.36-.61.7,0,0,0,.08.06.08Z"/><path d="M18.53,64.9a33.82,33.82,0,0,1,6.23,16.25c0,.19.32.2.31,0a29.58,29.58,0,0,0-6.32-16.42c-.1-.13-.31,0-.22.17Z"/><path d="M27.79,73.55a3.57,3.57,0,0,0-.1-.35c-.07-.25-.5-.22-.47.06a39.45,39.45,0,0,0,1.4,6.52c.29,1.08.58,2.16.91,3.23a11.6,11.6,0,0,0,1.2,3.11.34.34,0,0,0,.62-.17,12.53,12.53,0,0,0-.75-3.23c-.3-1-.61-2.07-.92-3.1a64.45,64.45,0,0,0-2-6.42l-.4.23a3,3,0,0,0,.22.28.17.17,0,0,0,.28-.16Z"/><path d="M22.88,117.07A3.89,3.89,0,0,0,26,120.51a4.24,4.24,0,0,0,2.55-.36,2.29,2.29,0,0,0,1.47-2,.51.51,0,0,0-.75-.44c-.58.28-.91.63-1.48.93a2.56,2.56,0,0,1-1.47.27,2.65,2.65,0,0,1-.69-.22,3,3,0,0,1-.65-.44,3.07,3.07,0,0,1-.85-1.39c-.21-.66-1.31-.58-1.25.16Z"/><path d="M96.69,74.85c3.26-.54,6.31-2.87,8.7-5a71.94,71.94,0,0,0,7.33-8.08c2.74-3.32,5.54-6.61,8.21-10,1.64-2.07,3.52-6.21.42-8-1-.62-1.87.73-1.21,1.57,2.19,2.83-1.71,6.1-3.42,8.16-2.33,2.81-4.67,5.61-7,8.43a59.62,59.62,0,0,1-6.15,6.66A31.23,31.23,0,0,1,96,73.24c-1,.46-.24,1.76.68,1.61Z"/><path d="M123.4,45.6a2,2,0,0,1,0,.24l.24-.58a1.06,1.06,0,0,0-.57.89c0,.12,0,.23,0,.34s0,.12,0,.18,0-.16,0,0,0,.22-.07.33-.1.41-.17.62,0,0,0,0a.87.87,0,0,0-.07.17c0,.1-.11.2-.17.3l-.18.28c-.1.14.1-.12,0,0l-.1.12a5.22,5.22,0,0,1-.48.46,1.67,1.67,0,0,0-.34.36l-.09.13c.07-.09.09-.12,0-.06l-.06.06a6,6,0,0,1-.42.46.52.52,0,0,0,.23.86,2.33,2.33,0,0,0,1.72-.19,4.22,4.22,0,0,0,1.26-1.3,4.47,4.47,0,0,0,.64-3.28.87.87,0,0,0-.63-.63l-.19,0,.36.36a2.07,2.07,0,0,0-.15-.34.47.47,0,0,0-.6-.2.49.49,0,0,0-.28.57Z"/><path d="M92.71,75c2.89-1,5.49-3,7.93-4.74s4.92-3.85,7.25-5.94a75.25,75.25,0,0,0,6.73-6.87c1.87-2.16,4.33-4.63,5.17-7.41.08-.28-.28-.62-.54-.42a15,15,0,0,0-2.69,3q-1.45,1.92-3,3.76c-2,2.39-4.2,4.68-6.44,6.87a75.22,75.22,0,0,1-7.23,6.1c-2.41,1.81-5.11,3.32-7.35,5.33a.2.2,0,0,0,.19.33Z"/><path d="M119.51,51.12a5.54,5.54,0,0,0,1.29-1.22,5.25,5.25,0,0,0,.78-1.72,6.52,6.52,0,0,0-.23-3.76.84.84,0,0,0-.9-.59.81.81,0,0,0-.71.81,13.92,13.92,0,0,1-.22,4c-.13.64-.31,1.27-.49,1.9a6.93,6.93,0,0,0-.24,1,6.44,6.44,0,0,1-.15,1.06c-.08.29.33.56.54.31s.49-.5.72-.77a3.79,3.79,0,0,0,.58-1,10.56,10.56,0,0,0,.64-2.07,15.55,15.55,0,0,0,.26-4.41l-1.61.22a5.81,5.81,0,0,1,.36,3.06,7.13,7.13,0,0,1-.32,1.44,6.52,6.52,0,0,1-.61,1.53c-.13.2.15.36.31.23Z"/><path d="M101.49,71.66a6.4,6.4,0,0,0,1.87-1.17c.63-.5,1.24-1,1.85-1.56,1.18-1.05,2.34-2.12,3.5-3.18.91-.84-.43-2.16-1.34-1.35l-8.18,7.25a1,1,0,0,0,.73,1.75l4.32.34a1.06,1.06,0,0,0,.53-2c-.2-.11,0,0,0,0s0,.1,0,0,0-.06,0,0v-.1c0,.12,0,.11,0,0,0,.08,0,.14-.13.19l-1.47-1.47A12.25,12.25,0,0,0,102,73.77l.78-.78a1.69,1.69,0,0,1-1.49-.21l-.57,2.09a6.15,6.15,0,0,0,5.06-2.46,10.66,10.66,0,0,0,1.54-2.78,6.18,6.18,0,0,0,.26-.72,7,7,0,0,0,.08-.9c0-.5,0-1,0-1.49a.62.62,0,0,0-1.15-.31,13.71,13.71,0,0,0-1.31,2.37,9.6,9.6,0,0,1-1.11,2.19,4,4,0,0,1-3.39,1.85,1.14,1.14,0,0,0-.56,2.1,3.92,3.92,0,0,0,3.2.4,1.11,1.11,0,0,0,.77-.77,10,10,0,0,1,1-2.76c.48-.89-.53-2.11-1.47-1.47a2.06,2.06,0,0,0,.09,3.48l.54-2-4.32-.27.72,1.75,8.07-7.35-1.34-1.35c-1.13,1.06-2.24,2.13-3.35,3.21-.56.54-1.1,1.09-1.63,1.66A6.89,6.89,0,0,0,101,71.09c-.12.28.09.7.45.57Z"/><path d="M106.46,70.11a2.49,2.49,0,0,1-.35.62,3.87,3.87,0,0,0-.41.78,10.76,10.76,0,0,0-.55,1.66,10.28,10.28,0,0,0-.22,3.54,1,1,0,0,0,.95,1,1,1,0,0,0,1-1c0-1.08,0-2.16.13-3.24,0-.51.08-1,.13-1.53a5.52,5.52,0,0,0,.06-.81c0-.12,0-.26,0-.37,0,.07,0,0,0-.09l.06-.23c.12-.45-.57-.77-.77-.33Z"/><path d="M98.14,70.5c.12.65,0,1-.48,1.12l-.57.19-1,.34c-.76.26-1.52.53-2.27.83-1.41.56-2.8,1.17-4.18,1.82a73.85,73.85,0,0,0-8.41,4.84,116,116,0,0,0-15.25,11.7.35.35,0,0,0,.43.55c6.35-4.18,12.26-9,18.75-13A103.2,103.2,0,0,1,95,73.59c.9-.43,1.82-.81,2.72-1.22.43-.2,1-.41,1.18-.89s0-1.21-.68-1.18c-.1,0-.16.15-.06.2Z"/><path d="M93.53,74.51a20.29,20.29,0,0,0,4.11-1.17,16.92,16.92,0,0,0,1.93-.9,5.43,5.43,0,0,0,1.68-1.24.28.28,0,0,0-.27-.47,9.33,9.33,0,0,0-1.89.89c-.6.3-1.19.61-1.8.89A28.18,28.18,0,0,1,93.38,74a.29.29,0,0,0,.15.55Z"/><path d="M93.53,73.93a36.8,36.8,0,0,0,6-2.21,26.3,26.3,0,0,0,5.37-3.39c.21-.17-.06-.51-.28-.37a46.05,46.05,0,0,1-11.25,5.39.3.3,0,0,0,.17.58Z"/></g></g></svg>