<svg xmlns="http://www.w3.org/2000/svg" viewBox="0 0 166.71 214.29"><defs><style>.cls-1{fill:#fff;stroke:#000;stroke-miterlimit:10;}</style></defs><g id="Camada_2" data-name="Camada 2"><g id="Camada_6" data-name="Camada 6"><path class="cls-1" d="M11.17,50.28s-2.74-11,3.89-25S27.49.57,27.49.57s22.19,5.1,36.19,20.35l61,71.25s27.22-4.83,37.11,14.58c0,0,2.87,4.37,4.38,13.89,0,0-10.52,12.68-4.51,27.11,0,0-2.41,3.81,2.8,13.11,0,0-6.49,1.26-19.14,17.78,0,0-5.8,7-11.22,10.75a16.63,16.63,0,0,0-6.55,9.47s-17.67,3-25.77,9.15c0,0-17.66,12.19-29.88,1.17,0,0-7.63-13-7.93-22,0,0-55.6,5.42-63.45-33.28,0,0,27.33-41.67,36.74-60.19L8.33,104.52S2,79.66,10.85,63.92s19-23.06,19-23.06Z"/><path d="M14.29,58.69c1.06-.3,1.8-1.62,2.47-2.44.83-1,1.67-2.07,2.51-3.11,1.78-2.19,3.6-4.33,5.48-6.43s3.68-4.07,5.59-6,4.21-3.84,6-6c.62-.75-.21-2.17-1.14-1.48A48.7,48.7,0,0,0,29.25,39c-2,2.09-4,4.22-5.85,6.41S19.77,49.68,18,51.9c-.82,1.05-1.62,2.12-2.4,3.2-.64.9-1.82,2.1-1.78,3.26a.35.35,0,0,0,.44.33Z"/><path d="M36.11,33.3c-1.21,3.88-1,8.26-.52,12.25a54.84,54.84,0,0,0,2.78,12.14A57.67,57.67,0,0,0,51.65,78.93a54,54,0,0,0,5.25,4.66c1.68,1.3,3.74,3.31,6,3.38a.88.88,0,0,0,.75-1.31c-.92-1.62-2.93-2.48-4.39-3.57a50.48,50.48,0,0,1-4.68-4,54.09,54.09,0,0,1-7.73-9.21,58.71,58.71,0,0,1-8.91-22c-.82-4.5-.67-9-1.13-13.53a.34.34,0,0,0-.66-.08Z"/><path d="M27.38,98.94c2.93-1.26,6-2.16,9-3.29,2.83-1.07,5.68-2.06,8.56-3S50.73,90.8,53.65,90c1.5-.41,3-.8,4.51-1.17,1.21-.29,3.11-.33,3.92-1.36a.86.86,0,0,0-.17-1.34c-1.22-.61-2.66,0-3.92.36-1.58.38-3.16.79-4.73,1.23-3.07.84-6.12,1.77-9.13,2.8s-5.86,2.11-8.72,3.33-5.66,2.85-8.51,4.27c-.56.28-.07,1.06.48.83Z"/><path d="M21.34,64a20.84,20.84,0,0,0-3.26,6.55,23.12,23.12,0,0,0-.72,3.5,14.06,14.06,0,0,0-.12,1.83,15.11,15.11,0,0,0,.24,1.79c.05.31.49.21.51-.06.08-1.14.24-2.31.36-3.45A20.67,20.67,0,0,1,19,70.72a23,23,0,0,1,2.85-6.38c.22-.34-.31-.63-.54-.31Z"/><path d="M22.39,67.31a32,32,0,0,0-.83,7.09,24.77,24.77,0,0,0,.17,3.44c.18,1.23.56,2.39.84,3.59.05.22.37.13.33-.09a33.68,33.68,0,0,1-.22-3.63c-.05-1.11-.14-2.21-.15-3.31a42.16,42.16,0,0,1,.53-6.91c.06-.42-.56-.62-.67-.18Z"/><path d="M50.19,75.61c1.8.73,4,0,5.77-.44s3.82-1,5.72-1.58A111.56,111.56,0,0,0,73,69.5a82.41,82.41,0,0,0,10.49-5.29Q86,62.7,88.4,61a29.29,29.29,0,0,0,4.66-3.78,1.2,1.2,0,0,0-.84-2c-.56,0-1,.24-1.6.3a.49.49,0,0,0-.25.91c.45.3.78.71,1.25,1V55.33C90,56.44,88.58,57.83,87,59s-3,2.09-4.55,3a83.77,83.77,0,0,1-9.91,5.14,112.79,112.79,0,0,1-10.65,4c-3.7,1.19-7.56,2.74-11.47,2.75a.87.87,0,0,0-.23,1.7Z"/><path d="M40.22,38.73a16,16,0,0,0-.06,5.68,13.58,13.58,0,0,0,2.23,5.3c.13.19.44,0,.32-.19A16.64,16.64,0,0,1,40.82,38.9c.07-.39-.52-.56-.6-.17Z"/><path d="M43,42.09a20.07,20.07,0,0,0,3.82,8.69c.08.11.27,0,.19-.15A22.79,22.79,0,0,1,43.35,42c0-.26-.43-.15-.39.11Z"/><path d="M61.39,76.64a23.19,23.19,0,0,1-1.73-2.8c-.21-.46-.93-.13-.81.34a4.44,4.44,0,0,0,.52,1.55c.25.42.54.83.81,1.24.63,1,1.26,1.93,1.9,2.89l3.63,5.32,7.54,11c4.47,6.51,8.93,13.16,14.92,18.4,1,.86,2.44-.58,1.45-1.45-6.05-5.29-10.5-12-15-18.6q-3.72-5.41-7.46-10.8c-1.22-1.77-2.43-3.54-3.66-5.3-.66-1-1.35-1.88-2-2.82a11.59,11.59,0,0,0-.87-1.21,7.72,7.72,0,0,0-1.08-.76l-.53.7a22.08,22.08,0,0,1,2.23,2.4c.09.1.26,0,.19-.14Z"/><path d="M63.87,72.42c3.14,7.37,7.57,14.31,12,21S84.92,106.6,90,112.81c.81,1,2.2-.42,1.41-1.42-5-6.25-9.68-12.68-14.06-19.35S69.17,78.46,64.89,71.83a.59.59,0,0,0-1,.59Z"/><path d="M35.19,95.19c-.21,1.25.47,2.43,1,3.56.64,1.42,1.36,2.8,2.1,4.17a81.26,81.26,0,0,0,4.82,7.74,76.39,76.39,0,0,0,12,13.78c.94.82,2.28-.48,1.38-1.38A105.68,105.68,0,0,1,44.6,109.53c-1.67-2.37-3.23-4.82-4.68-7.33-.74-1.29-1.44-2.6-2.14-3.91-.61-1.12-1.1-2.55-2.22-3.25a.25.25,0,0,0-.37.15Z"/><path d="M39.64,92.77c-.35,1.15.73,2.68,1.23,3.7q1,2.06,2.12,4.06c1.51,2.73,3.17,5.38,4.93,8s3.47,4.87,5.35,7.19c1,1.24,2,2.46,3.1,3.66.75.84,1.79,2.61,3.05,2.5.24,0,.55-.18.59-.46.18-1.25-1.06-2.06-1.83-2.93-1-1.14-2-2.29-3-3.47q-3-3.58-5.63-7.45c-1.7-2.45-3.28-5-4.77-7.56-.76-1.32-1.51-2.65-2.22-4-.54-1-1.15-3-2.25-3.48a.47.47,0,0,0-.68.27Z"/><path d="M39.16,98.24,41,101.57c.3.54.61,1.09.93,1.62l.45.78a4.36,4.36,0,0,0,.51.8.16.16,0,0,0,.26-.15,4.2,4.2,0,0,0-.42-.85l-.44-.79c-.3-.54-.62-1.08-.93-1.62l-1.92-3.29a.17.17,0,0,0-.3.17Z"/><path d="M62.15,74.64c.75,1,1.49,2,2.27,2.93S66,79.44,66.8,80.4c.13.15.39-.05.27-.21-.72-1-1.39-2-2.12-3s-1.49-2-2.24-2.94c-.25-.32-.8.1-.56.42Z"/><path d="M130.55,93.21a10.37,10.37,0,0,0-9.67-.09,11.51,11.51,0,0,0-6.47,7.8,6,6,0,0,0,1.2,5.36,4.26,4.26,0,0,0,4.66,1.14,8.14,8.14,0,0,0,2.17-1.8,6.35,6.35,0,0,1,2.86-1.54c2.31-.56,4,.31,6,1.45a6.54,6.54,0,0,0,5.61.69c1.53-.53,3.89-2,3.64-3.94-.06-.49-.58-1-1.08-.63-1.17.8-1.69,2-3.12,2.57a4.67,4.67,0,0,1-4.34-.67c-2.73-1.68-5.73-2.28-8.75-.88a7.89,7.89,0,0,0-1.68,1c-.67.54-1.22,1.45-2,1.82-1.79.86-3.2-1.27-3.28-2.79-.17-3.1,2.09-6,4.62-7.48a12.46,12.46,0,0,1,9.38-1.34.4.4,0,0,0,.3-.72Z"/><path d="M137.53,105.86a18,18,0,0,0-9.39,2.87c-2.38,1.45-5.6,3.8-5.46,7a3.51,3.51,0,0,0,5.47,3c1.44-.92,2.58-2.2,4.09-3a15.74,15.74,0,0,1,5.12-1.77l-1.26-1.26c-1.15,2.79-4.55,3.83-6.09,6.38-1.24,2-1.58,5.15.79,6.56,2.63,1.57,5.54-.41,7.17-2.45a19.19,19.19,0,0,1,3.25-3.71,9.64,9.64,0,0,1,4.91-1.86l-1-1c0,1.9-1.89,3.35-2.9,4.77s-1.51,3.47-.27,5,3.53,1.78,5.33,1.3c2.54-.68,4.58-2.81,6.72-4.23.47-.32.34-1.22-.32-1.17-2.34.19-3.75,1.77-5.7,2.89-1.21.69-4.08,1.35-4.68-.53-.45-1.39,1.16-2.81,1.94-3.77a6.6,6.6,0,0,0,1.93-4.27,1,1,0,0,0-1-1,11.69,11.69,0,0,0-7,3c-1.85,1.73-3.22,5.41-6.14,5.51a1.8,1.8,0,0,1-1.84-2.28,5.43,5.43,0,0,1,1.79-3.07c1.94-1.77,4.14-3,5.18-5.53.33-.8-.59-1.38-1.26-1.26a17,17,0,0,0-7,2.85,24.11,24.11,0,0,1-3,2.36c-1.34.64-2.29-.68-2.11-2,.34-2.42,3.49-4.36,5.4-5.48a32,32,0,0,1,7.55-2.93.45.45,0,0,0-.12-.87Z"/><path d="M129.74,123.49a21.79,21.79,0,0,0-12.17-1.85,20.83,20.83,0,0,0-10.83,4.48,5.57,5.57,0,0,0-2.12,4.55,3.83,3.83,0,0,0,2.23,3.27c2,.77,4.4-.51,6.26-1.13a12.52,12.52,0,0,1,3.68-1c.71,0,2.42.83,1.52,1.75l.66-.27c-2.77.21-6.31.63-7.64,3.46-1,2.15-.39,5.22,2.24,5.73,1.66.33,3.21-.61,4.46-1.59a32.36,32.36,0,0,1,4.31-3.15,5.83,5.83,0,0,1,5-.65c1.49.63,2.82,2,2.35,3.75a.94.94,0,0,0,1.82.5,5,5,0,0,0-2.41-5.45,7,7,0,0,0-6.85-.21,16.81,16.81,0,0,0-3.39,2.13c-1.21.93-2.39,2.25-3.88,2.73a1.62,1.62,0,0,1-2.3-1.66,3.16,3.16,0,0,1,1.91-2.85,11.26,11.26,0,0,1,4-.86,1.82,1.82,0,0,0,1.76-1.86c.14-2.36-2.17-3.54-4.23-3.28a23.33,23.33,0,0,0-4.4,1.28c-1.23.4-3.55,1.66-4.68.56a2.67,2.67,0,0,1-.07-3.27,9.33,9.33,0,0,1,3.44-2.81,23,23,0,0,1,18.89-1.29c.6.22,1-.77.44-1Z"/><path d="M124.93,137.23c1.81,4.86-2.08,9.29-6.22,11.23-4.52,2.12-9.64,2.47-14.18,4.56a14.65,14.65,0,0,0-5.39,4,13.6,13.6,0,0,1-2.25,2.59,7.8,7.8,0,0,1-4,1.18,27.11,27.11,0,0,1-14.61-2.92,42,42,0,0,1-6.38-4.47,12.68,12.68,0,0,0-6.19-2.91,14,14,0,0,0-7,1,13.42,13.42,0,0,0-5.71,3.78,3.54,3.54,0,0,0,.23,4.93,6.07,6.07,0,0,0,5.22,1c1.67-.34,5.7-1.94,6.14.91.2,1.26-1.43.92-2.23.83a13.93,13.93,0,0,0-3.59-.1,4.73,4.73,0,0,0-4.35,4c-.26,2.27,1.46,3.71,3.64,3.68a37.58,37.58,0,0,0,4.34-.55l4.92-.68c2.42-.32,7.39-.58,7.14,3.15a1,1,0,0,0,1,1,16.3,16.3,0,0,0,3-.27.76.76,0,0,0,0-1.45,15.5,15.5,0,0,0-3-.32l1,1a5,5,0,0,0-3-4.73c-2.4-1.13-5.14-.59-7.66-.24l-4.18.57c-1.27.18-3.11.79-4.38.38-1-.35-.93-1.51-.47-2.3a3.45,3.45,0,0,1,3.1-1.36c2,0,4.71,1.07,6.2-.72,1.09-1.31.51-3.24-.55-4.38-1.55-1.65-3.85-1.35-5.85-.87-1.25.31-6,1.41-5.51-1.37.18-1.18,1.53-2,2.45-2.61a16.91,16.91,0,0,1,3.79-1.81,10.6,10.6,0,0,1,7.22,0c2.37.95,4.19,2.92,6.22,4.38a28.77,28.77,0,0,0,6.54,3.49,27.58,27.58,0,0,0,14.41,1.52,8.27,8.27,0,0,0,5.36-3.65,14.09,14.09,0,0,1,6-4.52c5.1-2.16,11-2.38,15.68-5.58,3.74-2.56,6.45-7.5,4.26-11.91-.29-.57-1.27-.17-1,.44Z"/><path d="M72.94,170.19c-2-1.26-4.41-.36-6.11,1-2,1.64-3.44,3.94-6.09,4.56-4.48,1-9-1.9-13.39-2.51a9.57,9.57,0,0,0-6.23.89c-1.78,1.09-3.14,3.39-1.77,5.34,1.18,1.67,3.57,1.65,5.37,1.29a10.27,10.27,0,0,1,3.68-.5c.6.11,1.3.42,1.23,1.11a6.2,6.2,0,0,1-.76,1.55,2.4,2.4,0,0,0,0,2.54c.46.58,1.08.5,1.78.56l2.86.24,5.26.46c1.4.12,3.17,0,4.08,1.33.42.6,1.57.46,1.51-.41-.15-2.44-3-2.68-4.88-2.83l-9.79-.78.82.47c-.32-.48.38-1.31.6-1.76a3.42,3.42,0,0,0,.43-1.87c-.17-1.54-1.82-2.36-3.21-2.48-1.82-.15-3.5.71-5.29.75a2.65,2.65,0,0,1-2.17-.68c-.8-1,.31-2.26,1.17-2.8,2.88-1.82,7-.42,10,.41s6.3,1.92,9.42,1A10,10,0,0,0,66,174c1.57-1.73,3.88-4.22,6.47-2.9a.51.51,0,0,0,.52-.88Z"/><path d="M102.53,136.14a2.52,2.52,0,0,0-1.78.34,3.29,3.29,0,0,0-1.18,1.3,3.11,3.11,0,0,0-.29,1.92,2.68,2.68,0,0,0,1.07,1.62,3.42,3.42,0,0,0,3.44.17,3,3,0,0,0,1.31-1.22,3.11,3.11,0,0,0,.31-2.14,3.92,3.92,0,0,0-1.11-1.94,3,3,0,0,0-2.29-.92.94.94,0,0,0-.92.81.92.92,0,0,0,.67,1,3.45,3.45,0,0,1,.71.15l.15.06c.15.06-.2-.1,0,0a3,3,0,0,1,.34.2l.06,0c.09,0-.08-.07-.08-.07a.75.75,0,0,0,.14.12l.26.27c.13.15-.08-.13,0,0a1,1,0,0,0,.08.14.83.83,0,0,1,.09.16s.12.25.06.11l0,.08s0,.1,0,.15a1.16,1.16,0,0,1,0,.18c0,.2,0-.15,0,0V139c0,.16,0-.18,0,0a1.6,1.6,0,0,1-.05.21s-.08.23,0,.08l0,.06-.16.26s.13-.15.07-.09,0,0,0,.05l-.1.11-.12.11c-.09.08.18-.13,0,0L103,140l-.14.07c-.12.06.2-.07,0,0l-.28.09-.15,0h-.07c-.16,0,.17,0,.07,0l-.29,0h-.29l-.15,0-.12,0-.09,0c-.1,0,.07,0,.09,0s-.19-.09-.27-.15l-.11-.07s.16.13.07,0-.05,0-.07-.06l-.11-.11,0-.05s.1.15.06.08a1.49,1.49,0,0,0-.18-.3s.06.17,0,.09a.14.14,0,0,0,0-.06.75.75,0,0,1,0-.16.8.8,0,0,1,0-.15s0,.19,0,.11,0-.06,0-.09,0-.22,0-.33,0-.09,0-.13,0,.17,0,.07,0-.06,0-.09a1.89,1.89,0,0,1,.09-.34l0-.09c0-.1,0,.05,0,.05s.07-.13.08-.16.17-.33.2-.32-.09.11,0,.05l.06-.07.13-.13.13-.12c.06-.06-.05,0,0,0s.06,0,.07-.05l.15-.09c.07,0,.19-.07,0,0l.35-.09c-.13,0,0,0,0,0h.21a.62.62,0,0,0,.17-1.21Z"/><path d="M115.39,110.74a2.87,2.87,0,0,0-.87.18l-.25.11-.09,0s.14,0,0,0a1.53,1.53,0,0,0-.45.25,3.26,3.26,0,0,0-1.14,1.61,3.21,3.21,0,0,0,.8,3.46A3.52,3.52,0,0,0,117,117a3.47,3.47,0,0,0,2.28-3.06,4,4,0,0,0-2.08-3.54A3,3,0,0,0,116,110a1.11,1.11,0,0,0-1.11.79c-.12.46.36.93.74,1.07.14,0,.28.06.42.1l.23.08c.09,0,0,0,0,0s-.07,0,0,0l.06,0a3.28,3.28,0,0,1,.37.22s.2.18.11.08,0,0,0,0l.11.1c.11.1.2.22.3.32s-.08-.13,0,0l0,.07c.05.07.1.14.14.21s.17.27.05.08a.85.85,0,0,1,.06.17,2.17,2.17,0,0,1,.07.24s0,.06,0,.09.08.15,0,0a1.23,1.23,0,0,1,0,.43s0,.06,0,.09,0-.15,0,0a2.1,2.1,0,0,0-.06.24l-.06.19s.1-.19,0-.06a.43.43,0,0,1,0,.07.86.86,0,0,1-.1.16s-.06.08-.06.09.12-.14,0,0l-.26.26L117,115s.17-.12,0,0l-.17.11c-.07,0-.29.11-.34.18s.18-.07.09,0l-.1,0-.21.06c-.12,0-.24.06-.36.09s.15,0,0,0l-.21,0h-.37c-.15,0,.06,0,.07,0l-.1,0-.21,0-.17-.06c-.19-.06.12.07,0,0l-.33-.2.07.05-.08-.07a.8.8,0,0,1-.13-.13l-.06-.06c-.1-.11,0,0,0,0s-.09-.13-.11-.17,0-.11-.08-.16,0,.17,0,.07a.24.24,0,0,0,0-.08,2.6,2.6,0,0,0-.1-.4s0,.2,0,.11a.41.41,0,0,0,0-.11V114c0-.13,0-.26,0-.39s0,.1,0,.1a.36.36,0,0,0,0-.11c0-.06,0-.12,0-.18s.15-.32.13-.37-.09.18,0,.05l0-.07.09-.16c.07-.12.14-.24.22-.35l0-.06c.05-.08,0,.06,0,0s.11-.13.13-.15.29-.27.16-.19,0,.06-.09.07l.11-.07.15-.09.07,0c.08,0-.11,0,0,0a2.66,2.66,0,0,1,.38-.1c.69-.13.53-1.26-.17-1.23Z"/><path d="M16.14,131.48a2.1,2.1,0,0,0,1.13,2.89c1.55.84,3.28.47,4.95.29,4-.41,8-1,11.92-1.68a197.18,197.18,0,0,0,23.61-5.63,204.2,204.2,0,0,0,44.72-19.59q5.86-3.47,11.49-7.33,2.82-1.92,5.56-4c1.8-1.33,3.87-2.55,5.06-4.47a1,1,0,0,0-1.14-1.48,17,17,0,0,0-4.68,3c-1.54,1.15-3.09,2.27-4.67,3.37q-4.62,3.24-9.42,6.22a209.13,209.13,0,0,1-20,10.92,203.15,203.15,0,0,1-42.86,14.86c-4.15.93-8.34,1.75-12.54,2.43q-3.15.51-6.32.94c-.37.06-5.52.84-5.19-.07s-1.2-1.6-1.63-.69Z"/><path d="M17.46,132c3.63-4.81,7.06-9.88,11.3-14.2A44.38,44.38,0,0,1,35.65,112c2.33-1.57,5.44-3.1,7.06-5.47.44-.63-.41-1.42-1-1-1.36.84-2.51,2-3.81,2.91s-2.56,1.72-3.82,2.6a42.22,42.22,0,0,0-6.72,5.88A77.14,77.14,0,0,0,17,131.67c-.19.32.27.56.48.28Z"/><path d="M46.08,104.17a48,48,0,0,0,6.08-2.85c2-1,4.09-2,6.16-2.93Q64.77,95.47,71.4,93c1-.36.55-1.95-.44-1.58-4.4,1.64-8.76,3.42-13,5.41q-3.2,1.5-6.33,3.12a33.93,33.93,0,0,0-5.94,3.55c-.31.26,0,.81.4.68Z"/><path d="M75.44,91c2-.32,4-1,6-1.49s4.07-1,6.12-1.36a85.54,85.54,0,0,1,12.14-1.53,60.83,60.83,0,0,1,12,.49,61.64,61.64,0,0,1,11.78,3.2c1.06.38,1.8-1.34.77-1.82-7.49-3.5-16.4-4.17-24.54-3.66a88.63,88.63,0,0,0-12.57,1.76c-2,.42-4.08.91-6.09,1.45A36.66,36.66,0,0,0,75,90c-.62.29-.14,1.11.43,1Z"/><path d="M118.88,88.34a4.67,4.67,0,0,1,1.53,1.5,2.63,2.63,0,0,1,.3,1.9l.23-.39c-.36.42-.73.84-1.08,1.28s-1,1.06-.8,1.7l.08-.58c-.14.3-.2.63-.35.92a.44.44,0,0,0,.69.53c.21-.17.47-.26.69-.42l-.58.08c.71.13,1-.35,1.47-.84s.65-.79,1-1.19a1.62,1.62,0,0,0,.43-.75c0-.22.07-.44.09-.67a4.69,4.69,0,0,0-.13-1.18,3.74,3.74,0,0,0-3.23-3,.62.62,0,0,0-.31,1.15Z"/><path d="M87.27,82.83c-.55,3-1,6,.34,8.85A6.38,6.38,0,0,0,95.22,95,6.75,6.75,0,0,0,100,87.81a7.58,7.58,0,0,0-6.09-6.65,7,7,0,0,0-4.93.58c-1.63,1-2,3.22-2,5-.06,3.54,2,7.12,5.58,8a6.2,6.2,0,0,0,7.32-4.33,7.24,7.24,0,0,0-2.9-8.16c-2.5-1.83-6.65-2.56-9.26-.56-1.58,1.2-1.84,3-1.85,4.91a12.38,12.38,0,0,0,.71,4.6,6,6,0,0,0,7.94,3.7C98,93.53,99.53,90,99,86.37a8.5,8.5,0,0,0-2.08-4.57,5.7,5.7,0,0,0-5.32-1.63,7.54,7.54,0,0,0-6,7,7,7,0,0,0,6.11,7,6.49,6.49,0,0,0,6.92-6c.19-3.5-2.78-6.29-5.8-7.48a3.19,3.19,0,0,0-3,.2,6,6,0,0,0-1.68,2,12.11,12.11,0,0,0-1.69,4.45,5.43,5.43,0,0,0,1.24,4.56,4.74,4.74,0,0,0,4.32,1.33,6,6,0,0,0,3.73-2.37,6.41,6.41,0,0,0,1-4.9,9,9,0,0,0-2.34-4.54,1.39,1.39,0,1,0-2,2,7.1,7.1,0,0,1,1.46,3.26,4.43,4.43,0,0,1-.06,1.45,3.3,3.3,0,0,1-.19.6L93.5,89l-.15.24c.08-.11.07-.1,0,0a2.64,2.64,0,0,1-.93.75l-.26.13c.27-.12-.15,0-.18.06l-.27.08c-.07,0-.61.08-.29.07a4,4,0,0,1-.69,0c.29,0,0,0,0,0s-.27-.07-.39-.12c.33.14-.42-.32-.17-.11a2.57,2.57,0,0,1-.29-.28c-.06-.08-.07-.07,0,0l-.16-.24c0-.09-.1-.17-.14-.26.13.26,0-.17,0-.19a2.21,2.21,0,0,1-.08-.35c-.05-.26,0,.33,0-.13,0-.26,0-.51,0-.77,0-.49,0,.13,0-.16s.08-.37.13-.56a9.91,9.91,0,0,1,1.36-3,5.28,5.28,0,0,1,.36-.55c.07-.09.37-.26.16-.21.35-.09,1.07.39,1.44.6a6.13,6.13,0,0,1,2.28,2.18,3.15,3.15,0,0,1,.32,2.75c-.09.27.16-.29-.07.16-.06.12-.12.24-.19.36a2.59,2.59,0,0,1-.42.54,3.67,3.67,0,0,1-1.21.88c-.27.13.31-.1-.17.07l-.48.14a1.54,1.54,0,0,1-.57.08H92c-.45,0,.18.06-.25,0L91.47,91c-.07,0-.56-.2-.4-.13A4.08,4.08,0,0,1,89,88.79a3.63,3.63,0,0,1-.16-2.68,4.8,4.8,0,0,1,1.6-2.26A3.91,3.91,0,0,1,93.49,83a3.26,3.26,0,0,1,2.2,2.08c.88,1.89.85,4.6-.74,6.16a4.06,4.06,0,0,1-1.23.82,5.59,5.59,0,0,1-1.27.3,4.15,4.15,0,0,1-.79,0c.08,0,.17.05-.08,0l-.45-.12-.09,0-.41-.23a3.19,3.19,0,0,1-.57-.49,1.7,1.7,0,0,1-.35-.46,4.79,4.79,0,0,1-.37-.71c.07.18,0-.13-.06-.17s-.09-.26-.13-.39a8.24,8.24,0,0,1-.24-1,9.36,9.36,0,0,1-.15-1.47,14.1,14.1,0,0,1,0-1.95,1.89,1.89,0,0,1,1.65-1.84,5.94,5.94,0,0,1,3.07.13,6.11,6.11,0,0,1,2.64,1.55A4.64,4.64,0,0,1,97,86.37a2.59,2.59,0,0,1,.25.63c0,.1.06.19.08.29l.06.29h0a4.46,4.46,0,0,1-.53,2.68,3.23,3.23,0,0,1-.76,1,2.43,2.43,0,0,1-.4.33l-.25.15s-.49.23-.32.16c-2,.73-4.16-.6-5-2.57a7,7,0,0,1-.39-3.75,3.39,3.39,0,0,1,.41-1.41,2.05,2.05,0,0,1,1.29-.55A5.5,5.5,0,0,1,97,86a4.85,4.85,0,0,1-.74,5.92,4.41,4.41,0,0,1-5.49.28c-1.68-1.33-2-3.66-2-5.66a29.35,29.35,0,0,1,.14-3.51c.1-.92-1.44-1.13-1.61-.22Z"/><path d="M95.62,81.89a1.09,1.09,0,0,1,0-.18c0-.07,0-.06,0,0s0,0,0-.08a1.35,1.35,0,0,1,.11-.34l-.53.53a1.05,1.05,0,0,0,.71-.71c0-.15-.1.2,0,0l.06-.12L96,81l0-.07L96,81l.2-.22.11-.09c.15-.14-.06,0-.07,0s.23-.14.28-.17-.25.09-.09,0l.13,0,.31-.06-.28,0a1.15,1.15,0,0,1,.37,0l-.28,0a1.69,1.69,0,0,1,.44.12l-.25-.11a2.58,2.58,0,0,1,.32.18c.15.09-.23-.2,0,0l.12.12a1.31,1.31,0,0,1,.11.12l-.08-.11,0,.08a2,2,0,0,1,.17.32l-.1-.26a2.72,2.72,0,0,1,.13.49l0-.29a1.77,1.77,0,0,1,0,.46l0-.29a2.68,2.68,0,0,1-.07.27l.51-.66c-.68.39-1.37.78-2,1.18A1.12,1.12,0,1,0,97.09,84l1.11-.65.52-.32a1.8,1.8,0,0,0,.85-.76,2.79,2.79,0,0,0-.26-2.4,3.1,3.1,0,0,0-1.81-1.4,2.86,2.86,0,0,0-1.27,0,2.6,2.6,0,0,0-1.1.58,2.64,2.64,0,0,0-.68.88c-.25.54-.51,1.3,0,1.75l-.2-.34a1.92,1.92,0,0,0,.35.83.54.54,0,0,0,.6.25.53.53,0,0,0,.39-.51Z"/><path d="M91.05,82c.55-.11.87-.93,1-1.42a4,4,0,0,0,.07-.48.78.78,0,0,0,0-.14c-.12.36-.13.43,0,.21a.86.86,0,0,0,.09-.39,2.75,2.75,0,0,0-.14-.85,1.07,1.07,0,0,0-.73-.73,3,3,0,0,0-2,.28A3.15,3.15,0,0,0,88,79.8a2.89,2.89,0,0,0-.25,2.08,3,3,0,0,0,1,1.55,3.32,3.32,0,0,0,1.12.62,2.59,2.59,0,0,0,.62.1,1.17,1.17,0,0,0,1.15-.87l-.21.37a3.79,3.79,0,0,0,.25-.35.58.58,0,0,0-.2-.77c.15.12,0,0,0-.06l.21.36a1.14,1.14,0,0,0-.8-.87l-.29-.1.27.12-.41-.18.27.12a3.24,3.24,0,0,1-.36-.2c-.23-.15.18.16,0,0l-.14-.12L90,81.5c-.19-.21.12.2,0,0s-.14-.23-.2-.36l.12.28a1.69,1.69,0,0,1-.12-.44l0,.3a1.77,1.77,0,0,1,0-.46l0,.3a2.64,2.64,0,0,1,.07-.3c0-.12.12-.17,0,.07,0,0,0-.09.07-.14a.57.57,0,0,1,.08-.13s.13-.18,0,0,0,0,0,0a1.14,1.14,0,0,1,.11-.11.81.81,0,0,0,.1-.09c-.2.22-.15.11-.06,0l.27-.16c.18-.09-.26.09-.07,0l.15,0,.31-.07-.29,0a2,2,0,0,1,.42,0l-.91-.52c-.14-.31,0,0,0,.14a1.21,1.21,0,0,0,.34.64l-.25-.43s.08.27,0,.11,0,0,0,.08,0,.34,0,.38c0-.12,0-.15,0-.08s0,.06,0,.09a1.36,1.36,0,0,1,0,.17,1,1,0,0,0,0,.66.73.73,0,0,0,.88.5Z"/><path d="M98.3,80.6s0,0,0,0l.13.17a.05.05,0,0,1,0,0l.09.21a0,0,0,0,1,0,0l0,.24a2.51,2.51,0,0,0,0-.27l0,.24a0,0,0,0,1,0,0l0,.25v0l-1.14.65h0a1.14,1.14,0,0,0,.58,0,1,1,0,0,0,.48-.28l.07-.06-.22.17a.39.39,0,0,1,.14-.08l-.26.11a.17.17,0,0,1,.1,0l-.29,0s0,0,.06,0l-.29,0h0l-.27-.11h0l-.22-.17,0,0-.17-.22s0,0,0,0l-.11-.26s0,0,0,0l0-.3v0a1.09,1.09,0,0,0,.15.56l.18.23-.18-.22s0,0,0,0l-.11-.26a.07.07,0,0,1,0,0l0-.3a.08.08,0,0,1,0,.07l0-.29a.31.31,0,0,1,0,.08l.11-.27a.3.3,0,0,1,0,.08l.17-.23-.06.06.23-.18-.06,0,.27-.11h-.06l.3,0h-.06l.3,0h-.06l.27.11-.05,0,.24.18a.08.08,0,0,1,0,0l.17.23a1.88,1.88,0,0,0-.18-.24l-.23-.17h0l.23.18,0,0,.18.22a.1.1,0,0,1,0,0l-.17-.22-.11-.08c-.08-.06-.07-.07-.12-.09h0l.21.16,0,0,.16.2,0,0,.09.22a0,0,0,0,0,0,0l-.09-.21a.6.6,0,0,0-.22-.25.4.4,0,0,0-.2-.11.66.66,0,0,0-.34-.08.9.9,0,0,0-.28,0,1.18,1.18,0,0,0-.26.1,1,1,0,0,0-.28.21,1.22,1.22,0,0,0-.18.23,1.14,1.14,0,0,0-.16.57v.07a2,2,0,0,0,0,.34,1.2,1.2,0,0,0,.33.55,1.33,1.33,0,0,0,1.33.34,1.59,1.59,0,0,0,.33-.14,3,3,0,0,0,.28-.22,2.55,2.55,0,0,0,.21-.28,1.68,1.68,0,0,0,.15-.34s0,0,0-.07a2,2,0,0,0,0-.37,1.38,1.38,0,0,0-.17-.63s0,0,0,0l-.2-.25.33.79v0c0-.1,0-.21-.05-.31a0,0,0,0,0,0,0,1.22,1.22,0,0,0-.31-.54l-.13-.11a1.13,1.13,0,0,1-.13-.1h0l-.27-.11h0l-.32,0h0l-.15,0-.16,0-.07,0a2.22,2.22,0,0,0-.32.14l-.06,0a1.34,1.34,0,0,0-.34.29,1,1,0,0,0-.28.48.7.7,0,0,0,0,.43.73.73,0,0,0,.13.4.92.92,0,0,0,.39.39h0l-.46-.8h0a2.13,2.13,0,0,0,0,.25h0s0,.09,0,.13,0,.09.06.13h0l.07.09a.41.41,0,0,0,.16.16l.1.08a1,1,0,0,0,.27.11,1,1,0,0,0,.3,0l.23,0,.2-.08.17-.14a.54.54,0,0,0,.18-.27.43.43,0,0,0,.06-.22.41.41,0,0,0,0-.22.43.43,0,0,0-.06-.22.59.59,0,0,0-.18-.27Z"/><path d="M87.34,84.81s-.28-.21-.3-.19l.1.07-.24-.19-.1,0a3.38,3.38,0,0,0-.86-.35,5.16,5.16,0,0,0-.89-.12,4,4,0,0,0-1,0,4.72,4.72,0,0,0-.65.15,1.74,1.74,0,0,0-1,1.16,2.9,2.9,0,0,0-.2,1.27,3.41,3.41,0,0,0,1.49,2.65,3.13,3.13,0,0,0,2.79.28A2.81,2.81,0,0,0,88,88.36a1.22,1.22,0,0,0-1-1.85,1.89,1.89,0,0,0-1.2.63l.25-.2a2.13,2.13,0,0,1-.46.27l.3-.13a2.56,2.56,0,0,1-.6.17l.33,0a1.82,1.82,0,0,1-.57,0l.33,0a1.93,1.93,0,0,1-.47-.13l.3.13a1.87,1.87,0,0,1-.39-.22l.26.19a1.88,1.88,0,0,1-.35-.34l.19.25a2.22,2.22,0,0,1-.28-.5l.12.3a2.73,2.73,0,0,1-.15-.56l0,.32a1.82,1.82,0,0,1,0-.57l0,.32a2.52,2.52,0,0,1,.13-.47l-.13.29a3.07,3.07,0,0,1,.17-.31l-.72.56a6.41,6.41,0,0,1,1.17-.26l-.31,0a5.45,5.45,0,0,1,1,0l.46,0h.22c.17,0,.16,0,0,0s-.21,0-.13,0l.26.07a.85.85,0,0,0,1-.49.84.84,0,0,0-.35-1Z"/><path d="M89.38,81.92a1.2,1.2,0,0,0-.22-.4l-.08-.08s.15.2,0,0l-.06-.09v.89a1.06,1.06,0,0,0,0-1.06l-.06-.1c-.09-.19.06.16,0,.08a3.92,3.92,0,0,1-.13-.49L89,81a2.08,2.08,0,0,1,0-.61l0,.26a2.38,2.38,0,0,1,.16-.58l-.1.24a1.74,1.74,0,0,1,.14-.27.5.5,0,0,0,.08-.12s-.17.21-.09.12l.06-.07a1.14,1.14,0,0,1,.11-.11.12.12,0,0,0,0,0c.08-.07-.2.15-.11.1a2.61,2.61,0,0,1,.28-.17l-.24.11a1.85,1.85,0,0,1,.4-.12l-.27,0a2,2,0,0,1,.49,0l-.27,0a2.38,2.38,0,0,1,.52.15l-.25-.1a2.31,2.31,0,0,1,.48.28l-.22-.17a2.85,2.85,0,0,1,.43.42l-.17-.21a2.34,2.34,0,0,1,.26.43l-.11-.25a2.56,2.56,0,0,1,.15.56l0-.29c0,.06,0,.12,0,.17a1,1,0,1,0,2.09,0,2.75,2.75,0,0,0-.89-2.1,3.3,3.3,0,0,0-2.11-.93,2.61,2.61,0,0,0-2,.83,3,3,0,0,0-.79,2,3.18,3.18,0,0,0,.13,1.06,3.61,3.61,0,0,0,.24.57,1.72,1.72,0,0,0,.24.34c.21.21.13.11.23.17a1.05,1.05,0,0,0,.76.09l-.86-.23a1.62,1.62,0,0,0,.19.18l.23.18a1.16,1.16,0,0,0,.48.14.83.83,0,0,0,.79-1Z"/><path d="M88,91.2a1.34,1.34,0,0,0-1.14.29,2.85,2.85,0,0,0-.74.73,3.62,3.62,0,0,0-.54,1.63A3,3,0,0,0,87,96.76,3,3,0,0,0,90.68,96a3.45,3.45,0,0,0,.85-1.68,3,3,0,0,0,0-1.2,1.82,1.82,0,0,0-.74-1.19,2.34,2.34,0,0,0-2.65.36,2.22,2.22,0,0,0-.74,2.39,1.23,1.23,0,0,0,.5.64,1.08,1.08,0,0,0,.84.11,1.11,1.11,0,0,0,.76-1.33.3.3,0,0,1,0-.1l0,.29a1.45,1.45,0,0,1,0-.36l0,.29c0-.06,0-.11,0-.17s.07-.19,0,0,0,.07,0,0,.15-.23,0-.07,0,0,.06-.06a.23.23,0,0,0,.07-.07c.11-.1-.1.1-.11.09l.16-.1.09,0c-.25.15-.21.07-.11.05l.2-.05-.29,0a1.08,1.08,0,0,1,.31,0l-.29,0,.16,0c.22.05-.24-.12-.07,0l-.39-.39c0,.07.07.14.11.2-.16-.26-.08-.19,0-.09a.49.49,0,0,1,0,.11.52.52,0,0,0,0,.11c0,.18,0-.27,0-.14a1.92,1.92,0,0,1,0,.24.66.66,0,0,1,0,.14c0-.35,0-.24,0-.16l-.06.24s0,.07,0,.11.11-.23,0-.11-.07.15-.11.22l-.13.2c-.1.16.18-.22.06-.07l-.08.09-.16.16-.09.08c-.18.15.07-.06.08-.06l-.2.13s-.32.16-.11.07-.05,0-.1,0l-.24,0c.38-.08.12,0,0,0h-.11c-.18,0,.25.05.13,0l-.22,0c-.1,0-.18-.11.11,0l-.11-.06s-.27-.18-.09,0,0,0,0-.06a.86.86,0,0,1-.13-.14c-.08-.09.17.25.09.11a.86.86,0,0,1-.07-.1,1.62,1.62,0,0,0-.1-.18c0-.11.11.28.06.13l0-.1a3.25,3.25,0,0,1-.11-.42c0-.2,0,.32,0,0v-.4a.34.34,0,0,0,0-.1c0,.36,0,.19,0,.09s.1-.29.13-.44c-.06.28-.09.2,0,.1l.06-.1a2.12,2.12,0,0,1,.12-.2L88,93c.1-.16-.16.18,0,.06l.16-.16s0,0,.06,0l-.1.08.07,0a1.14,1.14,0,0,0,.49-.61.9.9,0,0,0-.08-.68A1,1,0,0,0,88,91.2Z"/><path d="M96.9,93.17a1.44,1.44,0,0,0-.36-.15l.45.34,0-.09a.92.92,0,0,0-.49-.42.94.94,0,0,0-.66,0,2.25,2.25,0,0,0-1.35,2.57,2.57,2.57,0,0,0,2.62,1.81,7.24,7.24,0,0,0,1.61-.2,1.21,1.21,0,0,0,.65-.32,1.89,1.89,0,0,0,.33-.5,7.66,7.66,0,0,0,.4-.93,6.44,6.44,0,0,0,.32-1.73,3.55,3.55,0,0,0,0-.73c0-.56-.09-1.16-.63-1.47A3,3,0,0,0,98.52,91a4,4,0,0,0-1,0,3.69,3.69,0,0,0-1.81.87,1.14,1.14,0,0,0-.33.8,1.2,1.2,0,0,0,.24.69,1.14,1.14,0,0,0,1.48.3,3.5,3.5,0,0,1,.63-.35l-.28.12a3.25,3.25,0,0,1,.74-.2l-.3,0a2.81,2.81,0,0,1,.71,0l-.3,0a3,3,0,0,1,.59.14l-.8-.8c0,.1,0,.2,0,.3l0-.3a5.39,5.39,0,0,1,0,1.39l0-.3A5.23,5.23,0,0,1,97.73,95l.12-.27a5.68,5.68,0,0,1-.28.55l.67-.52c-.28.07-.57.13-.86.18l.29,0a4,4,0,0,1-.92,0l.3,0a2.64,2.64,0,0,1-.55-.15l.26.11a2.5,2.5,0,0,1-.35-.21l.22.17-.17-.17.18.22a1.48,1.48,0,0,1-.13-.21l.11.26a1.67,1.67,0,0,1-.08-.32l0,.29a2.67,2.67,0,0,1,0-.4l0,.29a1.53,1.53,0,0,1,.07-.29c0-.14-.15.28,0,.1l.06-.11c0-.06-.21.23-.07.1s.12,0-.09.06a1,1,0,0,0,.58-.78l-.72.55c.17,0-.17,0,0,0a.73.73,0,0,0,.85-.42.74.74,0,0,0-.3-.9Z"/><path d="M97,92.74v.06l0-.17a.34.34,0,0,1,0,.1l.17-.3a.84.84,0,0,0-.19.22,1.24,1.24,0,0,0-.11.43l0-.21a4.12,4.12,0,0,1-.27,1l.1-.22a3,3,0,0,1-.25.37l.16-.2,0,.05.72-.3a1.06,1.06,0,0,0-.55.15,1.09,1.09,0,0,0-.38.39.86.86,0,0,0-.1.16,1,1,0,0,0,.27,1.35,1,1,0,0,0,.63.23,1.06,1.06,0,0,0,.74-.31,5.39,5.39,0,0,0,1-1.51l0-.26,0-.27A.91.91,0,0,0,98.6,93a1,1,0,0,0-1.11-.08,2.89,2.89,0,0,0-.65.61l-.42.54,1.65,1.27.09-.17a1.13,1.13,0,0,0,.16-.54,1.56,1.56,0,0,0-.15-.55l.1.79a7.11,7.11,0,0,0,.2-1.12,2.29,2.29,0,0,0,0-.64c0-.07,0-.15,0-.23a.86.86,0,0,0-.45-.57l.24.24a1,1,0,0,0-.07-.15.61.61,0,0,0-.7-.29,1,1,0,0,0-.28.16.72.72,0,0,0-.18.45Z"/><path d="M99.19,87.12s0-.06,0-.09l-.56.42h.1A1,1,0,0,0,99.6,87a1.64,1.64,0,0,1,.14-.22l-.15.2a1.48,1.48,0,0,1,.25-.25l-.2.16a1.61,1.61,0,0,1,.28-.17l-.25.11a1.21,1.21,0,0,1,.31-.09l-.28,0a1,1,0,0,1,.25,0l-.28,0a1.28,1.28,0,0,1,.28.07L99.2,86l.59,2,.5-1.25a4,4,0,0,1-.64.36l.26-.12a3.37,3.37,0,0,1-.93.25l.3,0a3,3,0,0,1-.6,0,1.13,1.13,0,0,0,0,2.25,4.62,4.62,0,0,0,2.72-.83,1.16,1.16,0,0,0,.46-.52,1.11,1.11,0,0,0,0-.72l-.43-1.36c-.06-.22-.12-.45-.2-.66a1.17,1.17,0,0,0-.82-.78,1.84,1.84,0,0,0-.47-.06,2.07,2.07,0,0,0-1.25.38,2.79,2.79,0,0,0-.48.43,2.92,2.92,0,0,0-.46.78l0,.26a.71.71,0,0,0,.08.38.9.9,0,0,0,.41.47l.1.05L98.09,87a.29.29,0,0,0,0,.09.56.56,0,0,0,.54.41.57.57,0,0,0,.54-.41Z"/><path d="M91.55,94.4A20.12,20.12,0,0,0,93,99.71a30.12,30.12,0,0,0,2.48,5,1.37,1.37,0,0,0,2.37-1.39,38.64,38.64,0,0,1-2.43-4.53c-.7-1.52-1.19-3.12-1.82-4.65a1,1,0,0,0-1.12-.73,1,1,0,0,0-.88,1Z"/><path d="M90,105.15a11.48,11.48,0,0,0,7.81,2.39c2.63-.17,5.77-1.18,7.44-3.36.5-.66-.46-1.51-1.1-1.11a17.51,17.51,0,0,1-3,1.77,11.59,11.59,0,0,1-3.47.79,10.71,10.71,0,0,1-6.69-1.8c-.78-.52-1.77.73-1,1.32Z"/><path d="M113.86,98.4c-.54-.54-1.37-.39-2.1-.39-1.07,0-2.14,0-3.21.08a38.88,38.88,0,0,0-6.16,1,43.8,43.8,0,0,0-11.85,4.53.91.91,0,0,0,.91,1.57,50.6,50.6,0,0,1,11.35-4.6,59.48,59.48,0,0,1,5.92-1.15c1-.16,2-.28,3-.37.73-.06,1.56.08,2.1-.46a.11.11,0,0,0,0-.17Z"/><path d="M89.7,104.86a6.39,6.39,0,0,0,.19,1c.1.3.2.61.33.91a19.89,19.89,0,0,0,.85,1.81c.29.56.6,1.1.94,1.63.16.26.33.51.5.76s.46.78.84,1a.92.92,0,0,0,1.32-1,2.28,2.28,0,0,0-.53-.88c-.17-.25-.35-.5-.51-.75-.35-.53-.67-1.07-1-1.62s-.55-1.08-.81-1.64c-.12-.27-.26-.54-.38-.82s-.3-.55-.46-.84a.7.7,0,0,0-.89-.29.73.73,0,0,0-.42.85Z"/><path d="M77.77,94.25l4.67-1.11c.76-.18,1.53-.36,2.28-.56l1.14-.3A3.49,3.49,0,0,0,87,91.9a.43.43,0,0,0-.22-.8,3.76,3.76,0,0,0-1.18.24l-1,.28c-.78.21-1.56.45-2.35.68l-4.6,1.35a.31.31,0,0,0,.17.6Z"/><path d="M99.68,91c1.4.36,3.06.05,4.51.09s3.06.16,4.58.35a41.14,41.14,0,0,1,4.69.85c1.53.36,3.05,1,4.59,1.28a.57.57,0,0,0,.43-1A16.81,16.81,0,0,0,113.8,91a43.84,43.84,0,0,0-4.69-.83,38.66,38.66,0,0,0-4.92-.29c-1.46,0-3.24-.14-4.59.47a.33.33,0,0,0,.08.59Z"/><path d="M71.59,96.57A116.72,116.72,0,0,0,59,100.29c-2,.7-4,1.5-6,2.32-.87.36-1.73.73-2.59,1.11a9.27,9.27,0,0,0-2.8,1.52c-.22.21-.07.68.26.64a8.12,8.12,0,0,0,2.51-.9c1-.46,2-.9,3.05-1.34,2-.85,4-1.63,6.06-2.42,4-1.57,8.1-2.81,12.22-4.09a.29.29,0,0,0-.15-.56Z"/><path d="M21.05,132.17A94.61,94.61,0,0,1,32,120.88,78.21,78.21,0,0,1,38.09,116c1.08-.79,2.19-1.55,3.32-2.28s2.11-1.12,2.75-2.2a.45.45,0,0,0-.39-.68c-1.31.06-2.26.88-3.33,1.59s-2.11,1.45-3.14,2.22a80.31,80.31,0,0,0-6.24,5.11A68.15,68.15,0,0,0,20.7,131.9c-.14.21.19.48.35.27Z"/><path d="M12.31,139.48c2.51-.77,5.35-2.26,7.91-.78,2.93,1.69,1,4.86.45,7.33-.46,2.22-.75,5.27.63,7.24a4.88,4.88,0,0,0,5,1.65,10.76,10.76,0,0,0,5.38-3.22,20.1,20.1,0,0,1,2.42-2.11,6.2,6.2,0,0,1,1.49-.77c.75-.23.91-.12,1.06.67.49,2.48-.77,5,0,7.47a4.32,4.32,0,0,0,4.22,3.4c2.54-.1,4.1-2.47,6.43-3.1a5.44,5.44,0,0,1,3.47.25c1.11.47,1.8,1.43,2.95,1.77a.7.7,0,0,0,.86-.66c.05-2.11-2.71-3.33-4.49-3.66a7.91,7.91,0,0,0-6,1.39c-.93.62-2,1.64-3.21,1.73s-1.87-1-2.1-2c-.58-2.57.83-5.18,0-7.74s-3.42-2.06-5.3-1c-2.06,1.2-3.43,3.25-5.42,4.52-1.62,1-4.55,1.71-5.24-.7-.91-3.14.75-6,1.09-9a5.05,5.05,0,0,0-3.72-5.49c-2.8-.92-5.9.27-8.28,1.77a.58.58,0,0,0,.45,1.06Z"/><path d="M23.06,159.32a6.56,6.56,0,0,0,5.48.15,6.3,6.3,0,0,0,1.21-.69,7.58,7.58,0,0,1,1.2-.91c1.26-.55,1.13,1.45,1.22,2.16.41,3.19,4.44,5.24,7.08,3.21.17-.13.08-.48-.16-.39a4.93,4.93,0,0,1-4.47-.67,3.81,3.81,0,0,1-1.42-1.91,21.87,21.87,0,0,0-.45-2.28,1.49,1.49,0,0,0-1.29-1.05c-.83-.05-1.41.6-2,1.08a6,6,0,0,1-6.12.83c-.32-.13-.6.32-.28.47Z"/><path d="M11.53,146.24a3.12,3.12,0,0,1,2.64-1.58l-.48-.48c.09,1.62.36,3.54,1.62,4.71a2.76,2.76,0,0,0,3.81.18.26.26,0,0,0-.32-.41c-.92.56-2.25,0-2.92-.77-.93-1-1-2.55-1.24-3.84a.49.49,0,0,0-.47-.35,3.55,3.55,0,0,0-3,2.38.21.21,0,0,0,.38.16Z"/><path d="M29.15,138.36a1.86,1.86,0,0,0-.78,0,2,2,0,0,0-.41.08,1.36,1.36,0,0,0-.37.21,2.4,2.4,0,0,0-.37.22,2.43,2.43,0,0,0-.3.34,3.13,3.13,0,0,0-.44.8,2.24,2.24,0,0,0,.18,1.84A2.75,2.75,0,0,0,28,143a2.94,2.94,0,0,0,1.71.11,2.14,2.14,0,0,0,.77-.34,1.37,1.37,0,0,0,.24-.18s.1,0,0,0,0,0,0,0a1.81,1.81,0,0,0,.41-.32,2.55,2.55,0,1,0-3.67-3.52.68.68,0,0,0,0,.93.66.66,0,0,0,.94,0l.11-.1s.15-.11,0,0l.25-.15.13-.07c-.16.08,0,0,0,0a1,1,0,0,1,.33-.09c-.15,0,0,0,0,0h.25s.2,0,0,0a1,1,0,0,1,.29.07l.14,0c-.17-.05,0,0,.06,0a.57.57,0,0,1,.13.08s.14.12,0,0a1.39,1.39,0,0,1,.21.21s-.07-.12,0,0l.08.13.06.13c-.08-.16,0,0,0,.07a.57.57,0,0,1,0,.14s0,.19,0,0a2.71,2.71,0,0,1,0,.29.76.76,0,0,1,0,.15c0,.16,0-.14,0,0s0,.19-.08.28-.07.18,0,0a.91.91,0,0,1-.07.14,1.58,1.58,0,0,1-.15.24c.09-.13,0,0,0,0l-.1.1s-.15.11,0,0l-.17.1-.18.15s-.11.09,0,0a1.14,1.14,0,0,1-.23.15s-.17.07,0,0l-.12.05-.32.07c.17,0,0,0,0,0h-.37c-.15,0,.14,0,0,0l-.13,0-.32-.1c-.14,0,.11.06,0,0l-.13-.06a1.5,1.5,0,0,1-.23-.15c-.12-.08.08.09,0,0l-.07-.06-.1-.09-.06-.07h0a2.54,2.54,0,0,1-.16-.28s-.06-.16,0,0l-.06-.19,0-.15c0,.13,0-.07,0-.1s0-.2,0-.3,0,.1,0-.06l.05-.2a.88.88,0,0,1,.1-.26,1.92,1.92,0,0,1,.18-.31,1.62,1.62,0,0,0,.17-.35l-.08.15a1.88,1.88,0,0,1,.25-.24.67.67,0,0,0,.16-.12,1.42,1.42,0,0,0,.12-.13,1.58,1.58,0,0,1,.7-.21c.1,0,.14-.16,0-.18Z"/><path d="M16.66,133.72a1.37,1.37,0,0,0,0,.19l.15-.36a1,1,0,0,0-.28.67l.2-.47-.15.12a.93.93,0,0,0-.23.9,5.81,5.81,0,0,0,1.19,2.52,5.63,5.63,0,0,0,.84.85,7.24,7.24,0,0,0,.66.47,1.68,1.68,0,0,0,.95.31,1,1,0,0,0,.82-.47.94.94,0,0,0,0-1,2.14,2.14,0,0,0-.76-.61,5,5,0,0,1-.49-.31c-.1-.07.19.15,0,0l-.1-.08-.23-.21c-.14-.14-.26-.32-.41-.46,0,0,.11.16,0,0l-.09-.12-.17-.26c-.1-.17-.19-.35-.28-.52s.06.14,0,0a.78.78,0,0,0-.05-.14c0-.1-.07-.2-.1-.3l-.06-.26a1.07,1.07,0,0,0-.78-.73l.46.46a.88.88,0,0,0-.31-.49l.13.23c0-.06,0-.12,0-.18a.46.46,0,0,0-.52-.34.47.47,0,0,0-.41.46Z"/><path d="M77.54,146.15a.92.92,0,0,0-.43-.77.81.81,0,0,0-.33-.14c-.13,0,.06,0,0,0a.62.62,0,0,0-.42-.11A1.45,1.45,0,0,0,75,146.2c-.18.83.55,1.46,1.23,1.77a3.41,3.41,0,0,0,2.2.26,3.07,3.07,0,0,0,1.71-1,2.89,2.89,0,0,0,.61-1.9,3.39,3.39,0,0,0-.57-1.8,2.62,2.62,0,0,0-1.89-1.1,2.85,2.85,0,0,0-2.24,1,2.63,2.63,0,0,0-.67,2.46.8.8,0,0,0,1,.56.82.82,0,0,0,.56-1,.67.67,0,0,0,0-.19s0,.18,0,.1,0-.07,0-.1,0-.11,0-.16,0,0,0,.07,0-.07,0-.09a1.05,1.05,0,0,1,0-.19.14.14,0,0,0,0-.06c0-.1-.08.14,0,.06s.12-.21.18-.31,0,0,0,0,.06-.08.06-.07l.12-.13a.69.69,0,0,1,.13-.11c.08-.08,0,0-.05,0l.08-.06a3.3,3.3,0,0,1,.32-.18l-.07,0s.07,0,.09,0l.18,0,.1,0c.09,0,0,0-.07,0s.13,0,.17,0h.17s.08,0,.09,0-.16,0-.06,0l.19,0,.06,0c.1,0-.13-.08,0,0l.28.16,0,0,.06,0a1.14,1.14,0,0,1,.11.11l.11.11c.06.07,0,0,0,0s0,.06,0,.07a2.69,2.69,0,0,1,.16.29l0,.06,0,0a.56.56,0,0,1,.06.17.84.84,0,0,1,0,.17s0,0,0,.06,0-.13,0,0,0,.22,0,.33a1.09,1.09,0,0,1,0,.18c0,.12,0-.15,0,0a3,3,0,0,1-.09.32.69.69,0,0,0,0,.08s.08-.15,0,0l-.07.14-.09.13,0,.08s.1-.12,0,0a.86.86,0,0,1-.13.14s-.15.15-.08.07l-.08.06-.17.1s-.07,0-.08,0h0l-.16,0-.16,0-.1,0c-.11,0,0,0,.05,0s-.31,0-.36,0l-.37,0h0l-.16,0-.36-.11,0,0-.09,0-.15-.08-.14-.09s-.08,0-.08-.06l0,0a.77.77,0,0,0-.16-.15c-.06,0,0,.06.05.07s-.06-.12,0,0,0,.05,0,0,0,.22,0,.1-.06.21,0,.06-.1.19,0,.05-.12.11,0,0,.14-.12,0,0l0,0,.12-.1c.12-.11-.11.06,0,0l.1-.07c.08-.05-.06,0-.07,0a.74.74,0,0,0,.34-.23c.12-.16,0,0,0,0s0,0-.13.05-.2.07-.13.06h.06c.1,0,0,0,0,0s.14.09,0,0c.09.07,0-.05,0,0l0,0s.06.12,0,0a.45.45,0,0,0,.47.31.43.43,0,0,0,.37-.43Z"/><path d="M136.43,146.12c-3.43.09-5.6,3.1-6.76,6-.8,2-1.37,4.06-2.67,5.78a12.24,12.24,0,0,1-4.11,3.34c-3.3,1.74-6.88,2.26-10.49,3a13.25,13.25,0,0,0-5.11,1.94c-1.61,1.13-2.6,2.82-3.9,4.26a13.87,13.87,0,0,1-11.65,4.25c-.28,0-.33.43-.06.49a12.4,12.4,0,0,0,9.7-1.3,15.11,15.11,0,0,0,4-3.77,10.14,10.14,0,0,1,4.86-3.86c3.49-1.16,7.24-1.21,10.73-2.47a14.7,14.7,0,0,0,7.83-5.92c2.1-3.51,2.39-10.81,7.59-11.19.33,0,.33-.53,0-.52Z"/><path d="M61.54,187.5c3.8-.77,8,.28,11.71,1.07s7.3,1.58,10.91.73A11.64,11.64,0,0,0,89,186.76c1.61-1.36,3-3.07,4.75-4.19,4-2.45,9-.69,13.36-1.1a16.91,16.91,0,0,0,6.62-2.14,15.31,15.31,0,0,0,5.58-4.66.4.4,0,0,0-.45-.57c-2.06.69-3.74,2.07-5.61,3.16a15.08,15.08,0,0,1-6.35,2.21c-4.29.35-8.76-1-12.87.71-3.74,1.59-5.7,5.67-9.59,7-3.58,1.2-7.48.28-11.06-.42a41.41,41.41,0,0,0-6.36-.88A12.64,12.64,0,0,0,61.33,187c-.3.12-.08.55.21.5Z"/><path d="M144.44,158.91a17.23,17.23,0,0,0,1.9.2.7.7,0,0,0,.69-.69,21.72,21.72,0,0,1,.93-5.84c.74-2,2.08-3,3.82-4.05a6.4,6.4,0,0,0,3.14-3.93c.5-2,.31-4,1.05-6,1.49-4,4.87-6.91,7.12-10.44a16.24,16.24,0,0,0,2.4-5.67c.26-1.42.64-4.11-1.1-4.72a.41.41,0,0,0-.42.11,3.12,3.12,0,0,0-.38,2.31,8.91,8.91,0,0,1-.39,2.95,18.52,18.52,0,0,1-3.13,5.73c-2.43,3.23-5.4,6.29-6.39,10.34-.46,1.88-.1,4.07-1,5.84s-3,2.34-4.36,3.6c-2.61,2.44-2.86,6.43-2.71,9.78l.51-.67a16.93,16.93,0,0,0-1.72.5c-.29.1-.37.61,0,.66Z"/><path d="M165.17,118.43a2.45,2.45,0,0,0,.67-1.34,4.07,4.07,0,0,0-.08-1.59l-1.58.44a.94.94,0,0,1,0,.73.9.9,0,0,1-.16.33c-.08.12,0,0-.09.1s-.2.16-.1.1l1.23.5a20.31,20.31,0,0,1-.37-3.11c0-.53,0-1,0-1.58a3.17,3.17,0,0,0,0-.87,1.93,1.93,0,0,0-.38-.74.45.45,0,0,0-.69-.09,1.76,1.76,0,0,0-.55.72,3.17,3.17,0,0,0-.11,1c0,.55,0,1.1,0,1.65a20.6,20.6,0,0,0,.46,3.49.85.85,0,0,0,1.24.5,2.74,2.74,0,0,0,1-3.15.82.82,0,1,0-1.58.44,2.47,2.47,0,0,1,.08.94c0,.16,0,.35,0,.53a5.41,5.41,0,0,0-.12.58c0,.59.69.76,1.07.44Z"/><path d="M161.91,148.22c-4.72-1.16-6.59,5.22-7.66,8.45-1.5,4.56-4.93,7.69-9.12,9.85-2.14,1.1-4.52,1.64-6.64,2.76a9.35,9.35,0,0,0-3.85,4.05c-.93,1.8-1.51,3.76-2.51,5.53a7.66,7.66,0,0,1-5.13,3.78c-4.13,1-10,.87-11.21,6.06-.11.49.63.87.86.36,1.81-3.92,7.47-3.78,11-4.8a9.33,9.33,0,0,0,4.84-3.06,20.86,20.86,0,0,0,2.54-4.92,11.88,11.88,0,0,1,3-4.76c1.82-1.48,4.27-1.84,6.4-2.68a20.51,20.51,0,0,0,9.52-7.15c2.87-4.14,2.36-10.88,7.93-12.58a.47.47,0,0,0,0-.89Z"/><path d="M64.44,194.8a12.62,12.62,0,0,0,6.73,8.31,10.49,10.49,0,0,0,10.18-.88,9.69,9.69,0,0,0,3.41-4.09c.81-1.85,1.41-4.06,3.84-4.09,2,0,3.88.92,5.89,1a8.12,8.12,0,0,0,5.13-2.07,28.3,28.3,0,0,1,6.52-4.13,25,25,0,0,1,3.78-1.17,19.72,19.72,0,0,0,3.53-.83c.38-.16.23-.7-.1-.81-1.79-.57-4.14.09-5.87.63a22.74,22.74,0,0,0-5.48,2.54c-1.7,1.09-3.14,2.61-4.92,3.58s-3.81.56-5.82.1a7.09,7.09,0,0,0-4.83.11c-1.56.78-2.22,2.38-2.84,3.91a8.94,8.94,0,0,1-8.69,5.74c-4.57-.15-8.56-3.72-10-8a.26.26,0,0,0-.5.14Z"/><path d="M76,212.16c3,1.52,7.28,1.08,10.48.46a26.71,26.71,0,0,0,10.29-4.37,29,29,0,0,0,4.22-3.68,15.42,15.42,0,0,1,4.4-3.73c2.12-1,4.57-.43,6.82-.6a21.56,21.56,0,0,0,5.87-1.33,36.24,36.24,0,0,0,6-3c1-.59,1.93-1.22,2.88-1.86a15,15,0,0,0,2.66-2.37.41.41,0,0,0-.5-.65,15.32,15.32,0,0,0-2.65,1.34c-.83.57-1.66,1.12-2.5,1.65a38.82,38.82,0,0,1-5.23,2.83,21,21,0,0,1-6.16,1.7c-2,.21-4.12-.14-6.15.24-3.56.67-5.63,3.83-8.11,6.14a25.84,25.84,0,0,1-9.82,5.68,27.54,27.54,0,0,1-6.1,1.18c-2.12.18-4.27-.13-6.37.06-.15,0-.24.23-.08.31Z"/><path d="M40,140.8c2.52.32,5.28-.4,7.76-.86q4-.74,8-1.71c5.26-1.28,10.51-2.7,15.62-4.49a154.14,154.14,0,0,0,28.83-13.63q3.84-2.33,7.55-4.87c1.3-.89,2.57-1.81,3.83-2.74a14.57,14.57,0,0,0,3.24-2.81.79.79,0,0,0-.88-1.14,14.12,14.12,0,0,0-3,1.94c-1.15.84-2.31,1.66-3.48,2.48-2.17,1.52-4.37,3-6.61,4.38a158.18,158.18,0,0,1-13.82,7.72A160.77,160.77,0,0,1,57,136.55q-4.35,1.14-8.76,2c-2.73.57-5.79.77-8.36,1.89-.17.08,0,.29.09.31Z"/><path d="M108.7,127.9a2.93,2.93,0,0,0,2.87.87,16,16,0,0,0,3.75-1.15c1.23-.46,2.72-.94,4-.33a2.69,2.69,0,0,1,1.55,2.72c0,.25.31.28.43.12a2.18,2.18,0,0,0-.48-2.84,4,4,0,0,0-3.4-1.13,19.76,19.76,0,0,0-4.22,1.35A7.5,7.5,0,0,1,111,128a11.68,11.68,0,0,1-2.11-.31c-.12,0-.27.12-.18.25Z"/><path d="M120.5,102.38a22.11,22.11,0,0,1,5.14-2.23,9.41,9.41,0,0,1,5.71.54c2.52.92,6,2.23,8.2,0a.38.38,0,0,0-.46-.6c-3.19,1.9-6.43-.13-9.67-.68-3.4-.58-6.25,1.09-9,2.87-.08.06,0,.19.08.14Z"/><path d="M128.87,165.2c2-.51,2.71-2.76,2.94-4.57a9.73,9.73,0,0,1,.68-3c.36-.77,1-1.86,1.94-2a.18.18,0,0,0,0-.36,2.6,2.6,0,0,0-2.4,1,6.87,6.87,0,0,0-1.06,2.91c-.15,1-.21,2.06-.44,3.08a2.83,2.83,0,0,1-1.78,2.41.22.22,0,0,0,.12.42Z"/></g></g></svg>