<svg xmlns="http://www.w3.org/2000/svg" viewBox="0 0 83.86 141.34"><defs><style>path{fill:#007fff}.cls-1{fill:#fff;stroke:#007fff;stroke-miterlimit:10;stroke-width:3px;}</style></defs><g id="Camada_2" data-name="Camada 2"><g id="Camada_4" data-name="Camada 4"><path class="cls-1" d="M71.78,131.4s2.56-60.48-2.26-74.51c0,0,15.63-10.08,12.41-25.56,0,0-10-11.94-9.6-18.21,0,0-5.2-15.31-17.91-10.79s-7.71,2.52-7.71,2.52S37.45-1.3,30.08,8.28c0,0-7.68,2.55-22.53-.44,0,0,3,16.07-5.41,27,0,0-5.38,12.87,15.1,12.42,0,0,.89,18.81,27.68,22.18,0,0,11.72,5.78,5.76,18.08,0,0-16-2.56-16-13.13,0,0-8,11.09,0,21.76,0,0-18.54-10-12.76-27.69,0,0-22,10.53-6.12,44.94,0,0-.11,4.59,20.39,12s16.9,12.9,16.9,12.9Z"/><path d="M17.93,49.4c1-2.07,1.1-4.6,1.53-6.84a38,38,0,0,1,1.91-6.84A26.71,26.71,0,0,1,30,24.81a81.35,81.35,0,0,1,11.89-7.7,27,27,0,0,1,14.35-3.68A37.53,37.53,0,0,1,64.93,15c1.34.4,2.67.84,4,1.31a3.49,3.49,0,0,1,2.4,1.92c.25.63,1.16,1.09,1.7.44,3.61-4.37-8.47-6.66-10.74-7.13a28.85,28.85,0,0,0-16.85,1.18,69.27,69.27,0,0,0-13.85,8.13c-4.14,3-8.1,6.43-10.56,11a31.1,31.1,0,0,0-3,8.52c-.58,2.75-1.45,6.14-.82,8.93a.41.41,0,0,0,.74.1Z"/><path d="M63.12,3.52a6.21,6.21,0,0,0-3.6-1.78,16.16,16.16,0,0,0-4.39-.34,15.11,15.11,0,0,0-7.47,2.16,7.19,7.19,0,0,0-3.51,5.65c-.07,2,1,4.81,3.14,5.29a1.16,1.16,0,0,0,1.38-1.58c-.21-.49-.68-.64-1.07-1a3.16,3.16,0,0,1-1-2,4.76,4.76,0,0,1,2.47-4.55,13.92,13.92,0,0,1,6.7-1.93,21.42,21.42,0,0,1,3.67.13A12.93,12.93,0,0,0,63,3.87c.17,0,.18-.24.09-.35Z"/><path d="M34.25,4.83a6.09,6.09,0,0,0-1,.08,4,4,0,0,0-1,.44,6.62,6.62,0,0,0-1.52,1.42,7.6,7.6,0,0,0-1.59,4,6.74,6.74,0,0,0,4.42,6.75,7.15,7.15,0,0,0,4.74.25c1.53-.48.87-2.9-.67-2.41a4.93,4.93,0,0,1-6-2.89A4.68,4.68,0,0,1,32,8.81a5.57,5.57,0,0,1,1.13-1.55c.24-.24.51-.44.76-.66a5.57,5.57,0,0,1,.81-.73c.62-.32.16-1.13-.44-1Z"/><path d="M19.13,33.24a6.71,6.71,0,0,1-7-.71C10,30.86,8.94,28.07,8.57,25.45c-.16-1.15-.29-2.65.72-3.47a11.1,11.1,0,0,1,3.58-1.54c2.28-.74,5.2-1.44,7.31.11,2.3,1.69,2.31,5.1,2.33,7.67a1.13,1.13,0,0,0,2.26,0c0-3.06-.24-6.62-2.59-8.89-2.55-2.45-6.28-2.13-9.4-1.15a15.65,15.65,0,0,0-4.57,2,4.75,4.75,0,0,0-1.79,4.33c.19,3.28,1.45,6.87,4,9.07s6.73,3,9.25.35a.43.43,0,0,0-.52-.67Z"/><path d="M29.36,10.15c-1.18-1-3-.81-4.37-.36a8,8,0,0,0-3.71,2.56,8.3,8.3,0,0,0-1.77,4.55,9,9,0,0,0,.17,2.43,7.3,7.3,0,0,0,.33,1.1,2.43,2.43,0,0,0,1,1.25.94.94,0,0,0,1.41-.81,3.21,3.21,0,0,0-.22-1.18,7,7,0,0,1-.26-.81,6.55,6.55,0,0,1-.18-1.82A5.91,5.91,0,0,1,23,13.66a6.46,6.46,0,0,1,2.7-2c1.13-.45,2.38-.48,3.51-.88a.4.4,0,0,0,.18-.66Z"/><path d="M7.58,29.06a8.85,8.85,0,0,0-2.53,2.11,10.31,10.31,0,0,0-1,1.43c-.06.11-.12.22-.17.33a1.33,1.33,0,0,0-.15.45c0,.4,0-.14,0,.09a1.47,1.47,0,0,0,0,1.23l-.09-.36,0,.36a.61.61,0,0,0,.44.58A.63.63,0,0,0,4.77,35L5,34.7,4.57,35c.42-.09.61-.44.85-.76.07-.1,0,0,0,0,0-.09.18-.2.23-.29s.12-.22.19-.32.24-.42.37-.62.15-.2.22-.31.15-.2.06-.07-.05.06,0-.06l.13-.17c-.05.06-.1.13,0,0l.12-.14L7,32a6.14,6.14,0,0,1,.51-.51L8.05,31l.25-.21.15-.12.05,0a.91.91,0,1,0-.92-1.58Z"/><path d="M8.12,30.27H7.74a1.9,1.9,0,0,0-.53-.06,4.86,4.86,0,0,0-.91.38,6.38,6.38,0,0,0-1.71,1.25,10.92,10.92,0,0,0-2.28,3.59,10.19,10.19,0,0,0-.69,4.09c0,1.29.26,3.59,1.65,4.12A1,1,0,0,0,4.45,43c.22-.6-.17-1.37-.33-2a7,7,0,0,1-.23-1.64A9.07,9.07,0,0,1,4.46,36a8.71,8.71,0,0,1,1.69-2.84q.57-.65,1.2-1.23A3.56,3.56,0,0,0,8,31.3l.08-.18c0-.23,0-.26,0-.09l.23-.3c.15-.21-.06-.44-.26-.46Z"/><path d="M9.93,18.57a4.19,4.19,0,0,0,0-1.62,5.17,5.17,0,0,1,0-.79A5.25,5.25,0,0,1,10,15.3c0,.17,0-.2,0-.19s.05-.24.08-.36l.12-.41s.13-.36.09-.25a4.48,4.48,0,0,1,.34-.65A3.62,3.62,0,0,1,10.9,13c.11-.16,0,0,.12-.15a7.4,7.4,0,0,1,.56-.56,3.78,3.78,0,0,1,.49-.35,3.89,3.89,0,0,1,1.25-.57,4.41,4.41,0,0,1,1.34-.25c.76,0,1.63.13,2.05-.69l-.43.33.4-.11a.47.47,0,0,0,.21-.78,2,2,0,0,0-.29-.29l.2.5c-.21-1.82-2.87-1.39-4.11-1a6.88,6.88,0,0,0-3.32,2.2,7.23,7.23,0,0,0-1.59,3.87,6.58,6.58,0,0,0,.15,2,2.46,2.46,0,0,0,1.12,1.77.61.61,0,0,0,.88-.36Z"/><path d="M20.65,9.73A4.86,4.86,0,0,0,18,8.88a18.09,18.09,0,0,0-2.85,0,28.25,28.25,0,0,0-5.91,1l1.49,1.13c0-.1.19-.29.38-.39l.3-.11a2.34,2.34,0,0,0,.9-.26,1,1,0,0,0,.19-1.52c-.66-.83-2-.59-2.77,0a3.07,3.07,0,0,0-1.35,2.32,1.18,1.18,0,0,0,1.49,1.13A30,30,0,0,1,15.24,11c.92-.11,1.84-.16,2.75-.23a6.18,6.18,0,0,0,2.6-.58.3.3,0,0,0,.06-.47Z"/><path d="M38.25,16.74h.22l-.19-.05a.77.77,0,0,0,.69.07,4.37,4.37,0,0,0,.52-.12l1-.26a5.93,5.93,0,0,0,1-.3,4.76,4.76,0,0,0,.45-.24.62.62,0,0,0,.38-.36.3.3,0,0,0-.08-.3.62.62,0,0,0-.51-.12,4.35,4.35,0,0,0-.51,0,6.44,6.44,0,0,0-1.05.26l-1,.26-.5.16c-.24.09-.45.15-.56.41l.14-.14-.19.11a.33.33,0,0,0,.16.61Z"/><path d="M23.06,22.32c0,.06,0,.13.05.19l0-.13A.57.57,0,0,0,23,23l.12-.41-.06.05a.75.75,0,0,0-.11.91,5,5,0,0,0,5.25,2.3.93.93,0,0,0-.49-1.79l-.13,0s-.23,0-.08,0,0,0,0,0h-.16a5.19,5.19,0,0,1-.56,0c-.16,0-.06,0,0,0a.3.3,0,0,0-.13,0L26.36,24l-.29-.08-.13,0-.07,0-.05,0-.12-.06-.27-.13a5.33,5.33,0,0,1-.51-.31l-.1-.08c.09.07.05,0,0,0l-.2-.17a6.09,6.09,0,0,1-.44-.44.74.74,0,0,0-.73-.2l-.1,0,.42.11c-.15-.15-.28-.28-.51-.25l.12.07-.1-.18c-.06-.11-.22,0-.2.09Z"/><path d="M26.4,24.93l-.53,0a.89.89,0,0,1-.23,0c-.1,0-.2,0-.3,0l.35.2a.66.66,0,0,0-.64-.38l-.3,0,.61.35,0,0a.86.86,0,0,0-.39-.34.91.91,0,0,0-.54,0l-.35,0a.84.84,0,0,0-.61.62v0l.09-.21a1.66,1.66,0,0,0-.19.8l0,.44a1.46,1.46,0,0,0,0,.22,1.12,1.12,0,0,0,.1.4,1.33,1.33,0,0,0,.25.47.77.77,0,0,0,.56.25.81.81,0,0,0,.57-.25,1.25,1.25,0,0,0,.21-.3,1.29,1.29,0,0,0,.19-.57,1.27,1.27,0,0,1,0-.2l0-.44v-.22a1.23,1.23,0,0,0-.14-.6l.12.44v0l-.64.84.33-.13a1,1,0,0,0,.43-.3.87.87,0,0,0,.18-.5v0l-.35.62.27-.12a.66.66,0,0,0,.36-.65l-.2.34a1.67,1.67,0,0,0,.23-.12l.1-.07a.59.59,0,0,1,.14-.06l.48-.22a.17.17,0,0,0-.09-.32Z"/><path d="M24.11,47.61a7.4,7.4,0,0,0-.05,4A10,10,0,0,0,26,55a9.52,9.52,0,0,0,3.13,2.43c1.05.49,2.75,1.07,3.88.53a.31.31,0,0,0,0-.53,10.21,10.21,0,0,0-1.66-.36,8.32,8.32,0,0,1-1.68-.57,8.88,8.88,0,0,1-2.91-2.17A8.66,8.66,0,0,1,25,51.25a8.5,8.5,0,0,1-.54-3.59c0-.19-.28-.22-.32,0Z"/><path d="M27.9,50.37a6.51,6.51,0,0,0,2.29,3.26,5.89,5.89,0,0,0,1.83.9,2.93,2.93,0,0,0,2,0c.13-.06.07-.24,0-.28-.56-.22-1.18-.26-1.75-.43a6.74,6.74,0,0,1-1.66-.76,5.57,5.57,0,0,1-2.39-2.79c-.06-.16-.31-.1-.26.07Z"/><path d="M52.25,66c.16,1,5.41-.73,6-.94a29,29,0,0,0,5.39-2.58A30,30,0,0,0,68.33,59a14.59,14.59,0,0,0,3.74-4.64.61.61,0,0,0-1-.74c-1.35,1.23-2.47,2.67-3.8,3.94a30,30,0,0,1-4.46,3.58A31.27,31.27,0,0,1,58,63.68c-1.79.78-3.64,1.21-5.46,1.84a.41.41,0,0,0-.3.39s0,0,0,.07Z"/><path d="M53.48,66.33c1.08-.45,2.23-.7,3.32-1.15a38,38,0,0,0,3.44-1.72,66.88,66.88,0,0,0,6.68-4.2,66.54,66.54,0,0,0,11.65-10,1,1,0,0,0-1.42-1.42,139.18,139.18,0,0,1-11.42,9.86c-1.94,1.44-4,2.79-6,4.12-1.07.7-2.17,1.35-3.24,2.06s-2,1.58-3.16,2.2c-.15.09,0,.38.13.3Z"/><path d="M68.6,50.61a14.45,14.45,0,0,0,6.51-8.28,16.23,16.23,0,0,0,.81-5.4c0-1.66-.2-3.72-1.19-5.11-.16-.22-.59-.18-.57.15.13,1.68.67,3.26.67,5a16.45,16.45,0,0,1-.79,5,17.48,17.48,0,0,1-5.81,8.23c-.28.22.08.64.37.48Z"/><path d="M64,20.23a8.12,8.12,0,0,1,1.73,3.5A10.87,10.87,0,0,1,66,25.61a7.7,7.7,0,0,1-.07,2,.24.24,0,0,0,.47.13A7,7,0,0,0,67,25.61a6.15,6.15,0,0,0-.32-2.17A6.89,6.89,0,0,0,64.2,20c-.13-.09-.24.1-.16.2Z"/><path d="M41.26,59.67a11.14,11.14,0,0,0,7.8-.06,12.29,12.29,0,0,0,3.41-1.86,10.38,10.38,0,0,0,1.47-1.42,9.26,9.26,0,0,0,1-1.7.19.19,0,0,0-.33-.2,15.4,15.4,0,0,1-1.34,1.34A13.13,13.13,0,0,1,51.87,57a12,12,0,0,1-3.23,1.79,12.47,12.47,0,0,1-7.23.39.27.27,0,0,0-.15.51Z"/><path d="M12.43,24a1.09,1.09,0,0,0-.17.13.47.47,0,0,0-.1.1c-.08.06-.05.08.06.07a.31.31,0,0,0-.34.14,3.76,3.76,0,0,0-.39,3,4,4,0,0,0,.57,1.36,3.15,3.15,0,0,0,.54.61,3.53,3.53,0,0,0,.32.21c.12.06.26.07.39.12a.28.28,0,0,0,.31-.41c-.11-.17-.17-.36-.28-.53s-.24-.35-.35-.54a4.54,4.54,0,0,1-.5-1.1,5.25,5.25,0,0,1-.05-2.43.34.34,0,0,0-.14-.35h0l.11.14a1.76,1.76,0,0,1,.07-.45s0,0,0,0Z"/><path d="M7.51,37.3c-.36-.13-.67.49-.78.75l.26-.2H6.93a.54.54,0,0,0-.38.38A3.92,3.92,0,0,0,7.9,42.35c.35.28,1,.67,1.4.41a.58.58,0,0,0,.28-.67c-.07-.28-.33-.41-.55-.56l-.06,0-.14-.1-.12-.09h0a4.54,4.54,0,0,1-.38-.38l-.07-.09s.06.1,0,0l-.13-.2L8,40.4l-.06-.11s-.08-.18,0-.06a3.86,3.86,0,0,1-.17-.55l0-.12s0-.19,0-.12,0,0,0-.07l0-.26c0-.12,0,0,0,0s0-.12,0-.18,0-.2,0-.3a1.21,1.21,0,0,0,0-.38.61.61,0,0,0-.28-.35l.22.38a3.72,3.72,0,0,1,.08-.57c0-.13,0-.34-.12-.4Z"/><path d="M14.05,14.85a3.07,3.07,0,0,1,.26-.25l-.27.07a.62.62,0,0,0,.53-.07l.19-.14.48-.31a2.88,2.88,0,0,1,1-.42l.27-.07.12,0h.05a3.41,3.41,0,0,1,.55,0,3,3,0,0,0,.67,0c.16,0,.32-.09.49-.13a.29.29,0,0,0,.13-.48,2,2,0,0,0-.46-.42,1.67,1.67,0,0,0-.8-.17,4.32,4.32,0,0,0-1.33.19,4.27,4.27,0,0,0-1.19.54,2.49,2.49,0,0,0-.55.47,3.25,3.25,0,0,0-.23.29.57.57,0,0,0-.06.58l0-.21a3.18,3.18,0,0,0-.16.32c-.09.21.15.45.33.26Z"/><path d="M24.63,16.58l-.12.24c0,.08-.05.07-.11.13a.38.38,0,0,0-.12.16l-.05.1c-.05.09,0,0,0,.05a1.79,1.79,0,0,0-.26,1l.06-.22a1.34,1.34,0,0,0,0,.84,3.28,3.28,0,0,0,.19.63A4.16,4.16,0,0,0,25,20.83a3.89,3.89,0,0,0,1.1.83c.42.2,1.4.52,1.61-.14l-.3.3.16-.05c.27-.09.39-.52.09-.66L27.48,21l.21.37c0-.36-.29-.45-.57-.58l-.05,0-.22-.1-.14-.05-.05,0a2.78,2.78,0,0,1-.88-.63,3.61,3.61,0,0,1-.61-.88,2.36,2.36,0,0,1-.21-.47,2.06,2.06,0,0,0-.28-.66l.11.19a1.87,1.87,0,0,1-.09-.41,1.07,1.07,0,0,0-.07-.44q-.07-.11,0,0V17.2a.75.75,0,0,0,0-.15c0-.09-.05-.08,0-.18a2.15,2.15,0,0,1,.1-.27s0-.05,0,0Z"/><path d="M26.43,18.5a.19.19,0,0,0,0,.07l0-.09,0,0a.3.3,0,0,0-.13.33.84.84,0,0,0,.05.17l0,.07,0,.07q0,.08,0,0l0-.29c-.21.3.06.63.25.86a2.49,2.49,0,0,0,.55.47,3.69,3.69,0,0,0,.64.29.85.85,0,0,0,.92-.12l-.25.11a3.33,3.33,0,0,0,.55-.1c.22-.06.26-.45,0-.48a2.46,2.46,0,0,1-.45-.11l.21.16c-.12-.26-.43-.34-.67-.43l-.07,0h0l-.13-.06-.24-.14-.23-.16-.12-.08c-.08-.06.07.06,0,0s-.4-.44-.72-.33l.28,0s0,0,0,0l-.06-.07a1.31,1.31,0,0,1-.11-.12.28.28,0,0,0-.29-.07h0l.09,0,0-.06a.07.07,0,0,0-.13.05Z"/><path d="M35.63,8.36A5.47,5.47,0,0,0,35,8.9l-.13.15c.07,0,.07,0,0,0a.42.42,0,0,0-.14.09,1.91,1.91,0,0,0-.25.36,3.81,3.81,0,0,0-.58,1.87,5,5,0,0,0,.24,1.84,2.7,2.7,0,0,0,.44.94c.19.2.56.53.85.51a.37.37,0,0,0,.34-.26,1.56,1.56,0,0,0-.12-.79,6.74,6.74,0,0,0-.3-.74,4,4,0,0,1-.23-1.46,9.84,9.84,0,0,1,.21-1.54c0-.11.07-.22.1-.33a1.62,1.62,0,0,1,0-.22c0,.16.06-.08.06-.08a2.73,2.73,0,0,1,.35-.68.14.14,0,0,0-.2-.2Z"/><path d="M49.75,9.64c.48-.31,1-.52,1.51-.8a9.13,9.13,0,0,1,1.6-.7,9.37,9.37,0,0,1,1.66-.41c.27-.05.56-.05.84-.1s.48-.23.74-.28a.23.23,0,0,0,0-.44c-.25,0-.48-.19-.74-.23a4.12,4.12,0,0,0-1,.11,10,10,0,0,0-1.81.46A12,12,0,0,0,50.89,8a6.86,6.86,0,0,0-1.46,1.22c-.21.21.06.59.32.42Z"/><path d="M63.44,7.46A7.06,7.06,0,0,1,65.7,9.75c.31.44.56.92.83,1.38.13.24.29.46.42.69a3,3,0,0,1,.26.82.22.22,0,0,0,.43-.06,10.23,10.23,0,0,0-.15-1.65v.25A2.38,2.38,0,0,0,67,9.71a5,5,0,0,0-.94-1.2A7.85,7.85,0,0,0,63.62,7c-.25-.09-.4.3-.18.43Z"/><path d="M42.4,68.77l.07.21a.9.9,0,0,0,.85.65A24.85,24.85,0,0,0,51,68.68a25.29,25.29,0,0,0,3.59-1.32,6.43,6.43,0,0,0,3-2.21.51.51,0,0,0-.44-.76,9.66,9.66,0,0,0-3.19,1.09,27,27,0,0,1-10.6,2.38.91.91,0,0,0-.85.65c0,.06-.09.18-.07.26Z"/><path d="M57.66,80a8,8,0,0,1,.49,4.31,0,0,0,0,0,.05,0A8.11,8.11,0,0,0,57.72,80s-.08,0-.06,0Z"/><path d="M55.08,70.37c.55,2.79,1.7,5.41,2.4,8.16a19.65,19.65,0,0,1,.63,4.1,14.92,14.92,0,0,1-.07,2,6.06,6.06,0,0,0-.1,2,.54.54,0,0,0,.9.23c.89-1,.88-2.81.84-4.08a19.89,19.89,0,0,0-.61-4.21A44.69,44.69,0,0,0,56,70c-.25-.53-1-.14-.88.37Z"/><path d="M60.91,68.06a30.09,30.09,0,0,1,2.83,9.1c.38,3.11.22,6.25.61,9.36,0,.16.3.24.33,0a33.27,33.27,0,0,0-.16-9.81C64,73.64,63.17,70.36,61,68c0,0-.11,0-.08.07Z"/><path d="M65.76,64.36c.63,3,1.28,5.92,1.74,8.9.24,1.55.42,3.1.59,4.65a29.59,29.59,0,0,0,.48,4.32c.05.18.36.2.39,0a17.78,17.78,0,0,0-.14-4.49c-.13-1.45-.34-2.89-.58-4.33a51,51,0,0,0-2.3-9.1.09.09,0,0,0-.18,0Z"/><path d="M51,87.84l.14.37a.92.92,0,0,0,.47.82,17.56,17.56,0,0,0,12.27,1.63,11.1,11.1,0,0,0,7.65-6.5c.59-1.49-1.83-2.14-2.41-.66-1,2.62-3.66,4.28-6.29,4.94a13.36,13.36,0,0,1-5,.18c-1.87-.25-3.62-.93-5.45-1.33a1,1,0,0,0-.93.25l-.37.2a.09.09,0,0,0,0,.1Z"/><path d="M52.84,87.9c-1.25.21-1,2.74-.92,3.62a5.37,5.37,0,0,0,2,4c1.39,1.06,3.23,1.28,4.54,2.48a8.16,8.16,0,0,1,2.22,4.18c.87,3.49.61,7.33.62,10.9A74.26,74.26,0,0,1,60.55,125,32.73,32.73,0,0,1,56,137.6c-.87,1.35,1.28,2.59,2.14,1.25,4.49-7,5.52-15.37,5.59-23.5a75.94,75.94,0,0,0-.54-11.58c-.46-3.16-1.62-6.5-4.51-8.22-1.93-1.14-4.35-1.2-4.95-3.76a29.32,29.32,0,0,1-.14-3c0-.34-.3-1-.76-.93Z"/><path d="M51.69,87.75a4.64,4.64,0,0,0-.38,3.35A4,4,0,0,0,52,92.57a2.28,2.28,0,0,0,.73.72,1.11,1.11,0,0,0,1.14,0l-.31,0,.27,0a.32.32,0,0,0,.28-.49l-.1-.14,0,.31a1.27,1.27,0,0,0,.05-.34.77.77,0,0,0-.07-.34c-.12-.28,0,.11,0-.06a1.92,1.92,0,0,0-.33-.55l-.06-.07.05.06s-.06-.08-.08-.1a4.4,4.4,0,0,1-.31-.56l-.09-.17c0-.11,0,0,0,0a1.31,1.31,0,0,1-.12-.33c0-.1-.06-.21-.08-.31a.9.9,0,0,1,0-.16s0-.21,0-.07,0,0,0-.07a.81.81,0,0,1,0-.16,1.61,1.61,0,0,1,0-.31.81.81,0,0,1,0-.16s0-.21,0-.07,0,0,0-.07l0-.16.09-.3.06-.15c0,.13,0,.06,0,0a.86.86,0,0,0-1.49-.87Z"/><path d="M50.81,87.43a14.11,14.11,0,0,0-.72,2.66,7.43,7.43,0,0,0,.34,2.73,6.87,6.87,0,0,0,3.39,3.8c1.5.82,3.21,1.23,4.65,2.15a5.35,5.35,0,0,1,1.72,1.66,3.31,3.31,0,0,1,.42,1.11,2.33,2.33,0,0,0,.36,1.35.77.77,0,0,0,1,.27c1.85-1,.48-3.7-.53-4.85a11.51,11.51,0,0,0-4.66-2.82c-1.45-.58-3.12-1.17-4-2.54a5.5,5.5,0,0,1-.77-2.5,19.09,19.09,0,0,1-.28-2.89c.05-.55-.82-.66-.95-.13Z"/><path d="M58,90.83l.15.38c.06.13.09.26.15.38a5.32,5.32,0,0,0,.39.65,7.83,7.83,0,0,0,1,1.22,5.4,5.4,0,0,0,1.23,1,9.71,9.71,0,0,0,1.47.57.24.24,0,0,0,.19-.43,6.59,6.59,0,0,1-1.16-.79c-.37-.3-.75-.6-1.09-.93a7.06,7.06,0,0,1-.92-1c-.14-.19-.25-.38-.38-.58s-.27-.41-.39-.64-.78-.1-.64.27Z"/><path d="M63.37,89.78a15.78,15.78,0,0,0,.93,2.57c.17.42.33.84.53,1.24.1.2.22.39.33.59a2.24,2.24,0,0,0,.35.57.2.2,0,0,0,.34-.14,2.16,2.16,0,0,0-.17-.6c-.07-.22-.12-.43-.2-.64-.17-.44-.36-.85-.56-1.28a14.68,14.68,0,0,0-1.25-2.43.16.16,0,0,0-.3.12Z"/><path d="M66.72,88.66A10.9,10.9,0,0,1,67,90.45c0,.56.18,1.12.23,1.69s0,1.15.11,1.72.12,1.19.17,1.79c0,.43.68.58.79.1a8.62,8.62,0,0,0,.27-1.89A8.47,8.47,0,0,0,68.33,92a7.61,7.61,0,0,0-.49-1.77c-.29-.56-.58-1.11-.89-1.65a.12.12,0,0,0-.23.09Z"/><path d="M69.5,86.45c.08,1,.15,2.1.31,3.14.07.51.13,1,.23,1.52.06.27.13.54.19.81a1.29,1.29,0,0,0,.28.68.29.29,0,0,0,.46-.06,1.15,1.15,0,0,0,.06-.73L70.94,91c-.06-.51-.18-1-.27-1.51-.19-1-.47-2.07-.74-3.09a.22.22,0,0,0-.43.06Z"/><path d="M63.09,135.19a28.05,28.05,0,0,0,1.6-6.24,24.4,24.4,0,0,0,.1-6.33.21.21,0,0,0-.42,0,54,54,0,0,1-2,12.37c-.14.48.55.64.72.2Z"/><path d="M67.34,132.42c0-.12.2-.26.24-.4s.06-.29.09-.43.08-.5.11-.75c.06-.57.08-1.15.11-1.73a12,12,0,0,0-.29-3.33c-.08-.31-.49-.21-.52.07-.11,1.09-.11,2.17-.14,3.26,0,.54,0,1.07-.08,1.6,0,.26,0,.51,0,.77s0,.25,0,.38l0,.22c0,.1.08.19.11.28s.36.28.4.06Z"/><path d="M69.94,130.32l.14-.06a.52.52,0,0,0,.34-.34,9,9,0,0,0,.45-3.17,5.37,5.37,0,0,0-.23-1.54c-.17-.51-.24-1.06-.39-1.57a.3.3,0,0,0-.57.16,6.38,6.38,0,0,1,.16,1.69c0,.52,0,1,0,1.56a12.79,12.79,0,0,1-.15,1.53l-.12.84c0,.36-.08.57.22.83l0-.15,0,.12c0,.14.19.26.26.1Z"/><path d="M65.63,102.69c.33,2.15.65,4.32.88,6.48s.46,4.3.53,6.43a.33.33,0,0,0,.66,0c.12-1.16.24-2.3.28-3.46a23,23,0,0,0-.21-3.21,26.63,26.63,0,0,0-1.53-6.41.32.32,0,0,0-.61.17Z"/><path d="M17.07,80.94c-.52,5.14-1.17,10.27.33,15.33a15.58,15.58,0,0,0,9.83,10.3c4.78,1.83,10.1,2.11,14.71,4.42a22.07,22.07,0,0,1,9.67,10.22,29.14,29.14,0,0,1,2.46,7.62,28.65,28.65,0,0,1,.44,4.13c.05,1.4-.17,2.74.85,3.82a1,1,0,0,0,1.33,0c1.72-1.42.94-5,.68-7a31.57,31.57,0,0,0-1.79-7.24,26.5,26.5,0,0,0-8.37-11.71c-4.09-3.18-8.9-4.27-13.86-5.33s-10.3-2.63-13-7.44a20.82,20.82,0,0,1-2.36-8.16,56.26,56.26,0,0,1-.27-9c0-.38-.56-.37-.6,0Z"/><path d="M38.55,99.86c1.2,1.07,3,1.66,4.4,2.44a43.35,43.35,0,0,1,4.49,2.77,24.45,24.45,0,0,1,7.44,8.13A28.58,28.58,0,0,1,58,123.86a37.71,37.71,0,0,1,.18,5.82,55.08,55.08,0,0,1-1,6.15c-.18,1.11,1.43,2.06,2,.84,1.73-3.75,1.61-8.6,1.12-12.61a32.24,32.24,0,0,0-3.4-11.34,24.3,24.3,0,0,0-7.64-8.45,48.85,48.85,0,0,0-4.86-2.92c-.83-.45-1.68-.88-2.54-1.31a11.47,11.47,0,0,0-2.77-1.19c-.54-.1-1.07.57-.58,1Z"/><path d="M59.72,132.31a24.44,24.44,0,0,0,2-5.55,44.2,44.2,0,0,0,1.18-6.13,23.39,23.39,0,0,0-1.06-10.7,17.5,17.5,0,0,0-6.13-8.11c-2.7-2-5.76-3.54-8.48-5.54-3.32-2.43-5.6-5.91-7.46-9.52-.27-.52-1.22-.3-1.15.31a12.44,12.44,0,0,0,1.33,4.7,21.16,21.16,0,0,0,2.82,4.12c2.25,2.5,5.17,4.19,8,5.9s5.71,3.63,7.45,6.6a19.42,19.42,0,0,1,2.41,10.1,38.74,38.74,0,0,1-.72,6.79A42,42,0,0,0,58.7,132a.55.55,0,0,0,1,.28Z"/><path d="M16.37,102.07A9.85,9.85,0,0,0,20.82,104a11.25,11.25,0,0,0,2.39.13,3.34,3.34,0,0,0,2.31-.78.38.38,0,0,0-.16-.62,5.53,5.53,0,0,0-2.22,0,10.92,10.92,0,0,1-2.14,0,12.32,12.32,0,0,1-4.19-1.34.43.43,0,0,0-.44.75Z"/><path d="M32.22,105.53a6.72,6.72,0,0,1,.32-.66l-.21.16h0a.48.48,0,0,0,.33-.33,7.58,7.58,0,0,0,.24-3.18,6.85,6.85,0,0,0-.3-1.55c-.12-.32-.46-1.11-.94-.84s-.22,1-.15,1.37.19,1,.24,1.46a9.77,9.77,0,0,1,0,1.53c0,.26,0,.51,0,.76s0,.57.26.75l-.17-.22a2.36,2.36,0,0,1,0,.65.19.19,0,0,0,.35.1Z"/><path d="M31.22,111.73c1.52,2.23,4.74,2.82,7.27,2.84a12.93,12.93,0,0,0,4.09-.62,7.67,7.67,0,0,0,3.65-2c.4-.52-.26-1.3-.85-1.1a11.43,11.43,0,0,0-1.56.87,10.16,10.16,0,0,1-1.66.72,12.48,12.48,0,0,1-3.67.65,11.89,11.89,0,0,1-3.61-.46c-1.18-.33-2.3-.8-3.49-1.09a.15.15,0,0,0-.17.22Z"/><path d="M36.71,91.4c0,.2,0,.39,0,.58a2,2,0,0,0,.2.63,5.73,5.73,0,0,0,.54,1,6.83,6.83,0,0,0,4.09,2.57,5.91,5.91,0,0,0,1.26.11,1.31,1.31,0,0,0,1.13-.6.35.35,0,0,0-.06-.41A1.21,1.21,0,0,0,43,94.9l.33.09a3.28,3.28,0,0,0-1.07-.17,7.69,7.69,0,0,1-.9-.2,5.84,5.84,0,0,1-1.65-.74,7.8,7.8,0,0,1-1.36-1.21,7,7,0,0,1-.53-.69,1.74,1.74,0,0,0-.34-.43.81.81,0,0,1-.27-.28c-.12-.19-.48-.13-.46.13Z"/><path d="M48.4,97.26A16,16,0,0,0,48,93.48a12.22,12.22,0,0,0-.52-1.76,4.18,4.18,0,0,0-.95-1.65c-.14-.11-.43-.11-.47.12a5,5,0,0,0,.25,1.71c.14.62.35,1.23.51,1.84.32,1.19.61,2.41.9,3.61a.37.37,0,0,0,.72-.09Z"/><path d="M51,103.3a5.89,5.89,0,0,0,2.37,2.35,6.14,6.14,0,0,0,1.54.65,4.4,4.4,0,0,0,1.73-.09c.22,0,.21-.39,0-.43-.49-.11-.92-.37-1.4-.52a8.61,8.61,0,0,1-1.39-.52,7.7,7.7,0,0,1-2.31-1.86c-.26-.3-.73.09-.54.42Z"/></g></g></svg>