<svg xmlns="http://www.w3.org/2000/svg" viewBox="0 0 113.39 93.83"><defs><style>.cls-1{fill:#fff;stroke:#000;stroke-miterlimit:10;stroke-width:3px;}</style></defs><g id="Camada_2" data-name="Camada 2"><g id="Camada_5" data-name="Camada 5"><path class="cls-1" d="M1.53,85.35c-1.4-.51,47.72-17.74,29.09-59.22,0,0-10.48-10.29-23.56-6.88C7.06,19.25,29,8.66,79,1.66l12,36s14.6-5.85,20.8-5.42c0,0-2.16,28.8-45.48,53.11C66.3,85.35,44.07,101,1.53,85.35Z"/><path d="M38.22,25.08c6.43,1.28,13.16-1.15,19.09-3.43q5.05-1.95,10.09-4c1.44-.58,2.92-1.11,4.33-1.75A3.9,3.9,0,0,0,74,13.74a.75.75,0,0,0-.71-.93,126.45,126.45,0,0,0-21.13-.57c-6.63.53-13.69,1.82-19.4,5.4-.46.28-.16,1.14.39.91a61.8,61.8,0,0,1,19.65-4.84,131,131,0,0,1,20.49.56l-.71-.93c-.45,1.23-2.41,1.65-3.48,2.08l-4.41,1.76c-2.94,1.18-5.86,2.43-8.82,3.59a58.74,58.74,0,0,1-8.39,2.74,31.54,31.54,0,0,1-9.14.69.45.45,0,0,0-.11.88Z"/><path d="M30.93,69c5.31,0,10.63-2,15.61-3.75a136.06,136.06,0,0,0,15-6.33A128.7,128.7,0,0,0,75.6,50.85c4.27-2.85,8.36-6,12.67-8.78a61.53,61.53,0,0,1,7.59-4.28c2.66-1.24,5.49-1.87,8.2-3a.94.94,0,0,0-.25-1.84,19.63,19.63,0,0,0-7.42,1.84,52.33,52.33,0,0,0-6.57,3.29c-4.47,2.62-8.62,5.73-12.88,8.67A142.8,142.8,0,0,1,48,62.31c-2.89,1.14-5.84,2.14-8.79,3.13a66.75,66.75,0,0,0-8.43,3.07.26.26,0,0,0,.13.48Z"/><path d="M52.06,57.67a28.4,28.4,0,0,0,5.95-2,29.81,29.81,0,0,0,2.77-1.52,14.66,14.66,0,0,0,2.57-1.77.19.19,0,0,0-.23-.3c-.94.45-1.81,1.1-2.72,1.6s-1.75,1-2.63,1.38c-1.88.93-3.77,1.82-5.72,2.59,0,0,0,0,0,0Z"/><path d="M50.59,55.78A225.2,225.2,0,0,0,75.26,43.57a.26.26,0,0,0-.26-.45c-8.19,4.08-16.53,8-24.46,12.54-.06,0,0,.15.05.12Z"/><path d="M23.82,85.4c11.85.86,24.3-.05,35.67-3.71A50.73,50.73,0,0,0,74.39,74a111.73,111.73,0,0,0,12-10.75c5-5,10.17-10,14.88-15.28a.22.22,0,0,0-.31-.31c-8.61,7.75-16,16.82-25.1,24.06A52.87,52.87,0,0,1,61.4,80.15a80.51,80.51,0,0,1-16.93,4,117.83,117.83,0,0,1-20.65,1c-.18,0-.17.25,0,.26Z"/><path d="M41.6,27.5a19.18,19.18,0,0,0,2.53.24q1.26,0,2.52-.15a28.09,28.09,0,0,0,4.62-.88A27.9,27.9,0,0,0,60,22.39c.2-.14,0-.47-.2-.34A35.14,35.14,0,0,1,51,25.78a35.72,35.72,0,0,1-4.48,1,47.91,47.91,0,0,1-4.93.53.11.11,0,0,0,0,.22Z"/><path d="M76.2,14.69c.74,1.17,1.36,2.44,2,3.66A32.68,32.68,0,0,1,80,22.48,35.16,35.16,0,0,1,81.85,31c0,.2.33.21.32,0a27.52,27.52,0,0,0-1.53-8.81,29.36,29.36,0,0,0-1.71-3.9,22.92,22.92,0,0,0-2.56-3.69c-.08-.1-.24,0-.17.13Z"/><path d="M82.7,27.65a13.49,13.49,0,0,1,1.18,7.22c0,.1.14.15.16,0a10.74,10.74,0,0,0,.12-3.75,9.34,9.34,0,0,0-1.38-3.56c0-.05-.1,0-.08,0Z"/><path d="M18.11,14.08c-.3-.11-.58-.25-.89-.35a2.05,2.05,0,0,0-1.2,0,4,4,0,0,0-1.87,1.16,3.09,3.09,0,0,0,.46,4.43,3.57,3.57,0,0,0,1.28.7A2.16,2.16,0,0,0,17.53,20,1,1,0,0,0,18,19a1,1,0,0,0-.72-.84,3.69,3.69,0,0,0-.57,0h-.2c-.16,0,.24.06,0,0l-.2-.05-.08,0c-.1,0,.12.05.12.05s-.27-.13-.39-.21l-.07-.05.09.07a.93.93,0,0,0-.15-.13,1.59,1.59,0,0,0-.13-.13l-.05-.07c-.12-.13,0,0,0,.05,0-.1-.16-.24-.21-.33s-.1-.22,0-.06,0-.08,0-.13a1.17,1.17,0,0,1,0-.2c0-.17,0,.22,0,0v-.21a.28.28,0,0,1,0-.09c0-.14,0,.07,0,.09s.07-.29.1-.37-.06.14,0,0,.18-.35.15-.4-.09.17,0,.09a.2.2,0,0,0,0-.08c0-.06.08-.11.11-.17s0,.07,0,.06l0-.06.17-.18.13-.12c.06-.05.17-.12,0,0l.36-.23.21-.11h0l.05,0a2.14,2.14,0,0,0,.52-.22,1.24,1.24,0,0,1,.76-.21c.34,0,.35-.45.08-.55Z"/><path d="M18.94,13.36a3.5,3.5,0,0,0-.56,0,4,4,0,0,0-.69,0,6.41,6.41,0,0,0-1.16.32,3.6,3.6,0,0,0-2,1.58,2.84,2.84,0,0,0,1.34,4,2.06,2.06,0,0,0,.78.09,3.31,3.31,0,0,0,.54-.06l.19,0c.17,0-.21,0,.09,0h.15c.13,0-.16-.06,0,0l.14,0c.11,0,.05,0,0,0a2.9,2.9,0,0,0,.33.2s.11.05.16.06q-.36-.22-.15-.06a.41.41,0,0,0,.11.07.68.68,0,0,0,.81-.1,1.11,1.11,0,0,0-.09-1.57,1.83,1.83,0,0,0-1.44-.51c-.15,0-.3,0-.44.06l-.2,0h-.33s-.18,0,0,0,0,0,0,0l-.08,0c-.09,0,.08,0,.09,0s-.13-.08-.17-.1.08.05.08.07-.08-.07-.08-.08-.18-.18-.07-.07,0-.05-.06-.09a1,1,0,0,0-.09-.18c0-.09,0,.08,0,.08s0-.08,0-.08a2,2,0,0,1-.06-.23l0-.12c0-.1,0,.09,0,.09a.82.82,0,0,1,0-.22,1.28,1.28,0,0,1,0-.19v-.12c0-.1,0,.15,0,.05s.07-.26.1-.38-.07.11,0-.06a1.42,1.42,0,0,1,.14-.23l.06-.09s-.07.08,0,0l.16-.17a4.19,4.19,0,0,1,.36-.32A5,5,0,0,1,18,14.4a1.19,1.19,0,0,0,.33-.18.83.83,0,0,1,.18-.13,6.55,6.55,0,0,0,.58-.32.22.22,0,0,0-.11-.41Z"/><path d="M18.83,13l-.24.06c-.06,0-.22.06-.07,0a1.5,1.5,0,0,0-.62.16,2.32,2.32,0,0,0-.8.66,3.27,3.27,0,0,0-.65,2.36,4.5,4.5,0,0,0,.9,2.34,6.14,6.14,0,0,0,2.34,1.79,10.69,10.69,0,0,0,1.64.59,4.43,4.43,0,0,0,1.9.26.9.9,0,0,0,.65-.75.93.93,0,0,0-.43-.91,5.76,5.76,0,0,0-1.6-.51c-.24-.07-.49-.15-.73-.24l-.31-.11-.2-.08-.06,0a5.86,5.86,0,0,1-1.21-.7,2.73,2.73,0,0,1-.7-.78l-.12-.22c0-.1-.05-.1,0,0l-.06-.16a4.58,4.58,0,0,1-.14-.53.5.5,0,0,1,0-.12h0a2.29,2.29,0,0,1,0-.25c0-.19,0-.39,0-.58,0,0,0-.35,0-.18a1.89,1.89,0,0,1,0-.23,3,3,0,0,1,.12-.52,3.26,3.26,0,0,1,.18-.39,1,1,0,0,0,.23-.49l-.11.26a1,1,0,0,1,.31-.22c.3-.16.09-.58-.21-.52Z"/><path d="M11.35,17.82a1.64,1.64,0,0,0,.66,0l-.55-.15a1.11,1.11,0,0,0,.79.38,1.71,1.71,0,0,0,.45-.09c.24-.07.48-.13.71-.21.44-.14.87-.29,1.32-.41a21.74,21.74,0,0,1,2.8-.59l-1.05-1.79a2.38,2.38,0,0,0-1,1.82,1.68,1.68,0,0,0,.47,1.15,1.38,1.38,0,0,0,1.29.38c.75-.1.86-1.11.42-1.57.23.24-.08-.08-.12-.15l.07.1,0-.06c0-.09,0-.09,0,0a.28.28,0,0,1,0,.2c0-.17,0,.05,0,.1s0,.07,0,0l.07-.11c-.07.13-.05.07,0,0a2.82,2.82,0,0,1,.36-.33,1.07,1.07,0,0,0,.17-1.3A1.13,1.13,0,0,0,17,14.66a19.82,19.82,0,0,0-2.84.66c-.45.14-.91.29-1.35.46-.28.11-.55.25-.81.38a1.32,1.32,0,0,0-.38.25,1.14,1.14,0,0,0-.29.83l.28-.49a2.05,2.05,0,0,0-.47.46.42.42,0,0,0,.25.61Z"/></g></g></svg>