<svg xmlns="http://www.w3.org/2000/svg" viewBox="0 0 125.57 136.08"><defs><style>path{fill:#007fff}.cls-1{fill:#fff;stroke:#007fff;stroke-miterlimit:10;stroke-width:3px;}</style></defs><g id="Camada_2" data-name="Camada 2"><g id="Camada_2-2" data-name="Camada 2"><path class="cls-1" d="M2.16,33.56l5,11.06S24.91,122.93,34.46,131c0,0-1-2.5,8.75-3.73s78.86-10.56,80.82-15.9c0,0-8.19-67.19-25.11-86.77l12.54-15.7s2.72-5.63-8.87-7.25L91.67,15.89S89.89,9.45,77.94,5.22c0,0-10,12.66-42,13.22L16.51,19.61S15.32,31.13,2.16,33.56Z"/><path d="M93.07,12.79c.09.53-1,1.25-1.35,1.59-.62.62-1.21,1.27-1.81,1.91-1.14,1.22-2.21,2.51-3.29,3.79q-3.11,3.71-6,7.56c-2,2.59-3.94,5.22-5.82,7.89a82.92,82.92,0,0,0-5.59,8.33c-.64,1.18,1,2.65,2,1.51,2.27-2.81,4.17-5.92,6.27-8.86s4.28-5.95,6.49-8.87,4.54-5.91,6.86-8.82a39.68,39.68,0,0,0,3.1-4c.53-.86.7-1.87-.17-2.53-.33-.25-.67.16-.62.48Z"/><path d="M69.64,44.12a2.07,2.07,0,0,0-.52,1.21c-.13.61-.26,1.22-.36,1.83L68.09,51l-.64,3.67c-.1.61-.21,1.23-.31,1.84a2.77,2.77,0,0,0,0,1.82.77.77,0,0,0,1.21.16A2.57,2.57,0,0,0,69,56.84c.11-.61.21-1.22.31-1.84l.55-3.42.55-3.42a33.17,33.17,0,0,1,.48-3.32.75.75,0,0,0-1.24-.72Z"/><path d="M68.4,58.61a53.51,53.51,0,0,0,5.34-4.42l2.58-2.25a15.46,15.46,0,0,0,1.26-1.16,9.52,9.52,0,0,0,1-1.45c.28-.45-.25-.86-.66-.67a10.73,10.73,0,0,0-1.5.79,12.79,12.79,0,0,0-1.31,1.13c-.85.75-1.69,1.53-2.54,2.29a52.58,52.58,0,0,0-5,4.72c-.44.53.13,1.45.79,1Z"/><path d="M78.52,49.46c4.69-5,9-10.44,13.44-15.7q3.3-3.9,6.57-7.82,1.6-1.9,3.2-3.82A11.35,11.35,0,0,0,104.37,18a.65.65,0,0,0-.94-.72c-1.46.64-2.58,2.12-3.58,3.32l-3.36,4Q93.22,28.53,90,32.46C85.6,37.7,81.1,42.85,77,48.3c-.66.87.77,2,1.51,1.16Z"/><path d="M76.31,44.67c4-6.11,8-12.25,12.51-18,.05-.06,0-.15-.09-.09a100.08,100.08,0,0,0-12.57,18,.09.09,0,0,0,.15.09Z"/><path d="M84.89,34.52c2.92-3.68,5.94-7.28,8.87-11,1.44-1.8,2.84-3.64,4.26-5.47,1.23-1.59,2.84-3.19,3.57-5.09a.26.26,0,0,0-.37-.29c-1.6,1.16-2.7,3-3.88,4.6C95.9,19.22,94.44,21.1,93,23c-2.79,3.78-5.48,7.62-8.28,11.39-.07.09.08.2.14.12Z"/><path d="M103.75,4.88c.3.34.57.7.9,1l-.11-.2c.15.45.73.77,1.13,1s.85.46,1.29.66.94.38,1.42.53,1.2.46,1.54,0-.49-.89-.91-1a13.13,13.13,0,0,1-1.38-.46,11.34,11.34,0,0,1-1.27-.6l-.64-.36a1.68,1.68,0,0,0-.76-.31l.23.06a5.78,5.78,0,0,0-.58-.26,4.39,4.39,0,0,1-.61-.38c-.2-.15-.4.16-.25.33Z"/><path d="M69.69,54.41a.81.81,0,0,0,.07-.22l-.26.27a.77.77,0,0,0,.45-.32.88.88,0,0,0,.1-.27,2.09,2.09,0,0,0,.08-.49l-1.4.38c.14.22.28.44.43.64l.47.63,1-1.24a1.88,1.88,0,0,0-1.78.45,1.72,1.72,0,0,0-.45.59,1.56,1.56,0,0,0-.18.67,1.7,1.7,0,0,0,0,.5.87.87,0,0,0,1,.62.86.86,0,0,0,.76-.86v-.19l0,.24a1.77,1.77,0,0,1,.08-.33l-.08.21a.89.89,0,0,1,.14-.25l-.14.18a1.2,1.2,0,0,1,.22-.23l-.17.14a1.2,1.2,0,0,1,.24-.15l-.2.09.24-.07-.23,0h.25l-.22,0,.09,0a.86.86,0,0,0,1-.39,1,1,0,0,0,.12-.42A.9.9,0,0,0,71,54l-.5-.6c-.17-.2-.36-.38-.54-.57a.75.75,0,0,0-.82-.15.68.68,0,0,0-.3.23.7.7,0,0,0-.16.46,2.11,2.11,0,0,0,.09.49,2.15,2.15,0,0,0,.1.27.77.77,0,0,0,.47.32L69,54.19a1.45,1.45,0,0,0,.11.29.32.32,0,0,0,.31.15.31.31,0,0,0,.25-.22Z"/><path d="M70.3,44.75c.12,1.14.24,2.28.38,3.42a.47.47,0,0,0,.79.33,4.8,4.8,0,0,1,3-1.16l-.51-.66a16,16,0,0,0-.79,3.49.62.62,0,0,0,.75.75c.77-.1,1.52-.22,2.28-.37A10.53,10.53,0,0,0,78.43,50c.72-.34.35-1.49-.4-1.47a10.17,10.17,0,0,0-2.29.54c-.74.19-1.47.43-2.19.67l.77.59a9.56,9.56,0,0,1,.6-3.38.53.53,0,0,0-.5-.66,5.89,5.89,0,0,0-3.6,1.55l.77.2q-.25-1.7-.57-3.39c-.07-.4-.76-.32-.72.1Z"/><path d="M17.85,37.29a8.89,8.89,0,0,0,4.93-.17,19.16,19.16,0,0,0,4.55-2.64A3.12,3.12,0,0,1,30,33.83c.94.3,1.73,1,2.64,1.41a7.34,7.34,0,0,0,4.27.38,7.25,7.25,0,0,0,3.84-2.18c.61-.63,1.25-1.58,2.24-1.39.84.16,1.54.94,2.26,1.35,3.13,1.79,5.06-1.42,7.69-2.46,3.28-1.29,7.91.63,10-3.19h-1.4A3.13,3.13,0,0,0,65,29.32c1.76-.26,3-1.34,4.21-2.5a5.72,5.72,0,0,1,2.52-1.65c1.06-.23,2.18.29,3.26.32a6.09,6.09,0,0,0,5.21-2.37c.35-.44-.11-1.27-.67-.87a7.65,7.65,0,0,1-4.92,1.56c-1.71-.18-3-.62-4.6.3-1.32.75-2.22,2-3.44,2.87-1,.71-3,1.37-3.65-.05a.82.82,0,0,0-1.4,0c-1.66,3.06-6.38,1.46-9.11,2.52a22,22,0,0,0-3.61,2.36,2.73,2.73,0,0,1-2.26.57,9,9,0,0,1-2-1.16A3.09,3.09,0,0,0,41.32,31c-1.39.81-2.13,2.26-3.7,2.87a6,6,0,0,1-4.87-.2c-1.39-.71-2.54-1.68-4.2-1.33S25.66,34,24.27,34.87A11.27,11.27,0,0,1,18,36.47a.42.42,0,0,0-.11.82Z"/><path d="M25.32,47.5c0,1.13,0,2.25,0,3.38a.71.71,0,0,0,1.06.6,25.26,25.26,0,0,0,6.4-4.19l-1.36-.56c.44,3.78,5.56,1.94,7.46.64.39-.27.76-.57,1.13-.87.79-.65,1.38-.3,2.19.08a6.4,6.4,0,0,0,2.12.63,6.6,6.6,0,0,0,4.87-1.38c.67-.52,1.1-1.3,1.77-1.81.91-.68,2.54.09,3.63,0a7.84,7.84,0,0,0,4.76-2.29c1.83-1.53,3.94-.38,6-.66a3,3,0,0,0,2.88-2.64.54.54,0,0,0-1-.27c-1,1.41-2.89,1.15-4.39,1a5.71,5.71,0,0,0-4.44,1c-1.47,1.13-2.64,2.28-4.66,2.07-1.71-.17-3-.61-4.34.76-1.18,1.2-2,2.28-3.82,2.51a4.85,4.85,0,0,1-2.58-.37,6.75,6.75,0,0,0-1.87-.76c-1.67-.21-2.81,1.49-4.17,2.2-.85.45-3.79,1.69-4-.06-.08-.63-.94-.7-1.33-.35a31.43,31.43,0,0,1-6,4.11l1.05.61c-.14-1.18-.32-2.34-.53-3.5-.1-.5-.87-.37-.88.12Z"/><path d="M71.21,37.81l.2-.17s.12-.1,0,0l.09-.06.42-.29a5.43,5.43,0,0,1,.91-.51l.11,0c.08,0,0,0,0,0a.85.85,0,0,1,.24-.09,4.13,4.13,0,0,1,.5-.15,3.63,3.63,0,0,0,.57-.13,2.27,2.27,0,0,0,.55-.36.55.55,0,0,0-.11-.85,1.35,1.35,0,0,0-.73-.24,3.14,3.14,0,0,0-.68.13,5.66,5.66,0,0,0-1.18.46,5.59,5.59,0,0,0-1,.68,4.29,4.29,0,0,0-.81.94.59.59,0,0,0,.92.71Z"/><path d="M25.9,62.6a4.08,4.08,0,0,0,4.82,2.84,6.34,6.34,0,0,0,3-1.9,3.38,3.38,0,0,1,1.57-1.07c.77-.13,1.56.52,2.28.76a6.18,6.18,0,0,0,3.85,0c1.41-.49,2.44-2,4-2a6.81,6.81,0,0,0,3.73-.59c1-.51,2.56-1.72,3.75-1.62a.33.33,0,0,0,.17-.6,2.84,2.84,0,0,0-2.66-.27c-1.1.47-2.12,1.34-3.32,1.53s-2.51-.35-3.76.43-2.2,1.81-3.89,1.82c-1.41,0-2.44-1-3.79-1.07A3.66,3.66,0,0,0,33,62c-1,.83-1.74,2-3.12,2a3.82,3.82,0,0,1-3.3-1.69.39.39,0,0,0-.71.3Z"/><path d="M58.45,58.93c.16-.43,1.08-.08,1.33,0a3.5,3.5,0,0,0,2.74.25,15.83,15.83,0,0,1,2.13-1.09A3.53,3.53,0,0,1,65.82,58a2.13,2.13,0,0,0,1.39-.1.71.71,0,0,0,.25-1c-.5-1-2.19-.74-3-.53A5.53,5.53,0,0,0,63,57a6.61,6.61,0,0,1-1.2.77,2.25,2.25,0,0,1-1.34-.22,3.77,3.77,0,0,0-1.33-.24,1.92,1.92,0,0,0-1.91,1.29c-.23.83,1,1.13,1.27.35Z"/></g></g></svg>