<svg xmlns="http://www.w3.org/2000/svg" viewBox="0 0 103.98 97.62"><defs><style>.cls-1{fill:#fff;stroke:#000;stroke-miterlimit:10;stroke-width:3px;}</style></defs><g id="Camada_2" data-name="Camada 2"><g id="Camada_5" data-name="Camada 5"><path class="cls-1" d="M2.1,6.44S39.46-14,91.24,28.36c0,0,34.12,37.82-16.54,67.11,0,0-11.52-27.26-28.27-34.36a17.22,17.22,0,0,0-11.86-.47c-4.69,1.48-14.49,3-25.36-4.45,0,0,.63-3.75-5.78-12.09,0,0-4.66-7.69,1.47-27C4.9,17.09,6.17,13.12,2.1,6.44Z"/><path d="M4.46,6.9c1.71,1.26,3.8,1.77,5.78,2.47s4.21,1.56,6.28,2.44a111.49,111.49,0,0,1,11.59,5.75A106,106,0,0,1,49,33.29,103.15,103.15,0,0,1,59,44.37c.78,1,2.54,0,1.74-1A106.25,106.25,0,0,0,18.75,10.73c-2.27-1-4.58-1.86-6.91-2.66S7.06,6.25,4.57,6.48a.23.23,0,0,0-.11.42Z"/><path d="M59.38,44c.93.64,2.71-.19,3.69-.5,1.46-.47,2.9-1,4.31-1.63a55.45,55.45,0,0,0,7.88-4.08A58.35,58.35,0,0,0,88.9,26c.83-1-.59-2.4-1.41-1.41a57,57,0,0,1-13.2,11.58,62.35,62.35,0,0,1-7.6,4.08c-1.4.62-2.83,1.16-4.27,1.68-.93.34-2.73.61-3.17,1.58a.4.4,0,0,0,.13.52Z"/><path d="M70,73.68A13.75,13.75,0,0,0,72.67,72a31.66,31.66,0,0,1,2.92-1.74l-1.1-.62c.39,3.41,2.34,6.19,4.48,8.76l1.62,1.93c.28.34.56.67.83,1s.74.82.22,1.3a7.62,7.62,0,0,1-1.35.8l-1.42.83L76,86l1.18.48a43.39,43.39,0,0,0-2.92-7.57,40.54,40.54,0,0,0-2-3.6,13.36,13.36,0,0,0-1.12-1.72,5.33,5.33,0,0,0-1.4-1.09.38.38,0,0,0-.55.42,6.3,6.3,0,0,0,.68,1.75c.32.49.67,1,1,1.46.71,1.11,1.38,2.26,2,3.43a39.27,39.27,0,0,1,2.78,7.35.82.82,0,0,0,1.18.48L80,85.54a22.3,22.3,0,0,0,2.85-1.73c1.81-1.48,0-3.33-1.09-4.61-2.43-2.91-5.27-5.82-5.82-9.74A.74.74,0,0,0,74.85,69a30.25,30.25,0,0,0-3,1.91,7.4,7.4,0,0,0-2.28,2.21c-.15.25.1.66.41.53Z"/><path d="M73.15,73.54c-.19.3,0,.52.13.8s.41.75.62,1.12l1.23,2.24c.39.73.75,1.47,1.1,2.22a9.17,9.17,0,0,0,1.15,2.35.57.57,0,0,0,1-.4,6.82,6.82,0,0,0-.95-2.54c-.4-.84-.85-1.65-1.31-2.45a21.22,21.22,0,0,0-1.53-2.25c-.14-.18-1.09-1.58-1.41-1.09Z"/></g></g></svg>