<svg xmlns="http://www.w3.org/2000/svg" viewBox="0 0 83.64 100.59"><defs><style>path{fill:#007fff}.cls-1{fill:#fff;}</style></defs><g id="Camada_2" data-name="Camada 2"><g id="Camada_5" data-name="Camada 5"><path class="cls-1" d="M72.8,97.28A80.65,80.65,0,0,0,76.66,30c-3.54-8.88-8.9-17.32-16.74-22.81S41.5-.37,32.72,3.42C20.74,8.59,15.3,25,21.83,36.32,18.69,34,15.4,31.51,11.52,30.83s-8.47,1-9.71,4.76c-.94,2.81.21,5.86,1.54,8.5,6.71,13.34,18.23,23.68,30.61,32s25.82,15,38.37,23.13"/><path d="M73.69,97.8c12.13-21,13-48.27,3.49-70.37C72.59,16.75,65.05,6.79,54,2.29,44-1.8,31.67-.67,24.2,7.76c-7,7.88-9,20-3.7,29.34L22.61,35c-3.25-2.45-6.73-5-10.84-5.68a11.21,11.21,0,0,0-9.32,2.56c-3,2.78-2.91,7-1.5,10.57A50.85,50.85,0,0,0,7,53C16.63,66.63,30.59,76.29,44.78,84.7c4.4,2.61,8.84,5.13,13.27,7.69s9,5.46,13.62,8A1.31,1.31,0,0,0,73,98.13c-6.78-5-14.49-8.94-21.8-13.18A230.88,230.88,0,0,1,30.38,71.77,99.23,99.23,0,0,1,14,57a68.26,68.26,0,0,1-6.55-8.77C5.56,45.25,3,41.43,3,37.73s3.6-5.53,6.89-5.51c4.24,0,8,3,11.17,5.43,1.3,1,2.81-.87,2.11-2.1-4.27-7.54-3-17.18,2-24.07,6-8.31,16.82-10,26.14-6.9C61.76,8.08,69,17.1,73.62,26.75a77.37,77.37,0,0,1,7.23,32.93,83,83,0,0,1-8.93,37.09,1,1,0,0,0,1.77,1Z"/><path d="M22.23,35.18a11,11,0,0,0,.13,4.23c.24,1.55.48,3.1.74,4.65.52,3.18,1.09,6.36,1.63,9.53a1,1,0,0,0,1.81.24c3.18-5.38,6.58-10.61,10.25-15.65L35,37.69a114.9,114.9,0,0,0,5.58,25.38.94.94,0,0,0,1.11.63c2.54-.58,3.75-2.89,4.67-5.1s1.68-5.31,4.18-6.06l-1.05-.6a54.54,54.54,0,0,0,5.38,16.11c.66,1.26,2.24,5,4.15,3,.9-.93,1.37-2.54,1.94-3.68l2.14-4.29-1.57-.21L63,71.1a73.29,73.29,0,0,0,1.65,8.19c.24.76,1.52.66,1.46-.2a74,74,0,0,0-1.38-8.21l-1.58-8.45a.87.87,0,0,0-1.57-.21c-1.14,2.29-2.26,4.6-3.42,6.88-.38.76-.34.76-.8,0-.24-.37-.44-.77-.65-1.16-.57-1-1.1-2.09-1.6-3.16a50.6,50.6,0,0,1-4-13.34.87.87,0,0,0-1.05-.6c-2.52.73-3.69,3-4.63,5.29S43.76,61.39,41.2,62l1.11.63a112.23,112.23,0,0,1-5.39-24.9,1,1,0,0,0-1.8-.49A180,180,0,0,0,24.83,52.83l1.81.23C26.1,50,25.57,46.88,25,43.79c-.27-1.46-.55-2.92-.83-4.37a11.8,11.8,0,0,0-1.36-4.32.33.33,0,0,0-.59.08Z"/><path d="M26.44,30.55a34.93,34.93,0,0,0,.81,4.66c.35,1.6.67,3.2,1,4.8a.37.37,0,0,0,.62.16c1.21-1.54,2.36-3.13,3.59-4.65s2.39-3.1,3.51-4.68c.44-.63-.6-1.23-1-.61-.57.8-1.09,1.63-1.65,2.44S32.17,34.21,31.65,35c-1,1.62-2.23,3.15-3.36,4.71l.68.09c-.4-1.55-.78-3.1-1.16-4.65a34.77,34.77,0,0,0-1.3-4.62s-.08,0-.07,0Z"/><path d="M36.61,59.51c-.49.74,0,1.9.19,2.7a23,23,0,0,0,.94,2.84,24,24,0,0,0,1.37,2.79c.41.7.88,1.66,1.7,2a1.7,1.7,0,0,0,1.9-.81c.69-.89,1.3-1.84,1.94-2.75l2-2.88a10.41,10.41,0,0,0,1.76-3c0-.21-.2-.44-.39-.3a8.33,8.33,0,0,0-1.85,2.2l-1.67,2.43-1.67,2.42c-.33.47-1.08,2.08-1.82,1.73a2.5,2.5,0,0,1-.82-1q-.37-.58-.72-1.2a21.23,21.23,0,0,1-1.94-4.89c-.2-.75-.17-1.79-.79-2.31a.1.1,0,0,0-.15,0Z"/></g></g></svg>