<svg xmlns="http://www.w3.org/2000/svg" viewBox="0 0 123.98 102.01"><defs><style>path{fill:#007fff}.cls-1{fill:#fff;stroke:#007fff;stroke-miterlimit:10;stroke-width:3px;}</style></defs><g id="Camada_2" data-name="Camada 2"><g id="Camada_5" data-name="Camada 5"><path class="cls-1" d="M13,25.07a17.58,17.58,0,0,0-6.14,7.84C3.42,41.15-3.93,63.61,8.26,81.1c15.21,21.82,31.21,22.82,42.21,14.82C57,91.14,61,70.13,56.25,51.8,53.09,39.46,46,28.33,33.24,24.2,33.24,24.2,22.27,18.62,13,25.07Z"/><path class="cls-1" d="M65.72,9.92S52.82,34.76,84.94,72.35c33.51,39.21,40.53-15.43,36.53-29.43-.09-.32-4.53-26.15-37.25-40.07C84.22,2.85,71-3.08,65.72,9.92Z"/><path class="cls-1" d="M56.25,51.8s3.08-8.54,11.65-6.21l2.57,6.33C59.1,47.8,57.58,58.46,57.58,58.46Z"/><path d="M16.41,32.32c-7.82,8-8.47,21.26-5.88,31.55,2.52,10,8.7,19.73,18.11,24.41a19.27,19.27,0,0,0,8.15,2.39,9.4,9.4,0,0,0,6.84-3.24c3.84-4.1,5.78-10.2,6.58-15.65a48.75,48.75,0,0,0-.89-18.13C48,47.88,45.9,41.81,42.46,37c-3.63-5.11-9.34-8.89-15.75-9C21.3,27.8,14.44,30.84,13,36.48c-.2.79.91,1.6,1.48.86a19.4,19.4,0,0,1,4.88-4.81,13.43,13.43,0,0,1,6.66-2c5.08-.12,9.86,2.59,13.09,6.37,3.53,4.13,5.55,9.64,7,14.8a49,49,0,0,1,1.89,16,34.27,34.27,0,0,1-4.19,15c-1.18,2.06-2.83,4.24-5.18,5s-5.38-.27-7.66-1.28c-8.61-3.77-14.55-12.19-17.38-20.93a41.21,41.21,0,0,1-1.87-16.61,35.22,35.22,0,0,1,5.8-15.8c.42-.65-.53-1.37-1.07-.82Z"/><path d="M75,8.84c-5.93,1.93-7.5,8.34-6.78,14,.82,6.33,3.18,12.63,5.66,18.49A96.56,96.56,0,0,0,83.07,58,80.55,80.55,0,0,0,95.25,72.55c2.18,2,4.89,3.82,7.94,3.9s5.25-1.73,6.84-4.06c3.44-5,5.1-11.46,5.62-17.45a44.3,44.3,0,0,0-11.75-33.5A47.82,47.82,0,0,0,88.31,10.17c-5.2-2.34-12.71-4.62-17.19.33-1.18,1.31.73,3.25,1.94,1.94,3.46-3.71,9.52-1.71,13.47,0a47.4,47.4,0,0,1,13,8.51,41.47,41.47,0,0,1,13.6,28.59A39.7,39.7,0,0,1,110.41,66c-1,2.39-2.17,5.38-4.3,7-2.38,1.78-5.21.71-7.42-.8a37.84,37.84,0,0,1-6.38-6.08c-1.89-2.08-3.69-4.25-5.39-6.49a97.45,97.45,0,0,1-9-14.45,92.72,92.72,0,0,1-6.87-18c-.93-3.5-1.77-7.28-.88-10.88a9.82,9.82,0,0,1,5.19-6.72c.43-.18.13-.9-.32-.75Z"/><path d="M8.05,73.19a22.61,22.61,0,0,0,1,3.3,28.53,28.53,0,0,0,1.29,2.67A33.47,33.47,0,0,0,14,84.56c2.72,3.2,6.23,6.32,10.18,7.87.3.12.46-.34.21-.5a62.36,62.36,0,0,1-5.29-3.53,32.59,32.59,0,0,1-8-9.37c-.52-.91-1-1.85-1.46-2.8s-1-2-1.45-3.08c0-.08-.16-.05-.13,0Z"/><path d="M17.83,83.22a16.28,16.28,0,0,0,2,2.78,22,22,0,0,0,2.65,2.26,20.89,20.89,0,0,0,3,1.81,11.26,11.26,0,0,0,3.36,1.2c.23,0,.44-.3.18-.41-1-.46-2.13-.78-3.16-1.27a19.83,19.83,0,0,1-3-1.7,20.55,20.55,0,0,1-2.65-2.19,27.3,27.3,0,0,1-2.42-2.51s-.06,0,0,0Z"/><path d="M98.55,79.06a6,6,0,0,0,2.66,1.67,8.39,8.39,0,0,0,6.36-.69c.76-.42,2.09-1.22,2.17-2.19a.28.28,0,0,0-.36-.27,3.56,3.56,0,0,0-1.06.88,6.44,6.44,0,0,1-1.12.82,7.27,7.27,0,0,1-2.83.93,7.86,7.86,0,0,1-5.57-1.48c-.19-.14-.41.17-.25.33Z"/><path d="M111.25,74.05a3.19,3.19,0,0,0,2.81-1.47,18.79,18.79,0,0,0,2.21-4.18A36.25,36.25,0,0,0,118,63.47a17.51,17.51,0,0,0,.93-5,.13.13,0,0,0-.26,0c-.54,1.38-.67,2.94-1.1,4.36s-.94,3-1.52,4.4a40.65,40.65,0,0,1-1.88,4.14c-.58,1.06-1.6,2.49-2.87,2.7,0,0,0,0,0,0Z"/><path d="M71.05,39.84a60.21,60.21,0,0,0,2.53,7c.5,1.16,1,2.31,1.58,3.44A13.47,13.47,0,0,0,77,53.55a.21.21,0,0,0,.34-.2,18.09,18.09,0,0,0-1.59-3.21c-.55-1.09-1.08-2.18-1.58-3.29-1-2.32-2-4.68-2.9-7.06,0-.12-.23-.07-.19.05Z"/><path d="M44.39,91.27a2.75,2.75,0,0,0,2.2-1.41,20.87,20.87,0,0,0,1.89-3.44c.57-1.22,1.1-2.46,1.58-3.72a14.65,14.65,0,0,0,1-4.1.18.18,0,0,0-.33-.09A31.32,31.32,0,0,0,49.53,82c-.41,1.21-.83,2.42-1.32,3.6a33.34,33.34,0,0,1-1.57,3.38,5.17,5.17,0,0,1-2.27,2.26s0,.08,0,.08Z"/><path d="M44.09,95.28a11.87,11.87,0,0,0,1.19-.4,10.19,10.19,0,0,0,1.17-.64,11.39,11.39,0,0,0,2.08-1.72,9.13,9.13,0,0,0,2.56-4.61c0-.3-.4-.37-.54-.15-.42.71-.75,1.48-1.17,2.2a12.61,12.61,0,0,1-1.48,2,14,14,0,0,1-1.74,1.7c-.33.26-.66.52-1,.76s-.7.56-1.08.78c0,0,0,.07,0,.06Z"/><path d="M14.59,29.05a23.08,23.08,0,0,0-3,4,31.8,31.8,0,0,0-2.16,4.57A22.92,22.92,0,0,0,7.67,47.66c0,.19.32.26.36.05a48.59,48.59,0,0,1,2.08-9.61,37.13,37.13,0,0,1,4.75-8.84c.12-.16-.14-.36-.27-.21Z"/><path d="M73.15,10.89a4.79,4.79,0,0,0-1.9,1.7,12.28,12.28,0,0,0-1.47,2.53,13.83,13.83,0,0,0-1.16,5.57.5.5,0,0,0,1,0,15,15,0,0,1,1.17-5.16A20.37,20.37,0,0,1,72,13.22a12.56,12.56,0,0,0,1.31-2.16.15.15,0,0,0-.17-.17Z"/><path d="M74.57,6.16a27,27,0,0,1,3.12-.24c.52,0,1,0,1.56,0a3.6,3.6,0,0,0,1.5-.12.2.2,0,0,0,0-.37,3,3,0,0,0-1.55-.31c-.52,0-1,0-1.56,0a26.8,26.8,0,0,0-3.22.32c-.39.06-.3.74.1.69Z"/><path d="M72.22,10a5.59,5.59,0,0,0-1.67,1.58,9.32,9.32,0,0,0-1.24,2.17,10.23,10.23,0,0,0-.66,2.36,8.6,8.6,0,0,0-.15,1.23,1.6,1.6,0,0,0,.08.65,4.35,4.35,0,0,1,.25.63.36.36,0,0,0,.68,0,1.18,1.18,0,0,1,.19-.48,1.79,1.79,0,0,0,.16-.59c0-.38.08-.76.13-1.14a15.48,15.48,0,0,1,.56-2.23,21.7,21.7,0,0,1,.79-2.08c.3-.69.71-1.32,1-2,0-.05,0-.09-.09-.07Z"/><path d="M74.45,10.2a6.71,6.71,0,0,0-1.33,1c-.39.42-.76.87-1.11,1.32a15.81,15.81,0,0,0-1.93,3,13.51,13.51,0,0,0-1,3.22,4.19,4.19,0,0,0,.36,3.28.46.46,0,0,0,.85-.23c.06-1-.22-2-.14-3.1a8,8,0,0,1,1-3,17.56,17.56,0,0,1,1.77-2.66c.33-.43.71-.83,1-1.25a8.74,8.74,0,0,0,.77-1.32c.1-.18-.11-.43-.3-.3Z"/></g></g></svg>