<svg xmlns="http://www.w3.org/2000/svg" viewBox="0 0 138.49 167.27"><defs><style>path{fill:#007fff}.cls-1{fill:#fff;stroke:#007fff;stroke-miterlimit:10;stroke-width:3px;}</style></defs><g id="Camada_2" data-name="Camada 2"><g id="Camada_4" data-name="Camada 4"><path class="cls-1" d="M1.66,138.7c-1.15-.83,4.2-14.09,3.6-20,0,0,42.09-15.86,30.75-54.41,0,0,27-13.33,14-23.26C49.66,40.7,76.66,10.7,81.66,2.7c0,0,18.28,25.55,20.14,33.27L112.59,29s22.47,44.74,24.27,58.21c0,0-46.37,20.81-41.53,20.63,4.33-.16,27.33,3.84,36.33,2.84,0,0-11,37-19,41,0,0-40,28-77,5C35.66,156.7,8.66,143.7,1.66,138.7Z"/><path d="M37.59,66.68A76.45,76.45,0,0,0,45,63.87q3.78-1.51,7.55-3.06c5-2,9.92-4.06,14.87-6.11,9-3.77,18.36-7.19,27-11.74A63.89,63.89,0,0,0,101,39.05c2-1.39,4.25-2.89,5.61-5,.49-.75-.46-1.6-1.19-1.19-1.94,1.09-3.61,2.71-5.44,4a62.36,62.36,0,0,1-5.8,3.54c-4,2.17-8.16,4-12.34,5.73q-14.28,6-28.56,12l-8.18,3.5A87.7,87.7,0,0,0,37,65.3a.76.76,0,0,0,.59,1.38Z"/><path d="M80.44,2.68c.23,1.83.25,3.69.52,5.53s.55,3.86.79,5.79q.69,5.7,1,11.42C83,29.16,83,32.9,83,36.65c0,2,0,3.9-.13,5.85,0,.93,0,1.87-.14,2.79a14.46,14.46,0,0,0-.47,2.32.83.83,0,0,0,1.23.71c1.43-.63,1.4-2.78,1.47-4.11.11-2,.17-4.06.21-6.1.06-4-.06-8-.3-12s-.62-7.95-1.15-11.91c-.24-1.86-.51-3.71-.84-5.56-.17-1-.33-1.92-.55-2.87-.26-1.12-.73-2.15-1-3.25-.13-.48-1-.4-.89.12Z"/><path d="M37,66.73c.77,1.54,2.31,2.66,3.59,3.76s2.81,2.27,4.26,3.35a55.94,55.94,0,0,0,9.48,5.77c7.24,3.37,15.15,4,23,4.91l7,.84c1.78.21,4.28.73,5.45-1a.9.9,0,0,0-.53-1.32,17.55,17.55,0,0,0-3.16,0c-1.23-.07-2.47-.26-3.7-.4l-7.26-.85c-5-.58-10-1-14.86-2.39A44.82,44.82,0,0,1,48.2,73.63c-1.86-1.22-3.66-2.52-5.45-3.83s-3.46-2.91-5.47-3.43a.25.25,0,0,0-.28.36Z"/><path d="M89.72,85.17c9.14-12.52,15.72-27.25,20.14-42.06a96.25,96.25,0,0,0,3.23-13c.24-1.61-2.07-2.35-2.5-.69-1,3.77-1.71,7.59-2.77,11.34s-2.22,7.31-3.53,10.9a161.6,161.6,0,0,1-9.57,21.17C92.63,76.67,90.3,80.4,88,84.16c-.69,1.12,1,2,1.74,1Z"/><path d="M34.91,93a5.32,5.32,0,0,0,2.42,1.46c1.1.45,2.22.83,3.34,1.23,2.24.78,4.48,1.54,6.74,2.26,4.58,1.47,9.21,2.76,13.86,4,9.24,2.39,18.58,4.35,28,6q3.85.67,7.71,1.28a31.37,31.37,0,0,0,8,.61.42.42,0,0,0,.11-.83,31.11,31.11,0,0,0-6.89-1.61q-3.51-.54-7-1.14-7-1.2-14-2.63C68,101.66,58.77,99.43,49.7,96.72,47.13,96,44.57,95.18,42,94.36c-1.2-.39-2.39-.81-3.6-1.19a6.69,6.69,0,0,0-3.4-.58.23.23,0,0,0-.1.39Z"/><path d="M129.61,111.26c-5.05,2.32-10.05,4.72-15.16,6.89s-10.37,4.22-15.62,6.18a326.21,326.21,0,0,1-31.45,10c-6,1.58-12.13,2.87-18.2,4.29-1.65.38-.93,2.79.69,2.5a248.09,248.09,0,0,0,32.39-8.4,297.25,297.25,0,0,0,31.12-11.84c5.75-2.57,11.5-5.21,17-8.25.89-.49.11-1.76-.79-1.35Z"/><path d="M34.87,91.2c-.76.69-.49,1.77-.4,2.69.11,1.1.24,2.2.38,3.29a66.08,66.08,0,0,0,1.22,6.69c1,4.26,2.35,8.43,3.73,12.58s2.76,8.28,3.84,12.51A64.86,64.86,0,0,1,45,135.42c.15,1,.27,2.08.35,3.13a4.76,4.76,0,0,0,.82,2.91,1,1,0,0,0,1.57-.2,4.49,4.49,0,0,0,.37-3.15c-.1-1-.23-2-.38-3a64.67,64.67,0,0,0-1.32-6.45c-1.08-4.23-2.5-8.37-3.9-12.5s-2.82-8.29-3.91-12.53c-.58-2.24-1-4.5-1.42-6.77-.2-1.09-.38-2.17-.58-3.26-.16-.91-.18-2-1.09-2.49a.5.5,0,0,0-.6.08Z"/><path d="M47.11,141.24a5.87,5.87,0,0,0,.84-.13c.25,0,.49-.09.73-.15l.71-.2c.24-.07.48-.18.72-.27a.38.38,0,0,0,.26-.4.37.37,0,0,0-.36-.31c-.25,0-.5,0-.76,0s-.48.05-.72.07a7.37,7.37,0,0,0-.82.13,5.85,5.85,0,0,0-.75.16.57.57,0,0,0-.4.61.56.56,0,0,0,.55.48Z"/><path d="M111.61,88.06A7.87,7.87,0,0,0,114,85.32,3.54,3.54,0,0,1,115.29,84c.8-.34,1.51.16,2.26.39,1.69.52,3.24-.79,4.61-1.59L125,81.16a14.35,14.35,0,0,0,2.74-1.72c.39-.36,0-1.12-.54-.92a14.73,14.73,0,0,0-2.77,1.66l-2.6,1.7A13.31,13.31,0,0,1,119,83.54c-1,.33-1.7-.26-2.63-.42a2.74,2.74,0,0,0-2.67,1.33,20.42,20.42,0,0,1-2.36,3.25c-.19.18.06.48.28.36Z"/><path d="M117.37,88.72a2.57,2.57,0,0,1,.87,0,1.89,1.89,0,0,0,.52-.18l1.26-.55,2.67-1.22a17.07,17.07,0,0,1,2.49-1c.86-.25,1.74-.29,2.57-.6a.33.33,0,0,0,.08-.6,3.28,3.28,0,0,0-2.54-.13,15.71,15.71,0,0,0-2.7,1c-.91.41-1.8.84-2.7,1.26l-1.38.66a2.86,2.86,0,0,0-.66.37c-.23.21-.33.5-.62.66a.18.18,0,0,0,.14.33Z"/></g></g></svg>