<svg xmlns="http://www.w3.org/2000/svg" viewBox="0 0 115.85 104.69"><defs><style>.cls-1{fill:#fff;stroke:#000;stroke-miterlimit:10;stroke-width:3px;}</style></defs><g id="Camada_2" data-name="Camada 2"><g id="Camada_3" data-name="Camada 3"><path class="cls-1" d="M37.38,40.06S15.6,20.7,34.49,24.38s56.28,75.87,63,78.24c6.89,2.44,16.15-3,16.82-15.13A26.22,26.22,0,0,0,107,68.07C96.79,57.37,74.49,33.75,54,10.9c0,0-15.63-22.84-40.3,2.69,0,0-15.27,14.55-7.47,22.86h0s4.44,2,19.29,15.8h0s17.89,12,19.37-.61C44.9,51.64,46.38,46.06,37.38,40.06Z"/><path d="M100.1,97.55c.37-.66.8-1.28,1.2-1.92s.81-1.28,1.25-1.9a33.23,33.23,0,0,1,2.84-3.53,6.32,6.32,0,0,1,1.51-1.41,1.13,1.13,0,0,1,.79-.19c.33.11.37.51.4.8a7,7,0,0,1-.68,3.57,7.68,7.68,0,0,1-1.06,1.79,5.5,5.5,0,0,1-1.72,1.31l.26.07a2.81,2.81,0,0,1,.38-2.58.22.22,0,0,0-.34-.27,2.76,2.76,0,0,0-.39,3,.2.2,0,0,0,.28.12,8.07,8.07,0,0,0,3.28-2.73,6.62,6.62,0,0,0,1-4.2,1.83,1.83,0,0,0-1-1.75,2.12,2.12,0,0,0-1.88.48A8.66,8.66,0,0,0,104.56,90Q103.75,91,103,92.12c-.57.85-1.12,1.72-1.62,2.62-.23.42-.46.85-.68,1.29s-.41,1-.64,1.5c0,0,0,0,0,0Z"/><path d="M58.87,37.09c3.23,4.57,6.46,9.14,9.49,13.85s6.06,9.45,9.42,14a.51.51,0,0,0,.87-.52A113,113,0,0,0,69.16,50.2c-3.38-4.42-6.73-8.83-10.26-13.14,0,0,0,0,0,0Z"/><path d="M77.66,57.56c1.2,2.46,3.14,4.68,4.67,7s3.08,4.68,4.55,7.06,2.82,4.67,4.19,7a60.65,60.65,0,0,0,4.29,7c.16.2.53,0,.43-.25a50.91,50.91,0,0,0-3.89-7c-1.48-2.48-3-4.94-4.51-7.38s-3-4.71-4.62-7-3-4.73-5.06-6.47a0,0,0,0,0,0,0Z"/><path d="M28.92,50c2,1.3,3.85,2.79,6.21,3.36a9.28,9.28,0,0,0,3.19.24c.88-.1,2.29-.32,2.82-1.11a.48.48,0,0,0-.41-.71,5.74,5.74,0,0,0-1.35.48,7,7,0,0,1-1.34.31,8.35,8.35,0,0,1-3-.2,21.3,21.3,0,0,1-6-2.57c-.13-.08-.24.12-.11.2Z"/><path d="M33.05,49c-1.65-.82-3.36-1.44-5-2.36a33.07,33.07,0,0,1-4.78-3.35,30.75,30.75,0,0,1-3.85-4,15.54,15.54,0,0,1-1.7-2.53c-.5-1-.6-2-1-3a.16.16,0,0,0-.31,0c-.43,1.76,1,3.92,2,5.26a27.19,27.19,0,0,0,4.09,4.42,27.68,27.68,0,0,0,4.8,3.38A19,19,0,0,0,33,49.1c.08,0,.15-.1.06-.14Z"/><path d="M41.29,8.09a61.57,61.57,0,0,1,10.54,7.69c3.5,3.17,6.78,6.59,10.31,9.72.14.12.4-.05.27-.21A82.19,82.19,0,0,0,52.28,14.81C49.11,11.93,45.62,9,41.45,7.7a.21.21,0,0,0-.16.39Z"/><path d="M88.08,58.32a70.7,70.7,0,0,0,5.14,5.39c.88.83,1.77,1.65,2.7,2.42a11.56,11.56,0,0,0,2.92,2.11.3.3,0,0,0,.34-.43,13.77,13.77,0,0,0-2.55-2.39c-.93-.83-1.87-1.63-2.79-2.47-1.81-1.65-3.59-3.33-5.32-5.07-.29-.29-.7.14-.44.44Z"/></g></g></svg>