<svg xmlns="http://www.w3.org/2000/svg" viewBox="0 0 152.46 163.71"><defs><style>.cls-1{fill:#fff;stroke:#000;stroke-miterlimit:10;stroke-width:3px;}</style></defs><g id="Camada_2" data-name="Camada 2"><g id="Camada_4" data-name="Camada 4"><path class="cls-1" d="M1.54,51.37C-.4,51.18,61.46,20.49,75.45,18.64c0,0,5-8.85,3-10.85l29-5,9-1.19s41.8,53.13,33.4,119.66L140,125.07l-1.33,4.84S43.42,151.1,36.43,163c0,0,27.08-59.27,5.55-85.21C42,77.74,27.64,54,1.54,51.37Z"/><path d="M121.09,59.1A122.26,122.26,0,0,1,131.61,86a137.45,137.45,0,0,1,3,14,131.93,131.93,0,0,1,1.32,14.45c.13,2.62.19,5.25.17,7.87,0,1.39-.05,2.78-.1,4.17a7.88,7.88,0,0,0,.3,3.71,1,1,0,0,0,1.62,0,6.56,6.56,0,0,0,.6-3.25c0-1.23.07-2.47.08-3.7q0-3.7-.13-7.41a143.61,143.61,0,0,0-1.56-14.33,137.21,137.21,0,0,0-7.31-28.42,115.35,115.35,0,0,0-6.84-15c-.6-1.08-2.26-.11-1.66,1Z"/><path d="M77.69,19c1.81,2.22,4.61,3.77,7,5.4l7.52,5.25c4,2.8,7.77,5.83,11.63,8.81A.93.93,0,1,0,104.92,37c-3.88-3-7.64-6-11.68-8.7l-7.58-5.16c-2.4-1.64-4.89-3.75-7.67-4.67-.32-.1-.48.31-.3.53Z"/><path d="M75.65,19.13a26.8,26.8,0,0,0,2.62,1l1.25.45A4.38,4.38,0,0,0,81,21a.85.85,0,0,0,.75-.43c0,.06,0,0,.05-.06a.48.48,0,0,0,.07-.23c0,.16,0,.12,0-.14a.83.83,0,0,0-.12-.44,1.51,1.51,0,0,0-.91-.58l-1.5-.52a28.87,28.87,0,0,0-3-1,.82.82,0,0,0-.62,1.49Z"/><path d="M75.91,19.52a9.55,9.55,0,0,0,1.71.65c.54.2,1.06.43,1.58.68s1,.54,1.55.82a2.89,2.89,0,0,0,.87.41,8.65,8.65,0,0,0,.89.1c.32,0,.47-.35.34-.6a4.62,4.62,0,0,0-.41-.72,3,3,0,0,0-.89-.68,17.41,17.41,0,0,0-1.61-.82q-.87-.41-1.77-.72a5.69,5.69,0,0,0-1.89-.5.75.75,0,0,0-.37,1.38Z"/><path d="M80.58,20.1c1.19-.73,2.32-1.55,3.48-2.33a3.49,3.49,0,0,1,1.66-.83c.8-.07,1.29.37,2,.66a4.66,4.66,0,0,0,2.74.13c1.25-.22,2.51-.43,3.75-.71,4.7-1.06,9-4.75,14-3.89a.28.28,0,0,0,.21-.52,4.28,4.28,0,0,0-3-.76,12,12,0,0,0-3.27.86,80.17,80.17,0,0,1-7.55,3.15c-1.29.37-2.57.71-3.89,1a4.44,4.44,0,0,1-2.88-.09,7.81,7.81,0,0,0-1.38-.63,2.58,2.58,0,0,0-2.16.56c-1.36.91-2.73,1.85-4,2.85-.33.25,0,.81.34.58Z"/><path d="M88.31,25.79c0,1.4,2.33-.68,2.66-.94.94-.76,1.52-2,2.85-2.09a8.07,8.07,0,0,1,2.94.59c1.58.49,3.49,1.09,4.91-.11.44-.37.69-.88,1.1-1.26a3.77,3.77,0,0,1,2.58-.66c1.72-.08,3.44-.11,5.15-.25a.61.61,0,0,0,0-1.22c-1.57,0-3.15.13-4.72.21a7.15,7.15,0,0,0-3.24.54c-.94.54-1.27,1.79-2.34,2.1a4.9,4.9,0,0,1-2.64-.29C96,22,94.29,21.29,92.72,22a6.46,6.46,0,0,0-2.1,1.93c-.3.33-.66.59-1,.91-.07.08-1,1.12-1.06,1s-.28-.13-.27,0Z"/><path d="M105,39.24c-.76,4.65-1.6,9.28-2.44,13.92a127.73,127.73,0,0,0-2.08,14,36.82,36.82,0,0,0,1.06,12.28,26,26,0,0,0,2.09,5.3c.79,1.48,2,3.77,3.55,4.46.75.32,1.8-.22,1.5-1.16a8.73,8.73,0,0,0-1.41-2.21,22,22,0,0,1-1.47-2.35,23.79,23.79,0,0,1-2-5.28A36.11,36.11,0,0,1,103,66.47c.34-4.42,1.22-8.79,2-13.15s1.46-9,2.1-13.51c.2-1.35-1.85-2-2.08-.57Z"/><path d="M107.84,24.39c-.57.44-.61.76-.74,1.48s-.22,1.15-.32,1.73c-.21,1.31-.38,2.62-.58,3.93q-.57,3.86-1.22,7.71a1.12,1.12,0,0,0,.76,1.32,1.07,1.07,0,0,0,1.32-.75c.38-2.67.73-5.34,1.07-8,.16-1.31.35-2.63.47-3.94.07-.68.12-1.37.16-2.05a1.69,1.69,0,0,0-.43-1.41.35.35,0,0,0-.49,0Z"/><path d="M122.8,59.11c1.41-9,1.62-18.08,2.09-27.14.19-3.64.3-7.59-3-9.94a11.81,11.81,0,0,0-10.25-1.18c-3.62,1.31-6.34,5.24-4.56,9,.58,1.22,2.35.33,2.09-.88-1-4.33,3.53-6.34,7.12-6.09a7.19,7.19,0,0,1,4.83,1.91c1.37,1.5,1.32,3.69,1.24,5.58-.36,9.34-.59,18.83-1.93,28.08-.22,1.54,2.13,2.22,2.37.65Z"/><path d="M107.69,87.79c1.17.21,1.68-.32,2.5-1.17A38.52,38.52,0,0,0,113,83.41a43.43,43.43,0,0,0,4.49-7,58.31,58.31,0,0,0,5.36-17.26c.26-1.59-2.18-2.25-2.41-.67a56.29,56.29,0,0,1-4.85,16.82,43.75,43.75,0,0,1-4.11,6.7c-.83,1.12-1.72,2.21-2.65,3.26-.8.89-1.31,1.35-1.15,2.52,0,0,0,0,0,0Z"/><path d="M104.26,81.49c.1.13.2.24.3.36s0,.05,0,0l.06.13a1.37,1.37,0,0,0,.13.2,6.56,6.56,0,0,0,.64.65,5.72,5.72,0,0,0,1.88,1,9.44,9.44,0,0,0,2,.4,5.71,5.71,0,0,0,2.06-.06.94.94,0,0,0-.25-1.84c-.57,0-1.13.08-1.7,0h-.21s-.23,0-.11,0a2.93,2.93,0,0,1-.41-.07,8.11,8.11,0,0,1-.85-.21c-.55-.17-1.08-.37-1.6-.57a5.83,5.83,0,0,1-.7-.25.79.79,0,0,0-.31-.08c-.18,0,.07,0,0,0s-.27-.15-.4-.23c-.38-.25-.7.27-.45.58Z"/><path d="M106.94,83.62l-.06.3.25-.43a1.37,1.37,0,0,0-.19.23,1.14,1.14,0,0,0-.13.51c0,.07,0,.14,0,.21s0,.3,0,.45v.87a1,1,0,0,0,1,1,1,1,0,0,0,1-1v-.87c0-.14,0-.28,0-.42a1.55,1.55,0,0,0,0-.22,1.21,1.21,0,0,0-.09-.41,1.12,1.12,0,0,0-.23-.35l.25.43-.06-.3a.9.9,0,0,0-1.74,0Z"/><path d="M107.49,85.39l0-.16,0,.11.13-.1a.63.63,0,0,0,.19-.4.79.79,0,0,0-.08-.45l-.2-.47.07.18c0-.09,0-.19-.07-.28l0,.22a1.34,1.34,0,0,0-.14-.53,1.37,1.37,0,0,0-.16-.32,3.46,3.46,0,0,0-.22-.31l-.18-.13a.57.57,0,0,0-.31-.1.85.85,0,0,0-.54.1.87.87,0,0,0-.39,1,1.88,1.88,0,0,0,.71,1l-.17-.13a2,2,0,0,1,.19.22l-.11-.15.28.42a.73.73,0,0,0,.79.32l.13,0-.11,0,.1.13a.09.09,0,0,0,.14-.08Z"/><path d="M103.25,78.77A9.74,9.74,0,0,0,107.57,75h-1.14c.63,1.45,1.28,2.91,1.92,4.36a.64.64,0,0,0,.89.23,13.31,13.31,0,0,0,3.53-4.35l-1.31-.35a3.67,3.67,0,0,0,.7,2.41c.45.65,1.22,1.51,2.09,1.27a.61.61,0,0,0,.42-.74c-.24-.58-.83-.82-1.21-1.31a3.12,3.12,0,0,1-.6-1.63.7.7,0,0,0-1.37-.19,7.9,7.9,0,0,1-2.91,3.77l.89.24c-.63-1.46-1.26-2.93-1.9-4.38-.21-.49-.9-.38-1.14,0a12,12,0,0,1-3.62,3.41c-.5.34-.2,1.3.44,1Z"/><path d="M103.94,38.28l0,0q0,.08,0,0L104,38a.9.9,0,0,0-.08.23.65.65,0,0,0,0,.31,1.18,1.18,0,0,0,.11.19,3.07,3.07,0,0,0,.27.36l-.11-.13a4.73,4.73,0,0,1,.61,1l-.07-.16c0,.09.07.18.12.27a.83.83,0,0,0,.08.12.65.65,0,0,0,1.11,0,.79.79,0,0,0,.06-.5,2.82,2.82,0,0,0-.51-1.08c-.13-.18-.26-.35-.4-.52a1.71,1.71,0,0,0-.2-.18,1.49,1.49,0,0,0-.2-.15.57.57,0,0,0-.49-.07l.15,0h0l0,0a.47.47,0,0,0-.58.57Z"/><path d="M107,36.21c.86-2.56,1.45-5.2,2.32-7.76A25.89,25.89,0,0,1,110.66,25a6.16,6.16,0,0,1,2-2.24.49.49,0,0,0-.25-.91c-2.57-.25-3.55,3.49-4.15,5.35a27.83,27.83,0,0,0-1.65,8.93.22.22,0,0,0,.43.06Z"/><path d="M26,48.81A12.6,12.6,0,0,0,29.59,55a.49.49,0,0,0,.82-.48,10.28,10.28,0,0,1-.49-4c0-.34,0-.72.41-.73.16,0,.7.45.86.56l1.9,1.22a.55.55,0,0,0,.74-.2,3.27,3.27,0,0,0,.39-1.9c0-.54-.13-1.21.51-1.51a2.05,2.05,0,0,1,1.35.2c1.17.44,2.4,1.26,3.69.68a1.86,1.86,0,0,0,1-1.26,2.59,2.59,0,0,1,1.39-2,16.71,16.71,0,0,1,2.59-1,21.9,21.9,0,0,0,2.75-1.25c.34-.17.08-.62-.24-.57a18.49,18.49,0,0,0-5.74,1.67A3.84,3.84,0,0,0,40,45.79c-.47.77-.24,2-1.43,1.92-1.46-.13-2.72-1.44-4.26-.9a1.9,1.9,0,0,0-1.19,1.32c-.23.86.22,1.85-.26,2.65l.74-.2a23.43,23.43,0,0,0-3.05-1.89,1.09,1.09,0,0,0-1.41.32,4.73,4.73,0,0,0-.3,2.42,11,11,0,0,0,.59,3.31l.82-.48a11.47,11.47,0,0,1-2.15-2.75c-.55-.95-.94-2-1.57-2.92a.29.29,0,0,0-.53.22Z"/><path d="M53.81,40.38c-.16-1.06,2-.69,2.5-.8a1.88,1.88,0,0,0,1.08-.6A3.84,3.84,0,0,0,58,37.79c.29-.72.26-1,1.39-1a6,6,0,0,1,.82.12,6.92,6.92,0,0,0,3.44-.23c1.25-.5,1.4-1.43,2.14-2.41s2.4-.72,3.55-.8a4.54,4.54,0,0,0,3-1.19c.47-.45.84-1,1.31-1.42a4.2,4.2,0,0,1,2.21-1,45.18,45.18,0,0,0,5.7-1.52c.34-.12.32-.7-.09-.67a40,40,0,0,0-6,.9,6.36,6.36,0,0,0-3.65,2.19c-1.27,1.36-2.52,1.25-4.24,1.39a3.56,3.56,0,0,0-2.82,1.25c-.49.67-.55,1.49-1.32,2a4.08,4.08,0,0,1-2.21.39c-1.2,0-2.73-.65-3.63.44A3.78,3.78,0,0,0,57,37.52c-.48,1.37-1.25,1.08-2.4,1.27-.94.17-1.74.77-1.55,1.8.09.49.81.27.73-.21Z"/><path d="M35.68,59.07s.29,1.34.31,1.45a3,3,0,0,0,.37,1.08,1.53,1.53,0,0,0,2,.55A2.69,2.69,0,0,0,39.65,60c.07-.48.08-1.74.74-1.89.44-.1,1,.59,1.37.72a2.26,2.26,0,0,0,2.38-1.07,4.16,4.16,0,0,1,3-2,6.89,6.89,0,0,0,3.09-1.1,15.15,15.15,0,0,0,3.25-2.41.34.34,0,0,0-.33-.57,15.14,15.14,0,0,0-3.56,1.87,5.81,5.81,0,0,1-1.69.84c-.6.14-1.23.11-1.83.27a4.62,4.62,0,0,0-2.52,1.72c-.4.53-.87,1.58-1.69,1.11-.37-.22-.56-.54-1-.64a2,2,0,0,0-2,1.12,4.46,4.46,0,0,0-.37,1.58c0,.36-.41,2.36-1.21,1.45-.52-.6-.23-1.7-.76-2.36-.37-.47-1.2-.67-1.49,0-.17.38.31.87.64.49Z"/><path d="M59.19,49.72c1.18-1.53,3.61-.78,4.92-2.31.33-.37.5-.94.86-1.28.53-.49,1.36-.37,2-.45a13.62,13.62,0,0,0,3.5-1.23c2.56-1.11,5.08-2.33,7.57-3.59s5.17-2.32,7.11-4.16a.46.46,0,0,0-.44-.76c-2.7.6-5.25,2.37-7.7,3.63-2.69,1.39-5.4,2.75-8.16,4a8.5,8.5,0,0,1-2.35.76,6,6,0,0,0-1.47.24c-1,.36-1.2,1.11-1.75,1.91-1,1.52-3.36,1.47-4.38,3.09-.11.18.15.32.27.16Z"/><path d="M45.07,68.54a19.88,19.88,0,0,1,2.57-2.09,8.71,8.71,0,0,1,3.56-.82,4.36,4.36,0,0,0,2.55-1.1,20.51,20.51,0,0,1,3.42-2.27C59.55,61,62,59.94,64.45,58.78c1.2-.57,2.41-1.09,3.61-1.64A9,9,0,0,0,71.42,55c.29-.35,0-1-.49-.84a25.21,25.21,0,0,0-3.35,1.72c-1.31.67-2.64,1.3-4,1.9C61,58.93,58.37,60,55.9,61.4a20.72,20.72,0,0,0-3,2.06c-1.14.93-2.33.72-3.69,1-1.85.39-4.22,1.67-4.78,3.6-.09.32.31.7.61.47Z"/><path d="M75.58,53.2c1.35.34,2.08-.89,2.94-1.69.7-.65,1.43-.37,2.28-.63a5.15,5.15,0,0,0,1.92-1.52c1.36-1.33,3.52-1,5.14-1.85s2.75-2.15,4.41-2.82a.36.36,0,0,0,0-.69c-1.66-.53-3,.88-4.21,1.76a6.1,6.1,0,0,1-2.37,1.05,12.07,12.07,0,0,0-2.59.69,6.27,6.27,0,0,0-1.84,1.56,1.9,1.9,0,0,1-1.17.73,6.49,6.49,0,0,0-1.25.17,3.67,3.67,0,0,0-1.49,1.18c-.36.41-.86,1.22-1.5,1.08s-.91.82-.27,1Z"/><path d="M51.14,75.43c1.78-.6,3.39-1.63,5.18-2.25a15.09,15.09,0,0,1,2.74-.7A11.29,11.29,0,0,0,61.78,72c1.47-.58,2.45-1.92,3.74-2.77a28.86,28.86,0,0,1,4.76-2,.22.22,0,0,0,0-.4,7.2,7.2,0,0,0-4.42,1.07,11.58,11.58,0,0,0-2,1.4A9.4,9.4,0,0,1,61.44,71a14.26,14.26,0,0,1-2.91.56,14.3,14.3,0,0,0-2.79.79A19,19,0,0,0,50.88,75c-.21.16,0,.52.26.44Z"/><path d="M78.83,62.73a18.9,18.9,0,0,0,2.92-1.89c1.2-.69,2.57-.72,3.82-1.26,2-.89,3.41-2.72,5.32-3.79,1.16-.65,2.48-.65,3.68-1.16a8.21,8.21,0,0,0,2.49-1.81,13.87,13.87,0,0,1,3-2.49c1.24-.66,2.63-.69,3.86-1.3.32-.16.19-.58-.09-.69-2.16-.84-5,1-6.51,2.37a16,16,0,0,1-2.94,2.57c-1.24.68-2.72.67-4,1.38-2.14,1.21-3.59,3.48-6,4.25-2.15.7-4.74,1.4-5.69,3.75,0,0,0,.08.07.07Z"/><path d="M54.12,85.6c.52-.1.85-.6,1.25-.91a2.58,2.58,0,0,1,1-.36c.41-.09.81-.16,1.21-.28a19.08,19.08,0,0,0,2.32-.88c.72-.32,1.69-.67,1.94-1.49a.31.31,0,0,0-.22-.39c-.8-.14-1.53.42-2.21.76a21.2,21.2,0,0,1-2.26,1,5.36,5.36,0,0,0-2,1c-.45.45-.48,1.37-1.13,1.56a0,0,0,0,0,0,.08Z"/><path d="M66.07,80.13a4.1,4.1,0,0,1,2.06-1.07c.42-.06.84,0,1.26,0a2.76,2.76,0,0,0,1.19-.37,5.77,5.77,0,0,0,1.4-1.3,7,7,0,0,1,.66-.68,3.88,3.88,0,0,1,.62-.52c.31-.18.29-.76-.11-.82a2.07,2.07,0,0,0-1.94.75,8.81,8.81,0,0,1-1.32,1.4,2.26,2.26,0,0,1-1,.32,5.75,5.75,0,0,0-1.36.33,3.75,3.75,0,0,0-1.87,1.6.3.3,0,0,0,.46.36Z"/><path d="M80.75,72.89a.93.93,0,0,0,1.3.47c.61-.27,1-.91,1.58-1.3a6.93,6.93,0,0,1,1.77-.92,6.17,6.17,0,0,1,1-.28,2.83,2.83,0,0,0,.5-.13c.18-.08.3-.18.49-.25s.27-.44,0-.49a2.92,2.92,0,0,0-.87-.17,4.1,4.1,0,0,0-.92.21,6.71,6.71,0,0,0-1.71.81A7.12,7.12,0,0,0,82.52,72c-.21.24-1,1.39-1.34.69-.12-.23-.52-.07-.43.18Z"/><path d="M93.67,67.13a32.92,32.92,0,0,0,3.65-2L99.05,64a4.29,4.29,0,0,0,.87-.65,2.11,2.11,0,0,0,.53-.83c0-.19-.06-.44-.27-.47a2.66,2.66,0,0,0-1.86.71L96.58,64a33.47,33.47,0,0,0-3.19,2.75c-.21.19,0,.48.28.37Z"/><path d="M59.79,97.48a2.67,2.67,0,0,1,1.31-1.92,2.6,2.6,0,0,1,2.32,0c1.56.57,2.82-.18,3.85-1.35.55-.62.92-1.25,1.79-1.41s1.92-.3,2.87-.52a21.61,21.61,0,0,0,2.72-.78,14.63,14.63,0,0,0,2.6-1.43.31.31,0,0,0-.24-.56c-1.06.31-2.15.46-3.21.79s-2.12.65-3.21.88a12.46,12.46,0,0,0-2.64.59,6.24,6.24,0,0,0-1.75,1.76,2.18,2.18,0,0,1-2.61.84,3.57,3.57,0,0,0-2.26-.15,3.39,3.39,0,0,0-2.49,3.08.49.49,0,0,0,.95.13Z"/><path d="M80.89,87.78c1.1.52,2.12,0,3-.72a3,3,0,0,1,1.73-.7,8,8,0,0,0,2-.25,20.37,20.37,0,0,0,3.67-1.78c1.22-.68,2.76-1.27,3.63-2.4a.4.4,0,0,0-.34-.6,9.4,9.4,0,0,0-3.53,1.56,25.7,25.7,0,0,1-3.46,1.78,7.51,7.51,0,0,1-1.75.39,4.59,4.59,0,0,0-1.6.35c-1,.47-1.86,2-3.06,1.6-.44-.16-.76.57-.32.77Z"/><path d="M100,79.71h.17l-.26-.11a.65.65,0,0,0,.44.2h.15l-.16,0h.05a.78.78,0,0,0,.34,0l.12,0a1.9,1.9,0,0,0,.4-.14l.23-.12a1.25,1.25,0,0,0,.3-.26.51.51,0,0,0,.14-.51v0l-.09.36v0a.36.36,0,0,0,.08-.39.36.36,0,0,0-.33-.22h0l.32.18v0a.53.53,0,0,0-.46-.26,1.21,1.21,0,0,0-.38,0l-.26.07a2.21,2.21,0,0,0-.35.16l-.13.07a.77.77,0,0,0-.28.26l.1-.12a1.09,1.09,0,0,1-.11.1.54.54,0,0,0-.18.36l.1-.16-.13.11a.32.32,0,0,0,.22.54Z"/><path d="M60.43,108.35c1.25,1.13,3,.28,4.2-.57a19.86,19.86,0,0,1,2.31-1.66c1-.55,1.92-.27,3-.27,1.76,0,3.24-1.48,4.74-2.24,1.85-.93,3.87-1.34,5.76-2.18.32-.15.11-.57-.17-.6a10.25,10.25,0,0,0-5.11,1.1,19.37,19.37,0,0,0-2.49,1.26,6.56,6.56,0,0,1-2.51,1.3c-.83.09-1.64-.2-2.48,0a5.44,5.44,0,0,0-2.22,1.06c-.69.5-1.31,1.08-2,1.55a5.86,5.86,0,0,1-2.9.94.21.21,0,0,0-.14.35Z"/><path d="M85.82,98.83a1.9,1.9,0,0,0,2.05-.26c1.07-.84,1.35-1.93,2.86-2.22,2.49-.49,4.94-.62,7.3-1.65a12.16,12.16,0,0,0,2.84-1.9,9.57,9.57,0,0,1,3-1.73c1.87-.67,3.85-1.2,5.1-2.86.68-.91-.76-1.94-1.53-1.18-1.36,1.32-3.06,1.78-4.76,2.52a9,9,0,0,0-2.16,1.25,21.54,21.54,0,0,1-2.75,2.38A19.61,19.61,0,0,1,91.1,95a4.76,4.76,0,0,0-2.53,1c-.83.75-1.28,2.26-2.59,2.22a.31.31,0,0,0-.16.58Z"/><path d="M118.05,42c.78,1.47-.08,3.7-.38,5.24-.34,1.78-.67,3.58-1,5.37-.66,3.48-1.42,6.92-1.75,10.45,0,.26.37.29.45.06a95.08,95.08,0,0,0,2.54-11.69q.53-2.89,1-5.81c.22-1.34.45-2.73-.33-3.93a.3.3,0,0,0-.52.31Z"/><path d="M105.34,68c.12-2.72.42-5.41.74-8.11s.59-5.54,1.1-8.29c0-.25-.31-.35-.37-.11a69.84,69.84,0,0,0-1.57,8.08,81.88,81.88,0,0,0-.4,8.43.25.25,0,0,0,.5,0Z"/><path d="M111.91,26.73a10.59,10.59,0,0,0,5,2c1.45.08,3.18-.38,3.75-1.84.07-.17-.17-.36-.33-.25a5.41,5.41,0,0,1-3.6,1.19,12,12,0,0,1-4.44-1.7.37.37,0,0,0-.38.64Z"/><path d="M115.09,29.67a3.49,3.49,0,0,0,2,.55,2.55,2.55,0,0,0,1.05-.27,2.58,2.58,0,0,0,.84-.7c.09-.12,0-.32-.17-.22a4.19,4.19,0,0,1-.83.39,7.69,7.69,0,0,1-.93.29,5.72,5.72,0,0,1-.92.08,2.17,2.17,0,0,1-1-.21c-.06,0-.11.06,0,.09Z"/><path d="M112.88,56.92q-.73,4.17-1.57,8.33c-.57,2.78-1.27,5.53-1.78,8.32a.23.23,0,0,0,.45.13,54.13,54.13,0,0,0,2-8.43,72.91,72.91,0,0,0,1-8.34s-.07,0-.07,0Z"/><path d="M109.78,85.58l.18-.13.19-.16.08-.08.16-.16.08-.08a.61.61,0,0,0,.15-.26.55.55,0,0,0,0-.18.36.36,0,0,0,0-.21.39.39,0,0,0-.11-.17.57.57,0,0,0-.38-.16.65.65,0,0,0-.19,0,.63.63,0,0,0-.26.16.6.6,0,0,0-.08.08l-.16.16-.08.08-.16.18-.13.18,0,.13a.5.5,0,0,0,0,.21.2.2,0,0,0,0,.13.34.34,0,0,0,.11.17.62.62,0,0,0,.23.14.41.41,0,0,0,.22,0,.33.33,0,0,0,.19-.06Z"/><path d="M109.1,85.49a.22.22,0,0,0,0-.08v.14a2,2,0,0,1,.11-.42l-.06.14a3,3,0,0,1,.39-.67l-.1.13.11-.13a1,1,0,0,0,.17-.24.83.83,0,0,1,.08-.12.79.79,0,0,0,.08-.3.57.57,0,0,0-.08-.28l0,.12a.5.5,0,0,0-.13-.22.57.57,0,0,0-.55-.14,1.61,1.61,0,0,0-.36.15,1.29,1.29,0,0,0-.38.39,1.38,1.38,0,0,0-.14.24,2,2,0,0,0-.15,1.42.49.49,0,0,0,.54.35.44.44,0,0,0,.28-.14.54.54,0,0,0,.14-.34Z"/><path d="M100.26,32.51a4,4,0,0,1,.49,0,1.38,1.38,0,0,0,.32.07,5.65,5.65,0,0,0,.91-.11,10.35,10.35,0,0,0,1.8-.54,11,11,0,0,0,1.63-.77,7.8,7.8,0,0,0,.77-.5,3.76,3.76,0,0,0,.64-.68c.12-.13,0-.36-.2-.26s-.52.23-.76.39-.49.31-.74.45a8.93,8.93,0,0,1-1.58.7,10.47,10.47,0,0,1-1.68.37c-.28,0-.58,0-.86.09l-.31.11a2,2,0,0,1-.43,0,.31.31,0,0,0,0,.61Z"/><path d="M123.83,45.22l.1.09,0-.11a.36.36,0,0,0,.15.37l.19.12a2.35,2.35,0,0,0,.46.21,2.31,2.31,0,0,0,1,.16,2.17,2.17,0,0,0,1.77-.85.27.27,0,0,0-.37-.38,4.08,4.08,0,0,1-1.44.42,2.89,2.89,0,0,1-.73,0,1.82,1.82,0,0,1-.4-.11l-.14-.06a.42.42,0,0,0-.39,0h.16L124,45c-.14-.1-.31.12-.18.23Z"/><path d="M122.84,56.17c1.52-.48,3-.92,4.54-1.46a27.15,27.15,0,0,0,4.34-1.7.15.15,0,0,0-.11-.27,28.31,28.31,0,0,0-4.46,1.45c-1.48.54-2.92,1.15-4.38,1.74-.15.06-.09.29.07.24Z"/><path d="M124.24,64.13c.34-.93,1.42-1.2,2.3-1.31,1.19-.16,2.41-.15,3.6-.19a6.3,6.3,0,0,0,2.85-.57c.58-.32,1.54-1.38.82-2a.36.36,0,0,0-.51,0c-.23.28-.21.65-.48.91a2.54,2.54,0,0,1-1.1.52,18.5,18.5,0,0,1-3.57.28c-1.57.08-4.1.25-4.38,2.25a.24.24,0,0,0,.47.13Z"/><path d="M128.82,74.87a2.35,2.35,0,0,0,.79.19,4.3,4.3,0,0,0,.95.06,10.45,10.45,0,0,0,2.08-.31,13.81,13.81,0,0,0,1.94-.65A3,3,0,0,0,136.25,73a.23.23,0,0,0-.2-.35,1.94,1.94,0,0,0-.92.18l-.83.35a17.92,17.92,0,0,1-1.87.64c-.61.19-1.24.32-1.85.47-.3.08-.6.12-.88.22a4.37,4.37,0,0,0-.88.31,0,0,0,0,0,0,.05Z"/><path d="M132.44,87.15a2.83,2.83,0,0,1,.27,1.8.44.44,0,0,0,.79.34,5.63,5.63,0,0,1,2.35-2.08l-.79-.46c-.12,1.53,1.58,2.13,2.84,2a8.56,8.56,0,0,0,2.3-.68,5.31,5.31,0,0,1,2.59-.23c.14,0,.29-.08.24-.24-.57-1.76-3-.7-4.1-.25-.7.27-2.88.66-2.82-.64a.53.53,0,0,0-.79-.45,5.92,5.92,0,0,0-2.57,2.55l.8.33a1.92,1.92,0,0,0-.81-2.26c-.15-.06-.36,0-.3.23Z"/><path d="M135.8,102.06c.15,0,.24.07.38.11a1.58,1.58,0,0,0,.38,0c.22,0,.43,0,.65,0,.48,0,1-.09,1.45-.16l1.41-.2a3.29,3.29,0,0,0,.64-.11c.24-.09.47-.21.71-.31a.37.37,0,0,0-.1-.73l-.76-.09a3.33,3.33,0,0,0-.7.07l-1.4.21c-.47.07-.94.16-1.39.26-.22,0-.43.09-.64.15a1.92,1.92,0,0,0-.31.11c-.14.08-.22.2-.38.24a.23.23,0,0,0,.06.45Z"/></g></g></svg>