<svg xmlns="http://www.w3.org/2000/svg" viewBox="0 0 155.94 129.97"><defs><style>.cls-1{fill:#fff;stroke:#000;stroke-miterlimit:10;stroke-width:3px;}</style></defs><g id="Camada_2" data-name="Camada 2"><g id="Camada_5" data-name="Camada 5"><path d="M78,12.85c2,1.72,4.48,2.84,6.63,4.3a73.37,73.37,0,0,1,6.64,5.13,114.17,114.17,0,0,1,11.58,11.8c3.53,4.06,6.85,8.29,10.16,12.53a108,108,0,0,0,10.29,11.91c4.06,3.87,8.87,7.34,14.37,8.78a.94.94,0,0,0,.5-1.81C128.05,62,121.23,54,114.86,45.82c-6.66-8.52-13.37-17-21.62-24.1a75.33,75.33,0,0,0-7-5.34c-2.37-1.59-5.07-3.59-7.9-4.16-.34-.06-.67.36-.37.63Z"/><path class="cls-1" d="M130.89,61.75S123.83,29.88,109.54,7c0,0-8.2,3.67-9.25-4.09L85,15.84,65,7,3.52,54.06a64.26,64.26,0,0,1,12.94,4.29l-12.94,13s27.73,53.77,85.73,56.77l5-6s9,8,19.52,6c0,0,26.87-25.24,40.67-52.62,0,0,.26-6.47-14.47-8.93C140,66.6,133.53,66.35,130.89,61.75Z"/><path d="M14.1,57.59A59,59,0,0,1,32.23,69a175.54,175.54,0,0,1,14.9,16,195.9,195.9,0,0,0,15.48,16.59,131.17,131.17,0,0,0,19,14.56,127.3,127.3,0,0,0,11.91,6.65q3,1.48,6.11,2.81a20.36,20.36,0,0,0,6.16,1.93c.59,0,.66-.72.27-1a27.3,27.3,0,0,0-5.42-2.67q-2.79-1.2-5.54-2.53-5.38-2.61-10.51-5.72A128.7,128.7,0,0,1,65.11,101.1C54,91.1,45.53,78.62,34.52,68.53c-5.77-5.3-12.43-10.08-20.08-12.18-.82-.22-1.09.94-.34,1.24Z"/><path d="M24.49,50.71c1.06.52,1.73-.42,2.19-1.28A4.51,4.51,0,0,1,28,47.63a9.84,9.84,0,0,1,2.2-1.1,8.18,8.18,0,0,0,3.35-2.08c.55-.66.87-1.51,1.47-2.12.84-.86,2-.85,3.09-1.11,2.85-.68,4.62-3,6.28-5.27a20.36,20.36,0,0,1,3-3.5c1.42-1.21,3.15-1.4,4.76-2.23,2-1,3.5-3.08,5-4.7l2.64-2.81a19.26,19.26,0,0,0,2.51-2.84c.32-.53-.34-1.26-.88-.88A30.76,30.76,0,0,0,57,23.43c-1.44,1.54-2.81,3.23-4.4,4.62s-3.37,1.42-5,2.38a11.71,11.71,0,0,0-2.92,2.65C43,35.21,41.56,38,39.08,39.35c-1.39.77-3.12.59-4.43,1.52s-1.69,2.71-3,3.65-2.78,1.17-4,2A4.44,4.44,0,0,0,26.2,48c-.3.51-.67,2.25-1.44,2.14-.35-.05-.65.44-.27.62Z"/><path d="M32.3,54.21a47,47,0,0,1,6.9-4.67L43,47.14c.62-.39,1.25-.77,1.86-1.18a3.63,3.63,0,0,0,1.47-1.41c.13-.3-.19-.58-.46-.6a3.75,3.75,0,0,0-1.9.77L42,46,38,48.52c-2.26,1.43-4.87,2.83-6.28,5.21a.4.4,0,0,0,.62.48Z"/><path d="M44.23,65.7a4.78,4.78,0,0,0,1.18-1.93c.38-.81.74-1.63,1.11-2.44.29-.65.63-2,1.43-2.17a3.91,3.91,0,0,1,1.57.3,2.29,2.29,0,0,0,2.13-.21c.33-.3.3-.53.35-1,.08-.89.2-1.79.3-2.68l-.85.35a4.07,4.07,0,0,0,6.52-2c.07-.35.08-.71.12-1.07.09-.87.42-1.17,1.26-1.28a3,3,0,0,0,1.84-.83,3.24,3.24,0,0,0,.55-3.88l-.58,1A9.63,9.63,0,0,0,66,46.6c1.24-.72,2.83-2,3.22-3.42a.59.59,0,0,0-1-.57c-1,.91-1.71,2-3,2.78a8.18,8.18,0,0,1-4.07,1.14.68.68,0,0,0-.59,1,1.83,1.83,0,0,1-.06,2c-.43.67-1,.73-1.69.83a2,2,0,0,0-1.88,1.73c-.25,1.21,0,2.27-1.18,3.09a3,3,0,0,1-3.61.09.5.5,0,0,0-.85.35,12,12,0,0,1-.23,2.24c-.32,1-.9.63-1.64.38a3,3,0,0,0-2.35-.14c-1,.52-1.41,2.07-1.85,3.05-.55,1.24-1.68,3-1.59,4.33a.35.35,0,0,0,.59.24Z"/><path d="M75.45,37.72c-.17-.59.4-1,.89-1.21a7.79,7.79,0,0,1,1.74-.27,3.36,3.36,0,0,0,2.67-1.92A7.06,7.06,0,0,1,83,31.81,7.2,7.2,0,0,1,84.48,31a3.12,3.12,0,0,0,1.45-.76.49.49,0,0,0-.17-.66,2.32,2.32,0,0,0-1.87.16,8.12,8.12,0,0,0-1.73,1,8.66,8.66,0,0,0-2.51,2.94A2.11,2.11,0,0,1,78.23,35c-.62.17-1.28.18-1.89.38-1,.34-2.18,1.4-1.7,2.59.2.49,1,.31.81-.23Z"/><path d="M49.86,70.67c-.8-2.18,2.29-3.16,3.66-4.08,1.17-.78,2.24-1.89,2-3.4l-1,.55a4.25,4.25,0,0,0,3.94,0,4.21,4.21,0,0,0,1.54-1.33c.55-.78.52-1.74,1-2.55.78-1.41,2.93-1.41,4-2.52s1.44-2.52.4-3.64L64.76,55a7.63,7.63,0,0,0,5.86-.83.23.23,0,0,0-.12-.42,31.84,31.84,0,0,1-5.35-.15.73.73,0,0,0-.71,1.21c1,1.1-1.36,2.23-2.06,2.52A5.18,5.18,0,0,0,60,58.93c-.66,1-.49,2.3-1.41,3.14a3,3,0,0,1-3.3.56.66.66,0,0,0-1,.73c.32,1.92-2.6,2.83-3.73,3.84s-1.93,2.28-1.27,3.7c.14.31.67.09.56-.23Z"/><path d="M74.87,48.91c.2-.16.51-.18.73-.35.37-.27.7-.58,1.05-.87.67-.55,1.34-1.08,2-1.65l4-3.53c1.24-1.08,2.46-2.18,3.73-3.21s2.78-1.81,3.94-2.93a.68.68,0,0,0-.65-1.13,11.55,11.55,0,0,0-4,2.55c-1.33,1.1-2.59,2.28-3.86,3.44l-4,3.59c-.67.61-1.32,1.25-2,1.88l-1,.93c-.25.25-.31.55-.52.77s.15.78.5.51Z"/><path d="M54.53,77.3a3.71,3.71,0,0,1,3-4.11c1.66-.18,3,0,4-1.63.87-1.47,1-3,2.68-3.92a29.67,29.67,0,0,1,4.47-1.49,7.72,7.72,0,0,0,3.6-2.33,21.83,21.83,0,0,0,2.23-3.94A8.21,8.21,0,0,1,75.72,58a6.13,6.13,0,0,1,2.42-1.43c1.8-.75,2.55-2.4,3.71-3.84a28.61,28.61,0,0,1,5-4.72c.94-.73,1.91-1.41,2.89-2.09A8.29,8.29,0,0,0,92.08,44c.3-.45-.2-.95-.66-.85a7.4,7.4,0,0,0-2.49,1.4c-.89.63-1.77,1.27-2.62,1.93a40.38,40.38,0,0,0-4.74,4.22c-1.35,1.42-2.39,3.63-4.25,4.39a7.09,7.09,0,0,0-3.67,2.86c-.89,1.39-1.41,3-2.33,4.38A7.2,7.2,0,0,1,67,65a13,13,0,0,0-4.33,1.79c-1.3,1-1.6,2.36-2.29,3.75s-1.77,1.14-3,1.36a4.24,4.24,0,0,0-2.07,1A4.09,4.09,0,0,0,54,77.37c.09.25.53.23.49-.07Z"/><path d="M95,22.49c.11-.12.26-.14.39-.26a1.63,1.63,0,0,0,.21-.34l.43-.8a4.12,4.12,0,0,1,1-1.35,2.68,2.68,0,0,1,1.71-.39,3.36,3.36,0,0,0,1.74-.54,10.83,10.83,0,0,0,2.07-2.15,4.51,4.51,0,0,1,.88-.83,1.24,1.24,0,0,1,.38-.15,1.15,1.15,0,0,0,.84-.43.7.7,0,0,0,0-.71c-.36-.67-1.27-.46-1.83-.19a4,4,0,0,0-1.15.93,13,13,0,0,1-2,2.24,3.49,3.49,0,0,1-1.79.36A3.38,3.38,0,0,0,96,18.7a4.82,4.82,0,0,0-1.11,1.57,4.92,4.92,0,0,0-.38,1,3.29,3.29,0,0,0-.1.53c0,.2.14.31.16.49s.26.34.42.17Z"/><path d="M99.88,28.94a2.68,2.68,0,0,1,.63-2,2.46,2.46,0,0,1,.75-.61A4.06,4.06,0,0,1,102,26a11,11,0,0,0,3.6-1.41c.52-.43,1-1.5.42-2.06a.44.44,0,0,0-.51-.07,1.24,1.24,0,0,0-.36.36s-.1.15-.06.1,0,0,0,0l-.14.19c-.08.1.07-.06,0,.06l-.13.12-.13.12c-.13.11.06,0-.09.06a2.14,2.14,0,0,1-.32.2l-.21.1-.09,0c-.11,0,.1,0,0,0-.29.11-.58.22-.88.31-1.36.45-2.85.86-3.68,2.12a3.37,3.37,0,0,0-.31,2.79c.13.44.89.38.83-.11Z"/><path d="M106.07,33.51c0,.12,0,.06,0,0a.72.72,0,0,0-.08-.43l0,0s-.07,0,0,0,0,0,0,0,0,.06,0,.07,0-.21,0,0,0,0,0-.06-.08.12,0,0a1.19,1.19,0,0,0,.09-.15c0-.06,0,.07,0,.06a.43.43,0,0,0,.06-.07l.12-.12s.14-.13.06,0,.1-.08.08-.06l0,0h0c.11-.06.2-.14.31-.19a.44.44,0,0,1,.17-.08s-.15,0-.07,0l.13-.05.17,0,.07,0h-.09l.37,0,.87-.12a3.63,3.63,0,0,0,1.43-.56,2,2,0,0,0,.72-.89,1.36,1.36,0,0,0,.08-.49.94.94,0,0,0-.46-.77.7.7,0,0,0-.82.11c-.07.07.1-.07.09-.06s-.09,0-.18.14A1,1,0,0,0,109,30s0,0,0,.06,0-.07,0-.09a1.09,1.09,0,0,0-.08.15c-.08.15.12-.11,0,0a1.31,1.31,0,0,0-.12.11s.15-.1.08-.06l-.07.05-.15.09s-.23.1-.1.05l-.08,0a2.91,2.91,0,0,1-.39.12,6.41,6.41,0,0,1-.76.16h0l-.17,0a3.57,3.57,0,0,0-.55.11,2.81,2.81,0,0,0-.85.42,2.44,2.44,0,0,0-1.06,1.44,1.23,1.23,0,0,0,.23,1.06.73.73,0,0,0,.75.32.54.54,0,0,0,.42-.47Z"/><path d="M17.38,78c.29-1.22,1.35-1.38,2.37-1.72a34.81,34.81,0,0,0,3.39-1.17,3.56,3.56,0,0,0,2.18-2.28,3.13,3.13,0,0,0,.05-1.14A4.17,4.17,0,0,1,25.22,70c.2-.66,1.07-1,1.65-1.15a7.26,7.26,0,0,0,2.73-1.34c.7-.63,1.31-1.79.75-2.69a.8.8,0,0,0-1.47.4c0,.38,0,.6-.27.92a3,3,0,0,1-1.05.74c-.73.34-1.54.5-2.27.88a3.11,3.11,0,0,0-1.6,1.74c-.31,1,.27,1.85.13,2.81S22.73,73.61,22,73.9a13.7,13.7,0,0,0-3.32,1.32,3.78,3.78,0,0,0-1.8,2.68c0,.29.44.35.5.07Z"/><path d="M26.16,85.36A19.31,19.31,0,0,0,29.83,79l-1.11.45a4,4,0,0,0,5.19-1,3.53,3.53,0,0,0,.62-1.33,4.13,4.13,0,0,1,.55-1.65,2,2,0,0,1,1.11-.62c.22,0,.45,0,.68-.08a2,2,0,0,0,.64-.27l-.31,0,.15,0a.37.37,0,0,0,.28-.67c-.1-.08-.17-.33-.31-.44a1.63,1.63,0,0,0-.75-.25,3,3,0,0,0-1.5.29,3.41,3.41,0,0,0-1.94,2.38c-.23,1-.34,1.8-1.3,2.3a2.33,2.33,0,0,1-2.34,0,.76.76,0,0,0-1.11.45,35,35,0,0,1-3,6.14c-.29.5.41,1.07.81.63Z"/><path d="M32.51,91.69c-.36-.5,0-1,.4-1.35a4.05,4.05,0,0,1,1.72-.62,5.65,5.65,0,0,0,1.79-.6c.44-.26,1.27-1,.76-1.57l.09.23a1.86,1.86,0,0,0,0-.33.24.24,0,0,0-.43-.06,1.71,1.71,0,0,1-.13.23l.19-.15c-.33.06-.44.39-.65.57s-.2.13-.31.2a3.23,3.23,0,0,1-.42.2c-.54.23-1.21.32-1.78.52-1.09.39-2.58,1.89-1.6,3,.19.22.58-.07.41-.31Z"/><path d="M42.4,84.48c0-.06.1-.28,0-.09,0-.1.07-.19.1-.3a1.8,1.8,0,0,1,0-.19c0-.11-.06.14,0,0a.59.59,0,0,0,0-.08,1,1,0,0,1,.1-.17l.06-.09s.11-.12,0,0a3.71,3.71,0,0,1,.27-.29l.06-.06s.13-.1,0,0,0,0,0,0l.09-.06a1,1,0,0,1,.17-.1l.09,0c.13-.06,0,0-.06,0s.18,0,.21-.05l.17,0,.42-.08-.21,0a1.42,1.42,0,0,0,.61-.13.76.76,0,0,0,.21-.19.26.26,0,0,0,.09-.16c0-.11,0-.11,0,0s0,0-.06.1,0,0,0,0a.5.5,0,0,0,.08-.61c0-.12.06.1,0,0v0a.7.7,0,0,0-.19-.32.92.92,0,0,0-.65-.24,2.09,2.09,0,0,0-.7.07,3.09,3.09,0,0,0-1.16.68,2.92,2.92,0,0,0-.72,1,2.74,2.74,0,0,0-.21.63,1.55,1.55,0,0,0,0,.37,1.87,1.87,0,0,0,.07.4.54.54,0,0,0,1,0Z"/><path d="M40.18,100.1a37.77,37.77,0,0,0,1.36-4.43,4.32,4.32,0,0,1,.23-.8c.07-.15,0-.13.17-.1a3.86,3.86,0,0,1,.6.32,2.26,2.26,0,0,0,.88.27c1.16.09,1.93-1,2.47-1.84a2.21,2.21,0,0,1,.82-.92,1.28,1.28,0,0,1,.52-.17c.05,0,.11,0,.09,0s.08,0,.14.08a.54.54,0,0,0,.89-.52,1.27,1.27,0,0,0-.89-1,1.88,1.88,0,0,0-1.44.23,3.32,3.32,0,0,0-1.11,1c-.27.39-.46.82-.75,1.2-.16.2-.41.49-.65.48-.42,0-.83-.43-1.23-.54a1.43,1.43,0,0,0-1.53.46,3.58,3.58,0,0,0-.56,1.56,38.35,38.35,0,0,0-.81,4.61c-.05.5.64.5.8.11Z"/><path d="M51.36,89.74a1.15,1.15,0,0,1,0-.19l0,.12h0L51,90a.73.73,0,0,0,.42-.31.86.86,0,0,0,.09-.39l0,.17a1.14,1.14,0,0,1,.09-.3l-.07.16a1.56,1.56,0,0,1,.16-.28l-.11.14a2.13,2.13,0,0,1,.3-.3l-.15.11a1.35,1.35,0,0,1,.26-.15l-.17.07.26-.11-.17.07a1,1,0,0,1,.25-.06l-.18,0,.24,0a.68.68,0,0,0,.49-.65.71.71,0,0,0-.49-.66,1.52,1.52,0,0,0-.6,0,1.19,1.19,0,0,0-.4.14,1.76,1.76,0,0,0-.63.55,1.74,1.74,0,0,0-.3.61,2.7,2.7,0,0,0-.06.41v.14a.64.64,0,0,0,.53.64l-.29-.22a1.24,1.24,0,0,0,.19.26.4.4,0,0,0,.45.09.42.42,0,0,0,.25-.38Z"/><path d="M48.46,110c.65-1.64,1.16-3.33,1.7-5l-.86.48a6,6,0,0,0,4.31-.5,6.21,6.21,0,0,0,1.7-1.26,2.84,2.84,0,0,0,1-2.1.61.61,0,0,0-.89-.36,2.37,2.37,0,0,0-.63.77,8.06,8.06,0,0,1-.52.64,5.16,5.16,0,0,1-1.34,1,4.73,4.73,0,0,1-3.26.44.7.7,0,0,0-.85.49c-.42,1.72-.85,3.42-1.15,5.16a.41.41,0,0,0,.79.22Z"/><path d="M58.1,98.78a1.35,1.35,0,0,0,.6.37,1.42,1.42,0,0,0,.71,0,1.41,1.41,0,0,0,.51-.24,1.45,1.45,0,0,0,.44-.48.74.74,0,0,0,.1-.41.64.64,0,0,0-.15-.42.33.33,0,0,0-.38,0,.16.16,0,0,0-.08.06c-.07.08-.07.09,0,0l0,0a.08.08,0,0,1,0,0c-.06.06.06,0,0,0l-.16.13-.09.09.1-.08a1.28,1.28,0,0,1-.25.15l.13,0a1.28,1.28,0,0,1-.28.07l.15,0a1.22,1.22,0,0,1-.33,0l.16,0a1.71,1.71,0,0,1-.3-.09l.15.06a.6.6,0,0,1-.15-.09l.12.1L59,97.91a.62.62,0,1,0-.88.87Z"/><path d="M61,113.93c.1-.07.36,0,.49-.09a2,2,0,0,0,.24-.16A3.58,3.58,0,0,0,63.06,112a5.84,5.84,0,0,0,.46-2.8l-.83.64a4.77,4.77,0,0,0,3-.3,3.45,3.45,0,0,0,1.18-.81,1.84,1.84,0,0,0,.4-.67,1.05,1.05,0,0,0,.08-.35.36.36,0,0,0-.06-.2c0,.08,0,.07,0,0a.23.23,0,0,0-.35-.2l-.15.07.25,0c-.33-.12-.77.25-1,.42a7.31,7.31,0,0,1-1,.58,3.31,3.31,0,0,1-2,.24c-.38-.08-.88.18-.83.63a4.79,4.79,0,0,1-.33,2.34,7,7,0,0,1-.52,1l-.28.5a1.82,1.82,0,0,0-.15.23c0,.09,0,.36-.11.42s0,.35.19.25Z"/><path d="M73.39,117.34c.1-.28.12-.52.2-.82a3.24,3.24,0,0,1,.26-.66,3.85,3.85,0,0,1,.94-1.24,2.9,2.9,0,0,1,.57-.42,2.67,2.67,0,0,1,.69-.32l.35-.1.24,0h.08a1.42,1.42,0,0,0,.61-.12,1.59,1.59,0,0,0,.32-.26.36.36,0,0,0,0-.43,1,1,0,0,0-1-.44,4.27,4.27,0,0,0-1,.23A4.82,4.82,0,0,0,74,113.77a4.7,4.7,0,0,0-1.14,1.65,4.56,4.56,0,0,0-.23.88,5.48,5.48,0,0,0,0,.57,1.57,1.57,0,0,0,.16.56c.14.33.6.18.7-.09Z"/><path d="M63.42,84.55a2.54,2.54,0,0,1,.76-2.84c.87-.75,2-.49,3-.56a6,6,0,0,0,5.24-4c.15-.43.2-.92.38-1.34a2.74,2.74,0,0,1,1.73-1.39,20.86,20.86,0,0,0,4.94-3,21.62,21.62,0,0,0,3.86-4.19,9.12,9.12,0,0,1,4.43-3.8,4.86,4.86,0,0,0,3-3,4.71,4.71,0,0,1,1-1.94c.68-.54,1.84,0,2.65-.49a4,4,0,0,0,1.45-1.8,10.12,10.12,0,0,1,1.79-2.6,11,11,0,0,1,5.84-2.8c1-.19.7-1.62-.22-1.64-3.92-.07-7.31,2.77-9,6.12-.19.36-.4,1-.79,1.16s-1.22,0-1.72.1a2.82,2.82,0,0,0-1.73,1.27,12.15,12.15,0,0,0-.89,2,3.2,3.2,0,0,1-2.07,2.06,9.26,9.26,0,0,0-4.42,3.49,26.49,26.49,0,0,1-4.3,5,18.78,18.78,0,0,1-2.64,1.82c-1,.58-2.18.92-3.13,1.58a3.46,3.46,0,0,0-1.31,2,5.37,5.37,0,0,1-1.71,3A5.58,5.58,0,0,1,66,79.85a3.76,3.76,0,0,0-2.41.73A3.27,3.27,0,0,0,63,84.81c.17.28.57,0,.43-.26Z"/><path d="M70.92,89.37a2.5,2.5,0,0,0,3.22-.4c1.24-1.08,1.46-2.59,2.13-4a2.25,2.25,0,0,1,2.25-1.51,6.85,6.85,0,0,0,2.55-.2,6.1,6.1,0,0,0,2.76-2.65,23.81,23.81,0,0,1,2.47-3.88A14.42,14.42,0,0,1,90,74.1c2.55-1.41,5.4-2.59,7.23-5,1-1.35,1.33-3.51,2.69-4.56s3.32-.76,4.09-2.5a.83.83,0,0,0-1.43-.84c-.69,1.12-2.67,1-3.72,1.78s-1.65,2.25-2.24,3.53c-1.23,2.66-3.73,4-6.2,5.38-2.3,1.26-4.62,2.59-6.12,4.81-.79,1.16-1.32,2.47-2.11,3.63a4,4,0,0,1-1.49,1.44c-.86.41-1.79.1-2.7.2A3.74,3.74,0,0,0,75,84.63c-.51,1.22-1.54,5.18-3.56,3.81-.59-.39-1.1.53-.55.93Z"/><path d="M78.18,100.31a8.55,8.55,0,0,1,3.74-5.72,8.14,8.14,0,0,1,3-1.18A3.83,3.83,0,0,0,87.72,92c.66-.91,1.12-2,1.74-2.91a23.58,23.58,0,0,1,2.37-3,24.88,24.88,0,0,1,2.71-2.52,16.91,16.91,0,0,0,2.75-2.39.44.44,0,0,0-.42-.72c-2.4.45-4.51,2.62-6.07,4.39a24.24,24.24,0,0,0-2.25,3c-.71,1.08-1.17,2.32-1.88,3.39s-2.39,1-3.54,1.55a9.05,9.05,0,0,0-5.5,7.48c0,.32.5.39.55.08Z"/><path d="M103,74.75c2-2.62,4.1-5.12,6.3-7.54,1.06-1.17,2.15-2.3,3.26-3.42.58-.6,1.16-1.19,1.76-1.78s1.22-1,1.36-1.81c0-.32-.15-.77-.55-.72a3.14,3.14,0,0,0-1.81,1.16c-.59.59-1.18,1.18-1.75,1.79-1.18,1.23-2.3,2.52-3.41,3.83-2.15,2.55-4.14,5.23-6,8-.38.55.5,1,.89.52Z"/><path d="M93.41,106.35a51.23,51.23,0,0,1-.63-5.52l-.52.68c2.94-.72,5.39-2.8,7.52-4.87,1.16-1.13,2.26-2.32,3.37-3.5a31.63,31.63,0,0,0,3.37-3.76,5.21,5.21,0,0,0,.84-2c.13-.75,0-1.52.09-2.27.25-1.44,1.87-1.82,3.1-2.1,2.3-.53,4.8-1.28,4.69-4.07a.36.36,0,0,0-.71-.09c-.34,1.2-2.18,1.76-3.23,2a20.36,20.36,0,0,0-3.25.91,4.22,4.22,0,0,0-2.22,2c-.67,1.39,0,3-.75,4.31A19.7,19.7,0,0,1,102,91.65c-1,1.09-2,2.2-3.07,3.26a27,27,0,0,1-7.21,5.3.71.71,0,0,0-.32.8A51.8,51.8,0,0,1,93,106.46c.06.25.41.14.37-.11Z"/><path d="M99.29,111.87c-1.06-2.27,2.09-3.6,3.7-4a9.9,9.9,0,0,0,4.49-2.1c2.11-2,2.4-5.17,4.24-7.37,1.12-1.36,2.72-1.11,4.16-1.89a5.44,5.44,0,0,0,2.37-2.92c.56-1.41.8-2.92,1.27-4.37a7,7,0,0,1,3.25-3.91,37.17,37.17,0,0,0,9.76-9.77c.63-.86-.78-2-1.48-1.14-1.5,1.74-2.85,3.58-4.44,5.24a28.89,28.89,0,0,1-5.15,4.21,8.5,8.5,0,0,0-3.4,3.77c-.64,1.49-.9,3.1-1.39,4.64a5.87,5.87,0,0,1-.84,1.79,3.79,3.79,0,0,1-2.49,1.21,5.7,5.7,0,0,0-3.47,2.4c-1.8,2.55-2.1,6.44-5.29,7.77-2,.8-4.17,1-5.67,2.61-1.19,1.31-1.63,3.07-.47,4.52.41.51,1.08-.14.85-.66Z"/><path d="M110.64,42.11l.13,0h-.32a1.08,1.08,0,0,0,.83,0l.48-.2c.34-.15.68-.28,1-.44l1.85-.9,1.84-.89a4,4,0,0,0,1.81-1.32.67.67,0,0,0-.57-1,4.21,4.21,0,0,0-2.18.71l-1.83.93c-.6.31-1.22.61-1.82.93-.3.15-.6.33-.89.5a5.14,5.14,0,0,0-.51.29,1.15,1.15,0,0,0-.44.66l.28-.36-.13.08c-.56.33-.18,1.35.46,1.08Z"/><path d="M117.28,50.32l.32-.27a2.61,2.61,0,0,0,.3-.27l.27-.31.13-.14c0-.07.11-.13.15-.2a.79.79,0,0,0,.08-.6l0,.19v0l-.09.34.37-.58a.52.52,0,0,0-.71-.71l-.59.37.35-.1h0l.19,0a.72.72,0,0,0-.5,0,1.07,1.07,0,0,0-.28.19l-.16.13-.31.27a2.5,2.5,0,0,0-.27.29l-.28.32a.75.75,0,0,0,0,1.06.77.77,0,0,0,.53.22.79.79,0,0,0,.53-.22Z"/><path d="M83.6,14.65a45.83,45.83,0,0,0,4.8,5.54c1.71,1.89,3.37,3.85,5,5.83,3.2,3.91,6.26,7.94,9.38,11.91,5.9,7.53,12.06,15,19.53,21a56.47,56.47,0,0,0,13.19,8.16c1.05.44,2-1.07.91-1.55-17.87-8.06-28.66-24.65-40.69-39.29C93.89,24,92,21.86,90.11,19.75s-3.68-4.23-6-5.59a.36.36,0,0,0-.49.49Z"/><path d="M77.42,12.9c-.15,1.13,2.1,2.22,2.87,2.78,1.52,1.1,3,2.25,4.48,3.42,2.78,2.21,5.45,4.57,8,7s5,5.09,7.29,7.79,4.31,5.87,6.85,8.37c.29.29.92,0,.74-.44-1.36-3.39-3.94-6.43-6.24-9.28a87.91,87.91,0,0,0-7.83-8.43,91.62,91.62,0,0,0-8.68-7.28c-1.56-1.15-3.17-2.28-4.83-3.28-.3-.18-2.52-1.64-2.65-.69Z"/><path d="M108.51,116.89c2.15-1.08,3-3.37,4.16-5.33a6.85,6.85,0,0,1,2.71-2.73c1.18-.63,2.48-1,3.7-1.55a10.82,10.82,0,0,0,4.92-5,24.46,24.46,0,0,1,1.82-3c.64-.84,1.65-1.41,2.2-2.31a.54.54,0,0,0-.32-.78c-2.18-.31-3.71,2.5-4.6,4.08-1.26,2.22-2.34,4.27-4.75,5.41s-4.88,1.84-6.44,4.2c-1.29,1.95-1.86,4.66-4,5.84-.74.4-.09,1.5.65,1.12Z"/><path d="M120.29,73.2a4,4,0,0,0,.23-.34l.11-.16c.05-.09.19-.2,0,0l-.34.09a.91.91,0,0,0,.81-.41,1.15,1.15,0,0,1,.19-.26s-.09.1,0,0l.1-.12.2-.25.42-.44.24-.21.13-.1c.09-.08-.17.11,0,0s.34-.23.51-.33l.28-.15c.07,0,.19-.12.27-.12l-.06,0,.06,0,.15-.06a2.35,2.35,0,0,0,.44-.17c.18-.1.34-.22.52-.31a.63.63,0,0,0-.15-1.14l-.45-.06c-.09,0-.11,0,0,0-.12,0-.22,0-.34,0a2.53,2.53,0,0,0-.76.21,6,6,0,0,0-1.35.71,6.27,6.27,0,0,0-1.13,1,4.51,4.51,0,0,0-.49.66,2.54,2.54,0,0,0-.16.28.94.94,0,0,0,0,1l-.09-.34c0-.13,0,.1-.05.13s0,.14,0,.22a2.39,2.39,0,0,0-.06.53.45.45,0,0,0,.83.23Z"/></g></g></svg>