<svg xmlns="http://www.w3.org/2000/svg" viewBox="0 0 194.02 191.72"><defs><style>path{fill:#007fff}.cls-1{fill:#fff;stroke:#007fff;stroke-miterlimit:10;stroke-width:3px;}</style></defs><g id="Camada_2" data-name="Camada 2"><g id="Camada_3" data-name="Camada 3"><path class="cls-1" d="M24.51,2.22S64.79-13.6,153.25,103.15c0,0,44.18,54.27,38.82,86.51A120.74,120.74,0,0,1,147.94,157s-46.23-2.08-72.29,4.32c0,0-24.92-47.64-54.65-62.73A39.07,39.07,0,0,0,13.78,96C12,95.5,8.45,93.1,2.89,82.92c0,0,41.43,9.09,54.62-28C57.51,55,70.71,23.91,24.51,2.22Z"/><path d="M58.19,41.81c3.52,3.95,7.41,7.57,11.17,11.29s7.56,7.41,11.34,11.11C88,71.39,95.45,78.48,102.64,85.8a161.4,161.4,0,0,1,19.09,22.59c5.62,8.32,10.35,17.21,15.13,26l8.56,15.77c2.86,5.26,5.57,10.59,9.07,15.47.39.54,1.47.24,1.18-.5a128.14,128.14,0,0,0-7.07-14.23q-3.81-7-7.64-14c-4.89-9-9.64-18-15.33-26.49C114.42,93.75,99.29,80.2,85,66.25L72,53.6c-4.31-4.2-8.56-8.55-13.15-12.45a.47.47,0,0,0-.67.66Z"/><path d="M55.45,47.67c5.67,5.9,11.45,11.6,16.66,17.93A184.8,184.8,0,0,1,86.37,85.5a188.86,188.86,0,0,1,20,44.49,182.63,182.63,0,0,1,6,26.84c.19,1.3,2.16.74,2-.55a175.53,175.53,0,0,0-13.56-47.18A192.16,192.16,0,0,0,75.32,67.24c-5.79-7.19-12.07-14.36-19.26-20.19-.43-.35-1,.21-.61.62Z"/><path d="M118.28,156.64c2.31-2,.68-6,.11-8.41-.92-4-1.93-7.94-3-11.89-2.17-8-4.77-15.81-7.63-23.55-.08-.22-.42-.13-.35.09,2.48,7.2,4.72,14.47,6.79,21.8q1.55,5.43,2.92,10.91.69,2.81,1.34,5.61c.38,1.68.88,3.79-.38,5.24a.14.14,0,0,0,.2.2Z"/><path d="M121.9,142.93c1.41-6.49-1.16-13.26-3.39-19.27q-1.74-4.68-3.8-9.23c-.71-1.56-1.4-3.14-2.24-4.64a32.17,32.17,0,0,0-2.54-4.32c-.25-.31-.79,0-.67.39A45.62,45.62,0,0,0,111.2,110c.69,1.49,1.42,3,2.12,4.44q2.12,4.48,3.9,9.1c1.16,3,2.28,6,3.22,9,1,3.36,1.8,6.76,1.1,10.27-.05.23.31.34.36.1Z"/><path d="M131.78,145a143.27,143.27,0,0,0-8-23.3c-.1-.23-.5-.06-.41.18,2.78,7.7,5.57,15.41,8.22,23.17a.08.08,0,0,0,.16-.05Z"/><path d="M115.21,69.68a233.67,233.67,0,0,1,34.1,36.94A225.22,225.22,0,0,1,174.22,150q2.82,6.42,5.28,13c1.6,4.34,2.73,9,4.82,13.14a.47.47,0,0,0,.87-.24c-.47-4-2.08-8-3.45-11.83s-2.93-7.76-4.54-11.58a210,210,0,0,0-11.31-22.79A234.49,234.49,0,0,0,136.15,89,211.58,211.58,0,0,0,115.49,69.4c-.19-.16-.47.11-.28.28Z"/><path d="M77.76,145.21a69,69,0,0,0-3.05-14A109.62,109.62,0,0,0,69,117.91c-2.21-4.37-4.67-8.62-7.19-12.82-2.39-4-4.74-8-7.38-11.78-2.74-4-6-7.66-10.28-9.94a.92.92,0,0,0-1.37.79A97.7,97.7,0,0,0,44.52,99.5c.5,2.52,1.09,5,1.8,7.5a50.54,50.54,0,0,0,2.84,7.1c.23.48,1,.14.85-.36-2.68-9.73-5-19.46-5.45-29.58l-1.37.78a27.36,27.36,0,0,1,9.24,8.6c2.6,3.61,4.89,7.46,7.23,11.24,5,8.1,9.89,16.42,13.34,25.33a79.54,79.54,0,0,1,4.53,15.13c0,.13.24.1.23,0Z"/><path d="M61.16,20.41A67.23,67.23,0,0,1,84,39.27c.14.18.45,0,.31-.18A59.43,59.43,0,0,0,61.46,19.9c-.35-.16-.65.34-.3.51Z"/></g></g></svg>