<svg xmlns="http://www.w3.org/2000/svg" viewBox="0 0 268.78 159.38"><defs><style>path{fill:#007fff}.cls-1{fill:#fff;stroke:#007fff;stroke-miterlimit:10;stroke-width:3px;}</style></defs><g id="Camada_2" data-name="Camada 2"><g id="Camada_6" data-name="Camada 6"><path class="cls-1" d="M14.75,156.88s18.5-24.3,116.15-32.58c0,0,25.3-.64,42,9l4.65-11.41s80.26-87.85,89.14-84.88l-3.6-14.33S257.69,5,157.62,1.52c0,0-9,8.21-64.54,13.36,0,0-96.27,48.56-91.4,136.85C1.68,151.73,11,151.73,14.75,156.88Z"/><path d="M2.44,150.89c4.65-2.84,9.11-6,13.76-8.82s9.41-5.53,14.24-8.06a267,267,0,0,1,29.91-13.28c21.68-8.14,44.21-13.78,66.86-18.5,13.13-2.74,26.33-5.16,39.52-7.57,1.53-.28.88-2.62-.64-2.34-23.67,4.34-47.39,8.66-70.65,14.89C74,113,52.81,120.32,33,130.46q-8.28,4.23-16.16,9.15A105.43,105.43,0,0,0,2,150.29c-.32.29.09.82.46.6Z"/><path d="M167.48,91.52a8.13,8.13,0,0,0,2.28-.89,21.18,21.18,0,0,0,2.05-1.74c1.46-1.26,2.9-2.55,4.36-3.82q4.19-3.66,8.38-7.29c5.61-4.84,11.21-9.68,16.86-14.46q17.13-14.52,34.64-28.58,4.9-3.93,9.82-7.83l4.74-3.73C252.18,22,254,21,254.75,19.06c.22-.53-.38-.88-.82-.82-1.81.26-3.09,1.64-4.5,2.75l-4.55,3.58q-4.35,3.43-8.69,6.91-8.67,6.94-17.24,14-17.34,14.28-34.26,29-4.73,4.13-9.4,8.32l-4.5,4a24.38,24.38,0,0,0-2.3,2.13,8.28,8.28,0,0,0-1.25,2.3c-.06.14.11.28.24.24Z"/><path d="M166,93.78a2.18,2.18,0,0,0,1.26-.59l.95-.68c.68-.51,1.33-1.05,2-1.6a13.61,13.61,0,0,0,1.65-1.66,5.65,5.65,0,0,0,.7-1c.09-.18.14-.41.23-.56a4.39,4.39,0,0,1,.34-.5c.3-.42-.33-.85-.68-.53A2.94,2.94,0,0,1,172,87c-.15.08-.33.12-.48.21a8.22,8.22,0,0,0-1,.7c-.61.49-1.18,1-1.77,1.54s-1.16,1-1.76,1.45c-.23.18-.51.39-.78.58l-.5.36a1.62,1.62,0,0,0-.59.75.93.93,0,0,0,.89,1.17Z"/><path d="M168.24,94.3C180,84.57,191.35,74.46,203,64.61s23-19.42,34.59-29q9.82-8.15,19.69-16.25c1.4-1.15-.6-3.11-2-2-23.54,19-46.63,38.64-69.48,58.49-6.42,5.58-12.86,11.14-19.1,16.92-1.06,1,.49,2.47,1.57,1.57Z"/><path d="M167.5,94a5,5,0,0,1,2.53.69,2.84,2.84,0,0,1,1.22,2.94c-.35,1.63-1.16,2.8-.5,4.48.49,1.27,1.5,2.3,1.93,3.59.56,1.71-1.09,3-.85,4.74.22,1.57,1.41,3.07.94,4.68-.35,1.23-.94,2.27.31,3.18.64.47,1.06.41,1.2,1.41a6,6,0,0,1-.07,1.2,29.71,29.71,0,0,1-.42,3.38,57.73,57.73,0,0,1-1.56,6.12.47.47,0,0,0,.86.36,16.2,16.2,0,0,0,1.43-3,23.34,23.34,0,0,0,.81-3.52c.28-1.71.9-4.33-.13-5.9-.41-.61-1.71-.85-1.81-1.58-.06-.47.36-1.08.46-1.53a3.64,3.64,0,0,0,.08-1.14,9.67,9.67,0,0,0-.73-2.46,3.65,3.65,0,0,1,.12-3.37,3.93,3.93,0,0,0-.31-4c-.42-.73-.94-1.42-1.3-2.2a4.18,4.18,0,0,1,.12-3.39A3.77,3.77,0,0,0,171,94.5c-.91-.89-2.45-1.54-3.59-.73a.14.14,0,0,0,.07.26Z"/><path d="M171.78,100.72a17.44,17.44,0,0,0,4.57-3.11c1.69-1.35,3.35-2.73,5-4.11q5.1-4.2,10.17-8.44c3.38-2.83,6.76-5.65,10.12-8.5s6.7-6,10.06-8.91c.26-.23-.12-.59-.38-.38C208,70,204.52,72.61,201.2,75.39s-6.73,5.68-10.09,8.53q-9.75,8.28-19.38,16.71s0,.11.05.09Z"/><path d="M217.46,62.07A269.37,269.37,0,0,1,251,33.57c.23-.17,0-.55-.23-.39a186.61,186.61,0,0,0-33.49,28.66c-.14.16.08.39.23.23Z"/><path d="M173.51,108.76a12.3,12.3,0,0,0,2.84-2.31l2.82-2.61c2-1.85,4-3.72,5.94-5.58,3.9-3.67,7.64-7.49,11.45-11.25.23-.22-.11-.55-.34-.34-3.94,3.63-7.94,7.19-11.8,10.91-1.89,1.83-3.8,3.65-5.69,5.5L176,105.77a12.61,12.61,0,0,0-2.58,2.88c0,.07,0,.14.11.11Z"/><path d="M206.83,78.41c3.65-3.11,7.36-6.13,11-9.21s7.38-6.14,10.68-9.54c.26-.26-.08-.76-.4-.53-3.79,2.8-7.32,6.08-10.81,9.24s-7.12,6.56-10.73,9.79c-.17.15.08.39.24.25Z"/><path d="M173.9,117.74c2.23-2.45,4.61-4.74,7-7.06s4.69-4.67,7.11-6.91c.16-.14-.07-.36-.23-.23-2.54,2.14-5,4.3-7.36,6.66s-4.47,4.88-6.62,7.39c-.09.1.05.25.14.15Z"/><path d="M196.2,94.74c1.41-1.14,2.69-2.47,4-3.73s2.67-2.61,4-4c2.59-2.63,5.08-5.35,7.67-8a.19.19,0,0,0-.28-.27c-2.65,2.56-5.39,5-8,7.6-1.31,1.26-2.59,2.55-3.87,3.84a54.94,54.94,0,0,0-3.86,4.07.3.3,0,0,0,.42.42Z"/><path d="M229.09,61.85C237.76,54.53,246,46.78,254.28,39c.17-.16-.08-.41-.25-.25-8.5,7.5-17,15-25.1,22.92a.11.11,0,1,0,.16.16Z"/><path d="M237,49.22c4.11-3.17,8.14-6.42,12.2-9.65s8.31-6.26,12.05-9.79c.08-.07,0-.21-.11-.15-4.21,2.86-8.08,6.32-12,9.51s-8.21,6.58-12.25,9.94c-.1.08,0,.22.14.14Z"/><path d="M172.68,94.38c10.2-8,20-16.58,29.95-24.91s19.83-16.78,30-24.9q8.58-6.87,16.63-14.32c.14-.13-.05-.39-.21-.27-10.3,7.81-19.94,16.42-29.81,24.75s-20.06,16.75-30,25.17c-5.59,4.71-11.3,9.32-16.75,14.19-.2.18.08.44.28.29Z"/><path d="M7.86,152.38a156.25,156.25,0,0,1,13.5-9.17c4.7-2.79,9.65-5,14.49-7.53.12-.07,0-.28-.1-.23a75.9,75.9,0,0,0-14.65,7.31,98.57,98.57,0,0,0-13.29,9.56s0,.09.05.06Z"/><path d="M43.3,131.77c9-3.57,18.19-6.77,27.36-9.87s18.47-6,27.82-8.56c5.36-1.5,10.77-2.85,16.09-4.48a.23.23,0,0,0-.12-.44c-9.53,1.74-18.9,4.59-28.15,7.43s-18.51,5.89-27.57,9.35c-5.21,2-10.35,4.14-15.51,6.27-.18.08-.1.38.08.3Z"/><path d="M125.9,107.33c14.76-2.6,29.56-5.14,44.26-8,.6-.12.34-1-.25-.92C155.17,101,140.48,104,125.81,107c-.23,0-.13.39.09.35Z"/><path d="M122.52,114.16c8.37-1.54,16.77-2.94,25.16-4.35s16.82-2.52,25.2-3.94c.64-.11.5-1.22-.15-1.14-8.39,1-16.75,2.61-25.07,4.09s-16.83,3.23-25.22,5c-.2,0-.11.34.08.3Z"/><path d="M132.25,118.35c5.47-.5,10.92-1.53,16.34-2.4s11.18-1.56,16.64-2.9c.21,0,.17-.4,0-.38-5.48.4-10.92,1.44-16.35,2.29s-11.18,1.55-16.66,2.79c-.33.07-.27.63.08.6Z"/><path d="M139.31,122c5.73-.6,11.47-.92,17.23-1,2.79,0,5.59-.07,8.38,0,3,.05,5.93.25,8.88.1.27,0,.37-.46.07-.51-5.57-.91-11.47-.61-17.09-.43-5.83.18-11.67.66-17.47,1.32-.35,0-.36.6,0,.56Z"/><path d="M172.78,117.32c-.85-.54-2-.23-3-.2l-3.45.11c-2.47.1-4.93.23-7.4.34-4.94.22-9.87.31-14.8.71a.23.23,0,0,0,0,.46c4.94,0,9.86-.28,14.8-.44l7.4-.24,3.45-.15c1,0,2.2.17,3-.43a.1.1,0,0,0,0-.16Z"/><path d="M115.54,119.41A127.53,127.53,0,0,0,88,124.52a.1.1,0,1,0,0,.19,277.33,277.33,0,0,1,27.48-4.61c.44,0,.45-.73,0-.69Z"/><path d="M96.05,117.86a142.52,142.52,0,0,0-15.61,4,81.05,81.05,0,0,0-14.59,5.83c-.19.11-.06.42.14.35,5-1.81,9.8-4,14.84-5.66a140.07,140.07,0,0,1,15.34-4.16c.26-.06.15-.46-.12-.41Z"/><path d="M56.24,132.42c-7.62,1.52-15.44,4-21.93,8.38a.3.3,0,0,0,.3.51c7-3.62,14-6.82,21.79-8.32.37-.07.22-.65-.16-.57Z"/><path d="M3.37,150.69c4.75-3.28,9.43-6.65,14.39-9.64s10.09-5.68,15.32-8.17a268.89,268.89,0,0,1,32.64-12.65A565.77,565.77,0,0,1,140,101.8c6.83-1.23,13.7-2.13,20.53-3.33,4.76-.83,10.75-2.39,12.92-7.22.41-.93-.81-2.17-1.56-1.21-3,3.88-7.35,5.25-12,6-6,1-12.14,1.75-18.19,2.76q-18.81,3.12-37.34,7.65t-36.8,10.34a285,285,0,0,0-32.34,12.32,167.74,167.74,0,0,0-17.08,9A95.65,95.65,0,0,0,2.44,149.49c-.63.58.2,1.7.93,1.2Z"/><path d="M96.38,57.34C89,54.18,79.82,57.46,75.43,64c-2.36,3.52-3.38,8.3-1.82,12.34,2,5.09,7.67,6.1,12.38,7.21C96.41,86,108.55,87.16,117.46,80c6.94-5.55,10.82-15.77,5.05-23.56-5.45-7.33-15.79-9-23.94-5.73a34.43,34.43,0,0,0-12,8.52c-3.36,3.57-6.82,7.91-7.59,12.89a8.89,8.89,0,0,0,1.26,6.46C81.62,80.69,83.92,82,86.13,83a45.6,45.6,0,0,0,15.13,4.31A52.84,52.84,0,0,0,132,81a66,66,0,0,0,22.07-20.15c2.8-4,5.82-8.48,7.09-13.23,1.11-4.13.1-9.35-4.71-10.42-4.06-.9-8.44,1.55-10.86,4.71-1.47,1.92-2.63,4.57-1.68,7,.84,2.13,3,3,5,3.79,4.94,1.87,10.58,3.34,15.81,1.84a14,14,0,0,0,9.15-8.69c3.48-9-1.89-18.3-10.1-22.41-9.83-4.92-22.2-2.61-31.54,2.42-4.35,2.35-8.25,5.89-9.67,10.76-1.36,4.65-.24,9.68,3.68,12.7,3.65,2.83,8.75,4.13,13.19,5.09s9.15,1.43,13.43-.08A12.39,12.39,0,0,0,161,45.49a16.85,16.85,0,0,0-2.4-12.16c-5.5-9-16.71-10.82-26.36-12-11.14-1.34-23.33-3.75-33.79,1.7-4.15,2.16-8.37,5.88-9.34,10.67a7.24,7.24,0,0,0,1.63,6.53c1.58,1.7,3.91,2.5,6.08,3.16a65.12,65.12,0,0,0,17.48,2.73,1.15,1.15,0,0,0,1.08-.82A7.94,7.94,0,0,0,112.89,37c-2.68-2.44-6.46-3-10-2.83-6.13.28-12.7,1.95-17.51,5.91a13.22,13.22,0,0,0-3.64,16.21c3.13,6.5,10,9.77,17,10.1a43.3,43.3,0,0,0,21.06-5c5.46-2.8,10.53-7.2,12.18-13.32a2.34,2.34,0,0,0-.07-2,13.85,13.85,0,0,0-1.34-2,15.52,15.52,0,0,0-3.41-3.06,19.86,19.86,0,0,0-8.85-3.06c-7.8-.85-15.29,2.75-22,6.23C83.35,51,69.09,60.13,66.19,75.6a26.92,26.92,0,0,0-.46,5.3A1.13,1.13,0,0,0,66.55,82a91.42,91.42,0,0,0,12.32,3c3.78.63,7.84,1.35,11.68,1,3.26-.27,6.29-1.67,7.82-4.71s1.48-6.28,1.28-9.46c-.42-6.78-2.42-14.57-9.12-17.74C84,51,77.76,55.1,73.36,59.82,70.64,62.75,68.19,66,65.66,69c-2.18,2.66-4.6,5.42-4.38,9.1a11.45,11.45,0,0,0,4.34,8,18,18,0,0,0,9.86,3.48,69.14,69.14,0,0,0,12.29-.29c4.26-.37,8.51-1,12.73-1.71S109,85.94,113.27,85a68.76,68.76,0,0,0,10-2.92c5.63-2.26,11.16-6,13.09-12.05,1.51-4.76.9-10.92-3-14.4a10.25,10.25,0,0,0-3.24-1.93,1.13,1.13,0,0,0-1.38.78l-1.78,5.93a1.12,1.12,0,0,0,.3,1.1,50.1,50.1,0,0,0,13.46,7.87c3.74,1.45,9.15,3.51,12.94,1.08,4.29-2.76,2.1-8.71.69-12.49-1.69-4.5-4.21-8.86-8.23-11.65-3.59-2.51-8.56-3.63-12.77-2.13a7.15,7.15,0,0,0-2.73,1.43c-.78.87-.93,2.8-1.18,3.91A65.43,65.43,0,0,0,128,57.86a62.54,62.54,0,0,0-.22,8.87c.11,2.36.07,5.19,1.28,7.3,2.29,4,8.64,3.21,12.42,2.55a29.16,29.16,0,0,0,21.91-18.41c.43-1.15-1.41-1.65-1.84-.51-2.7,7.24-9,12.83-16.18,15.43a24.09,24.09,0,0,1-11.05,1.45,4.84,4.84,0,0,1-2.74-1.06,5.06,5.06,0,0,1-1.19-3.11,53.34,53.34,0,0,1-.35-7.15,62,62,0,0,1,2.42-16.51l-.53.69a11.15,11.15,0,0,1,11-.25c3.77,1.87,6.34,5.35,8.09,9.08a40.09,40.09,0,0,1,2.15,5.94c.52,1.83,1.19,4.31-.32,5.86-2.61,2.67-8,.45-10.86-.59a47,47,0,0,1-13.27-7.57l.3,1.1L130.85,55l-1.39.79c4.38,1.68,5.81,6.82,5.24,11.1-.74,5.52-4.8,9.37-9.58,11.8-5.74,2.92-12.34,4.11-18.58,5.41a152.61,152.61,0,0,1-22.62,3.18c-6.1.34-13.93.83-18.31-4.32-2-2.36-2.83-5.58-1.35-8.42a23.07,23.07,0,0,1,2.79-3.82l3.67-4.49c3.59-4.4,8-10.55,14.14-11.12,6.8-.62,10.87,6,12,11.84a29.09,29.09,0,0,1,.42,10.48c-.62,3.49-2.76,5.86-6.36,6.28s-7.79-.31-11.47-.93a90.07,90.07,0,0,1-12.33-3L68,80.9c-.13-11.57,7.85-21.08,16.89-27.36a118.78,118.78,0,0,1,14.78-8.46c5.29-2.64,11.06-5.09,17.08-4.9,5.32.16,10.82,2.54,13.44,7.39L130,46.7c-1.44,6.51-6.88,10.79-12.66,13.48a46.24,46.24,0,0,1-10,3.21,30,30,0,0,1-12.26.35c-6.54-1.39-13.13-7-12.57-14.22.51-6.51,6.89-10.2,12.52-11.81,3.69-1.05,8-1.78,11.77-1.09s7.82,3.91,6.37,8.11l1.07-.82a63,63,0,0,1-16-2.38c-2-.58-4.35-1.18-5.88-2.73s-1.52-4.12-.68-6.17c1.67-4,5.73-6.9,9.64-8.52a34.35,34.35,0,0,1,14-2.23c5.37.12,10.7,1,16,1.59a68.61,68.61,0,0,1,14.07,2.71c4.05,1.38,7.93,3.6,10.46,7.14a15.64,15.64,0,0,1,3.11,10.48,10.08,10.08,0,0,1-6.46,8.28c-3.68,1.42-7.86,1.12-11.66.38-4-.79-8.45-1.91-12-4a9.36,9.36,0,0,1-4.25-11.07c1.22-4.41,4.8-7.5,8.7-9.6a41.77,41.77,0,0,1,14.05-4.52c8.84-1.21,18.95,1.5,23.53,9.8,3.69,6.69,1.4,16.69-6.41,19.19-4.6,1.48-9.61.24-14-1.33-1.91-.68-4.82-1.46-4.75-4,.06-2.09,1.62-4.06,3.16-5.34,2.61-2.19,7.48-3.84,9.74-.29s-.63,8.75-2.42,12a69.28,69.28,0,0,1-16.83,20.17c-14.34,11.56-35,16-52.07,7.88-2-1-4.36-2.08-5.63-4.06A7.66,7.66,0,0,1,81.22,71c1.24-4.31,4.4-8,7.51-11.17,6-6,14.29-10.37,22.89-8.13A16.59,16.59,0,0,1,121,57.76a12.93,12.93,0,0,1,1.85,11A19.32,19.32,0,0,1,116,78.57a23.94,23.94,0,0,1-13,4.69,52.4,52.4,0,0,1-15.33-1.39c-2.32-.51-4.68-1-7-1.76A8,8,0,0,1,75.46,76c-3.28-7.38,3.29-15.52,10.05-17.8a14.7,14.7,0,0,1,10.41.26c.62.26,1.09-.83.46-1.1Z"/></g></g></svg>