<svg xmlns="http://www.w3.org/2000/svg" viewBox="0 0 181.89 31.35"><defs><style>.cls-1{fill:#fff;stroke:#000;stroke-miterlimit:10;stroke-width:3px;}</style></defs><g id="Camada_2" data-name="Camada 2"><g id="Camada_2-2" data-name="Camada 2"><path class="cls-1" d="M2,1.51S170.37,2.6,179.74,9.22c0,0,3,8.24-3.82,18.93,0,0-25,.84-31.89-2.74s-16.94-4.08-39.43,1.17c0,0-63.87,5-86.68,2.63C17.92,29.21,3.84,8.19,2,1.51Z"/><path d="M81.5,2c-1.56,1.61-1.85,4.55-2,6.68A25.41,25.41,0,0,0,80,16.17,24.24,24.24,0,0,0,87.41,29c1.14,1,2.83-.66,1.69-1.69a23.17,23.17,0,0,1-6.92-11.56,23,23,0,0,1-.7-6.71,23.36,23.36,0,0,1,.35-3.33,13.27,13.27,0,0,0,.51-3.36A.5.5,0,0,0,81.5,2Z"/><path d="M28.53,24.61a.47.47,0,0,0-.72.4c0,.52.56.64,1,.71a35.83,35.83,0,0,0,5,.1l5.22,0c6.72,0,13.42,0,20.13-.15a.39.39,0,0,0,0-.77c-5.14-.08-10.27-.16-15.41-.15-2.48,0-5,0-7.45,0s-5.23.26-7.78.11c.16,0,.24-.26.08-.32Z"/><path d="M51.54,23.6l8.27.35c2.76.11,5.51.1,8.27.16.23,0,.23-.34,0-.36-2.76-.17-5.51-.42-8.27-.54l-8.27-.35c-.47,0-.47.72,0,.74Z"/><path d="M56.93,21.49c2.76.28,5.52.57,8.28.89,1.35.15,2.7.31,4.06.41a21.32,21.32,0,0,0,4.22.19.35.35,0,0,0,.09-.69,22.17,22.17,0,0,0-4-.56c-1.4-.16-2.81-.26-4.22-.36-2.82-.19-5.63-.42-8.44-.65-.5,0-.49.72,0,.77Z"/><path d="M18,21.33a6.8,6.8,0,0,0,2.38.45c.91.1,1.83.17,2.74.25,2.06.18,4.13.35,6.19.48,4.05.27,8.1.31,12.16.32a.28.28,0,0,0,0-.55c-4-.22-7.95-.53-11.93-.75-2-.11-4-.21-6-.34L20.83,21A8.17,8.17,0,0,0,18,21a.18.18,0,0,0,0,.32Z"/><path d="M26,18.73c6.12.39,12.21.74,18.35.88.23,0,.22-.34,0-.36-6.12-.4-12.22-.59-18.35-.75-.15,0-.15.22,0,.23Z"/><path d="M87.13,22.54c4.35.4,8.76.34,13.13.42s8.75.06,13.12,0a.25.25,0,0,0,0-.5c-4.37-.16-8.74-.31-13.12-.36s-8.77-.25-13.13,0a.2.2,0,0,0,0,.4Z"/><path d="M97.21,19.35c3.47.19,7,.4,10.42.55s7,.12,10.43.18a.16.16,0,0,0,0-.31c-3.48-.22-6.94-.54-10.43-.66s-6.95-.19-10.42-.27c-.33,0-.33.49,0,.51Z"/><path d="M123.44,20.14c7.44.45,14.85.89,22.3,1.14.17,0,.17-.25,0-.26-7.43-.46-14.86-.73-22.3-1-.06,0-.06.09,0,.1Z"/><path d="M141.78,23.92c3.18.25,6.35.45,9.53.57,1.56.05,3.12.1,4.68.11s3.24-.17,4.86-.2a.24.24,0,0,0,0-.48c-1.62-.1-3.24-.36-4.86-.41s-3.12-.07-4.68-.08c-3.17,0-6.35,0-9.53.16a.17.17,0,0,0,0,.33Z"/><path d="M151.86,21.68c1.86,0,3.72,0,5.58.14.91.06,1.82.15,2.73.25a22.37,22.37,0,0,0,2.83.25.2.2,0,0,0,.05-.4,13.24,13.24,0,0,0-2.66-.47c-.94-.11-1.89-.19-2.84-.26-1.89-.13-3.79-.17-5.69-.14a.32.32,0,0,0,0,.63Z"/><path d="M175.11,11.53c-.64.29-.87,1-1.15,1.57a18.74,18.74,0,0,0-.87,2.3A28.6,28.6,0,0,0,172,20a25.58,25.58,0,0,0-.36,4.71,2,2,0,0,0,.77,1.73,1.63,1.63,0,0,0,2-.18c1.11-.91,1.27-2.72,1.58-4,.38-1.61.72-3.22,1-4.84.14-.76.26-1.53.38-2.3a5,5,0,0,0,.06-2.4,2.11,2.11,0,0,0-3.51-.56,4.38,4.38,0,0,0-.95,2.33c-.16.87-.31,1.75-.47,2.62L172,20c-.08.43-.17.87-.24,1.3a7.29,7.29,0,0,0,.14,1.62c0,.67,1.06,1.12,1.4.38a8.41,8.41,0,0,0,.76-1.64c.13-.6.21-1.22.32-1.83L175,16c.1-.57.18-1.15.32-1.71,0-.17.11-.32.16-.48s.32,0,0-.21-.11-.09-.18.11a1.66,1.66,0,0,0,0,.32c0,.28-.08.57-.12.86-.09.64-.2,1.28-.3,1.92-.41,2.39-.89,4.78-1.5,7.13-.05.19-.16.4-.21.58s-.4.09.24.22c.95.2.21.15.34,0s0-.69,0-.87,0-.66,0-1a28.49,28.49,0,0,1,.29-3.46,32,32,0,0,1,.87-3.88c.19-.64.42-1.26.6-1.89a2.91,2.91,0,0,0,.29-1.82.44.44,0,0,0-.64-.26Z"/></g></g></svg>