<svg xmlns="http://www.w3.org/2000/svg" viewBox="0 0 178.89 146.95"><defs><style>.cls-1{fill:#fff;stroke:#000;stroke-miterlimit:10;stroke-width:3px;}</style></defs><g id="Camada_2" data-name="Camada 2"><g id="Camada_2-2" data-name="Camada 2"><path class="cls-1" d="M13.2,40.92s24.39-26.14-9.06-34h0S51.66-1.36,76.43,2.56s-2.77.08,0,0,4.89,14,41.33,31.46-.44-.45,0,0,17.87,9.26,24.15,17.36c0,0,5.87,14.5,30.08,3.3a19.17,19.17,0,0,1,5.39,13.51s-15.09,3.16-15.64,17.72c0,0-2,4.52.23,7,0,0-2.41,8.78-14.14,17.11a38,38,0,0,1-16.2,6.37c-5.91.92-14.91,4-18.81,14.25a21.78,21.78,0,0,1-7.47,10C98,146,83.92,150.18,62,134.08c0,0-4.33-4.4-14.58,8,0,0-10.24-8.6-10.24-14.6l.94-6.85,18.49-10.76S43.19,72.71,26.2,58.1,13.2,40.92,13.2,40.92Z"/><path d="M81.4,9.36c.64,1.17,1.09,2.43,1.69,3.62s1.2,2.37,1.82,3.54c1.23,2.34,2.55,4.65,3.84,7q3.8,6.84,7.63,13.67c2.55,4.55,5.08,9.11,7.65,13.65,2.43,4.29,5.24,8.51,7,13.15a19.88,19.88,0,0,1,1.38,7.54A13.27,13.27,0,0,1,111.8,75a6.41,6.41,0,0,0-.43,3.35.56.56,0,0,0,.7.39c2.19-.74,2.64-3.14,2.94-5.2a19.69,19.69,0,0,0-.27-6.76c-1-4.87-3.64-9.23-6.09-13.48C103.19,43.81,97.61,34.41,92,25c-1.6-2.71-3.19-5.43-4.81-8.12-.77-1.28-1.57-2.54-2.38-3.79S82.88,10.41,82,9a.36.36,0,0,0-.63.36Z"/><path d="M51.63,97.94c4.25-.84,8.39-2.13,12.54-3.34S72.48,92.19,76.63,91l25.14-7.43c2.21-.66,4.42-1.31,6.62-2,1.06-.34,2.12-.67,3.15-1.06s1.89-.72,2.12-1.77a.76.76,0,0,0-.33-.81c-1.4-1-3.78.47-5.19.94-2,.66-3.92,1.27-5.89,1.87l-12.39,3.8q-12.28,3.77-24.57,7.57c-4.69,1.46-9.45,2.8-14,4.66a.63.63,0,0,0,.33,1.22Z"/><path d="M53,96.33a35.81,35.81,0,0,0,5.4-7.51,80.38,80.38,0,0,0,4.29-8.3c.59-1.3-1.37-2.43-1.93-1.12a90.17,90.17,0,0,1-4.09,8.24c-.74,1.32-1.52,2.6-2.3,3.9s-1.68,2.63-2.37,4a.64.64,0,0,0,1,.78Z"/><path d="M61.9,80.75A19.22,19.22,0,0,0,68.29,80c2-.45,4.06-1,6.06-1.58,4.25-1.23,8.46-2.58,12.69-3.88s8.52-2.67,12.78-4L106,68.63l3.31-1a9.92,9.92,0,0,0,3-1.16,1,1,0,0,0-.49-1.82,9.68,9.68,0,0,0-3.15.76l-3.31,1-6.16,1.94c-4.18,1.31-8.36,2.62-12.53,4s-8.27,2.67-12.42,4c-2,.63-4,1.22-6,1.75a51.52,51.52,0,0,0-6.49,1.68.51.51,0,0,0,.14,1Z"/><path d="M112.88,78.84l0,0-.2,0h0a.36.36,0,0,0,.41-.06l0,0-.25.1c.48,0,.81-.4,1-.77a3.19,3.19,0,0,0,.38-1.07,5.22,5.22,0,0,0,.11-1.11,2.81,2.81,0,0,0,0-.65,1.52,1.52,0,0,0-.37-.64.63.63,0,0,0-1,.12,1.09,1.09,0,0,0-.11.43c0,.08,0,.08,0,0s0,.08,0,.11a4.28,4.28,0,0,0,0,.62,3.68,3.68,0,0,1,0,.47,2,2,0,0,1,0,.24c0-.2,0,0,0,.06-.06.31-.17.59-.24.89a2.68,2.68,0,0,0-.13.56,1.48,1.48,0,0,0,0,.21.7.7,0,0,0,.09.37l0-.27a.37.37,0,0,0,.09.4l0-.2,0,.05a.15.15,0,0,0,.24.19Z"/><path d="M61.86,79.84a18.49,18.49,0,0,0,4.32-.39l4.51-.72q2.25-.36,4.5-.78c1.5-.27,2.93-.73,4.4-1.13a.24.24,0,0,0-.07-.47c-1.44.1-2.88.12-4.32.34s-3.12.49-4.68.77l-4.49.8a18.57,18.57,0,0,0-4.3,1.08c-.26.12-.1.48.13.5Z"/><path d="M10.7,6.81c4,4.26,8.13,8.24,11.64,12.94a144.42,144.42,0,0,1,9.42,14.62C37.57,44.48,42.61,55,48.62,65A113.73,113.73,0,0,0,60,81c1.16,1.34,3.1-.61,2-1.94C46.47,61.13,39.05,38.07,24.75,19.4,21,14.47,16.7,9.27,11.42,5.88c-.58-.37-1.17.45-.72.93Z"/><path d="M42.23,49.76a8.42,8.42,0,0,0,3.19-.27l3.44-.68c2.36-.5,4.73-1,7.09-1.5l13.67-3c4.55-1,9.09-2.05,13.64-3.07l6.83-1.54c2-.46,5-.59,6.45-2.31a.71.71,0,0,0-.14-1.1c-2-.92-4.33,0-6.34.5L83,38.38,69.35,41.47c-4.54,1-9.08,2.1-13.62,3.15-2.27.53-4.53,1.08-6.8,1.63-1.13.28-2.26.55-3.39.84A10,10,0,0,0,42,48.3c-.5.37-.55,1.31.19,1.46Z"/><path d="M51.23,26.51c4.05-.9,8.05-2,12.12-2.91,2-.43,4.06-.85,6.11-1.22s4.32-.94,6.16.07c1.68.94,2.07,2.82.57,4.13s-3.9,1.39-5.75,1.68l-13,2.1c-2,.31-4.92.86-6.12-1.24s1.44-2.95,2.95-3.21c1-.18.76-1.79-.24-1.78a5.12,5.12,0,0,0-4.64,2.44,4,4,0,0,0,1.46,5c1.94,1.45,4.42,1.18,6.67.83,3-.46,5.89-.95,8.83-1.42a75.24,75.24,0,0,0,8.34-1.42c2-.57,4.08-1.91,4.51-4.13a4.61,4.61,0,0,0-2.51-4.73c-2.15-1.2-4.7-.79-7-.38a90.19,90.19,0,0,0-18.72,5,.6.6,0,0,0,.32,1.15Z"/><path d="M50.35,23.25c2.65,0,5.3-.88,7.86-1.45l3.88-.88A12,12,0,0,0,66,19.76a.34.34,0,0,0-.17-.63,12.06,12.06,0,0,0-4,.71l-3.85.95c-2.55.63-5.28,1.06-7.65,2.22a.13.13,0,0,0,.06.24Z"/><path d="M56.36,35.08a36.22,36.22,0,0,0,6.42.09c1-.05,2.1-.14,3.14-.26a8.52,8.52,0,0,0,3-.72.39.39,0,0,0-.09-.71,11.12,11.12,0,0,0-3,.1c-1,.11-2.09.2-3.14.27-2.1.15-4.2.1-6.3.18a.53.53,0,0,0,0,1Z"/><path d="M78.15,30.57A7,7,0,0,0,82,25.06a5.92,5.92,0,0,0-.39-3.89c-.52-.94-2.14-2-3.12-1.09a.38.38,0,0,0,.07.59c.4.25.88.34,1.29.57a2.79,2.79,0,0,1,1,1.08,5.2,5.2,0,0,1,.38,3.23,6.49,6.49,0,0,1-3.24,4.86c-.11.05,0,.21.09.16Z"/><path d="M45.91,26.36a5.18,5.18,0,0,0-.69,4.39,6,6,0,0,0,1,2c.45.59,1.2,1.46,2,1.41a.54.54,0,0,0,.46-.8,3,3,0,0,0-.75-.7,4.65,4.65,0,0,1-.66-.67,4.31,4.31,0,0,1-.84-1.58,4.93,4.93,0,0,1,.22-3.64.42.42,0,0,0-.73-.42Z"/><path d="M18,5.45c1.3,1.66,2.86,3.14,4.22,4.75s2.81,3.46,4.15,5.25a94.22,94.22,0,0,1,6.86,10.69c2.06,3.74,4,7.55,5.87,11.37s3.41,7.86,5.44,11.6c.29.53,1.24.16,1-.43-1.58-4-3.71-7.8-5.64-11.63s-4-7.69-6.25-11.4-4.54-7.32-7.08-10.8c-1.18-1.61-2.41-3.18-3.71-4.69a35,35,0,0,0-4.7-4.88.12.12,0,0,0-.16.17Z"/><path d="M24.28,4.76c1.31,1.59,2.45,3.4,3.64,5.09S30.19,13,31.14,14.7c1.94,3.46,4.08,6.8,6,10.23A187.4,187.4,0,0,1,47.68,46.38c.2.47,1,.27.79-.22A188.79,188.79,0,0,0,38,24.72a92,92,0,0,0-6.28-9.91c-1.25-1.66-2.4-3.39-3.6-5.08s-2.58-3.32-3.77-5c0-.06-.12,0-.07.06Z"/><path d="M31.47,5.34c.61-.1,1.4,1.77,1.65,2.18.51.87,1,1.73,1.51,2.61.92,1.6,1.83,3.22,2.7,4.85Q40,20,42.47,25.09c3.37,6.91,6.42,14,9.09,21.18.15.43.83.24.67-.18A224.76,224.76,0,0,0,41.15,20.78q-3.21-6.15-6.74-12.13a19,19,0,0,1-1.79-3,.83.83,0,0,1,0-1.24,1.95,1.95,0,0,0-.51-2.55,2,2,0,0,0-3.1,1,2,2,0,0,0,2.43,2.43Z"/><path d="M37.13,3.91C46.77,16,50.21,31.68,57.47,45.13c.29.54,1.1.06.82-.48-7.14-13.63-10.93-29-20.88-41-.16-.21-.44.08-.28.28Z"/><path d="M45.14,4.06c1.73,3.47,3.32,7,4.85,10.57q1.17,2.73,2.22,5.51c.34.87.65,1.75.95,2.63s.76,1.73,1.15,2.63c.07.16.33,0,.28-.12-.15-.53-.16-1-.34-1.56s-.39-1-.59-1.5c-.36-.86-.71-1.73-1.06-2.6-.69-1.69-1.41-3.37-2.14-5C48.87,11,47.09,7.48,45.21,4a0,0,0,0,0-.07,0Z"/><path d="M57.16,31.46a4,4,0,0,0,.42,1.39c.19.47.38.92.58,1.38.41,1,.84,1.89,1.28,2.82s.92,1.85,1.4,2.77a21.83,21.83,0,0,0,1.64,2.86.24.24,0,0,0,.41-.24c-.43-.92-1-1.79-1.54-2.68s-1-1.88-1.49-2.83-.9-1.86-1.33-2.8l-.68-1.56a3.64,3.64,0,0,0-.59-1.14.06.06,0,0,0-.1,0Z"/><path d="M62.56,42.66l.36.35a0,0,0,0,0,.07-.07l-.35-.36a.06.06,0,0,0-.08.08Z"/><path d="M50.07,2.91C52,6.09,54,9,55.35,12.51s2.31,7,3.43,10.5c.17.52,1,.3.81-.22-1.19-3.68-2.27-7.42-3.75-11a35.55,35.55,0,0,0-5.57-9c-.09-.11-.27,0-.2.15Z"/><path d="M61.74,30.44a56,56,0,0,0,2.92,6.76c.56,1.09,1.19,2.14,1.85,3.17a25,25,0,0,0,2.13,3.06c.17.2.51-.06.36-.28-.66-1-1.43-2-2.1-3s-1.25-2-1.84-3a49,49,0,0,1-3.24-6.68,0,0,0,0,0-.08,0Z"/><path d="M58.6,3.07a5.41,5.41,0,0,0,.5,2c.25.76.51,1.53.77,2.29l1.45,4.25c1,2.94,2,5.87,3.08,8.8.09.27.51.16.42-.11-1-3-2-6-3.07-9l-1.54-4.4c-.27-.76-.54-1.52-.82-2.28a4.14,4.14,0,0,0-.75-1.6s0,0,0,0Z"/><path d="M66.61,29.77a54.49,54.49,0,0,0,2.82,6.58A38.58,38.58,0,0,0,73.1,42.5c.16.21.48-.06.36-.27-.58-1-1.26-1.93-1.85-2.91s-1.18-2-1.73-3.1a62.87,62.87,0,0,1-2.95-6.54c-.08-.19-.39-.11-.32.09Z"/><path d="M64.46,2.79A23,23,0,0,0,65.69,7.2c.5,1.5,1,3,1.52,4.49,1.06,3.06,2.23,6.06,3.46,9,.1.23.48.14.39-.11-1.06-3-2.12-6.08-3.22-9.11-.54-1.49-1.08-3-1.6-4.47a26,26,0,0,0-1.69-4.29.05.05,0,0,0-.09,0Z"/><path d="M71.87,29.33a11.09,11.09,0,0,0,.37,1.51c.19.48.38,1,.59,1.44.37.9.77,1.78,1.2,2.65a43.85,43.85,0,0,0,3.09,5.3c.21.31.72,0,.51-.3a55.46,55.46,0,0,1-3-5.25c-.43-.87-.85-1.75-1.24-2.64-.22-.51-.43-1-.63-1.55s-.44-.84-.66-1.26c-.07-.14-.27,0-.24.1Z"/><path d="M70,2c.9,3,2.29,6,3.45,8.89s2.32,5.93,3.46,8.91c2.27,5.95,4.32,12,6.77,17.89.09.23.45.15.38-.1-1.87-6.16-4.35-12.18-6.72-18.16Q75.6,15,73.78,10.6A84.76,84.76,0,0,0,70,2s0,0,0,0Z"/><path d="M74.81,2.33a26.8,26.8,0,0,0,1.6,4.12q.95,2.24,1.94,4.44,2,4.42,4.07,8.8t4.12,8.5c1.46,2.94,2.82,6,4.52,8.85.24.39.77.05.6-.35-1.31-2.93-3-5.76-4.41-8.63s-2.79-5.65-4.15-8.49-2.68-5.7-4-8.56q-1-2.2-2-4.41A32.87,32.87,0,0,0,75,2.25a.11.11,0,0,0-.2.08Z"/><path d="M121.22,68.86c-4.7,0-6.82,5.71-9.59,8.63-2.07,2.19-4.81,2.92-7.62,3.69a18,18,0,0,0-7.54,3.67c-4.59,4.08-6.21,10.22-9.91,15a12.32,12.32,0,0,1-7.23,4.78c-3.34.66-5.58-1.18-8-3.18a22.87,22.87,0,0,0-18.46-5c-1.56.26-.89,2.62.65,2.36,6.24-1,12.09,1.07,16.86,5,2.28,1.89,4.69,3.45,7.78,3.3a12.5,12.5,0,0,0,7.4-3.15c4.64-4,6.43-10.11,10-14.9a14,14,0,0,1,7.11-5.25c2.72-.88,5.64-1.32,8.09-2.89,4.49-2.88,5.84-8.65,10.74-11.09a.53.53,0,0,0-.27-1Z"/><path d="M54.52,96.53a16.7,16.7,0,0,0,.09,10.39c1.4,3.68,4.52,5.51,8.29,6,2.12.3,4.28.28,6.37.77a30.86,30.86,0,0,1,6.15,2.56c3.75,1.82,7.64,3,11.76,1.65a14.2,14.2,0,0,0,8.08-7.08c1.67-3,2.68-6.39,4.37-9.42a12.93,12.93,0,0,1,2.94-3.75,11.49,11.49,0,0,1,5.71-2.3c4-.64,7.88-.67,11.57-2.61,3.37-1.78,6.34-5,6.27-9,0-2.48-1.21-4.72-2.24-6.92s-2.13-5.15-.73-7.53c.61-1-.94-1.91-1.59-.93-2.35,3.53-.36,7.53,1.16,10.93.86,1.91,1.6,4,1,6.09a7.81,7.81,0,0,1-2.67,4c-2.81,2.38-6.41,3.22-10,3.56-3.77.37-7.52.83-10.42,3.5-4.78,4.39-5.13,11.6-9.43,16.32A10.9,10.9,0,0,1,80.42,116c-3.89-1.06-7.17-3.67-11.16-4.43s-9.31.14-12.13-3.61c-2.37-3.14-2.11-7.6-2.13-11.33a.25.25,0,0,0-.48-.06Z"/><path d="M47.49,115.49a9.72,9.72,0,0,0,4.13,11.39c4,2.39,8.29,1.39,12.17-.68a41.93,41.93,0,0,1,6-3,7.15,7.15,0,0,1,6.35.73,20.37,20.37,0,0,0,6,2.75,16.05,16.05,0,0,0,5.7.16,16.46,16.46,0,0,0,10-5.34c3-3.41,3.48-7.7,4.56-11.91a12.69,12.69,0,0,1,3.16-6.2,13.54,13.54,0,0,1,6.31-3c4.35-1,8.85-1.12,12.72-3.65a10.34,10.34,0,0,0,4.19-4.91,8.51,8.51,0,0,0-1-7.22c-1.51-2.64-3.25-5-4.16-7.91a15.73,15.73,0,0,1-.77-4.19c0-1.51.22-3,.22-4.51a.83.83,0,0,0-1.54-.41c-1.34,2-1.33,4.46-1,6.75a20.94,20.94,0,0,0,2.2,6.9c1.89,3.69,6,7.55,2.66,11.66-5.54,6.82-16.56,3.51-22,10.4-2.69,3.4-2.93,7.91-4.18,11.91a13.61,13.61,0,0,1-7.25,8.41,14.43,14.43,0,0,1-10.79.79c-2.12-.73-3.82-2.27-5.92-3.06a8.5,8.5,0,0,0-5.59,0c-4.27,1.33-7.83,5.08-12.43,5.32-5.85.31-10.17-5.28-9-10.87a.35.35,0,0,0-.68-.19Z"/><path d="M47.56,116.51a11.6,11.6,0,0,0-7.49,3.23,9.57,9.57,0,0,0-2.56,7.53A12.72,12.72,0,0,0,41,134.72c1.94,2.11,4.79,4.16,7.78,4,3.18-.13,5.31-2.9,8.37-3.38,1.08-.16.79-1.85-.25-1.86-3.09,0-5,2.87-7.94,3.18-3.18.32-6.47-2.75-8-5.22a9.66,9.66,0,0,1-.85-9c1.45-3.34,4.76-4,7.6-5.73a.11.11,0,0,0-.06-.2Z"/><path d="M46.59,138a1.42,1.42,0,0,0,0,.29,1.07,1.07,0,0,0,.14.49,1.15,1.15,0,0,0,.86.6,2.43,2.43,0,0,0,1.75-.25.87.87,0,0,0,0-1.48,4.46,4.46,0,0,0-2-.77,2.26,2.26,0,0,0-1.93.94,1.77,1.77,0,0,0,0,1.94,2,2,0,0,0,1.38.87,3.5,3.5,0,0,0,.91.05,5.73,5.73,0,0,0,.58-.07,1.83,1.83,0,0,0,.53-.21.92.92,0,0,0,.42-1,.94.94,0,0,0-.89-.68c-.27,0-.54.06-.81.1l.26,0a3.22,3.22,0,0,1-.76,0l.25,0a1.63,1.63,0,0,1-.42-.11l.23.1a1.23,1.23,0,0,1-.25-.14l.19.15-.14-.14.15.19a.72.72,0,0,1-.11-.19l.09.22a1.52,1.52,0,0,1-.06-.2l0,.24a1.62,1.62,0,0,1,0-.22l0,.24a.79.79,0,0,1,.06-.22l-.09.22a1.09,1.09,0,0,1,.14-.23l-.15.18a1.8,1.8,0,0,1,.2-.19l-.18.14a2,2,0,0,1,.31-.19l-.21.09a1.39,1.39,0,0,1,.35-.09l-.24,0a2.06,2.06,0,0,1,.43,0l-.24,0a3.13,3.13,0,0,1,.68.2l-.2-.09c.25.11.49.25.73.38v-1.48l-.14.08c-.13.08.22-.07,0,0a1.59,1.59,0,0,1-.3.06l.23,0a1.69,1.69,0,0,1-.45,0l.22,0a2.61,2.61,0,0,1-.27-.06,1.08,1.08,0,0,0-.59,0c-.15,0,.17,0,0,0a.83.83,0,0,0-.22,0l-.07,0h0a.36.36,0,0,0-.33.25Z"/><path d="M58.39,132.84a21.14,21.14,0,0,1,9.33.13c2.9.66,5.75,1.58,8.67,2.21,5.84,1.26,12,1.54,17.8-.26a22.91,22.91,0,0,0,11.68-8c1.61-2.16,2.48-4.67,3.69-7a11.6,11.6,0,0,1,5.19-5.33c4.45-2.23,9.67-2.3,14.43-3.47A33.48,33.48,0,0,0,142,105a21.47,21.47,0,0,0,4.7-5.09c1.27-1.94,2.34-4.27.73-6.34-.8-1-1.88-1.81-2.72-2.81a10.39,10.39,0,0,1-2.08-3.71,6.32,6.32,0,0,1,1.65-6.27c2.69-3,7.29-5.57,6.52-10.25a7.69,7.69,0,0,0-4.48-5.44c-3-1.4-6.38-1.08-9.58-.73-1.21.13-1.23,2,0,1.92,2.86-.29,6.07-.69,8.76.57,2,.92,3.78,2.91,3.46,5.23-.24,1.79-1.59,3.16-2.83,4.35a34.25,34.25,0,0,0-4,4c-2.81,3.76-1.57,8.26,1.26,11.62.76.9,1.74,1.6,2.49,2.5,1.12,1.34.23,2.86-.56,4.13a19,19,0,0,1-4.73,5.11,33.52,33.52,0,0,1-12.9,5.51c-4.5,1-9.23,1.31-13.46,3.3a13.27,13.27,0,0,0-4.92,3.83c-1.59,2-2.44,4.51-3.64,6.79A20,20,0,0,1,95,132.3c-6.15,2.33-12.9,2-19.22.58-5.56-1.21-12.24-3.45-17.61-.46a.23.23,0,0,0,.18.42Z"/><path d="M136.78,65.6c2.51-.57,4.82-1.36,7.43-1.4A13.41,13.41,0,0,1,151,65.85a11.07,11.07,0,0,1,4.43,4.59,7.51,7.51,0,0,0,3.94,4c4.21,1.67,8.4-.6,11.72-3.08,1.78-1.33,3.64-2.62,4.39-4.8a13,13,0,0,0,.3-6.61c-1.19-5.46-8.22-5.35-12.12-3.21a.83.83,0,0,0,.42,1.53c2.14-.21,4.35-1.12,6.51-.6a4,4,0,0,1,3.21,4.15c.08,2.21.07,4.47-1.63,6.1a27.2,27.2,0,0,1-5.08,3.79,9.13,9.13,0,0,1-5.61,1.41,5.39,5.39,0,0,1-4.35-3.26,13.28,13.28,0,0,0-7.88-6.64c-4-1.27-9.29-.8-12.71,1.75a.32.32,0,0,0,.24.58Z"/><path d="M176.14,68l.11-.19-.14.14c.29-.14.38-.44.49-.72.05-.12.09-.24.13-.36a.87.87,0,0,1,.07-.17l-.05.09.08-.1a.75.75,0,0,0,0-1,.73.73,0,0,0-1,0,1.53,1.53,0,0,0-.29.51l-.05.14s-.07.18,0,.07l0,.07a1.19,1.19,0,0,1-.08.16,2.1,2.1,0,0,1-.13.26,5.74,5.74,0,0,1-.32.53,2.2,2.2,0,0,1-.17.25.76.76,0,0,1-.08.11c.13-.15,0,0,0,0-.26.31-.56.58-.83.87a12.49,12.49,0,0,1-.85.93.57.57,0,0,0,.56.95,6.49,6.49,0,0,0,1.25-.59,4.71,4.71,0,0,0,1.11-1.16,7.42,7.42,0,0,0,.68-1.1c.12-.24.22-.48.32-.73a1.66,1.66,0,0,0,.19-.78l-1.42.19v.09c0,.08,0,0,0-.08s0,.13,0,.14-.05.28-.08.41a1.21,1.21,0,0,0,.06.88l-.05-.19v.22a.33.33,0,0,0,.61.16Z"/><path d="M141.1,64.17a11.88,11.88,0,0,1,11.69,18.19c-1,1.75-2.4,3.64-2.48,5.75-.09,2.38,1.77,3.41,2.7,5.34,2.21,4.56-1.46,9.15-4.51,12.22a35.5,35.5,0,0,1-6.17,5c-2.17,1.37-4.58,2.25-6.49,4a.31.31,0,0,0,.22.52c2.58.06,4.78-1.25,6.94-2.56a37.71,37.71,0,0,0,6.07-4.6c3.46-3.21,7.3-7.66,6.49-12.74a6.8,6.8,0,0,0-1.21-3c-.79-1.08-2.17-1.9-2.55-3.23-.74-2.57,1.91-5.23,3-7.32a12.66,12.66,0,0,0-13.9-18.34c-.56.12-.31.9.22.83Z"/><path d="M160,73.22c.78.88.91,2.59,1,3.73s0,2.45,0,3.67a45.7,45.7,0,0,1-.92,8.58,18.31,18.31,0,0,1-3.4,7.49c-1.7,2.1-4,3.72-5,6.35-.38,1,1.27,1.72,1.78.75,1.49-2.79,4.15-4.6,5.85-7.25a21.28,21.28,0,0,0,2.87-8.37,60.4,60.4,0,0,0,.48-9.12,10.78,10.78,0,0,0-.48-4,3.91,3.91,0,0,0-2.06-2c-.07,0-.14.06-.08.11Z"/><path d="M155.57,100a18.61,18.61,0,0,0,5.62-12c.18-2.48.17-5,1-7.37a12.74,12.74,0,0,1,3.94-5.42c.74-.6.1-1.77-.74-1.78a4.69,4.69,0,0,0-2.68.72c-1.15.72-.09,2.55,1.07,1.83a2.7,2.7,0,0,1,1.61-.46l-.74-1.79c-3.6,3-5.06,7.11-5.32,11.68a25.72,25.72,0,0,1-1.05,7.46c-.86,2.35-2.22,4.5-3.28,6.76-.16.33.24.7.53.41Z"/><path d="M117.14,71.75c0-.14.13-.27.16-.42s.06-.28.09-.42a4.42,4.42,0,0,1,.31-.86,4.34,4.34,0,0,1,1.2-1.46A10.66,10.66,0,0,1,122.31,67a4.51,4.51,0,0,1,1.7-.26,1.61,1.61,0,0,1,1,.43,1.54,1.54,0,0,1,.29,1.22,1,1,0,0,1,0,.26,2.12,2.12,0,0,1-.1.36,2.73,2.73,0,0,1-.35.63,4.92,4.92,0,0,1-1.46,1.2c-.31.18-.63.34-1,.5s-.85.32-1.09.77a1,1,0,0,0,.57,1.41,2,2,0,0,0,1.46-.29,12.55,12.55,0,0,0,1.17-.56,6.63,6.63,0,0,0,2-1.61,4.41,4.41,0,0,0,.61-4.68c-.85-1.69-2.82-2-4.51-1.67a13.6,13.6,0,0,0-4.65,2.12A6.23,6.23,0,0,0,116,69.06a4.33,4.33,0,0,0-.4,1.54,2.56,2.56,0,0,0,.39,1.47c.31.62,1.09.23,1.16-.32Z"/><path d="M123.47,70.51a1.07,1.07,0,0,0,1.28,0,2.44,2.44,0,0,0,.82-1,2.63,2.63,0,0,0-.43-2.82,3.8,3.8,0,0,0-2.73-1.23,6.28,6.28,0,0,0-3.24,1c-1.08.61-2.46,1.37-2.43,2.8a1.09,1.09,0,0,0,1.62.93A15.72,15.72,0,0,1,121.23,69a14.67,14.67,0,0,1,1.58-.41c.1,0,.27,0,.08,0h.32c.09,0,.07,0-.06,0l.17,0c-.08,0-.23-.16-.26-.2.11.17-.06-.22,0,0-.07-.32,0-.17,0-.07,0-.37,0-.11,0,0s0,0,0-.12l-.06.11c-.16.27-.33.51-.51.76a3.32,3.32,0,0,0-.52,1,1.18,1.18,0,0,0,1,1.51.47.47,0,0,0,.57-.33l0-.12-.42.41c.62-.17.77-.62,1.08-1.09.18-.28.39-.53.57-.82a2,2,0,0,0-.44-2.84c-1-.65-2.45-.18-3.52.15a18.27,18.27,0,0,0-3.56,1.5l1.63.94c0-.13,0-.13,0,0,0-.12,0-.12,0,0l0-.08c-.08.09-.07.09,0,0a.93.93,0,0,1,.14-.14c.09-.07.1-.09.05,0l0,0,.17-.11c.43-.28.87-.55,1.33-.79a4.3,4.3,0,0,1,1.44-.49c-.22,0,.06,0,.11,0l.39,0,.29,0c-.22,0,.11,0,.15,0l.32.1c-.17-.07.1.06.11.06a.91.91,0,0,1,.38.32c-.09-.11,0,.08.07.1s0,.1,0,0a1,1,0,0,0,0,.16s0,.27,0,.08a2.71,2.71,0,0,1,0,.29c0,.09,0,.18,0,.28,0-.17,0,.07,0,.09s0,.1,0,0a1,1,0,0,1-.07.15s-.13.18-.06.1c-.15.18-.21.23-.35.38a.56.56,0,0,0,0,.77Z"/><path d="M140.6,53.85c-3.25.63-5.9,3.57-7.17,6.5a10.35,10.35,0,0,0-1,4.86,1.88,1.88,0,0,0,1.94,1.86,6.79,6.79,0,0,0,2.52-.89,14.36,14.36,0,0,0,6.77-7.29c.64-1.53,1.26-3.62-.07-5s-3.66-.58-5,.46a12.88,12.88,0,0,0-5.2,10.4,1.14,1.14,0,0,0,1.44,1.1A15.3,15.3,0,0,0,141,61.79a8.48,8.48,0,0,0,2-6.88,1.17,1.17,0,0,0-1.71-.7,15,15,0,0,0-7.27,8.5c-.36,1,.88,1.76,1.73,1.34a12.38,12.38,0,0,0,5.76-5.45,1.11,1.11,0,0,0-1.92-1.12,20.42,20.42,0,0,1-2.22,2.61A12,12,0,0,1,134.57,62l1.74,1.33a12.65,12.65,0,0,1,6.17-7.12l-1.72-.7a6.07,6.07,0,0,1-1.64,4.92,13.27,13.27,0,0,1-5,3.24l1.44,1.1a10.73,10.73,0,0,1,2.84-7.36c.75-.81,1.94-2.05,3.13-2.1s.46,1.8.26,2.38a12.18,12.18,0,0,1-4.75,6,12.83,12.83,0,0,1-1.62.9,6.85,6.85,0,0,1-.85.34l-.34.12c.17-.14.14.27.13-.17a9.37,9.37,0,0,1,.77-3.62,11.61,11.61,0,0,1,2.39-3.6A18.31,18.31,0,0,1,141.09,55a.64.64,0,0,0-.49-1.17Z"/><path d="M138.92,64.84c1.35.6-.21,1.4-.78,1.61a4.29,4.29,0,0,0-1.36.7,4.16,4.16,0,0,0-1.23,2.94,23.46,23.46,0,0,0,.18,4.74c.16,1.24,1,3.43.38,4.59s-2.44.66-3.46.64a4.61,4.61,0,0,0-3.22,1,5.46,5.46,0,0,0-1.65,3,5.83,5.83,0,0,0,.41,4,.33.33,0,0,0,.61-.08c.49-1.66.09-3.57,1.08-5.08s2.69-1.26,4.35-1.26a3.46,3.46,0,0,0,3-1.18c.84-1.16.54-2.6.28-3.9a28.93,28.93,0,0,1-.64-5.79,3.63,3.63,0,0,1,.69-2.63c.54-.53,1.37-.59,2-1,.8-.47,1.46-1.44.83-2.32-.31-.44-1.31-.92-1.48-.12a.09.09,0,0,0,0,.11Z"/><path d="M140.79,64.45c-.55-.11-.81-.36-1.41-.25a5.26,5.26,0,0,0-1.44.56,5.87,5.87,0,0,0-2.29,2.42c-1.26,2.52-.66,5.47-.17,8.1.27,1.43.45,2.86.63,4.3,0,.4.15.9.62,1s.82-.36,1-.79a9.68,9.68,0,0,0-.06-4.35,39.15,39.15,0,0,1-.67-4.16,6.77,6.77,0,0,1,.83-4.12A4.28,4.28,0,0,1,139,65.81a3.35,3.35,0,0,1,.79-.37,6.27,6.27,0,0,1,.88-.41c.3,0,.43-.51.08-.58Z"/><path d="M141.44,64.84c-1.73,0-2.38,1.91-2.17,3.38.32,2.36,2.61,4,2.16,6.53-.69,3.86-4.66,6.3-5.17,10.27-.33,2.6,1.8,4.67,1.45,7.22-.39,2.84-3.07,4.92-5.58,5.88-2.77,1-5.77,1.33-8.57,2.29a17.55,17.55,0,0,0-6,3.55,32.56,32.56,0,0,0-8.68,13.87c-.17.51.57.79.84.36,2.59-4.14,4.31-8.71,7.78-12.27a16.38,16.38,0,0,1,6.46-4.19c2.67-.9,5.5-1.21,8.16-2.14,4-1.42,8.28-5.32,6.66-10A13.69,13.69,0,0,1,137.55,86a6,6,0,0,1,.76-3c.88-1.75,2.17-3.26,3.16-4.94a6.9,6.9,0,0,0,1.11-5.47,13.72,13.72,0,0,0-1.86-3.29c-.78-1.22-1.05-3.43.8-3.88a.31.31,0,0,0-.08-.6Z"/><path d="M91.81,26.61c2.47,4.13,6,7.66,9,11.34s6.52,7.43,9.88,11,6.74,7.22,10.2,10.74a27.11,27.11,0,0,1,4.21,4.81c1.27,2.1,1.06,4.08,1.07,6.41a.73.73,0,0,0,1.22.51c2.81-2.19,1.05-6.76-.61-9.09-2.22-3.1-5.25-5.68-7.91-8.39-5.69-5.79-11.16-11.79-16.72-17.71C99,32.87,96.14,29,92.6,26c-.42-.35-1.09.1-.79.61Z"/><path d="M122.53,75.79a.54.54,0,0,0,.27.14,2.76,2.76,0,0,1,.27.08,1.44,1.44,0,0,0,.68-.06,5.48,5.48,0,0,0,1.17-.43,7,7,0,0,0,3.8-6.09.76.76,0,0,0-.52-.68l-.06,0,.32.25a1.45,1.45,0,0,1-.09-.22c-.13-.33-.7-.44-.79,0a.54.54,0,0,1,0,.22l.32-.25,0,0a.75.75,0,0,0-.52.68,8.06,8.06,0,0,1-.41,2,5.73,5.73,0,0,1-1,1.65,6,6,0,0,1-1.52,1.26,6.15,6.15,0,0,1-.85.43,2.17,2.17,0,0,0-1,.62.29.29,0,0,0,.06.44Z"/><path d="M134.09,66.48a14,14,0,0,0-2.45-2.22c-.9-.71-1.79-1.43-2.7-2.12s-1.79-1.36-2.67-2.07c-.42-.33-.84-.68-1.26-1a4.21,4.21,0,0,0-1.5-1,.73.73,0,0,0-.81,1.06,3.75,3.75,0,0,0,1.23,1.18l1.38,1.06c.92.7,1.84,1.38,2.78,2.05s1.86,1.25,2.81,1.84A11.73,11.73,0,0,0,134,66.69c.13,0,.19-.11.12-.21Z"/><path d="M125.46,61a23.73,23.73,0,0,0,2.82,3.27c1.05.9,2.13,1.78,3.26,2.59a4.48,4.48,0,0,0,3.55,1c1.1-.25,2.54-1.25,2.29-2.52a.8.8,0,0,0-1-.56c-.49.19-.68.53-1.06.84a1.86,1.86,0,0,1-1.06.39c-1,.06-2-.75-2.76-1.3-.95-.67-1.84-1.42-2.79-2.08s-2.1-1.23-3.08-1.93c-.16-.12-.31.12-.2.25Z"/><path d="M104.59,38.88a3.14,3.14,0,0,0,.3-.64c0-.23.08-.46.13-.69a9.38,9.38,0,0,1,.41-1.34,9.51,9.51,0,0,1,1.31-2.3,9.07,9.07,0,0,1,1.9-1.81,8.15,8.15,0,0,1,1.21-.71c.16-.08.33-.14.5-.21a1.45,1.45,0,0,0,.71-.65.69.69,0,0,0-.41-1c-1-.32-2.19.61-3,1.19A11,11,0,0,0,105.44,33,10,10,0,0,0,104,35.82a9.63,9.63,0,0,0-.35,1.43c0,.26-.08.54-.1.81a2,2,0,0,0,.22.82.42.42,0,0,0,.81,0Z"/><path d="M102.76,42.8s0-.11,0-.11,0,.1,0,.06a.13.13,0,0,0,0-.06v-.21a1.36,1.36,0,0,1,0-.2c0-.14,0,.14,0,0a.43.43,0,0,0,0-.11l.06-.22,0-.09c0-.15,0,.09,0,0s.07-.14.1-.22-.07.15,0,0l.11-.21c0-.06.07-.12.11-.17l0,0c-.08.1,0,0,0,0a3.31,3.31,0,0,1,.33-.32l0,0,.1-.06.18-.1c.06,0,.16,0,0,0l.25-.1.19-.13a.69.69,0,0,0,.32-.77.72.72,0,0,0-.67-.51,1.5,1.5,0,0,0-.42,0,1.54,1.54,0,0,0-.35.15,2.8,2.8,0,0,0-.53.37,2.9,2.9,0,0,0-.73.9,2.65,2.65,0,0,0,0,2.45.56.56,0,0,0,.7.23.59.59,0,0,0,.33-.67Z"/><path d="M122.89,73.64a4.08,4.08,0,0,0,2.81-1.81,5,5,0,0,0,.73-1.46,6,6,0,0,0,.17-.84,1.54,1.54,0,0,0-.1-1,.75.75,0,0,0-1.28,0,2.05,2.05,0,0,0-.13,1s0,.1,0,.15c0,.2,0-.16,0,0s0,.22-.07.33-.06.21-.1.31l-.06.17c-.06.15,0-.11,0,0a6.55,6.55,0,0,1-.32.58l-.09.12s-.12.16-.07.1l-.06.07-.12.13a4.06,4.06,0,0,1-.48.45c.11-.09,0,0-.06,0a1,1,0,0,1-.15.1l-.25.16-.62.35a.58.58,0,0,0,.29,1.06Z"/><path d="M57.12,53.14l-.16.13a.74.74,0,0,0-.2.73c.2.74.41,1.45.65,2.17l.35,1.08a5,5,0,0,0,.43,1.19.88.88,0,0,0,1,.39.86.86,0,0,0,.62-.82,5.16,5.16,0,0,0-.35-1.22L59,55.73c-.26-.72-.53-1.42-.83-2.12a.78.78,0,0,0-.72-.56.53.53,0,0,0-.37.09Z"/><path d="M57.51,53.47a6.66,6.66,0,0,0,3.43-.07c1.37-.21,2.74-.48,4.11-.73,2.81-.53,5.61-1.08,8.42-1.67s5.43-1.16,8.14-1.77c1.36-.3,2.71-.62,4.06-.93,1.17-.28,2.69-.32,3.55-1.22A.64.64,0,0,0,88.94,46c-1.1-.38-2.4.23-3.51.49-1.35.33-2.7.64-4.05,1q-4.18,1-8.38,1.84T64.83,51c-1.36.27-2.72.52-4.08.81A7,7,0,0,0,57.38,53a.3.3,0,0,0,.13.49Z"/><path d="M88.56,46.4a7.2,7.2,0,0,0-.15,1.31A7.71,7.71,0,0,0,88.55,49a7.13,7.13,0,0,0,.29,1.1c.18.54.4,1.25,1.09,1.24a.79.79,0,0,0,.74-.61,1.09,1.09,0,0,0-.09-.71l-.06-.14c0,.09,0,.08,0,0a9.69,9.69,0,0,1-.34-1.08c-.09-.37-.15-.74-.21-1.11,0-.1,0-.1,0,0a.77.77,0,0,1,0-.15l-.06-.42c0,.12,0-.16,0-.19s0-.2,0-.3a.67.67,0,0,0-.57-.64.65.65,0,0,0-.71.47Z"/><path d="M59.24,58.23a14.44,14.44,0,0,0,7.06-.77c2.63-.79,5.19-1.78,7.82-2.59a137.77,137.77,0,0,1,16-3.89c1.23-.22.71-2.13-.52-1.88a136.54,136.54,0,0,0-15.28,4c-2.4.78-4.76,1.67-7.14,2.51a25.26,25.26,0,0,1-7.82,1.49c-.65,0-.84,1-.16,1.17Z"/><path d="M89,47a13,13,0,0,0,1,2l.51,1c.23.42.42.95.94,1.07a.84.84,0,0,0,1-.57c.17-.5-.21-1-.44-1.38l-.54-.94a13.21,13.21,0,0,0-1.18-1.94.8.8,0,0,0-1-.13A.82.82,0,0,0,89,47Z"/><path d="M58.91,58.48a5.83,5.83,0,0,0,2.63,0,22.9,22.9,0,0,0,2.59-.42c.86-.19,1.71-.42,2.55-.68A10.13,10.13,0,0,0,67.89,57a3.24,3.24,0,0,0,1.18-.72.52.52,0,0,0-.36-.88,3.2,3.2,0,0,0-1.21.22c-.41.11-.8.26-1.21.39-.83.28-1.68.52-2.53.72s-1.65.38-2.48.54a7.77,7.77,0,0,0-2.45.58.34.34,0,0,0,.08.62Z"/><path d="M59,54.84c1,.42,2.29,0,3.35-.14,1.37-.22,2.73-.46,4.1-.7q4-.69,8-1.43c2.56-.48,5.12-1,7.68-1.51l4.07-.86c1.07-.22,2.45-.19,3-1.28A.8.8,0,0,0,89,48c-1-.78-1.86-.35-3-.11l-3.83.81c-2.71.56-5.43,1.1-8.15,1.65s-5.27,1.06-7.91,1.56l-3.84.72c-1.2.23-2.64.28-3.57,1.12A.67.67,0,0,0,59,54.84Z"/><path d="M58.79,57.19c1.12,1,3.43.07,4.73-.22,1.86-.42,3.72-.87,5.56-1.36s3.69-1,5.52-1.56a32.76,32.76,0,0,0,5.51-1.86c1.18-.6.31-2.22-.84-2a45,45,0,0,0-4.91,1.54c-1.63.5-3.28,1-4.93,1.44s-3.3.9-5,1.31L62.16,55,61,55.28a3.91,3.91,0,0,1-1.27.3c-.89-.19-1.7.92-.94,1.61Z"/><path d="M60.39,56c1-.14,2-.44,2.93-.65s1.83-.36,2.75-.52,1.83-.33,2.75-.47,2.08-.28,2.58-1.08a.65.65,0,0,0-.1-.76c-.69-.7-2-.49-2.87-.37s-1.92.27-2.87.45-1.89.39-2.83.61a22,22,0,0,0-2.89.79,1,1,0,0,0,.55,2Z"/><path d="M64.78,57c4.73,0,9.48-1.39,14.09-2.47C81.25,54,83.63,53.41,86,52.8l3.31-.86c1-.27,2-.32,2.63-1.23a.62.62,0,0,0-.21-.82c-1-.49-1.9,0-2.91.26L85.5,51c-2.29.6-4.58,1.19-6.87,1.75C74,53.9,69.12,54.68,64.71,56.52c-.24.1-.24.5.07.49Z"/><path d="M65,63c0,.21.09.42.14.63s.12.43.18.64l.38,1.25a.84.84,0,1,0,1.62-.44L67,63.8c-.06-.21-.12-.41-.19-.62s-.17-.41-.25-.62a.86.86,0,0,0-.36-.46.76.76,0,0,0-.59-.08A.78.78,0,0,0,65,63Z"/><path d="M66.38,63c3.94.12,8-1.39,11.69-2.57a89.31,89.31,0,0,1,11.79-3.1c1.07-.19.84-2-.25-1.91-4,.38-7.87,1.72-11.67,2.94-1.9.62-3.81,1.22-5.75,1.74s-4,.85-6,1.33A.8.8,0,0,0,66.38,63Z"/><path d="M89.62,55.92c-.06.13-.12.27-.17.41l.36-.46a.89.89,0,0,0-.42.67,3.93,3.93,0,0,0-.06.48,3.11,3.11,0,0,0,.1.86,4.49,4.49,0,0,0,.29.8,1.35,1.35,0,0,0,.85.83.88.88,0,0,0,1.09-.83c0-.43-.33-.79-.5-1.17l.09.21a4.1,4.1,0,0,1-.24-.93L91,57a1.55,1.55,0,0,1,0-.31,1,1,0,0,0-.26-.72l.23.55c0-.09,0-.17,0-.26a.72.72,0,0,0-.52-.7.75.75,0,0,0-.82.34Z"/><path d="M66.87,65.33c1,.59,1.49.39,2.56.12s2.07-.52,3.11-.79c1.92-.49,3.85-1,5.77-1.47l12-3.12a1,1,0,0,0-.55-2L77.78,61.27,72,62.84c-1,.28-2.07.55-3.1.84s-1.6.4-2.15,1.37a.21.21,0,0,0,.08.28Z"/><path d="M67.15,64.35a5.5,5.5,0,0,0,2.55,0c1-.13,1.94-.28,2.89-.47,1.92-.36,3.82-.79,5.71-1.27A98.83,98.83,0,0,0,89.44,59c1.4-.55.79-2.83-.63-2.28A100,100,0,0,1,77.9,60.31q-2.73.72-5.5,1.29c-1,.19-1.9.39-2.86.57a6.61,6.61,0,0,0-2.58.77.78.78,0,0,0,.19,1.41Z"/><path d="M59.14,55.34a.67.67,0,0,0,.15-.14l-.21,0,.05,0a.42.42,0,0,0,.37-.1l0,0-.37.1a.71.71,0,0,0,.68-.17.82.82,0,0,0,.16-.22l-.43.32h.08l.22-.09a.75.75,0,0,0,.26-.24.45.45,0,0,0,.12-.21.73.73,0,0,0,.08-.36v0l-1.83.25a6.32,6.32,0,0,0,.18.62,1.28,1.28,0,0,0,.11.27,2,2,0,0,0,.18.23l.09.1a.93.93,0,0,0,.71.35l-.41-.17.06,0a.49.49,0,0,0,.23.14.66.66,0,0,0,.28,0,.54.54,0,0,0,.36-.37l0-.06L60,56a.78.78,0,0,0,.29-.28.61.61,0,0,0,.07-.14.83.83,0,0,0,.06-.21l0-.14a1.54,1.54,0,0,0,0-.3,2.93,2.93,0,0,0-.05-.29,6.52,6.52,0,0,0-.18-.63.76.76,0,0,0-.17-.32.75.75,0,0,0-.26-.24.85.85,0,0,0-.35-.11.78.78,0,0,0-.37,0,.93.93,0,0,0-.56.43l-.09.22a.85.85,0,0,0,0,.5v0l0-.25v0l0,.25a.76.76,0,0,0,.17.32.44.44,0,0,0,.17.16.73.73,0,0,0,.31.17h0l-.52-.68a1.18,1.18,0,0,0,0,.27.74.74,0,0,0,.35.44l-.17-.44a.43.43,0,0,0,0,.19.44.44,0,0,0,.13.25l0-.27a.54.54,0,0,1-.09.12.21.21,0,0,0,0,.29.2.2,0,0,0,.28,0Z"/></g></g></svg>