<svg xmlns="http://www.w3.org/2000/svg" viewBox="0 0 183.49 177.03"><defs><style>.cls-1,.cls-2{fill:#fff;}.cls-1{stroke:#000;stroke-miterlimit:10;stroke-width:3px;}</style></defs><g id="Camada_2" data-name="Camada 2"><g id="Camada_6" data-name="Camada 6"><path class="cls-1" d="M7.79,2,30.05,12.37,19.73,28.54,37.88,50l20-15.48,10.54.54L80,51.75l20.17-10.3L93.73,24.6l27.22,14,6.88,10.51L128.32,70s7.25,8.16,14.44,4.37L114.22,97.52l13,4.28-13,13S128.67,151.4,179.31,169c0,0-24.49,10.33-83.43,4,0,0-37-9.8-56-2.58,0,0,28.77-13.23,33.4-28s-7.64-20.53-20-17.15l-6,4s-17-15.4-22.23-9.49l-9.06,2.71a62.66,62.66,0,0,0-6.87-16.79S7.71,99,12.83,91.3,17.06,65.62,1.5,53.61C1.5,53.61,1.64,14.35,7.79,2Z"/><path d="M113.22,116c-3.12-5.14,7.73-4.35,11.53-13.48-4.52-1.54-9.48-3.09-14-1.47-1.59.58-3,1.53-4.66,2a9.13,9.13,0,0,1-11.06-6.22,10.43,10.43,0,0,1-13.48-.2,12,12,0,0,1-21.51,9.47c-7.85,5.2-20.16.87-23-8.1a13.26,13.26,0,0,1-13.17,11.19A13.25,13.25,0,0,1,11.53,97.06s-6.48,2.67,2,16.11,2.56,9.23,2.56,9.23,49.16-12.4,31.29,6.78c-.4.42,17.21-17.63,26.4,3.4,0,0,6.15,21.59-33.83,37.81,0,0,20.9-6.06,56,2.58s83.79-3.57,83.43-4C179.31,169,139.49,159.3,113.22,116Z"/><path d="M113.69,115.67c-1.51-2.63,2-3.84,3.81-4.9,3.36-1.91,6.25-4.34,7.83-8a.68.68,0,0,0-.4-1,35,35,0,0,0-9-2.19,15.65,15.65,0,0,0-8.1,1.85,8.44,8.44,0,0,1-7.43.35,8.17,8.17,0,0,1-4.61-5.25.83.83,0,0,0-1.37-.36A9.59,9.59,0,0,1,82.18,96a.88.88,0,0,0-1.45.85,11.14,11.14,0,0,1-19.88,8.78.93.93,0,0,0-1.25-.33c-7.47,4.81-18.86.92-21.68-7.55-.26-.78-1.65-1-1.79,0A12.37,12.37,0,0,1,24,108.24,12.31,12.31,0,0,1,12.47,97.06c0-.54-.59-1.17-1.2-.91-3.06,1.29-3.35,5.24-2.8,8.06.9,4.53,3.65,8.36,5.94,12.27a31.46,31.46,0,0,1,2.36,4.58,8,8,0,0,1,.34,1.18c0,.21-.07.18,0,.11s.35-.24.37-.26-.07-.06.05,0c-.35-.16-.2,0-.38-.13a5,5,0,0,1-.63-.37l-.22,1.72a150.45,150.45,0,0,1,15-3,69.57,69.57,0,0,1,11.43-.93c2.22,0,5.68.09,7.14,1.81a2.07,2.07,0,0,1,.4,1,3.53,3.53,0,0,1-.31,1.66c-.76,1.91-2.26,3.27-3.47,4.86-.69.9.72,1.78,1.47,1.14,3-2.55,6.12-4.95,10-6a10.64,10.64,0,0,1,8.74,1.06,13.87,13.87,0,0,1,4.06,4.19,16.06,16.06,0,0,1,2.06,3.85,5.59,5.59,0,0,1,.25,1.83,18.16,18.16,0,0,1-.22,4.17A27.53,27.53,0,0,1,66.44,152c-7,8.19-16.95,13.5-26.77,17.5-1.09.44-.7,2.17.5,1.82a51.66,51.66,0,0,1,9.4-1.55,123.72,123.72,0,0,1,26.79.56c11.72,1.42,23,5,34.78,6.1a176.24,176.24,0,0,0,31.91-.24,252.24,252.24,0,0,0,25.66-3.63c2.6-.51,5.19-1,7.76-1.68a11.16,11.16,0,0,0,3.32-1,1,1,0,0,0-.28-1.84,5.71,5.71,0,0,0-.71-.19c-1.26-.36-2.49-.77-3.72-1.2a100.76,100.76,0,0,1-14.53-6.55,122.38,122.38,0,0,1-41.64-37.3q-2.52-3.6-4.8-7.37c-.69-1.13-2.48-.1-1.78,1a127.21,127.21,0,0,0,34,37,113.26,113.26,0,0,0,27.42,14.76,51.81,51.81,0,0,0,5.3,1.69l-.59-.45h0l-.1-.76c.07-.28.44-.62.54-.6-.06,0-.21.07-.27.09l-.87.25c-1,.28-2,.53-3,.77-3.51.82-7.05,1.52-10.61,2.15A232.51,232.51,0,0,1,131.26,175a161.71,161.71,0,0,1-18.81-.38,134,134,0,0,1-19.19-3.24,145.69,145.69,0,0,0-37.56-3.91,96.31,96.31,0,0,0-11,1,20.28,20.28,0,0,0-4.83,1,1.29,1.29,0,0,1-.21.06l.5,1.82c9.48-3.87,19-8.83,26.1-16.33,3.88-4.09,7.08-9.06,8.26-14.64a17.56,17.56,0,0,0,.18-7.8,12,12,0,0,0-1.09-2.4,19.71,19.71,0,0,0-4.07-5.47,12.07,12.07,0,0,0-9.39-3.16c-5.31.54-9.55,3.7-13.49,7l1.48,1.14c-.33.43.24-.23.35-.35l.6-.69c.36-.43.71-.87,1-1.33A12.55,12.55,0,0,0,51.53,125a5.25,5.25,0,0,0,.49-3.8c-.85-2.65-4.2-3.28-6.58-3.54a49.5,49.5,0,0,0-11.6.43c-4,.49-7.88,1.17-11.78,2-2.09.43-4.18.88-6.25,1.4a1,1,0,0,0-.22,1.73,3.64,3.64,0,0,0,1.89.75c1.76,0,1.61-1.93,1.22-3.1-1.38-4.09-4.22-7.54-6.2-11.32-1.4-2.68-3-6.26-2.21-9.37a4,4,0,0,1,1-1.82c.3-.3.16-.13.43-.34.1-.08.5-.25,0,0l-1.2-.91a14.25,14.25,0,0,0,13.1,13c6.83.35,13.28-5.15,14.24-11.87H36.13c3.19,9.55,15.89,14.13,24.4,8.64l-1.26-.33A12.91,12.91,0,0,0,82.4,96.37L81,97.22a11.33,11.33,0,0,0,14.68.16L94.26,97a10,10,0,0,0,10.93,7A13.81,13.81,0,0,0,109,102.6a13.39,13.39,0,0,1,5.2-1.55c3.55-.21,7,1,10.36,2.07l-.4-1c-1.76,4.13-5.14,6.3-8.84,8.49-2.21,1.3-4.17,2.94-2.59,5.6A.55.55,0,0,0,113.69,115.67Z"/><path d="M21.22,88.31c-1.1-1.49-3.28-1.46-4.83-.7a7.67,7.67,0,0,0-3.6,4.82,13.67,13.67,0,0,0,1.5,10.93,10.64,10.64,0,0,0,9.18,5.22c4.26-.08,8.17-2.63,10.73-5.91a13.9,13.9,0,0,0,2.92-6.45c.24-1.65.3-5.64-2.11-5.72a.59.59,0,0,0-.56.42,2.77,2.77,0,0,0,.22,2,6.43,6.43,0,0,1,.25,2.5,11,11,0,0,1-1.78,4.8,13.45,13.45,0,0,1-7.68,5.8c-6.38,1.64-11.14-4.24-11.17-10.19a9.71,9.71,0,0,1,1.28-5.08,4.51,4.51,0,0,1,5.22-1.9c.29.07.63-.26.43-.55Z"/><path d="M33.19,90.64a7.07,7.07,0,0,0,6.61-.31,7,7,0,0,0,3.55-5.66,7.45,7.45,0,0,0-2.6-6,6.17,6.17,0,0,0-6.5-.82,7,7,0,0,0-2.94,2.47A5.49,5.49,0,0,0,30.52,82,2.2,2.2,0,0,0,31,83.79a.35.35,0,0,0,.46,0,1.43,1.43,0,0,0,.33-.47,6.16,6.16,0,0,1,.33-.55c.23-.39.29-.87.53-1.27a5.14,5.14,0,0,1,1.81-1.81,4.55,4.55,0,0,1,5,0,5.77,5.77,0,0,1,2.41,4.45,5.37,5.37,0,0,1-2.33,4.66,8.17,8.17,0,0,1-2.93,1.32,9.29,9.29,0,0,1-3.2,0c-.28,0-.35.37-.14.49Z"/><path d="M30.9,82.31c1.65-1.3,2-3.67,1.6-5.61a7.68,7.68,0,0,0-3.77-5.09c-4.44-2.34-10-.22-12.33,4a11.54,11.54,0,0,0-1.32,3.94A7.93,7.93,0,0,0,15,81.65a9.45,9.45,0,0,0,.61,2.07.57.57,0,0,0,1.12-.16c0-1,.18-2,.27-3a10.66,10.66,0,0,1,.69-2.91,8,8,0,0,1,3.75-4.2c3.36-1.71,7.88-.76,9.31,3a7.93,7.93,0,0,1-.14,5.75c-.07.18.17.26.29.17Z"/><path d="M27.6,85.15c-1-1.41-3-1.32-4.27-.41a3.49,3.49,0,0,0-1.25,4.51,4.43,4.43,0,0,0,4.15,2.16,3.85,3.85,0,0,0,2.38-1,3.94,3.94,0,0,0,1.13-2.25,4.61,4.61,0,0,0-2.58-5,.82.82,0,0,0-1,.48.83.83,0,0,0,.34,1l.41.27c.06,0,.17.13,0,0l.21.19a3.26,3.26,0,0,1,.31.33c.08.1-.08-.11,0,0l.06.09.15.24.1.18.07.15c0-.09.05.13.06.16a2.76,2.76,0,0,1,.08.27c0,.15.07.3.1.45v0s0,.09,0,.14a2.62,2.62,0,0,1,0,.28c0,.15,0,.3,0,.45s0,0,0,0,0,.09,0,.14l-.06.27-.06.19-.06.16-.07.15-.12.2s-.15.21,0,.09l-.16.18-.15.15-.11.09c-.09.08.11-.07,0,0a3.26,3.26,0,0,1-.4.24l-.09,0s.13,0,0,0l-.25.08-.22.06c-.08,0-.19,0-.05,0l-.5,0-.23,0c-.16,0,.11,0,0,0a4.48,4.48,0,0,1-.5-.11l-.22-.07c-.06,0-.19-.08-.06,0a3.75,3.75,0,0,1-.44-.24l-.17-.11c-.16-.1,0,0-.08,0s-.24-.22-.35-.34l-.09-.1-.09-.13c0-.06-.07-.13-.11-.2s-.09-.22,0-.08c-.05-.14-.09-.29-.13-.44s0,.09,0-.1,0-.16,0-.24,0-.24,0-.16,0-.11,0-.15l.06-.19s0-.08,0-.12,0,.06,0,0,.15-.27.23-.4-.05,0,0-.06l.18-.2.2-.19.07-.06h0l.15-.12,0,0,.09-.06a1.37,1.37,0,0,1,.2-.13l.24-.13.09,0c.19-.09-.06,0,.05,0a3.33,3.33,0,0,1,.51-.16l.22,0,.13,0c-.07,0,0,0,0,0a2.9,2.9,0,0,1,.51,0,2.65,2.65,0,0,1,.9.26c.22.12.54-.13.37-.37Z"/><path d="M46.36,87.87c-2.22-2.28-6.34-.22-8,1.72-2.52,2.9-2.43,7-.88,10.3,3.14,6.83,12.41,11.6,19.44,7.65,3.5-2,6-5.87,5.58-10-.14-1.37-2.3-1.39-2.16,0a8.63,8.63,0,0,1-5.64,8.63c-3.74,1.46-8,.23-11.13-2s-6-6.45-5.29-10.58a6.5,6.5,0,0,1,3-4.36,6.62,6.62,0,0,1,2.39-1,15,15,0,0,1,2.51.06.28.28,0,0,0,.19-.47Z"/><path d="M73.63,92.2A14.93,14.93,0,0,1,77,93.36a6.82,6.82,0,0,1,2.59,2.44,6.23,6.23,0,0,1,.84,3.5,12.16,12.16,0,0,1-.27,1.81,12.19,12.19,0,0,1-.28,1.79c-.15.41.43.69.71.41s.62-.49.88-.77a3.23,3.23,0,0,0,.58-1,6.57,6.57,0,0,0,.42-2.32,8.23,8.23,0,0,0-1.19-4.51,8,8,0,0,0-3.34-3,5.74,5.74,0,0,0-4.31-.4.45.45,0,0,0,0,.86Z"/><path d="M75.9,90.94c2.06-.29,3.67-2.85,4-4.73.45-2.52-.83-4.46-3-5.67a11.06,11.06,0,0,0-11.06.58c-1.68,1.08-3.62,2.81-3.56,5a.33.33,0,0,0,.56.23c1.45-1.34,2.43-3,4.19-4A10.15,10.15,0,0,1,72.72,81c1.86.12,4.53,1,5.41,2.77a4.09,4.09,0,0,1-.3,3.6,5.52,5.52,0,0,1-1,1.36c-.47.44-1,.72-1.5,1.13s.06,1.13.61,1Z"/><path d="M63.63,84.34c2-1.81.65-5.34-.77-7-1.93-2.3-5.12-3.5-8-3.92a9,9,0,0,0-7.63,2.3,8.58,8.58,0,0,0-2.74,6.92A9.11,9.11,0,0,0,49,89.72c1,.57,1.94-1,.92-1.56a7.24,7.24,0,0,1-3.71-6.43,7.08,7.08,0,0,1,4.34-6.15c2.79-1.19,6.39-.23,8.94,1.21a6.8,6.8,0,0,1,3,3.09c.61,1.4.35,2.66.27,4.1a.5.5,0,0,0,.85.36Z"/><path d="M60.39,87.71a2.69,2.69,0,0,0-1.63-.8,5.12,5.12,0,0,0-1.95-.06A4.4,4.4,0,0,0,53.69,89a4.46,4.46,0,0,0-.39,3.57,4,4,0,0,0,3,2.51,8.68,8.68,0,0,0,7.1-1.32,3.86,3.86,0,0,0,.06-6.23,5.24,5.24,0,0,0-4.37-1,6.28,6.28,0,0,0-4,2.82.38.38,0,0,0,.51.52c1.72-1,4-2.51,6.08-1.53a2.89,2.89,0,0,1,1.7,2,2.27,2.27,0,0,1-.72,1.93c-2.08,2.06-9.38,2.41-8-2.06A3.29,3.29,0,0,1,57,88.13a5.85,5.85,0,0,1,1.76-.29,11.23,11.23,0,0,0,1.64,0c.08,0,.08-.11,0-.17Z"/><path d="M81.84,95.07A17,17,0,0,1,80.28,92a8.68,8.68,0,0,1-.36-3.24,10.26,10.26,0,0,1,2.47-5.91,12.11,12.11,0,0,1,5.19-3.59,10.47,10.47,0,0,1,3-.61c1-.06,2.39.4,3.14-.31a.79.79,0,0,0,.12-.94c-.53-1.06-2.51-.86-3.5-.77a12.82,12.82,0,0,0-3.72.85,13.7,13.7,0,0,0-6,4.57,11.15,11.15,0,0,0-2.26,7.21c.13,2.25,1,5.21,3.32,6.06a.18.18,0,0,0,.21-.26Z"/><path d="M77.12,91l.58-.15-.53-.14,0,.05a.7.7,0,0,0,.68.18l.4-.09-.58-.08h0l-.16-.12h0a.84.84,0,0,0,.35.21.79.79,0,0,0,.43,0l.44-.18a.85.85,0,0,0,.47-.36.84.84,0,0,0,.08-.6.79.79,0,0,0-1-.55l-.45.14a.83.83,0,0,0-.59.77v0l0-.21v0l.34-.45-.36.18a.68.68,0,0,0-.34.61v0l.27-.47-.54.25a.55.55,0,0,0-.23.29.58.58,0,0,0,0,.32.49.49,0,0,0,.58.29Z"/><path d="M77.89,90a2.9,2.9,0,0,0,.23,1.39,3.54,3.54,0,0,0,.26.47c.09.12.18.24.28.35a.93.93,0,0,0,.5.3L79,92.48a.92.92,0,0,0,.92.1.57.57,0,0,0,.28-.52,1,1,0,0,0-.25-.57l.1.14a.83.83,0,0,1-.08-.12l.07.17a1.15,1.15,0,0,0-.27-.48L79.62,91l.12.15a2.79,2.79,0,0,1-.36-.63l.08.18a2.19,2.19,0,0,1-.16-.57l0,.19a1.62,1.62,0,0,1,0-.31.73.73,0,0,0-.71-.72.74.74,0,0,0-.51.21.79.79,0,0,0-.2.51Z"/><path d="M78.73,89.06a1.8,1.8,0,0,0-.19.2l-.15.19c0,.06,0,0,0,0s-.09.11-.13.17a2.34,2.34,0,0,0-.3.59,2.77,2.77,0,0,0-.08,1.37,3.39,3.39,0,0,0,.46,1.15c0,.07.09.13.13.19s.17.22.27.24-.06,0-.07-.06l0,0,.19.15a2.33,2.33,0,0,0,.5.31,2.11,2.11,0,0,0,1.46.17.45.45,0,0,0,0-.87,1.81,1.81,0,0,1-.31-.09c.08,0,0,0,0,0l-.14-.08s-.2-.16-.23-.15.08.07,0,0l-.06-.05-.08-.08L80,92.29c-.1-.11.08.12,0,0l-.09-.13c0-.07,0,0,0,.08a.92.92,0,0,0-.09-.23,5.14,5.14,0,0,1-.29-.51c-.07-.13.06.2,0,0a.78.78,0,0,1,0-.14,2.86,2.86,0,0,1-.07-.28c0-.06,0-.27,0,0s-.07-.47,0-.23,0,0,0-.06v-.28c0-.07,0-.24,0,0,0-.09,0-.18,0-.27a.88.88,0,0,1,.05-.15c0-.13-.08.12,0,0a1,1,0,0,0,.08-.14c.06-.09-.08.1,0,0a.63.63,0,1,0-.89-.9Z"/><path d="M107.21,101.68h.09l-.31-.23v.08l.07.16a.55.55,0,0,0,.16.18.68.68,0,0,0,.39.13l.36,0h.26a.53.53,0,0,0,.27-.06.28.28,0,0,0,.15-.08l.08-.07a.68.68,0,0,0,0-.94.83.83,0,0,0-.15-.11l-.16-.07-.18,0H108l-.36,0-.17,0a.46.46,0,0,0-.22.11.59.59,0,0,0-.23.33v.09l.31-.24h-.09a.36.36,0,0,0-.22.09.33.33,0,0,0-.09.22.33.33,0,0,0,.31.32Z"/><path d="M97.13,100.5c7.74,5,21.37-1.46,21.29-11a7.31,7.31,0,0,0-3.11-6.06c-.64-.41-2.28-1.1-3-.4s.43,1.23.9,1.51a6,6,0,0,1,2.92,6.14,11.6,11.6,0,0,1-3.93,6.58c-4.11,3.69-9.73,3.92-14.83,2.55a.38.38,0,0,0-.29.69Z"/><path d="M114.76,99.52c.9,1.3,2.63-.44,1.67-1.59a2,2,0,0,0-2.26-.22c-1,.37-1.94.73-2.93,1.06a56.35,56.35,0,0,1-5.87,1.56c-2,.42-4.27.41-6,1.49a.6.6,0,0,0,.14,1.07,7.88,7.88,0,0,0,4.28,0c1.36-.23,2.72-.52,4.06-.88s2.66-.77,4-1.23c.65-.23,1.3-.47,1.94-.73l1.07-.44c.15-.06.29-.12.45-.17.33,0,.48-.31.42-.83-.55-.34-1.31.35-.92.92Z"/><path d="M113.24,82.78V83a.76.76,0,0,0,.35.85,7.53,7.53,0,0,0,7,0,7.83,7.83,0,0,0,4-6.07,9.13,9.13,0,0,0-9.12-10,9.48,9.48,0,0,0-4.2,1.1c-1.19.62-2.82,1.75-3.13,3.14a.7.7,0,0,0,1,.78c.92-.56,1.53-1.48,2.46-2a8,8,0,0,1,2.91-1.11,7.35,7.35,0,0,1,5.71,1.56,7.14,7.14,0,0,1,2.72,5.34,6.47,6.47,0,0,1-2.34,5.35,6.06,6.06,0,0,1-6.25.66.76.76,0,0,0-.91.12l-.15,0a.07.07,0,0,0-.05.07Z"/><path d="M109.32,71.12c1,.77,2-.5,2.47-1.25a7.6,7.6,0,0,0,.95-3.46,9.29,9.29,0,0,0-2.41-6.71c-3.5-3.83-9.92-3.13-13.12.75-2.29,2.78-2.32,6.49-1.44,9.83.27,1,1.68.57,1.55-.42-.33-2.45-.65-5.22.66-7.44a7.56,7.56,0,0,1,4.59-3.34,6.75,6.75,0,0,1,5.47.82,7.43,7.43,0,0,1,3,4.66,7.53,7.53,0,0,1,0,3.17c-.2,1-.56,2.49-1.6,2.83a.34.34,0,0,0-.15.56Z"/><path d="M95.94,65.88a5,5,0,0,0-1.78-1.53,5.93,5.93,0,0,0-2.45-.56A7.75,7.75,0,0,0,87,65.37c-3.11,2.37-3.41,6.67-1.51,9.92a9.41,9.41,0,0,0,2.05,2.44,9.76,9.76,0,0,0,1.4,1,4.11,4.11,0,0,0,.82.39,1.93,1.93,0,0,0,.89-.1.68.68,0,0,0,.4-1,2.14,2.14,0,0,0-.85-.81,7.83,7.83,0,0,1-1-.62A7.39,7.39,0,0,1,86,70.81a5.61,5.61,0,0,1,5.1-5.45,6.62,6.62,0,0,1,2.13,0,5.84,5.84,0,0,1,2.23.91.31.31,0,0,0,.44-.44Z"/><path d="M126.15,67.17a5.81,5.81,0,0,0-.58-.09l.28.21c-.1-.35-.42-.38-.73-.43a2.38,2.38,0,0,0-1,.11,4.61,4.61,0,0,0-1.6,1,4.17,4.17,0,0,0-1.29,3.33,3.86,3.86,0,0,0,.57,1.86,2,2,0,0,0,.77.58.48.48,0,0,0,.64-.56,4.42,4.42,0,0,0-.23-.81,4.57,4.57,0,0,1-.25-.79,3,3,0,0,1,0-1.48,2.77,2.77,0,0,1,1-1.4,3.35,3.35,0,0,1,.75-.44,3.58,3.58,0,0,0,1-.44l-.23.13c.27-.09.58-.15.65-.47l-.28.21a2.9,2.9,0,0,1,.51,0,.25.25,0,0,0,.07-.48Z"/><path d="M116.23,91.18a6.77,6.77,0,0,0,3.53.48,8.22,8.22,0,0,0,3.15-1.48,8.58,8.58,0,0,0,3.54-6l-1.14.86a9.57,9.57,0,0,0,7.56-2.23,15.58,15.58,0,0,0,2.88-3.13,11.73,11.73,0,0,0,2.05-3.93.86.86,0,0,0-1.56-.66c-.64,1-1,2.15-1.7,3.16A14.36,14.36,0,0,1,132.17,81a7.89,7.89,0,0,1-6.38,2.27.93.93,0,0,0-1.14.87,6.85,6.85,0,0,1-2.94,4.76,9.43,9.43,0,0,1-5.41,1.71c-.32,0-.35.44-.07.54Z"/><path d="M122.12,81.5a5.74,5.74,0,0,0,4.11.84,4.37,4.37,0,0,0,3.06-2.16,4,4,0,0,0,.23-3.63,3.26,3.26,0,0,0-2.64-1.77c-1.15-.14-2.79.37-2.94,1.71a.5.5,0,0,0,.75.43,6.12,6.12,0,0,1,.91-.7,2.12,2.12,0,0,1,1-.19,2.07,2.07,0,0,1,1.74,1,2.58,2.58,0,0,1,0,2.4,3.38,3.38,0,0,1-2.17,1.77,6.3,6.3,0,0,1-3.74-.27c-.37-.14-.57.42-.26.61Z"/><path d="M111.45,61.45c-.28,5.53,6.7,8.7,11.22,6.28,2.61-1.4,4.18-4.13,5.06-6.86,1-3,1.74-6.69-.07-9.49a7.71,7.71,0,0,0-8-3.42l1,1.31a9.1,9.1,0,0,0,1.34-6.8c-.39-2.07-1.58-4.78-3.76-5.45a.65.65,0,0,0-.72.94c1,1.67,2.3,2.82,2.69,4.84a7.45,7.45,0,0,1-1.09,5.57.9.9,0,0,0,1,1.31,5.56,5.56,0,0,1,6.63,4,11.84,11.84,0,0,1-.54,5.24,15.82,15.82,0,0,1-1.67,4.19c-1.44,2.4-3.9,4-6.75,3.31a7.89,7.89,0,0,1-5.56-5.13.4.4,0,0,0-.78.11Z"/><path d="M121.58,42a10.48,10.48,0,0,0,.07,1.37c0,.49.15,1,.21,1.44a8.16,8.16,0,0,1-.12,2.83.87.87,0,0,0,1.06,1.06,2.54,2.54,0,0,1,2,.41c.26.18.51.53.79.78a1,1,0,0,0,.89.27.82.82,0,0,0,.57-.78c0-1-1.13-1.74-1.91-2.09a4.28,4.28,0,0,0-2.8-.25l1.06,1.06a9.86,9.86,0,0,0,.06-3.51,4,4,0,0,0-1.53-2.79.23.23,0,0,0-.35.2Z"/><path d="M124.77,67.69l.66-.7c.23-.24.44-.49.69-.71.49-.43,1-.87,1.44-1.31l-.28.16a.89.89,0,0,0,.46-.24l-1-1-1.46,1.55-.7.79a2.18,2.18,0,0,0-.38.57,2.36,2.36,0,0,0-.12.28,1.32,1.32,0,0,0,0,.34c0,.32.33.51.59.45,0,0,0,0,0,0a.6.6,0,0,0,.32-.1l.2-.1a2.59,2.59,0,0,0,.51-.42l.7-.78,1.38-1.59a.73.73,0,0,0,0-1,.71.71,0,0,0-1,0,1,1,0,0,0-.26.63l.19-.45c-.42.53-.84,1.06-1.24,1.6-.18.24-.4.46-.6.68l-.66.73a.44.44,0,0,0,0,.61.43.43,0,0,0,.6,0Z"/><path d="M125.91,65.5l-3.11,1.35c-1,.46-2.08.88-3.06,1.43a.75.75,0,0,0,.75,1.29c1-.45,2-1,3-1.57l2.94-1.64a.5.5,0,1,0-.51-.86Z"/><path d="M113.14,67.74h1.12a3.12,3.12,0,0,0,.75,0,.93.93,0,0,0,.48-.32.71.71,0,0,1,.15-.15.54.54,0,0,0,0-.76,1.14,1.14,0,0,1-.15-.16A.92.92,0,0,0,115,66a2.48,2.48,0,0,0-.77-.06l-1.12,0a.89.89,0,0,0-.89.89.91.91,0,0,0,.89.89Z"/><path d="M126.36,44.57l0,0,0,0,0,0-.09,0,.16,0c-.07,0,.09,0,0,0a.65.65,0,0,0-.24,0c-.07,0,.1,0,0,0h-.13c-.05,0,0,0,0,0l-.09,0-.08,0c-.08,0,.1.06,0,0l.22.53v0a.66.66,0,0,0-.17-.64s-.11-.13,0,0,0,0,0,0a.69.69,0,0,0-1.08-.14l-.17.21.43-.32a.89.89,0,0,0-.65.54,3.34,3.34,0,0,0-.17.44,2.64,2.64,0,0,0,0,1,1.56,1.56,0,0,0,.1.37,2.3,2.3,0,0,0,.32.49,1.3,1.3,0,0,0,.74.52.71.71,0,0,0,.88-.88v0l0,.2a1.06,1.06,0,0,0-.13-.47l-.06-.14.08.2a2,2,0,0,1-.11-.4l0,.24a2.08,2.08,0,0,0,0-.36.83.83,0,0,1,0-.15,1.59,1.59,0,0,1-.06-.3l0,.24a2.17,2.17,0,0,1,0-.51l0,.22a1,1,0,0,1,0-.17.92.92,0,0,0-.11-.72l.07.54,0-.08-1.15.31a1.83,1.83,0,0,0,.35.25.72.72,0,0,0,.41.07.53.53,0,0,0,.37-.18l0,0-.46.12a1.43,1.43,0,0,0,.89-.06.49.49,0,0,0,.26-.21s0,0,0,0,0,0,0,0l.12-.09a1.26,1.26,0,0,0,.25-.31.3.3,0,1,0-.52-.3Z"/><path d="M123.61,45a3.26,3.26,0,0,0-.25,1.41,2.8,2.8,0,0,0,.17.76,3.93,3.93,0,0,0,.18.43.9.9,0,0,0,.56.43l-.29-.23a3.45,3.45,0,0,0,.2.32.42.42,0,0,0,.52.17.42.42,0,0,0,.25-.5c0-.12-.06-.24-.08-.36l-.05.37a.83.83,0,0,0,.18-.55c0-.09,0-.17,0-.26a4.71,4.71,0,0,1,0-.53l0,.22c.06-.41.05-.83.1-1.25l0,.22a2,2,0,0,0,0-.24.86.86,0,0,0-.07-.59.77.77,0,0,0-1.06-.28,1,1,0,0,0-.36.46Z"/><path d="M119.64,38.3c-.42-.29-.54-.81-1-1.12a11.66,11.66,0,0,0-1.89-1c-1.15-.51-2.32-1-3.52-1.38A37.78,37.78,0,0,0,105.17,33a5.38,5.38,0,0,0-5.72,2.94,9.63,9.63,0,0,0-.21,7.61c.4.88,1.55.31,1.63-.44a32,32,0,0,0-.22-3.51,6,6,0,0,1,.67-2.91c1.24-2.21,3.55-1.89,5.72-1.56a40.6,40.6,0,0,1,6.43,1.52c1,.33,2,.7,3,1.1a16.54,16.54,0,0,0,1.65.64c.47.14,1,0,1.42.12.13.05.19-.14.09-.21Z"/><path d="M99.69,35.12a1.37,1.37,0,0,0,.23-1.39c-.14-.57-.31-1.14-.47-1.71-.31-1.17-.71-2.32-1-3.49L96.71,29a7.38,7.38,0,0,0,7.23,4.54l-.27-2a6,6,0,0,1-3.09.26l.74.74a12.13,12.13,0,0,0-1.4-4l-1.2,1.56,7.12,2.77a1.08,1.08,0,0,0,1.31-.74,1.1,1.1,0,0,0-.75-1.31L99.28,28c-.91-.35-1.61.82-1.2,1.56a10.67,10.67,0,0,1,1.19,3.5,1,1,0,0,0,.74.74,8.14,8.14,0,0,0,4.21-.31,1,1,0,0,0-.28-2,5.52,5.52,0,0,1-3.24-.75,6.92,6.92,0,0,1-2.37-2.41A.89.89,0,0,0,97.22,28,.88.88,0,0,0,96.71,29c.43,1.13.79,2.29,1.22,3.43.22.55.42,1.11.64,1.66s.42.91,1,1a.11.11,0,0,0,.11,0Z"/><path d="M100.36,37.72q0,.35,0,.69l.2-.34c-.44.3-.29.94-.22,1.4a9,9,0,0,0,.38,1.44,9,9,0,0,0,4,4.74,7.07,7.07,0,0,0,3.08,1.05c1,.07,1.15-1.44.23-1.7a10.32,10.32,0,0,1-2.48-.88,8.54,8.54,0,0,1-2-1.6A9.05,9.05,0,0,1,102,40.39a7.12,7.12,0,0,1-.48-1.23c-.12-.42-.16-.95-.61-1.13l.27.28a5.9,5.9,0,0,1-.06-.59.36.36,0,0,0-.72,0Z"/><path d="M107.19,45.49c-.53-.93-2-1.36-3-1.53a9.58,9.58,0,0,0-3.62,0A9.43,9.43,0,0,0,95,47.75a9.08,9.08,0,0,0-1.71,6.66c.42,2.58,2.51,4,4.88,4.57a15.82,15.82,0,0,0,4.43.54,10.19,10.19,0,0,0,2.12-.28,3.53,3.53,0,0,0,1.9-1.14.56.56,0,0,0-.39-.94,8.33,8.33,0,0,0-1.5.05c-.53.09-1.05.2-1.58.24a13.9,13.9,0,0,1-3.16-.14c-1.77-.3-4-.78-4.65-2.73C94.17,51,97.06,47,100.36,45.9a8.69,8.69,0,0,1,3.24-.45,11.45,11.45,0,0,1,1.75.21,5.11,5.11,0,0,0,1.6.26.29.29,0,0,0,.24-.43Z"/><path d="M114.27,47.91a3.3,3.3,0,0,0-1-.2,2.82,2.82,0,0,0-1.16.4,3.5,3.5,0,0,0-1.48,1.63,3.27,3.27,0,0,0,1.11,4,3.44,3.44,0,0,0,3.93.22,3.91,3.91,0,0,0,1.56-4,4.85,4.85,0,0,0-1.22-2.2,3.64,3.64,0,0,0-1-.76,2,2,0,0,0-1.54-.32.77.77,0,0,0-.34,1.28,1.45,1.45,0,0,0,.57.34c.14,0,.28.08.41.14l.2.1.45.26a2.17,2.17,0,0,1,.93,1,2.35,2.35,0,0,1-.52,2.53,1.63,1.63,0,0,1-.55.38c-.13.07.16-.05-.06,0l-.15.05-.18,0-.11,0h0c-.11,0-.22,0-.34,0h-.11l-.12,0-.33-.09-.18-.06c.14.05-.08,0-.09,0l-.33-.19-.12-.09c.1.07,0,0,0,0l-.27-.26c-.1-.1,0,0,0,0l-.15-.22s-.15-.29-.1-.18a2.47,2.47,0,0,1-.11-.36s0-.14,0,0a1.49,1.49,0,0,1,0-.21,2.44,2.44,0,0,1,0-.34,2.48,2.48,0,0,1,.87-1.37,2.25,2.25,0,0,1,.6-.35l.43-.18a1,1,0,0,1,.44-.13.41.41,0,0,0,.11-.81Z"/><path d="M101.78,76.54c-1.47-1.09-3.44-.22-4.38,1.14a3.43,3.43,0,0,0,.75,4.69,4.85,4.85,0,0,0,4.9.51,4.52,4.52,0,0,0,2.46-5,3.51,3.51,0,0,0-2-2.38,3.35,3.35,0,0,0-1.62-.34,1.79,1.79,0,0,0-1.55.84.65.65,0,0,0,.56,1,2.12,2.12,0,0,0,.61-.07l.21-.05c.16,0-.19,0,.08,0a2.1,2.1,0,0,1,.92.09A2,2,0,0,1,104,78a2.87,2.87,0,0,1-1.35,3.41,3.4,3.4,0,0,1-3.19,0,2,2,0,0,1-1.08-2.62c.43-1,1.76-2.09,2.95-1.5a.45.45,0,0,0,.46-.78Z"/><path d="M79.28,64.83c-.11,1.37.78,2.85,1.21,4.12a12.59,12.59,0,0,1,.78,4.42c-.07,2.3-1.21,4.89-3.5,5.74a14.79,14.79,0,0,1-8.08.1,9.3,9.3,0,0,1-6.09-4.15,7.45,7.45,0,0,1-1-3.65,12.38,12.38,0,0,1,.9-3.64c.17-.56-.54-1.2-1.06-.82-2.24,1.7-2,5.26-1.08,7.64a10.41,10.41,0,0,0,6.31,5.87,18,18,0,0,0,9.63.58,7.24,7.24,0,0,0,5.49-6,11.68,11.68,0,0,0-.34-5.35,17.49,17.49,0,0,0-1.06-2.83,5.57,5.57,0,0,0-1.57-2.32c-.23-.16-.48.06-.5.28Z"/><path d="M62.75,66.26a3.26,3.26,0,0,1-.4,1.4,5,5,0,0,1-.87,1.45,6,6,0,0,1-2.66,1.63,32.27,32.27,0,0,1-3.34.9,7,7,0,0,1-3.6.11,5,5,0,0,1-3.16-3.47,5.26,5.26,0,0,1,1-4.78,7.19,7.19,0,0,1,2.37-1.9,11.56,11.56,0,0,1,3.06-.83c1.12-.23.76-1.79-.25-1.87a8.51,8.51,0,0,0-6.39,3,7.32,7.32,0,0,0-1.78,6.45,7.07,7.07,0,0,0,4,5,7.38,7.38,0,0,0,4.14.33,22.12,22.12,0,0,0,4.36-1.17,7.88,7.88,0,0,0,3.56-2.42,4.51,4.51,0,0,0,.91-1.94,3.82,3.82,0,0,0-.36-1.94c-.09-.28-.58-.25-.54.07Z"/><path d="M55.29,59.15a3.1,3.1,0,0,1-.2-.42s-.47-.15-.63-.24a6.79,6.79,0,0,1-.85-.54A6.63,6.63,0,0,1,52,56.06,12.24,12.24,0,0,1,50.5,51.7c-.61-3.76-.37-8,2.67-10.69,5.8-5.09,15.31-4,19.5,2.59A16.86,16.86,0,0,1,74.86,50c.19,1.18.35,2.39.44,3.59.06.7.22,2.15-.26,2.73a.63.63,0,0,0,.77,1c2.26-1.23,1.71-3.65,1.44-5.82a23.33,23.33,0,0,0-2.14-8,14.82,14.82,0,0,0-11.64-7.67c-4.86-.47-10.5,1.57-13.33,5.7-2.59,3.77-2.16,9.8-.4,13.84a7.8,7.8,0,0,0,4.47,4.53c.68.22,1.6.25,1.88-.57.19-.57-.14-1-.71-.87-.36.05-.34.55-.09.71Z"/><path d="M75.94,57c4.08-1.3,8.86-3.82,13.16-1.74a3.34,3.34,0,0,1,2,4.22c-.75,1.92-2.89,3.27-4.73,4a12.61,12.61,0,0,1-3.73.88,6.64,6.64,0,0,1-2-.14,5.25,5.25,0,0,1-.82-.27c-.39-.16-.71-.11-1.09-.23-.69-.22-1.08.65-.66,1.14.22.26.33.57.63.76a3.82,3.82,0,0,0,.93.39,7.35,7.35,0,0,0,2.23.38,13.18,13.18,0,0,0,4.36-.69,11,11,0,0,0,6.38-4.59,5.27,5.27,0,0,0-.94-6.58,9.41,9.41,0,0,0-6.71-1.95c-3.25.18-7.08,1.23-9.58,3.4a.63.63,0,0,0,.61,1Z"/><path d="M77.11,52.13a8.81,8.81,0,0,0,.89-.38c.3-.14.62-.19.92-.34l-1.2-.69c0,.86,0,1.7,0,2.55a1,1,0,0,0,.7.92,8.14,8.14,0,0,0,2.46.2c.81-.07,2-.17,2.54-.85a.9.9,0,0,0,.22-.81.85.85,0,0,0-.58-.58,2.8,2.8,0,0,0-1.32.08l-.48.1-.11,0-.27,0c-.34,0-.68,0-1,0l-.54,0-.21,0c-.34,0,.16,0-.18,0l.7.91c-.1-.93-.19-1.84-.38-2.76A.8.8,0,0,0,78,50.16c-.23.2-.37.47-.6.67a7.49,7.49,0,0,0-.63.63c-.26.27,0,.83.38.67Z"/><path d="M83,52.7a38.31,38.31,0,0,0,7.12-2.42c2.32-1,4.6-2,6.82-3.23L95.75,45l-7.38,4.35a1.23,1.23,0,0,0,.29,2.22,5.64,5.64,0,0,1,3.82,3.6l2-1.2a10.13,10.13,0,0,0-8.44-3.39L87,52.71a2.72,2.72,0,0,1,4.76,1.57c.1,1.59,2.59,1.61,2.5,0a10.91,10.91,0,0,1,.31-3.37c.29-1.12,1-2.14,1.17-3.26.14-.78-.72-1.8-1.53-1.19a6.57,6.57,0,0,0-2,3.67,13.22,13.22,0,0,0-.43,4.15h2.5a5.35,5.35,0,0,0-3.44-4.74,5.29,5.29,0,0,0-5.59,1.4c-.67.72-.26,2.24.89,2.13a7.84,7.84,0,0,1,6.7,2.63,1.24,1.24,0,0,0,2.06-1.2,8.23,8.23,0,0,0-5.54-5.28l.29,2.21L97,47.05A1.19,1.19,0,0,0,95.75,45c-2.17,1.18-4.37,2.28-6.63,3.27s-4.56,1.82-6.79,2.84c-.94.44-.24,1.79.68,1.6Z"/><path d="M99.44,44.53a4.15,4.15,0,0,1,.32-.27l-.63.16a1.12,1.12,0,0,0,1-.22l.15-.08c-.08,0,0,0,0,0s.07,0,0,0a2.21,2.21,0,0,0,.54-.16l.15-.07c.13-.07-.15.05,0,0l.32-.11a5,5,0,0,1,.69-.19,1,1,0,0,0-.28-2,7.66,7.66,0,0,0-6.24,4.24,1.09,1.09,0,0,0,1.88,1.1,5,5,0,0,1,.39-.72,3.62,3.62,0,0,1,.22-.32c.11-.16.06,0,0,0s.13-.16.15-.18a5.73,5.73,0,0,1,.54-.56l.29-.26c.05,0,.22-.21,0,0,0,0,.11-.07.16-.11a7.39,7.39,0,0,1,.66-.42l.38-.19.17-.09c.08,0,.18-.12,0,0a2.67,2.67,0,0,1,.74-.24l.42-.1.19,0c.22,0-.21,0,0,0l-.28-2a5.18,5.18,0,0,0-1.6.65,1.38,1.38,0,0,0-.31.28c-.23.3.12-.09-.08.09l-.27.26a3.31,3.31,0,0,0-.26.27.9.9,0,0,0-.19.85l.17-.63-.27.32a.62.62,0,0,0,.87.87Z"/><path d="M97.35,31.44l.16.57,0,.17c0-.08,0-.07,0,0a2.66,2.66,0,0,0,.07.39c.1.39.24.76.37,1.13l.39,1.13a2.28,2.28,0,0,0,.85,1.28.76.76,0,0,0,1.1-.45,2.11,2.11,0,0,0-.17-1.41l-.43-1.11c-.16-.42-.32-.84-.52-1.24a3.45,3.45,0,0,0-.2-.32c-.07-.07-.07-.08,0,0l-.07-.15-.25-.54a.73.73,0,0,0-1.33.56Z"/><path d="M100.65,30.09a3.59,3.59,0,0,0-.82,1.29l.09-.22a2.64,2.64,0,0,0-.32,1.35,1,1,0,0,0,.74,1,2.61,2.61,0,0,0,.54.08,1.26,1.26,0,0,0,.82-.38l-.64.27a4.23,4.23,0,0,0,2.82-1.24.67.67,0,0,0-.81-1l-.35.2a.2.2,0,0,0-.08,0c-.12,0,.11-.05,0,0l-.19.06a3.64,3.64,0,0,1-.79.19l.22,0a4,4,0,0,1-.85,0l.64.26a1.36,1.36,0,0,0-.57-.36,2.87,2.87,0,0,0-.52-.05l1,1a2.15,2.15,0,0,1,0-.62l0,.26a4.8,4.8,0,0,0,0-.52l0,.24c0-.1.06-.19.1-.29l-.09.22a2.58,2.58,0,0,1,.29-.51l-.14.18.12-.14a.93.93,0,0,0,.25-.62.87.87,0,0,0-1.49-.62Z"/><path d="M107,30.17l0,.54a.2.2,0,0,0,.19.19.2.2,0,0,0,.19-.19l0-.54a.25.25,0,0,0-.06-.15.26.26,0,0,0-.16-.07.24.24,0,0,0-.22.22Z"/><path d="M82.45,66l0,.94-.39-.11a.38.38,0,0,1,.13.09l-.29-.3q.09.15,0,0c0-.1,0-.09,0,0a2.66,2.66,0,0,0,0,.39c0,.31,0,.63,0,.94,0,.65,0,1.31,0,2a38.5,38.5,0,0,0,.19,4,1,1,0,0,0,2-.27,9.49,9.49,0,0,1,.23-4.3c.18-.71.4-1.42.63-2.12A4.56,4.56,0,0,0,85.59,65a.86.86,0,0,0-1.26-.51c-.7.44-.92,1.5-1.15,2.26a15.31,15.31,0,0,0-.5,2.23c-.12.77-.22,1.55-.29,2.33s-.21,1.57-.28,2.36h2a29.89,29.89,0,0,0-.11-3.41,25.58,25.58,0,0,0-.2-3.5,1.69,1.69,0,0,0-.71-1.24,1,1,0,0,0-1.3.18c-.49.63,0,1.83.9,1.35A.59.59,0,0,0,82.45,66Z"/><path d="M84.33,73.74A27.43,27.43,0,0,1,82,78.1,13.59,13.59,0,0,1,80.54,80a10.18,10.18,0,0,1-.89.85l-.44.35s-.12,0-.12.08c-.07.27.92.49.23.84l-.33.09h-.06c.64.27,1-.64.62-1.06a.88.88,0,0,0-1.42.28,1.09,1.09,0,0,0,1,1.59,2.75,2.75,0,0,0,1.72-1,14.22,14.22,0,0,0,1.25-1.32,10.42,10.42,0,0,0,2.69-6.82c0-.2-.33-.33-.42-.11Z"/><path d="M79.57,81.27a.27.27,0,0,1,.07-.08l-.39.16a.94.94,0,0,0,.69-.27,1.89,1.89,0,0,1,.2-.2l-.53.22c.46,0,.81-.42,1.13-.7l.73-.61.16-.13.1-.08s.18-.18.18-.22-.15.16,0,0l.08-.08.17-.15a2,2,0,0,0,.4-.42l0-.1c0-.07,0,0,0,0l.18-.19a.54.54,0,0,0,.08-.64.57.57,0,0,0-.6-.25l-.23,0c-.07,0,.12,0,0,0h-.09a1.76,1.76,0,0,0-.74.25L81,78l-.12.07s-.14.07,0,0-.13,0-.21.08l-.22.18-.21.16a6.06,6.06,0,0,0-.67.67c-.33.39-.79.84-.64,1.4L79,80l-.16.24a.87.87,0,0,0-.08.74l.06-.43-.06.09a.54.54,0,0,0,.85.66Z"/><path d="M82,78.71a4.73,4.73,0,0,0,1-1.79,13,13,0,0,0,.67-2,16.46,16.46,0,0,0,.51-4.19,2.7,2.7,0,0,0-.65-1.94c-.59-.45-.95.35-1.07.81a10,10,0,0,0-.17,2.12,14.79,14.79,0,0,1-.23,2A22.55,22.55,0,0,1,81.5,76c-.1.37-.2.74-.32,1.11a3.86,3.86,0,0,0-.31,1.2.64.64,0,0,0,1.08.45Z"/><path d="M85.77,63.75l-.31.36a2.34,2.34,0,0,1-.25.3l.3-.08a.82.82,0,0,0-.53.15,1.67,1.67,0,0,0-.23.23.73.73,0,0,0,.88,1.14c.73-.34,1.46-.7,2.15-1.1a8,8,0,0,0,1.1-.72l.43-.34a.74.74,0,0,0,.28-.74l-.1.38.11-.11a.34.34,0,0,0-.33-.57l-.15,0,.37.1c-.39-.35-.88-.11-1.31,0a8.68,8.68,0,0,0-1.2.55c-.71.37-1.41.79-2.09,1.22l1,1a1.53,1.53,0,0,0,.17-.27,1,1,0,0,0,0-.56v.32c0-.1.17-.22.24-.32l.27-.37c.35-.48-.43-1.09-.82-.64Z"/><path d="M85.1,65.46c-.18.27-.36.55-.55.82L85,66a1.09,1.09,0,0,0-.66.55l-.24.43c-.17.3-.34.6-.5.9s-.31.59-.46.88a1.41,1.41,0,0,0-.22.69.9.9,0,0,0,.39.72.86.86,0,0,0,.72,0,1.17,1.17,0,0,0,.56-.58l.48-.87c.15-.29.29-.59.44-.89s.53-.86.38-1.35v.38q.16-.45.36-.9a.62.62,0,0,0-.36-.73.63.63,0,0,0-.77.26Z"/><path d="M81.92,64.44a3.67,3.67,0,0,0-1.41,3.42c.17,1.25,1,2.78,2.41,2.82a.7.7,0,0,0,.49-1.18c-.08-.09-.17-.16-.25-.24l-.11-.12c-.13-.14.06,0,0,0a3.4,3.4,0,0,1-.34-.4l0,0,0,.05s-.08-.11-.09-.13a2.75,2.75,0,0,1-.17-.29.37.37,0,0,0-.07-.14l0,.08,0-.08c0-.1-.07-.21-.09-.31a1,1,0,0,1,0-.17s0-.26,0-.1,0,0,0-.07a.91.91,0,0,1,0-.17,2,2,0,0,1,0-.35s0-.13,0-.17,0,.19,0,0,0-.21.08-.32a.88.88,0,0,0,0-.15c.06-.18-.08.17,0,0s.1-.19.16-.28a.67.67,0,0,1,.09-.14c-.08.1-.09.11,0,0l0,0a3.45,3.45,0,0,1,.28-.26A.82.82,0,0,0,83,64.65a.81.81,0,0,0-1.06-.21Z"/><path d="M84.08,72.9c.12.51.2,1,.3,1.53V74a3.74,3.74,0,0,0,.25,1.71c.13.5.28,1,.42,1.49l.25-.94c-.86.74-1.71,1.5-2.56,2.25a1,1,0,1,0,1.42,1.42c.84-.76,1.69-1.52,2.52-2.3a1,1,0,0,0,.25-.94c-.16-.5-.31-1-.47-1.48a3.88,3.88,0,0,0-.71-1.57L86,74c-.2-.49-.41-.95-.6-1.45a.67.67,0,0,0-1.28.36Z"/><path d="M76.92,90.94l.08.13c1.08,1.85,2.94-1.52.84-1.48h-.29a1,1,0,0,0,0,2h.29c2.1,0,.24-3.33-.84-1.48l-.08.13a.73.73,0,0,0,0,.73Z"/><path d="M74.83,90.83a2.1,2.1,0,0,0,.43,0,1.26,1.26,0,0,0,.46-.3c.26-.23.5-.46.74-.7a16.24,16.24,0,0,0,1.33-1.55,7,7,0,0,0,1.63-3.58.25.25,0,0,0-.42-.18c-.82,1-1.37,2.11-2.11,3.12A12.75,12.75,0,0,1,75.73,89c-.22.23-.45.46-.69.68a1.7,1.7,0,0,0-.32.34,1.74,1.74,0,0,0-.16.47.28.28,0,0,0,.27.36Z"/><path d="M65.2,79.21a2.44,2.44,0,0,1,0,.27l.5-.65,0,0a.82.82,0,0,0-.6.59,2.64,2.64,0,0,1-.15.55l.23-.4,0,0,.18-.15h0l.22-.09a1.14,1.14,0,0,0-.53.36,1.87,1.87,0,0,0-.2.4l.1-.23a2.4,2.4,0,0,1-.27.46l.15-.2a1.88,1.88,0,0,1-.34.35l1.68.7,0-1.21a1.27,1.27,0,0,0-.33-1.1.27.27,0,0,0-.08-.07c-.07-.06.18.37.1.15l-.11-.29a.59.59,0,0,0-.55-.42.6.6,0,0,0-.55.42l-.11.27c-.1.23,0-.14.08-.14s-.06,0-.08.07A1.29,1.29,0,0,0,64.12,80l0,1.21a1,1,0,0,0,1.12,1,1,1,0,0,0,.56-.27,3.17,3.17,0,0,0,.58-.69,1.59,1.59,0,0,0,.15-.29,1.84,1.84,0,0,0,.15-.35,1.07,1.07,0,0,0-.12-.8l.13.47v0l0,.24a3.57,3.57,0,0,0,.09-.8.89.89,0,0,0-.63-.82l0,0,.47.47-.06-.25a.64.64,0,0,0-1.25.16Z"/><path d="M57.12,73.8h.08L57,73.71c.26.31.62.2,1,.23a3.66,3.66,0,0,1,.75.1,3.6,3.6,0,0,1,.44.12l.18.06.15.06.11,0,.21.1c.14.06.27.13.4.2l.36.22.19.13,0,0a7.73,7.73,0,0,1,.64.64c.1.12,0,0,0,0l.12.19c.08.11.15.24.22.35a2.37,2.37,0,0,0,.66.9l-.27-.27c.15.28.23.53.56.64a.54.54,0,0,0,.58-.12.76.76,0,0,0,.24-.74c0-.09,0-.1,0,0a.72.72,0,0,0,0-.41,1.37,1.37,0,0,0-.07-.29,4.62,4.62,0,0,0-1.58-2.14,5.06,5.06,0,0,0-2.55-1.11,4.29,4.29,0,0,0-1.29,0c-.43.08-1.08.2-1.16.71l.14-.18-.06,0c-.22.13-.15.53.13.51Z"/><path d="M58.2,73.8a1.72,1.72,0,0,1,.33.33,2.12,2.12,0,0,0,.33.34c.27.22.54.43.83.63l.74.5.38.24a2.12,2.12,0,0,0,.43.28,1,1,0,0,0,.67.09.88.88,0,0,0,.46-.32.87.87,0,0,0-.07-1.15,5.4,5.4,0,0,0-.92-.64l-.74-.49a6,6,0,0,0-.77-.45,2.14,2.14,0,0,0-.54-.23s-.26-.07-.13,0L59,72.8a.66.66,0,0,0-.82.16.65.65,0,0,0,.05.84Z"/><path d="M55.43,73.45a8.74,8.74,0,0,0,3.26-.23,7.85,7.85,0,0,0,1.56-.56c.51-.25,1.15-.55,1.32-1.14l-.14.26a1.61,1.61,0,0,0,.34-.52.42.42,0,0,0-.41-.54,1.38,1.38,0,0,0-.49.1h.3a2.92,2.92,0,0,0-1.6.47c-.42.17-.85.33-1.29.46a10.54,10.54,0,0,1-2.85.39.66.66,0,0,0-.65.65.67.67,0,0,0,.65.66Z"/><path d="M62.35,77.46c.22.41.43.81.67,1.19.12.19.24.38.37.56a1.9,1.9,0,0,0,.72.69.73.73,0,0,0,.73,0,.7.7,0,0,0,.35-.62,1.1,1.1,0,0,0-.08-.48,3,3,0,0,0-.23-.48c-.11-.19-.25-.38-.37-.56-.29-.43-.62-.83-.94-1.24A.8.8,0,0,0,63,76.3a.88.88,0,0,0-.47.16.79.79,0,0,0-.2,1Z"/><path d="M84.56,76.73l.44,0-.2,0h0l-.46-.36a1.21,1.21,0,0,0,.21.24.71.71,0,0,0,.3.15,2.09,2.09,0,0,0,.34,0h.31a4.3,4.3,0,0,0,.62,0,.82.82,0,0,0,.57-.24A.78.78,0,0,0,87,76a.8.8,0,0,0-.24-.57.87.87,0,0,0-.57-.24,4.3,4.3,0,0,0-.62,0h-.31a2,2,0,0,0-.34,0,1,1,0,0,0-.22.09.93.93,0,0,0-.29.3l.46-.36h0l.2,0-.44,0a.55.55,0,0,0-.28.07.44.44,0,0,0-.22.14.7.7,0,0,0-.21.5.74.74,0,0,0,.21.51l.14.11a.75.75,0,0,0,.36.1Z"/><path d="M91,62.68l0,.08v-.63l0,.09a1.11,1.11,0,0,0-.11.6.92.92,0,0,0,.26.53,3.53,3.53,0,0,0,2.06.94,2.82,2.82,0,0,0,2-.49,1,1,0,0,0,.44-.56,1,1,0,0,0-.1-.74,1,1,0,0,0-1.3-.34s-.22.13-.23.12.34-.15,0,0,.21-.07,0,0a2.49,2.49,0,0,1-.47.12l.26,0a3.09,3.09,0,0,1-.68,0l.25,0L93,62.33l-.16,0-.08,0c-.15,0,.18.09.08,0l-.3-.16L92.39,62c-.08-.06.16.14.09.06L92.4,62a.93.93,0,0,0-.9-.23l-.14,0L92,62l-.06,0a.61.61,0,0,0-.8-.05.6.6,0,0,0-.15.78Z"/><path d="M96,63.45a1.77,1.77,0,0,0,.43-1.38c0-.38,0-.78-.07-1.16A24.19,24.19,0,0,0,96,58.24a18.2,18.2,0,0,0-.64-2.41c-.13-.39-.28-.79-.43-1.17a2.43,2.43,0,0,0-.43-.79,2.78,2.78,0,0,0-.32-.26c-.24-.13-.31-.16-.21-.08a.73.73,0,0,0-1.22.5c.07-.13,0-.07-.07.19a2,2,0,0,0,0,.43,2.21,2.21,0,0,0,.21.75c.14.36.27.73.4,1.1.25.76.48,1.54.66,2.32a21.41,21.41,0,0,1,.42,2.26c.1.84,0,2,.75,2.5a.8.8,0,0,0,1-.13Z"/><path d="M93.05,57.17a6.31,6.31,0,0,1,0,1.51c0,.14,0,.27,0,.4s0,.11,0,0l0,.17c0,.26-.1.52-.17.78s-.07.22-.1.33l-.08.21s-.07.19,0,.09,0,.06,0,.08l-.09.19a3.07,3.07,0,0,1-.17.31l-.21.34-.1.14c-.07.1.1-.11,0,0s-.34.41-.52.6a1,1,0,0,0,0,1.45,1.05,1.05,0,0,0,1.44,0,6.14,6.14,0,0,0,1.84-3.25,5.28,5.28,0,0,0,.08-2,4.54,4.54,0,0,0-.65-1.69c-.26-.47-1.12-.3-1.06.28Z"/><path d="M93.21,62.46h-.07l.4.3a.79.79,0,0,0-.77-.6c-.15,0-.3,0-.45,0l-1,0-1,0a2.29,2.29,0,0,0-1.24.24.78.78,0,0,0-.37.65.74.74,0,0,0,.37.65,1.34,1.34,0,0,0,.68.16l.45,0,.93-.1.89-.1a3.08,3.08,0,0,0,1.14-.21.71.71,0,0,0,.35-.61v0l-.3.4h.07c.47-.08.33-.78-.11-.8Z"/><path d="M95.39,63.62a6.35,6.35,0,0,1,.21-.94c0-.09.13-.23.19-.33s.08-.21.17-.4a5.78,5.78,0,0,1,.47-.8,2.83,2.83,0,0,1,.54-.62c.12-.11.23-.23.34-.34l.16-.13s.22-.17.12-.1l.13-.09.16-.11.4-.28a6.25,6.25,0,0,1,.85-.45c-.16.07,0,0,.06,0l.22-.09.46-.17a1,1,0,0,0,.7-.92.92.92,0,0,0-.13-.49,1,1,0,0,0-1.08-.44,5.81,5.81,0,0,0-3.78,2.49,8.32,8.32,0,0,0-1,1.93,4,4,0,0,0-.19,1.12,8.64,8.64,0,0,0-.06,1c0,.56.92.75,1,.14Z"/><path d="M95.12,63.75l0,.06,0,0s0-.08,0,0a.75.75,0,0,1,0,.16v0l.26-.34a.9.9,0,0,0-.23.08.44.44,0,0,0-.17.16A.12.12,0,0,0,95,64L95,64l-.06.1L95,64l-.1.1.14-.11h0l.82.11a.73.73,0,0,0-.34-.2.77.77,0,0,0-1,.54.72.72,0,0,0,0,.41.93.93,0,0,0,.35.46.52.52,0,0,0,.29.09.55.55,0,0,0,.31,0,.6.6,0,0,0,.26-.14.53.53,0,0,0,.2-.22.49.49,0,0,0,.09-.28.54.54,0,0,0,0-.31.41.41,0,0,0-.09-.2v.68a1.69,1.69,0,0,0,.13-.31,1.88,1.88,0,0,0,0-.33l0-.17a.53.53,0,0,0-.11-.21.66.66,0,0,0-.32-.22l-.07,0,.25.25a1,1,0,0,0-.43-.53.25.25,0,0,0-.34.35Z"/><path d="M121.77,70.21a.67.67,0,0,0,0-1.34.67.67,0,0,0,0,1.34Z"/><path d="M68.5,57.48A5.47,5.47,0,0,0,66.93,57a5,5,0,0,0-1.73.09,6.51,6.51,0,0,0-3,1.63A3.64,3.64,0,0,0,61,61.85,3,3,0,0,0,62.6,64a6.25,6.25,0,0,0,5.93-.35c1.94-1.11,3.3-3.46,2.44-5.69a3.34,3.34,0,0,0-2.59-2.18c-1.16-.18-2.56.14-2.89,1.43a.56.56,0,0,0,.81.63c1-.55,2.45-.76,3.06.55s-.3,3-1.52,3.72a4.88,4.88,0,0,1-4.08.63,1.84,1.84,0,0,1-1.18-1,1.31,1.31,0,0,1-.06-.7A2.22,2.22,0,0,1,63.08,60a5.17,5.17,0,0,1,2.39-1.49A9.16,9.16,0,0,1,68.35,58c.28,0,.42-.43.15-.55Z"/><path d="M19.06,27.24c1.74-.87,2.94-3.07,3.66-4.81a13.81,13.81,0,0,0,1-5.32,11.16,11.16,0,0,0-4.67-9.34,10.46,10.46,0,0,0-9.53-.91c-3.77,1.57-5.11,5.22-5.72,9-.4,2.49-.68,5.16.54,7.48.83,1.59,3.46,4.18,5.26,2.56a.84.84,0,0,0,0-1.17c-.52-.61-1.17-.61-1.81-1A3.94,3.94,0,0,1,6.38,22c-.8-1.69-.52-3.75-.23-5.52.47-3,1.24-6.12,4.22-7.43a8.12,8.12,0,0,1,7.17.47,8.79,8.79,0,0,1,4,7,12,12,0,0,1-.65,4.93,11.49,11.49,0,0,1-1.12,2.28c-.53.87-1.26,1.64-1.71,2.56a.72.72,0,0,0,1,1Z"/><path d="M8.75,25.14c-2.06-.85-4.22.43-5.38,2.14a6.07,6.07,0,0,0-.68,5.64c1.62,3.91,7.44,4.46,10.08,1.31L11.1,33a9.54,9.54,0,0,0-1.34,7.53c.62,2.6,2.46,5.08,5.33,5.19,5.89.24,8-7.18,7.45-11.86-.34-2.79-1.49-6.06-3.69-7.94-.79-.68-2.24.21-1.55,1.19a21.75,21.75,0,0,1,2.08,3.21A12.16,12.16,0,0,1,20.45,34a10.89,10.89,0,0,1-1.64,7.57,4.48,4.48,0,0,1-3.3,2,3.27,3.27,0,0,1-3.14-2.08A7.36,7.36,0,0,1,12.93,34c.67-1-.89-2.21-1.66-1.29-1.66,2-5.44,2-6.65-.54a4.15,4.15,0,0,1,4-5.71c.83.07.82-1.07.18-1.34Z"/><path d="M23.75,19.38c.9.34,1.76-.93,2.08-1.61a5.17,5.17,0,0,0,.46-2.6A5,5,0,0,0,23.49,11a1,1,0,0,0-1,0,1,1,0,0,0-.49.85c.19,1.53.53,3,.8,4.57a1,1,0,0,0,.86.74,1.09,1.09,0,0,0,1-.5,6.35,6.35,0,0,0,1.05-5l-1,1.35h2l-1-.8c.23.62.45,1.24.73,1.84a1.07,1.07,0,0,0,2-.83c-.16-.54-.38-1.06-.59-1.59a1.16,1.16,0,0,0-1.05-.8l-2,0a1.09,1.09,0,0,0-1,1.36,1.74,1.74,0,0,1,.05.22c.06.35,0-.09,0,.11a4.35,4.35,0,0,1,0,1c0,.19,0-.13,0,.06a2.56,2.56,0,0,1-.05.27,3.17,3.17,0,0,1-.12.44c0,.15-.1.31-.11.34a5.83,5.83,0,0,1-.55.93l1.9.24c-.28-1.42-.49-2.87-.85-4.27l-1.22,1.22.29.08c.06,0,.24.11.06,0l.22.13s.26.19.09,0l.38.35a2.09,2.09,0,0,1,.14.17c-.13-.15,0,0,0,.06a4,4,0,0,1,.27.44c.05.08.08.16.12.24s0,.05,0,0l.06.14a4.91,4.91,0,0,1,.15.51c0,.08,0,.15,0,.23a.77.77,0,0,0,0,.15c0-.09,0-.1,0,0a4.44,4.44,0,0,1,0,1c0-.19,0,0,0,.07s0,.2-.07.3l-.06.21s-.09.26-.06.18l-.08.18-.11.19a2.13,2.13,0,0,1-.16.25c-.1.13.05-.07-.06.07-.3.36-.63.59-.65,1.1a.6.6,0,0,0,.42.55Z"/><path d="M27.42,12.88A26.72,26.72,0,0,0,25,10.83L22.5,9a1.07,1.07,0,0,0-1.57,1.2,7.84,7.84,0,0,0,4.62,4.7,1.11,1.11,0,0,0,1.36-.77,1.13,1.13,0,0,0-.77-1.35L26,12.66c-.08,0-.18-.12,0,0a1.92,1.92,0,0,0-.29-.14c-.2-.1-.38-.21-.57-.32l-.3-.21-.11-.08c-.11-.08.17.14,0,0s-.35-.29-.51-.45L23.8,11s-.08-.09-.11-.14.12.16,0,0l-.21-.3a5.09,5.09,0,0,1-.32-.56A3.18,3.18,0,0,1,23,9.73c-.06-.13,0,0,0,0a.84.84,0,0,0-.08-.2l-1.56,1.2a51,51,0,0,0,4.92,3.5.89.89,0,0,0,1.08-1.4Z"/><path d="M10,6.82a1.6,1.6,0,0,1-.58.37l-.33.09a1.38,1.38,0,0,1-.26,0,.61.61,0,0,1-.22-.13l-.08-.09c.06.07,0,0,0,0a2.33,2.33,0,0,0-.27-.35c-.06-.06-.09-.1,0,0A3.11,3.11,0,0,0,8,6.4l.14,1,.1-.14c.06-.09-.09.1,0,0L8.45,7l.26-.24c.08-.07,0,0,0,0l.17-.12a5.15,5.15,0,0,1,.58-.37l.16-.08.08,0c-.13.06.08,0,.09,0l.17-.06a4.54,4.54,0,0,1,.66-.16c.23,0-.15,0,0,0l.17,0h.36l.36,0a.71.71,0,0,0,.14,0c-.24,0-.06,0,0,0a6,6,0,0,1,.69.2l-.24-1.84c-.17.09.2,0,0,0s.24,0,0,0H12c-.11,0-.09,0,.07,0,0,0-.19,0-.19,0l.09,0-.09,0h0l-.1-.09.08.1s-.18-.4-.05,0l-1.5,1.16,1.84,1a1,1,0,0,0,1.05-1.79,4.46,4.46,0,0,0-3.93-.27C7.9,4.88,6.42,6.12,6.85,7.72A.68.68,0,0,0,8,8L8.1,7.9c.06-.05.06-.05,0,0l.13-.1c.09-.09.16-.19.24-.28S8.8,7.17,9,7l.29-.25s.12-.09.15-.13c-.13.17-.11.09,0,0l.31-.19.17-.09s.25-.11.08,0l.05,0,.19-.06.37-.1a1.38,1.38,0,0,0,.2,0c-.11,0-.22,0,0,0h.35c.12,0,.24,0,.36,0-.28,0-.13,0,0,0l.19,0,.18.06.06,0c.1,0,.08,0-.07,0a1.38,1.38,0,0,0,.34.18l1.05-1.79-1.86-1a1,1,0,0,0-1.13.08A1,1,0,0,0,9.8,4.75a2.32,2.32,0,0,0,1.44,1.43A2.25,2.25,0,0,0,13.1,6a1,1,0,0,0,.48-1,1,1,0,0,0-.72-.84A5.22,5.22,0,0,0,6.61,6.58a.88.88,0,0,0,.13,1,1.55,1.55,0,0,0,1.16.45,8.29,8.29,0,0,0,.89-.24h.12l.21,0a1.7,1.7,0,0,0,.45-.15,2,2,0,0,0,.7-.51A.22.22,0,1,0,10,6.82Z"/><path d="M12.73,23a.62.62,0,0,0-.32.4c-.08.21-.17.4-.27.61a4,4,0,0,0-.35,1.31,10.06,10.06,0,0,0,.06,2.74.54.54,0,0,0,.38.38c2.6.87,5.75-1.31,5.15-4.18a3.75,3.75,0,0,0-2.5-2.77,3,3,0,0,0-3.31,1.28c-.72,1-1,3,.31,3.66a.44.44,0,0,0,.64-.49,4.69,4.69,0,0,1-.26-1.14c0-.11,0-.22,0-.33s0-.12,0,0,0-.09,0-.13l.09-.32a1.06,1.06,0,0,1,.11-.25,2.21,2.21,0,0,1,.72-.84,1.22,1.22,0,0,1,.51-.22,1.78,1.78,0,0,1,.52,0,2.38,2.38,0,0,1,1.85,1.64,2.24,2.24,0,0,1-.67,2.4,3.12,3.12,0,0,1-2.91.69l.38.38a9.12,9.12,0,0,1-.12-2.39c0-.4.08-.79.08-1.18a1.79,1.79,0,0,1,.06-.61.74.74,0,0,0,0-.51.13.13,0,0,0-.18-.08Z"/><path d="M10.06,37.62a1.9,1.9,0,0,0-.21-2.5,3.14,3.14,0,0,0-3.32-.88,8,8,0,0,0-4.87,4.64A9,9,0,0,0,5.34,50.43a9.49,9.49,0,0,0,7.27.94A1.1,1.1,0,0,0,12,49.24a7.15,7.15,0,0,1-9-5.49,7.61,7.61,0,0,1,1.42-5.63c1.2-1.61,4.28-3.56,5.08-.63a.31.31,0,0,0,.51.13Z"/><path d="M12,49.81a4.14,4.14,0,0,0-3.24-.43,5.72,5.72,0,0,0-2.94,2.18,6.41,6.41,0,0,0,.08,7.22c2.61,4.18,9.66,8,13.56,3.35A7,7,0,0,0,21,58.74c.18-1.2.19-3.13-1-3.81a.87.87,0,0,0-1.26.52c-.14.86.29,1.63.25,2.51a4.74,4.74,0,0,1-.72,2.18,4,4,0,0,1-4.18,2,10.42,10.42,0,0,1-5.61-3.37C7.22,57.39,6.28,55.37,7,53.54c.62-1.66,2.67-3.31,4.49-2.55.68.29,1.14-.84.5-1.18Z"/><path d="M18.88,55.45c-.3,2.45,1.84,4.32,4,4.87a8,8,0,0,0,6.74-1.57,7.35,7.35,0,0,0,2.82-6.31,7,7,0,0,0-3.54-5.75c-2.26-1.21-5.59-1.24-7.5.68a1,1,0,0,0,1.16,1.51,5.4,5.4,0,0,1,4.74-.65,4.76,4.76,0,0,1,3,3.68c.74,3.66-2.49,6.75-6,6.61-1.63-.06-3.81-1.21-3.79-3.07,0-1.06-1.49-1-1.61,0Z"/><path d="M22.82,46.7A.87.87,0,0,0,22.9,48a1.54,1.54,0,0,0,1.84.32,5.93,5.93,0,0,0,3-2.89,6.42,6.42,0,0,0-1.48-7.8c-1.17-1-3.16-2.13-4.68-1.37a.8.8,0,0,0,0,1.37,15,15,0,0,0,1.9.61,4.82,4.82,0,0,1,3,3.7,4.92,4.92,0,0,1-.84,3.31,5.17,5.17,0,0,1-1.1,1.14,3.26,3.26,0,0,1-.73.5,1.36,1.36,0,0,1-.29.06l-.21,0c-.21,0-.15.12.19.3.22-.43-.33-.93-.69-.54Z"/><path d="M20.87,33.74a6.82,6.82,0,0,0,1.64,1.91,9.42,9.42,0,0,0,1.1.77,4.2,4.2,0,0,0,.52.26,1.49,1.49,0,0,0,1.1.22.88.88,0,0,0,.51-1.27c-.14-.29-.42-.39-.68-.53s-.33-.18-.49-.27a7.41,7.41,0,0,1-1-.61s-.13-.1,0,0,0,0,0,0L23.31,34c-.14-.13-.27-.25-.4-.39s-.54-.53-.78-.82a.8.8,0,0,0-1.26,1Z"/><path d="M16.49,46.63a2.88,2.88,0,0,0-1.43,1.15,3.43,3.43,0,0,0-.39,1.94,3.55,3.55,0,0,0,.73,2,3,3,0,0,0,2,1,3.93,3.93,0,0,0,3.89-2.58,3.33,3.33,0,0,0-1.57-4,4.27,4.27,0,0,0-2.41-.58,3,3,0,0,0-1.31.33,2.18,2.18,0,0,0-.49.42.94.94,0,0,0-.21.65.28.28,0,0,0,.28.29,1.17,1.17,0,0,0,.43,0l.4-.12c.28-.06.54-.16.82-.21h.28l.44,0c.11,0-.11,0,0,0H18l.2,0,.42.13.11,0h0l.18.09a3,3,0,0,1,.38.23c.13.09,0,0,.07.05l.15.14.14.14.08.09a2.84,2.84,0,0,1,.22.34l.06.13c0-.08,0,0,0,0s0,.1.05.14,0,.12,0,.19a.51.51,0,0,1,0,.13h0a2.69,2.69,0,0,1,0,.49c0-.12,0,.12,0,.14s0,.13-.05.19-.09.24-.05.16l-.12.23a2.55,2.55,0,0,1-.52.7,2.65,2.65,0,0,1-1.48.74,2,2,0,0,1-.79-.07l-.17-.06-.12-.06-.17-.11-.07,0c.07,0,0,0,0,0A2.27,2.27,0,0,1,15.76,50a2.89,2.89,0,0,1-.06-1.65,2.25,2.25,0,0,1,.91-1.43c.14-.09.06-.35-.12-.28Z"/><path d="M3.4,49l-.13.28L3.51,49a1.15,1.15,0,0,0-.45.53,2.35,2.35,0,0,0-.2.56c-.06.32-.1.65-.13,1A8.07,8.07,0,0,0,2.86,53a.94.94,0,0,0,.65.65A2.93,2.93,0,0,0,5,53.74c.63-.09,1.41-.51,1.35-1.26l-.1.4a1.37,1.37,0,0,0,.19-.63.61.61,0,0,0-.61-.61,4,4,0,0,0-.48.08l.61.08a1,1,0,0,0-.79-.12l-.19.07c-.15,0-.29.11-.44.14l-.1,0c-.12,0,.21,0,.1,0H4.25s-.22,0-.25,0l.65.64c0-.13-.06-.26-.08-.4l0-.19c0-.07,0,0,0,.09a.38.38,0,0,1,0-.1,7,7,0,0,1,0-.8,6.45,6.45,0,0,1,0-.76c0-.13,0-.25,0-.38a1.43,1.43,0,0,0-.15-.7l.09.33a.49.49,0,0,1,0-.12c0,.06,0,.05,0,0A.6.6,0,0,0,3.4,49Z"/><path d="M6.05,51.47l.66-.21c.22-.06.44-.15.66-.19H7a1.55,1.55,0,0,0,.71,0L8,51a.91.91,0,0,0,.54-.42.88.88,0,0,0,.1-.69.93.93,0,0,0-1.12-.64,3.22,3.22,0,0,1-.63.15l.23,0a3.52,3.52,0,0,1-.56,0l.21,0A3.29,3.29,0,0,1,6,49.17l.2.09c-.18-.08-.33-.19-.5-.27A.94.94,0,0,0,5,48.91.85.85,0,0,0,4.4,50a1,1,0,0,0,.4.52,2.84,2.84,0,0,0,.5.23l.36.12a4.2,4.2,0,0,0,.93.15l-.22,0A4.22,4.22,0,0,0,8,51l-.48-1.75L7,49.43l-.16.08a.67.67,0,0,0-.2.17c-.06.06,0,0,0,0l.19-.07-1.25.5a.83.83,0,0,0-.43.33.71.71,0,0,0-.07.55.74.74,0,0,0,.89.51Z"/><path d="M3.82,50a2.18,2.18,0,0,0-.74.74,2.51,2.51,0,0,0-.31,1,2.13,2.13,0,0,0,.11.87,2,2,0,0,0,.36.64,2.64,2.64,0,0,0,.4.35.85.85,0,0,0,.66.08.8.8,0,0,0,.44-.3.86.86,0,0,0-.06-1.12l-.09-.1.14.18a1.56,1.56,0,0,1-.22-.4l.09.21a1.33,1.33,0,0,1-.1-.34l0,.23a1.41,1.41,0,0,1,0-.41l0,.23a1.58,1.58,0,0,1,.11-.37l-.09.21a1.35,1.35,0,0,1,.16-.29l-.13.17a.88.88,0,0,1,.22-.21l-.18.13.09-.06a.89.89,0,0,0,.39-.5A.85.85,0,0,0,5,50.32.86.86,0,0,0,3.82,50Z"/><path d="M5.94,23.29l-.06.07.42-.17a.89.89,0,0,0-.5.13,1.73,1.73,0,0,0-.31.22,3,3,0,0,0-.36.5l-.24.35a2.37,2.37,0,0,0-.26.56.72.72,0,0,0,0,.41.82.82,0,0,0,.2.35l.15.12a.89.89,0,0,0,1-.17L6,25.6a3.92,3.92,0,0,0,.25-.32l.26-.38a2.29,2.29,0,0,0,.31-.55l0-.21a2.34,2.34,0,0,0,0-.26,1,1,0,0,0-.12-.4v.59l0-.08a.59.59,0,0,0-.15-.75.58.58,0,0,0-.76.05Z"/><path d="M3.45,33A9.35,9.35,0,0,0,3,34c-.05.14-.12.28-.16.43a1,1,0,0,0,.39,1.12l-.39-.68v0l0-.21-.09.64a1.26,1.26,0,0,0,0,.27s0,.16,0,.06c0,.1,0,.22,0,.32a.44.44,0,0,0,.8.34,1.81,1.81,0,0,1,.18-.27c-.06.07,0,0,.06,0l.15-.2.19-.26.08-.11c0-.05.16-.19,0,0l-.77.21a1,1,0,0,0,1.06-.48,4.26,4.26,0,0,0,.26-.62c0-.14.12-.28.17-.42s.09-.31.14-.46a.86.86,0,0,0-.51-1A.85.85,0,0,0,3.45,33Z"/><path d="M22.75,59.1a4.16,4.16,0,0,0-3.1.06,6.58,6.58,0,0,0-2.57,1.78,11.28,11.28,0,0,0-2.41,6.61,5.21,5.21,0,0,0,.42,3.33c.69,1.06,2,1.13,3.11,1.24,2.48.24,5.18.19,7.37-1.14a7,7,0,0,0,2.58-2.68c.51-1,1.14-2.69.1-3.51a.67.67,0,0,0-.93,0c-.54.68-.43,1.49-.75,2.27a4.92,4.92,0,0,1-1.44,1.85,8.22,8.22,0,0,1-5.27,1.41c-.51,0-1,0-1.55-.06a5.39,5.39,0,0,1-1.39-.16c-.75-.27-.57-1.4-.54-2a10.7,10.7,0,0,1,1.44-5.51,6.13,6.13,0,0,1,4.84-2.77.35.35,0,0,0,.09-.69Z"/><path d="M28.16,65.44a4,4,0,0,0-.9,1.48,4.58,4.58,0,0,0-.17,1.73A5.58,5.58,0,0,0,28.61,72c1.89,2,5,2.54,7.64,2.37A6.59,6.59,0,0,0,40.07,73a6.17,6.17,0,0,0,1.85-2.75,6.58,6.58,0,0,0-1.34-6.56,7.63,7.63,0,0,0-3.45-2.11c-1.29-.4-3-.66-4.15.12a.79.79,0,0,0,.19,1.43,5.73,5.73,0,0,0,1.37.12,6.56,6.56,0,0,1,1.4.11,6.26,6.26,0,0,1,2.49,1.09,4.51,4.51,0,0,1,1.81,4.23,4,4,0,0,1-3,3.55,9.21,9.21,0,0,1-6.21-.8c-1.68-.93-3-3.3-1.78-5.11.42-.64-.57-1.43-1.08-.83Z"/><path d="M33.77,61.19c-1.11.24-.17,2.2.79,1.48l-.31.08a4.46,4.46,0,0,0,3.7-2,5.41,5.41,0,0,0,1-4.09c-.44-2.85-3.52-4.21-6.13-3.52-1.35.36-3.37,1.68-2.65,3.31a.67.67,0,0,0,.9.24c.14-.07.25-.17.38-.25-.22.13.15-.09.17-.12a1.5,1.5,0,0,0,.2-.24L32,55.9c-.11.17-.06.07,0,0a2.83,2.83,0,0,1,.3-.3s.18-.16.06-.06l.07,0a2.23,2.23,0,0,1,.3-.2l.31-.16c.21-.1-.14,0,0,0l.24-.08.35-.1c.08,0,.45-.07.18,0a5.09,5.09,0,0,1,.78,0h.27c-.16,0,.08,0,.09,0l.18,0,.32.08.21.07c.23.08-.17-.09,0,0s.42.23.63.36c-.2-.13.09.08.14.13s.2.21.29.32c-.15-.18.08.13.11.17s.13.25.19.38c-.08-.18,0,.18.07.24s0,.11,0,.16.06.39,0,.16a3.74,3.74,0,0,1,0,.82s0,.18,0,0a1.42,1.42,0,0,1,0,.2,3.69,3.69,0,0,1-.11.45A4.09,4.09,0,0,1,36.31,60c.09-.12,0,0-.05,0l-.19.22c-.12.12-.24.24-.37.35a5.48,5.48,0,0,1-.63.49,4.6,4.6,0,0,1-.82.38l-.16.07a.61.61,0,0,0-.27.15c-.2.22-.1.21.32,0,0,0,0,0,0,0s0,0,0,0a.24.24,0,0,1-.06.29c.44-.24.13-.87-.33-.78Z"/><path d="M47.71,67.75a3.66,3.66,0,0,0-1.91-1.41,4.92,4.92,0,0,0-2.38-.12,4.75,4.75,0,0,0-2.17,1A3.15,3.15,0,0,0,40,69.36a.8.8,0,0,0,.58.77.82.82,0,0,0,.9-.36c.18-.25.26-.55.44-.81,0,0,.13-.16,0,0,.06-.06.11-.13.17-.18a2.42,2.42,0,0,1,.33-.31c-.14.11,0,0,.06,0a1.88,1.88,0,0,1,.18-.12c.14-.09.28-.16.43-.24s-.11,0,.07,0l.2-.07.45-.14c.15,0,.3-.07.46-.09-.14,0,0,0,.07,0h.22a3.53,3.53,0,0,1,.46,0h.12l.2,0,.41.11L46,68c.05,0,.05,0,0,0a.31.31,0,0,1,.13.06,2.23,2.23,0,0,1,.67.47c.48.46,1.36-.16,1-.73Z"/><path d="M38.12,60.83c-.81,2.15,1.51,4.11,3.42,4.52,2.52.53,5.16-.89,6.75-2.79s2.92-4.85,1.88-7.44A5.13,5.13,0,0,0,48,52.55a4.14,4.14,0,0,0-1.5-.49c-.2,0-.75,0-.82-.25s.53-.75.67-.9c1.94-2,3-4.73,1.87-7.48-.39-1-1.95-.58-1.58.43a5.29,5.29,0,0,1-.07,4C46,49.11,44.81,49.8,44.2,51a1.75,1.75,0,0,0,.71,2.55,17,17,0,0,0,1.76.3,3,3,0,0,1,1.59,1.27c1.76,2.75-.7,6.29-3,7.77a4.43,4.43,0,0,1-4,.55,5,5,0,0,1-2.52-2.65.3.3,0,0,0-.54.07Z"/><path d="M49.06,44.29c.44-.11.6-.48.8-.85a1.08,1.08,0,0,0-.53-1.4.7.7,0,0,0-1,.59c0,.34-.07.65,0,1a8.18,8.18,0,0,1,0,1,8,8,0,0,1-.37,1.94,8.67,8.67,0,0,1-1.92,3.34,1,1,0,0,0,.19,1.47,5,5,0,0,1,1.11,1.09c.17.23.29.5.47.72a1.67,1.67,0,0,0,.81.44.61.61,0,0,0,.74-.42,1.24,1.24,0,0,0,0-1.08,4.64,4.64,0,0,0-.65-.94,7,7,0,0,0-1.55-1.42l.18,1.46a10.36,10.36,0,0,0,2.3-4.1,10.9,10.9,0,0,0,.39-2.34,8.84,8.84,0,0,0,0-1.15,4.29,4.29,0,0,0-.29-1.16l-.84.85c.18,0,.32.26.48.38l-.17-.29a.42.42,0,0,1-.25.44c-.26.13-.07.53.2.46Z"/><path d="M50.82,57.77l0,.1c0-.1.05-.13,0-.07l-.07.14c0,.06-.07.11-.1.16s.12-.13,0,0a2.51,2.51,0,0,0-.23.21l0,0,0,0-.19.1,1.27.73a12,12,0,0,1-.07-1.8l-1.82.25a2.17,2.17,0,0,1,.07.24l0,.12c0,.09,0,.21,0-.07,0,.17,0,.34,0,.51s0,.2,0,0,0,0,0,0a2.21,2.21,0,0,1-.05.25c0,.08,0,.16-.08.25a.36.36,0,0,0,0,.11c-.07.19.08-.17,0-.07a3.62,3.62,0,0,1-.24.43l-.08.12c-.09.13.14-.17.06-.08l-.17.19c-.28.32-.68.62-.75,1.07a.78.78,0,0,0,.34.83,1.59,1.59,0,0,0,1.85-.45,3.52,3.52,0,0,0,.81-1.23,3.6,3.6,0,0,0-.07-3,.93.93,0,0,0-1.7.72c0,.06,0,.13,0,.2s0-.15,0,0,0,.3,0,.45l.09.86a.89.89,0,0,0,.42.73.83.83,0,0,0,.85,0,2.74,2.74,0,0,0,1.31-1.65.82.82,0,0,0-.57-1,.83.83,0,0,0-1,.56Z"/><path d="M44.37,65.52a5.55,5.55,0,0,0,2.15.15,1,1,0,0,0,.69-.29,1,1,0,0,0,.28-.56,1,1,0,0,0-.71-1.08,6.2,6.2,0,0,0-2.19,0,5.58,5.58,0,0,0-1.84.71,1,1,0,0,0-.21,1.59A2.65,2.65,0,0,0,46,66a1,1,0,0,0,.26-.45,1,1,0,0,0,0-.67,1.05,1.05,0,0,0-.94-.64l-1.84-.1v2.08h1.4a1.47,1.47,0,0,0,.61-.2l-.23.1.6-.13a1.44,1.44,0,0,0,.73-.36.63.63,0,0,0,0-.88,1.38,1.38,0,0,0-.73-.37l-.6-.13.23.1a1.51,1.51,0,0,0-.77-.21H43.47a1,1,0,0,0-1,1,1.06,1.06,0,0,0,1,1l1.84.08-.73-1.76s0,0-.07.06l.21-.16a1.5,1.5,0,0,1-.32.19l.25-.1a1.76,1.76,0,0,1-.45.12l.27,0a1.77,1.77,0,0,1-.46,0l.27,0a3,3,0,0,1-.4-.11l.25.1a1.29,1.29,0,0,1-.32-.19l.2.16,0,0-.21,1.59c.21-.12.42-.23.64-.33l-.24.1a5.17,5.17,0,0,1,1.28-.35l-.26,0a5.4,5.4,0,0,1,1.27,0l-.26,0h0v-1.9h0l.26,0a7.16,7.16,0,0,1-1.85,0A.88.88,0,0,0,44,64a.93.93,0,0,0,.41,1.55Z"/><path d="M15.53,74.44c.34,0,.68,0,1-.06,0,0,.25,0,.13,0a.73.73,0,0,0,.36,0l.11,0c.17,0,.34-.08.51-.12h-.38a1.46,1.46,0,0,0,1-.13,9.29,9.29,0,0,0,.87-.35l-.47.12a2,2,0,0,0,1.08-.47c.37-.27.78-.52.91-1a1,1,0,0,0-.24-.91,1,1,0,0,0-.91-.24,1.34,1.34,0,0,0-.62.38l-.14.11,0,0a2.74,2.74,0,0,0-.84.71l.33-.33c-.2.15-.41.28-.62.41s-.61.28-.76.59l.26-.26h0l-.13.06-.2.07-.15.06a.6.6,0,0,0-.21.14c.13-.07.14-.08,0,0l-.1,0a3.74,3.74,0,0,1-.92.22A.51.51,0,0,0,15,74a.51.51,0,0,0,.5.44Z"/><path d="M17.45,72.82a1,1,0,0,0,1-.24l.22-.19-.19.15a2.43,2.43,0,0,1,.49-.29l-.24.1h.05l-.78-.1a1.15,1.15,0,0,0,.87.11c.14,0,.27-.13.41-.18l-.25.1a2.4,2.4,0,0,1,.38-.12,1,1,0,0,0-.28-2.05,1.12,1.12,0,0,0-.83.33,3.36,3.36,0,0,0-.24.29l.3-.3-.28.2.31-.08a9.37,9.37,0,0,1-1.06,0,2.26,2.26,0,0,0-.26,0c.05,0,.08,0,0,0l-.13,0-.52-.09a.83.83,0,0,0-.58.08.75.75,0,0,0-.35.45.76.76,0,0,0,.53.93h0l-.46-.35a1,1,0,0,0,.69.55,2,2,0,0,0,.49,0,3.54,3.54,0,0,0,.73-.07A2.91,2.91,0,0,0,18,72c.35-.12.75-.36.74-.79,0-.63-.7-.82-1.22-.9a4.9,4.9,0,0,0-.76-.08,2.17,2.17,0,0,0-.36,0,1,1,0,0,0-.82.58l.46-.36h0l.4,1.46.49-.09.14,0h.05c.05,0,0,0,0,0a1.11,1.11,0,0,0,.26,0,9.37,9.37,0,0,1,1.06,0l-.31-.09.16.11.08.06q-.15-.12-.09-.06a1.09,1.09,0,0,0,.9.41l-.28-2.06a2.64,2.64,0,0,0-.4.12,3.42,3.42,0,0,0-.4.17,1.08,1.08,0,0,0-.52.68l.26-.45,0,0,.21-.16a3.11,3.11,0,0,0-.67.58,1.83,1.83,0,0,0-.39.6c-.1.39.08,1,.53,1.11Z"/><path d="M14.43,62.91c0,.13-.09.26-.13.38l.32-.41c-.49.21-.49.95-.55,1.4a6.16,6.16,0,0,0-.05,1,7.9,7.9,0,0,0,.15,1.19,2.55,2.55,0,0,0,.48,1.3.85.85,0,0,0,.92.17.86.86,0,0,0,.51-.76,3.76,3.76,0,0,0-.21-1.14c0-.09,0-.18,0-.27s0,.12,0-.09,0-.32-.05-.48c0-.33,0-.65-.06-1s.14-1-.24-1.29l.21.49c0-.13,0-.26,0-.4a.63.63,0,0,0-.55-.62.65.65,0,0,0-.7.45Z"/><path d="M15.81,63.32a1.78,1.78,0,0,0-.63-.35l.33.19.07.1a.86.86,0,0,0-.73-.42,2.35,2.35,0,0,0-2,1.83,3.35,3.35,0,0,0,0,1.51c0,.21.08.42.11.63A.7.7,0,0,1,13,67c0-.19,0-.11,0,0s0,.25,0,.37,0,.2,0,.3c0-.22,0-.14,0-.07s0,.1,0,.15a2,2,0,0,0,0,.85c.26.87,1.43.47,1.73-.15a2.81,2.81,0,0,0,.17-1.52c0-.27-.08-.54-.13-.81,0-.11-.05-.23-.07-.35a.59.59,0,0,0,0-.13s0-.07,0-.11,0,0,0,.08,0-.25,0-.28,0,.05,0,.07a.86.86,0,0,0,0-.17c0-.11.07-.21.09-.32s-.1.2,0,0l.08-.15.06-.1c.1-.16-.13.13,0,0l.07-.08c.11-.12-.15.09,0,0l.09-.05-.08,0h0a.89.89,0,0,0,.61-.42l-.29.29.06,0-.38.11-.1,0h0c-.05,0-.05,0,0,0l.07,0a.72.72,0,0,0,.87-1.13Z"/><path d="M12.71,64a4.77,4.77,0,0,0-.22,2.84,3.5,3.5,0,0,0,.64,1.43,1.92,1.92,0,0,0,1.22.8.51.51,0,0,0,.5-.49,1.44,1.44,0,0,0-.13-.58,4.48,4.48,0,0,1-.16-.52c-.11-.37-.28-.72-.36-1.11l-.06-.26s0-.17,0,0,0-.06,0-.09a5.29,5.29,0,0,1-.05-.56,3.62,3.62,0,0,1,0-.57c0-.09,0,0,0,0s0-.09,0-.13.05-.22.08-.33A.77.77,0,0,0,12.71,64Z"/><path d="M15.74,72.75a2.11,2.11,0,0,0,1.29,1,4.17,4.17,0,0,0,.49.08,1,1,0,0,0,.25,0,1.62,1.62,0,0,0,.49-.08,1.24,1.24,0,0,0,.77-.55,1,1,0,0,0,.13-.49,1,1,0,0,0-.29-.7,1.06,1.06,0,0,0-.43-.26,1.08,1.08,0,0,0-.59,0l-.1,0-.22.05.27,0a1,1,0,0,1-.34,0l.27,0a1.61,1.61,0,0,1-.36-.1l.24.1-.13-.07-.35-.16.24.1-.11-.07.2.15a1,1,0,0,1-.21-.21l.15.19,0,0a.67.67,0,0,0-.24-.26.65.65,0,0,0-.33-.17.94.94,0,0,0-.73.09,1,1,0,0,0-.44.57l0,.26a.91.91,0,0,0,.13.48Z"/><path d="M30.26,60.3a2.12,2.12,0,0,0-.77-.44,1.72,1.72,0,0,0-.9,0,3.06,3.06,0,0,0-1.59.94,2.94,2.94,0,0,0-.75,1.78A2.39,2.39,0,0,0,27,64.33a3.32,3.32,0,0,0,3.29.71,2.75,2.75,0,0,0,1.93-2.93,3.37,3.37,0,0,0-3.06-3.06.64.64,0,0,0-.59.46.53.53,0,0,0,0,.33.6.6,0,0,0,.43.43,2.37,2.37,0,0,1,.36.09l.15.06s.21.09.08,0a2.55,2.55,0,0,1,.33.17l.16.11,0,0a.27.27,0,0,1,.08.07,2.23,2.23,0,0,1,.27.26s.13.16.09.1,0,0,0,0l.08.12a2.16,2.16,0,0,1,.18.3s.08.18.05.12v0s0,.08,0,.13.06.22.09.33,0,0,0,0,0,0,0,.07,0,.14,0,.21,0,.13,0,.19,0-.08,0,0a2.72,2.72,0,0,1-.11.38c0,.06,0,0,0,0l0,.1a.64.64,0,0,1-.08.14l-.05.07-.08.1-.12.11-.07.06,0,0-.3.19-.12.06c.11-.06,0,0-.05,0a1.91,1.91,0,0,1-.34.1l-.13,0c-.11,0,.1,0-.05,0a2.17,2.17,0,0,1-.36,0h-.19a2.09,2.09,0,0,1-.34-.08l-.16,0s-.18-.07-.05,0l-.28-.15-.14-.09c-.05,0,0,0,0,0l-.07-.06a1.2,1.2,0,0,1-.22-.23c.07.09,0,0,0,0l-.09-.14s-.07-.17-.05-.1,0-.1,0-.13,0-.11,0-.17,0,0,0-.08,0-.11,0-.17a.22.22,0,0,1,0-.08s0-.15,0-.08,0-.07,0-.1l0-.17.06-.17c0-.06,0,0,0,0l.06-.12.2-.32A2.62,2.62,0,0,1,28,61.2a2,2,0,0,1,.62-.45,2.14,2.14,0,0,1,1.44-.15.18.18,0,0,0,.18-.3Z"/><path d="M37.76,51.38a1.45,1.45,0,0,1,.5-.38l.13-.07c-.09,0,0,0,.08,0l.33-.1.32-.07c-.12,0,0,0,.06,0h.68s.1,0,0,0,0,0,.06,0a1.67,1.67,0,0,1,.32.08l.15,0,0,0c-.08,0,0,0,0,0a1.91,1.91,0,0,1,.28.15l.1.07.08.07a2.77,2.77,0,0,1,.24.25c-.07-.08,0,0,0,0l.11.17a1,1,0,0,0,.07.15c-.06-.13,0,0,0,.07s0,.13,0,.19,0,0,0,.08,0-.1,0,0,0,.24,0,.36,0,.2,0,.13,0,.12,0,.15a3.37,3.37,0,0,1-.1.34c0,.12,0-.07,0,0l-.1.2a3.28,3.28,0,0,1-.2.31l0,0-.07.09-.13.14a2,2,0,0,1-.27.24c.12-.09,0,0-.06,0l-.19.11-.15.07c-.08,0,.11,0,0,0l-.08,0a2.24,2.24,0,0,1-.37.1c.14,0,0,0-.06,0H39.5c-.07,0-.2,0-.06,0l-.2,0-.15,0-.08,0c-.09,0,.11.06,0,0l-.32-.17s-.17-.14,0,0a1,1,0,0,0-.11-.1l-.26-.27s-.08-.1,0,0l-.06-.09a1,1,0,0,1-.11-.17.7.7,0,0,1-.09-.17l0-.09s-.06-.13,0,0,0,0,0,0,0-.08,0-.13a.84.84,0,0,1,0-.17,1.6,1.6,0,0,1-.05-.21s0-.05,0-.08,0,.15,0,0,0-.51,0-.77c0-.06,0-.22,0-.08a1.55,1.55,0,0,1,0-.21,1.51,1.51,0,0,0,.07-.48.46.46,0,0,0-.58-.44,1,1,0,0,0-.51.38,2.5,2.5,0,0,0-.21.35,2.37,2.37,0,0,0-.24,1A3.46,3.46,0,0,0,37,54.27a3.06,3.06,0,0,0,3.49,1.4,3.59,3.59,0,0,0,2.36-3.1,3.08,3.08,0,0,0-5.68-1.68c-.2.39.31.85.64.49Z"/><path d="M42.06,74.55c-.25,0-.52,0-.76-.12a2.27,2.27,0,0,0-.78-.05.94.94,0,0,0-.52.13,1.18,1.18,0,0,0-.22.28,2.37,2.37,0,0,0-.26.53,3.17,3.17,0,0,0,0,2,3.34,3.34,0,0,0,3.19,2.45A3.58,3.58,0,0,0,45.83,77a3.07,3.07,0,0,0-.34-2.24,3.17,3.17,0,0,0-1.63-1.32,3.69,3.69,0,0,0-2.25-.14c-.76.2-1.79.77-1.81,1.65a.55.55,0,0,0,.69.53,1.66,1.66,0,0,0,.47-.26l.3-.25c-.09.07,0,0,0,0l.15-.09.14-.08.07,0c-.14.07,0,0,0,0l.33-.1.18,0c.07,0,.2,0,.05,0a4.69,4.69,0,0,1,.75,0c-.13,0-.05,0,0,0l.19,0,.35.11c.07,0,0,0,0,0l.09.05a.61.61,0,0,1,.14.07l.16.09c.05,0,.16.12.05,0a2.16,2.16,0,0,1,.27.25l.1.12c-.09-.11,0,0,.05.08l.08.14,0,.1s0-.09,0,0,.08.25.11.38,0,.06,0,.09c0-.14,0,0,0,0v.37a.28.28,0,0,0,0,.09c0-.1,0,0,0,0a2.37,2.37,0,0,1-.09.36.75.75,0,0,1,0,.16s-.06.12,0,0l0,.1a2.59,2.59,0,0,1-.19.33l-.12.17-.06.07-.27.27-.09.07s.08,0,0,0l-.19.13-.15.08s-.19.09-.08,0a1.66,1.66,0,0,1-.38.11l-.08,0h-.17a.74.74,0,0,1-.21,0h-.08c-.1,0,.14,0,0,0l-.34-.1-.08,0h0l-.19-.1-.16-.11s-.13-.1-.05,0a2.27,2.27,0,0,1-.28-.26l-.14-.16c.08.09-.05-.07-.07-.1a3.07,3.07,0,0,1-.2-.36.25.25,0,0,1,0-.07c-.05-.11,0,0,0,0A1.34,1.34,0,0,1,40.7,77c0-.15-.07-.29-.1-.43s0-.1,0,0,0,0,0-.05a1.64,1.64,0,0,1,0-.22v-.22s0-.19,0-.08a2.17,2.17,0,0,1,.11-.42.19.19,0,0,0,0-.07v0l.12-.22-.34.26a6.22,6.22,0,0,0,.77-.1,3.11,3.11,0,0,1,.69-.07c.43,0,.56-.69.11-.78Z"/><path class="cls-2" d="M34.57,114.26c10.71-2.57,20.85,2.53,31.35,3.82a69.07,69.07,0,0,0,29.33-2.85,69.7,69.7,0,0,0,7.66-3c2.38-1.09,5.2-2.23,7-4.19a.56.56,0,0,0-.54-.93c-2.31.67-4.4,2.18-6.55,3.25a66.34,66.34,0,0,1-21.53,6.42,68.38,68.38,0,0,1-14.93.17c-5.25-.53-10.29-1.93-15.42-3.07-5.37-1.19-11.24-2.15-16.43.15-.12,0,0,.23.08.2Z"/><path class="cls-2" d="M76.44,123.62a23.62,23.62,0,0,0,7.36.64,50.13,50.13,0,0,0,7.43-.73,51.41,51.41,0,0,0,7.33-1.85q1.91-.63,3.75-1.41a10.82,10.82,0,0,0,2.91-1.49c.19-.16,0-.43-.23-.39a20.07,20.07,0,0,0-3.31,1.25q-1.67.64-3.36,1.17a58.42,58.42,0,0,1-7.14,1.72,57.2,57.2,0,0,1-7.38.79c-2.45.1-4.9-.1-7.34.11a.1.1,0,0,0,0,.19Z"/><path class="cls-2" d="M83.48,131.07c1.75.14,3.5.23,5.25.24a20.56,20.56,0,0,0,5.07-.41c.15,0,.11-.27,0-.28-1.7-.05-3.44.19-5.13.28s-3.43.07-5.15,0a.1.1,0,0,0,0,.19Z"/><path class="cls-2" d="M101.82,130.16a26.8,26.8,0,0,0,4.65-.32,22.74,22.74,0,0,0,4.58-1.28.16.16,0,0,0-.08-.3c-1.47.4-3,.67-4.5,1a42.87,42.87,0,0,1-4.65.61.17.17,0,0,0,0,.34Z"/><path class="cls-2" d="M63.32,162.82c2.79.44,5.64.36,8.46.56s5.93.44,8.89.74c6,.63,12,1.48,18,2.33,11.62,1.64,23.32,3.23,35.07,3.17,3.24,0,6.47-.16,9.69-.47a46.05,46.05,0,0,0,9.77-1.69c.54-.17.49-1.1-.14-1-2.91.3-5.79.84-8.71,1.15s-5.83.48-8.76.54a154.53,154.53,0,0,1-17.61-.74c-11.71-1.09-23.32-3-35-4.18-3.27-.32-6.55-.61-9.83-.77a45.76,45.76,0,0,0-9.86.14c-.12,0-.12.24,0,.26Z"/><path class="cls-2" d="M122.75,161.72c1.68.33,3.32.7,5,.89s3.33.31,5,.37a36.2,36.2,0,0,0,10.08-.56.24.24,0,0,0-.06-.46c-3.33-.26-6.69.08-10,0s-6.68-.25-10-.62c-.24,0-.29.37-.06.41Z"/><path class="cls-2" d="M76.49,155.4a93.31,93.31,0,0,1,27.9,3.54.2.2,0,0,0,.11-.38,70.62,70.62,0,0,0-28-3.61c-.29,0-.29.46,0,.45Z"/><path class="cls-2" d="M94.7,147.65a86.91,86.91,0,0,0,15.37,2.43c5.07.32,10.55.61,15.55-.42.29-.06.22-.5-.07-.51-2.53-.05-5.08.2-7.61.25s-5.09,0-7.63-.12a121.23,121.23,0,0,1-15.55-1.83c-.13,0-.19.17-.06.2Z"/><path class="cls-2" d="M109.83,141.56c2.08.29,4.17.48,6.26.59a25.53,25.53,0,0,0,6.3-.08c.35-.07.23-.55-.08-.58-2-.18-4.16.09-6.22,0a61.16,61.16,0,0,1-6.19-.47c-.28,0-.34.45-.07.49Z"/><path class="cls-2" d="M85.58,102.64a10.78,10.78,0,0,0,4.69.31,9.89,9.89,0,0,0,2.27-.61,6.22,6.22,0,0,0,1-.5c.34-.22.62-.52.94-.77s-.06-.45-.27-.35a10.68,10.68,0,0,1-1.12.41c-.31.12-.62.25-.93.36a11.13,11.13,0,0,1-6.39.47.35.35,0,0,0-.19.68Z"/><path class="cls-2" d="M96.21,103.74a1.19,1.19,0,0,0,.56.63,5.72,5.72,0,0,0,1,.42,10.3,10.3,0,0,0,2,.45,9.67,9.67,0,0,0,1.94.08,5.59,5.59,0,0,0,2-.52.34.34,0,0,0-.17-.64c-.6,0-1.19,0-1.79.07a10.74,10.74,0,0,1-1.88,0,9.64,9.64,0,0,1-1.75-.4l-.86-.27a1.43,1.43,0,0,0-.82,0,.18.18,0,0,0-.1.25Z"/><path class="cls-2" d="M83.92,106.2c.68,2.36-2.3,4-4.08,4.78a28.14,28.14,0,0,1-7.15,1.52c-.22,0-.32.37-.06.43a12.94,12.94,0,0,0,8.2-1.33c2-.94,4.57-3,3.57-5.53-.11-.29-.57-.18-.48.13Z"/><path class="cls-2" d="M37.28,104.27a9.8,9.8,0,0,0,4,3.27,9.29,9.29,0,0,0,2.52.71,4.65,4.65,0,0,0,1.29,0,5,5,0,0,0,1.22-.27.2.2,0,0,0,0-.36c-.37-.09-.76-.07-1.13-.15s-.76-.12-1.15-.19a10.68,10.68,0,0,1-2.33-.67,9.79,9.79,0,0,1-3.8-2.85c-.28-.34-.89.12-.63.49Z"/><path class="cls-2" d="M17.55,108.6a11.31,11.31,0,0,0,6.52,2,12,12,0,0,0,3.33-.51,5.67,5.67,0,0,0,2.9-1.55c.15-.2-.09-.43-.29-.38-1,.22-1.85.85-2.82,1.15a11.33,11.33,0,0,1-3.22.5,11.84,11.84,0,0,1-6.19-1.56.23.23,0,0,0-.23.39Z"/><path class="cls-2" d="M85.31,51.21a6.06,6.06,0,0,1,1.88-.39,7.55,7.55,0,0,1,1.9.08,10.71,10.71,0,0,1,3.46,1.65c.39.24.73-.21.57-.57a4.8,4.8,0,0,0-3.73-2.38,6,6,0,0,0-2.31,0,5.46,5.46,0,0,0-2,1c-.27.19-.12.74.24.59Z"/><path class="cls-2" d="M110.37,101.15a7.35,7.35,0,0,0,3.76-.55,7.43,7.43,0,0,0,1.68-.93,5,5,0,0,0,1.25-1.47c.14-.22-.16-.42-.34-.26-.44.37-.93.65-1.4,1a10,10,0,0,1-1.51.9,9.08,9.08,0,0,1-3.37.75c-.31,0-.43.53-.07.58Z"/></g></g></svg>