<svg width="25" height="25" viewBox="0 0 25 25" fill="none" xmlns="http://www.w3.org/2000/svg">
<path fill-rule="evenodd" clip-rule="evenodd" d="M12.2964 8.54639C10.2253 8.54639 8.54639 10.2253 8.54639 12.2964C8.54639 14.3675 10.2253 16.0464 12.2964 16.0464C14.3675 16.0464 16.0464 14.3675 16.0464 12.2964C16.0464 10.2253 14.3675 8.54639 12.2964 8.54639ZM10.0464 12.2964C10.0464 11.0538 11.0538 10.0464 12.2964 10.0464C13.539 10.0464 14.5464 11.0538 14.5464 12.2964C14.5464 13.539 13.539 14.5464 12.2964 14.5464C11.0538 14.5464 10.0464 13.539 10.0464 12.2964Z" fill="#393939" stroke="#393939" stroke-width="0.6"/>
<path fill-rule="evenodd" clip-rule="evenodd" d="M12.2711 1.54639C11.8267 1.54638 11.4556 1.54638 11.151 1.56716C10.8339 1.5888 10.5344 1.63544 10.244 1.75572C9.57018 2.03483 9.03482 2.57018 8.75571 3.24401C8.61041 3.59481 8.57106 3.96451 8.55603 4.36635C8.54395 4.68938 8.38093 4.9589 8.14034 5.0978C7.89976 5.2367 7.58484 5.24312 7.29905 5.09207C6.94353 4.90416 6.60368 4.75338 6.22722 4.70382C5.50412 4.60862 4.77281 4.80458 4.19418 5.24858C3.94482 5.43992 3.75466 5.67599 3.57738 5.93979C3.40707 6.1932 3.22156 6.51454 2.99933 6.89946L2.97408 6.9432C2.75184 7.32811 2.56632 7.64943 2.43201 7.92362C2.2922 8.20906 2.18283 8.49178 2.1418 8.8034C2.0466 9.52651 2.24256 10.2578 2.68655 10.8365C2.91767 11.1376 3.21812 11.3566 3.55856 11.5705C3.83234 11.7425 3.98427 12.0185 3.98425 12.2964C3.98424 12.5742 3.83231 12.8502 3.55856 13.0222C3.21808 13.2361 2.9176 13.4551 2.68646 13.7563C2.24246 14.3349 2.04651 15.0662 2.1417 15.7893C2.18273 16.1009 2.2921 16.3837 2.43191 16.6691C2.56622 16.9433 2.75174 17.2646 2.97397 17.6495L2.99923 17.6933C3.22146 18.0782 3.40697 18.3995 3.57728 18.6529C3.75456 18.9167 3.94472 19.1528 4.19408 19.3441C4.77271 19.7881 5.50402 19.9841 6.22712 19.8889C6.60356 19.8393 6.94339 19.6886 7.29889 19.5007C7.58472 19.3496 7.89968 19.356 8.14029 19.495C8.38091 19.6339 8.54395 19.9034 8.55603 20.2265C8.57106 20.6283 8.61042 20.998 8.75571 21.3488C9.03482 22.0226 9.57018 22.558 10.244 22.8371C10.5344 22.9574 10.8339 23.004 11.151 23.0256C11.4556 23.0464 11.8267 23.0464 12.2711 23.0464H12.3216C12.7661 23.0464 13.1371 23.0464 13.4418 23.0256C13.7589 23.004 14.0584 22.9574 14.3488 22.8371C15.0226 22.558 15.558 22.0226 15.8371 21.3488C15.9824 20.998 16.0217 20.6283 16.0367 20.2264C16.0488 19.9034 16.2118 19.6339 16.4524 19.4949C16.693 19.356 17.008 19.3496 17.2938 19.5006C17.6493 19.6885 17.9891 19.8393 18.3656 19.8888C19.0887 19.984 19.82 19.7881 20.3986 19.3441C20.648 19.1527 20.8381 18.9167 21.0154 18.6529C21.1857 18.3995 21.3712 18.0782 21.5934 17.6933L21.6187 17.6495C21.8409 17.2646 22.0265 16.9432 22.1608 16.669C22.3006 16.3836 22.4099 16.1009 22.451 15.7893C22.5462 15.0661 22.3502 14.3348 21.9062 13.7562C21.6751 13.455 21.3746 13.2361 21.0342 13.0222C20.7604 12.8502 20.6085 12.5742 20.6085 12.2963C20.6085 12.0185 20.7604 11.7426 21.0341 11.5706C21.3747 11.3567 21.6752 11.1378 21.9063 10.8365C22.3503 10.2579 22.5463 9.52658 22.4511 8.80347C22.41 8.49185 22.3007 8.20913 22.1609 7.92369C22.0266 7.64952 21.8411 7.32822 21.6188 6.94334L21.5936 6.89957C21.3713 6.51464 21.1858 6.19327 21.0155 5.93986C20.8382 5.67606 20.6481 5.43999 20.3987 5.24864C19.8201 4.80465 19.0888 4.60869 18.3656 4.70389C17.9892 4.75345 17.6494 4.90421 17.2939 5.09211C17.0081 5.24318 16.6931 5.23675 16.4525 5.09783C16.2119 4.95892 16.0488 4.68936 16.0367 4.3663C16.0217 3.96447 15.9824 3.59479 15.8371 3.24401C15.558 2.57018 15.0226 2.03483 14.3488 1.75572C14.0584 1.63544 13.7589 1.5888 13.4418 1.56716C13.1371 1.54638 12.7661 1.54638 12.3216 1.54639H12.2711ZM10.818 3.14154C10.8952 3.10958 11.0124 3.08011 11.2531 3.06368C11.5006 3.0468 11.8202 3.04639 12.2964 3.04639C12.7726 3.04639 13.0922 3.0468 13.3396 3.06368C13.5804 3.08011 13.6976 3.10958 13.7747 3.14154C14.081 3.26841 14.3244 3.51175 14.4512 3.81804C14.4913 3.91465 14.5244 4.06526 14.5378 4.42236C14.5674 5.21474 14.9764 5.97768 15.7025 6.39687C16.4285 6.81607 17.2938 6.78879 17.9948 6.41827C18.3107 6.25129 18.4578 6.20471 18.5614 6.19106C18.8901 6.14779 19.2225 6.23686 19.4855 6.43867C19.5518 6.48951 19.6359 6.57628 19.7705 6.77655C19.9089 6.98242 20.069 7.25899 20.3071 7.67139C20.5452 8.0838 20.7047 8.36077 20.8138 8.58352C20.9199 8.80021 20.953 8.91646 20.9639 8.99926C21.0072 9.32794 20.9181 9.66036 20.7163 9.92337C20.6526 10.0063 20.5388 10.1104 20.2361 10.3005C19.5648 10.7224 19.1086 11.458 19.1085 12.2963C19.1085 13.1347 19.5647 13.8704 20.2361 14.2923C20.5387 14.4824 20.6525 14.5864 20.7162 14.6694C20.918 14.9324 21.0071 15.2648 20.9638 15.5935C20.9529 15.6763 20.9198 15.7925 20.8137 16.0092C20.7046 16.2319 20.5451 16.5089 20.307 16.9213C20.0689 17.3337 19.9088 17.6103 19.7704 17.8162C19.6358 18.0164 19.5517 18.1032 19.4854 18.154C19.2224 18.3559 18.89 18.4449 18.5613 18.4017C18.4577 18.388 18.3106 18.3414 17.9947 18.1745C17.2937 17.8039 16.4284 17.7767 15.7023 18.1959C14.9764 18.6151 14.5674 19.378 14.5378 20.1704C14.5244 20.5275 14.4913 20.6781 14.4512 20.7748C14.3244 21.081 14.081 21.3244 13.7747 21.4513C13.6976 21.4832 13.5804 21.5127 13.3396 21.5291C13.0922 21.546 12.7726 21.5464 12.2964 21.5464C11.8202 21.5464 11.5006 21.546 11.2531 21.5291C11.0124 21.5127 10.8952 21.4832 10.818 21.4513C10.5118 21.3244 10.2684 21.081 10.1415 20.7748C10.1015 20.6781 10.0683 20.5275 10.055 20.1704C10.0253 19.3781 9.61636 18.6151 8.89029 18.1959C8.16423 17.7767 7.29901 17.804 6.59797 18.1745C6.28204 18.3415 6.13502 18.3881 6.03134 18.4017C5.70265 18.445 5.37024 18.3559 5.10723 18.1541C5.04097 18.1033 4.95684 18.0165 4.82225 17.8162C4.6839 17.6104 4.52375 17.3338 4.28565 16.9214C4.04754 16.509 3.8881 16.232 3.77899 16.0093C3.67285 15.7926 3.63977 15.6763 3.62887 15.5935C3.5856 15.2648 3.67467 14.9324 3.87649 14.6694C3.94015 14.5865 4.054 14.4824 4.35659 14.2923C5.02797 13.8705 5.48421 13.1348 5.48425 12.2965C5.4843 11.458 5.02804 10.7223 4.3566 10.3004C4.05408 10.1103 3.94024 10.0063 3.87658 9.9233C3.67477 9.66029 3.5857 9.32788 3.62897 8.99919C3.63987 8.9164 3.67295 8.80014 3.77909 8.58346C3.8882 8.3607 4.04764 8.08373 4.28574 7.67132C4.52385 7.25892 4.68399 6.98235 4.82235 6.77648C4.95694 6.57622 5.04107 6.48944 5.10732 6.43861C5.37034 6.23679 5.70275 6.14772 6.03143 6.19099C6.13512 6.20464 6.28215 6.25122 6.59812 6.41823C7.29912 6.78874 8.1643 6.81601 8.89033 6.39684C9.61637 5.97767 10.0253 5.21476 10.055 4.42241C10.0683 4.06528 10.1015 3.91466 10.1415 3.81804C10.2684 3.51175 10.5118 3.26841 10.818 3.14154Z" fill="#393939" stroke="#393939" stroke-width="0.6"/>
</svg>
